<?xml version="1.0" encoding="UTF-8"?>
<svg id="Laag_2" data-name="Laag 2" xmlns="http://www.w3.org/2000/svg" viewBox="0 0 431.72 418.47">
  <defs>
    <style>
      .cls-1 {
        fill: #d9544e;
      }

      .cls-2 {
        isolation: isolate;
      }
    </style>
  </defs>
  <g id="Laag_1-2" data-name="Laag 1">
    <g>
      <g id="H" class="cls-2">
        <g class="cls-2">
          <path class="cls-1" d="m17.95,112.26l35.3,18.1c.34.18.57.45.69.81.12.36.09.72-.09,1.06l-3.97,7.74c-.19.38-.47.62-.82.72-.36.1-.71.06-1.05-.11l-11.04-5.66c-.34-.18-.7-.21-1.06-.09-.36.12-.63.35-.81.69l-5.43,10.59c-.19.38-.23.74-.1,1.09.13.35.36.61.71.78l11.04,5.66c.34.18.57.45.69.81.12.37.09.72-.09,1.07l-3.96,7.73c-.2.38-.47.62-.83.72-.36.1-.71.06-1.05-.11L.78,145.76c-.34-.18-.58-.44-.7-.79-.13-.35-.09-.71.1-1.09l3.96-7.73c.18-.35.45-.58.81-.7.36-.12.72-.09,1.06.08l12.19,6.25c.34.18.69.21,1.04.11.35-.1.63-.34.82-.72l5.43-10.59c.18-.34.21-.69.09-1.06-.12-.36-.35-.63-.69-.81l-12.19-6.25c-.34-.18-.58-.44-.7-.78-.13-.35-.09-.71.1-1.09l3.97-7.74c.18-.34.45-.57.81-.69.36-.12.72-.09,1.06.09Z"/>
        </g>
      </g>
      <g id="e" class="cls-2">
        <g class="cls-2">
          <path class="cls-1" d="m42.29,96.02l1.84,1.54c.29.24.62.35,1,.31.38-.03.68-.2.93-.49l9.91-11.85c.24-.29.55-.45.93-.49.38-.03.71.07,1,.31l6.04,5.04c.29.24.46.55.49.93.03.38-.07.71-.31,1l-9.91,11.85c-.24.29-.35.62-.32,1,.04.38.2.68.49.93l1.66,1.39c.29.24.62.35,1,.31.38-.03.68-.2.93-.49l11.37-13.6c.24-.29.55-.45.93-.49.37-.03.71.07,1,.31l6.04,5.04c.29.24.45.55.49.93.03.38-.07.71-.32,1l-18.6,22.26c-.24.29-.55.45-.93.49-.38.03-.71-.07-1-.31l-29.92-25c-.29-.24-.45-.55-.49-.93-.03-.37.07-.71.32-1l18.6-22.26c.24-.29.55-.45.93-.49.37-.03.71.07,1,.31l5.95,4.97c.29.24.45.55.49.93.03.38-.07.71-.32,1l-11.37,13.6c-.24.29-.35.62-.31,1,.03.38.2.68.49.93Z"/>
        </g>
      </g>
      <g id="a" class="cls-2">
        <g class="cls-2">
          <path class="cls-1" d="m70.03,55.11c-.09-.36-.06-.74.07-1.15.13-.41.36-.74.69-.99l6.23-4.76c.3-.23.66-.35,1.09-.37.43-.02.8.05,1.13.23l36.11,20.33c.32.18.52.48.58.9.06.42-.14.81-.62,1.18l-7.61,5.81c-.33.25-.71.39-1.13.41-.43.02-.82-.04-1.17-.2l-3.24-1.75c-.35-.15-.74-.22-1.17-.2-.43.02-.79.15-1.09.37l-9.39,7.17c-.33.25-.56.58-.69.99-.13.41-.16.79-.07,1.15l.79,3.62c.08.36.06.74-.07,1.15-.13.41-.35.73-.65.95l-7.65,5.85c-.15.11-.33.2-.54.27-.21.07-.41.08-.6.04-.19-.04-.37-.14-.54-.29-.17-.16-.28-.4-.34-.73l-10.11-39.99Zm17.41,17.35l3.96-3.03c.3-.23.44-.49.42-.78-.01-.29-.2-.52-.55-.67-.86-.51-1.88-1.11-3.06-1.79-1.17-.68-2.27-1.31-3.28-1.9-.32-.18-.56-.21-.71-.1-.15.11-.18.35-.09.71l1.89,7.08c.08.36.26.59.53.69.27.1.56.03.89-.22Z"/>
        </g>
      </g>
      <g id="l" class="cls-2">
        <g class="cls-2">
          <path class="cls-1" d="m144.47,45.9l3.49,7.23c.17.35.19.72.06,1.08-.13.37-.37.64-.72.81l-26.51,12.8c-.39.19-.76.21-1.11.08-.35-.14-.61-.38-.78-.74l-17.55-36.34c-.17-.35-.2-.71-.09-1.07.11-.36.36-.63.75-.82l7.97-3.85c.35-.17.71-.19,1.08-.06.37.13.64.37.81.72l12.83,26.56c.17.36.43.6.78.74s.72.11,1.11-.08l15.99-7.72c.35-.17.72-.19,1.08-.06.37.13.64.37.81.72Z"/>
        </g>
      </g>
      <g id="t" class="cls-2">
        <g class="cls-2">
          <path class="cls-1" d="m164.25,16.7l-7.75,2.4c-.37.11-.64.34-.82.68-.18.34-.21.69-.1,1.06l8.58,27.7c.11.37.09.72-.07,1.05-.16.33-.44.56-.85.69l-8.31,2.58c-.37.11-.72.08-1.06-.1-.34-.18-.57-.45-.68-.82l-8.58-27.7c-.11-.37-.33-.65-.65-.83-.32-.18-.68-.21-1.09-.09l-7.87,2.44c-.37.11-.72.08-1.06-.1-.34-.18-.56-.45-.68-.82l-2.33-7.53c-.11-.37-.08-.72.1-1.06.18-.34.45-.57.82-.68l29.25-9.06c.41-.13.77-.1,1.09.09.32.18.54.46.65.83l2.33,7.53c.11.37.09.72-.07,1.05-.16.33-.44.56-.85.69Z"/>
        </g>
      </g>
      <g id="h-2" class="cls-2">
        <g class="cls-2">
          <path class="cls-1" d="m213.12,1.28l3.33,39.51c.03.39-.08.73-.32,1.02-.25.29-.56.45-.95.49l-8.67.73c-.42.04-.77-.07-1.05-.32-.27-.25-.43-.57-.46-.95l-1.04-12.36c-.03-.38-.19-.7-.49-.95-.29-.25-.63-.35-1.01-.32l-11.85,1c-.42.04-.75.2-.97.49-.23.29-.32.63-.29,1.01l1.04,12.36c.03.39-.08.73-.32,1.02-.25.29-.57.46-.95.49l-8.65.73c-.43.04-.78-.07-1.05-.32-.27-.25-.43-.56-.46-.95l-3.33-39.51c-.03-.38.06-.72.29-1.01.23-.29.56-.46.98-.49l8.65-.73c.39-.03.73.07,1.02.32.29.25.46.56.49.94l1.15,13.64c.03.38.18.7.46.95s.62.35,1.04.32l11.85-1c.38-.03.7-.19.94-.48.25-.29.35-.63.32-1.01l-1.15-13.64c-.03-.38.06-.72.29-1.01.23-.29.55-.45.98-.49L211.61,0c.38-.03.72.08,1.02.32.29.25.46.56.49.95Z"/>
        </g>
      </g>
      <g id="y" class="cls-2">
        <g class="cls-2">
          <path class="cls-1" d="m269.96,7.65l-17.74,21.15c-.24.32-.48.71-.7,1.19-.23.48-.37.9-.42,1.29l-1.92,13.14c-.06.38-.24.69-.54.92-.31.23-.65.32-1.03.26l-8.62-1.26c-.38-.06-.69-.24-.91-.54-.23-.31-.31-.65-.26-1.03l1.91-13.09c.06-.38.05-.84,0-1.38-.06-.54-.16-.97-.31-1.31-1.72-4.28-3.5-8.48-5.34-12.62-1.84-4.14-3.65-8.39-5.44-12.75-.14-.37-.13-.73.04-1.08s.44-.49.83-.44l10.22,1.49c.38.06.76.23,1.13.52s.62.62.76.99l5.24,13.31c.15.33.35.52.62.56.27.04.52-.08.75-.36l8.77-11.27c.24-.32.58-.56,1.02-.73s.84-.23,1.23-.17l10.33,1.51c.38.06.64.23.77.52.13.29,0,.69-.38,1.18Z"/>
        </g>
      </g>
      <g id="f" class="cls-2">
        <g class="cls-2">
          <path class="cls-1" d="m308.24,32.92l-1.09,2.24c-.17.36-.19.72-.06,1.09.13.37.38.64.74.82l14.57,7.09c.36.17.6.45.73.82.13.37.11.74-.07,1.1l-3.67,7.55c-.17.36-.45.6-.82.73-.38.13-.74.11-1.1-.07l-14.57-7.09c-.36-.17-.73-.2-1.1-.07-.38.13-.65.37-.82.73l-5.8,11.92c-.18.36-.45.61-.82.73-.37.13-.74.11-1.1-.07l-8.11-3.94c-.36-.17-.6-.45-.73-.82s-.1-.74.07-1.1l17.95-36.91c.17-.36.45-.6.82-.73.37-.13.74-.11,1.1.07l27.42,13.34c.36.17.6.45.73.83.13.38.1.74-.07,1.1l-3.62,7.43c-.17.36-.45.61-.83.74-.38.13-.74.11-1.1-.07l-16.73-8.14c-.36-.17-.73-.2-1.1-.07-.37.13-.65.37-.82.72Z"/>
        </g>
      </g>
      <g id="o" class="cls-2">
        <g class="cls-2">
          <path class="cls-1" d="m330.11,53.35c1.92-2.39,4.2-4.27,6.82-5.65,2.62-1.38,5.35-2.22,8.18-2.54,2.83-.32,5.67-.09,8.53.69,2.85.78,5.48,2.13,7.87,4.06s4.27,4.2,5.65,6.82c1.37,2.62,2.21,5.36,2.52,8.2.31,2.85.07,5.7-.71,8.55-.78,2.85-2.13,5.48-4.06,7.87-1.92,2.39-4.2,4.27-6.82,5.65-2.62,1.37-5.36,2.21-8.2,2.52s-5.7.07-8.55-.71-5.48-2.13-7.87-4.06c-2.39-1.92-4.27-4.2-5.65-6.82-1.38-2.62-2.21-5.35-2.5-8.18-.29-2.84-.05-5.68.73-8.53.78-2.86,2.13-5.48,4.06-7.87Zm9.1,7.32c-.94,1.16-1.61,2.44-2.02,3.83-.41,1.39-.56,2.78-.45,4.18.11,1.4.48,2.75,1.11,4.03.63,1.29,1.51,2.39,2.64,3.3s2.4,1.54,3.79,1.88c1.39.34,2.79.42,4.2.24,1.41-.18,2.75-.62,4.01-1.31,1.27-.7,2.37-1.63,3.31-2.79.91-1.13,1.58-2.4,2-3.8s.56-2.8.43-4.2c-.14-1.4-.52-2.74-1.15-4.03-.63-1.29-1.51-2.39-2.64-3.3-1.13-.91-2.4-1.54-3.79-1.88-1.39-.34-2.78-.42-4.16-.24-1.38.18-2.71.62-3.99,1.33-1.28.71-2.38,1.64-3.29,2.77Z"/>
        </g>
      </g>
      <g id="o-2" class="cls-2">
        <g class="cls-2">
          <path class="cls-1" d="m371.06,87.33c2.46-1.83,5.13-3.09,8-3.77,2.88-.68,5.73-.82,8.55-.42,2.82.4,5.52,1.33,8.09,2.8,2.57,1.47,4.77,3.43,6.6,5.89,1.83,2.46,3.09,5.12,3.77,8,.68,2.88.81,5.74.4,8.57-.41,2.83-1.35,5.53-2.82,8.1-1.47,2.57-3.43,4.77-5.89,6.6-2.46,1.83-5.13,3.09-8,3.77-2.88.68-5.74.81-8.57.4-2.83-.41-5.54-1.35-8.1-2.82s-4.77-3.43-6.6-5.89c-1.83-2.46-3.09-5.13-3.77-8.01s-.81-5.73-.38-8.55c.42-2.82,1.37-5.51,2.84-8.08,1.47-2.57,3.43-4.77,5.89-6.6Zm6.99,9.36c-1.2.89-2.17,1.96-2.91,3.2-.74,1.24-1.23,2.55-1.48,3.94s-.22,2.78.07,4.18c.29,1.4.87,2.69,1.74,3.86.87,1.17,1.94,2.09,3.2,2.76,1.26.68,2.6,1.1,4.01,1.28,1.41.18,2.81.08,4.21-.27,1.4-.36,2.7-.98,3.9-1.88,1.17-.87,2.13-1.93,2.88-3.18.76-1.25,1.24-2.57,1.46-3.96.21-1.39.18-2.78-.11-4.19-.29-1.4-.87-2.69-1.74-3.85-.87-1.17-1.94-2.09-3.2-2.76-1.26-.67-2.59-1.1-3.97-1.27-1.38-.17-2.78-.07-4.19.3-1.42.37-2.71.99-3.87,1.86Z"/>
        </g>
      </g>
      <g id="m" class="cls-2">
        <g class="cls-2">
          <path class="cls-1" d="m152.76,367.15l-21,31.96c-.21.31-.49.51-.85.58-.36.07-.7,0-1.01-.19l-7.03-4.62c-.31-.2-.5-.49-.58-.85-.07-.36,0-.7.2-1.01l9.9-15.07c.21-.31.18-.58-.08-.79-.26-.21-.57-.26-.92-.13l-16.22,7.5c-.32.15-.65.11-1-.12-.34-.23-.53-.53-.55-.9l.45-17.86c0-.35-.14-.61-.44-.76-.3-.15-.56-.07-.76.24l-9.9,15.07c-.21.31-.49.51-.85.58-.36.07-.7.01-1.01-.19l-7.03-4.62c-.31-.2-.5-.49-.58-.85-.07-.36,0-.7.2-1.01l21-31.96c.21-.31.49-.51.85-.58.36-.07.7-.01,1.01.19l6.52,4.28c.31.2.58.51.79.92.22.41.32.79.31,1.14l.33,19.12c.02.37.16.64.41.81.25.16.53.17.86.03l17.68-7.28c.35-.13.76-.17,1.22-.13.47.04.85.16,1.16.36l6.52,4.28c.31.2.5.49.58.85.07.36,0,.7-.2,1.01Z"/>
        </g>
      </g>
      <g id="Group_343" data-name="Group 343">
        <g id="a-2" class="cls-2">
          <g class="cls-2">
            <path class="cls-1" d="m168.92,372.46c.23-.27.54-.47.93-.61.39-.13.78-.14,1.16-.04l7.27,2.06c.35.1.65.31.92.62.27.32.42.65.47,1l5.17,39.63c.05.35-.07.67-.36.97-.29.29-.71.36-1.26.2l-8.89-2.52c-.38-.11-.7-.32-.97-.64-.27-.32-.44-.66-.52-1.02l-.52-3.51c-.09-.36-.26-.7-.53-1.02-.27-.32-.57-.53-.92-.63l-10.96-3.1c-.38-.11-.77-.1-1.16.04-.39.13-.7.33-.93.61l-2.34,2.71c-.23.27-.54.47-.93.61-.39.13-.76.15-1.11.05l-8.94-2.53c-.17-.05-.35-.13-.52-.26-.17-.12-.3-.27-.38-.44-.08-.17-.11-.37-.09-.59.03-.22.15-.44.36-.68l25.03-30.91Zm-3.33,23.47l4.62,1.31c.35.1.63.06.85-.12.22-.18.29-.45.2-.81-.1-.96-.23-2.09-.39-3.39-.16-1.3-.3-2.51-.43-3.63-.05-.35-.16-.55-.33-.6-.17-.05-.37.06-.6.34l-4.38,5.55c-.23.27-.3.54-.23.8.07.27.3.45.68.56Z"/>
          </g>
        </g>
        <g id="r" class="cls-2">
          <g class="cls-2">
            <path class="cls-1" d="m202.31,417.81l-8.08-.22c-.36,0-.67-.14-.91-.4-.25-.26-.36-.57-.35-.93l.99-36.92c0-.36.14-.66.4-.91.26-.24.57-.36.93-.35l16.79.45c2.09.06,4,.46,5.75,1.21s3.22,1.77,4.43,3.06c1.21,1.29,2.14,2.81,2.79,4.56.66,1.75.96,3.66.9,5.75-.03,1.15-.2,2.29-.5,3.42-.3,1.13-.72,2.19-1.25,3.18-.53.99-1.15,1.89-1.85,2.68-.71.79-1.5,1.45-2.38,1.96-.29.21-.49.46-.59.77-.1.3-.04.6.17.9,1.32,1.84,2.71,3.73,4.17,5.68,1.46,1.95,2.76,3.73,3.91,5.34.21.29.25.61.14.95-.12.34-.36.5-.71.49l-10.04-.27c-.36,0-.74-.12-1.15-.33-.41-.21-.72-.46-.92-.75-1.11-1.54-2.2-3.1-3.29-4.68-1.09-1.58-2.16-3.17-3.23-4.79-.21-.29-.51-.54-.89-.75-.39-.21-.76-.32-1.12-.33l-1.18-.03c-.36,0-.67.11-.92.35s-.39.55-.4.91l-.23,8.75c0,.36-.15.66-.41.91s-.57.36-.93.35Zm3.16-21.2l5.69.15c.43.01.88-.06,1.35-.21.47-.15.91-.39,1.31-.72.4-.33.74-.74,1-1.24.26-.5.41-1.09.42-1.77,0-.36-.04-.79-.15-1.27s-.31-.96-.61-1.42c-.29-.46-.69-.85-1.21-1.17-.51-.32-1.14-.49-1.9-.51l-5.69-.15c-.36,0-.67.11-.92.35-.26.25-.39.55-.4.91l-.15,5.72c0,.36.11.67.35.93.24.26.54.39.9.4Z"/>
          </g>
        </g>
        <g id="k" class="cls-2">
          <g class="cls-2">
            <path class="cls-1" d="m260.5,410.58l-12.61-8.89c-.3-.22-.53-.28-.67-.17-.14.11-.17.33-.09.67l2.44,10.59c.08.35.03.67-.16.96-.19.3-.45.49-.79.56l-7.75,1.79c-.38.09-.71.04-.99-.15-.28-.19-.46-.46-.54-.8l-8.15-35.32c-.08-.34-.04-.66.13-.95.17-.29.44-.48.82-.57l7.75-1.79c.34-.08.66-.03.96.16.29.18.48.45.56.79l2.74,11.88c.08.34.19.53.34.55.15.02.3-.13.44-.46l6.45-14.49c.14-.32.38-.62.72-.9.33-.28.69-.46,1.07-.55l9.86-2.28c.38-.09.66.02.84.32s.2.62.05.94l-9.66,20.12c-.14.32-.17.66-.06,1.02.1.36.3.63.6.81,1.46,1,3.01,2.04,4.64,3.12,1.63,1.08,3.25,2.16,4.86,3.26,1.61,1.1,3.2,2.18,4.77,3.25,1.57,1.07,3.06,2.06,4.46,2.97.3.22.46.51.47.87.01.36-.17.58-.55.67l-10.69,2.47c-.38.09-.79.09-1.22,0s-.79-.24-1.06-.46Z"/>
          </g>
        </g>
      </g>
      <g id="e-2" class="cls-2">
        <g class="cls-2">
          <path class="cls-1" d="m282.45,374.83l1.08,2.09c.17.33.43.56.78.67.35.11.69.08,1.03-.09l13.49-6.96c.33-.17.67-.2,1.03-.09.35.11.61.33.79.67l3.54,6.87c.17.33.2.68.09,1.03-.11.35-.33.61-.67.78l-13.49,6.96c-.33.17-.55.43-.67.79-.11.35-.08.69.09,1.03l.98,1.89c.17.33.43.55.79.67.35.11.69.08,1.03-.09l15.48-7.99c.33-.17.67-.2,1.03-.09.35.11.61.33.78.67l3.54,6.87c.17.33.2.67.09,1.03-.11.35-.33.61-.67.78l-25.33,13.07c-.33.17-.68.2-1.03.09-.35-.11-.61-.33-.79-.67l-17.57-34.04c-.17-.33-.2-.67-.09-1.02.11-.35.33-.61.67-.79l25.33-13.07c.33-.17.67-.2,1.03-.09.35.11.61.33.78.67l3.49,6.77c.17.33.2.67.09,1.03-.11.35-.34.61-.67.78l-15.48,7.99c-.33.17-.55.43-.67.79-.11.35-.08.7.09,1.03Z"/>
        </g>
      </g>
      <g id="t-2" class="cls-2">
        <g class="cls-2">
          <path class="cls-1" d="m325.46,343.65l-6.05,4.99c-.29.24-.45.54-.48.91-.04.37.07.7.3.98l17.82,21.6c.24.29.35.61.33.97-.02.36-.19.67-.51.93l-6.48,5.35c-.29.24-.62.34-.98.3-.37-.04-.67-.2-.91-.49l-17.82-21.59c-.24-.29-.53-.46-.89-.5-.35-.05-.69.06-1.01.32l-6.13,5.06c-.29.24-.62.34-.98.3-.37-.04-.67-.2-.91-.49l-4.85-5.87c-.24-.29-.34-.62-.3-.98s.2-.67.48-.91l22.8-18.82c.32-.26.65-.37,1.01-.32s.65.21.89.5l4.85,5.87c.24.29.35.61.33.97-.02.36-.19.66-.51.93Z"/>
        </g>
      </g>
      <g id="Group_341" data-name="Group 341">
        <g id="d" class="cls-2">
          <g class="cls-2">
            <path class="cls-1" d="m384.62,139.44l37.59-14.69c.37-.14.73-.14,1.08.02.36.16.61.42.75.78l5.86,15c2.25,5.75,2.4,11.12.46,16.1-1.06,2.69-2.65,5.05-4.78,7.06-2.13,2.01-4.77,3.64-7.92,4.87-3.15,1.23-6.2,1.83-9.15,1.8-2.95-.03-5.72-.68-8.33-1.94-2.37-1.19-4.43-2.8-6.2-4.83-1.77-2.03-3.21-4.48-4.33-7.34l-5.86-15c-.14-.37-.14-.73.02-1.08.15-.36.42-.61.78-.75Zm13.56,8.76l1.61,4.12c.4,1.02.94,2.04,1.63,3.04.69,1,1.56,1.8,2.62,2.4,1.06.6,2.35.93,3.87.99,1.52.06,3.33-.32,5.42-1.13,2.09-.82,3.67-1.76,4.75-2.84,1.08-1.08,1.8-2.2,2.16-3.38.36-1.18.46-2.36.3-3.54-.17-1.18-.45-2.29-.85-3.31l-1.61-4.12c-.14-.37-.39-.63-.75-.78-.36-.16-.72-.16-1.08-.02l-17.25,6.74c-.37.14-.63.39-.78.75-.16.36-.16.72-.02,1.08Z"/>
          </g>
        </g>
      </g>
      <g id="Group_339" data-name="Group 339">
        <path id="Path_11497" data-name="Path 11497" class="cls-1" d="m95.86,212.23c-5.83-8.55-5.78-17.72-.55-26.46,10.86-18.16,22.88-35.42,32.39-54.62,2.14-4.32,2.51-8.28,2.99-12.78.88-8.41,4.7-14.62,12.96-14.73,47.17-.6,94.34-1.04,141.51-1.32,7.22-.04,13.02,2.99,11.63,13.04-.75,5.47,1.6,9.31,4.51,13.13,13.17,17.31,22.68,37.45,34.47,55.85,6.74,10.51,4.86,21.97-4.41,28.81-4.25,3.13-5.81,6.35-5.33,11.83.49,5.58.22,11.24.24,16.87.01,2.85-.2,6.66,2.61,7.23,10.92,2.18,5.52,11.74,6.95,18.14.2.89-.11,2.68-.61,2.9-14.31,6.5-4.47,19.85-6.53,29.75-1.67,8.03,6.95,3.1,10.85,10.26-82.72.9-163.65,1.59-244.35,2.21-.62-4.69,1.07-4.84,2.59-5.09,6.97-1.18,8.87-5.96,8.02-13.24-.32-4.21-.39-8.43-.21-12.65.02-3.98-.24-6.88-4.76-8.44-6.2-2.15-4.61-8.91-4.99-14.4-.32-4.63,1.48-6.12,5.32-6.38,2.44-.17,3.81-2.35,3.81-5.15,0-8.44.13-16.89-.22-25.32-.2-4.73-4.64-5.1-7.31-7.25-.53-.73-1.07-1.47-1.6-2.2m132.78-102.32c-.63.01-1.27.02-1.9.04-28.32-.5-56.64-.53-84.94.96-4.69,1.97-4.25,6.4-3.1,10.19,1.12,3.7,4.69,2.15,7.24,2.26,3.02.12,6.07-.28,9.1-.45l7.71-.14c1.2,0,2.4-.01,3.6-.02,2.58,0,5.16,0,7.73-.02,4.34-.04,8.69-.08,13.03-.12,3.81-.04,7.62-.09,11.43-.13l34-.37c18.24-.15,36.49-.3,54.73-.45,3.13.87,3.98-.72,3.37-3.9,1.33-6.17-.34-9.13-6.52-8.94-18.48.57-36.98.76-55.47,1.09m100.69,146.87c-.78-.48-1.57-1.4-2.35-1.39-24.66.29-49.31.63-73.97,1.03-1.53.03-3.05.05-4.58.08-45.85.23-91.71.4-137.56.79-3.2.03-8.47-2.28-8.45,4.78.02,7.16,5.27,4.02,8.47,4.68,1.19.24,2.49-.23,3.73-.37,3.32-.09,6.65-.18,9.97-.27,1.7,0,3.4-.01,5.1-.02,7.06.82,14.19.76,21.24-.19l.76.27.76-.26c5.18.81,10.46.74,15.61-.21,19.91.67,39.82.54,59.71-.55,2.01,0,4.02,0,6.04,0,1.26,0,2.51-.02,3.76-.02,11.38.76,22.81.65,34.18-.33l.76.27.76-.26,43.9-.44c4.15.19,8.45,2.15,12.29-1.28-.05-2.1-.09-4.2-.14-6.3m-191.55,36.12c-3.77.03-7.55.05-11.32.08-3.45-.08-6.89-.21-10.34-.23-3.63-.02-6.75.13-6.74,5.99,0,6.05,2.95,6.96,7.17,6.89,6.91-.11,13.82-.16,20.73-.24,60.61-.67,121.21-1.35,181.82-2.02,1.37.08,1.89-.67,1.67-2.14.9-6.74-.46-10.31-7.8-10.21-58.4.85-116.8,1.31-175.2,1.88m-24.71-18.65c-4.9,3.88-4.87,7.32.11,11.01,5.87,1.85,11.85.73,17.76.68,62.67-.62,125.33-1.31,187.99-2.07,5.05-4.15,5.03-7.82-.05-11.98l-28.37.26c-.63,0-1.26.02-1.88.03l-9.45.18c-2.51.01-5.02.03-7.54.04l-30.3.27c-4.34.03-8.69.05-13.03.08-32.79-.63-65.57-.11-98.33.95-2.49.02-4.98.04-7.47.05-3.17-.49-6.33-.76-9.43.51m-2.01-39.54h-.04c.04,3.87.22,7.74.07,11.6-.22,5.58,2.81,6.15,6.68,6.03,3.9-.12,8.89-.09,7.95-5.92-1.59-9.9,3.3-11.21,9.93-12.63,2.83-.61,6.43.73,8.69-2.69,5.48-8.3,13.54-5.16,19.85-3.6,6.24,1.54,2.64,9.66,3.31,14.84.5,3.8-.44,7.78,5.03,7.75,21.94-.1,43.89-1.38,65.82,1.02,3.5.38,8.49-1.12,8.04-4.9-1.49-12.46,4.85-12.85,12.73-12.21,2.13.17,3.4-1.65,4.36-3.47,1.96-3.72,5.24-4.03,8.55-5.13,12.36-4.12,19.88,11.77,32,9.37,2.01-.4,1.38,5.56,1.27,8.51-.2,5.46,1.66,6.96,6.52,7.4,8.09.75,11.71-1.7,10.4-11.44-.68-5.59-.72-11.24-.15-16.84.74-8.05-7.85-11.44-8.91-10.71-9.23,6.36-18.7,2.43-28.05,3.19-6.85.56-13.02,3.02-19.18-2.04-.89-.73-2.76-1.56-3.21-1.12-7.39,7.33-15.16,6.07-23.26,1.79-1.22-.41-2.56-.23-3.62.49-6.93,4.69-13.33,6.47-18.39-3.06-.61-.57-1.5-.74-2.29-.44-7.25,6.36-14.82,9.46-23.52,3.46-11.36,9.07-23.37-3.18-35.62,1.55-7.38,2.85-16.98-4.55-25.16,2.79-1.88,1.68-4.58-.53-6.76-2.26-6.58-5.2-12.53-1.96-13.12,7.07-.25,3.84.02,7.73.06,11.6m222.31-37.44c1.01-7.5-4.67-5.63-8.74-5.59-65.68.55-131.35,1.26-197.02,1.71-8.3.06-16.9,2.43-24.85-2.74-3.27-2.12-4.63.58-5.12,3.47-1.08,6.38,1.26,11.71,5.26,15.95,3.81,4.05,7.88,1.79,10.92-1.26,3.77-3.77,7.47-3.97,10.87-.58,7.24,7.2,12.25,3.47,15.57-4.14,2.54-5.83,3.93-6.91,6.43-.43,1.92,4.96,5.39,6.07,9.89,6.03,4.68-.04,6.81-2.12,7.33-7.3.17-1.66.94-4.58,3.11-4.52,3.08.09,3.6,2.95,4.21,5.9.89,4.29,3.32,7.92,7.55,7.61,4.05-.31,7.95-2.26,9.07-7.49.42-1.93-.29-4.3,2.37-4.86,3.08-.66,3.37,2.37,4.58,4.18,7.41,11.11,12.25,10.85,17.48-1.19.69-1.59.67-3.34,2.73-3.37,1.82-.02,2.33,1.17,3.19,2.88,5.22,10.44,13.42,10.85,18.63.69,2.35-4.58,3.46-4.95,5.98-.47,6.57,11.7,10.46,12.06,18.88,1.62,2.73-3.37,3.35-4.81,6.06.85,4.46,9.31,12.05,8.16,16.38-1.79,1.11-2.54,2.14-4.22,4.6-4.23,2.52,0,2.77,2.32,3.12,4.41.7,4.22,2.8,7.18,6.65,7.76,4.88.74,8.1-3.36,9.47-7.16,3.95-11,5.83-6.02,8.55.59,1.58,3.81,3.99,7.57,8.63,5.85,4.73-1.76,8.34-4.91,8.21-12.37m-152.07-9.13c6.77,1.6,8.2-1.66,8.52-9.02.58-13.37,2.71-26.66,4.33-39.97.41-3.4,2.17-7.44-2.98-7.61-3.44-.12-7.93-1.85-9.26,4.19-3.03,13.73-5.48,27.67-9.22,41.15-2.82,10.18.21,12.84,8.62,11.25m-22.89-2.26c1.52-.62,6.81,3.58,7.99-5.52,1.75-13.49,5.41-26.67,8.45-39.93.76-3.33,3.02-7.31-1.52-8.48-3.96-1.02-8.53-1.96-10.51,4.98-3.83,13.43-8.08,26.7-12.74,39.82-2.7,7.62-1.99,11.26,8.32,9.12m90.82-.22c9.53.04,10.2-.36,8.3-9.45-2.92-14.01-6.5-27.85-9.79-41.77-1.54-6.5-6.13-2.78-9.34-3.36-2.59-.48-4.44,1.16-3.48,4.34,4.26,14.14,2.79,29.36,7.01,43.66,1.71,5.77,3.39,7.32,7.29,6.59m23.92-.2c9.93.08,11.04-1.65,7.04-10.64-1.56-3.75-2.9-7.59-4.01-11.5-3.04-9.75-7.09-19.1-10.58-28.68-1.99-5.47-6.13-4.39-9.54-3.63-5.52,1.24-1.05,5.02-.61,7.18,2.67,13.11,5.9,26.09,8.68,39.18,1.28,6.03,3.81,9.46,9.03,8.08m-60.49-27.21h.06c-.06-7.03-.24-14.07-.15-21.1.06-4.62-1.84-6.22-5.76-5.96-3.21.21-5.92-.12-6.4,5.18-1.33,14.5-3.3,28.92-4.98,43.38-.38,3.25.9,5.27,3.78,6.25,8.98,3.04,13.62-.61,13.6-10.87,0-5.63-.09-11.25-.15-16.88m86.32,26.74c2.1-.91,4.81,3.14,6.67-.13,2.26-3.97-2.24-5-3.19-7.63-.57-1.58-1.07-3.21-1.76-4.73-5.63-12.37-11.52-24.6-16.82-37.14-2.16-5.12-5.64-5.75-9.21-4.31-5.19,2.09-.98,5.57-.1,8.32,3.74,11.73,7.67,23.38,11.4,35.11,2.18,6.85,4.18,13.7,13,10.5m-162.84,2.44c5,.45,6.17-4.28,7.43-8.14,4.11-12.57,8.17-25.18,11.6-38,.69-2.58,5.55-7.11-.59-9.3-4.14-1.48-6.7.8-8.55,5.36-5.27,12.97-10.9,25.77-16.57,38.54-4.65,10.47-4.59,10.7,6.68,11.54m99.09-11.21c-2.11-12.53-4.4-25.05-5.32-37.85-.25-3.54-1.05-8.34-6.83-7.46-5.56.85-4.22,5.11-4.23,8.57,0,12.58.68,25.19.22,37.75-.31,8.2,3.21,8.52,9,8.84,7.35.4,7.33-4.19,7.16-9.86m53.22-45.07c1.8,3.91,3.54,7.61,5.23,11.35,5.63,12.47,11.38,24.86,16.77,37.46,1.86,4.34,4.26,5.9,8.53,5.8,3.13-.07,6.85.31,7.96-2.79,1.27-3.54-2.48-5.84-4.29-8.62-8.24-12.7-16.28-25.57-24.27-38.46-2.32-3.74-4.73-6.64-9.93-4.73m-185.74,54.52c9.47,3.42,15.37,1.17,19.33-8.64,5.21-12.89,11.58-25.18,17.24-37.85.9-2.02,3.02-5.26.41-6.89-2.87-1.79-4.82.79-6.59,3.73-9.85,16.4-19.93,32.62-30.4,49.65m166.83,53.57c.38,5.46-1.08,11.4,5.7,11.49,5.89.08,7.67-3.69,7.52-9.99-.13-5.55-.48-9.15-6.88-8.88-5.54.23-7.22,2.6-6.34,7.38m-107.96,1.8c1.45-6.21-1.24-8-6.91-8.04-6.12-.04-6.27,3.69-5.95,8.64.31,4.74-.71,10.52,6.02,10.22,5.8-.26,8.05-4.06,6.83-10.82m133.14,9.55c3.87.33,6.71-.28,6.68-5.91-.03-5.35-2.38-6.25-6.46-6.24-4.33,0-6.15,1.63-6.08,6.7.06,4.93,2.23,5.97,5.86,5.45m-156.58-10.48c-4.15-.64-6.24.99-6.07,6.28.15,4.73,2.13,5.72,5.88,5.81,4.45.1,6.21-2.1,6.36-6.76.16-4.96-2.43-5.86-6.17-5.33m120.89.54c-2.77.37-6.6-1.11-6.43,4.58.14,4.5,2.57,5.71,6.11,5.82,3.24.1,5.24-.68,5.16-5.04-.07-3.87-1.11-5.92-4.84-5.35"/>
      </g>
    </g>
  </g>
</svg>