<svg xmlns="http://www.w3.org/2000/svg" width="1057.054" height="9571.963" viewBox="0 0 1057.054 9571.963">
  <g id="Bananen" style="isolation: isolate">
    <path id="Path_2" data-name="Path 2" d="M0,0S136.833,734.348,168.292,992.969s54.2,627.97,85.051,996.845-36.363,813.5-35.814,1005.619,241.495,608.491,208.8,842.2c-3.3,23.6-153.3,317.516-15.359,72.1C273.154,4125.9,214.3,4336.331,214.3,4336.331s-15.476,412.028,39.046,654.494-5.944,482.055,0,904.705,92.349,881.977,92.349,881.977-23.019,358.594,0,542.775-153.811,1023.389-92.349,1171.1-.638-33.757,23.271,38.072S653.821,9571.963,653.821,9571.963h403.233s-142.3-595.93-142.748-896.782,98.241-898.083,64.107-989.313-131.216-716.839-64.107-908.36S857.187,5878.2,867.723,5721.939,711.672,4705.521,684.418,4511.6s251.6-539.87,255.73-673.967-206.587-522.894-184.624-661.912-56.231-570.369-71.106-616.231S852.562,1772.072,807.03,1588.71,692.042,865.453,684.418,712.064,653.747,0,653.747,0Z" fill="#e0d1bc"/>
  </g>
</svg>
