<svg id="Group_311" data-name="Group 311" xmlns="http://www.w3.org/2000/svg" xmlns:xlink="http://www.w3.org/1999/xlink" width="45.51" height="39.793" viewBox="0 0 45.51 39.793">
  <defs>
    <clipPath id="clip-path">
      <rect id="Rectangle_104" data-name="Rectangle 104" width="45.51" height="39.793" fill="#efe7db"/>
    </clipPath>
  </defs>
  <g id="Group_310" data-name="Group 310" clip-path="url(#clip-path)">
    <path id="Path_10932" data-name="Path 10932" d="M26.445,16.333a.255.255,0,0,0-.235.147,15.8,15.8,0,0,0-1.254,1.095c-.59.509-1.213.979-1.762,1.536-.152.154-.093.235.033.345.3.262.6.534.9.8a6.825,6.825,0,0,0,.951.778,13.757,13.757,0,0,1,1.791,1.476c.574.477,1.193.893,1.753,1.384.506.444,1.09.789,1.575,1.265a2.283,2.283,0,0,0,.848.634c.021.079.084.064.14.06a5,5,0,0,0,.454.444c.422.326.8.705,1.216,1.043a4.43,4.43,0,0,0,1.108.8l.06.052c.591.495,1.163,1.015,1.781,1.474.358.266.621.673,1.092.782h0c.009.059.013.12.074.156a16.752,16.752,0,0,1,1.774,1.352c.592.462,1.227.875,1.779,1.38.515.472,1.125.821,1.61,1.333a1.2,1.2,0,0,0,.606.462l0,0,1.247,1.154.009.012,1,1.031a.055.055,0,0,0,.012.043c-.076.037-.07.069.005.1h0c.038.378.554.508.5.981-.312-.176-.575-.449-1.015-.264.228.052.2.252.312.358a.142.142,0,0,1,.035.194c-.063.074-.136.037-.219-.011-.211-.122-.435-.22-.654-.327.154.262.132.59.427.739a.416.416,0,0,1,.178.593l-.142-.005c-.388-.518-1.048-.592-1.537-.944-.046-.133-.125-.17-.294-.073.131.016.174.178.3.064-.09.195.108.225.191.3a3.869,3.869,0,0,1,.737.716l0,0-.206.01-.024-.018a3.362,3.362,0,0,0-.924-.676.3.3,0,0,0-.245-.01c-.081.042-.035.121-.018.191.022.09.176.17.043.272s-.221-.014-.312-.092c-.17-.144-.343-.261-.576-.116-.041.026-.154.021-.165,0-.159-.344-.547-.3-.8-.481-.5-.364-.623-.319-.855.268a.22.22,0,0,1-.286.143,1.754,1.754,0,0,0-.548-.128c-.329-.063-.494-.382-.81-.43a.5.5,0,0,0-.317-.17,1.522,1.522,0,0,0-.2-.2c-.526-.367-1.085-.693-1.578-1.1A18.9,18.9,0,0,0,34.368,36c-1.042-.688-1.951-1.543-2.966-2.262-.676-.478-1.307-1.021-1.951-1.543a2.493,2.493,0,0,0-.737-.562l-.068-.023a.2.2,0,0,0-.1-.183,6.531,6.531,0,0,1-1.463-1.124c-.7-.584-1.45-1.095-2.153-1.67a7.81,7.81,0,0,1-.989-.814A4.462,4.462,0,0,0,22.872,27l-.054-.074a13.758,13.758,0,0,0-1.626-1.384h0l-1.112-.9-.132-.126c-.364-.324-.72-.658-1.1-.97-.391-.326-.564-.29-.951.073-.367.345-.778.644-1.137,1-.336.33-.823.508-1.006.992l-.074.071a1.074,1.074,0,0,0-.247.138c-.662.65-1.406,1.2-2.064,1.863a21.181,21.181,0,0,0-1.65,1.542l-.009.009a8.406,8.406,0,0,0-1.594,1.425c-.572.73-1.3,1.294-1.915,1.971-.552.6-1.081,1.232-1.68,1.8A17.861,17.861,0,0,1,3.565,37.18c-.089.053-.152.151-.24.206a2.207,2.207,0,0,1-.318.135c.109-.606.1-.614-.4-.446a.242.242,0,0,1-.242-.01c-.073-.069.035-.121.059-.181.065-.161.132-.322.2-.482-.243.088-.5.078-.641.337a.488.488,0,0,1-.388.3c-.075,0-.138.1-.228.021-.106-.1-.022-.18.016-.259a4.155,4.155,0,0,0,.37-.957c.014-.07.146-.15.011-.2-.091-.037-.118.085-.165.143-.2.245-.317.562-.627.729-.074-.175.066-.242.118-.34a1.928,1.928,0,0,0,.287-.5c.018-.088.168-.176.014-.28-.135-.091-.23-.009-.325.065-.128.1-.25.208-.385.323,0-.293.056-.449.232-.567.152-.1.2-.222.086-.363a.349.349,0,0,1,0-.478,2.755,2.755,0,0,0,.247-.487c.19-.431.112-.571-.362-.577-.248,0-.307-.1-.313-.326A3.625,3.625,0,0,1,.7,32.195a.136.136,0,0,0,.026-.028c.445-.481.784-1.05,1.215-1.533.38-.427.753-.855,1.094-1.312l0-.006a11.13,11.13,0,0,0,1.135-1.2l0,0A5.809,5.809,0,0,0,5.34,26.944l0,0c.435-.35.786-.786,1.19-1.168l.056-.079a6.8,6.8,0,0,1,.665-.58,1.116,1.116,0,0,0,.46-.475l.005,0c.633-.476,1.205-1.029,1.8-1.548.535-.468,1.038-.995,1.558-1.492.733-.7,1.563-1.293,2.294-2,.329-.318.346-.458.008-.764-.4-.358-.795-.712-1.187-1.075a10.7,10.7,0,0,0-1.276-1.173A21.134,21.134,0,0,1,9.325,15.14a18.735,18.735,0,0,1-1.531-1.446c-.547-.556-1.095-1.116-1.635-1.678a9.886,9.886,0,0,1-1.531-1.654.677.677,0,0,0-.46-.382l0,0c-.405-.662-.928-1.24-1.387-1.861C2.334,7.514,1.907,6.9,1.5,6.266,1.195,5.789,1.01,5.243.657,4.793L.59,4.722C.547,4.6.62,4.461.521,4.339A3.032,3.032,0,0,1,.039,2.8,2.373,2.373,0,0,1,.74.569,2.567,2.567,0,0,0,1.187.131L1.313.11A1.751,1.751,0,0,1,2.871.27,2.636,2.636,0,0,0,3.5.685,5.061,5.061,0,0,1,6.124,2.779,15.768,15.768,0,0,0,7.662,4.736l0,0a2.045,2.045,0,0,0,.526.743Q9.27,6.622,10.334,7.789c.482.528,1.034.989,1.5,1.523.6.684,1.357,1.2,1.959,1.884a10.338,10.338,0,0,0,1.021.917,5.538,5.538,0,0,0,.993.837l.024-.025-.02.028a3.771,3.771,0,0,0,.733.751c.154.127.208.395.477.374h0c-.006.13.093.184.178.253a8.789,8.789,0,0,1,.959.8c.185.2.291.169.448.023a5,5,0,0,1,.527-.492,22.127,22.127,0,0,0,1.915-1.674l.07-.064a.459.459,0,0,0,.317-.154,13.123,13.123,0,0,1,1.319-1.138,9.868,9.868,0,0,0,1.263-1.125c.371-.4.889-.632,1.2-1.09l0,0a.788.788,0,0,0,.227-.1c.605-.562,1.231-1.1,1.858-1.636.715-.614,1.363-1.3,2.123-1.87.66-.494,1.305-1.013,1.912-1.57.222-.2.571-.272.673-.606l.209-.1a2.083,2.083,0,0,0,.892-.61A4.213,4.213,0,0,1,34.6,2.057a2.46,2.46,0,0,1,2.347-.049,7.384,7.384,0,0,0,1.119.443.114.114,0,0,0,.065.021,1.38,1.38,0,0,1,.236,1.217.662.662,0,0,0,.028.321,2.232,2.232,0,0,1-.524,1.842,14.359,14.359,0,0,1-1.717,1.772c-.757.724-1.623,1.32-2.337,2.1-.615.671-1.374,1.2-2.034,1.839-.329.316-.71.577-1.049.887-.882.808-1.785,1.592-2.674,2.392-.545.491-1.078.994-1.616,1.491" transform="translate(0 0)" fill="#efe7db"/>
  </g>
</svg>
