<?xml version="1.0" encoding="utf-8"?>
<!-- Generator: Adobe Illustrator 27.4.1, SVG Export Plug-In . SVG Version: 6.00 Build 0)  -->
<svg version="1.1" id="Laag_1" xmlns="http://www.w3.org/2000/svg" xmlns:xlink="http://www.w3.org/1999/xlink" x="0px" y="0px"
	 viewBox="0 0 589 588.2" style="enable-background:new 0 0 589 588.2;" xml:space="preserve">
<style type="text/css">
	.st0{clip-path:url(#SVGID_00000180326843183182388760000017421555473759230114_);}
	.st1{fill:#4059AD;}
	.st2{fill:#EFE7DB;}
	.st3{clip-path:url(#SVGID_00000074416622520079653310000008193306413565374139_);}
	.st4{clip-path:url(#SVGID_00000023991015228058525410000005118017143002509964_);}
	.st5{fill:#FFCBA3;}
	.st6{fill:#FFA75F;}
	.st7{fill:#439775;}
	.st8{fill:#D9534E;}
	.st9{clip-path:url(#SVGID_00000005252308724119241330000001895564574683069355_);}
	.st10{fill:#DBCEBB;}
	.st11{fill:#FFFFFF;}
	.st12{fill:#C5B8A5;}
	.st13{fill:#C1B4A1;}
	.st14{clip-path:url(#SVGID_00000049939900168289484200000015910661831014917046_);}
	.st15{fill:#C5B8A6;}
	.st16{clip-path:url(#SVGID_00000047040001307747312770000017100896874653485479_);}
	.st17{clip-path:url(#SVGID_00000056418756092807030940000006988545080656980868_);}
	.st18{clip-path:url(#SVGID_00000084513273623865119660000004558745601412519566_);}
	.st19{clip-path:url(#SVGID_00000072979101778290366340000005049478260044938174_);}
	.st20{enable-background:new    ;}
</style>
<g id="Group_907" transform="translate(-1261.936 -7879.775)">
	<g id="Group_890" transform="translate(2.793 -55)">
		<g id="Group_385" transform="translate(1259.143 7959)">
			<g>
				<defs>
					<rect id="SVGID_1_" x="0" y="0" width="589" height="563.9"/>
				</defs>
				<clipPath id="SVGID_00000060026588268003986560000003622684431540047781_">
					<use xlink:href="#SVGID_1_"  style="overflow:visible;"/>
				</clipPath>
				
					<g id="Group_376" transform="translate(0 0)" style="clip-path:url(#SVGID_00000060026588268003986560000003622684431540047781_);">
					<path id="Path_11592" class="st1" d="M113.3,5.7c0,0-12.6,6.9-15.7,17.6s-5.5,31.1-5.5,31.1s-2.5,15.3-5.9,23
						s-26.9,55.2-26.9,55.2l-22.4,41.1l-20.4,37c0,0-20,27-16,54.4c0,0,6.5,30.9,14,35.9s11.6,7.4,12.9,8.9
						c2.6,2.9,4.2,6.7,4.4,10.6c0.2,5.1,0.5,21.3,0.5,21.3l0,46.6c0,0-0.2,11.8-6.3,13.1s-14.3,1-14.9,9.5s0.1,31.1,0.5,32.9
						s1.2,7.8,5.1,10.6s9.9,5.6,11,6.6s4.5,5,5.1,8.5s0.8,11.2,0.8,11.2s-0.3,22.9,0,27.1c0.3,4.3,0.9,14.4,0.9,14.4
						s-0.4,16.2-5.8,20.6s-8,6-12.3,7.1s-7.1,1.3-7.5,5.4c-0.2,2.9-0.2,5.7,0,8.6l194.9-1.8l253.6-2.6l130.8-1.5
						c0,0-0.7-6.9-15.6-12.2l-5.9-2.1c0,0-6.7-1.8-4.2-13.2c0.9-6.9,0.8-13.9-0.2-20.9c-1.7-12-3.7-26.7-2.9-32.2s1.1-12.1,9.3-20.3
						c2.3-1.9,4.6-3.7,7.1-5.3c2.2-1.2,3.9-1.5,3.6-9c0,0-1.1-2.4-0.6-10.3s0.8-14.2,0.8-14.2s0.1-10.3-3-15.5
						c-1.8-3.1-4.6-5.5-7.9-6.8l-5.8-1.9c0,0-4.5-0.5-5.6-7.3s-0.6-22.5-0.6-22.5s0.1-21.4-0.1-26.5s-0.6-10.8-0.6-10.8
						s-0.3-10.9,2.2-15.8s4-8,11.6-14.5c5.3-4.8,9.7-10.4,13-16.7c0,0,5.1-8.4,5.9-23.6c0,0,0.9-21.2-10.7-38.3L561,185.9L542.3,149
						l-17.2-32.9c0,0-20.8-35.8-24.1-40.8S486.9,55,487,45s0.5-14.7,0.5-14.7s4.3-16.7-9.9-25.8c0,0-7.1-4.7-23.9-4.5
						s-45,0.3-45,0.3L344,0.9l-67.8,0.7l-72.7,0.9l-69.1,0.9c0,0-10.6-0.9-15.8,0.7L113.3,5.7z"/>
					<path id="Path_11593" class="st2" d="M110.4,69.8c0,0-2.5-5.1-8.8,7.8s-15.3,31.4-15.3,31.4l-17.6,36.2l-24.1,49.1l-11.3,23
						L27,230.1c0,0,8.9,4.9,16.8,4.1s13.8-1.5,21.6-13c3.2-6.5,6-13.2,8.5-20.1C77,191.6,87,163.6,87,163.6l7.7-20.7l7.6-20.1
						l5.1-13.6l6.3-17.3l3.7-11c0,0,1-6.2-1.5-8.3C114.2,71.4,112.4,70.4,110.4,69.8"/>
					<path id="Path_11594" class="st2" d="M90.4,200.6l12.3-35.1l21.7-63.1l5.3-16.1c0,0,6.1-16.7,11.9-16.8c5.7,0,9.9,0.4,12.2,3.2
						c2.4,2.8,3.6,3.7,3.5,8.5c-0.1,4.8-3.4,14.7-3.4,14.7l-4,13.2l-2.8,8.2l-4.6,19.6l-5.4,22l-6.1,24.1l-3.4,13.1l-4.8,18.5
						l-3.6,10.9c0,0-1.5,5.7-5.5,7.3c-4,1.7-12.5,1.3-12.5,1.3s-11.1-1.5-12.7-2.3s-7.8-1.2-5-10.4"/>
					<path id="Path_11595" class="st2" d="M141.1,197.6l4.9-18.4l6.8-25.1l10.7-43.3l7.3-30.2c0,0,4.5-14.2,17-11.7
						c12.6,2.5,15.2,8.8,13,16.1s-7,32.8-7,32.8l-4.9,25.6l-4.6,25.8l-3,18.6l-2.6,19.3c0,0-1.9,23.1-6.8,24.5
						c-4.9,1.4-22.4,2-22.4,2s-16.7,5.8-13.6-11.6"/>
					<path id="Path_11596" class="st2" d="M215.3,78.8l-9.5,54.2l-6.2,34.9l-4.9,24.4l-4.3,21.1c0,0-0.4,15.5,3.9,18
						c4.3,2.5,18.9,2,18.9,2s11.9,3,14.8-2c2.8-5,4.8-16.1,5.8-31.8s5.3-64.5,5.3-64.5l2.7-25.3l3.4-22.3c0,0,2.5-16.7-5.7-17.6
						c-8.1-1-12.5-1.5-12.5-1.5S217.9,69.7,215.3,78.8"/>
					<path id="Path_11597" class="st2" d="M264.8,69.8c0,0-5.6,7.2-7,24.1c-1.4,17-3.1,36.1-3.1,36.1l-3.3,34.7l-3.3,34.2
						c0,0-6.1,28.7,7.7,31.7c0,0,9,5.2,14.9,3.2s10.1-4.8,14.9-14.6s2.5-24.3,2.5-24.3l0-42.7l-0.6-49.7c0,0,1.6-24.2-2.6-29.7
						c0,0-3-3.8-6-4.1c-2.7-0.2-5.5-0.2-8.2,0L264.8,69.8z"/>
					<path id="Path_11598" class="st2" d="M309.7,68.6c-4.7,1.7-7.7,6.2-7.6,11.2c0,8.8,0.2,22.2,0.2,22.2l0.2,18.1l0.5,32.7
						l0.2,15.7l0,13.2l-0.1,14.4l-0.3,11.4c0,0,0,10.6,0.9,13.7c0.9,3.1,2.5,8.2,5.9,9.8c3.4,1.6,9.4,3.3,11.9,3.2
						c2.6-0.1,11.2,0.5,12.5-1s4.8-4.4,5.7-8.4c0.9-4,2.1-14.5,1.3-20.4c-0.8-5.9-5.3-40.1-5.3-40.1l-3.6-29.8l-2-19.7L329,98
						l-1.2-14.9c0,0-1.9-11.8-6.2-14.5c-4.3-2.7-9.3-0.7-9.3-0.7L309.7,68.6z"/>
					<path id="Path_11599" class="st2" d="M342.3,90.7c0,0-3.5-13.1-2.2-16.4c1.3-3.3,3.4-6.1,6-5.9c2.6,0.2,14.8-1.4,14.8-1.4
						s5.2-2.9,7.6,4.4s8.2,38.5,8.2,38.5l7.4,36.8l6.5,38.2l4.2,25.4c0,0,3.5,19.3-1.6,21.3s-16.3,2.7-16.3,2.7h-9.3
						c-4.1-2.7-7.1-6.9-8.3-11.7c-2.2-8.3-7.8-42.8-7.8-42.8l-3.6-34.7l-4-35.4L342.3,90.7z"/>
					<path id="Path_11600" class="st2" d="M390.5,68.3c0,0-7.8,0.8-4.1,14.9c3.8,14,7.9,38.3,7.9,38.3l5.7,32.4l4.1,23l3,17.3
						l3.4,19.6c0,0,3.4,21.7,15.8,20.6c7.8-0.7,15.6-2.1,23.2-4.1c0,0,6.4-3.7,1.2-19.7S439.6,172,439.6,172l-9.3-35.3l-7.6-25.6
						l-3.5-11.7L414.8,85l-4.6-12.6c0,0-1.5-5.3-6.7-5.6C398.3,66.5,390.5,68.3,390.5,68.3"/>
					<path id="Path_11601" class="st2" d="M430.3,71.8c0,0-4.1,1.6,0,11.7c3,7.8,5.5,15.8,7.6,23.9l10.9,42.8l8.1,32l4.5,18.1
						l5.9,20.1c0,0,5.4,13.8,12.1,13.8c4.4-0.1,8.7-0.7,12.9-2l14.6-4.8c0,0,3.4-3.2-1.5-11s-14.3-36.8-14.3-36.8l-6.6-18.2
						l-8.4-23.4l-7-19.8l-8.9-25.9l-3.7-11c0,0-2.9-13.7-10.2-14.2C439,66.7,430.3,71.8,430.3,71.8"/>
					<path id="Path_11602" class="st2" d="M467.3,68.6l37.6,101.3l10.9,30.4c0,0,6.2,21.2,12.1,23.9c5.5,2.6,11.7,3.7,17.7,3.1
						c5.6-0.8,8.2,0.6,10.5-3.7s4.5-11.1,0-17.6c-4.5-6.5-10.3-16.2-10.3-16.2l-9.1-17.4l-13.9-26.9l-11.3-22l-9.8-19.3l-6.6-13.1
						l-4.4-8.8l-5.8-9.5c0,0-2.4-3.8-5.6-4.8c-3.2-1-4.2-2.2-8.2-0.8L467.3,68.6z"/>
					<path id="Path_11603" class="st2" d="M73.7,496.2L62.4,496c0,0-17.3,0.1-16,14.2s4.7,16.5,17,16.3s467-5.2,467-5.2l10.9-0.1
						c0,0,5.6,2.5,6.2-5.1c0.3-5.4,0-10.8-0.9-16.2c0,0-2.8-8-10.2-8S73.7,496.2,73.7,496.2"/>
					<path id="Path_11604" class="st2" d="M79,454.2H60.4c0,0-12.5-0.2-14.4,8.1s-0.2,13.4,3.3,16.3c3.5,2.9,18.5,5.3,18.5,5.3
						l62.2-1.2l392.2-4.4l12.2-0.1c0,0,10,1.6,12.9-7.3c2.9-8.9,0.5-14.1-2.2-16.8c-2.7-2.7-6.3-4.5-13.9-4.4
						C523.7,450,79,454.2,79,454.2"/>
					<path id="Path_11605" class="st2" d="M74.8,537.6H56c0,0-12.7-0.1-14.6,5.8c-1.9,5.9-0.2,9.6,3.4,11.7
						c3.5,2.1,18.7,3.8,18.7,3.8l62.9-0.9l396.6-3.1l12.3-0.1c0,0,10.1,1.1,13-5.2c2.9-6.4,0.5-10-2.3-12c-2.7-1.9-6.3-3.2-14-3.1
						C524.5,534.5,74.8,537.6,74.8,537.6"/>
					<path id="Path_11606" class="st2" d="M63.1,412.1H43.2c0,0-13.5-0.2-15.4,8.1c-2,8.3-0.2,13.4,3.6,16.3s19.9,5.3,19.9,5.3
						l66.8-1.2l420.8-4.4l13.1-0.1c0,0,10.7,1.6,13.8-7.3c3.1-8.9,0.5-14.1-2.4-16.8c-2.9-2.7-6.7-4.5-14.9-4.4
						S63.1,412.1,63.1,412.1"/>
					<path id="Path_11607" class="st2" d="M15.1,244.5c-5.6,5-8,12.7-6.2,19.9c3,12.6,3.7,15.4,6.6,19.5s5.7,8.9,9.3,10.9
						c3.6,2,5.8,4.5,11,2.2c4.4-1.9,8.5-4.5,12-7.7c3.1-2.8,6.2-5.7,9.6-6.4s6-1.9,12.6,2c0,0,6.9,6.6,10.3,8.6s5.8,3.7,11.2,3.6
						s11.8-4.2,16-12.8c4.1-8.6,6.3-14.4,8.3-16c2.1-1.6,2.7-3.6,6.1,0.7s5.1,10.7,5.1,10.7s2.9,6.7,7.7,8.6c4.8,2,9.7,4,15.8,2.9
						c6.1-1,8.4,0.6,14.7-10.2c0,0,1.2-8.7,2.3-11.4s1.6-5.3,4-5.8c2.5-0.6,4.4-1,8.1,1.7c3.7,2.7,3.8,9.1,3.8,9.1
						s2.5,11.9,6.1,15.2s7.2,6.4,15.4,5s15-9.1,15-9.1c1.5-2.6,2.6-5.4,3.4-8.2c1-4.2-0.6-8.6,2.5-10.1s5.1-1.9,7.6-1.1
						c2.5,0.8,6.2,9.7,8.9,13.2c2.7,3.6,9.2,13.5,14.9,14.5c0,0,5.1,3.3,9.5-0.2c4.3-3.2,7.8-7.3,10.3-12.1c2.4-4.7,4.7-9.9,4.7-9.9
						s1.7-6.8,6-6.7c4.3,0.1,6.1,4.1,7.6,6.8c1.5,2.8,6.2,10.8,9.6,13.4c3.4,2.6,7.8,5.6,11.4,5.6s8,0.7,14.6-5.6
						c3.8-4.2,7-8.8,9.6-13.8l3.4-5.1c0,0,2.8-4.8,6.3,0.6c3.5,5.3,6.5,10.4,6.5,10.4s6.6,9.7,8.4,11.3s5.6,5.6,10.6,5.2
						s11.5-5.2,14.5-8.3s10.2-11.7,10.2-11.7l2.5-3c0,0,3.4-3.9,5.9,0s6.4,12.4,9.2,15.2s6.2,6,9,6.5s7.7,2.2,14.3-3.6
						c3.8-3.2,6.9-7.3,8.9-11.8c0,0,3.6-9.7,6.6-11.3c3-1.6,7.2-3.4,10.3-0.2s3.7,12.3,3.7,12.3s3,11.2,10.1,13.4
						c0,0,7.6,3.9,15.4-0.3s11.9-15.2,11.9-15.2l4.8-10.8c0,0,3.9-7.4,8.1-2.7c4.2,4.7,8.1,16.5,8.1,16.5s5.4,15.2,15.5,13.4
						c8.3-1.5,15.7-6.4,20.3-13.5c2.1-3.5,3.3-7.4,3.3-11.5l0.5-9.7c0,0-0.2-7.3-4.3-8.3c-4.1-1-14.1-0.7-14.1-0.7l-82.8-0.5
						l-90.6-1.1l-122.6-0.8l-138-0.5L15.1,244.5z"/>
				</g>
			</g>
		</g>
		<g id="Group_401" transform="translate(1371.001 7977.099)">
			<g>
				<defs>
					<rect id="SVGID_00000116935329177619966780000006457131947728457143_" x="0" y="0" width="365.3" height="36.9"/>
				</defs>
				<clipPath id="SVGID_00000057135160731120408380000014741753302707988397_">
					<use xlink:href="#SVGID_00000116935329177619966780000006457131947728457143_"  style="overflow:visible;"/>
				</clipPath>
				
					<g id="Group_395" transform="translate(0 0)" style="clip-path:url(#SVGID_00000057135160731120408380000014741753302707988397_);">
					<path id="Path_11637" class="st2" d="M13.1,36.4c0,0-9.7,2.8-11.4-6s-2.7-15.3,0-18.7s4.7-6.3,9.6-6.6s26-1.2,26-1.2l38.1-1.2
						l37.3-0.6l53.3,0l53,0.5l25.2-0.4l38.4-0.6l51.5-1.1l15.2-0.5c0,0,8.9-1.1,13.2,3.7s2.4,18.4,2.4,18.4s2.8,8.3-8,9.6
						c-10.9,1.3-26.3,0.2-26.3,0.2l-40.7,0.3l-27.5,0.2l-34,0.3L199,33.3l-81.6,0.9L54,34.7l-21.9,0.9L13.1,36.4z"/>
				</g>
			</g>
		</g>
		<g id="Group_415" transform="translate(1515.276 8248.563)">
			<g>
				<defs>
					<rect id="SVGID_00000074441036987203939710000014773278011409322152_" x="0" y="0" width="84.8" height="120.9"/>
				</defs>
				<clipPath id="SVGID_00000041282726945296871740000011532915746196206527_">
					<use xlink:href="#SVGID_00000074441036987203939710000014773278011409322152_"  style="overflow:visible;"/>
				</clipPath>
				
					<g id="Group_414" transform="translate(0 0.004)" style="clip-path:url(#SVGID_00000041282726945296871740000011532915746196206527_);">
					<path id="Path_11650" class="st5" d="M47.9,35.6v14c0,0-4.6,5.6-8.1,5.6S33,49.4,33,49.4l-2.3-6.9c0,0-4.6,2.3-8.1-1.2
						s-5.1-12.8-5.1-12.8V16.2l7.4-3.7h12l7.9,2.9l4.4,0L47.9,35.6"/>
					<path id="Path_11651" class="st6" d="M40.7,15.4h4.1l4.4,0l-1.3-7.5c0,0-4.6-7.8-10.4-7.9S24.8,2.5,24.8,2.5L15.2,7l-1.8,2.1
						l-2.3,2.3c-0.5,1.1-0.5,2.4,0,3.5C12,16.1,14,16.2,18,16c2.7-0.2,6.5-0.5,10.9-1.1h6.3L40.7,15.4"/>
					<path id="Path_11652" class="st7" d="M0,120.7C0,103.8,0,87,0,70.1c1.4-3.9,3.6-7.4,6.5-10.3c3.3-3.1,7-5.9,11-8.1l5.1-2.3H33
						c0,0,2.2,4.2,4.5,5s2.5,3,6.5-1l4-4h11.9c0,0,2-1.2,6.6,2.3c3.6,2.9,7.1,5.9,10.4,9.2l2.3,4.6l4.3,6.2l1.4,13.3v19.8
						c-1.1,2.4-2.2,4.8-3.4,7.2c-1.3,2.7-2.5,5.3-3.8,7.9l-12.4,0.3l0.7-5.5l5.2-7.9l-4.7-8L64,95.4l-1.1-5.8H26l-10.4-1.2l-5.4,32
						L0,120.7"/>
					<path id="Path_11653" class="st8" d="M23.7,49.4l-2.3,13.8l-1.2,12.7l-1.7,9.7v34l15.2,1.1c2.7,0.3,5.4,0.3,8-0.1
						c6.8-1.1,13-4.4,17.7-9.4c0.7-8,1.4-15.9,2.2-23.9l-2.3-8.1l-1.2-6.9V51.7l-0.4-2.3h-5l-1.6,11.5l-1.2,4.6v9.2h-15l-4,0.5
						l-2.9-0.5l1.2-17.3v-5.8l-0.1-2.3L23.7,49.4z"/>
				</g>
			</g>
		</g>
		<g id="Group_465" transform="translate(1328.633 8331.404)">
			<g>
				<defs>
					<rect id="SVGID_00000037677710368526337940000014424087247156646570_" x="0" y="0" width="45.2" height="38.1"/>
				</defs>
				<clipPath id="SVGID_00000178899009872737331860000013770371788332299403_">
					<use xlink:href="#SVGID_00000037677710368526337940000014424087247156646570_"  style="overflow:visible;"/>
				</clipPath>
				
					<g id="Group_464" transform="translate(0 0)" style="clip-path:url(#SVGID_00000178899009872737331860000013770371788332299403_);">
					<path id="Path_11780" class="st10" d="M43.1,28.7c0,0.2,0.2,0.3,0.4,0.3c0.4,0,0.8,0,1.1,0c0.2,0,0.4,0.1,0.4,0.3
						c0.1,0.3,0.1,0.4-0.2,0.4c-0.3,0-0.6,0-0.9,0s-0.4,0.1-0.5,0.4c-0.1,0.7-0.2,1.5-0.4,2.2c-0.3,1.4-0.4,2.8-0.7,4.2
						c-0.2,0.6-0.7,1.1-1.4,1.1c-0.4,0-0.9,0-1.3,0c-0.2,0-0.4,0.1-0.5,0.3c-0.1,0.2-0.3,0.3-0.5,0.3c-0.9,0-1.7,0-2.6,0
						c-0.2,0-0.4,0-0.5-0.3c0-0.2-0.2-0.2-0.4-0.2c-0.4,0-0.9,0-1.3,0c-0.6,0-1.2-0.4-1.4-1c-0.2-0.5-0.3-1.1-0.3-1.6
						c0-0.4-0.2-0.8-0.2-1.1c0.2-0.2-0.1-0.3-0.1-0.5c-0.1-1.1-0.3-2.2-0.5-3.3c0-0.3-0.1-0.3-0.4-0.3c-0.7,0-1.4,0-2.1,0
						c-0.2,0-0.4,0.1-0.4,0.3c0,0,0,0.1,0,0.1c-0.1,0.5-0.2,1-0.3,1.5c-0.1,0.7-0.2,1.5-0.4,2.2c-0.1,0.9-0.2,1.8-0.4,2.6
						c-0.1,0.7-0.8,1.2-1.5,1.2c-0.3,0-0.7,0-1,0s-0.6,0-0.8,0.4c-0.1,0.2-0.3,0.2-0.5,0.2c-0.9,0-1.7,0-2.6,0c-0.2,0-0.4,0-0.5-0.2
						c-0.1-0.3-0.4-0.4-0.7-0.3c-0.2,0-0.4,0-0.7,0c-1.4,0.2-2-0.6-2.1-2c0-0.6-0.1-1.3-0.3-1.9c-0.2-1.2-0.3-2.4-0.5-3.6
						c0-0.2-0.1-0.4-0.4-0.4c-0.7,0-1.4,0-2.2,0c-0.2,0-0.4,0.1-0.4,0.3c0,0,0,0.1,0,0.1c0,0.7-0.3,1.3-0.3,2c0,0.5-0.4,1-0.1,1.6
						c-0.3,0.3-0.2,0.7-0.3,1.1c-0.1,0.7-0.2,1.3-0.4,1.9c-0.2,0.5-0.7,0.8-1.2,0.8c-0.5,0-0.9,0-1.4,0c-0.2,0-0.4,0-0.5,0.2
						c-0.1,0.3-0.3,0.3-0.5,0.3c-0.9,0-1.7,0-2.6,0c-0.2,0-0.4,0-0.4-0.2c-0.1-0.3-0.4-0.4-0.7-0.4c-0.4,0-0.8,0-1.2,0
						c-0.8-0.1-1.4-0.6-1.5-1.4c-0.1-0.9-0.2-1.8-0.4-2.7c-0.2-1.1-0.4-2.1-0.5-3.2c-0.1-0.5-0.2-0.6-0.7-0.6c-0.2,0-0.4,0-0.6,0
						S0,29.7,0,29.4C0,29.1,0.2,29,0.5,29c0,0,0,0,0,0c0.5,0,1.1,0,1.6,0c0,0,0.1,0,0.1,0L13,29c0.1,0,0.1,0,0.2,0
						c0.1,0,0.2-0.1,0.2-0.2c-0.2-0.8-0.1-1.6-0.3-2.4c-0.2-0.6-0.4-1.3-0.5-1.9c0-0.5,0.1-1,0.2-1.4c0.2-0.9,0.4-1.8,0.6-2.8
						c0-0.2,0.1-0.2,0.3-0.2c0.6,0,1.2,0,1.8,0c0.1,1.7,0.3,3.3,0.3,4.9c0,0,0,0,0,0c0.1,1.1,0.2,2.2,0.2,3.3c0,0.4,0.1,0.6,0.6,0.5
						c0.1,0,0.3,0,0.4,0.1h3.2c2.5,0,5.1,0,7.6,0c0.4,0,0.5-0.1,0.5-0.5c0-0.8-0.1-1.5-0.3-2.3c-0.2-0.6-0.4-1.2-0.5-1.8
						c0.1-0.8,0.4-1.6,0.5-2.4c0.1-0.6,0.2-1.1,0.4-1.7c0-0.2,0.1-0.4,0.4-0.4c0.4,0,0.8,0,1.3,0c0.3,0,0.5,0.1,0.5,0.5
						c0,1.2,0.2,2.3,0.2,3.5c0,1.5,0.2,3,0.3,4.6c0,0.3,0.2,0.4,0.4,0.3c0.1-0.1,0.3-0.1,0.5,0l0,0c0,0,0.1,0.1,0.1,0.1l6.6,0h4.2
						C42.9,29,43.2,29,43.1,28.7"/>
					<path id="Path_11781" class="st11" d="M12.5,24.4c0.2,0.6,0.4,1.3,0.5,1.9c0.2,0.8,0.1,1.6,0.3,2.4c0,0.1,0,0.2-0.2,0.2
						c-0.1,0-0.1,0-0.2,0L2.2,29l-0.1-0.2c0-0.3,0-0.6,0-0.9c0.1,0,0.1-0.1,0.1-0.2l0-0.3l0-0.3c0.1-0.1,0.1-0.2,0.1-0.3
						c0-0.6,0.2-1.2,0.4-1.7c0.4-1.1,1-2.2,1.8-3.2c0.2-0.2,0.3-0.5,0.6-0.6C5.4,21.2,5.6,21,6,20.8c1-0.5,2.1-0.6,3.1-0.2
						c1.4,0.7,2.5,1.8,3.1,3.2C12.3,24,12.2,24.3,12.5,24.4"/>
					<path id="Path_11782" class="st11" d="M43.2,28.7c0,0.3-0.2,0.3-0.4,0.3h-4.2l-6.6,0l-0.1-0.1l0,0c0-0.2,0.1-0.3,0.1-0.5
						c0-0.9,0.1-1.8,0.4-2.6c0.1-0.5,0.3-0.9,0.4-1.3c0.2-0.1,0.3-0.3,0.3-0.5c0-0.1,0-0.2,0.1-0.3c0.4-0.7,0.9-1.3,1.4-2
						c0.9-1,2.3-1.4,3.7-1.2c0.6,0.2,1.2,0.4,1.7,0.7c0.6,0.5,1.1,1.1,1.6,1.8c0.6,1,1,2,1.3,3.1c0.1,0.4,0.1,0.9,0.3,1.3l0,0.4
						l0,0.1h0C43.1,28.2,43.1,28.4,43.2,28.7"/>
					<path id="Path_11783" class="st10" d="M43.1,27.8c0-0.1,0-0.3,0-0.4c0.1-0.2,0.2-0.4,0.4-0.5c0.8-0.8,1.2-1.9,1.3-3.1
						c0-6.1,0-12.2,0-18.3c0.1-1.7-0.8-3.2-2.1-4.1c-0.7-0.5-1.5-0.8-2.4-0.9c-5.7,0-11.4,0-17.2,0c-5.8,0-11.6,0-17.4,0
						c-1.5,0-3,0.6-4,1.8c-0.6,0.6-1,1.4-1.1,2.3c-0.1,0.7-0.1,1.3-0.1,2c0,4.9,0,9.8,0,14.7c0,1,0,1.9,0.1,2.9
						c0.1,1.2,0.7,2.4,1.7,3.2l0,0.3c-0.1,0-0.1,0.1-0.1,0.2c0,0,0,0,0,0c0,0.1,0,0.1-0.1,0.2c-0.6-0.3-1-0.8-1.3-1.4
						C0.2,25.6,0,24.6,0,23.6c0-6.2,0-12.3,0-18.5c0-2.3,1.5-4.3,3.7-5C4,0,4.3,0,4.6,0c12,0,23.9,0,35.9,0c1.7,0,3.2,0.9,4,2.4
						c0.5,0.9,0.8,2,0.8,3.1c0,6.2,0,12.4,0,18.6c0,1.5-0.8,2.9-1.9,3.8C43.2,27.9,43.2,27.9,43.1,27.8L43.1,27.8L43.1,27.8"/>
					<path id="Path_11784" class="st12" d="M13.2,33.7c-0.3-0.6,0.1-1.1,0.1-1.6c0-0.7,0.3-1.3,0.3-2c0-0.2,0.1-0.4,0.3-0.4
						c0,0,0.1,0,0.1,0c0.7,0,1.4,0,2.2,0c0.3,0,0.4,0.1,0.4,0.4c0.2,1.2,0.3,2.4,0.5,3.6L13.2,33.7"/>
					<path id="Path_11785" class="st12" d="M28,33.8c0.2-0.7,0.3-1.5,0.4-2.2c0.1-0.5,0.2-1,0.3-1.5c0-0.2,0.1-0.4,0.3-0.4
						c0,0,0.1,0,0.1,0c0.7,0,1.4,0,2.1,0c0.2,0,0.3,0,0.4,0.3c0.2,1.1,0.4,2.2,0.5,3.3c0,0.2,0.3,0.3,0.1,0.5
						c-0.1-0.1-0.2-0.1-0.3-0.1C30.5,33.8,29.3,33.8,28,33.8"/>
					<path id="Path_11786" class="st12" d="M2.1,28.8L2.2,29c0,0-0.1,0-0.1,0L2.1,28.8"/>
					<path id="Path_11787" class="st12" d="M32.7,24.4c-0.1,0.4-0.3,0.9-0.4,1.3c-0.3,0.8-0.4,1.7-0.4,2.6c0,0.2,0,0.3-0.1,0.5
						c-0.1-0.1-0.3-0.1-0.5,0c-0.3,0.1-0.4,0-0.4-0.3c-0.1-1.5-0.2-3-0.3-4.6c0-1.2-0.3-2.3-0.2-3.5c0-0.3-0.1-0.5-0.5-0.5
						c-0.4,0-0.8,0-1.3,0c-0.3,0-0.4,0.1-0.4,0.4c-0.1,0.6-0.2,1.1-0.4,1.7c-0.2,0.8-0.4,1.6-0.5,2.4c-0.5-1.1-1.2-2.1-2-2.9
						c-0.7-0.7-1.6-1.1-2.6-1.2c-1.2,0-2.3,0.5-3.1,1.4c-0.9,0.9-1.6,2.1-2,3.4c-0.5,1.2-0.7,2.6-0.6,3.9c-0.1-0.1-0.3-0.1-0.4-0.1
						c-0.4,0.1-0.5-0.1-0.6-0.5c0-1.1-0.2-2.2-0.2-3.3c0,0,0,0,0,0c0.1-1.7-0.2-3.3-0.3-4.9c0.1-0.1,0.2-0.1,0.3-0.1
						c0.3,0,0.5,0,0.8,0c0.1,0,0.3,0,0.3-0.2c0-0.1-0.2-0.1-0.3-0.1c-0.2,0-0.3,0-0.5,0c-0.4,0.1-0.5-0.1-0.5-0.5
						c0-4.3,0-8.6,0-12.9c0-0.1,0-0.1,0-0.2c0-0.2,0.1-0.3,0.3-0.3c0.6-0.1,1.2-0.1,1.8-0.1c0.3,0.1,0.7-0.2,0.7-0.5c0,0,0,0,0,0
						h20.2C39.4,5,40,5.6,40.1,6.3c0,0.1,0,0.1,0,0.2c0,4.5,0,9,0,13.5c0,0.3,0,0.7,0.1,1c0.1,0.2-0.1,0.2-0.2,0.2
						c-0.5-0.3-1.1-0.6-1.7-0.7c-1.4-0.2-2.7,0.2-3.7,1.2c-0.5,0.6-1,1.3-1.4,2c0,0.1-0.1,0.2-0.1,0.3
						C32.6,23.9,32.7,24.2,32.7,24.4"/>
					<path id="Path_11788" class="st13" d="M18.4,5.1c-0.1,0.3-0.4,0.6-0.7,0.5c0,0,0,0,0,0c-0.6,0-1.2,0-1.8,0.1
						c-0.2,0-0.4,0.1-0.3,0.3c0,0.1,0,0.1,0,0.2c0,4.3,0,8.6,0,12.9c0,0.4,0.1,0.6,0.5,0.5c0.2,0,0.3,0,0.5,0c0.1,0,0.3,0,0.3,0.1
						c0,0.2-0.2,0.2-0.3,0.2c-0.3,0-0.5,0-0.8,0c-0.1,0-0.2,0-0.3,0.1c-0.6,0-1.2,0-1.8,0c-0.2,0-0.3,0-0.3,0.2
						c-0.2,0.9-0.4,1.8-0.6,2.8c-0.1,0.5-0.2,0.9-0.2,1.4c-0.3-0.1-0.2-0.4-0.3-0.6c-0.6-1.4-1.7-2.5-3.1-3.2
						c-1-0.4-2.2-0.3-3.1,0.2c-0.3,0.2-0.6,0.4-0.9,0.6c0-4.9,0-9.9,0-14.8C5,5.8,5.7,5.1,6.5,5c0,0,0,0,0.1,0
						C10.5,5.1,14.5,5.1,18.4,5.1"/>
					<path id="Path_11789" class="st11" d="M17,29c0-1.3,0.2-2.6,0.6-3.9c0.4-1.3,1.1-2.4,2-3.4c0.8-0.9,1.9-1.4,3.1-1.4
						c1,0.1,1.9,0.5,2.6,1.2c0.8,0.8,1.5,1.8,2,2.9c0.1,0.6,0.3,1.2,0.5,1.8c0.2,0.7,0.3,1.5,0.3,2.3c0,0.4-0.1,0.5-0.5,0.5
						c-2.5,0-5.1,0-7.6,0L17,29"/>
					<path id="Path_11790" class="st12" d="M31.8,28.9L31.8,28.9L31.8,28.9"/>
					<path id="Path_11791" class="st12" d="M18.4,5.1c-4,0-7.9,0-11.9,0C5.8,5,5.1,5.7,5,6.5c0,0,0,0,0,0.1c0,4.9,0,9.9,0,14.8
						c-0.3,0.1-0.5,0.4-0.6,0.6c-0.8,1-1.4,2-1.8,3.2c-0.2,0.5-0.3,1.1-0.4,1.7c0,0.1,0,0.2-0.1,0.3c-0.9-0.8-1.5-1.9-1.7-3.2
						c-0.1-1-0.1-1.9-0.1-2.9c0-4.9,0-9.8,0-14.7c0-0.7,0-1.3,0.1-2c0.2-0.8,0.5-1.6,1.1-2.3c1-1.2,2.5-1.8,4-1.8
						c5.8,0,11.6,0,17.4,0c0.1,0.3,0.1,0.6,0,0.9c0,1,0,1.9,0,2.9c0,0.5-0.1,0.6-0.6,0.6c-0.2,0-0.5-0.2-0.6,0.2L18.4,5.1"/>
					<path id="Path_11792" class="st12" d="M2.2,27.7c-0.1,0-0.1-0.1,0-0.2c0,0,0,0,0,0L2.2,27.7"/>
					<path id="Path_11793" class="st13" d="M21.9,5.1c0.1-0.3,0.4-0.2,0.6-0.2C23,4.9,23,4.8,23,4.3c0-1,0-1.9,0-2.9
						c0.1-0.3,0.1-0.6,0-0.9c5.7,0,11.4,0,17.2,0c0.9,0,1.7,0.4,2.4,0.9c1.4,0.9,2.2,2.5,2.1,4.1c0,6.1,0,12.2,0,18.3
						c0,1.1-0.5,2.2-1.3,3.1c-0.1,0.2-0.3,0.3-0.4,0.5c-0.1-0.4-0.2-0.9-0.3-1.3C42.5,25,42,24,41.5,23c-0.4-0.7-1-1.3-1.6-1.8
						c0.1,0,0.3,0,0.2-0.2c-0.1-0.3-0.1-0.7-0.1-1c0-4.5,0-9,0-13.5c0.1-0.7-0.5-1.4-1.2-1.5c-0.1,0-0.1,0-0.2,0L21.9,5.1"/>
					<path id="Path_11794" class="st13" d="M32.7,24.4c0-0.2-0.1-0.6,0.3-0.5C33,24.1,32.9,24.3,32.7,24.4"/>
					<path id="Path_11795" class="st13" d="M43.1,27.8L43.1,27.8L43.1,27.8"/>
				</g>
			</g>
		</g>
		<g id="Group_468" transform="translate(1379.633 8331.404)">
			<g>
				<defs>
					<rect id="SVGID_00000059278914041003017000000011594968359357938821_" x="0" y="0" width="45.2" height="38.1"/>
				</defs>
				<clipPath id="SVGID_00000018924830950585784450000011755982398080935299_">
					<use xlink:href="#SVGID_00000059278914041003017000000011594968359357938821_"  style="overflow:visible;"/>
				</clipPath>
				
					<g id="Group_464-2" transform="translate(0 0)" style="clip-path:url(#SVGID_00000018924830950585784450000011755982398080935299_);">
					<path id="Path_11780-2" class="st10" d="M43.1,28.7c0,0.2,0.2,0.3,0.4,0.3c0.4,0,0.8,0,1.1,0c0.2,0,0.4,0.1,0.4,0.3
						c0.1,0.3,0.1,0.4-0.2,0.4c-0.3,0-0.6,0-0.9,0s-0.4,0.1-0.5,0.4c-0.1,0.7-0.2,1.5-0.4,2.2c-0.3,1.4-0.4,2.8-0.7,4.2
						c-0.2,0.6-0.7,1.1-1.4,1.1c-0.4,0-0.9,0-1.3,0c-0.2,0-0.4,0.1-0.5,0.3c-0.1,0.2-0.3,0.3-0.5,0.3c-0.9,0-1.7,0-2.6,0
						c-0.2,0-0.4,0-0.5-0.3c0-0.2-0.2-0.2-0.4-0.2c-0.4,0-0.9,0-1.3,0c-0.6,0-1.2-0.4-1.4-1c-0.2-0.5-0.3-1.1-0.3-1.6
						c0-0.4-0.2-0.8-0.2-1.1c0.2-0.2-0.1-0.3-0.1-0.5c-0.1-1.1-0.3-2.2-0.5-3.3c0-0.3-0.1-0.3-0.4-0.3c-0.7,0-1.4,0-2.1,0
						c-0.2,0-0.4,0.1-0.4,0.3c0,0,0,0.1,0,0.1c-0.1,0.5-0.2,1-0.3,1.5c-0.1,0.7-0.2,1.5-0.4,2.2c-0.1,0.9-0.2,1.8-0.4,2.6
						c-0.1,0.7-0.8,1.2-1.5,1.2c-0.3,0-0.7,0-1,0s-0.6,0-0.8,0.4c-0.1,0.2-0.3,0.2-0.5,0.2c-0.9,0-1.7,0-2.6,0c-0.2,0-0.4,0-0.5-0.2
						c-0.1-0.3-0.4-0.4-0.7-0.3c-0.2,0-0.4,0-0.7,0c-1.4,0.2-2-0.6-2.1-2c0-0.6-0.1-1.3-0.3-1.9c-0.2-1.2-0.3-2.4-0.5-3.6
						c0-0.2-0.1-0.4-0.4-0.4c-0.7,0-1.4,0-2.2,0c-0.2,0-0.4,0.1-0.4,0.3c0,0,0,0.1,0,0.1c0,0.7-0.3,1.3-0.3,2c0,0.5-0.4,1-0.1,1.6
						c-0.3,0.3-0.2,0.7-0.3,1.1c-0.1,0.7-0.2,1.3-0.4,1.9c-0.2,0.5-0.7,0.8-1.2,0.8c-0.5,0-0.9,0-1.4,0c-0.2,0-0.4,0-0.5,0.2
						c-0.1,0.3-0.3,0.3-0.5,0.3c-0.9,0-1.7,0-2.6,0c-0.2,0-0.4,0-0.4-0.2c-0.1-0.3-0.4-0.4-0.7-0.4c-0.4,0-0.8,0-1.2,0
						c-0.8-0.1-1.4-0.6-1.5-1.4c-0.1-0.9-0.2-1.8-0.4-2.7c-0.2-1.1-0.4-2.1-0.5-3.2c-0.1-0.5-0.2-0.6-0.7-0.6c-0.2,0-0.4,0-0.6,0
						S0,29.7,0,29.4C0,29.1,0.2,29,0.5,29c0,0,0,0,0,0c0.5,0,1.1,0,1.6,0c0,0,0.1,0,0.1,0L13,29c0.1,0,0.1,0,0.2,0
						c0.1,0,0.2-0.1,0.2-0.2c-0.2-0.8-0.1-1.6-0.3-2.4c-0.2-0.6-0.4-1.3-0.5-1.9c0-0.5,0.1-1,0.2-1.4c0.2-0.9,0.4-1.8,0.6-2.8
						c0-0.2,0.1-0.2,0.3-0.2c0.6,0,1.2,0,1.8,0c0.1,1.7,0.3,3.3,0.3,4.9c0,0,0,0,0,0c0.1,1.1,0.2,2.2,0.2,3.3c0,0.4,0.1,0.6,0.6,0.5
						c0.1,0,0.3,0,0.4,0.1h3.2c2.5,0,5.1,0,7.6,0c0.4,0,0.5-0.1,0.5-0.5c0-0.8-0.1-1.5-0.3-2.3c-0.2-0.6-0.4-1.2-0.5-1.8
						c0.1-0.8,0.4-1.6,0.5-2.4c0.1-0.6,0.2-1.1,0.4-1.7c0-0.2,0.1-0.4,0.4-0.4c0.4,0,0.8,0,1.3,0c0.3,0,0.5,0.1,0.5,0.5
						c0,1.2,0.2,2.3,0.2,3.5c0,1.5,0.2,3,0.3,4.6c0,0.3,0.2,0.4,0.4,0.3c0.1-0.1,0.3-0.1,0.5,0l0,0c0,0,0.1,0.1,0.1,0.1l6.6,0h4.2
						C42.9,29,43.2,29,43.1,28.7"/>
					<path id="Path_11781-2" class="st11" d="M12.5,24.4c0.2,0.6,0.4,1.3,0.5,1.9c0.2,0.8,0.1,1.6,0.3,2.4c0,0.1,0,0.2-0.2,0.2
						c-0.1,0-0.1,0-0.2,0L2.2,29l-0.1-0.2c0-0.3,0-0.6,0-0.9c0.1,0,0.1-0.1,0.1-0.2l0-0.3l0-0.3c0.1-0.1,0.1-0.2,0.1-0.3
						c0-0.6,0.2-1.2,0.4-1.7c0.4-1.1,1-2.2,1.8-3.2c0.2-0.2,0.3-0.5,0.6-0.6C5.4,21.2,5.6,21,6,20.8c1-0.5,2.1-0.6,3.1-0.2
						c1.4,0.7,2.5,1.8,3.1,3.2C12.3,24,12.2,24.3,12.5,24.4"/>
					<path id="Path_11782-2" class="st11" d="M43.2,28.7c0,0.3-0.2,0.3-0.4,0.3h-4.2l-6.6,0l-0.1-0.1l0,0c0-0.2,0.1-0.3,0.1-0.5
						c0-0.9,0.1-1.8,0.4-2.6c0.1-0.5,0.3-0.9,0.4-1.3c0.2-0.1,0.3-0.3,0.3-0.5c0-0.1,0-0.2,0.1-0.3c0.4-0.7,0.9-1.3,1.4-2
						c0.9-1,2.3-1.4,3.7-1.2c0.6,0.2,1.2,0.4,1.7,0.7c0.6,0.5,1.1,1.1,1.6,1.8c0.6,1,1,2,1.3,3.1c0.1,0.4,0.1,0.9,0.3,1.3l0,0.4
						l0,0.1h0C43.1,28.2,43.1,28.4,43.2,28.7"/>
					<path id="Path_11783-2" class="st10" d="M43.1,27.8c0-0.1,0-0.3,0-0.4c0.1-0.2,0.2-0.4,0.4-0.5c0.8-0.8,1.2-1.9,1.3-3.1
						c0-6.1,0-12.2,0-18.3c0.1-1.7-0.8-3.2-2.1-4.1c-0.7-0.5-1.5-0.8-2.4-0.9c-5.7,0-11.4,0-17.2,0c-5.8,0-11.6,0-17.4,0
						c-1.5,0-3,0.6-4,1.8c-0.6,0.6-1,1.4-1.1,2.3c-0.1,0.7-0.1,1.3-0.1,2c0,4.9,0,9.8,0,14.7c0,1,0,1.9,0.1,2.9
						c0.1,1.2,0.7,2.4,1.7,3.2l0,0.3c-0.1,0-0.1,0.1-0.1,0.2c0,0,0,0,0,0c0,0.1,0,0.1-0.1,0.2c-0.6-0.3-1-0.8-1.3-1.4
						C0.2,25.6,0,24.6,0,23.6c0-6.2,0-12.3,0-18.5c0-2.3,1.5-4.3,3.7-5C4,0,4.3,0,4.6,0c12,0,23.9,0,35.9,0c1.7,0,3.2,0.9,4,2.4
						c0.5,0.9,0.8,2,0.8,3.1c0,6.2,0,12.4,0,18.6c0,1.5-0.8,2.9-1.9,3.8C43.2,27.9,43.2,27.9,43.1,27.8L43.1,27.8L43.1,27.8"/>
					<path id="Path_11784-2" class="st12" d="M13.2,33.7c-0.3-0.6,0.1-1.1,0.1-1.6c0-0.7,0.3-1.3,0.3-2c0-0.2,0.1-0.4,0.3-0.4
						c0,0,0.1,0,0.1,0c0.7,0,1.4,0,2.2,0c0.3,0,0.4,0.1,0.4,0.4c0.2,1.2,0.3,2.4,0.5,3.6L13.2,33.7"/>
					<path id="Path_11785-2" class="st12" d="M28,33.8c0.2-0.7,0.3-1.5,0.4-2.2c0.1-0.5,0.2-1,0.3-1.5c0-0.2,0.1-0.4,0.3-0.4
						c0,0,0.1,0,0.1,0c0.7,0,1.4,0,2.1,0c0.2,0,0.3,0,0.4,0.3c0.2,1.1,0.4,2.2,0.5,3.3c0,0.2,0.3,0.3,0.1,0.5
						c-0.1-0.1-0.2-0.1-0.3-0.1C30.5,33.8,29.3,33.8,28,33.8"/>
					<path id="Path_11786-2" class="st12" d="M2.1,28.8L2.2,29c0,0-0.1,0-0.1,0L2.1,28.8"/>
					<path id="Path_11787-2" class="st12" d="M32.7,24.4c-0.1,0.4-0.3,0.9-0.4,1.3c-0.3,0.8-0.4,1.7-0.4,2.6c0,0.2,0,0.3-0.1,0.5
						c-0.1-0.1-0.3-0.1-0.5,0c-0.3,0.1-0.4,0-0.4-0.3c-0.1-1.5-0.2-3-0.3-4.6c0-1.2-0.3-2.3-0.2-3.5c0-0.3-0.1-0.5-0.5-0.5
						c-0.4,0-0.8,0-1.3,0c-0.3,0-0.4,0.1-0.4,0.4c-0.1,0.6-0.2,1.1-0.4,1.7c-0.2,0.8-0.4,1.6-0.5,2.4c-0.5-1.1-1.2-2.1-2-2.9
						c-0.7-0.7-1.6-1.1-2.6-1.2c-1.2,0-2.3,0.5-3.1,1.4c-0.9,0.9-1.6,2.1-2,3.4c-0.5,1.2-0.7,2.6-0.6,3.9c-0.1-0.1-0.3-0.1-0.4-0.1
						c-0.4,0.1-0.5-0.1-0.6-0.5c0-1.1-0.2-2.2-0.2-3.3c0,0,0,0,0,0c0.1-1.7-0.2-3.3-0.3-4.9c0.1-0.1,0.2-0.1,0.3-0.1
						c0.3,0,0.5,0,0.8,0c0.1,0,0.3,0,0.3-0.2c0-0.1-0.2-0.1-0.3-0.1c-0.2,0-0.3,0-0.5,0c-0.4,0.1-0.5-0.1-0.5-0.5
						c0-4.3,0-8.6,0-12.9c0-0.1,0-0.1,0-0.2c0-0.2,0.1-0.3,0.3-0.3c0.6-0.1,1.2-0.1,1.8-0.1c0.3,0.1,0.7-0.2,0.7-0.5c0,0,0,0,0,0
						h20.2C39.4,5,40,5.6,40.1,6.3c0,0.1,0,0.1,0,0.2c0,4.5,0,9,0,13.5c0,0.3,0,0.7,0.1,1c0.1,0.2-0.1,0.2-0.2,0.2
						c-0.5-0.3-1.1-0.6-1.7-0.7c-1.4-0.2-2.7,0.2-3.7,1.2c-0.5,0.6-1,1.3-1.4,2c0,0.1-0.1,0.2-0.1,0.3
						C32.6,23.9,32.7,24.2,32.7,24.4"/>
					<path id="Path_11788-2" class="st13" d="M18.4,5.1c-0.1,0.3-0.4,0.6-0.7,0.5c0,0,0,0,0,0c-0.6,0-1.2,0-1.8,0.1
						c-0.2,0-0.4,0.1-0.3,0.3c0,0.1,0,0.1,0,0.2c0,4.3,0,8.6,0,12.9c0,0.4,0.1,0.6,0.5,0.5c0.2,0,0.3,0,0.5,0c0.1,0,0.3,0,0.3,0.1
						c0,0.2-0.2,0.2-0.3,0.2c-0.3,0-0.5,0-0.8,0c-0.1,0-0.2,0-0.3,0.1c-0.6,0-1.2,0-1.8,0c-0.2,0-0.3,0-0.3,0.2
						c-0.2,0.9-0.4,1.8-0.6,2.8c-0.1,0.5-0.2,0.9-0.2,1.4c-0.3-0.1-0.2-0.4-0.3-0.6c-0.6-1.4-1.7-2.5-3.1-3.2
						c-1-0.4-2.2-0.3-3.1,0.2c-0.3,0.2-0.6,0.4-0.9,0.6c0-4.9,0-9.9,0-14.8C5,5.8,5.7,5.1,6.5,5c0,0,0,0,0.1,0
						C10.5,5.1,14.5,5.1,18.4,5.1"/>
					<path id="Path_11789-2" class="st11" d="M17,29c0-1.3,0.2-2.6,0.6-3.9c0.4-1.3,1.1-2.4,2-3.4c0.8-0.9,1.9-1.4,3.1-1.4
						c1,0.1,1.9,0.5,2.6,1.2c0.8,0.8,1.5,1.8,2,2.9c0.1,0.6,0.3,1.2,0.5,1.8c0.2,0.7,0.3,1.5,0.3,2.3c0,0.4-0.1,0.5-0.5,0.5
						c-2.5,0-5.1,0-7.6,0L17,29"/>
					<path id="Path_11790-2" class="st12" d="M31.8,28.9L31.8,28.9L31.8,28.9"/>
					<path id="Path_11791-2" class="st15" d="M18.4,5.1c-4,0-7.9,0-11.9,0C5.8,5,5.1,5.7,5,6.5c0,0,0,0,0,0.1c0,4.9,0,9.9,0,14.8
						c-0.3,0.1-0.5,0.4-0.6,0.6c-0.8,1-1.4,2-1.8,3.2c-0.2,0.5-0.3,1.1-0.4,1.7c0,0.1,0,0.2-0.1,0.3c-0.9-0.8-1.5-1.9-1.7-3.2
						c-0.1-1-0.1-1.9-0.1-2.9c0-4.9,0-9.8,0-14.7c0-0.7,0-1.3,0.1-2c0.2-0.8,0.5-1.6,1.1-2.3c1-1.2,2.5-1.8,4-1.8
						c5.8,0,11.6,0,17.4,0c0.1,0.3,0.1,0.6,0,0.9c0,1,0,1.9,0,2.9c0,0.5-0.1,0.6-0.6,0.6c-0.2,0-0.5-0.2-0.6,0.2L18.4,5.1"/>
					<path id="Path_11792-2" class="st12" d="M2.2,27.7c-0.1,0-0.1-0.1,0-0.2c0,0,0,0,0,0L2.2,27.7"/>
					<path id="Path_11793-2" class="st13" d="M21.9,5.1c0.1-0.3,0.4-0.2,0.6-0.2C23,4.9,23,4.8,23,4.3c0-1,0-1.9,0-2.9
						c0.1-0.3,0.1-0.6,0-0.9c5.7,0,11.4,0,17.2,0c0.9,0,1.7,0.4,2.4,0.9c1.4,0.9,2.2,2.5,2.1,4.1c0,6.1,0,12.2,0,18.3
						c0,1.1-0.5,2.2-1.3,3.1c-0.1,0.2-0.3,0.3-0.4,0.5c-0.1-0.4-0.2-0.9-0.3-1.3C42.5,25,42,24,41.5,23c-0.4-0.7-1-1.3-1.6-1.8
						c0.1,0,0.3,0,0.2-0.2c-0.1-0.3-0.1-0.7-0.1-1c0-4.5,0-9,0-13.5c0.1-0.7-0.5-1.4-1.2-1.5c-0.1,0-0.1,0-0.2,0L21.9,5.1"/>
					<path id="Path_11794-2" class="st13" d="M32.7,24.4c0-0.2-0.1-0.6,0.3-0.5C33,24.1,32.9,24.3,32.7,24.4"/>
					<path id="Path_11795-2" class="st13" d="M43.1,27.8L43.1,27.8L43.1,27.8"/>
				</g>
			</g>
		</g>
		<g id="Group_469" transform="translate(1434.633 8331.404)">
			<g>
				<defs>
					<rect id="SVGID_00000062894004848832761030000013679093462177482683_" x="0" y="0" width="45.2" height="38.1"/>
				</defs>
				<clipPath id="SVGID_00000070818911711800302740000011426396944988834696_">
					<use xlink:href="#SVGID_00000062894004848832761030000013679093462177482683_"  style="overflow:visible;"/>
				</clipPath>
				
					<g id="Group_464-3" transform="translate(0 0)" style="clip-path:url(#SVGID_00000070818911711800302740000011426396944988834696_);">
					<path id="Path_11780-3" class="st10" d="M43.1,28.7c0,0.2,0.2,0.3,0.4,0.3c0.4,0,0.8,0,1.1,0c0.2,0,0.4,0.1,0.4,0.3
						c0.1,0.3,0.1,0.4-0.2,0.4c-0.3,0-0.6,0-0.9,0s-0.4,0.1-0.5,0.4c-0.1,0.7-0.2,1.5-0.4,2.2c-0.3,1.4-0.4,2.8-0.7,4.2
						c-0.2,0.6-0.7,1.1-1.4,1.1c-0.4,0-0.9,0-1.3,0c-0.2,0-0.4,0.1-0.5,0.3c-0.1,0.2-0.3,0.3-0.5,0.3c-0.9,0-1.7,0-2.6,0
						c-0.2,0-0.4,0-0.5-0.3c0-0.2-0.2-0.2-0.4-0.2c-0.4,0-0.9,0-1.3,0c-0.6,0-1.2-0.4-1.4-1c-0.2-0.5-0.3-1.1-0.3-1.6
						c0-0.4-0.2-0.8-0.2-1.1c0.2-0.2-0.1-0.3-0.1-0.5c-0.1-1.1-0.3-2.2-0.5-3.3c0-0.3-0.1-0.3-0.4-0.3c-0.7,0-1.4,0-2.1,0
						c-0.2,0-0.4,0.1-0.4,0.3c0,0,0,0.1,0,0.1c-0.1,0.5-0.2,1-0.3,1.5c-0.1,0.7-0.2,1.5-0.4,2.2c-0.1,0.9-0.2,1.8-0.4,2.6
						c-0.1,0.7-0.8,1.2-1.5,1.2c-0.3,0-0.7,0-1,0s-0.6,0-0.8,0.4c-0.1,0.2-0.3,0.2-0.5,0.2c-0.9,0-1.7,0-2.6,0c-0.2,0-0.4,0-0.5-0.2
						c-0.1-0.3-0.4-0.4-0.7-0.3c-0.2,0-0.4,0-0.7,0c-1.4,0.2-2-0.6-2.1-2c0-0.6-0.1-1.3-0.3-1.9c-0.2-1.2-0.3-2.4-0.5-3.6
						c0-0.2-0.1-0.4-0.4-0.4c-0.7,0-1.4,0-2.2,0c-0.2,0-0.4,0.1-0.4,0.3c0,0,0,0.1,0,0.1c0,0.7-0.3,1.3-0.3,2c0,0.5-0.4,1-0.1,1.6
						c-0.3,0.3-0.2,0.7-0.3,1.1c-0.1,0.7-0.2,1.3-0.4,1.9c-0.2,0.5-0.7,0.8-1.2,0.8c-0.5,0-0.9,0-1.4,0c-0.2,0-0.4,0-0.5,0.2
						c-0.1,0.3-0.3,0.3-0.5,0.3c-0.9,0-1.7,0-2.6,0c-0.2,0-0.4,0-0.4-0.2c-0.1-0.3-0.4-0.4-0.7-0.4c-0.4,0-0.8,0-1.2,0
						c-0.8-0.1-1.4-0.6-1.5-1.4c-0.1-0.9-0.2-1.8-0.4-2.7c-0.2-1.1-0.4-2.1-0.5-3.2c-0.1-0.5-0.2-0.6-0.7-0.6c-0.2,0-0.4,0-0.6,0
						S0,29.7,0,29.4C0,29.1,0.2,29,0.5,29c0,0,0,0,0,0c0.5,0,1.1,0,1.6,0c0,0,0.1,0,0.1,0L13,29c0.1,0,0.1,0,0.2,0
						c0.1,0,0.2-0.1,0.2-0.2c-0.2-0.8-0.1-1.6-0.3-2.4c-0.2-0.6-0.4-1.3-0.5-1.9c0-0.5,0.1-1,0.2-1.4c0.2-0.9,0.4-1.8,0.6-2.8
						c0-0.2,0.1-0.2,0.3-0.2c0.6,0,1.2,0,1.8,0c0.1,1.7,0.3,3.3,0.3,4.9c0,0,0,0,0,0c0.1,1.1,0.2,2.2,0.2,3.3c0,0.4,0.1,0.6,0.6,0.5
						c0.1,0,0.3,0,0.4,0.1h3.2c2.5,0,5.1,0,7.6,0c0.4,0,0.5-0.1,0.5-0.5c0-0.8-0.1-1.5-0.3-2.3c-0.2-0.6-0.4-1.2-0.5-1.8
						c0.1-0.8,0.4-1.6,0.5-2.4c0.1-0.6,0.2-1.1,0.4-1.7c0-0.2,0.1-0.4,0.4-0.4c0.4,0,0.8,0,1.3,0c0.3,0,0.5,0.1,0.5,0.5
						c0,1.2,0.2,2.3,0.2,3.5c0,1.5,0.2,3,0.3,4.6c0,0.3,0.2,0.4,0.4,0.3c0.1-0.1,0.3-0.1,0.5,0l0,0c0,0,0.1,0.1,0.1,0.1l6.6,0h4.2
						C42.9,29,43.2,29,43.1,28.7"/>
					<path id="Path_11781-3" class="st11" d="M12.5,24.4c0.2,0.6,0.4,1.3,0.5,1.9c0.2,0.8,0.1,1.6,0.3,2.4c0,0.1,0,0.2-0.2,0.2
						c-0.1,0-0.1,0-0.2,0L2.2,29l-0.1-0.2c0-0.3,0-0.6,0-0.9c0.1,0,0.1-0.1,0.1-0.2l0-0.3l0-0.3c0.1-0.1,0.1-0.2,0.1-0.3
						c0-0.6,0.2-1.2,0.4-1.7c0.4-1.1,1-2.2,1.8-3.2c0.2-0.2,0.3-0.5,0.6-0.6C5.4,21.2,5.6,21,6,20.8c1-0.5,2.1-0.6,3.1-0.2
						c1.4,0.7,2.5,1.8,3.1,3.2C12.3,24,12.2,24.3,12.5,24.4"/>
					<path id="Path_11782-3" class="st11" d="M43.2,28.7c0,0.3-0.2,0.3-0.4,0.3h-4.2l-6.6,0l-0.1-0.1l0,0c0-0.2,0.1-0.3,0.1-0.5
						c0-0.9,0.1-1.8,0.4-2.6c0.1-0.5,0.3-0.9,0.4-1.3c0.2-0.1,0.3-0.3,0.3-0.5c0-0.1,0-0.2,0.1-0.3c0.4-0.7,0.9-1.3,1.4-2
						c0.9-1,2.3-1.4,3.7-1.2c0.6,0.2,1.2,0.4,1.7,0.7c0.6,0.5,1.1,1.1,1.6,1.8c0.6,1,1,2,1.3,3.1c0.1,0.4,0.1,0.9,0.3,1.3l0,0.4
						l0,0.1h0C43.1,28.2,43.1,28.4,43.2,28.7"/>
					<path id="Path_11783-3" class="st10" d="M43.1,27.8c0-0.1,0-0.3,0-0.4c0.1-0.2,0.2-0.4,0.4-0.5c0.8-0.8,1.2-1.9,1.3-3.1
						c0-6.1,0-12.2,0-18.3c0.1-1.7-0.8-3.2-2.1-4.1c-0.7-0.5-1.5-0.8-2.4-0.9c-5.7,0-11.4,0-17.2,0c-5.8,0-11.6,0-17.4,0
						c-1.5,0-3,0.6-4,1.8c-0.6,0.6-1,1.4-1.1,2.3c-0.1,0.7-0.1,1.3-0.1,2c0,4.9,0,9.8,0,14.7c0,1,0,1.9,0.1,2.9
						c0.1,1.2,0.7,2.4,1.7,3.2l0,0.3c-0.1,0-0.1,0.1-0.1,0.2c0,0,0,0,0,0c0,0.1,0,0.1-0.1,0.2c-0.6-0.3-1-0.8-1.3-1.4
						C0.2,25.6,0,24.6,0,23.6c0-6.2,0-12.3,0-18.5c0-2.3,1.5-4.3,3.7-5C4,0,4.3,0,4.6,0c12,0,23.9,0,35.9,0c1.7,0,3.2,0.9,4,2.4
						c0.5,0.9,0.8,2,0.8,3.1c0,6.2,0,12.4,0,18.6c0,1.5-0.8,2.9-1.9,3.8C43.2,27.9,43.2,27.9,43.1,27.8L43.1,27.8L43.1,27.8"/>
					<path id="Path_11784-3" class="st12" d="M13.2,33.7c-0.3-0.6,0.1-1.1,0.1-1.6c0-0.7,0.3-1.3,0.3-2c0-0.2,0.1-0.4,0.3-0.4
						c0,0,0.1,0,0.1,0c0.7,0,1.4,0,2.2,0c0.3,0,0.4,0.1,0.4,0.4c0.2,1.2,0.3,2.4,0.5,3.6L13.2,33.7"/>
					<path id="Path_11785-3" class="st12" d="M28,33.8c0.2-0.7,0.3-1.5,0.4-2.2c0.1-0.5,0.2-1,0.3-1.5c0-0.2,0.1-0.4,0.3-0.4
						c0,0,0.1,0,0.1,0c0.7,0,1.4,0,2.1,0c0.2,0,0.3,0,0.4,0.3c0.2,1.1,0.4,2.2,0.5,3.3c0,0.2,0.3,0.3,0.1,0.5
						c-0.1-0.1-0.2-0.1-0.3-0.1C30.5,33.8,29.3,33.8,28,33.8"/>
					<path id="Path_11786-3" class="st12" d="M2.1,28.8L2.2,29c0,0-0.1,0-0.1,0L2.1,28.8"/>
					<path id="Path_11787-3" class="st12" d="M32.7,24.4c-0.1,0.4-0.3,0.9-0.4,1.3c-0.3,0.8-0.4,1.7-0.4,2.6c0,0.2,0,0.3-0.1,0.5
						c-0.1-0.1-0.3-0.1-0.5,0c-0.3,0.1-0.4,0-0.4-0.3c-0.1-1.5-0.2-3-0.3-4.6c0-1.2-0.3-2.3-0.2-3.5c0-0.3-0.1-0.5-0.5-0.5
						c-0.4,0-0.8,0-1.3,0c-0.3,0-0.4,0.1-0.4,0.4c-0.1,0.6-0.2,1.1-0.4,1.7c-0.2,0.8-0.4,1.6-0.5,2.4c-0.5-1.1-1.2-2.1-2-2.9
						c-0.7-0.7-1.6-1.1-2.6-1.2c-1.2,0-2.3,0.5-3.1,1.4c-0.9,0.9-1.6,2.1-2,3.4c-0.5,1.2-0.7,2.6-0.6,3.9c-0.1-0.1-0.3-0.1-0.4-0.1
						c-0.4,0.1-0.5-0.1-0.6-0.5c0-1.1-0.2-2.2-0.2-3.3c0,0,0,0,0,0c0.1-1.7-0.2-3.3-0.3-4.9c0.1-0.1,0.2-0.1,0.3-0.1
						c0.3,0,0.5,0,0.8,0c0.1,0,0.3,0,0.3-0.2c0-0.1-0.2-0.1-0.3-0.1c-0.2,0-0.3,0-0.5,0c-0.4,0.1-0.5-0.1-0.5-0.5
						c0-4.3,0-8.6,0-12.9c0-0.1,0-0.1,0-0.2c0-0.2,0.1-0.3,0.3-0.3c0.6-0.1,1.2-0.1,1.8-0.1c0.3,0.1,0.7-0.2,0.7-0.5c0,0,0,0,0,0
						h20.2C39.4,5,40,5.6,40.1,6.3c0,0.1,0,0.1,0,0.2c0,4.5,0,9,0,13.5c0,0.3,0,0.7,0.1,1c0.1,0.2-0.1,0.2-0.2,0.2
						c-0.5-0.3-1.1-0.6-1.7-0.7c-1.4-0.2-2.7,0.2-3.7,1.2c-0.5,0.6-1,1.3-1.4,2c0,0.1-0.1,0.2-0.1,0.3
						C32.6,23.9,32.7,24.2,32.7,24.4"/>
					<path id="Path_11788-3" class="st13" d="M18.4,5.1c-0.1,0.3-0.4,0.6-0.7,0.5c0,0,0,0,0,0c-0.6,0-1.2,0-1.8,0.1
						c-0.2,0-0.4,0.1-0.3,0.3c0,0.1,0,0.1,0,0.2c0,4.3,0,8.6,0,12.9c0,0.4,0.1,0.6,0.5,0.5c0.2,0,0.3,0,0.5,0c0.1,0,0.3,0,0.3,0.1
						c0,0.2-0.2,0.2-0.3,0.2c-0.3,0-0.5,0-0.8,0c-0.1,0-0.2,0-0.3,0.1c-0.6,0-1.2,0-1.8,0c-0.2,0-0.3,0-0.3,0.2
						c-0.2,0.9-0.4,1.8-0.6,2.8c-0.1,0.5-0.2,0.9-0.2,1.4c-0.3-0.1-0.2-0.4-0.3-0.6c-0.6-1.4-1.7-2.5-3.1-3.2
						c-1-0.4-2.2-0.3-3.1,0.2c-0.3,0.2-0.6,0.4-0.9,0.6c0-4.9,0-9.9,0-14.8C5,5.8,5.7,5.1,6.5,5c0,0,0,0,0.1,0
						C10.5,5.1,14.5,5.1,18.4,5.1"/>
					<path id="Path_11789-3" class="st11" d="M17,29c0-1.3,0.2-2.6,0.6-3.9c0.4-1.3,1.1-2.4,2-3.4c0.8-0.9,1.9-1.4,3.1-1.4
						c1,0.1,1.9,0.5,2.6,1.2c0.8,0.8,1.5,1.8,2,2.9c0.1,0.6,0.3,1.2,0.5,1.8c0.2,0.7,0.3,1.5,0.3,2.3c0,0.4-0.1,0.5-0.5,0.5
						c-2.5,0-5.1,0-7.6,0L17,29"/>
					<path id="Path_11790-3" class="st12" d="M31.8,28.9L31.8,28.9L31.8,28.9"/>
					<path id="Path_11791-3" class="st12" d="M18.4,5.1c-4,0-7.9,0-11.9,0C5.8,5,5.1,5.7,5,6.5c0,0,0,0,0,0.1c0,4.9,0,9.9,0,14.8
						c-0.3,0.1-0.5,0.4-0.6,0.6c-0.8,1-1.4,2-1.8,3.2c-0.2,0.5-0.3,1.1-0.4,1.7c0,0.1,0,0.2-0.1,0.3c-0.9-0.8-1.5-1.9-1.7-3.2
						c-0.1-1-0.1-1.9-0.1-2.9c0-4.9,0-9.8,0-14.7c0-0.7,0-1.3,0.1-2c0.2-0.8,0.5-1.6,1.1-2.3c1-1.2,2.5-1.8,4-1.8
						c5.8,0,11.6,0,17.4,0c0.1,0.3,0.1,0.6,0,0.9c0,1,0,1.9,0,2.9c0,0.5-0.1,0.6-0.6,0.6c-0.2,0-0.5-0.2-0.6,0.2L18.4,5.1"/>
					<path id="Path_11792-3" class="st12" d="M2.2,27.7c-0.1,0-0.1-0.1,0-0.2c0,0,0,0,0,0L2.2,27.7"/>
					<path id="Path_11793-3" class="st13" d="M21.9,5.1c0.1-0.3,0.4-0.2,0.6-0.2C23,4.9,23,4.8,23,4.3c0-1,0-1.9,0-2.9
						c0.1-0.3,0.1-0.6,0-0.9c5.7,0,11.4,0,17.2,0c0.9,0,1.7,0.4,2.4,0.9c1.4,0.9,2.2,2.5,2.1,4.1c0,6.1,0,12.2,0,18.3
						c0,1.1-0.5,2.2-1.3,3.1c-0.1,0.2-0.3,0.3-0.4,0.5c-0.1-0.4-0.2-0.9-0.3-1.3C42.5,25,42,24,41.5,23c-0.4-0.7-1-1.3-1.6-1.8
						c0.1,0,0.3,0,0.2-0.2c-0.1-0.3-0.1-0.7-0.1-1c0-4.5,0-9,0-13.5c0.1-0.7-0.5-1.4-1.2-1.5c-0.1,0-0.1,0-0.2,0L21.9,5.1"/>
					<path id="Path_11794-3" class="st13" d="M32.7,24.4c0-0.2-0.1-0.6,0.3-0.5C33,24.1,32.9,24.3,32.7,24.4"/>
					<path id="Path_11795-3" class="st13" d="M43.1,27.8L43.1,27.8L43.1,27.8"/>
				</g>
			</g>
		</g>
		<g id="Group_470" transform="translate(1629.499 8331.404)">
			<g>
				<defs>
					<rect id="SVGID_00000073714286818717620520000007422781196339480214_" x="0" y="0" width="45.2" height="38.1"/>
				</defs>
				<clipPath id="SVGID_00000103968577534917861140000016995073250430648499_">
					<use xlink:href="#SVGID_00000073714286818717620520000007422781196339480214_"  style="overflow:visible;"/>
				</clipPath>
				
					<g id="Group_464-4" transform="translate(0 0)" style="clip-path:url(#SVGID_00000103968577534917861140000016995073250430648499_);">
					<path id="Path_11780-4" class="st10" d="M43.1,28.7c0,0.2,0.2,0.3,0.4,0.3c0.4,0,0.8,0,1.1,0c0.2,0,0.4,0.1,0.4,0.3
						c0.1,0.3,0.1,0.4-0.2,0.4c-0.3,0-0.6,0-0.9,0s-0.4,0.1-0.5,0.4c-0.1,0.7-0.2,1.5-0.4,2.2c-0.3,1.4-0.4,2.8-0.7,4.2
						c-0.2,0.6-0.7,1.1-1.4,1.1c-0.4,0-0.9,0-1.3,0c-0.2,0-0.4,0.1-0.5,0.3c-0.1,0.2-0.3,0.3-0.5,0.3c-0.9,0-1.7,0-2.6,0
						c-0.2,0-0.4,0-0.5-0.3c0-0.2-0.2-0.2-0.4-0.2c-0.4,0-0.9,0-1.3,0c-0.6,0-1.2-0.4-1.4-1c-0.2-0.5-0.3-1.1-0.3-1.6
						c0-0.4-0.2-0.8-0.2-1.1c0.2-0.2-0.1-0.3-0.1-0.5c-0.1-1.1-0.3-2.2-0.5-3.3c0-0.3-0.1-0.3-0.4-0.3c-0.7,0-1.4,0-2.1,0
						c-0.2,0-0.4,0.1-0.4,0.3c0,0,0,0.1,0,0.1c-0.1,0.5-0.2,1-0.3,1.5c-0.1,0.7-0.2,1.5-0.4,2.2c-0.1,0.9-0.2,1.8-0.4,2.6
						c-0.1,0.7-0.8,1.2-1.5,1.2c-0.3,0-0.7,0-1,0s-0.6,0-0.8,0.4c-0.1,0.2-0.3,0.2-0.5,0.2c-0.9,0-1.7,0-2.6,0c-0.2,0-0.4,0-0.5-0.2
						c-0.1-0.3-0.4-0.4-0.7-0.3c-0.2,0-0.4,0-0.7,0c-1.4,0.2-2-0.6-2.1-2c0-0.6-0.1-1.3-0.3-1.9c-0.2-1.2-0.3-2.4-0.5-3.6
						c0-0.2-0.1-0.4-0.4-0.4c-0.7,0-1.4,0-2.2,0c-0.2,0-0.4,0.1-0.4,0.3c0,0,0,0.1,0,0.1c0,0.7-0.3,1.3-0.3,2c0,0.5-0.4,1-0.1,1.6
						c-0.3,0.3-0.2,0.7-0.3,1.1c-0.1,0.7-0.2,1.3-0.4,1.9c-0.2,0.5-0.7,0.8-1.2,0.8c-0.5,0-0.9,0-1.4,0c-0.2,0-0.4,0-0.5,0.2
						c-0.1,0.3-0.3,0.3-0.5,0.3c-0.9,0-1.7,0-2.6,0c-0.2,0-0.4,0-0.4-0.2c-0.1-0.3-0.4-0.4-0.7-0.4c-0.4,0-0.8,0-1.2,0
						c-0.8-0.1-1.4-0.6-1.5-1.4c-0.1-0.9-0.2-1.8-0.4-2.7c-0.2-1.1-0.4-2.1-0.5-3.2c-0.1-0.5-0.2-0.6-0.7-0.6c-0.2,0-0.4,0-0.6,0
						S0,29.7,0,29.4C0,29.1,0.2,29,0.5,29c0,0,0,0,0,0c0.5,0,1.1,0,1.6,0c0,0,0.1,0,0.1,0L13,29c0.1,0,0.1,0,0.2,0
						c0.1,0,0.2-0.1,0.2-0.2c-0.2-0.8-0.1-1.6-0.3-2.4c-0.2-0.6-0.4-1.3-0.5-1.9c0-0.5,0.1-1,0.2-1.4c0.2-0.9,0.4-1.8,0.6-2.8
						c0-0.2,0.1-0.2,0.3-0.2c0.6,0,1.2,0,1.8,0c0.1,1.7,0.3,3.3,0.3,4.9c0,0,0,0,0,0c0.1,1.1,0.2,2.2,0.2,3.3c0,0.4,0.1,0.6,0.6,0.5
						c0.1,0,0.3,0,0.4,0.1h3.2c2.5,0,5.1,0,7.6,0c0.4,0,0.5-0.1,0.5-0.5c0-0.8-0.1-1.5-0.3-2.3c-0.2-0.6-0.4-1.2-0.5-1.8
						c0.1-0.8,0.4-1.6,0.5-2.4c0.1-0.6,0.2-1.1,0.4-1.7c0-0.2,0.1-0.4,0.4-0.4c0.4,0,0.8,0,1.3,0c0.3,0,0.5,0.1,0.5,0.5
						c0,1.2,0.2,2.3,0.2,3.5c0,1.5,0.2,3,0.3,4.6c0,0.3,0.2,0.4,0.4,0.3c0.1-0.1,0.3-0.1,0.5,0l0,0c0,0,0.1,0.1,0.1,0.1l6.6,0h4.2
						C42.9,29,43.2,29,43.1,28.7"/>
					<path id="Path_11781-4" class="st11" d="M12.5,24.4c0.2,0.6,0.4,1.3,0.5,1.9c0.2,0.8,0.1,1.6,0.3,2.4c0,0.1,0,0.2-0.2,0.2
						c-0.1,0-0.1,0-0.2,0L2.2,29l-0.1-0.2c0-0.3,0-0.6,0-0.9c0.1,0,0.1-0.1,0.1-0.2l0-0.3l0-0.3c0.1-0.1,0.1-0.2,0.1-0.3
						c0-0.6,0.2-1.2,0.4-1.7c0.4-1.1,1-2.2,1.8-3.2c0.2-0.2,0.3-0.5,0.6-0.6C5.4,21.2,5.6,21,6,20.8c1-0.5,2.1-0.6,3.1-0.2
						c1.4,0.7,2.5,1.8,3.1,3.2C12.3,24,12.2,24.3,12.5,24.4"/>
					<path id="Path_11782-4" class="st11" d="M43.2,28.7c0,0.3-0.2,0.3-0.4,0.3h-4.2l-6.6,0l-0.1-0.1l0,0c0-0.2,0.1-0.3,0.1-0.5
						c0-0.9,0.1-1.8,0.4-2.6c0.1-0.5,0.3-0.9,0.4-1.3c0.2-0.1,0.3-0.3,0.3-0.5c0-0.1,0-0.2,0.1-0.3c0.4-0.7,0.9-1.3,1.4-2
						c0.9-1,2.3-1.4,3.7-1.2c0.6,0.2,1.2,0.4,1.7,0.7c0.6,0.5,1.1,1.1,1.6,1.8c0.6,1,1,2,1.3,3.1c0.1,0.4,0.1,0.9,0.3,1.3l0,0.4
						l0,0.1h0C43.1,28.2,43.1,28.4,43.2,28.7"/>
					<path id="Path_11783-4" class="st10" d="M43.1,27.8c0-0.1,0-0.3,0-0.4c0.1-0.2,0.2-0.4,0.4-0.5c0.8-0.8,1.2-1.9,1.3-3.1
						c0-6.1,0-12.2,0-18.3c0.1-1.7-0.8-3.2-2.1-4.1c-0.7-0.5-1.5-0.8-2.4-0.9c-5.7,0-11.4,0-17.2,0c-5.8,0-11.6,0-17.4,0
						c-1.5,0-3,0.6-4,1.8c-0.6,0.6-1,1.4-1.1,2.3c-0.1,0.7-0.1,1.3-0.1,2c0,4.9,0,9.8,0,14.7c0,1,0,1.9,0.1,2.9
						c0.1,1.2,0.7,2.4,1.7,3.2l0,0.3c-0.1,0-0.1,0.1-0.1,0.2c0,0,0,0,0,0c0,0.1,0,0.1-0.1,0.2c-0.6-0.3-1-0.8-1.3-1.4
						C0.2,25.6,0,24.6,0,23.6c0-6.2,0-12.3,0-18.5c0-2.3,1.5-4.3,3.7-5C4,0,4.3,0,4.6,0c12,0,23.9,0,35.9,0c1.7,0,3.2,0.9,4,2.4
						c0.5,0.9,0.8,2,0.8,3.1c0,6.2,0,12.4,0,18.6c0,1.5-0.8,2.9-1.9,3.8C43.2,27.9,43.2,27.9,43.1,27.8L43.1,27.8L43.1,27.8"/>
					<path id="Path_11784-4" class="st12" d="M13.2,33.7c-0.3-0.6,0.1-1.1,0.1-1.6c0-0.7,0.3-1.3,0.3-2c0-0.2,0.1-0.4,0.3-0.4
						c0,0,0.1,0,0.1,0c0.7,0,1.4,0,2.2,0c0.3,0,0.4,0.1,0.4,0.4c0.2,1.2,0.3,2.4,0.5,3.6L13.2,33.7"/>
					<path id="Path_11785-4" class="st12" d="M28,33.8c0.2-0.7,0.3-1.5,0.4-2.2c0.1-0.5,0.2-1,0.3-1.5c0-0.2,0.1-0.4,0.3-0.4
						c0,0,0.1,0,0.1,0c0.7,0,1.4,0,2.1,0c0.2,0,0.3,0,0.4,0.3c0.2,1.1,0.4,2.2,0.5,3.3c0,0.2,0.3,0.3,0.1,0.5
						c-0.1-0.1-0.2-0.1-0.3-0.1C30.5,33.8,29.3,33.8,28,33.8"/>
					<path id="Path_11786-4" class="st12" d="M2.1,28.8L2.2,29c0,0-0.1,0-0.1,0L2.1,28.8"/>
					<path id="Path_11787-4" class="st12" d="M32.7,24.4c-0.1,0.4-0.3,0.9-0.4,1.3c-0.3,0.8-0.4,1.7-0.4,2.6c0,0.2,0,0.3-0.1,0.5
						c-0.1-0.1-0.3-0.1-0.5,0c-0.3,0.1-0.4,0-0.4-0.3c-0.1-1.5-0.2-3-0.3-4.6c0-1.2-0.3-2.3-0.2-3.5c0-0.3-0.1-0.5-0.5-0.5
						c-0.4,0-0.8,0-1.3,0c-0.3,0-0.4,0.1-0.4,0.4c-0.1,0.6-0.2,1.1-0.4,1.7c-0.2,0.8-0.4,1.6-0.5,2.4c-0.5-1.1-1.2-2.1-2-2.9
						c-0.7-0.7-1.6-1.1-2.6-1.2c-1.2,0-2.3,0.5-3.1,1.4c-0.9,0.9-1.6,2.1-2,3.4c-0.5,1.2-0.7,2.6-0.6,3.9c-0.1-0.1-0.3-0.1-0.4-0.1
						c-0.4,0.1-0.5-0.1-0.6-0.5c0-1.1-0.2-2.2-0.2-3.3c0,0,0,0,0,0c0.1-1.7-0.2-3.3-0.3-4.9c0.1-0.1,0.2-0.1,0.3-0.1
						c0.3,0,0.5,0,0.8,0c0.1,0,0.3,0,0.3-0.2c0-0.1-0.2-0.1-0.3-0.1c-0.2,0-0.3,0-0.5,0c-0.4,0.1-0.5-0.1-0.5-0.5
						c0-4.3,0-8.6,0-12.9c0-0.1,0-0.1,0-0.2c0-0.2,0.1-0.3,0.3-0.3c0.6-0.1,1.2-0.1,1.8-0.1c0.3,0.1,0.7-0.2,0.7-0.5c0,0,0,0,0,0
						h20.2C39.4,5,40,5.6,40.1,6.3c0,0.1,0,0.1,0,0.2c0,4.5,0,9,0,13.5c0,0.3,0,0.7,0.1,1c0.1,0.2-0.1,0.2-0.2,0.2
						c-0.5-0.3-1.1-0.6-1.7-0.7c-1.4-0.2-2.7,0.2-3.7,1.2c-0.5,0.6-1,1.3-1.4,2c0,0.1-0.1,0.2-0.1,0.3
						C32.6,23.9,32.7,24.2,32.7,24.4"/>
					<path id="Path_11788-4" class="st13" d="M18.4,5.1c-0.1,0.3-0.4,0.6-0.7,0.5c0,0,0,0,0,0c-0.6,0-1.2,0-1.8,0.1
						c-0.2,0-0.4,0.1-0.3,0.3c0,0.1,0,0.1,0,0.2c0,4.3,0,8.6,0,12.9c0,0.4,0.1,0.6,0.5,0.5c0.2,0,0.3,0,0.5,0c0.1,0,0.3,0,0.3,0.1
						c0,0.2-0.2,0.2-0.3,0.2c-0.3,0-0.5,0-0.8,0c-0.1,0-0.2,0-0.3,0.1c-0.6,0-1.2,0-1.8,0c-0.2,0-0.3,0-0.3,0.2
						c-0.2,0.9-0.4,1.8-0.6,2.8c-0.1,0.5-0.2,0.9-0.2,1.4c-0.3-0.1-0.2-0.4-0.3-0.6c-0.6-1.4-1.7-2.5-3.1-3.2
						c-1-0.4-2.2-0.3-3.1,0.2c-0.3,0.2-0.6,0.4-0.9,0.6c0-4.9,0-9.9,0-14.8C5,5.8,5.7,5.1,6.5,5c0,0,0,0,0.1,0
						C10.5,5.1,14.5,5.1,18.4,5.1"/>
					<path id="Path_11789-4" class="st11" d="M17,29c0-1.3,0.2-2.6,0.6-3.9c0.4-1.3,1.1-2.4,2-3.4c0.8-0.9,1.9-1.4,3.1-1.4
						c1,0.1,1.9,0.5,2.6,1.2c0.8,0.8,1.5,1.8,2,2.9c0.1,0.6,0.3,1.2,0.5,1.8c0.2,0.7,0.3,1.5,0.3,2.3c0,0.4-0.1,0.5-0.5,0.5
						c-2.5,0-5.1,0-7.6,0L17,29"/>
					<path id="Path_11790-4" class="st12" d="M31.8,28.9L31.8,28.9L31.8,28.9"/>
					<path id="Path_11791-4" class="st12" d="M18.4,5.1c-4,0-7.9,0-11.9,0C5.8,5,5.1,5.7,5,6.5c0,0,0,0,0,0.1c0,4.9,0,9.9,0,14.8
						c-0.3,0.1-0.5,0.4-0.6,0.6c-0.8,1-1.4,2-1.8,3.2c-0.2,0.5-0.3,1.1-0.4,1.7c0,0.1,0,0.2-0.1,0.3c-0.9-0.8-1.5-1.9-1.7-3.2
						c-0.1-1-0.1-1.9-0.1-2.9c0-4.9,0-9.8,0-14.7c0-0.7,0-1.3,0.1-2c0.2-0.8,0.5-1.6,1.1-2.3c1-1.2,2.5-1.8,4-1.8
						c5.8,0,11.6,0,17.4,0c0.1,0.3,0.1,0.6,0,0.9c0,1,0,1.9,0,2.9c0,0.5-0.1,0.6-0.6,0.6c-0.2,0-0.5-0.2-0.6,0.2L18.4,5.1"/>
					<path id="Path_11792-4" class="st12" d="M2.2,27.7c-0.1,0-0.1-0.1,0-0.2c0,0,0,0,0,0L2.2,27.7"/>
					<path id="Path_11793-4" class="st13" d="M21.9,5.1c0.1-0.3,0.4-0.2,0.6-0.2C23,4.9,23,4.8,23,4.3c0-1,0-1.9,0-2.9
						c0.1-0.3,0.1-0.6,0-0.9c5.7,0,11.4,0,17.2,0c0.9,0,1.7,0.4,2.4,0.9c1.4,0.9,2.2,2.5,2.1,4.1c0,6.1,0,12.2,0,18.3
						c0,1.1-0.5,2.2-1.3,3.1c-0.1,0.2-0.3,0.3-0.4,0.5c-0.1-0.4-0.2-0.9-0.3-1.3C42.5,25,42,24,41.5,23c-0.4-0.7-1-1.3-1.6-1.8
						c0.1,0,0.3,0,0.2-0.2c-0.1-0.3-0.1-0.7-0.1-1c0-4.5,0-9,0-13.5c0.1-0.7-0.5-1.4-1.2-1.5c-0.1,0-0.1,0-0.2,0L21.9,5.1"/>
					<path id="Path_11794-4" class="st13" d="M32.7,24.4c0-0.2-0.1-0.6,0.3-0.5C33,24.1,32.9,24.3,32.7,24.4"/>
					<path id="Path_11795-4" class="st13" d="M43.1,27.8L43.1,27.8L43.1,27.8"/>
				</g>
			</g>
		</g>
		<g id="Group_471" transform="translate(1684.499 8331.404)">
			<g>
				<defs>
					<rect id="SVGID_00000119812210153683811720000015723466465597269910_" x="0" y="0" width="45.2" height="38.1"/>
				</defs>
				<clipPath id="SVGID_00000034803139940172330460000004788739227955326877_">
					<use xlink:href="#SVGID_00000119812210153683811720000015723466465597269910_"  style="overflow:visible;"/>
				</clipPath>
				
					<g id="Group_464-5" transform="translate(0 0)" style="clip-path:url(#SVGID_00000034803139940172330460000004788739227955326877_);">
					<path id="Path_11780-5" class="st10" d="M43.1,28.7c0,0.2,0.2,0.3,0.4,0.3c0.4,0,0.8,0,1.1,0c0.2,0,0.4,0.1,0.4,0.3
						c0.1,0.3,0.1,0.4-0.2,0.4c-0.3,0-0.6,0-0.9,0s-0.4,0.1-0.5,0.4c-0.1,0.7-0.2,1.5-0.4,2.2c-0.3,1.4-0.4,2.8-0.7,4.2
						c-0.2,0.6-0.7,1.1-1.4,1.1c-0.4,0-0.9,0-1.3,0c-0.2,0-0.4,0.1-0.5,0.3c-0.1,0.2-0.3,0.3-0.5,0.3c-0.9,0-1.7,0-2.6,0
						c-0.2,0-0.4,0-0.5-0.3c0-0.2-0.2-0.2-0.4-0.2c-0.4,0-0.9,0-1.3,0c-0.6,0-1.2-0.4-1.4-1c-0.2-0.5-0.3-1.1-0.3-1.6
						c0-0.4-0.2-0.8-0.2-1.1c0.2-0.2-0.1-0.3-0.1-0.5c-0.1-1.1-0.3-2.2-0.5-3.3c0-0.3-0.1-0.3-0.4-0.3c-0.7,0-1.4,0-2.1,0
						c-0.2,0-0.4,0.1-0.4,0.3c0,0,0,0.1,0,0.1c-0.1,0.5-0.2,1-0.3,1.5c-0.1,0.7-0.2,1.5-0.4,2.2c-0.1,0.9-0.2,1.8-0.4,2.6
						c-0.1,0.7-0.8,1.2-1.5,1.2c-0.3,0-0.7,0-1,0s-0.6,0-0.8,0.4c-0.1,0.2-0.3,0.2-0.5,0.2c-0.9,0-1.7,0-2.6,0c-0.2,0-0.4,0-0.5-0.2
						c-0.1-0.3-0.4-0.4-0.7-0.3c-0.2,0-0.4,0-0.7,0c-1.4,0.2-2-0.6-2.1-2c0-0.6-0.1-1.3-0.3-1.9c-0.2-1.2-0.3-2.4-0.5-3.6
						c0-0.2-0.1-0.4-0.4-0.4c-0.7,0-1.4,0-2.2,0c-0.2,0-0.4,0.1-0.4,0.3c0,0,0,0.1,0,0.1c0,0.7-0.3,1.3-0.3,2c0,0.5-0.4,1-0.1,1.6
						c-0.3,0.3-0.2,0.7-0.3,1.1c-0.1,0.7-0.2,1.3-0.4,1.9c-0.2,0.5-0.7,0.8-1.2,0.8c-0.5,0-0.9,0-1.4,0c-0.2,0-0.4,0-0.5,0.2
						c-0.1,0.3-0.3,0.3-0.5,0.3c-0.9,0-1.7,0-2.6,0c-0.2,0-0.4,0-0.4-0.2c-0.1-0.3-0.4-0.4-0.7-0.4c-0.4,0-0.8,0-1.2,0
						c-0.8-0.1-1.4-0.6-1.5-1.4c-0.1-0.9-0.2-1.8-0.4-2.7c-0.2-1.1-0.4-2.1-0.5-3.2c-0.1-0.5-0.2-0.6-0.7-0.6c-0.2,0-0.4,0-0.6,0
						S0,29.7,0,29.4C0,29.1,0.2,29,0.5,29c0,0,0,0,0,0c0.5,0,1.1,0,1.6,0c0,0,0.1,0,0.1,0L13,29c0.1,0,0.1,0,0.2,0
						c0.1,0,0.2-0.1,0.2-0.2c-0.2-0.8-0.1-1.6-0.3-2.4c-0.2-0.6-0.4-1.3-0.5-1.9c0-0.5,0.1-1,0.2-1.4c0.2-0.9,0.4-1.8,0.6-2.8
						c0-0.2,0.1-0.2,0.3-0.2c0.6,0,1.2,0,1.8,0c0.1,1.7,0.3,3.3,0.3,4.9c0,0,0,0,0,0c0.1,1.1,0.2,2.2,0.2,3.3c0,0.4,0.1,0.6,0.6,0.5
						c0.1,0,0.3,0,0.4,0.1h3.2c2.5,0,5.1,0,7.6,0c0.4,0,0.5-0.1,0.5-0.5c0-0.8-0.1-1.5-0.3-2.3c-0.2-0.6-0.4-1.2-0.5-1.8
						c0.1-0.8,0.4-1.6,0.5-2.4c0.1-0.6,0.2-1.1,0.4-1.7c0-0.2,0.1-0.4,0.4-0.4c0.4,0,0.8,0,1.3,0c0.3,0,0.5,0.1,0.5,0.5
						c0,1.2,0.2,2.3,0.2,3.5c0,1.5,0.2,3,0.3,4.6c0,0.3,0.2,0.4,0.4,0.3c0.1-0.1,0.3-0.1,0.5,0l0,0c0,0,0.1,0.1,0.1,0.1l6.6,0h4.2
						C42.9,29,43.2,29,43.1,28.7"/>
					<path id="Path_11781-5" class="st11" d="M12.5,24.4c0.2,0.6,0.4,1.3,0.5,1.9c0.2,0.8,0.1,1.6,0.3,2.4c0,0.1,0,0.2-0.2,0.2
						c-0.1,0-0.1,0-0.2,0L2.2,29l-0.1-0.2c0-0.3,0-0.6,0-0.9c0.1,0,0.1-0.1,0.1-0.2l0-0.3l0-0.3c0.1-0.1,0.1-0.2,0.1-0.3
						c0-0.6,0.2-1.2,0.4-1.7c0.4-1.1,1-2.2,1.8-3.2c0.2-0.2,0.3-0.5,0.6-0.6C5.4,21.2,5.6,21,6,20.8c1-0.5,2.1-0.6,3.1-0.2
						c1.4,0.7,2.5,1.8,3.1,3.2C12.3,24,12.2,24.3,12.5,24.4"/>
					<path id="Path_11782-5" class="st11" d="M43.2,28.7c0,0.3-0.2,0.3-0.4,0.3h-4.2l-6.6,0l-0.1-0.1l0,0c0-0.2,0.1-0.3,0.1-0.5
						c0-0.9,0.1-1.8,0.4-2.6c0.1-0.5,0.3-0.9,0.4-1.3c0.2-0.1,0.3-0.3,0.3-0.5c0-0.1,0-0.2,0.1-0.3c0.4-0.7,0.9-1.3,1.4-2
						c0.9-1,2.3-1.4,3.7-1.2c0.6,0.2,1.2,0.4,1.7,0.7c0.6,0.5,1.1,1.1,1.6,1.8c0.6,1,1,2,1.3,3.1c0.1,0.4,0.1,0.9,0.3,1.3l0,0.4
						l0,0.1h0C43.1,28.2,43.1,28.4,43.2,28.7"/>
					<path id="Path_11783-5" class="st10" d="M43.1,27.8c0-0.1,0-0.3,0-0.4c0.1-0.2,0.2-0.4,0.4-0.5c0.8-0.8,1.2-1.9,1.3-3.1
						c0-6.1,0-12.2,0-18.3c0.1-1.7-0.8-3.2-2.1-4.1c-0.7-0.5-1.5-0.8-2.4-0.9c-5.7,0-11.4,0-17.2,0c-5.8,0-11.6,0-17.4,0
						c-1.5,0-3,0.6-4,1.8c-0.6,0.6-1,1.4-1.1,2.3c-0.1,0.7-0.1,1.3-0.1,2c0,4.9,0,9.8,0,14.7c0,1,0,1.9,0.1,2.9
						c0.1,1.2,0.7,2.4,1.7,3.2l0,0.3c-0.1,0-0.1,0.1-0.1,0.2c0,0,0,0,0,0c0,0.1,0,0.1-0.1,0.2c-0.6-0.3-1-0.8-1.3-1.4
						C0.2,25.6,0,24.6,0,23.6c0-6.2,0-12.3,0-18.5c0-2.3,1.5-4.3,3.7-5C4,0,4.3,0,4.6,0c12,0,23.9,0,35.9,0c1.7,0,3.2,0.9,4,2.4
						c0.5,0.9,0.8,2,0.8,3.1c0,6.2,0,12.4,0,18.6c0,1.5-0.8,2.9-1.9,3.8C43.2,27.9,43.2,27.9,43.1,27.8L43.1,27.8L43.1,27.8"/>
					<path id="Path_11784-5" class="st12" d="M13.2,33.7c-0.3-0.6,0.1-1.1,0.1-1.6c0-0.7,0.3-1.3,0.3-2c0-0.2,0.1-0.4,0.3-0.4
						c0,0,0.1,0,0.1,0c0.7,0,1.4,0,2.2,0c0.3,0,0.4,0.1,0.4,0.4c0.2,1.2,0.3,2.4,0.5,3.6L13.2,33.7"/>
					<path id="Path_11785-5" class="st12" d="M28,33.8c0.2-0.7,0.3-1.5,0.4-2.2c0.1-0.5,0.2-1,0.3-1.5c0-0.2,0.1-0.4,0.3-0.4
						c0,0,0.1,0,0.1,0c0.7,0,1.4,0,2.1,0c0.2,0,0.3,0,0.4,0.3c0.2,1.1,0.4,2.2,0.5,3.3c0,0.2,0.3,0.3,0.1,0.5
						c-0.1-0.1-0.2-0.1-0.3-0.1C30.5,33.8,29.3,33.8,28,33.8"/>
					<path id="Path_11786-5" class="st12" d="M2.1,28.8L2.2,29c0,0-0.1,0-0.1,0L2.1,28.8"/>
					<path id="Path_11787-5" class="st12" d="M32.7,24.4c-0.1,0.4-0.3,0.9-0.4,1.3c-0.3,0.8-0.4,1.7-0.4,2.6c0,0.2,0,0.3-0.1,0.5
						c-0.1-0.1-0.3-0.1-0.5,0c-0.3,0.1-0.4,0-0.4-0.3c-0.1-1.5-0.2-3-0.3-4.6c0-1.2-0.3-2.3-0.2-3.5c0-0.3-0.1-0.5-0.5-0.5
						c-0.4,0-0.8,0-1.3,0c-0.3,0-0.4,0.1-0.4,0.4c-0.1,0.6-0.2,1.1-0.4,1.7c-0.2,0.8-0.4,1.6-0.5,2.4c-0.5-1.1-1.2-2.1-2-2.9
						c-0.7-0.7-1.6-1.1-2.6-1.2c-1.2,0-2.3,0.5-3.1,1.4c-0.9,0.9-1.6,2.1-2,3.4c-0.5,1.2-0.7,2.6-0.6,3.9c-0.1-0.1-0.3-0.1-0.4-0.1
						c-0.4,0.1-0.5-0.1-0.6-0.5c0-1.1-0.2-2.2-0.2-3.3c0,0,0,0,0,0c0.1-1.7-0.2-3.3-0.3-4.9c0.1-0.1,0.2-0.1,0.3-0.1
						c0.3,0,0.5,0,0.8,0c0.1,0,0.3,0,0.3-0.2c0-0.1-0.2-0.1-0.3-0.1c-0.2,0-0.3,0-0.5,0c-0.4,0.1-0.5-0.1-0.5-0.5
						c0-4.3,0-8.6,0-12.9c0-0.1,0-0.1,0-0.2c0-0.2,0.1-0.3,0.3-0.3c0.6-0.1,1.2-0.1,1.8-0.1c0.3,0.1,0.7-0.2,0.7-0.5c0,0,0,0,0,0
						h20.2C39.4,5,40,5.6,40.1,6.3c0,0.1,0,0.1,0,0.2c0,4.5,0,9,0,13.5c0,0.3,0,0.7,0.1,1c0.1,0.2-0.1,0.2-0.2,0.2
						c-0.5-0.3-1.1-0.6-1.7-0.7c-1.4-0.2-2.7,0.2-3.7,1.2c-0.5,0.6-1,1.3-1.4,2c0,0.1-0.1,0.2-0.1,0.3
						C32.6,23.9,32.7,24.2,32.7,24.4"/>
					<path id="Path_11788-5" class="st13" d="M18.4,5.1c-0.1,0.3-0.4,0.6-0.7,0.5c0,0,0,0,0,0c-0.6,0-1.2,0-1.8,0.1
						c-0.2,0-0.4,0.1-0.3,0.3c0,0.1,0,0.1,0,0.2c0,4.3,0,8.6,0,12.9c0,0.4,0.1,0.6,0.5,0.5c0.2,0,0.3,0,0.5,0c0.1,0,0.3,0,0.3,0.1
						c0,0.2-0.2,0.2-0.3,0.2c-0.3,0-0.5,0-0.8,0c-0.1,0-0.2,0-0.3,0.1c-0.6,0-1.2,0-1.8,0c-0.2,0-0.3,0-0.3,0.2
						c-0.2,0.9-0.4,1.8-0.6,2.8c-0.1,0.5-0.2,0.9-0.2,1.4c-0.3-0.1-0.2-0.4-0.3-0.6c-0.6-1.4-1.7-2.5-3.1-3.2
						c-1-0.4-2.2-0.3-3.1,0.2c-0.3,0.2-0.6,0.4-0.9,0.6c0-4.9,0-9.9,0-14.8C5,5.8,5.7,5.1,6.5,5c0,0,0,0,0.1,0
						C10.5,5.1,14.5,5.1,18.4,5.1"/>
					<path id="Path_11789-5" class="st11" d="M17,29c0-1.3,0.2-2.6,0.6-3.9c0.4-1.3,1.1-2.4,2-3.4c0.8-0.9,1.9-1.4,3.1-1.4
						c1,0.1,1.9,0.5,2.6,1.2c0.8,0.8,1.5,1.8,2,2.9c0.1,0.6,0.3,1.2,0.5,1.8c0.2,0.7,0.3,1.5,0.3,2.3c0,0.4-0.1,0.5-0.5,0.5
						c-2.5,0-5.1,0-7.6,0L17,29"/>
					<path id="Path_11790-5" class="st12" d="M31.8,28.9L31.8,28.9L31.8,28.9"/>
					<path id="Path_11791-5" class="st12" d="M18.4,5.1c-4,0-7.9,0-11.9,0C5.8,5,5.1,5.7,5,6.5c0,0,0,0,0,0.1c0,4.9,0,9.9,0,14.8
						c-0.3,0.1-0.5,0.4-0.6,0.6c-0.8,1-1.4,2-1.8,3.2c-0.2,0.5-0.3,1.1-0.4,1.7c0,0.1,0,0.2-0.1,0.3c-0.9-0.8-1.5-1.9-1.7-3.2
						c-0.1-1-0.1-1.9-0.1-2.9c0-4.9,0-9.8,0-14.7c0-0.7,0-1.3,0.1-2c0.2-0.8,0.5-1.6,1.1-2.3c1-1.2,2.5-1.8,4-1.8
						c5.8,0,11.6,0,17.4,0c0.1,0.3,0.1,0.6,0,0.9c0,1,0,1.9,0,2.9c0,0.5-0.1,0.6-0.6,0.6c-0.2,0-0.5-0.2-0.6,0.2L18.4,5.1"/>
					<path id="Path_11792-5" class="st12" d="M2.2,27.7c-0.1,0-0.1-0.1,0-0.2c0,0,0,0,0,0L2.2,27.7"/>
					<path id="Path_11793-5" class="st13" d="M21.9,5.1c0.1-0.3,0.4-0.2,0.6-0.2C23,4.9,23,4.8,23,4.3c0-1,0-1.9,0-2.9
						c0.1-0.3,0.1-0.6,0-0.9c5.7,0,11.4,0,17.2,0c0.9,0,1.7,0.4,2.4,0.9c1.4,0.9,2.2,2.5,2.1,4.1c0,6.1,0,12.2,0,18.3
						c0,1.1-0.5,2.2-1.3,3.1c-0.1,0.2-0.3,0.3-0.4,0.5c-0.1-0.4-0.2-0.9-0.3-1.3C42.5,25,42,24,41.5,23c-0.4-0.7-1-1.3-1.6-1.8
						c0.1,0,0.3,0,0.2-0.2c-0.1-0.3-0.1-0.7-0.1-1c0-4.5,0-9,0-13.5c0.1-0.7-0.5-1.4-1.2-1.5c-0.1,0-0.1,0-0.2,0L21.9,5.1"/>
					<path id="Path_11794-5" class="st13" d="M32.7,24.4c0-0.2-0.1-0.6,0.3-0.5C33,24.1,32.9,24.3,32.7,24.4"/>
					<path id="Path_11795-5" class="st13" d="M43.1,27.8L43.1,27.8L43.1,27.8"/>
				</g>
			</g>
		</g>
		<g id="Group_472" transform="translate(1739.499 8331.404)">
			<g>
				<defs>
					<rect id="SVGID_00000098927004658822411900000007709222601084295085_" x="0" y="0" width="45.2" height="38.1"/>
				</defs>
				<clipPath id="SVGID_00000127013884131481673110000003591856471872883647_">
					<use xlink:href="#SVGID_00000098927004658822411900000007709222601084295085_"  style="overflow:visible;"/>
				</clipPath>
				
					<g id="Group_464-6" transform="translate(0 0)" style="clip-path:url(#SVGID_00000127013884131481673110000003591856471872883647_);">
					<path id="Path_11780-6" class="st10" d="M43.1,28.7c0,0.2,0.2,0.3,0.4,0.3c0.4,0,0.8,0,1.1,0c0.2,0,0.4,0.1,0.4,0.3
						c0.1,0.3,0.1,0.4-0.2,0.4c-0.3,0-0.6,0-0.9,0s-0.4,0.1-0.5,0.4c-0.1,0.7-0.2,1.5-0.4,2.2c-0.3,1.4-0.4,2.8-0.7,4.2
						c-0.2,0.6-0.7,1.1-1.4,1.1c-0.4,0-0.9,0-1.3,0c-0.2,0-0.4,0.1-0.5,0.3c-0.1,0.2-0.3,0.3-0.5,0.3c-0.9,0-1.7,0-2.6,0
						c-0.2,0-0.4,0-0.5-0.3c0-0.2-0.2-0.2-0.4-0.2c-0.4,0-0.9,0-1.3,0c-0.6,0-1.2-0.4-1.4-1c-0.2-0.5-0.3-1.1-0.3-1.6
						c0-0.4-0.2-0.8-0.2-1.1c0.2-0.2-0.1-0.3-0.1-0.5c-0.1-1.1-0.3-2.2-0.5-3.3c0-0.3-0.1-0.3-0.4-0.3c-0.7,0-1.4,0-2.1,0
						c-0.2,0-0.4,0.1-0.4,0.3c0,0,0,0.1,0,0.1c-0.1,0.5-0.2,1-0.3,1.5c-0.1,0.7-0.2,1.5-0.4,2.2c-0.1,0.9-0.2,1.8-0.4,2.6
						c-0.1,0.7-0.8,1.2-1.5,1.2c-0.3,0-0.7,0-1,0s-0.6,0-0.8,0.4c-0.1,0.2-0.3,0.2-0.5,0.2c-0.9,0-1.7,0-2.6,0c-0.2,0-0.4,0-0.5-0.2
						c-0.1-0.3-0.4-0.4-0.7-0.3c-0.2,0-0.4,0-0.7,0c-1.4,0.2-2-0.6-2.1-2c0-0.6-0.1-1.3-0.3-1.9c-0.2-1.2-0.3-2.4-0.5-3.6
						c0-0.2-0.1-0.4-0.4-0.4c-0.7,0-1.4,0-2.2,0c-0.2,0-0.4,0.1-0.4,0.3c0,0,0,0.1,0,0.1c0,0.7-0.3,1.3-0.3,2c0,0.5-0.4,1-0.1,1.6
						c-0.3,0.3-0.2,0.7-0.3,1.1c-0.1,0.7-0.2,1.3-0.4,1.9c-0.2,0.5-0.7,0.8-1.2,0.8c-0.5,0-0.9,0-1.4,0c-0.2,0-0.4,0-0.5,0.2
						c-0.1,0.3-0.3,0.3-0.5,0.3c-0.9,0-1.7,0-2.6,0c-0.2,0-0.4,0-0.4-0.2c-0.1-0.3-0.4-0.4-0.7-0.4c-0.4,0-0.8,0-1.2,0
						c-0.8-0.1-1.4-0.6-1.5-1.4c-0.1-0.9-0.2-1.8-0.4-2.7c-0.2-1.1-0.4-2.1-0.5-3.2c-0.1-0.5-0.2-0.6-0.7-0.6c-0.2,0-0.4,0-0.6,0
						S0,29.7,0,29.4C0,29.1,0.2,29,0.5,29c0,0,0,0,0,0c0.5,0,1.1,0,1.6,0c0,0,0.1,0,0.1,0L13,29c0.1,0,0.1,0,0.2,0
						c0.1,0,0.2-0.1,0.2-0.2c-0.2-0.8-0.1-1.6-0.3-2.4c-0.2-0.6-0.4-1.3-0.5-1.9c0-0.5,0.1-1,0.2-1.4c0.2-0.9,0.4-1.8,0.6-2.8
						c0-0.2,0.1-0.2,0.3-0.2c0.6,0,1.2,0,1.8,0c0.1,1.7,0.3,3.3,0.3,4.9c0,0,0,0,0,0c0.1,1.1,0.2,2.2,0.2,3.3c0,0.4,0.1,0.6,0.6,0.5
						c0.1,0,0.3,0,0.4,0.1h3.2c2.5,0,5.1,0,7.6,0c0.4,0,0.5-0.1,0.5-0.5c0-0.8-0.1-1.5-0.3-2.3c-0.2-0.6-0.4-1.2-0.5-1.8
						c0.1-0.8,0.4-1.6,0.5-2.4c0.1-0.6,0.2-1.1,0.4-1.7c0-0.2,0.1-0.4,0.4-0.4c0.4,0,0.8,0,1.3,0c0.3,0,0.5,0.1,0.5,0.5
						c0,1.2,0.2,2.3,0.2,3.5c0,1.5,0.2,3,0.3,4.6c0,0.3,0.2,0.4,0.4,0.3c0.1-0.1,0.3-0.1,0.5,0l0,0c0,0,0.1,0.1,0.1,0.1l6.6,0h4.2
						C42.9,29,43.2,29,43.1,28.7"/>
					<path id="Path_11781-6" class="st11" d="M12.5,24.4c0.2,0.6,0.4,1.3,0.5,1.9c0.2,0.8,0.1,1.6,0.3,2.4c0,0.1,0,0.2-0.2,0.2
						c-0.1,0-0.1,0-0.2,0L2.2,29l-0.1-0.2c0-0.3,0-0.6,0-0.9c0.1,0,0.1-0.1,0.1-0.2l0-0.3l0-0.3c0.1-0.1,0.1-0.2,0.1-0.3
						c0-0.6,0.2-1.2,0.4-1.7c0.4-1.1,1-2.2,1.8-3.2c0.2-0.2,0.3-0.5,0.6-0.6C5.4,21.2,5.6,21,6,20.8c1-0.5,2.1-0.6,3.1-0.2
						c1.4,0.7,2.5,1.8,3.1,3.2C12.3,24,12.2,24.3,12.5,24.4"/>
					<path id="Path_11782-6" class="st11" d="M43.2,28.7c0,0.3-0.2,0.3-0.4,0.3h-4.2l-6.6,0l-0.1-0.1l0,0c0-0.2,0.1-0.3,0.1-0.5
						c0-0.9,0.1-1.8,0.4-2.6c0.1-0.5,0.3-0.9,0.4-1.3c0.2-0.1,0.3-0.3,0.3-0.5c0-0.1,0-0.2,0.1-0.3c0.4-0.7,0.9-1.3,1.4-2
						c0.9-1,2.3-1.4,3.7-1.2c0.6,0.2,1.2,0.4,1.7,0.7c0.6,0.5,1.1,1.1,1.6,1.8c0.6,1,1,2,1.3,3.1c0.1,0.4,0.1,0.9,0.3,1.3l0,0.4
						l0,0.1h0C43.1,28.2,43.1,28.4,43.2,28.7"/>
					<path id="Path_11783-6" class="st10" d="M43.1,27.8c0-0.1,0-0.3,0-0.4c0.1-0.2,0.2-0.4,0.4-0.5c0.8-0.8,1.2-1.9,1.3-3.1
						c0-6.1,0-12.2,0-18.3c0.1-1.7-0.8-3.2-2.1-4.1c-0.7-0.5-1.5-0.8-2.4-0.9c-5.7,0-11.4,0-17.2,0c-5.8,0-11.6,0-17.4,0
						c-1.5,0-3,0.6-4,1.8c-0.6,0.6-1,1.4-1.1,2.3c-0.1,0.7-0.1,1.3-0.1,2c0,4.9,0,9.8,0,14.7c0,1,0,1.9,0.1,2.9
						c0.1,1.2,0.7,2.4,1.7,3.2l0,0.3c-0.1,0-0.1,0.1-0.1,0.2c0,0,0,0,0,0c0,0.1,0,0.1-0.1,0.2c-0.6-0.3-1-0.8-1.3-1.4
						C0.2,25.6,0,24.6,0,23.6c0-6.2,0-12.3,0-18.5c0-2.3,1.5-4.3,3.7-5C4,0,4.3,0,4.6,0c12,0,23.9,0,35.9,0c1.7,0,3.2,0.9,4,2.4
						c0.5,0.9,0.8,2,0.8,3.1c0,6.2,0,12.4,0,18.6c0,1.5-0.8,2.9-1.9,3.8C43.2,27.9,43.2,27.9,43.1,27.8L43.1,27.8L43.1,27.8"/>
					<path id="Path_11784-6" class="st12" d="M13.2,33.7c-0.3-0.6,0.1-1.1,0.1-1.6c0-0.7,0.3-1.3,0.3-2c0-0.2,0.1-0.4,0.3-0.4
						c0,0,0.1,0,0.1,0c0.7,0,1.4,0,2.2,0c0.3,0,0.4,0.1,0.4,0.4c0.2,1.2,0.3,2.4,0.5,3.6L13.2,33.7"/>
					<path id="Path_11785-6" class="st12" d="M28,33.8c0.2-0.7,0.3-1.5,0.4-2.2c0.1-0.5,0.2-1,0.3-1.5c0-0.2,0.1-0.4,0.3-0.4
						c0,0,0.1,0,0.1,0c0.7,0,1.4,0,2.1,0c0.2,0,0.3,0,0.4,0.3c0.2,1.1,0.4,2.2,0.5,3.3c0,0.2,0.3,0.3,0.1,0.5
						c-0.1-0.1-0.2-0.1-0.3-0.1C30.5,33.8,29.3,33.8,28,33.8"/>
					<path id="Path_11786-6" class="st12" d="M2.1,28.8L2.2,29c0,0-0.1,0-0.1,0L2.1,28.8"/>
					<path id="Path_11787-6" class="st12" d="M32.7,24.4c-0.1,0.4-0.3,0.9-0.4,1.3c-0.3,0.8-0.4,1.7-0.4,2.6c0,0.2,0,0.3-0.1,0.5
						c-0.1-0.1-0.3-0.1-0.5,0c-0.3,0.1-0.4,0-0.4-0.3c-0.1-1.5-0.2-3-0.3-4.6c0-1.2-0.3-2.3-0.2-3.5c0-0.3-0.1-0.5-0.5-0.5
						c-0.4,0-0.8,0-1.3,0c-0.3,0-0.4,0.1-0.4,0.4c-0.1,0.6-0.2,1.1-0.4,1.7c-0.2,0.8-0.4,1.6-0.5,2.4c-0.5-1.1-1.2-2.1-2-2.9
						c-0.7-0.7-1.6-1.1-2.6-1.2c-1.2,0-2.3,0.5-3.1,1.4c-0.9,0.9-1.6,2.1-2,3.4c-0.5,1.2-0.7,2.6-0.6,3.9c-0.1-0.1-0.3-0.1-0.4-0.1
						c-0.4,0.1-0.5-0.1-0.6-0.5c0-1.1-0.2-2.2-0.2-3.3c0,0,0,0,0,0c0.1-1.7-0.2-3.3-0.3-4.9c0.1-0.1,0.2-0.1,0.3-0.1
						c0.3,0,0.5,0,0.8,0c0.1,0,0.3,0,0.3-0.2c0-0.1-0.2-0.1-0.3-0.1c-0.2,0-0.3,0-0.5,0c-0.4,0.1-0.5-0.1-0.5-0.5
						c0-4.3,0-8.6,0-12.9c0-0.1,0-0.1,0-0.2c0-0.2,0.1-0.3,0.3-0.3c0.6-0.1,1.2-0.1,1.8-0.1c0.3,0.1,0.7-0.2,0.7-0.5c0,0,0,0,0,0
						h20.2C39.4,5,40,5.6,40.1,6.3c0,0.1,0,0.1,0,0.2c0,4.5,0,9,0,13.5c0,0.3,0,0.7,0.1,1c0.1,0.2-0.1,0.2-0.2,0.2
						c-0.5-0.3-1.1-0.6-1.7-0.7c-1.4-0.2-2.7,0.2-3.7,1.2c-0.5,0.6-1,1.3-1.4,2c0,0.1-0.1,0.2-0.1,0.3
						C32.6,23.9,32.7,24.2,32.7,24.4"/>
					<path id="Path_11788-6" class="st13" d="M18.4,5.1c-0.1,0.3-0.4,0.6-0.7,0.5c0,0,0,0,0,0c-0.6,0-1.2,0-1.8,0.1
						c-0.2,0-0.4,0.1-0.3,0.3c0,0.1,0,0.1,0,0.2c0,4.3,0,8.6,0,12.9c0,0.4,0.1,0.6,0.5,0.5c0.2,0,0.3,0,0.5,0c0.1,0,0.3,0,0.3,0.1
						c0,0.2-0.2,0.2-0.3,0.2c-0.3,0-0.5,0-0.8,0c-0.1,0-0.2,0-0.3,0.1c-0.6,0-1.2,0-1.8,0c-0.2,0-0.3,0-0.3,0.2
						c-0.2,0.9-0.4,1.8-0.6,2.8c-0.1,0.5-0.2,0.9-0.2,1.4c-0.3-0.1-0.2-0.4-0.3-0.6c-0.6-1.4-1.7-2.5-3.1-3.2
						c-1-0.4-2.2-0.3-3.1,0.2c-0.3,0.2-0.6,0.4-0.9,0.6c0-4.9,0-9.9,0-14.8C5,5.8,5.7,5.1,6.5,5c0,0,0,0,0.1,0
						C10.5,5.1,14.5,5.1,18.4,5.1"/>
					<path id="Path_11789-6" class="st11" d="M17,29c0-1.3,0.2-2.6,0.6-3.9c0.4-1.3,1.1-2.4,2-3.4c0.8-0.9,1.9-1.4,3.1-1.4
						c1,0.1,1.9,0.5,2.6,1.2c0.8,0.8,1.5,1.8,2,2.9c0.1,0.6,0.3,1.2,0.5,1.8c0.2,0.7,0.3,1.5,0.3,2.3c0,0.4-0.1,0.5-0.5,0.5
						c-2.5,0-5.1,0-7.6,0L17,29"/>
					<path id="Path_11790-6" class="st12" d="M31.8,28.9L31.8,28.9L31.8,28.9"/>
					<path id="Path_11791-6" class="st12" d="M18.4,5.1c-4,0-7.9,0-11.9,0C5.8,5,5.1,5.7,5,6.5c0,0,0,0,0,0.1c0,4.9,0,9.9,0,14.8
						c-0.3,0.1-0.5,0.4-0.6,0.6c-0.8,1-1.4,2-1.8,3.2c-0.2,0.5-0.3,1.1-0.4,1.7c0,0.1,0,0.2-0.1,0.3c-0.9-0.8-1.5-1.9-1.7-3.2
						c-0.1-1-0.1-1.9-0.1-2.9c0-4.9,0-9.8,0-14.7c0-0.7,0-1.3,0.1-2c0.2-0.8,0.5-1.6,1.1-2.3c1-1.2,2.5-1.8,4-1.8
						c5.8,0,11.6,0,17.4,0c0.1,0.3,0.1,0.6,0,0.9c0,1,0,1.9,0,2.9c0,0.5-0.1,0.6-0.6,0.6c-0.2,0-0.5-0.2-0.6,0.2L18.4,5.1"/>
					<path id="Path_11792-6" class="st12" d="M2.2,27.7c-0.1,0-0.1-0.1,0-0.2c0,0,0,0,0,0L2.2,27.7"/>
					<path id="Path_11793-6" class="st13" d="M21.9,5.1c0.1-0.3,0.4-0.2,0.6-0.2C23,4.9,23,4.8,23,4.3c0-1,0-1.9,0-2.9
						c0.1-0.3,0.1-0.6,0-0.9c5.7,0,11.4,0,17.2,0c0.9,0,1.7,0.4,2.4,0.9c1.4,0.9,2.2,2.5,2.1,4.1c0,6.1,0,12.2,0,18.3
						c0,1.1-0.5,2.2-1.3,3.1c-0.1,0.2-0.3,0.3-0.4,0.5c-0.1-0.4-0.2-0.9-0.3-1.3C42.5,25,42,24,41.5,23c-0.4-0.7-1-1.3-1.6-1.8
						c0.1,0,0.3,0,0.2-0.2c-0.1-0.3-0.1-0.7-0.1-1c0-4.5,0-9,0-13.5c0.1-0.7-0.5-1.4-1.2-1.5c-0.1,0-0.1,0-0.2,0L21.9,5.1"/>
					<path id="Path_11794-6" class="st13" d="M32.7,24.4c0-0.2-0.1-0.6,0.3-0.5C33,24.1,32.9,24.3,32.7,24.4"/>
					<path id="Path_11795-6" class="st13" d="M43.1,27.8L43.1,27.8L43.1,27.8"/>
				</g>
			</g>
		</g>
	</g>
	
		<rect id="Rectangle_312" x="1503.4" y="7775.6" transform="matrix(1.745241e-02 -0.9998 0.9998 1.745241e-02 -6405.0698 9353.2725)" class="st7" width="106" height="320"/>
	<g class="st20">
		<path class="st2" d="M1501.1,7924.7l-5.1-5.9c-0.1-0.1-0.2-0.2-0.3-0.2s-0.1,0.1-0.1,0.3l-0.1,5.5c0,0.2-0.1,0.3-0.2,0.5
			c-0.1,0.1-0.3,0.2-0.5,0.2l-4-0.1c-0.2,0-0.4-0.1-0.5-0.2c-0.1-0.1-0.2-0.3-0.2-0.5l0.3-18.5c0-0.2,0.1-0.3,0.2-0.5
			c0.1-0.1,0.3-0.2,0.5-0.2l4,0.1c0.2,0,0.3,0.1,0.5,0.2c0.1,0.1,0.2,0.3,0.2,0.5l-0.1,6.2c0,0.2,0,0.3,0.1,0.3c0.1,0,0.2,0,0.3-0.2
			l5-6.4c0.1-0.1,0.3-0.3,0.5-0.4c0.2-0.1,0.4-0.1,0.6-0.1l5.2,0.1c0.2,0,0.3,0.1,0.4,0.3c0.1,0.2,0,0.3-0.1,0.5l-7.3,8.8
			c-0.1,0.1-0.2,0.3-0.2,0.5s0.1,0.3,0.2,0.5c0.6,0.7,1.2,1.4,1.9,2.1s1.3,1.5,2,2.2c0.7,0.7,1.3,1.5,2,2.2c0.6,0.7,1.3,1.4,1.8,2
			c0.1,0.1,0.2,0.3,0.1,0.5c0,0.2-0.2,0.3-0.4,0.3l-5.6-0.1c-0.2,0-0.4-0.1-0.6-0.1C1501.4,7924.9,1501.2,7924.8,1501.1,7924.7z"/>
		<path class="st2" d="M1514.8,7925.4l-4.1-0.1c-0.2,0-0.4-0.1-0.5-0.2c-0.1-0.1-0.2-0.3-0.2-0.5l0.3-18.4c0-0.2,0.1-0.3,0.2-0.5
			c0.1-0.1,0.3-0.2,0.5-0.2l4.1,0.1c0.2,0,0.3,0.1,0.5,0.2c0.1,0.1,0.2,0.3,0.2,0.5l-0.3,18.4c0,0.2-0.1,0.3-0.2,0.5
			C1515.1,7925.3,1515,7925.4,1514.8,7925.4z"/>
		<path class="st2" d="M1527.5,7920.3l-2.4,0c-0.2,0-0.3,0.1-0.5,0.2c-0.1,0.1-0.2,0.3-0.2,0.5l-0.1,4c0,0.2-0.1,0.3-0.2,0.5
			c-0.1,0.1-0.3,0.2-0.5,0.2l-4.1-0.1c-0.2,0-0.3-0.1-0.5-0.2c-0.1-0.1-0.2-0.3-0.2-0.5l0.3-18.5c0-0.2,0.1-0.3,0.2-0.5
			c0.1-0.1,0.3-0.2,0.5-0.2l8.3,0.1c1,0,2,0.2,2.8,0.6c0.9,0.4,1.6,0.9,2.3,1.6c0.6,0.7,1.2,1.5,1.5,2.3c0.4,0.9,0.5,1.8,0.5,2.8
			s-0.2,1.9-0.5,2.8c-0.3,0.9-0.8,1.6-1.5,2.2c-0.7,0.6-1.5,1.1-2.5,1.5C1529.9,7920.2,1528.8,7920.3,1527.5,7920.3z M1527.8,7910.8
			l-2.5,0c-0.2,0-0.3,0.1-0.5,0.2c-0.1,0.1-0.2,0.3-0.2,0.5l-0.1,3.2c0,0.2,0.1,0.3,0.2,0.5c0.1,0.1,0.3,0.2,0.5,0.2l2.9,0.1
			c0.7,0,1.2-0.2,1.5-0.6c0.3-0.4,0.5-0.9,0.5-1.5c0-0.3,0-0.6-0.1-0.8s-0.2-0.5-0.4-0.7c-0.2-0.2-0.4-0.4-0.7-0.5
			S1528.2,7910.8,1527.8,7910.8z"/>
		<path class="st2" d="M1539.7,7919.1c1,0.6,1.9,1.2,2.9,1.5c0.9,0.4,1.8,0.6,2.7,0.6c0.8,0,1.4-0.1,1.8-0.3c0.4-0.2,0.6-0.6,0.6-1
			c0-0.2-0.1-0.4-0.3-0.6c-0.2-0.1-0.4-0.3-0.7-0.4c-0.3-0.1-0.6-0.2-1-0.2c-0.4-0.1-0.8-0.1-1.2-0.2c-0.4-0.1-0.9-0.2-1.4-0.3
			c-0.5-0.1-1.1-0.3-1.6-0.5c-0.6-0.2-1.1-0.4-1.6-0.7c-0.5-0.3-1-0.7-1.5-1.1c-0.4-0.5-0.8-1-1-1.6c-0.3-0.6-0.4-1.4-0.4-2.2
			c0-1.2,0.3-2.3,0.8-3.1c0.5-0.8,1.1-1.4,1.9-1.9c0.8-0.5,1.6-0.8,2.5-1c0.9-0.2,1.8-0.3,2.7-0.2c1.5,0,2.9,0.3,4.1,0.7
			c1.2,0.5,2.3,1.1,3.4,2c0.1,0.1,0.2,0.3,0.2,0.5c0,0.2,0,0.3-0.1,0.5l-2.2,3c-0.1,0.1-0.3,0.2-0.4,0.3c-0.2,0-0.3,0-0.5-0.1
			c-0.9-0.6-1.8-1-2.5-1.3c-0.8-0.3-1.5-0.4-2.2-0.4c-0.2,0-0.4,0-0.7,0c-0.3,0-0.5,0-0.7,0.1c-0.2,0.1-0.4,0.2-0.6,0.3
			c-0.2,0.1-0.2,0.3-0.2,0.6c0,0.3,0.2,0.5,0.6,0.7c0.4,0.2,0.8,0.4,1.3,0.5c0.5,0.2,0.9,0.3,1.4,0.4c0.4,0.1,0.7,0.1,0.9,0.2
			c0.6,0.1,1.4,0.3,2.1,0.6c0.8,0.3,1.5,0.6,2.2,1.1c0.7,0.5,1.2,1.1,1.7,1.9c0.4,0.8,0.7,1.7,0.6,2.9c0,1.1-0.2,2-0.6,2.8
			c-0.4,0.8-0.9,1.4-1.6,1.9c-0.7,0.5-1.5,0.9-2.4,1.1c-0.9,0.2-2,0.3-3.2,0.3c-0.9,0-1.8-0.1-2.6-0.3c-0.8-0.2-1.6-0.4-2.3-0.7
			c-0.7-0.3-1.3-0.6-1.9-1c-0.6-0.4-1.1-0.8-1.6-1.2c-0.1-0.1-0.2-0.3-0.2-0.4c0-0.2,0-0.4,0.1-0.5l2.1-3c0.1-0.1,0.3-0.2,0.4-0.3
			C1539.4,7918.9,1539.6,7919,1539.7,7919.1z"/>
		<path class="st2" d="M1568.4,7911.5l-3.8-0.1c-0.2,0-0.3,0.1-0.5,0.2c-0.1,0.1-0.2,0.3-0.2,0.5l-0.2,13.5c0,0.2-0.1,0.3-0.2,0.5
			c-0.1,0.1-0.3,0.2-0.5,0.2l-4-0.1c-0.2,0-0.3-0.1-0.5-0.2c-0.1-0.1-0.2-0.3-0.2-0.5l0.2-13.5c0-0.2-0.1-0.3-0.2-0.5
			c-0.1-0.1-0.3-0.2-0.5-0.2l-3.8-0.1c-0.2,0-0.3-0.1-0.5-0.2c-0.1-0.1-0.2-0.3-0.2-0.5l0.1-3.7c0-0.2,0.1-0.3,0.2-0.5
			c0.1-0.1,0.3-0.2,0.5-0.2l14.3,0.2c0.2,0,0.4,0.1,0.5,0.2c0.1,0.1,0.2,0.3,0.2,0.5l-0.1,3.7c0,0.2-0.1,0.3-0.2,0.5
			C1568.7,7911.5,1568.6,7911.5,1568.4,7911.5z"/>
		<path class="st2" d="M1576.4,7912.3l0,1.1c0,0.2,0.1,0.3,0.2,0.5c0.1,0.1,0.3,0.2,0.5,0.2l7.3,0.1c0.2,0,0.3,0.1,0.5,0.2
			c0.1,0.1,0.2,0.3,0.2,0.5l-0.1,3.7c0,0.2-0.1,0.3-0.2,0.5c-0.1,0.1-0.3,0.2-0.5,0.2l-7.3-0.1c-0.2,0-0.3,0.1-0.5,0.2
			c-0.1,0.1-0.2,0.3-0.2,0.5l0,1c0,0.2,0.1,0.3,0.2,0.5c0.1,0.1,0.3,0.2,0.5,0.2l8.4,0.1c0.2,0,0.3,0.1,0.5,0.2
			c0.1,0.1,0.2,0.3,0.2,0.5l-0.1,3.7c0,0.2-0.1,0.3-0.2,0.5c-0.1,0.1-0.3,0.2-0.5,0.2l-13.7-0.2c-0.2,0-0.3-0.1-0.5-0.2
			c-0.1-0.1-0.2-0.3-0.2-0.5l0.3-18.5c0-0.2,0.1-0.3,0.2-0.5s0.3-0.2,0.5-0.2l13.7,0.2c0.2,0,0.3,0.1,0.5,0.2s0.2,0.3,0.2,0.5
			l-0.1,3.7c0,0.2-0.1,0.3-0.2,0.5c-0.1,0.1-0.3,0.2-0.5,0.2l-8.4-0.1c-0.2,0-0.3,0.1-0.5,0.2
			C1576.5,7912,1576.4,7912.1,1576.4,7912.3z"/>
		<path class="st2" d="M1594,7926.8l-4-0.1c-0.2,0-0.3-0.1-0.5-0.2c-0.1-0.1-0.2-0.3-0.2-0.5l0.3-18.5c0-0.2,0.1-0.3,0.2-0.5
			c0.1-0.1,0.3-0.2,0.5-0.2l8.4,0.1c1,0,2,0.2,2.9,0.6s1.6,0.9,2.2,1.5c0.6,0.6,1.1,1.4,1.4,2.3c0.3,0.9,0.5,1.8,0.5,2.9
			c0,0.6-0.1,1.1-0.2,1.7c-0.1,0.6-0.3,1.1-0.6,1.6c-0.3,0.5-0.6,0.9-0.9,1.3s-0.7,0.7-1.2,1c-0.1,0.1-0.2,0.2-0.3,0.4
			c0,0.2,0,0.3,0.1,0.4c0.7,0.9,1.4,1.9,2.1,2.8c0.7,1,1.4,1.9,2,2.7c0.1,0.1,0.1,0.3,0.1,0.5c-0.1,0.2-0.2,0.3-0.4,0.3l-5-0.1
			c-0.2,0-0.4-0.1-0.6-0.2s-0.4-0.2-0.5-0.4c-0.6-0.8-1.1-1.5-1.7-2.3s-1.1-1.6-1.6-2.4c-0.1-0.1-0.3-0.3-0.5-0.4s-0.4-0.2-0.6-0.2
			l-0.6,0c-0.2,0-0.3,0.1-0.5,0.2c-0.1,0.1-0.2,0.3-0.2,0.5l-0.1,4.4c0,0.2-0.1,0.3-0.2,0.5
			C1594.3,7926.7,1594.2,7926.8,1594,7926.8z M1595.5,7916.2l2.8,0c0.2,0,0.4,0,0.7-0.1c0.2-0.1,0.5-0.2,0.7-0.4s0.4-0.4,0.5-0.6
			c0.1-0.2,0.2-0.5,0.2-0.9c0-0.2,0-0.4-0.1-0.6c-0.1-0.2-0.2-0.5-0.3-0.7c-0.1-0.2-0.4-0.4-0.6-0.6c-0.3-0.2-0.6-0.2-0.9-0.2
			l-2.8,0c-0.2,0-0.3,0.1-0.5,0.2c-0.1,0.1-0.2,0.3-0.2,0.5l0,2.9c0,0.2,0.1,0.3,0.2,0.5C1595.1,7916.1,1595.3,7916.2,1595.5,7916.2
			z"/>
	</g>
	<g class="st20">
		<path class="st2" d="M1505.7,7943.1l0,1.1c0,0.2,0.1,0.3,0.2,0.5c0.1,0.1,0.3,0.2,0.5,0.2l7.3,0.1c0.2,0,0.3,0.1,0.5,0.2
			c0.1,0.1,0.2,0.3,0.2,0.5l-0.1,3.7c0,0.2-0.1,0.3-0.2,0.5c-0.1,0.1-0.3,0.2-0.5,0.2l-7.3-0.1c-0.2,0-0.3,0.1-0.5,0.2
			c-0.1,0.1-0.2,0.3-0.2,0.5l0,1c0,0.2,0.1,0.3,0.2,0.5c0.1,0.1,0.3,0.2,0.5,0.2l8.4,0.1c0.2,0,0.3,0.1,0.5,0.2
			c0.1,0.1,0.2,0.3,0.2,0.5l-0.1,3.7c0,0.2-0.1,0.3-0.2,0.5c-0.1,0.1-0.3,0.2-0.5,0.2l-13.7-0.2c-0.2,0-0.3-0.1-0.5-0.2
			c-0.1-0.1-0.2-0.3-0.2-0.5l0.3-18.5c0-0.2,0.1-0.3,0.2-0.5c0.1-0.1,0.3-0.2,0.5-0.2l13.7,0.2c0.2,0,0.3,0.1,0.5,0.2
			c0.1,0.1,0.2,0.3,0.2,0.5l-0.1,3.7c0,0.2-0.1,0.3-0.2,0.5c-0.1,0.1-0.3,0.2-0.5,0.2l-8.4-0.1c-0.2,0-0.3,0.1-0.5,0.2
			C1505.8,7942.8,1505.7,7942.9,1505.7,7943.1z"/>
		<path class="st2" d="M1523.5,7957.6l-4.1-0.1c-0.2,0-0.4-0.1-0.5-0.2c-0.1-0.1-0.2-0.3-0.2-0.5l0.3-18.4c0-0.2,0.1-0.3,0.2-0.5
			c0.1-0.1,0.3-0.2,0.5-0.2l4.1,0.1c0.2,0,0.3,0.1,0.5,0.2c0.1,0.1,0.2,0.3,0.2,0.5l-0.3,18.4c0,0.2-0.1,0.3-0.2,0.5
			C1523.8,7957.5,1523.7,7957.6,1523.5,7957.6z"/>
		<path class="st2" d="M1533.3,7943.6l0,1.1c0,0.2,0.1,0.3,0.2,0.5c0.1,0.1,0.3,0.2,0.5,0.2l7.3,0.1c0.2,0,0.3,0.1,0.5,0.2
			c0.1,0.1,0.2,0.3,0.2,0.5l-0.1,3.7c0,0.2-0.1,0.3-0.2,0.5c-0.1,0.1-0.3,0.2-0.5,0.2l-7.3-0.1c-0.2,0-0.3,0.1-0.5,0.2
			c-0.1,0.1-0.2,0.3-0.2,0.5l0,1c0,0.2,0.1,0.3,0.2,0.5c0.1,0.1,0.3,0.2,0.5,0.2l8.4,0.1c0.2,0,0.3,0.1,0.5,0.2
			c0.1,0.1,0.2,0.3,0.2,0.5l-0.1,3.7c0,0.2-0.1,0.3-0.2,0.5c-0.1,0.1-0.3,0.2-0.5,0.2l-13.7-0.2c-0.2,0-0.3-0.1-0.5-0.2
			c-0.1-0.1-0.2-0.3-0.2-0.5l0.3-18.5c0-0.2,0.1-0.3,0.2-0.5c0.1-0.1,0.3-0.2,0.5-0.2l13.7,0.2c0.2,0,0.3,0.1,0.5,0.2
			c0.1,0.1,0.2,0.3,0.2,0.5l-0.1,3.7c0,0.2-0.1,0.3-0.2,0.5c-0.1,0.1-0.3,0.2-0.5,0.2l-8.4-0.1c-0.2,0-0.3,0.1-0.5,0.2
			C1533.4,7943.3,1533.3,7943.4,1533.3,7943.6z"/>
		<path class="st2" d="M1550.9,7958l-4-0.1c-0.2,0-0.3-0.1-0.5-0.2c-0.1-0.1-0.2-0.3-0.2-0.5l0.3-18.5c0-0.2,0.1-0.3,0.2-0.5
			c0.1-0.1,0.3-0.2,0.5-0.2l8.4,0.1c1,0,2,0.2,2.9,0.6c0.9,0.4,1.6,0.9,2.2,1.5s1.1,1.4,1.4,2.3c0.3,0.9,0.5,1.8,0.5,2.9
			c0,0.6-0.1,1.1-0.2,1.7c-0.1,0.6-0.3,1.1-0.6,1.6s-0.6,0.9-0.9,1.3c-0.3,0.4-0.7,0.7-1.2,1c-0.1,0.1-0.2,0.2-0.3,0.4
			c0,0.2,0,0.3,0.1,0.4c0.7,0.9,1.4,1.9,2.1,2.8c0.7,1,1.4,1.9,2,2.7c0.1,0.1,0.1,0.3,0.1,0.5c-0.1,0.2-0.2,0.3-0.4,0.2l-5-0.1
			c-0.2,0-0.4-0.1-0.6-0.2c-0.2-0.1-0.4-0.2-0.5-0.4c-0.6-0.8-1.1-1.5-1.7-2.3c-0.6-0.8-1.1-1.6-1.6-2.4c-0.1-0.1-0.3-0.3-0.5-0.4
			c-0.2-0.1-0.4-0.2-0.6-0.2l-0.6,0c-0.2,0-0.3,0.1-0.5,0.2c-0.1,0.1-0.2,0.3-0.2,0.5l-0.1,4.4c0,0.2-0.1,0.3-0.2,0.5
			C1551.3,7958,1551.1,7958,1550.9,7958z M1552.4,7947.4l2.8,0c0.2,0,0.4,0,0.7-0.1c0.2-0.1,0.5-0.2,0.7-0.4s0.4-0.4,0.5-0.6
			c0.1-0.2,0.2-0.5,0.2-0.9c0-0.2,0-0.4-0.1-0.6c-0.1-0.2-0.2-0.5-0.3-0.7c-0.1-0.2-0.4-0.4-0.6-0.6c-0.3-0.2-0.6-0.2-0.9-0.2
			l-2.8,0c-0.2,0-0.3,0.1-0.5,0.2c-0.1,0.1-0.2,0.3-0.2,0.5l0,2.9c0,0.2,0.1,0.3,0.2,0.5C1552.1,7947.4,1552.2,7947.4,1552.4,7947.4
			z"/>
		<path class="st2" d="M1571.2,7944.2l0,1.1c0,0.2,0.1,0.3,0.2,0.5c0.1,0.1,0.3,0.2,0.5,0.2l7.3,0.1c0.2,0,0.3,0.1,0.5,0.2
			c0.1,0.1,0.2,0.3,0.2,0.5l-0.1,3.7c0,0.2-0.1,0.3-0.2,0.5c-0.1,0.1-0.3,0.2-0.5,0.2l-7.3-0.1c-0.2,0-0.3,0.1-0.5,0.2
			c-0.1,0.1-0.2,0.3-0.2,0.5l0,1c0,0.2,0.1,0.3,0.2,0.5s0.3,0.2,0.5,0.2l8.4,0.1c0.2,0,0.3,0.1,0.5,0.2c0.1,0.1,0.2,0.3,0.2,0.5
			l-0.1,3.7c0,0.2-0.1,0.3-0.2,0.5c-0.1,0.1-0.3,0.2-0.5,0.2l-13.7-0.2c-0.2,0-0.3-0.1-0.5-0.2c-0.1-0.1-0.2-0.3-0.2-0.5l0.3-18.5
			c0-0.2,0.1-0.3,0.2-0.5c0.1-0.1,0.3-0.2,0.5-0.2l13.7,0.2c0.2,0,0.3,0.1,0.5,0.2c0.1,0.1,0.2,0.3,0.2,0.5l-0.1,3.7
			c0,0.2-0.1,0.3-0.2,0.5c-0.1,0.1-0.3,0.2-0.5,0.2l-8.4-0.1c-0.2,0-0.3,0.1-0.5,0.2C1571.3,7943.9,1571.2,7944.1,1571.2,7944.2z"/>
		<path class="st2" d="M1603,7939.8l-0.3,18.5c0,0.2-0.1,0.3-0.2,0.5c-0.1,0.1-0.3,0.2-0.5,0.2l-4-0.1c-0.2,0-0.4-0.1-0.6-0.2
			c-0.2-0.1-0.3-0.2-0.5-0.4l-6.9-10c-0.1-0.1-0.2-0.2-0.3-0.2c-0.1,0-0.2,0.1-0.2,0.3l-0.2,9.7c0,0.2-0.1,0.3-0.2,0.5
			c-0.1,0.1-0.3,0.2-0.5,0.2l-4-0.1c-0.2,0-0.3-0.1-0.5-0.2c-0.1-0.1-0.2-0.3-0.2-0.5l0.3-18.5c0-0.2,0.1-0.3,0.2-0.5
			c0.1-0.1,0.3-0.2,0.5-0.2l4,0.1c0.2,0,0.4,0.1,0.6,0.2c0.2,0.1,0.3,0.2,0.5,0.4l6.8,10c0.1,0.1,0.2,0.2,0.3,0.2
			c0.1,0,0.2-0.1,0.2-0.3l0.2-9.7c0-0.2,0.1-0.3,0.2-0.5c0.1-0.1,0.3-0.2,0.5-0.2l4,0.1c0.2,0,0.3,0.1,0.5,0.2
			C1602.9,7939.5,1603,7939.6,1603,7939.8z"/>
	</g>
</g>
</svg>
