<?xml version="1.0" encoding="UTF-8"?>
<svg id="Laag_2" data-name="Laag 2" xmlns="http://www.w3.org/2000/svg" xmlns:xlink="http://www.w3.org/1999/xlink" viewBox="0 0 126.56 126.77">
  <defs>
    <style>
      .cls-1 {
        fill: none;
      }

      .cls-2 {
        clip-path: url(#clippath);
      }

      .cls-3 {
        fill: #ed9254;
      }

      .cls-4 {
        fill: #fcdcc4;
      }

      .cls-5 {
        fill: #efe7db;
      }

      .cls-6 {
        fill: #c1b4a1;
      }

      .cls-7 {
        fill: #dbcebb;
      }

      .cls-8 {
        fill: #d9544e;
      }

      .cls-9 {
        fill: #ada08e;
      }

      .cls-10 {
        fill: #c5b8a5;
      }

      .cls-11 {
        fill: #429775;
      }

      .cls-12 {
        fill: #4159a5;
      }

      .cls-13 {
        fill: #483715;
      }

      .cls-14 {
        clip-path: url(#clippath-1);
      }

      .cls-15 {
        clip-path: url(#clippath-4);
      }

      .cls-16 {
        clip-path: url(#clippath-3);
      }

      .cls-17 {
        clip-path: url(#clippath-2);
      }

      .cls-18 {
        clip-path: url(#clippath-7);
      }

      .cls-19 {
        clip-path: url(#clippath-8);
      }

      .cls-20 {
        clip-path: url(#clippath-6);
      }

      .cls-21 {
        clip-path: url(#clippath-5);
      }

      .cls-22 {
        isolation: isolate;
      }
    </style>
    <clipPath id="clippath">
      <rect class="cls-1" y="5.6" width="126.56" height="121.17"/>
    </clipPath>
    <clipPath id="clippath-1">
      <rect class="cls-1" x="24.03" y="8.17" width="78.49" height="7.92"/>
    </clipPath>
    <clipPath id="clippath-2">
      <rect class="cls-1" x="54.99" y="67.42" width="18.87" height="26.92"/>
    </clipPath>
    <clipPath id="clippath-3">
      <rect class="cls-1" x="14.18" y="86.24" width="9.26" height="8.1"/>
    </clipPath>
    <clipPath id="clippath-4">
      <rect class="cls-1" x="24.49" y="86.24" width="9.26" height="8.1"/>
    </clipPath>
    <clipPath id="clippath-5">
      <rect class="cls-1" x="34.81" y="86.24" width="9.26" height="8.1"/>
    </clipPath>
    <clipPath id="clippath-6">
      <rect class="cls-1" x="81.22" y="86.24" width="9.26" height="8.1"/>
    </clipPath>
    <clipPath id="clippath-7">
      <rect class="cls-1" x="101.85" y="86.24" width="9.26" height="8.1"/>
    </clipPath>
    <clipPath id="clippath-8">
      <rect class="cls-1" x="91.53" y="86.24" width="9.26" height="8.1"/>
    </clipPath>
  </defs>
  <g id="Laag_1-2" data-name="Laag 1">
    <g id="Group_906" data-name="Group 906">
      <g id="Group_889" data-name="Group 889">
        <g id="Group_384" data-name="Group 384">
          <g class="cls-2">
            <g id="Group_376" data-name="Group 376">
              <path id="Path_11592" data-name="Path 11592" class="cls-12" d="m24.35,6.81s-2.72,1.49-3.38,3.79c-.66,2.3-1.19,6.68-1.19,6.68,0,0-.53,3.28-1.27,4.94s-5.78,11.87-5.78,11.87l-4.81,8.84-4.37,7.94S-.74,56.68.11,62.56c0,0,1.4,6.65,3,7.71s2.49,1.59,2.78,1.91c.56.63.89,1.43.94,2.27.04,1.1.11,4.58.11,4.58v10.02s-.05,2.54-1.34,2.81-3.08.22-3.19,2.04.03,6.68.11,7.06.26,1.68,1.1,2.28,2.13,1.2,2.37,1.42.98,1.08,1.1,1.83.17,2.4.17,2.4c0,0-.06,4.91,0,5.83.06.92.2,3.09.2,3.09,0,0-.08,3.48-1.24,4.43s-1.72,1.29-2.64,1.52-1.53.27-1.61,1.16c-.04.61-.05,1.23,0,1.84l41.87-.38,54.5-.56,28.1-.33s-.15-1.48-3.36-2.63l-1.27-.45s-1.43-.38-.9-2.84c.19-1.49.18-3-.05-4.48-.37-2.58-.8-5.73-.62-6.92s.23-2.61,2-4.37c.49-.41,1-.79,1.53-1.13.47-.26.83-.32.77-1.93,0,0-.23-.51-.12-2.21s.17-3.05.17-3.05c0,0,.03-2.22-.64-3.33-.4-.66-.99-1.18-1.71-1.47l-1.24-.41s-.96-.12-1.19-1.56-.13-4.83-.13-4.83c0,0,.03-4.59-.03-5.7s-.13-2.33-.13-2.33c0,0-.07-2.33.48-3.39s.87-1.72,2.49-3.11c1.13-1.03,2.07-2.24,2.8-3.59,0,0,1.1-1.8,1.28-5.08,0,0,.18-4.56-2.31-8.22l-3.71-6.93-4.02-7.92-3.69-7.07s-4.46-7.7-5.17-8.77-3.04-4.36-3.02-6.5.1-3.16.1-3.16c0,0,.92-3.59-2.13-5.54,0,0-1.52-1.01-5.13-.98s-9.68.07-9.68.07l-13.88.12-14.56.15-15.62.19-14.86.2s-2.27-.19-3.4.15l-1.13.34Z"/>
              <path id="Path_11593" data-name="Path 11593" class="cls-5" d="m23.73,20.6s-.53-1.1-1.9,1.67-3.28,6.74-3.28,6.74l-3.79,7.77-5.18,10.55-2.43,4.94-1.36,2.78s1.91,1.06,3.61.88,2.97-.32,4.65-2.78c.69-1.4,1.3-2.84,1.82-4.31.69-2.05,2.83-8.07,2.83-8.07l1.66-4.44,1.63-4.32,1.09-2.92,1.35-3.71.79-2.37s.21-1.34-.33-1.78c-.34-.27-.74-.48-1.15-.62"/>
              <path id="Path_11594" data-name="Path 11594" class="cls-5" d="m19.42,48.69l2.65-7.53,4.65-13.55,1.13-3.46s1.32-3.6,2.55-3.6c1.23,0,2.12.1,2.62.69s.76.8.75,1.82-.72,3.16-.72,3.16l-.86,2.84-.6,1.77-.98,4.2-1.16,4.73-1.31,5.18-.73,2.83-1.04,3.97-.76,2.35s-.32,1.22-1.19,1.58-2.69.27-2.69.27c0,0-2.39-.33-2.74-.5s-1.67-.25-1.07-2.23"/>
              <path id="Path_11595" data-name="Path 11595" class="cls-5" d="m30.33,48.05l1.06-3.96,1.45-5.4,2.31-9.3,1.56-6.48s.97-3.06,3.66-2.52c2.7.54,3.26,1.89,2.8,3.45-.46,1.56-1.51,7.05-1.51,7.05l-1.05,5.49-1,5.54-.64,3.99-.55,4.14s-.4,4.97-1.46,5.26-4.82.42-4.82.42c0,0-3.6,1.25-2.91-2.49"/>
              <path id="Path_11596" data-name="Path 11596" class="cls-5" d="m46.26,22.52l-2.03,11.65-1.34,7.5-1.05,5.25-.92,4.52s-.08,3.33.85,3.87c.93.54,4.06.43,4.06.43,0,0,2.56.65,3.17-.43s1.04-3.47,1.24-6.84,1.15-13.86,1.15-13.86l.58-5.43.72-4.8s.53-3.58-1.22-3.79-2.69-.33-2.69-.33c0,0-1.95.31-2.52,2.25"/>
              <path id="Path_11597" data-name="Path 11597" class="cls-5" d="m56.89,20.6s-1.2,1.54-1.5,5.19-.67,7.75-.67,7.75l-.71,7.46-.72,7.35s-1.31,6.16,1.66,6.82c0,0,1.92,1.11,3.2.68s2.17-1.03,3.19-3.15.54-5.22.54-5.22v-9.18s-.13-10.69-.13-10.69c0,0,.35-5.2-.55-6.39,0,0-.65-.82-1.3-.88-.59-.04-1.18-.04-1.77,0l-1.22.27Z"/>
              <path id="Path_11598" data-name="Path 11598" class="cls-5" d="m66.54,20.34c-1,.37-1.65,1.34-1.63,2.41,0,1.88.04,4.76.04,4.76l.04,3.9.11,7.03.04,3.38v2.83s-.02,3.1-.02,3.1l-.05,2.44s0,2.27.2,2.94.55,1.77,1.28,2.11,2.01.71,2.56.69,2.42.11,2.68-.22,1.04-.95,1.22-1.8.46-3.11.29-4.38-1.14-8.61-1.14-8.61l-.76-6.4-.42-4.24-.28-3.63-.25-3.2s-.41-2.53-1.34-3.11-1.99-.16-1.99-.16l-.57.16Z"/>
              <path id="Path_11599" data-name="Path 11599" class="cls-5" d="m73.55,25.08s-.75-2.8-.47-3.52.73-1.32,1.28-1.28,3.19-.3,3.19-.3c0,0,1.13-.63,1.63.95.5,1.58,1.76,8.28,1.76,8.28l1.59,7.91,1.4,8.21.91,5.45s.76,4.14-.35,4.58-3.49.58-3.49.58h-2c-.89-.58-1.52-1.48-1.78-2.51-.48-1.79-1.68-9.2-1.68-9.2l-.76-7.46-.86-7.6-.35-4.09Z"/>
              <path id="Path_11600" data-name="Path 11600" class="cls-5" d="m83.9,20.27s-1.69.18-.87,3.19c.81,3.01,1.69,8.22,1.69,8.22l1.23,6.96.88,4.94.65,3.72.73,4.21s.72,4.65,3.4,4.42c1.68-.16,3.34-.45,4.98-.88,0,0,1.37-.8.26-4.22s-2.39-8.26-2.39-8.26l-2.01-7.58-1.64-5.5-.76-2.51-.92-3.1-1-2.72s-.32-1.13-1.43-1.2-2.79.31-2.79.31"/>
              <path id="Path_11601" data-name="Path 11601" class="cls-5" d="m92.45,21.02s-.89.34,0,2.52c.64,1.68,1.19,3.4,1.63,5.15l2.34,9.2,1.75,6.88.97,3.88,1.26,4.33s1.16,2.97,2.6,2.97c.94-.01,1.87-.16,2.77-.44l3.13-1.03s.74-.69-.31-2.36-3.07-7.91-3.07-7.91l-1.41-3.91-1.81-5.02-1.51-4.25-1.92-5.56-.79-2.37s-.62-2.94-2.18-3.05-3.44.98-3.44.98"/>
              <path id="Path_11602" data-name="Path 11602" class="cls-5" d="m100.4,20.35l8.09,21.76,2.35,6.52s1.34,4.55,2.61,5.13c1.18.57,2.51.8,3.81.66,1.19-.16,1.76.13,2.26-.79s.96-2.38,0-3.78-2.21-3.48-2.21-3.48l-1.95-3.74-3-5.78-2.42-4.73-2.1-4.14-1.42-2.81-.95-1.88-1.24-2.05s-.52-.81-1.19-1.03-.9-.46-1.76-.17l-.86.29Z"/>
              <path id="Path_11603" data-name="Path 11603" class="cls-5" d="m15.85,112.2l-2.44-.04s-3.71.03-3.44,3.05,1.01,3.55,3.66,3.51c2.64-.04,100.35-1.12,100.35-1.12l2.34-.03s1.21.54,1.34-1.09c.06-1.16,0-2.33-.19-3.48,0,0-.61-1.72-2.2-1.72s-99.42.92-99.42.92"/>
              <path id="Path_11604" data-name="Path 11604" class="cls-5" d="m16.97,103.19h-3.98s-2.69-.04-3.09,1.74c-.4,1.78-.04,2.88.72,3.51s3.98,1.15,3.98,1.15l13.37-.25,84.27-.94,2.62-.03s2.14.34,2.77-1.57.1-3.02-.48-3.6-1.34-.98-2.98-.94-97.19.94-97.19.94"/>
              <path id="Path_11605" data-name="Path 11605" class="cls-5" d="m16.07,121.1h-4.03s-2.73-.03-3.13,1.24-.04,2.06.73,2.51c.76.45,4.03.82,4.03.82l13.52-.18,85.22-.67,2.65-.02s2.16.24,2.8-1.13.1-2.16-.49-2.58-1.36-.7-3.01-.67-98.28.67-98.28.67"/>
              <path id="Path_11606" data-name="Path 11606" class="cls-5" d="m13.56,94.15h-4.28s-2.89-.04-3.32,1.74c-.43,1.78-.04,2.88.77,3.51s4.27,1.15,4.27,1.15l14.34-.25,90.41-.94,2.81-.03s2.29.34,2.97-1.57.1-3.02-.52-3.6-1.44-.98-3.19-.94-104.27.94-104.27.94"/>
              <path id="Path_11607" data-name="Path 11607" class="cls-5" d="m3.24,58.14c-1.21,1.07-1.72,2.72-1.32,4.28.65,2.72.8,3.32,1.41,4.2s1.23,1.92,2.01,2.33,1.25.96,2.37.48c.95-.4,1.82-.96,2.59-1.66.68-.6,1.33-1.22,2.06-1.36s1.28-.4,2.7.42c0,0,1.48,1.42,2.22,1.84s1.25.8,2.4.77,2.54-.9,3.43-2.74,1.35-3.08,1.79-3.43.58-.77,1.3.15,1.09,2.31,1.09,2.31c0,0,.62,1.43,1.66,1.85,1.04.42,2.09.85,3.4.63s1.81.13,3.15-2.18c0,0,.25-1.87.49-2.45s.34-1.13.87-1.26.95-.21,1.74.37.82,1.95.82,1.95c0,0,.53,2.57,1.31,3.27s1.55,1.38,3.32,1.08,3.23-1.96,3.23-1.96c.31-.56.56-1.15.72-1.77.22-.91-.13-1.85.54-2.16s1.1-.4,1.64-.23,1.33,2.07,1.91,2.84,1.97,2.9,3.2,3.11c0,0,1.1.7,2.04-.05.92-.7,1.67-1.58,2.22-2.59.52-1,1.01-2.13,1.01-2.13,0,0,.36-1.47,1.28-1.44s1.31.87,1.62,1.47,1.34,2.31,2.07,2.88,1.68,1.21,2.44,1.21,1.72.16,3.13-1.19c.81-.89,1.5-1.89,2.06-2.96l.72-1.1s.6-1.03,1.35.12,1.39,2.23,1.39,2.23c0,0,1.42,2.08,1.8,2.44s1.2,1.2,2.27,1.12,2.46-1.11,3.11-1.79,2.19-2.52,2.19-2.52l.54-.64s.73-.84,1.27,0,1.38,2.66,1.97,3.27,1.34,1.28,1.94,1.4,1.66.47,3.08-.78c.82-.69,1.48-1.56,1.92-2.54,0,0,.77-2.09,1.42-2.44s1.54-.73,2.22-.05.79,2.64.79,2.64c0,0,.65,2.4,2.17,2.87,0,0,1.64.84,3.32-.07s2.56-3.27,2.56-3.27l1.03-2.33s.83-1.6,1.73-.59c.9,1.01,1.73,3.54,1.73,3.54,0,0,1.16,3.28,3.33,2.87,1.79-.33,3.36-1.38,4.36-2.9.45-.74.7-1.6.72-2.47l.1-2.07s-.05-1.57-.93-1.79-3.03-.15-3.03-.15l-17.79-.1-19.46-.23-26.35-.17-29.65-.12-21.73-.26Z"/>
            </g>
          </g>
        </g>
        <g id="Group_400" data-name="Group 400">
          <g class="cls-14">
            <g id="Group_395" data-name="Group 395">
              <path id="Path_11637" data-name="Path 11637" class="cls-5" d="m26.85,16s-2.08.6-2.46-1.29-.58-3.28,0-4.02c.58-.74,1.02-1.36,2.06-1.41,1.05-.05,5.59-.26,5.59-.26l8.19-.25,8.02-.12h11.45s11.39.12,11.39.12l5.42-.09,8.24-.14,11.06-.24,3.26-.1s1.91-.24,2.84.8c.93,1.04.51,3.95.51,3.95,0,0,.6,1.78-1.73,2.07-2.33.29-5.65.05-5.65.05l-8.74.07-5.92.05-7.3.06-6.31.07-17.52.2-13.62.1-4.7.19-4.09.19Z"/>
            </g>
          </g>
        </g>
        <g id="Group_412" data-name="Group 412">
          <g class="cls-17">
            <g id="Group_411" data-name="Group 411">
              <path id="Path_11646" data-name="Path 11646" class="cls-4" d="m65.66,75.34v3.12s-1.03,1.24-1.79,1.24-1.54-1.28-1.54-1.28l-.51-1.54s-1.03.51-1.79-.26-1.14-2.84-1.14-2.84v-2.74l1.66-.82h2.67l1.77.65h.98s-.28,4.48-.28,4.48"/>
              <path id="Path_11647" data-name="Path 11647" class="cls-13" d="m64.04,70.86h1.9s-.28-1.68-.28-1.68c0,0-1.03-1.72-2.31-1.76-1.28-.03-2.84.55-2.84.55l-2.15,1-.39.47-.51.51c-.12.24-.12.53,0,.77.19.29.66.31,1.54.26.61-.04,1.44-.1,2.43-.24h1.41l1.21.12"/>
              <path id="Path_11648" data-name="Path 11648" class="cls-11" d="m55,94.3c0-3.76,0-7.52,0-11.28.31-.86.8-1.64,1.44-2.3.74-.7,1.56-1.3,2.44-1.8l1.14-.51h2.31s.48.93,1.01,1.1.56.66,1.44-.22l.88-.88h2.64s.44-.26,1.46.51c.81.64,1.58,1.32,2.31,2.05l.51,1.03.97,1.39.31,2.97v4.4c-.25.54-.5,1.08-.75,1.61-.28.59-.56,1.18-.85,1.77l-2.77.08.15-1.23,1.15-1.77-1.04-1.79-.51-.77-.26-1.28h-8.2l-2.31-.26-1.19,7.12-2.29.05"/>
              <path id="Path_11649" data-name="Path 11649" class="cls-8" d="m60.28,78.41l-.51,3.08-.26,2.82-.37,2.17v7.57l3.39.24c.6.08,1.2.07,1.79-.02,1.5-.25,2.89-.98,3.94-2.09.16-1.77.32-3.54.48-5.31l-.51-1.79-.26-1.54v-4.61l-.08-.51h-1.11l-.35,2.56-.26,1.03v2.05h-3.33l-.9.1-.64-.1.26-3.85v-1.28l-.02-.51h-1.26Z"/>
            </g>
          </g>
        </g>
        <g id="Group_446" data-name="Group 446">
          <g class="cls-16">
            <g id="Group_445" data-name="Group 445">
              <path id="Path_11764" data-name="Path 11764" class="cls-7" d="m23.01,92.34s.04.07.08.06c.08,0,.15,0,.23,0,.04,0,.08.02.09.06.03.05.02.09-.05.09-.06,0-.12,0-.18,0s-.08.03-.09.08c-.03.16-.05.31-.08.47-.05.3-.08.6-.14.89-.03.14-.15.23-.29.24-.09,0-.18,0-.27,0-.04,0-.09.02-.1.06-.02.05-.06.05-.1.05-.18,0-.36,0-.53,0-.05,0-.09,0-.1-.06,0-.04-.04-.05-.08-.05-.09,0-.18,0-.28,0-.13,0-.24-.09-.28-.21-.04-.11-.06-.22-.06-.34,0-.08-.04-.16-.04-.24.04-.04-.01-.07-.02-.11-.02-.24-.05-.47-.1-.7,0-.05-.03-.06-.07-.06-.14,0-.28,0-.43,0-.06,0-.08.03-.09.08-.01.11-.03.21-.05.31-.03.15-.03.31-.08.46-.03.19-.05.38-.08.56-.03.15-.16.25-.31.25-.07,0-.14,0-.2,0s-.13,0-.16.08c-.01.04-.06.04-.09.04-.17,0-.35,0-.52,0-.04,0-.08,0-.09-.04-.02-.07-.08-.07-.14-.07-.04,0-.09,0-.13,0-.28.03-.4-.13-.42-.42,0-.13-.03-.27-.07-.4-.04-.26-.07-.52-.11-.77,0-.05-.02-.08-.08-.08-.15,0-.3,0-.44,0-.06,0-.08.03-.08.08,0,.15-.06.29-.06.43,0,.11-.08.22-.03.34-.06.06-.03.15-.05.22-.02.14-.04.28-.08.41-.04.11-.14.18-.26.18-.09,0-.19,0-.28,0-.04,0-.08,0-.1.05-.02.06-.05.06-.1.06-.17,0-.35,0-.52,0-.03,0-.07,0-.09-.04-.02-.07-.07-.08-.14-.07-.08,0-.17,0-.25,0-.16-.01-.28-.13-.3-.29-.02-.19-.05-.39-.08-.58-.04-.23-.07-.46-.1-.69-.01-.11-.03-.13-.14-.13h-.12s-.09,0-.09-.06c0-.05.04-.09.08-.09,0,0,0,0,.01,0,.11,0,.22,0,.33,0h2.23s.03,0,.04,0c.02,0,.04-.01.04-.03,0,0,0-.01,0-.02-.04-.17-.02-.34-.06-.51-.04-.13-.07-.27-.11-.4,0-.1.02-.21.05-.31.04-.2.09-.39.13-.59,0-.05.03-.05.07-.05h.36c.01.35.07.7.05,1.05h0c.02.25.04.48.05.72,0,.09.03.13.11.11.03,0,.06,0,.09.02h.65c.52,0,1.04,0,1.56,0,.08,0,.09-.02.09-.1,0-.16-.03-.32-.06-.48-.05-.12-.08-.25-.1-.39.02-.17.07-.34.11-.51.02-.12.05-.24.07-.36.01-.05.03-.08.09-.08.09,0,.17,0,.26,0,.07,0,.1.03.1.1,0,.25.04.49.05.74.01.32.04.65.05.97,0,.07.03.09.09.07.03-.01.06-.01.09,0h0l.02.02h1.35s.86,0,.86,0c.04,0,.09,0,.09-.06"/>
              <path id="Path_11765" data-name="Path 11765" class="cls-3" d="m16.74,91.44c.04.13.07.27.11.4.05.17.03.34.06.51,0,.02,0,.04-.02.05,0,0-.01,0-.02,0h-2.26s-.01-.04-.01-.04c0-.06,0-.12,0-.19.01,0,.01-.02.01-.04v-.05s0-.04,0-.05c.02-.02.02-.04.02-.07,0-.12.04-.25.08-.36.09-.24.21-.47.36-.68.04-.05.06-.11.13-.13.06-.04.12-.09.19-.12.19-.11.43-.13.64-.04.29.14.51.38.64.67.02.05,0,.11.07.14"/>
              <path id="Path_11766" data-name="Path 11766" class="cls-3" d="m23.01,92.34c0,.07-.05.06-.09.06h-2.21s-.02-.02-.02-.02h0s.01-.07.02-.1c0-.19.02-.38.08-.56.02-.1.06-.19.09-.29.05-.02.05-.07.07-.11,0-.02,0-.04.02-.06.09-.15.18-.28.29-.42.19-.21.48-.31.75-.26.12.04.24.09.35.16.12.11.23.24.32.38.11.21.2.43.27.65.01.09.03.19.05.28,0,.03,0,.06,0,.09,0,0,0,.01,0,.02h0c0,.05,0,.11,0,.16"/>
              <path id="Path_11767" data-name="Path 11767" class="cls-7" d="m23,92.16s0-.06,0-.09c.02-.04.05-.08.08-.11.16-.18.25-.42.26-.66,0-1.3,0-2.59,0-3.89.01-.35-.15-.68-.44-.88-.14-.11-.3-.18-.48-.19-1.17,0-2.34,0-3.51,0-1.19,0-2.37,0-3.56,0-.32,0-.62.13-.82.38-.12.14-.2.3-.23.48-.02.14-.03.28-.02.42,0,1.04,0,2.09,0,3.13,0,.2,0,.41.02.61.02.26.15.5.34.67,0,.02,0,.04,0,.05-.02,0-.02.03-.01.04,0,0,0,0,0,0,0,.01,0,.03-.01.04-.12-.07-.22-.17-.28-.3-.11-.19-.16-.41-.15-.62,0-1.31,0-2.62,0-3.93,0-.48.3-.91.76-1.06.06-.02.13-.03.19-.03,2.45,0,4.89,0,7.34,0,.35,0,.66.21.81.52.11.2.16.43.15.66,0,1.32,0,2.63,0,3.95,0,.31-.15.61-.4.8,0,0-.02,0-.03,0h0v-.02"/>
              <path id="Path_11768" data-name="Path 11768" class="cls-10" d="m16.89,93.42c-.05-.12.02-.23.03-.34,0-.14.06-.28.06-.43,0-.05.02-.08.08-.08.15,0,.3,0,.44,0,.05,0,.07.03.08.08.04.26.07.52.11.77h-.8"/>
              <path id="Path_11769" data-name="Path 11769" class="cls-10" d="m19.91,93.42c.05-.15.05-.31.08-.46.02-.1.04-.21.05-.31,0-.05.03-.08.09-.08.14,0,.28,0,.43,0,.04,0,.06,0,.07.06.05.23.08.46.1.7,0,.04.05.06.02.11-.02-.01-.04-.02-.07-.02-.26,0-.51,0-.77,0"/>
              <path id="Path_11770" data-name="Path 11770" class="cls-10" d="m14.61,92.37v.04s0,0,0,0c0-.01,0-.02,0-.04"/>
              <path id="Path_11771" data-name="Path 11771" class="cls-10" d="m20.87,91.44c-.03.1-.07.19-.09.29-.05.18-.08.37-.08.56,0,.03,0,.07-.02.1-.03-.02-.06-.02-.09,0-.06.01-.08,0-.09-.07-.02-.32-.04-.65-.05-.97,0-.25-.05-.49-.05-.74,0-.07-.03-.1-.1-.1-.09,0-.17,0-.26,0-.06,0-.08.03-.09.08-.02.12-.05.24-.07.36-.04.17-.09.34-.11.51-.1-.23-.24-.44-.41-.61-.15-.14-.34-.23-.54-.26-.25,0-.48.1-.64.29-.19.2-.33.45-.41.71-.09.27-.14.54-.13.83-.03-.01-.06-.02-.09-.02-.09.02-.11-.02-.11-.11,0-.24-.03-.47-.05-.71,0,0,0,0,0,0,.01-.35-.04-.7-.05-1.05.01-.02.04-.02.06-.02.05,0,.11,0,.16,0,.03,0,.06,0,.06-.04,0-.03-.03-.03-.06-.03-.03,0-.07,0-.1,0-.08.01-.1-.02-.1-.11,0-.91,0-1.82,0-2.74v-.05c0-.05.02-.06.07-.07.12-.02.24-.02.36-.02.07.01.14-.03.15-.1,0,0,0,0,0,0h4.13c.16,0,.29.11.3.27,0,.01,0,.03,0,.04,0,.95,0,1.91,0,2.86,0,.07,0,.15.01.22.01.04-.01.05-.04.05-.11-.07-.23-.12-.35-.16-.28-.05-.56.05-.75.26-.11.13-.2.27-.29.42,0,.02-.02.04-.02.06-.09,0-.06.06-.07.11"/>
              <path id="Path_11772" data-name="Path 11772" class="cls-6" d="m17.95,87.32c0,.07-.07.12-.14.11,0,0,0,0,0,0-.12,0-.24,0-.36.02-.05,0-.07.02-.07.07v.05c0,.91,0,1.82,0,2.74,0,.09.02.12.1.11.03,0,.07,0,.1,0,.02,0,.06,0,.06.03,0,.04-.03.04-.06.04-.05,0-.11,0-.16,0-.02,0-.04,0-.06.02h-.36s-.06,0-.07.05c-.04.2-.09.39-.13.59-.03.1-.05.2-.05.31-.06-.03-.04-.09-.07-.14-.13-.29-.35-.53-.64-.67-.21-.09-.44-.07-.64.04-.06.04-.12.08-.19.12,0-1.05,0-2.1,0-3.15,0-.17.13-.32.3-.33,0,0,.01,0,.02,0,.81,0,1.62,0,2.43,0"/>
              <path id="Path_11773" data-name="Path 11773" class="cls-3" d="m17.65,92.4c0-.28.04-.56.13-.83.08-.27.22-.51.41-.71.16-.19.39-.3.64-.29.2.03.39.11.54.26.17.18.31.38.41.61.02.13.06.26.1.38.03.16.05.32.06.48,0,.08-.02.1-.09.1-.52,0-1.04,0-1.56,0h-.65"/>
              <path id="Path_11774" data-name="Path 11774" class="cls-10" d="m20.69,92.38l.02.02-.02-.02"/>
              <path id="Path_11775" data-name="Path 11775" class="cls-9" d="m17.95,87.32c-.81,0-1.62,0-2.43,0-.17,0-.31.14-.31.31,0,0,0,0,0,.01,0,1.05,0,2.1,0,3.15-.06.02-.09.08-.13.13-.15.21-.28.44-.36.68-.04.12-.07.24-.08.36,0,.02,0,.05-.02.07-.2-.17-.32-.41-.34-.67-.02-.2-.02-.41-.01-.61,0-1.04,0-2.09,0-3.13,0-.14,0-.28.02-.42.03-.18.11-.34.23-.48.2-.25.5-.39.82-.38,1.19,0,2.37,0,3.56,0,.01.07.01.13,0,.2v.62c0,.11-.02.12-.12.13-.04,0-.09-.03-.11.04h-.71"/>
              <path id="Path_11776" data-name="Path 11776" class="cls-10" d="m14.62,92.14s-.02-.03,0-.05c0,0,0,0,0,0,0,.02,0,.04,0,.05"/>
              <path id="Path_11777" data-name="Path 11777" class="cls-6" d="m18.67,87.32c.02-.07.08-.03.11-.04.1,0,.12-.02.12-.13v-.62c.01-.07.01-.13,0-.2,1.17,0,2.34,0,3.51,0,.18.01.35.08.48.19.29.2.45.53.44.88,0,1.3,0,2.59,0,3.89,0,.24-.1.48-.26.66-.03.03-.05.07-.08.11-.02-.09-.04-.19-.05-.28-.06-.23-.15-.45-.27-.65-.09-.14-.2-.27-.32-.38.03,0,.06,0,.04-.05-.02-.07-.02-.15-.01-.22,0-.95,0-1.91,0-2.86.02-.16-.1-.29-.25-.31-.01,0-.03,0-.04,0h-3.42"/>
              <path id="Path_11778" data-name="Path 11778" class="cls-6" d="m20.87,91.44s-.03-.12.07-.11c-.01.04-.02.09-.07.11"/>
              <path id="Path_11779" data-name="Path 11779" class="cls-6" d="m23,92.16v.02s0-.02,0-.02"/>
            </g>
          </g>
        </g>
        <g id="Group_447" data-name="Group 447">
          <g class="cls-15">
            <g id="Group_445-2" data-name="Group 445-2">
              <path id="Path_11764-2" data-name="Path 11764-2" class="cls-7" d="m33.33,92.34s.04.07.08.06c.08,0,.15,0,.23,0,.04,0,.08.02.09.06.03.05.02.09-.05.09-.06,0-.12,0-.18,0s-.08.03-.09.08c-.03.16-.05.31-.08.47-.05.3-.08.6-.14.89-.03.14-.15.23-.29.24-.09,0-.18,0-.27,0-.04,0-.09.02-.1.06-.02.05-.06.05-.1.05-.18,0-.36,0-.53,0-.05,0-.09,0-.1-.06,0-.04-.04-.05-.08-.05-.09,0-.18,0-.28,0-.13,0-.24-.09-.28-.21-.04-.11-.06-.22-.06-.34,0-.08-.04-.16-.04-.24.04-.04-.01-.07-.02-.11-.02-.24-.05-.47-.1-.7,0-.05-.03-.06-.07-.06-.14,0-.28,0-.43,0-.06,0-.08.03-.09.08-.01.11-.03.21-.05.31-.03.15-.03.31-.08.46-.03.19-.05.38-.08.56-.03.15-.16.25-.31.25-.07,0-.14,0-.2,0s-.13,0-.16.08c-.01.04-.06.04-.09.04-.17,0-.35,0-.52,0-.04,0-.08,0-.09-.04-.02-.07-.08-.07-.14-.07-.04,0-.09,0-.13,0-.28.03-.4-.13-.42-.42,0-.13-.03-.27-.07-.4-.04-.26-.07-.52-.11-.77,0-.05-.02-.08-.08-.08-.15,0-.3,0-.44,0-.06,0-.08.03-.08.08,0,.15-.06.29-.06.43,0,.11-.08.22-.03.34-.06.06-.03.15-.05.22-.02.14-.04.28-.08.41-.04.11-.14.18-.26.18-.09,0-.19,0-.28,0-.04,0-.08,0-.1.05-.02.06-.05.06-.1.06-.17,0-.35,0-.52,0-.03,0-.07,0-.09-.04-.02-.07-.07-.08-.14-.07-.08,0-.17,0-.25,0-.16-.01-.28-.13-.3-.29-.02-.19-.05-.39-.08-.58-.04-.23-.07-.46-.1-.69-.01-.11-.03-.13-.14-.13h-.12s-.09,0-.09-.06c0-.05.04-.09.08-.09,0,0,0,0,.01,0,.11,0,.22,0,.33,0h2.23s.03,0,.04,0c.02,0,.04-.01.04-.03,0,0,0-.01,0-.02-.04-.17-.02-.34-.06-.51-.04-.13-.07-.27-.11-.4,0-.1.02-.21.05-.31.04-.2.09-.39.13-.59,0-.05.03-.05.07-.05h.36c.01.35.07.7.05,1.05h0c.02.25.04.48.05.72,0,.09.03.13.11.11.03,0,.06,0,.09.02h.65c.52,0,1.04,0,1.56,0,.08,0,.09-.02.09-.1,0-.16-.03-.32-.06-.48-.05-.12-.08-.25-.1-.39.02-.17.07-.34.11-.51.02-.12.05-.24.07-.36.01-.05.03-.08.09-.08.09,0,.17,0,.26,0,.07,0,.1.03.1.1,0,.25.04.49.05.74.01.32.04.65.05.97,0,.07.03.09.09.07.03-.01.06-.01.09,0h0l.02.02h1.35s.86,0,.86,0c.04,0,.09,0,.09-.06"/>
              <path id="Path_11765-2" data-name="Path 11765-2" class="cls-3" d="m27.06,91.44c.04.13.07.27.11.4.05.17.03.34.06.51,0,.02,0,.04-.02.05,0,0-.01,0-.02,0h-2.26s-.01-.04-.01-.04c0-.06,0-.12,0-.19.01,0,.01-.02.01-.04v-.05s0-.04,0-.05c.02-.02.02-.04.02-.07,0-.12.04-.25.08-.36.09-.24.21-.47.36-.68.04-.05.06-.11.13-.13.06-.04.12-.09.19-.12.19-.11.43-.13.64-.04.29.14.51.38.64.67.02.05,0,.11.07.14"/>
              <path id="Path_11766-2" data-name="Path 11766-2" class="cls-3" d="m33.33,92.34c0,.07-.05.06-.09.06h-2.21s-.02-.02-.02-.02h0s.01-.07.02-.1c0-.19.02-.38.08-.56.02-.1.06-.19.09-.29.05-.02.05-.07.07-.11,0-.02,0-.04.02-.06.09-.15.18-.28.29-.42.19-.21.48-.31.75-.26.12.04.24.09.35.16.12.11.23.24.32.38.11.21.2.43.27.65.01.09.03.19.05.28,0,.03,0,.06,0,.09,0,0,0,.01,0,.02h0c0,.05,0,.11,0,.16"/>
              <path id="Path_11767-2" data-name="Path 11767-2" class="cls-7" d="m33.31,92.16s0-.06,0-.09c.02-.04.05-.08.08-.11.16-.18.25-.42.26-.66,0-1.3,0-2.59,0-3.89.01-.35-.15-.68-.44-.88-.14-.11-.3-.18-.48-.19-1.17,0-2.34,0-3.51,0-1.19,0-2.37,0-3.56,0-.32,0-.62.13-.82.38-.12.14-.2.3-.23.48-.02.14-.03.28-.02.42,0,1.04,0,2.09,0,3.13,0,.2,0,.41.02.61.02.26.15.5.34.67,0,.02,0,.04,0,.05-.02,0-.02.03-.01.04,0,0,0,0,0,0,0,.01,0,.03-.01.04-.12-.07-.22-.17-.28-.3-.11-.19-.16-.41-.15-.62,0-1.31,0-2.62,0-3.93,0-.48.3-.91.76-1.06.06-.02.13-.03.19-.03,2.45,0,4.89,0,7.34,0,.35,0,.66.21.81.52.11.2.16.43.15.66,0,1.32,0,2.63,0,3.95,0,.31-.15.61-.4.8,0,0-.02,0-.03,0h0v-.02"/>
              <path id="Path_11768-2" data-name="Path 11768-2" class="cls-10" d="m27.2,93.42c-.05-.12.02-.23.03-.34,0-.14.06-.28.06-.43,0-.05.02-.08.08-.08.15,0,.3,0,.44,0,.05,0,.07.03.08.08.04.26.07.52.11.77h-.8"/>
              <path id="Path_11769-2" data-name="Path 11769-2" class="cls-10" d="m30.23,93.42c.05-.15.05-.31.08-.46.02-.1.04-.21.05-.31,0-.05.03-.08.09-.08.14,0,.28,0,.43,0,.04,0,.06,0,.07.06.05.23.08.46.1.7,0,.04.05.06.02.11-.02-.01-.04-.02-.07-.02-.26,0-.51,0-.77,0"/>
              <path id="Path_11770-2" data-name="Path 11770-2" class="cls-10" d="m24.93,92.37v.04s0,0,0,0c0-.01,0-.02,0-.04"/>
              <path id="Path_11771-2" data-name="Path 11771-2" class="cls-10" d="m31.19,91.44c-.03.1-.07.19-.09.29-.05.18-.08.37-.08.56,0,.03,0,.07-.02.1-.03-.02-.06-.02-.09,0-.06.01-.08,0-.09-.07-.02-.32-.04-.65-.05-.97,0-.25-.05-.49-.05-.74,0-.07-.03-.1-.1-.1-.09,0-.17,0-.26,0-.06,0-.08.03-.09.08-.02.12-.05.24-.07.36-.04.17-.09.34-.11.51-.1-.23-.24-.44-.41-.61-.15-.14-.34-.23-.54-.26-.25,0-.48.1-.64.29-.19.2-.33.45-.41.71-.09.27-.14.54-.13.83-.03-.01-.06-.02-.09-.02-.09.02-.11-.02-.11-.11,0-.24-.03-.47-.05-.71,0,0,0,0,0,0,.01-.35-.04-.7-.05-1.05.01-.02.04-.02.06-.02.05,0,.11,0,.16,0,.03,0,.06,0,.06-.04,0-.03-.03-.03-.06-.03-.03,0-.07,0-.1,0-.08.01-.1-.02-.1-.11,0-.91,0-1.82,0-2.74v-.05c0-.05.02-.06.07-.07.12-.02.24-.02.36-.02.07.01.14-.03.15-.1,0,0,0,0,0,0h4.13c.16,0,.29.11.3.27,0,.01,0,.03,0,.04,0,.95,0,1.91,0,2.86,0,.07,0,.15.01.22.01.04-.01.05-.04.05-.11-.07-.23-.12-.35-.16-.28-.05-.56.05-.75.26-.11.13-.2.27-.29.42,0,.02-.02.04-.02.06-.09,0-.06.06-.07.11"/>
              <path id="Path_11772-2" data-name="Path 11772-2" class="cls-6" d="m28.27,87.32c0,.07-.07.12-.14.11,0,0,0,0,0,0-.12,0-.24,0-.36.02-.05,0-.07.02-.07.07v.05c0,.91,0,1.82,0,2.74,0,.09.02.12.1.11.03,0,.07,0,.1,0,.02,0,.06,0,.06.03,0,.04-.03.04-.06.04-.05,0-.11,0-.16,0-.02,0-.04,0-.06.02h-.36s-.06,0-.07.05c-.04.2-.09.39-.13.59-.03.1-.05.2-.05.31-.06-.03-.04-.09-.07-.14-.13-.29-.35-.53-.64-.67-.21-.09-.44-.07-.64.04-.06.04-.12.08-.19.12,0-1.05,0-2.1,0-3.15,0-.17.13-.32.3-.33,0,0,.01,0,.02,0,.81,0,1.62,0,2.43,0"/>
              <path id="Path_11773-2" data-name="Path 11773-2" class="cls-3" d="m27.97,92.4c0-.28.04-.56.13-.83.08-.27.22-.51.41-.71.16-.19.39-.3.64-.29.2.03.39.11.54.26.17.18.31.38.41.61.02.13.06.26.1.38.03.16.05.32.06.48,0,.08-.02.1-.09.1-.52,0-1.04,0-1.56,0h-.65"/>
              <path id="Path_11774-2" data-name="Path 11774-2" class="cls-10" d="m31.01,92.38l.02.02-.02-.02"/>
              <path id="Path_11775-2" data-name="Path 11775-2" class="cls-9" d="m28.27,87.32c-.81,0-1.62,0-2.43,0-.17,0-.31.14-.31.31,0,0,0,0,0,.01,0,1.05,0,2.1,0,3.15-.06.02-.09.08-.13.13-.15.21-.28.44-.36.68-.04.12-.07.24-.08.36,0,.02,0,.05-.02.07-.2-.17-.32-.41-.34-.67-.02-.2-.02-.41-.01-.61,0-1.04,0-2.09,0-3.13,0-.14,0-.28.02-.42.03-.18.11-.34.23-.48.2-.25.5-.39.82-.38,1.19,0,2.37,0,3.56,0,.01.07.01.13,0,.2v.62c0,.11-.02.12-.12.13-.04,0-.09-.03-.11.04h-.71"/>
              <path id="Path_11776-2" data-name="Path 11776-2" class="cls-10" d="m24.94,92.14s-.02-.03,0-.05c0,0,0,0,0,0,0,.02,0,.04,0,.05"/>
              <path id="Path_11777-2" data-name="Path 11777-2" class="cls-6" d="m28.98,87.32c.02-.07.08-.03.11-.04.1,0,.12-.02.12-.13v-.62c.01-.07.01-.13,0-.2,1.17,0,2.34,0,3.51,0,.18.01.35.08.48.19.29.2.45.53.44.88,0,1.3,0,2.59,0,3.89,0,.24-.1.48-.26.66-.03.03-.05.07-.08.11-.02-.09-.04-.19-.05-.28-.06-.23-.15-.45-.27-.65-.09-.14-.2-.27-.32-.38.03,0,.06,0,.04-.05-.02-.07-.02-.15-.01-.22,0-.95,0-1.91,0-2.86.02-.16-.1-.29-.25-.31-.01,0-.03,0-.04,0h-3.42"/>
              <path id="Path_11778-2" data-name="Path 11778-2" class="cls-6" d="m31.19,91.44s-.03-.12.07-.11c-.01.04-.02.09-.07.11"/>
              <path id="Path_11779-2" data-name="Path 11779-2" class="cls-6" d="m33.31,92.16v.02s0-.02,0-.02"/>
            </g>
          </g>
        </g>
        <g id="Group_451" data-name="Group 451">
          <g class="cls-21">
            <g id="Group_445-3" data-name="Group 445-3">
              <path id="Path_11764-3" data-name="Path 11764-3" class="cls-7" d="m43.64,92.34s.04.07.08.06c.08,0,.15,0,.23,0,.04,0,.08.02.09.06.03.05.02.09-.05.09-.06,0-.12,0-.18,0s-.08.03-.09.08c-.03.16-.05.31-.08.47-.05.3-.08.6-.14.89-.03.14-.15.23-.29.24-.09,0-.18,0-.27,0-.04,0-.09.02-.1.06-.02.05-.06.05-.1.05-.18,0-.36,0-.53,0-.05,0-.09,0-.1-.06,0-.04-.04-.05-.08-.05-.09,0-.18,0-.28,0-.13,0-.24-.09-.28-.21-.04-.11-.06-.22-.06-.34,0-.08-.04-.16-.04-.24.04-.04-.01-.07-.02-.11-.02-.24-.05-.47-.1-.7,0-.05-.03-.06-.07-.06-.14,0-.28,0-.43,0-.06,0-.08.03-.09.08-.01.11-.03.21-.05.31-.03.15-.03.31-.08.46-.03.19-.05.38-.08.56-.03.15-.16.25-.31.25-.07,0-.14,0-.2,0s-.13,0-.16.08c-.01.04-.06.04-.09.04-.17,0-.35,0-.52,0-.04,0-.08,0-.09-.04-.02-.07-.08-.07-.14-.07-.04,0-.09,0-.13,0-.28.03-.4-.13-.42-.42,0-.13-.03-.27-.07-.4-.04-.26-.07-.52-.11-.77,0-.05-.02-.08-.08-.08-.15,0-.3,0-.44,0-.06,0-.08.03-.08.08,0,.15-.06.29-.06.43,0,.11-.08.22-.03.34-.06.06-.03.15-.05.22-.02.14-.04.28-.08.41-.04.11-.14.18-.26.18-.09,0-.19,0-.28,0-.04,0-.08,0-.1.05-.02.06-.05.06-.1.06-.17,0-.35,0-.52,0-.03,0-.07,0-.09-.04-.02-.07-.07-.08-.14-.07-.08,0-.17,0-.25,0-.16-.01-.28-.13-.3-.29-.02-.19-.05-.39-.08-.58-.04-.23-.07-.46-.1-.69-.01-.11-.03-.13-.14-.13h-.12s-.09,0-.09-.06c0-.05.04-.09.08-.09,0,0,0,0,.01,0,.11,0,.22,0,.33,0h2.23s.03,0,.04,0c.02,0,.04-.01.04-.03,0,0,0-.01,0-.02-.04-.17-.02-.34-.06-.51-.04-.13-.07-.27-.11-.4,0-.1.02-.21.05-.31.04-.2.09-.39.13-.59,0-.05.03-.05.07-.05h.36c.01.35.07.7.05,1.05h0c.02.25.04.48.05.72,0,.09.03.13.11.11.03,0,.06,0,.09.02h.65c.52,0,1.04,0,1.56,0,.08,0,.09-.02.09-.1,0-.16-.03-.32-.06-.48-.05-.12-.08-.25-.1-.39.02-.17.07-.34.11-.51.02-.12.05-.24.07-.36.01-.05.03-.08.09-.08.09,0,.17,0,.26,0,.07,0,.1.03.1.1,0,.25.04.49.05.74.01.32.04.65.05.97,0,.07.03.09.09.07.03-.01.06-.01.09,0h0l.02.02h1.35s.86,0,.86,0c.04,0,.09,0,.09-.06"/>
              <path id="Path_11765-3" data-name="Path 11765-3" class="cls-3" d="m37.37,91.44c.04.13.07.27.11.4.05.17.03.34.06.51,0,.02,0,.04-.02.05,0,0-.01,0-.02,0h-2.26s-.01-.04-.01-.04c0-.06,0-.12,0-.19.01,0,.01-.02.01-.04v-.05s0-.04,0-.05c.02-.02.02-.04.02-.07,0-.12.04-.25.08-.36.09-.24.21-.47.36-.68.04-.05.06-.11.13-.13.06-.04.12-.09.19-.12.19-.11.43-.13.64-.04.29.14.51.38.64.67.02.05,0,.11.07.14"/>
              <path id="Path_11766-3" data-name="Path 11766-3" class="cls-3" d="m43.64,92.34c0,.07-.05.06-.09.06h-2.21s-.02-.02-.02-.02h0s.01-.07.02-.1c0-.19.02-.38.08-.56.02-.1.06-.19.09-.29.05-.02.05-.07.07-.11,0-.02,0-.04.02-.06.09-.15.18-.28.29-.42.19-.21.48-.31.75-.26.12.04.24.09.35.16.12.11.23.24.32.38.11.21.2.43.27.65.01.09.03.19.05.28,0,.03,0,.06,0,.09,0,0,0,.01,0,.02h0c0,.05,0,.11,0,.16"/>
              <path id="Path_11767-3" data-name="Path 11767-3" class="cls-7" d="m43.63,92.16s0-.06,0-.09c.02-.04.05-.08.08-.11.16-.18.25-.42.26-.66,0-1.3,0-2.59,0-3.89.01-.35-.15-.68-.44-.88-.14-.11-.3-.18-.48-.19-1.17,0-2.34,0-3.51,0-1.19,0-2.37,0-3.56,0-.32,0-.62.13-.82.38-.12.14-.2.3-.23.48-.02.14-.03.28-.02.42,0,1.04,0,2.09,0,3.13,0,.2,0,.41.02.61.02.26.15.5.34.67,0,.02,0,.04,0,.05-.02,0-.02.03-.01.04,0,0,0,0,0,0,0,.01,0,.03-.01.04-.12-.07-.22-.17-.28-.3-.11-.19-.16-.41-.15-.62,0-1.31,0-2.62,0-3.93,0-.48.3-.91.76-1.06.06-.02.13-.03.19-.03,2.45,0,4.89,0,7.34,0,.35,0,.66.21.81.52.11.2.16.43.15.66,0,1.32,0,2.63,0,3.95,0,.31-.15.61-.4.8,0,0-.02,0-.03,0h0v-.02"/>
              <path id="Path_11768-3" data-name="Path 11768-3" class="cls-10" d="m37.51,93.42c-.05-.12.02-.23.03-.34,0-.14.06-.28.06-.43,0-.05.02-.08.08-.08.15,0,.3,0,.44,0,.05,0,.07.03.08.08.04.26.07.52.11.77h-.8"/>
              <path id="Path_11769-3" data-name="Path 11769-3" class="cls-10" d="m40.54,93.42c.05-.15.05-.31.08-.46.02-.1.04-.21.05-.31,0-.05.03-.08.09-.08.14,0,.28,0,.43,0,.04,0,.06,0,.07.06.05.23.08.46.1.7,0,.04.05.06.02.11-.02-.01-.04-.02-.07-.02-.26,0-.51,0-.77,0"/>
              <path id="Path_11770-3" data-name="Path 11770-3" class="cls-10" d="m35.24,92.37v.04s0,0,0,0c0-.01,0-.02,0-.04"/>
              <path id="Path_11771-3" data-name="Path 11771-3" class="cls-10" d="m41.5,91.44c-.03.1-.07.19-.09.29-.05.18-.08.37-.08.56,0,.03,0,.07-.02.1-.03-.02-.06-.02-.09,0-.06.01-.08,0-.09-.07-.02-.32-.04-.65-.05-.97,0-.25-.05-.49-.05-.74,0-.07-.03-.1-.1-.1-.09,0-.17,0-.26,0-.06,0-.08.03-.09.08-.02.12-.05.24-.07.36-.04.17-.09.34-.11.51-.1-.23-.24-.44-.41-.61-.15-.14-.34-.23-.54-.26-.25,0-.48.1-.64.29-.19.2-.33.45-.41.71-.09.27-.14.54-.13.83-.03-.01-.06-.02-.09-.02-.09.02-.11-.02-.11-.11,0-.24-.03-.47-.05-.71,0,0,0,0,0,0,.01-.35-.04-.7-.05-1.05.01-.02.04-.02.06-.02.05,0,.11,0,.16,0,.03,0,.06,0,.06-.04,0-.03-.03-.03-.06-.03-.03,0-.07,0-.1,0-.08.01-.1-.02-.1-.11,0-.91,0-1.82,0-2.74v-.05c0-.05.02-.06.07-.07.12-.02.24-.02.36-.02.07.01.14-.03.15-.1,0,0,0,0,0,0h4.13c.16,0,.29.11.3.27,0,.01,0,.03,0,.04,0,.95,0,1.91,0,2.86,0,.07,0,.15.01.22.01.04-.01.05-.04.05-.11-.07-.23-.12-.35-.16-.28-.05-.56.05-.75.26-.11.13-.2.27-.29.42,0,.02-.02.04-.02.06-.09,0-.06.06-.07.11"/>
              <path id="Path_11772-3" data-name="Path 11772-3" class="cls-6" d="m38.58,87.32c0,.07-.07.12-.14.11,0,0,0,0,0,0-.12,0-.24,0-.36.02-.05,0-.07.02-.07.07v.05c0,.91,0,1.82,0,2.74,0,.09.02.12.1.11.03,0,.07,0,.1,0,.02,0,.06,0,.06.03,0,.04-.03.04-.06.04-.05,0-.11,0-.16,0-.02,0-.04,0-.06.02h-.36s-.06,0-.07.05c-.04.2-.09.39-.13.59-.03.1-.05.2-.05.31-.06-.03-.04-.09-.07-.14-.13-.29-.35-.53-.64-.67-.21-.09-.44-.07-.64.04-.06.04-.12.08-.19.12,0-1.05,0-2.1,0-3.15,0-.17.13-.32.3-.33,0,0,.01,0,.02,0,.81,0,1.62,0,2.43,0"/>
              <path id="Path_11773-3" data-name="Path 11773-3" class="cls-3" d="m38.28,92.4c0-.28.04-.56.13-.83.08-.27.22-.51.41-.71.16-.19.39-.3.64-.29.2.03.39.11.54.26.17.18.31.38.41.61.02.13.06.26.1.38.03.16.05.32.06.48,0,.08-.02.1-.09.1-.52,0-1.04,0-1.56,0h-.65"/>
              <path id="Path_11774-3" data-name="Path 11774-3" class="cls-10" d="m41.32,92.38l.02.02-.02-.02"/>
              <path id="Path_11775-3" data-name="Path 11775-3" class="cls-9" d="m38.58,87.32c-.81,0-1.62,0-2.43,0-.17,0-.31.14-.31.31,0,0,0,0,0,.01,0,1.05,0,2.1,0,3.15-.06.02-.09.08-.13.13-.15.21-.28.44-.36.68-.04.12-.07.24-.08.36,0,.02,0,.05-.02.07-.2-.17-.32-.41-.34-.67-.02-.2-.02-.41-.01-.61,0-1.04,0-2.09,0-3.13,0-.14,0-.28.02-.42.03-.18.11-.34.23-.48.2-.25.5-.39.82-.38,1.19,0,2.37,0,3.56,0,.01.07.01.13,0,.2v.62c0,.11-.02.12-.12.13-.04,0-.09-.03-.11.04h-.71"/>
              <path id="Path_11776-3" data-name="Path 11776-3" class="cls-10" d="m35.25,92.14s-.02-.03,0-.05c0,0,0,0,0,0,0,.02,0,.04,0,.05"/>
              <path id="Path_11777-3" data-name="Path 11777-3" class="cls-6" d="m39.29,87.32c.02-.07.08-.03.11-.04.1,0,.12-.02.12-.13v-.62c.01-.07.01-.13,0-.2,1.17,0,2.34,0,3.51,0,.18.01.35.08.48.19.29.2.45.53.44.88,0,1.3,0,2.59,0,3.89,0,.24-.1.48-.26.66-.03.03-.05.07-.08.11-.02-.09-.04-.19-.05-.28-.06-.23-.15-.45-.27-.65-.09-.14-.2-.27-.32-.38.03,0,.06,0,.04-.05-.02-.07-.02-.15-.01-.22,0-.95,0-1.91,0-2.86.02-.16-.1-.29-.25-.31-.01,0-.03,0-.04,0h-3.42"/>
              <path id="Path_11778-3" data-name="Path 11778-3" class="cls-6" d="m41.5,91.44s-.03-.12.07-.11c-.01.04-.02.09-.07.11"/>
              <path id="Path_11779-3" data-name="Path 11779-3" class="cls-6" d="m43.63,92.16v.02s0-.02,0-.02"/>
            </g>
          </g>
        </g>
        <g id="Group_452" data-name="Group 452">
          <g class="cls-20">
            <g id="Group_445-4" data-name="Group 445-4">
              <path id="Path_11764-4" data-name="Path 11764-4" class="cls-7" d="m90.05,92.34s.04.07.08.06c.08,0,.15,0,.23,0,.04,0,.08.02.09.06.03.05.02.09-.05.09-.06,0-.12,0-.18,0s-.08.03-.09.08c-.03.16-.05.31-.08.47-.05.3-.08.6-.14.89-.03.14-.15.23-.29.24-.09,0-.18,0-.27,0-.04,0-.09.02-.1.06-.02.05-.06.05-.1.05-.18,0-.36,0-.53,0-.05,0-.09,0-.1-.06,0-.04-.04-.05-.08-.05-.09,0-.18,0-.28,0-.13,0-.24-.09-.28-.21-.04-.11-.06-.22-.06-.34,0-.08-.04-.16-.04-.24.04-.04-.01-.07-.02-.11-.02-.24-.05-.47-.1-.7,0-.05-.03-.06-.07-.06-.14,0-.28,0-.43,0-.06,0-.08.03-.09.08-.01.11-.03.21-.05.31-.03.15-.03.31-.08.46-.03.19-.05.38-.08.56-.03.15-.16.25-.31.25-.07,0-.14,0-.2,0s-.13,0-.16.08c-.01.04-.06.04-.09.04-.17,0-.35,0-.52,0-.04,0-.08,0-.09-.04-.02-.07-.08-.07-.14-.07-.04,0-.09,0-.13,0-.28.03-.4-.13-.42-.42,0-.13-.03-.27-.07-.4-.04-.26-.07-.52-.11-.77,0-.05-.02-.08-.08-.08-.15,0-.3,0-.44,0-.06,0-.08.03-.08.08,0,.15-.06.29-.06.43,0,.11-.08.22-.03.34-.06.06-.03.15-.05.22-.02.14-.04.28-.08.41-.04.11-.14.18-.26.18-.09,0-.19,0-.28,0-.04,0-.08,0-.1.05-.02.06-.05.06-.1.06-.17,0-.35,0-.52,0-.03,0-.07,0-.09-.04-.02-.07-.07-.08-.14-.07-.08,0-.17,0-.25,0-.16-.01-.28-.13-.3-.29-.02-.19-.05-.39-.08-.58-.04-.23-.07-.46-.1-.69-.01-.11-.03-.13-.14-.13h-.12s-.09,0-.09-.06c0-.05.04-.09.08-.09,0,0,0,0,.01,0,.11,0,.22,0,.33,0h2.23s.03,0,.04,0c.02,0,.04-.01.04-.03,0,0,0-.01,0-.02-.04-.17-.02-.34-.06-.51-.04-.13-.07-.27-.11-.4,0-.1.02-.21.05-.31.04-.2.09-.39.13-.59,0-.05.03-.05.07-.05h.36c.01.35.07.7.05,1.05h0c.02.25.04.48.05.72,0,.09.03.13.11.11.03,0,.06,0,.09.02h.65c.52,0,1.04,0,1.56,0,.08,0,.09-.02.09-.1,0-.16-.03-.32-.06-.48-.05-.12-.08-.25-.1-.39.02-.17.07-.34.11-.51.02-.12.05-.24.07-.36.01-.05.03-.08.09-.08.09,0,.17,0,.26,0,.07,0,.1.03.1.1,0,.25.04.49.05.74.01.32.04.65.05.97,0,.07.03.09.09.07.03-.01.06-.01.09,0h0l.02.02h1.35s.86,0,.86,0c.04,0,.09,0,.09-.06"/>
              <path id="Path_11765-4" data-name="Path 11765-4" class="cls-3" d="m83.78,91.44c.04.13.07.27.11.4.05.17.03.34.06.51,0,.02,0,.04-.02.05,0,0-.01,0-.02,0h-2.26s-.01-.04-.01-.04c0-.06,0-.12,0-.19.01,0,.01-.02.01-.04v-.05s0-.04,0-.05c.02-.02.02-.04.02-.07,0-.12.04-.25.08-.36.09-.24.21-.47.36-.68.04-.05.06-.11.13-.13.06-.04.12-.09.19-.12.19-.11.43-.13.64-.04.29.14.51.38.64.67.02.05,0,.11.07.14"/>
              <path id="Path_11766-4" data-name="Path 11766-4" class="cls-3" d="m90.05,92.34c0,.07-.05.06-.09.06h-2.21s-.02-.02-.02-.02h0s.01-.07.02-.1c0-.19.02-.38.08-.56.02-.1.06-.19.09-.29.05-.02.05-.07.07-.11,0-.02,0-.04.02-.06.09-.15.18-.28.29-.42.19-.21.48-.31.75-.26.12.04.24.09.35.16.12.11.23.24.32.38.11.21.2.43.27.65.01.09.03.19.05.28,0,.03,0,.06,0,.09,0,0,0,.01,0,.02h0c0,.05,0,.11,0,.16"/>
              <path id="Path_11767-4" data-name="Path 11767-4" class="cls-7" d="m90.04,92.16s0-.06,0-.09c.02-.04.05-.08.08-.11.16-.18.25-.42.26-.66,0-1.3,0-2.59,0-3.89.01-.35-.15-.68-.44-.88-.14-.11-.3-.18-.48-.19-1.17,0-2.34,0-3.51,0-1.19,0-2.37,0-3.56,0-.32,0-.62.13-.82.38-.12.14-.2.3-.23.48-.02.14-.03.28-.02.42,0,1.04,0,2.09,0,3.13,0,.2,0,.41.02.61.02.26.15.5.34.67,0,.02,0,.04,0,.05-.02,0-.02.03-.01.04,0,0,0,0,0,0,0,.01,0,.03-.01.04-.12-.07-.22-.17-.28-.3-.11-.19-.16-.41-.15-.62,0-1.31,0-2.62,0-3.93,0-.48.3-.91.76-1.06.06-.02.13-.03.19-.03,2.45,0,4.89,0,7.34,0,.35,0,.66.21.81.52.11.2.16.43.15.66,0,1.32,0,2.63,0,3.95,0,.31-.15.61-.4.8,0,0-.02,0-.03,0h0v-.02"/>
              <path id="Path_11768-4" data-name="Path 11768-4" class="cls-10" d="m83.93,93.42c-.05-.12.02-.23.03-.34,0-.14.06-.28.06-.43,0-.05.02-.08.08-.08.15,0,.3,0,.44,0,.05,0,.07.03.08.08.04.26.07.52.11.77h-.8"/>
              <path id="Path_11769-4" data-name="Path 11769-4" class="cls-10" d="m86.95,93.42c.05-.15.05-.31.08-.46.02-.1.04-.21.05-.31,0-.05.03-.08.09-.08.14,0,.28,0,.43,0,.04,0,.06,0,.07.06.05.23.08.46.1.7,0,.04.05.06.02.11-.02-.01-.04-.02-.07-.02-.26,0-.51,0-.77,0"/>
              <path id="Path_11770-4" data-name="Path 11770-4" class="cls-10" d="m81.65,92.37v.04s0,0,0,0c0-.01,0-.02,0-.04"/>
              <path id="Path_11771-4" data-name="Path 11771-4" class="cls-10" d="m87.91,91.44c-.03.1-.07.19-.09.29-.05.18-.08.37-.08.56,0,.03,0,.07-.02.1-.03-.02-.06-.02-.09,0-.06.01-.08,0-.09-.07-.02-.32-.04-.65-.05-.97,0-.25-.05-.49-.05-.74,0-.07-.03-.1-.1-.1-.09,0-.17,0-.26,0-.06,0-.08.03-.09.08-.02.12-.05.24-.07.36-.04.17-.09.34-.11.51-.1-.23-.24-.44-.41-.61-.15-.14-.34-.23-.54-.26-.25,0-.48.1-.64.29-.19.2-.33.45-.41.71-.09.27-.14.54-.13.83-.03-.01-.06-.02-.09-.02-.09.02-.11-.02-.11-.11,0-.24-.03-.47-.05-.71,0,0,0,0,0,0,.01-.35-.04-.7-.05-1.05.01-.02.04-.02.06-.02.05,0,.11,0,.16,0,.03,0,.06,0,.06-.04,0-.03-.03-.03-.06-.03-.03,0-.07,0-.1,0-.08.01-.1-.02-.1-.11,0-.91,0-1.82,0-2.74v-.05c0-.05.02-.06.07-.07.12-.02.24-.02.36-.02.07.01.14-.03.15-.1,0,0,0,0,0,0h4.13c.16,0,.29.11.3.27,0,.01,0,.03,0,.04,0,.95,0,1.91,0,2.86,0,.07,0,.15.01.22.01.04-.01.05-.04.05-.11-.07-.23-.12-.35-.16-.28-.05-.56.05-.75.26-.11.13-.2.27-.29.42,0,.02-.02.04-.02.06-.09,0-.06.06-.07.11"/>
              <path id="Path_11772-4" data-name="Path 11772-4" class="cls-6" d="m84.99,87.32c0,.07-.07.12-.14.11,0,0,0,0,0,0-.12,0-.24,0-.36.02-.05,0-.07.02-.07.07v.05c0,.91,0,1.82,0,2.74,0,.09.02.12.1.11.03,0,.07,0,.1,0,.02,0,.06,0,.06.03,0,.04-.03.04-.06.04-.05,0-.11,0-.16,0-.02,0-.04,0-.06.02h-.36s-.06,0-.07.05c-.04.2-.09.39-.13.59-.03.1-.05.2-.05.31-.06-.03-.04-.09-.07-.14-.13-.29-.35-.53-.64-.67-.21-.09-.44-.07-.64.04-.06.04-.12.08-.19.12,0-1.05,0-2.1,0-3.15,0-.17.13-.32.3-.33,0,0,.01,0,.02,0,.81,0,1.62,0,2.43,0"/>
              <path id="Path_11773-4" data-name="Path 11773-4" class="cls-3" d="m84.69,92.4c0-.28.04-.56.13-.83.08-.27.22-.51.41-.71.16-.19.39-.3.64-.29.2.03.39.11.54.26.17.18.31.38.41.61.02.13.06.26.1.38.03.16.05.32.06.48,0,.08-.02.1-.09.1-.52,0-1.04,0-1.56,0h-.65"/>
              <path id="Path_11774-4" data-name="Path 11774-4" class="cls-10" d="m87.73,92.38l.02.02-.02-.02"/>
              <path id="Path_11775-4" data-name="Path 11775-4" class="cls-9" d="m84.99,87.32c-.81,0-1.62,0-2.43,0-.17,0-.31.14-.31.31,0,0,0,0,0,.01,0,1.05,0,2.1,0,3.15-.06.02-.09.08-.13.13-.15.21-.28.44-.36.68-.04.12-.07.24-.08.36,0,.02,0,.05-.02.07-.2-.17-.32-.41-.34-.67-.02-.2-.02-.41-.01-.61,0-1.04,0-2.09,0-3.13,0-.14,0-.28.02-.42.03-.18.11-.34.23-.48.2-.25.5-.39.82-.38,1.19,0,2.37,0,3.56,0,.01.07.01.13,0,.2v.62c0,.11-.02.12-.12.13-.04,0-.09-.03-.11.04h-.71"/>
              <path id="Path_11776-4" data-name="Path 11776-4" class="cls-10" d="m81.66,92.14s-.02-.03,0-.05c0,0,0,0,0,0,0,.02,0,.04,0,.05"/>
              <path id="Path_11777-4" data-name="Path 11777-4" class="cls-6" d="m85.71,87.32c.02-.07.08-.03.11-.04.1,0,.12-.02.12-.13v-.62c.01-.07.01-.13,0-.2,1.17,0,2.34,0,3.51,0,.18.01.35.08.48.19.29.2.45.53.44.88,0,1.3,0,2.59,0,3.89,0,.24-.1.48-.26.66-.03.03-.05.07-.08.11-.02-.09-.04-.19-.05-.28-.06-.23-.15-.45-.27-.65-.09-.14-.2-.27-.32-.38.03,0,.06,0,.04-.05-.02-.07-.02-.15-.01-.22,0-.95,0-1.91,0-2.86.02-.16-.1-.29-.25-.31-.01,0-.03,0-.04,0h-3.42"/>
              <path id="Path_11778-4" data-name="Path 11778-4" class="cls-6" d="m87.91,91.44s-.03-.12.07-.11c-.01.04-.02.09-.07.11"/>
              <path id="Path_11779-4" data-name="Path 11779-4" class="cls-6" d="m90.04,92.16v.02s0-.02,0-.02"/>
            </g>
          </g>
        </g>
        <g id="Group_459" data-name="Group 459">
          <g class="cls-18">
            <g id="Group_445-5" data-name="Group 445-5">
              <path id="Path_11764-5" data-name="Path 11764-5" class="cls-7" d="m110.68,92.34s.04.07.08.06c.08,0,.15,0,.23,0,.04,0,.08.02.09.06.03.05.02.09-.05.09-.06,0-.12,0-.18,0s-.08.03-.09.08c-.03.16-.05.31-.08.47-.05.3-.08.6-.14.89-.03.14-.15.23-.29.24-.09,0-.18,0-.27,0-.04,0-.09.02-.1.06-.02.05-.06.05-.1.05-.18,0-.36,0-.53,0-.05,0-.09,0-.1-.06,0-.04-.04-.05-.08-.05-.09,0-.18,0-.28,0-.13,0-.24-.09-.28-.21-.04-.11-.06-.22-.06-.34,0-.08-.04-.16-.04-.24.04-.04-.01-.07-.02-.11-.02-.24-.05-.47-.1-.7,0-.05-.03-.06-.07-.06-.14,0-.28,0-.43,0-.06,0-.08.03-.09.08-.01.11-.03.21-.05.31-.03.15-.03.31-.08.46-.03.19-.05.38-.08.56-.03.15-.16.25-.31.25-.07,0-.14,0-.2,0s-.13,0-.16.08c-.01.04-.06.04-.09.04-.17,0-.35,0-.52,0-.04,0-.08,0-.09-.04-.02-.07-.08-.07-.14-.07-.04,0-.09,0-.13,0-.28.03-.4-.13-.42-.42,0-.13-.03-.27-.07-.4-.04-.26-.07-.52-.11-.77,0-.05-.02-.08-.08-.08-.15,0-.3,0-.44,0-.06,0-.08.03-.08.08,0,.15-.06.29-.06.43,0,.11-.08.22-.03.34-.06.06-.03.15-.05.22-.02.14-.04.28-.08.41-.04.11-.14.18-.26.18-.09,0-.19,0-.28,0-.04,0-.08,0-.1.05-.02.06-.05.06-.1.06-.17,0-.35,0-.52,0-.03,0-.07,0-.09-.04-.02-.07-.07-.08-.14-.07-.08,0-.17,0-.25,0-.16-.01-.28-.13-.3-.29-.02-.19-.05-.39-.08-.58-.04-.23-.07-.46-.1-.69-.01-.11-.03-.13-.14-.13h-.12s-.09,0-.09-.06c0-.05.04-.09.08-.09,0,0,0,0,.01,0,.11,0,.22,0,.33,0h2.23s.03,0,.04,0c.02,0,.04-.01.04-.03,0,0,0-.01,0-.02-.04-.17-.02-.34-.06-.51-.04-.13-.07-.27-.11-.4,0-.1.02-.21.05-.31.04-.2.09-.39.13-.59,0-.05.03-.05.07-.05h.36c.01.35.07.7.05,1.05h0c.02.25.04.48.05.72,0,.09.03.13.11.11.03,0,.06,0,.09.02h.65c.52,0,1.04,0,1.56,0,.08,0,.09-.02.09-.1,0-.16-.03-.32-.06-.48-.05-.12-.08-.25-.1-.39.02-.17.07-.34.11-.51.02-.12.05-.24.07-.36.01-.05.03-.08.09-.08.09,0,.17,0,.26,0,.07,0,.1.03.1.1,0,.25.04.49.05.74.01.32.04.65.05.97,0,.07.03.09.09.07.03-.01.06-.01.09,0h0l.02.02h1.35s.86,0,.86,0c.04,0,.09,0,.09-.06"/>
              <path id="Path_11765-5" data-name="Path 11765-5" class="cls-3" d="m104.41,91.44c.04.13.07.27.11.4.05.17.03.34.06.51,0,.02,0,.04-.02.05,0,0-.01,0-.02,0h-2.26s-.01-.04-.01-.04c0-.06,0-.12,0-.19.01,0,.01-.02.01-.04v-.05s0-.04,0-.05c.02-.02.02-.04.02-.07,0-.12.04-.25.08-.36.09-.24.21-.47.36-.68.04-.05.06-.11.13-.13.06-.04.12-.09.19-.12.19-.11.43-.13.64-.04.29.14.51.38.64.67.02.05,0,.11.07.14"/>
              <path id="Path_11766-5" data-name="Path 11766-5" class="cls-3" d="m110.68,92.34c0,.07-.05.06-.09.06h-2.21s-.02-.02-.02-.02h0s.01-.07.02-.1c0-.19.02-.38.08-.56.02-.1.06-.19.09-.29.05-.02.05-.07.07-.11,0-.02,0-.04.02-.06.09-.15.18-.28.29-.42.19-.21.48-.31.75-.26.12.04.24.09.35.16.12.11.23.24.32.38.11.21.2.43.27.65.01.09.03.19.05.28,0,.03,0,.06,0,.09,0,0,0,.01,0,.02h0c0,.05,0,.11,0,.16"/>
              <path id="Path_11767-5" data-name="Path 11767-5" class="cls-7" d="m110.67,92.16s0-.06,0-.09c.02-.04.05-.08.08-.11.16-.18.25-.42.26-.66,0-1.3,0-2.59,0-3.89.01-.35-.15-.68-.44-.88-.14-.11-.3-.18-.48-.19-1.17,0-2.34,0-3.51,0-1.19,0-2.37,0-3.56,0-.32,0-.62.13-.82.38-.12.14-.2.3-.23.48-.02.14-.03.28-.02.42,0,1.04,0,2.09,0,3.13,0,.2,0,.41.02.61.02.26.15.5.34.67,0,.02,0,.04,0,.05-.02,0-.02.03-.01.04,0,0,0,0,0,0,0,.01,0,.03-.01.04-.12-.07-.22-.17-.28-.3-.11-.19-.16-.41-.15-.62,0-1.31,0-2.62,0-3.93,0-.48.3-.91.76-1.06.06-.02.13-.03.19-.03,2.45,0,4.89,0,7.34,0,.35,0,.66.21.81.52.11.2.16.43.15.66,0,1.32,0,2.63,0,3.95,0,.31-.15.61-.4.8,0,0-.02,0-.03,0h0v-.02"/>
              <path id="Path_11768-5" data-name="Path 11768-5" class="cls-10" d="m104.55,93.42c-.05-.12.02-.23.03-.34,0-.14.06-.28.06-.43,0-.05.02-.08.08-.08.15,0,.3,0,.44,0,.05,0,.07.03.08.08.04.26.07.52.11.77h-.8"/>
              <path id="Path_11769-5" data-name="Path 11769-5" class="cls-10" d="m107.58,93.42c.05-.15.05-.31.08-.46.02-.1.04-.21.05-.31,0-.05.03-.08.09-.08.14,0,.28,0,.43,0,.04,0,.06,0,.07.06.05.23.08.46.1.7,0,.04.05.06.02.11-.02-.01-.04-.02-.07-.02-.26,0-.51,0-.77,0"/>
              <path id="Path_11770-5" data-name="Path 11770-5" class="cls-10" d="m102.28,92.37v.04s0,0,0,0c0-.01,0-.02,0-.04"/>
              <path id="Path_11771-5" data-name="Path 11771-5" class="cls-10" d="m108.54,91.44c-.03.1-.07.19-.09.29-.05.18-.08.37-.08.56,0,.03,0,.07-.02.1-.03-.02-.06-.02-.09,0-.06.01-.08,0-.09-.07-.02-.32-.04-.65-.05-.97,0-.25-.05-.49-.05-.74,0-.07-.03-.1-.1-.1-.09,0-.17,0-.26,0-.06,0-.08.03-.09.08-.02.12-.05.24-.07.36-.04.17-.09.34-.11.51-.1-.23-.24-.44-.41-.61-.15-.14-.34-.23-.54-.26-.25,0-.48.1-.64.29-.19.2-.33.45-.41.71-.09.27-.14.54-.13.83-.03-.01-.06-.02-.09-.02-.09.02-.11-.02-.11-.11,0-.24-.03-.47-.05-.71,0,0,0,0,0,0,.01-.35-.04-.7-.05-1.05.01-.02.04-.02.06-.02.05,0,.11,0,.16,0,.03,0,.06,0,.06-.04,0-.03-.03-.03-.06-.03-.03,0-.07,0-.1,0-.08.01-.1-.02-.1-.11,0-.91,0-1.82,0-2.74v-.05c0-.05.02-.06.07-.07.12-.02.24-.02.36-.02.07.01.14-.03.15-.1,0,0,0,0,0,0h4.13c.16,0,.29.11.3.27,0,.01,0,.03,0,.04,0,.95,0,1.91,0,2.86,0,.07,0,.15.01.22.01.04-.01.05-.04.05-.11-.07-.23-.12-.35-.16-.28-.05-.56.05-.75.26-.11.13-.2.27-.29.42,0,.02-.02.04-.02.06-.09,0-.06.06-.07.11"/>
              <path id="Path_11772-5" data-name="Path 11772-5" class="cls-6" d="m105.62,87.32c0,.07-.07.12-.14.11,0,0,0,0,0,0-.12,0-.24,0-.36.02-.05,0-.07.02-.07.07v.05c0,.91,0,1.82,0,2.74,0,.09.02.12.1.11.03,0,.07,0,.1,0,.02,0,.06,0,.06.03,0,.04-.03.04-.06.04-.05,0-.11,0-.16,0-.02,0-.04,0-.06.02h-.36s-.06,0-.07.05c-.04.2-.09.39-.13.59-.03.1-.05.2-.05.31-.06-.03-.04-.09-.07-.14-.13-.29-.35-.53-.64-.67-.21-.09-.44-.07-.64.04-.06.04-.12.08-.19.12,0-1.05,0-2.1,0-3.15,0-.17.13-.32.3-.33,0,0,.01,0,.02,0,.81,0,1.62,0,2.43,0"/>
              <path id="Path_11773-5" data-name="Path 11773-5" class="cls-3" d="m105.32,92.4c0-.28.04-.56.13-.83.08-.27.22-.51.41-.71.16-.19.39-.3.64-.29.2.03.39.11.54.26.17.18.31.38.41.61.02.13.06.26.1.38.03.16.05.32.06.48,0,.08-.02.1-.09.1-.52,0-1.04,0-1.56,0h-.65"/>
              <path id="Path_11774-5" data-name="Path 11774-5" class="cls-10" d="m108.36,92.38l.02.02-.02-.02"/>
              <path id="Path_11775-5" data-name="Path 11775-5" class="cls-9" d="m105.62,87.32c-.81,0-1.62,0-2.43,0-.17,0-.31.14-.31.31,0,0,0,0,0,.01,0,1.05,0,2.1,0,3.15-.06.02-.09.08-.13.13-.15.21-.28.44-.36.68-.04.12-.07.24-.08.36,0,.02,0,.05-.02.07-.2-.17-.32-.41-.34-.67-.02-.2-.02-.41-.01-.61,0-1.04,0-2.09,0-3.13,0-.14,0-.28.02-.42.03-.18.11-.34.23-.48.2-.25.5-.39.82-.38,1.19,0,2.37,0,3.56,0,.01.07.01.13,0,.2v.62c0,.11-.02.12-.12.13-.04,0-.09-.03-.11.04h-.71"/>
              <path id="Path_11776-5" data-name="Path 11776-5" class="cls-10" d="m102.29,92.14s-.02-.03,0-.05c0,0,0,0,0,0,0,.02,0,.04,0,.05"/>
              <path id="Path_11777-5" data-name="Path 11777-5" class="cls-6" d="m106.33,87.32c.02-.07.08-.03.11-.04.1,0,.12-.02.12-.13v-.62c.01-.07.01-.13,0-.2,1.17,0,2.34,0,3.51,0,.18.01.35.08.48.19.29.2.45.53.44.88,0,1.3,0,2.59,0,3.89,0,.24-.1.48-.26.66-.03.03-.05.07-.08.11-.02-.09-.04-.19-.05-.28-.06-.23-.15-.45-.27-.65-.09-.14-.2-.27-.32-.38.03,0,.06,0,.04-.05-.02-.07-.02-.15-.01-.22,0-.95,0-1.91,0-2.86.02-.16-.1-.29-.25-.31-.01,0-.03,0-.04,0h-3.42"/>
              <path id="Path_11778-5" data-name="Path 11778-5" class="cls-6" d="m108.54,91.44s-.03-.12.07-.11c-.01.04-.02.09-.07.11"/>
              <path id="Path_11779-5" data-name="Path 11779-5" class="cls-6" d="m110.67,92.16v.02s0-.02,0-.02"/>
            </g>
          </g>
        </g>
        <g id="Group_460" data-name="Group 460">
          <g class="cls-19">
            <g id="Group_445-6" data-name="Group 445-6">
              <path id="Path_11764-6" data-name="Path 11764-6" class="cls-7" d="m100.36,92.34s.04.07.08.06c.08,0,.15,0,.23,0,.04,0,.08.02.09.06.03.05.02.09-.05.09-.06,0-.12,0-.18,0s-.08.03-.09.08c-.03.16-.05.31-.08.47-.05.3-.08.6-.14.89-.03.14-.15.23-.29.24-.09,0-.18,0-.27,0-.04,0-.09.02-.1.06-.02.05-.06.05-.1.05-.18,0-.36,0-.53,0-.05,0-.09,0-.1-.06,0-.04-.04-.05-.08-.05-.09,0-.18,0-.28,0-.13,0-.24-.09-.28-.21-.04-.11-.06-.22-.06-.34,0-.08-.04-.16-.04-.24.04-.04-.01-.07-.02-.11-.02-.24-.05-.47-.1-.7,0-.05-.03-.06-.07-.06-.14,0-.28,0-.43,0-.06,0-.08.03-.09.08-.01.11-.03.21-.05.31-.03.15-.03.31-.08.46-.03.19-.05.38-.08.56-.03.15-.16.25-.31.25-.07,0-.14,0-.2,0s-.13,0-.16.08c-.01.04-.06.04-.09.04-.17,0-.35,0-.52,0-.04,0-.08,0-.09-.04-.02-.07-.08-.07-.14-.07-.04,0-.09,0-.13,0-.28.03-.4-.13-.42-.42,0-.13-.03-.27-.07-.4-.04-.26-.07-.52-.11-.77,0-.05-.02-.08-.08-.08-.15,0-.3,0-.44,0-.06,0-.08.03-.08.08,0,.15-.06.29-.06.43,0,.11-.08.22-.03.34-.06.06-.03.15-.05.22-.02.14-.04.28-.08.41-.04.11-.14.18-.26.18-.09,0-.19,0-.28,0-.04,0-.08,0-.1.05-.02.06-.05.06-.1.06-.17,0-.35,0-.52,0-.03,0-.07,0-.09-.04-.02-.07-.07-.08-.14-.07-.08,0-.17,0-.25,0-.16-.01-.28-.13-.3-.29-.02-.19-.05-.39-.08-.58-.04-.23-.07-.46-.1-.69-.01-.11-.03-.13-.14-.13h-.12s-.09,0-.09-.06c0-.05.04-.09.08-.09,0,0,0,0,.01,0,.11,0,.22,0,.33,0h2.23s.03,0,.04,0c.02,0,.04-.01.04-.03,0,0,0-.01,0-.02-.04-.17-.02-.34-.06-.51-.04-.13-.07-.27-.11-.4,0-.1.02-.21.05-.31.04-.2.09-.39.13-.59,0-.05.03-.05.07-.05h.36c.01.35.07.7.05,1.05h0c.02.25.04.48.05.72,0,.09.03.13.11.11.03,0,.06,0,.09.02h.65c.52,0,1.04,0,1.56,0,.08,0,.09-.02.09-.1,0-.16-.03-.32-.06-.48-.05-.12-.08-.25-.1-.39.02-.17.07-.34.11-.51.02-.12.05-.24.07-.36.01-.05.03-.08.09-.08.09,0,.17,0,.26,0,.07,0,.1.03.1.1,0,.25.04.49.05.74.01.32.04.65.05.97,0,.07.03.09.09.07.03-.01.06-.01.09,0h0l.02.02h1.35s.86,0,.86,0c.04,0,.09,0,.09-.06"/>
              <path id="Path_11765-6" data-name="Path 11765-6" class="cls-3" d="m94.1,91.44c.04.13.07.27.11.4.05.17.03.34.06.51,0,.02,0,.04-.02.05,0,0-.01,0-.02,0h-2.26s-.01-.04-.01-.04c0-.06,0-.12,0-.19.01,0,.01-.02.01-.04v-.05s0-.04,0-.05c.02-.02.02-.04.02-.07,0-.12.04-.25.08-.36.09-.24.21-.47.36-.68.04-.05.06-.11.13-.13.06-.04.12-.09.19-.12.19-.11.43-.13.64-.04.29.14.51.38.64.67.02.05,0,.11.07.14"/>
              <path id="Path_11766-6" data-name="Path 11766-6" class="cls-3" d="m100.36,92.34c0,.07-.05.06-.09.06h-2.21s-.02-.02-.02-.02h0s.01-.07.02-.1c0-.19.02-.38.08-.56.02-.1.06-.19.09-.29.05-.02.05-.07.07-.11,0-.02,0-.04.02-.06.09-.15.18-.28.29-.42.19-.21.48-.31.75-.26.12.04.24.09.35.16.12.11.23.24.32.38.11.21.2.43.27.65.01.09.03.19.05.28,0,.03,0,.06,0,.09,0,0,0,.01,0,.02h0c0,.05,0,.11,0,.16"/>
              <path id="Path_11767-6" data-name="Path 11767-6" class="cls-7" d="m100.35,92.16s0-.06,0-.09c.02-.04.05-.08.08-.11.16-.18.25-.42.26-.66,0-1.3,0-2.59,0-3.89.01-.35-.15-.68-.44-.88-.14-.11-.3-.18-.48-.19-1.17,0-2.34,0-3.51,0-1.19,0-2.37,0-3.56,0-.32,0-.62.13-.82.38-.12.14-.2.3-.23.48-.02.14-.03.28-.02.42,0,1.04,0,2.09,0,3.13,0,.2,0,.41.02.61.02.26.15.5.34.67,0,.02,0,.04,0,.05-.02,0-.02.03-.01.04,0,0,0,0,0,0,0,.01,0,.03-.01.04-.12-.07-.22-.17-.28-.3-.11-.19-.16-.41-.15-.62,0-1.31,0-2.62,0-3.93,0-.48.3-.91.76-1.06.06-.02.13-.03.19-.03,2.45,0,4.89,0,7.34,0,.35,0,.66.21.81.52.11.2.16.43.15.66,0,1.32,0,2.63,0,3.95,0,.31-.15.61-.4.8,0,0-.02,0-.03,0h0v-.02"/>
              <path id="Path_11768-6" data-name="Path 11768-6" class="cls-10" d="m94.24,93.42c-.05-.12.02-.23.03-.34,0-.14.06-.28.06-.43,0-.05.02-.08.08-.08.15,0,.3,0,.44,0,.05,0,.07.03.08.08.04.26.07.52.11.77h-.8"/>
              <path id="Path_11769-6" data-name="Path 11769-6" class="cls-10" d="m97.27,93.42c.05-.15.05-.31.08-.46.02-.1.04-.21.05-.31,0-.05.03-.08.09-.08.14,0,.28,0,.43,0,.04,0,.06,0,.07.06.05.23.08.46.1.7,0,.04.05.06.02.11-.02-.01-.04-.02-.07-.02-.26,0-.51,0-.77,0"/>
              <path id="Path_11770-6" data-name="Path 11770-6" class="cls-10" d="m91.96,92.37v.04s0,0,0,0c0-.01,0-.02,0-.04"/>
              <path id="Path_11771-6" data-name="Path 11771-6" class="cls-10" d="m98.23,91.44c-.03.1-.07.19-.09.29-.05.18-.08.37-.08.56,0,.03,0,.07-.02.1-.03-.02-.06-.02-.09,0-.06.01-.08,0-.09-.07-.02-.32-.04-.65-.05-.97,0-.25-.05-.49-.05-.74,0-.07-.03-.1-.1-.1-.09,0-.17,0-.26,0-.06,0-.08.03-.09.08-.02.12-.05.24-.07.36-.04.17-.09.34-.11.51-.1-.23-.24-.44-.41-.61-.15-.14-.34-.23-.54-.26-.25,0-.48.1-.64.29-.19.2-.33.45-.41.71-.09.27-.14.54-.13.83-.03-.01-.06-.02-.09-.02-.09.02-.11-.02-.11-.11,0-.24-.03-.47-.05-.71,0,0,0,0,0,0,.01-.35-.04-.7-.05-1.05.01-.02.04-.02.06-.02.05,0,.11,0,.16,0,.03,0,.06,0,.06-.04,0-.03-.03-.03-.06-.03-.03,0-.07,0-.1,0-.08.01-.1-.02-.1-.11,0-.91,0-1.82,0-2.74v-.05c0-.05.02-.06.07-.07.12-.02.24-.02.36-.02.07.01.14-.03.15-.1,0,0,0,0,0,0h4.13c.16,0,.29.11.3.27,0,.01,0,.03,0,.04,0,.95,0,1.91,0,2.86,0,.07,0,.15.01.22.01.04-.01.05-.04.05-.11-.07-.23-.12-.35-.16-.28-.05-.56.05-.75.26-.11.13-.2.27-.29.42,0,.02-.02.04-.02.06-.09,0-.06.06-.07.11"/>
              <path id="Path_11772-6" data-name="Path 11772-6" class="cls-6" d="m95.31,87.32c0,.07-.07.12-.14.11,0,0,0,0,0,0-.12,0-.24,0-.36.02-.05,0-.07.02-.07.07v.05c0,.91,0,1.82,0,2.74,0,.09.02.12.1.11.03,0,.07,0,.1,0,.02,0,.06,0,.06.03,0,.04-.03.04-.06.04-.05,0-.11,0-.16,0-.02,0-.04,0-.06.02h-.36s-.06,0-.07.05c-.04.2-.09.39-.13.59-.03.1-.05.2-.05.31-.06-.03-.04-.09-.07-.14-.13-.29-.35-.53-.64-.67-.21-.09-.44-.07-.64.04-.06.04-.12.08-.19.12,0-1.05,0-2.1,0-3.15,0-.17.13-.32.3-.33,0,0,.01,0,.02,0,.81,0,1.62,0,2.43,0"/>
              <path id="Path_11773-6" data-name="Path 11773-6" class="cls-3" d="m95.01,92.4c0-.28.04-.56.13-.83.08-.27.22-.51.41-.71.16-.19.39-.3.64-.29.2.03.39.11.54.26.17.18.31.38.41.61.02.13.06.26.1.38.03.16.05.32.06.48,0,.08-.02.1-.09.1-.52,0-1.04,0-1.56,0h-.65"/>
              <path id="Path_11774-6" data-name="Path 11774-6" class="cls-10" d="m98.05,92.38l.02.02-.02-.02"/>
              <path id="Path_11775-6" data-name="Path 11775-6" class="cls-9" d="m95.31,87.32c-.81,0-1.62,0-2.43,0-.17,0-.31.14-.31.31,0,0,0,0,0,.01,0,1.05,0,2.1,0,3.15-.06.02-.09.08-.13.13-.15.21-.28.44-.36.68-.04.12-.07.24-.08.36,0,.02,0,.05-.02.07-.2-.17-.32-.41-.34-.67-.02-.2-.02-.41-.01-.61,0-1.04,0-2.09,0-3.13,0-.14,0-.28.02-.42.03-.18.11-.34.23-.48.2-.25.5-.39.82-.38,1.19,0,2.37,0,3.56,0,.01.07.01.13,0,.2v.62c0,.11-.02.12-.12.13-.04,0-.09-.03-.11.04h-.71"/>
              <path id="Path_11776-6" data-name="Path 11776-6" class="cls-10" d="m91.98,92.14s-.02-.03,0-.05c0,0,0,0,0,0,0,.02,0,.04,0,.05"/>
              <path id="Path_11777-6" data-name="Path 11777-6" class="cls-6" d="m96.02,87.32c.02-.07.08-.03.11-.04.1,0,.12-.02.12-.13v-.62c.01-.07.01-.13,0-.2,1.17,0,2.34,0,3.51,0,.18.01.35.08.48.19.29.2.45.53.44.88,0,1.3,0,2.59,0,3.89,0,.24-.1.48-.26.66-.03.03-.05.07-.08.11-.02-.09-.04-.19-.05-.28-.06-.23-.15-.45-.27-.65-.09-.14-.2-.27-.32-.38.03,0,.06,0,.04-.05-.02-.07-.02-.15-.01-.22,0-.95,0-1.91,0-2.86.02-.16-.1-.29-.25-.31-.01,0-.03,0-.04,0h-3.42"/>
              <path id="Path_11778-6" data-name="Path 11778-6" class="cls-6" d="m98.23,91.44s-.03-.12.07-.11c-.01.04-.02.09-.07.11"/>
              <path id="Path_11779-6" data-name="Path 11779-6" class="cls-6" d="m100.35,92.16v.02s0-.02,0-.02"/>
            </g>
          </g>
        </g>
      </g>
      <rect id="Rectangle_311" data-name="Rectangle 311" class="cls-11" x="29.43" y="2.37" width="68.76" height="22.78" transform="translate(-.8 4.48) rotate(-4)"/>
      <g id="Verse_scharreleieren" data-name="Verse scharreleieren" class="cls-22">
        <g class="cls-22">
          <path class="cls-5" d="m53.11,12.35l-2.02-3.82s-.03-.08-.01-.12c.01-.04.05-.06.1-.06l.94-.07s.08,0,.12.03c.04.02.07.05.09.08l1.18,2.26s.05.05.08.05c.03,0,.05-.02.07-.06l.85-2.4s.04-.07.08-.09.07-.04.11-.05l.96-.07s.07.01.1.04c.02.03.03.06.01.09l-1.49,4.09s-.04.07-.08.1-.07.04-.11.05l-.77.05s-.08,0-.12-.03c-.04-.02-.07-.05-.09-.08Z"/>
          <path class="cls-5" d="m57.44,9.13l.02.24s.02.07.05.1c.03.03.06.04.1.03l1.57-.11s.07,0,.1.03c.03.02.04.06.05.09l.06.8s0,.07-.03.1c-.02.03-.06.04-.1.05l-1.57.11s-.07.02-.1.05c-.02.03-.04.06-.03.1l.02.22s.02.07.05.1c.03.03.06.04.1.03l1.8-.12s.07,0,.1.03c.03.03.04.06.05.1l.06.8s0,.07-.03.1c-.03.03-.06.05-.1.05l-2.95.21s-.07,0-.1-.03c-.03-.02-.04-.06-.05-.1l-.28-3.96s0-.07.03-.1c.02-.03.06-.04.1-.05l2.95-.21s.07,0,.1.03c.03.03.04.06.05.1l.05.79s0,.07-.03.1c-.03.03-.06.04-.1.05l-1.8.12s-.07.02-.1.05c-.02.03-.04.06-.03.1Z"/>
          <path class="cls-5" d="m61.47,11.89l-.87.06s-.07,0-.1-.03c-.03-.02-.05-.06-.05-.1l-.28-3.96s0-.07.03-.1.06-.05.1-.05l1.8-.13c.22-.02.43,0,.63.07.19.06.36.16.51.28.14.12.26.28.35.46.09.18.14.38.16.61,0,.12,0,.25-.02.37-.02.12-.05.24-.1.35-.05.11-.1.21-.17.31-.07.09-.15.17-.23.23-.03.03-.05.05-.06.09,0,.03,0,.06.03.09.16.18.33.37.5.56.18.19.33.37.47.53.02.03.03.06.02.1,0,.04-.03.06-.07.06l-1.08.08s-.08,0-.13-.02-.08-.04-.11-.07c-.13-.15-.27-.31-.4-.47-.13-.16-.26-.32-.4-.48-.02-.03-.06-.05-.1-.07-.04-.02-.08-.03-.12-.02h-.13s-.07.03-.1.06c-.03.03-.04.06-.03.1l.07.94s0,.07-.03.1c-.03.03-.06.05-.1.05Zm.12-2.3l.61-.04s.09-.02.14-.04c.05-.02.09-.05.13-.09.04-.04.07-.09.09-.14s.03-.12.03-.19c0-.04-.01-.08-.03-.13-.02-.05-.04-.1-.08-.14-.04-.05-.08-.08-.14-.11-.06-.03-.13-.04-.21-.04l-.61.04s-.07.02-.1.05c-.03.03-.04.06-.03.1l.04.61s.02.07.05.1c.03.03.06.04.1.03Z"/>
          <path class="cls-5" d="m65.01,10.18c.22.12.43.21.64.28.21.06.4.09.58.08.17-.01.3-.04.38-.1.09-.05.12-.13.12-.23,0-.05-.03-.09-.07-.11-.04-.03-.09-.05-.16-.06s-.14-.02-.23-.03c-.09,0-.17-.02-.26-.03-.09,0-.19-.02-.3-.03-.12-.01-.23-.04-.36-.07-.12-.03-.24-.07-.37-.13-.12-.05-.23-.12-.33-.21-.1-.09-.18-.2-.25-.33-.06-.13-.1-.28-.12-.47-.02-.27.02-.49.11-.67.09-.18.21-.33.37-.44.15-.11.33-.2.52-.25.19-.05.38-.09.57-.1.32-.02.62,0,.88.08s.52.2.77.36c.03.02.05.06.06.09,0,.04,0,.07-.02.11l-.41.67s-.05.05-.09.06-.07,0-.11-.02c-.21-.11-.39-.18-.57-.22-.17-.04-.33-.06-.47-.05-.04,0-.09,0-.15.01s-.11.02-.16.03c-.05.02-.09.04-.12.08s-.04.08-.04.13c0,.05.05.1.13.13.08.04.18.07.29.09.11.02.21.04.31.05.1.01.16.02.19.02.14.02.3.05.46.09.17.04.33.11.48.2s.28.22.39.37c.11.16.17.36.19.61.02.23-.01.43-.08.61-.07.17-.17.32-.31.44-.14.12-.31.21-.5.28-.2.07-.42.11-.67.12-.2.01-.39.01-.56,0s-.34-.05-.5-.1c-.15-.05-.3-.11-.43-.18-.13-.07-.26-.15-.37-.23-.03-.02-.05-.05-.06-.09s0-.08.02-.11l.4-.67s.05-.05.09-.06c.04-.01.07,0,.11,0Z"/>
          <path class="cls-5" d="m69.49,8.28l.02.24s.02.07.05.1c.03.02.06.04.1.03l1.57-.11s.07,0,.1.03c.03.02.04.06.05.09l.06.8s0,.07-.03.1c-.02.03-.06.04-.1.05l-1.57.11s-.07.02-.1.05c-.02.03-.04.06-.03.1l.02.22s.02.07.05.1c.03.03.06.04.1.03l1.8-.13s.07,0,.1.03c.03.02.04.06.05.09l.06.8s0,.07-.03.1c-.03.03-.06.05-.1.05l-2.95.21s-.07,0-.1-.03c-.03-.02-.04-.06-.05-.1l-.28-3.96s0-.07.03-.1c.02-.03.06-.04.1-.05l2.95-.21s.07,0,.1.03c.03.03.04.06.05.09l.05.79s0,.07-.03.1c-.03.03-.06.04-.1.05l-1.8.13s-.07.02-.1.05c-.02.03-.04.06-.03.1Z"/>
        </g>
        <g class="cls-22">
          <path class="cls-5" d="m35.91,19.11c.22.12.43.21.64.28.21.06.4.09.58.08.17-.01.3-.04.38-.1.09-.05.12-.13.12-.23,0-.05-.03-.09-.07-.11-.04-.03-.09-.05-.16-.06-.06-.01-.14-.02-.23-.03-.09,0-.17-.01-.26-.03-.09,0-.19-.02-.3-.03-.12-.01-.23-.04-.36-.07s-.24-.07-.37-.13c-.12-.05-.23-.12-.33-.21s-.18-.2-.25-.33c-.06-.13-.1-.28-.12-.47-.02-.27.02-.49.11-.67.09-.18.21-.33.37-.44.15-.11.33-.2.52-.25.19-.05.38-.09.57-.1.32-.02.62,0,.88.08.26.08.52.2.77.36.03.03.05.06.06.1,0,.04,0,.07-.02.11l-.41.67s-.05.05-.09.06c-.04,0-.07,0-.11-.02-.21-.11-.39-.18-.57-.22-.17-.04-.33-.06-.47-.05-.04,0-.09,0-.15.01s-.11.02-.16.03c-.05.02-.09.04-.12.08-.03.03-.04.08-.04.13,0,.05.05.1.13.14.08.04.18.07.29.09.11.02.21.04.31.05.1.01.16.02.19.02.14.02.3.04.46.09.17.04.33.11.48.2.15.09.28.22.39.37s.17.36.19.61c.02.23-.01.43-.08.61-.07.17-.17.32-.31.44-.14.12-.31.21-.5.28-.2.07-.42.11-.67.12-.2.01-.39.01-.56,0-.18-.02-.34-.05-.5-.1-.15-.05-.3-.11-.43-.18-.13-.07-.26-.15-.37-.23-.03-.02-.05-.05-.06-.09,0-.04,0-.08.02-.11l.4-.67s.05-.05.09-.06c.04,0,.07,0,.11.01Z"/>
          <path class="cls-5" d="m43.48,18.91c-.1.19-.21.36-.34.52-.12.16-.27.29-.43.41s-.34.21-.54.28c-.2.07-.42.12-.67.13-.31.02-.6-.02-.88-.11-.28-.1-.53-.24-.74-.42-.22-.18-.39-.4-.53-.66-.13-.26-.21-.54-.23-.84-.02-.3.02-.59.11-.86.1-.27.24-.52.43-.73.19-.21.41-.38.68-.52.26-.13.55-.21.86-.23.25-.02.49,0,.69.04.21.04.4.11.57.2.17.09.33.21.48.35.14.14.28.29.4.46.02.03.03.06.02.1,0,.04-.03.06-.06.08l-.8.38s-.08.02-.12,0c-.04-.01-.07-.03-.09-.06-.12-.17-.27-.3-.43-.38-.17-.08-.36-.12-.58-.1-.15.01-.28.05-.41.12-.12.07-.23.16-.32.27-.09.11-.16.23-.2.37-.04.14-.06.28-.05.42.01.15.05.29.11.41.06.13.15.24.25.34.1.09.22.17.36.22.13.05.27.07.42.06.21-.01.4-.08.56-.19.17-.11.29-.26.38-.42.02-.03.04-.06.08-.08.04-.02.07-.02.11,0l.84.27s.06.04.07.07c.01.03.01.07,0,.1Z"/>
          <path class="cls-5" d="m47.48,15.64l.28,3.96s0,.07-.03.1c-.02.03-.06.05-.1.05l-.87.06s-.08,0-.1-.03c-.03-.02-.04-.06-.04-.1l-.09-1.24s-.02-.07-.05-.09-.06-.04-.1-.03l-1.19.08s-.07.02-.1.05c-.02.03-.03.06-.03.1l.09,1.24s0,.07-.03.1c-.03.03-.06.04-.1.05l-.87.06s-.08,0-.1-.03c-.03-.03-.04-.06-.04-.1l-.28-3.96s0-.07.03-.1c.02-.03.06-.04.1-.05l.87-.06s.07,0,.1.03c.03.03.04.06.05.1l.1,1.37s.02.07.04.1c.03.02.06.04.1.03l1.19-.08s.07-.02.1-.05c.02-.03.04-.06.03-.1l-.1-1.37s0-.07.03-.1c.02-.03.06-.04.1-.05l.87-.06s.07,0,.1.03c.03.03.04.06.05.1Z"/>
          <path class="cls-5" d="m49.59,15.49s.04-.07.07-.1c.04-.03.07-.04.12-.05l.81-.06s.08,0,.12.03c.04.02.07.05.08.08l1.97,3.82s.02.07,0,.11-.06.06-.12.07l-.99.07s-.08,0-.12-.03c-.04-.02-.07-.05-.09-.08l-.18-.34s-.05-.06-.09-.08c-.04-.02-.08-.03-.12-.03l-1.22.08s-.08.02-.12.05c-.04.03-.06.06-.07.09l-.14.36s-.04.07-.07.1c-.03.03-.07.04-.11.05l-1,.07s-.04,0-.06,0c-.02,0-.04-.02-.05-.03-.01-.01-.02-.03-.03-.06,0-.02,0-.05.01-.08l1.4-4.04Zm.52,2.49l.51-.04s.07-.02.08-.04c.02-.03.01-.06,0-.09-.05-.09-.1-.2-.16-.33-.06-.13-.12-.24-.18-.35-.02-.03-.04-.05-.06-.05-.02,0-.04.02-.05.06l-.24.72s-.01.07,0,.09c.02.02.05.03.09.03Z"/>
          <path class="cls-5" d="m53.95,19.31l-.87.06s-.07,0-.1-.03c-.03-.02-.05-.06-.05-.1l-.28-3.96s0-.07.03-.1c.02-.03.06-.04.1-.05l1.8-.13c.22-.02.43,0,.63.07.19.06.36.16.51.28.14.13.26.28.35.46.09.18.14.38.16.61,0,.12,0,.25-.02.37s-.05.24-.1.35c-.05.11-.1.21-.17.31-.07.09-.15.17-.23.23-.03.03-.05.05-.06.09,0,.03,0,.06.03.09.16.18.33.37.5.56.18.19.33.37.47.53.03.03.03.06.02.1,0,.04-.03.06-.07.06l-1.08.08s-.08,0-.13-.02-.08-.04-.11-.07c-.13-.15-.27-.31-.4-.47-.13-.16-.26-.32-.4-.48-.02-.03-.06-.05-.1-.07-.04-.02-.08-.03-.12-.02h-.13s-.07.03-.1.06c-.03.03-.04.06-.03.1l.07.94s0,.07-.03.1c-.02.03-.06.05-.1.05Zm.12-2.3l.61-.04s.09-.02.14-.04.09-.05.13-.09c.04-.04.07-.09.09-.14.02-.06.03-.12.03-.19,0-.04-.01-.08-.03-.13-.02-.05-.04-.1-.08-.15-.04-.05-.08-.08-.14-.11-.06-.03-.13-.04-.21-.04l-.61.04s-.07.02-.1.05c-.03.03-.04.06-.03.1l.04.61s.02.07.05.1c.03.03.06.04.1.03Z"/>
          <path class="cls-5" d="m58.12,19.02l-.87.06s-.07,0-.1-.03c-.03-.02-.05-.06-.05-.1l-.28-3.96s0-.07.03-.1c.02-.03.06-.04.1-.05l1.8-.13c.22-.02.43,0,.63.07.19.06.36.16.51.28.14.13.26.28.35.46.09.18.14.38.16.61,0,.12,0,.25-.02.37s-.05.24-.1.35c-.05.11-.1.21-.17.31-.07.09-.15.17-.23.23-.03.03-.05.06-.06.09,0,.03,0,.06.03.09.16.18.33.37.5.56s.33.37.47.53c.03.03.03.06.02.1,0,.04-.03.06-.07.06l-1.08.08s-.08,0-.13-.02c-.05-.02-.08-.04-.11-.07-.13-.15-.27-.31-.4-.47-.13-.16-.26-.32-.4-.48-.02-.03-.06-.05-.1-.07-.04-.02-.08-.03-.12-.02h-.13s-.07.03-.1.06-.04.06-.03.1l.07.94s0,.07-.03.1c-.02.03-.06.04-.1.05Zm.12-2.3l.61-.04s.09-.01.14-.04.09-.05.13-.09c.04-.04.07-.09.09-.14.02-.06.03-.12.03-.19,0-.04-.01-.08-.03-.14-.02-.05-.04-.1-.08-.15-.04-.04-.08-.08-.14-.11-.06-.03-.13-.04-.21-.04l-.61.04s-.07.02-.1.05c-.03.03-.04.06-.03.1l.04.61s.02.07.05.1c.03.03.06.04.1.03Z"/>
          <path class="cls-5" d="m62.2,15.69l.02.24s.02.07.05.1c.03.02.06.04.1.03l1.57-.11s.07,0,.1.03c.03.02.04.06.05.09l.06.8s0,.07-.03.1c-.02.03-.06.04-.1.05l-1.57.11s-.07.02-.1.05c-.02.03-.04.06-.03.1l.02.22s.02.07.05.1c.03.03.06.04.1.03l1.8-.13s.07,0,.1.03c.03.02.04.06.05.09l.06.8s0,.07-.03.1c-.03.03-.06.04-.1.05l-2.95.21s-.07,0-.1-.03c-.03-.02-.04-.06-.05-.1l-.28-3.96s0-.07.03-.1c.02-.03.06-.04.1-.05l2.95-.21s.07,0,.1.03c.03.03.04.06.05.1l.05.79s0,.07-.03.1c-.03.03-.06.04-.1.05l-1.8.13s-.07.02-.1.05-.04.06-.03.1Z"/>
          <path class="cls-5" d="m68.32,17.37l.06.79s0,.07-.03.1c-.03.03-.06.04-.1.05l-2.89.2s-.08,0-.1-.03c-.03-.02-.04-.06-.04-.1l-.28-3.96s0-.07.03-.1c.02-.03.06-.04.1-.05l.87-.06s.07,0,.1.03c.03.03.04.06.05.1l.2,2.89s.02.07.04.1c.03.03.06.04.1.03l1.74-.12s.07,0,.1.03c.03.02.04.06.05.09Z"/>
          <path class="cls-5" d="m69.71,15.16l.02.24s.02.07.05.1c.03.02.06.04.1.03l1.57-.11s.07,0,.1.03c.03.02.04.06.05.09l.06.8s0,.07-.03.1c-.02.03-.06.04-.1.05l-1.57.11s-.07.02-.1.05c-.02.03-.04.06-.03.1l.02.22s.02.07.05.1c.03.03.06.04.1.03l1.8-.13s.07,0,.1.03c.03.02.04.06.05.09l.06.8s0,.07-.03.1c-.03.03-.06.04-.1.05l-2.95.21s-.07,0-.1-.03c-.03-.02-.04-.06-.05-.1l-.28-3.96s0-.07.03-.1c.02-.03.06-.04.1-.05l2.95-.21s.07,0,.1.03c.03.03.04.06.05.1l.06.79s0,.07-.03.1c-.03.03-.06.04-.1.05l-1.8.13s-.07.02-.1.05c-.02.03-.04.06-.03.1Z"/>
          <path class="cls-5" d="m73.79,17.92l-.87.06s-.08,0-.1-.03c-.03-.02-.04-.06-.04-.1l-.28-3.95s0-.07.03-.1c.02-.03.06-.04.1-.05l.87-.06s.07,0,.1.03c.03.03.04.06.05.1l.28,3.95s0,.07-.03.1c-.02.03-.06.04-.09.05Z"/>
          <path class="cls-5" d="m75.63,14.75l.02.24s.02.07.05.1c.03.02.06.04.1.03l1.57-.11s.07,0,.1.03c.03.02.04.06.05.1l.06.8s0,.07-.03.1c-.02.03-.06.04-.1.05l-1.57.11s-.07.02-.1.05c-.02.03-.04.06-.03.1l.02.22s.02.07.05.1c.03.03.06.04.1.03l1.8-.13s.07,0,.1.03c.03.02.04.06.05.09l.06.8s0,.07-.03.1c-.02.03-.06.04-.1.05l-2.95.21s-.07,0-.1-.03c-.03-.02-.04-.06-.05-.1l-.28-3.96s0-.07.03-.1c.02-.03.06-.04.1-.05l2.95-.21s.07,0,.1.03c.03.03.04.06.05.1l.05.79s0,.07-.03.1c-.03.03-.06.04-.1.05l-1.8.13s-.07.02-.1.05c-.02.03-.04.06-.03.1Z"/>
          <path class="cls-5" d="m79.67,17.51l-.87.06s-.07,0-.1-.03c-.03-.02-.04-.06-.05-.1l-.28-3.96s0-.07.03-.1c.02-.03.06-.04.1-.05l1.8-.13c.22-.02.43,0,.63.07.19.06.36.16.5.28.14.13.26.28.35.46.09.18.14.38.16.61,0,.12,0,.25-.02.37-.02.12-.05.24-.1.35-.05.11-.1.21-.17.3-.07.09-.15.17-.23.23-.03.03-.05.06-.05.09,0,.03,0,.06.03.09.16.18.33.37.5.56.18.19.33.37.47.53.03.03.03.06.02.1,0,.04-.03.06-.07.06l-1.08.08s-.08,0-.13-.02c-.05-.02-.08-.04-.11-.07-.13-.15-.27-.31-.4-.47-.13-.16-.26-.32-.4-.48-.02-.03-.06-.05-.1-.07s-.08-.03-.12-.02h-.13s-.07.03-.1.06c-.03.03-.04.06-.03.1l.07.94s0,.07-.03.1c-.02.03-.06.04-.1.05Zm.12-2.3l.61-.04s.09-.02.14-.04c.05-.02.09-.05.13-.09.04-.04.07-.09.09-.14.02-.06.03-.12.03-.19,0-.04-.01-.08-.03-.14-.02-.05-.04-.1-.08-.15-.04-.05-.08-.08-.14-.11-.06-.03-.13-.04-.21-.04l-.61.04s-.07.02-.09.05c-.03.03-.04.06-.03.1l.04.61s.02.07.05.1c.03.03.06.04.1.03Z"/>
          <path class="cls-5" d="m83.75,14.18l.02.24s.02.07.05.1c.03.02.06.04.1.03l1.57-.11s.07,0,.1.03c.03.02.04.06.05.09l.06.8s0,.07-.03.1c-.02.03-.06.04-.1.05l-1.57.11s-.07.02-.1.05c-.02.03-.04.06-.03.1l.02.22s.02.07.05.1c.03.03.06.04.1.03l1.8-.13s.07,0,.1.03c.03.02.04.06.05.1l.06.8s0,.07-.03.1c-.03.03-.06.05-.1.05l-2.95.21s-.07,0-.1-.03c-.03-.02-.04-.06-.05-.1l-.28-3.96s0-.07.03-.1c.02-.03.06-.04.1-.05l2.95-.21s.07,0,.1.03c.03.03.04.06.05.1l.06.79s0,.07-.03.1c-.03.03-.06.04-.1.05l-1.8.13s-.07.02-.1.05c-.02.03-.04.06-.03.1Z"/>
          <path class="cls-5" d="m90.47,12.64l.28,3.96s0,.07-.03.1c-.02.03-.06.04-.1.05l-.85.06s-.08,0-.12-.03c-.04-.02-.08-.04-.1-.07l-1.66-2.02s-.05-.04-.08-.03c-.02,0-.04.03-.03.07l.15,2.07s0,.07-.03.1c-.02.03-.06.05-.1.05l-.87.06s-.07,0-.1-.03c-.03-.02-.05-.06-.05-.1l-.28-3.96s0-.07.03-.1c.02-.03.06-.04.1-.05l.87-.06s.08,0,.12.02c.04.02.08.04.1.07l1.65,2.02s.05.04.08.04c.02,0,.04-.03.03-.07l-.15-2.07s0-.07.03-.1c.03-.03.06-.04.1-.05l.86-.06s.07,0,.1.03c.03.03.04.06.05.1Z"/>
        </g>
      </g>
    </g>
  </g>
</svg>