<?xml version="1.0" encoding="UTF-8"?>
<svg id="Laag_2" data-name="Laag 2" xmlns="http://www.w3.org/2000/svg" xmlns:xlink="http://www.w3.org/1999/xlink" viewBox="0 0 104.18 110.92">
  <defs>
    <style>
      .cls-1 {
        fill: none;
      }

      .cls-2 {
        clip-path: url(#clippath);
      }

      .cls-3 {
        fill: #fcd4b6;
      }

      .cls-4 {
        fill: #efe7db;
      }

      .cls-5 {
        fill: #998675;
      }

      .cls-6 {
        fill: #d9544e;
      }

      .cls-7 {
        fill: #429775;
      }

      .cls-8 {
        fill: #4159a5;
      }

      .cls-9 {
        fill: #5b7f38;
      }

      .cls-10 {
        fill: #547736;
      }

      .cls-11 {
        clip-path: url(#clippath-1);
      }

      .cls-12 {
        clip-path: url(#clippath-4);
      }

      .cls-13 {
        clip-path: url(#clippath-3);
      }

      .cls-14 {
        clip-path: url(#clippath-2);
      }

      .cls-15 {
        clip-path: url(#clippath-7);
      }

      .cls-16 {
        clip-path: url(#clippath-8);
      }

      .cls-17 {
        clip-path: url(#clippath-6);
      }

      .cls-18 {
        clip-path: url(#clippath-5);
      }

      .cls-19 {
        clip-path: url(#clippath-9);
      }

      .cls-20 {
        clip-path: url(#clippath-10);
      }

      .cls-21 {
        isolation: isolate;
      }
    </style>
    <clipPath id="clippath">
      <rect class="cls-1" y="11.18" width="104.18" height="99.74"/>
    </clipPath>
    <clipPath id="clippath-1">
      <rect class="cls-1" x="39.95" y="63.17" width="21.93" height="21.8"/>
    </clipPath>
    <clipPath id="clippath-2">
      <rect class="cls-1" x="8.99" y="79.6" width="12.1" height="4.47"/>
    </clipPath>
    <clipPath id="clippath-3">
      <rect class="cls-1" x="20.52" y="79.6" width="12.1" height="4.47"/>
    </clipPath>
    <clipPath id="clippath-4">
      <rect class="cls-1" x="18.62" y="76.56" width="11.8" height="4.36"/>
    </clipPath>
    <clipPath id="clippath-5">
      <rect class="cls-1" x="8.99" y="79.6" width="12.1" height="4.47"/>
    </clipPath>
    <clipPath id="clippath-6">
      <rect class="cls-1" x="20.52" y="79.6" width="12.1" height="4.47"/>
    </clipPath>
    <clipPath id="clippath-7">
      <rect class="cls-1" x="18.62" y="76.56" width="11.8" height="4.36"/>
    </clipPath>
    <clipPath id="clippath-8">
      <rect class="cls-1" x="70.45" y="78.89" width="12.1" height="4.47"/>
    </clipPath>
    <clipPath id="clippath-9">
      <rect class="cls-1" x="81.98" y="78.89" width="12.1" height="4.47"/>
    </clipPath>
    <clipPath id="clippath-10">
      <rect class="cls-1" x="80.08" y="75.85" width="11.8" height="4.36"/>
    </clipPath>
  </defs>
  <g id="Laag_1-2" data-name="Laag 1">
    <g id="Group_905" data-name="Group 905">
      <g id="Group_383" data-name="Group 383">
        <g id="Group_355-2" data-name="Group 355-2">
          <g class="cls-2">
            <g id="Group_354-2" data-name="Group 354-2">
              <path id="Path_11524-2" data-name="Path 11524-2" class="cls-6" d="m20.05,12.18s-2.24,1.23-2.78,3.12-.98,5.5-.98,5.5c0,0-.44,2.7-1.05,4.07s-4.76,9.77-4.76,9.77l-3.96,7.28-3.6,6.54S-.61,53.23.09,58.06c0,0,1.15,5.47,2.47,6.35s2.05,1.31,2.29,1.57c.46.52.74,1.18.78,1.87.03.91.09,3.77.09,3.77v8.25s-.04,2.09-1.1,2.31-2.54.19-2.63,1.68.02,5.5.09,5.81.21,1.38.91,1.88c.69.5,1.75.99,1.95,1.17s.8.89.9,1.5.14,1.97.14,1.97c0,0-.05,4.04,0,4.8s.17,2.55.17,2.55c0,0-.07,2.87-1.02,3.65s-1.42,1.06-2.18,1.25-1.26.22-1.32.95c-.04.5-.04,1.01,0,1.52l34.46-.31,44.86-.46,23.13-.27s-.12-1.22-2.76-2.16l-1.05-.37s-1.18-.32-.74-2.34c.16-1.23.14-2.47-.04-3.69-.31-2.12-.66-4.72-.51-5.7s.19-2.15,1.64-3.6c.4-.34.82-.65,1.26-.93.38-.21.68-.27.64-1.59,0,0-.19-.42-.1-1.82s.14-2.51.14-2.51c0,0,.02-1.83-.53-2.74-.33-.54-.82-.97-1.4-1.21l-1.02-.34s-.79-.1-.98-1.28-.11-3.97-.11-3.97c0,0,.02-3.78-.02-4.69s-.11-1.91-.11-1.91c0,0-.06-1.92.4-2.79s.72-1.42,2.05-2.56c.93-.85,1.71-1.85,2.3-2.95,0,0,.91-1.48,1.05-4.18,0,0,.15-3.75-1.9-6.77l-3.06-5.71-3.31-6.52-3.04-5.82s-3.67-6.34-4.25-7.22-2.5-3.59-2.49-5.35.09-2.6.09-2.6c0,0,.76-2.95-1.75-4.56,0,0-1.25-.83-4.22-.8s-7.97.06-7.97.06l-11.43.1-11.98.12-12.86.15-12.23.17s-1.87-.15-2.8.12l-.93.28Z"/>
              <path id="Path_11525" data-name="Path 11525" class="cls-4" d="m21.85,20.06s-1.7.48-2.01-1.02-.48-2.59,0-3.18.83-1.07,1.68-1.12,4.56-.2,4.56-.2l6.68-.2,6.55-.09h9.35s9.3.09,9.3.09l4.43-.07,6.73-.11,9.03-.19,2.66-.08s1.56-.19,2.32.63.41,3.12.41,3.12c0,0,.49,1.41-1.41,1.63s-4.61.04-4.61.04l-7.14.06-4.83.04-5.96.05-5.15.06-14.31.16-11.12.08-3.83.15-3.34.15Z"/>
              <path id="Path_11526-2" data-name="Path 11526-2" class="cls-4" d="m19.53,23.52s-.44-.9-1.56,1.37c-1.13,2.28-2.7,5.55-2.7,5.55l-3.12,6.4-4.27,8.69-2,4.07-1.12,2.28s1.57.87,2.97.72c1.4-.15,2.44-.26,3.83-2.29.57-1.15,1.07-2.34,1.5-3.55.56-1.69,2.33-6.64,2.33-6.64l1.36-3.65,1.34-3.56.9-2.4,1.11-3.06.65-1.95s.17-1.11-.27-1.46c-.28-.23-.61-.4-.95-.51"/>
              <path id="Path_11527-2" data-name="Path 11527-2" class="cls-4" d="m15.98,46.65l2.18-6.2,3.83-11.15.93-2.84s1.08-2.96,2.1-2.97,1.74.08,2.16.57.63.65.61,1.5-.6,2.6-.6,2.6l-.7,2.34-.5,1.46-.81,3.46-.95,3.89-1.08,4.26-.6,2.33-.85,3.27-.63,1.93s-.26,1-.98,1.3-2.21.22-2.21.22c0,0-1.97-.27-2.25-.41s-1.38-.21-.88-1.84"/>
              <path id="Path_11528-2" data-name="Path 11528-2" class="cls-4" d="m24.96,46.13l.87-3.26,1.19-4.45,1.9-7.65,1.28-5.34s.79-2.51,3.01-2.07,2.68,1.56,2.3,2.84-1.24,5.8-1.24,5.8l-.86,4.52-.82,4.56-.52,3.28-.46,3.41s-.33,4.09-1.2,4.33-3.96.35-3.96.35c0,0-2.96,1.03-2.4-2.05"/>
              <path id="Path_11529-2" data-name="Path 11529-2" class="cls-4" d="m38.08,25.11l-1.67,9.59-1.1,6.17-.87,4.32-.76,3.72s-.06,2.74.7,3.19,3.35.35,3.35.35c0,0,2.11.53,2.61-.35.5-.88.86-2.85,1.02-5.63s.95-11.41.95-11.41l.48-4.47.6-3.95s.44-2.95-1-3.12-2.22-.27-2.22-.27c0,0-1.61.25-2.07,1.85"/>
              <path id="Path_11530-2" data-name="Path 11530-2" class="cls-4" d="m46.83,23.53s-.99,1.27-1.24,4.27c-.25,3-.55,6.38-.55,6.38l-.59,6.14-.59,6.05s-1.08,5.07,1.36,5.61c0,0,1.58.91,2.63.56s1.78-.85,2.63-2.59.44-4.29.44-4.29v-7.56s-.11-8.8-.11-8.8c0,0,.29-4.28-.46-5.26,0,0-.53-.67-1.07-.73-.49-.03-.97-.03-1.46,0l-1.01.22Z"/>
              <path id="Path_11531-2" data-name="Path 11531-2" class="cls-4" d="m54.77,23.31c-.82.31-1.36,1.1-1.34,1.98,0,1.55.03,3.92.03,3.92l.03,3.21.09,5.79.03,2.78v2.33s-.02,2.55-.02,2.55l-.05,2.01s0,1.87.17,2.42.45,1.46,1.05,1.74,1.65.58,2.11.57,1.99.09,2.21-.18.85-.78,1.01-1.48.38-2.56.24-3.6-.94-7.08-.94-7.08l-.63-5.27-.35-3.49-.23-2.98-.21-2.64s-.33-2.09-1.1-2.56-1.64-.13-1.64-.13l-.47.13Z"/>
              <path id="Path_11532-2" data-name="Path 11532-2" class="cls-4" d="m60.54,27.22s-.61-2.31-.39-2.9.6-1.09,1.06-1.05,2.62-.25,2.62-.25c0,0,.93-.52,1.34.79.41,1.3,1.45,6.81,1.45,6.81l1.31,6.51,1.15,6.76.75,4.48s.62,3.41-.29,3.77-2.87.47-2.87.47h-1.65c-.73-.48-1.25-1.22-1.46-2.07-.4-1.47-1.38-7.58-1.38-7.58l-.63-6.14-.7-6.25-.29-3.36Z"/>
              <path id="Path_11533-2" data-name="Path 11533-2" class="cls-4" d="m69.06,23.25s-1.39.15-.72,2.63c.67,2.48,1.39,6.77,1.39,6.77l1.01,5.73.72,4.07.53,3.06.6,3.46s.59,3.83,2.8,3.64c1.38-.13,2.75-.37,4.1-.73,0,0,1.13-.65.22-3.48s-1.97-6.8-1.97-6.8l-1.65-6.24-1.35-4.53-.63-2.07-.76-2.55-.82-2.24s-.26-.93-1.18-.98-2.3.26-2.3.26"/>
              <path id="Path_11534-2" data-name="Path 11534-2" class="cls-4" d="m76.1,23.87s-.73.28,0,2.07c.53,1.38.98,2.8,1.34,4.24l1.93,7.57,1.44,5.66.8,3.2,1.03,3.56s.95,2.44,2.14,2.44c.77,0,1.54-.13,2.28-.36l2.58-.85s.61-.57-.26-1.95-2.53-6.51-2.53-6.51l-1.16-3.22-1.49-4.13-1.24-3.5-1.58-4.58-.65-1.95s-.51-2.42-1.8-2.51-2.83.81-2.83.81"/>
              <path id="Path_11535-2" data-name="Path 11535-2" class="cls-4" d="m82.65,23.32l6.66,17.91,1.93,5.37s1.1,3.75,2.14,4.22c.98.47,2.06.66,3.14.54.98-.13,1.45.11,1.86-.65s.79-1.96,0-3.11-1.82-2.87-1.82-2.87l-1.61-3.08-2.47-4.76-1.99-3.89-1.73-3.4-1.17-2.31-.78-1.55-1.02-1.68s-.42-.67-.98-.84-.74-.38-1.45-.14l-.71.24Z"/>
              <path id="Path_11536-2" data-name="Path 11536-2" class="cls-4" d="m13.04,98.93l-2.01-.03s-3.06.03-2.83,2.51.84,2.92,3.01,2.89c2.17-.03,82.6-.92,82.6-.92l1.92-.02s1,.44,1.1-.9c.05-.96,0-1.92-.15-2.87,0,0-.5-1.42-1.81-1.42s-81.84.76-81.84.76"/>
              <path id="Path_11537-2" data-name="Path 11537-2" class="cls-4" d="m13.97,91.51h-3.28s-2.22-.03-2.55,1.43c-.33,1.46-.03,2.37.59,2.89.62.52,3.28.94,3.28.94l11.01-.21,69.37-.77,2.16-.02s1.76.28,2.28-1.29.08-2.49-.4-2.96-1.11-.8-2.45-.77-80,.77-80,.77"/>
              <path id="Path_11538-2" data-name="Path 11538-2" class="cls-4" d="m13.23,106.25h-3.32s-2.24-.03-2.58,1.02-.03,1.7.6,2.07,3.32.68,3.32.68l11.13-.15,70.15-.55,2.18-.02s1.78.2,2.3-.93.08-1.78-.4-2.12-1.12-.57-2.48-.55-80.9.55-80.9.55"/>
            </g>
          </g>
        </g>
        <g id="Group_359-2" data-name="Group 359-2">
          <g id="Group_367-2" data-name="Group 367-2">
            <path id="Path_11548-2" data-name="Path 11548-2" class="cls-4" d="m11.16,84.07h-3.52s-2.38-.03-2.73,1.43c-.35,1.46-.03,2.37.63,2.89s3.52.94,3.52.94l11.81-.21,74.42-.77,2.32-.02s1.89.28,2.44-1.29.09-2.49-.43-2.96-1.19-.8-2.63-.77-85.83.77-85.83.77"/>
            <path id="Path_11549-2" data-name="Path 11549-2" class="cls-4" d="m2.67,54.42c-.99.88-1.41,2.24-1.09,3.53.53,2.24.66,2.73,1.16,3.45s1.01,1.58,1.65,1.92,1.03.79,1.95.4c.78-.33,1.5-.79,2.13-1.36.56-.5,1.1-1,1.69-1.12s1.06-.33,2.23.35c0,0,1.21,1.17,1.83,1.51s1.03.66,1.98.63,2.09-.74,2.82-2.26,1.11-2.54,1.48-2.82.48-.63,1.07.12.9,1.9.9,1.9c0,0,.51,1.18,1.37,1.52s1.72.7,2.8.52,1.49.1,2.6-1.8c0,0,.21-1.54.4-2.02s.28-.93.72-1.03.78-.17,1.43.31.68,1.61.68,1.61c0,0,.44,2.11,1.08,2.69s1.28,1.13,2.73.89,2.66-1.62,2.66-1.62c.26-.46.46-.95.59-1.45.18-.75-.11-1.52.44-1.78s.9-.33,1.35-.19,1.1,1.71,1.57,2.34,1.62,2.38,2.63,2.56c0,0,.9.58,1.68-.04.75-.57,1.38-1.3,1.83-2.13.42-.83.83-1.75.83-1.75,0,0,.29-1.21,1.06-1.19s1.08.72,1.34,1.21,1.1,1.9,1.71,2.37,1.38,1,2.01.99,1.42.13,2.58-.98c.67-.74,1.23-1.55,1.69-2.43l.6-.9s.49-.85,1.11.1,1.14,1.84,1.14,1.84c0,0,1.17,1.71,1.49,2.01s.99.99,1.87.92,2.03-.92,2.56-1.47,1.8-2.07,1.8-2.07l.45-.52s.6-.7,1.04,0c.44.7,1.14,2.19,1.62,2.69s1.1,1.05,1.59,1.15,1.37.38,2.54-.64c.68-.57,1.21-1.28,1.58-2.09,0,0,.63-1.72,1.17-2.01s1.27-.6,1.83-.04.65,2.17.65,2.17c0,0,.53,1.98,1.79,2.37,0,0,1.35.69,2.73-.06,1.38-.75,2.11-2.69,2.11-2.69l.84-1.92s.68-1.32,1.43-.48,1.43,2.91,1.43,2.91c0,0,.96,2.7,2.74,2.37,1.47-.27,2.77-1.13,3.59-2.39.37-.61.58-1.31.59-2.03l.08-1.71s-.04-1.29-.76-1.47-2.49-.12-2.49-.12l-14.64-.08-16.02-.19-21.69-.14-24.41-.1-17.89-.22Z"/>
          </g>
        </g>
      </g>
      <g id="Group_409" data-name="Group 409">
        <g class="cls-11">
          <g id="Group_408" data-name="Group 408">
            <path id="Path_11642" data-name="Path 11642" class="cls-8" d="m46.85,72.36c-.45.42-.82.9-1.1,1.45-.23.45-.41.92-.53,1.41-.44,1.74-2.27,4.09-2.27,4.09-2.14,2.73-3.37,4.3-2.91,5.13.25.45.93.57,1.36.52,0,0,.8-.1,2.67-2.88l1.34-1.3,1-1.33,1.12-1.88c.19.81.26,1.65.19,2.48-.05.6-.16,1.19-.34,1.76l.07,1.92h9.44c-.11-.28-.22-.57-.33-.88-.24-.71-.42-1.43-.55-2.16l.63-2.43.58-.93c.58,1.48,1.01,2.72,1.3,3.61.7,2.12.93,3.19,1.76,3.48.55.19,1.15-.05,1.58-.3-.07-1.63-.34-3.24-.79-4.8-.41-1.57-1.05-3.07-1.89-4.46-.36-.57-1.47-2.25-1.47-2.25,0,0-1.63.82-2.83.88s-3.59.16-4.35,0-2.28-.6-2.28-.6l-1.41-.49Z"/>
            <path id="Path_11643" data-name="Path 11643" class="cls-3" d="m46.85,72.36c2.69,1.14,5.64,1.54,8.54,1.16l2.33-.94c-.9-.93-1.68-1.22-2.13-1.32-.5-.12-1.08-.12-1.1-.07,0,.02,0,.05.02.07l-.09-.75c.29-.35.56-.72.79-1.11.39-.66.69-1.38.89-2.12v-.9s-.76-.51-.7-1.35-.32-.77-.32-.77c-.9,1.09-2.08,1.93-3.41,2.43-.19-.2-.44-.32-.72-.33-.13,0-.26.03-.38.09-.15.08-.27.21-.35.36-.13.23-.19.49-.16.75.34.61.61.74.8.73.26-.01.4-.28.58-.22.16.06.21.34.26.75.05.37.1.87.13,1.46l.27,1.03.04.6c-.54.02-1.08-.09-1.58-.3-.28-.13-.61-.32-1.05-.29-.21.01-.41.07-.59.16-.27.05-.53.12-.79.21-.46.17-.9.39-1.3.68"/>
            <path id="Path_11644" data-name="Path 11644" class="cls-7" d="m49.07,71.3l-.5,2.4-.25,2.2-.62,1.39c.01.92.02,1.83.03,2.75l-.34,1.76.07,1.92c1.66,0,2.92-.02,3.77-.04.51-.01,1.01-.02,1.73-.01.85.01,1.18.04,2.06.06.44,0,1.09.01,1.88,0,.11-1.94.22-3.88.33-5.82l-.5-1.4-.25-1.2v-3.6l-.08-.4h-1.07l-.34,2-.25.8v1.6h-3.22l-.87.08-.61-.08.25-3v-1l-.02-.4h-1.22Z"/>
            <path id="Path_11645" data-name="Path 11645" class="cls-5" d="m52.12,72.08c-.81-.09-1.6-.32-2.33-.67-.72-.37-1.4-.79-2.06-1.25,0,0-.31-.31.27-1.14s1.36-2.47,1.36-2.47l.93-1.37,1.52-1.45s.93-.75,2.06-.51c.76.18,1.48.49,2.14.9.35.42.57.94.62,1.49.04.67.04,1.34,0,2.02l-.23,1.2-.27,1.37-.27,1.25-.12.39s-.92-.07-1.17-.44c-.15-.27-.2-.59-.15-.9.26-.34.53-.71.79-1.11.15-.23.3-.46.43-.69l.21-.92.12-.98v-.48c-.3-.08-.53-.32-.58-.63-.12-.54-.27-1.28-.27-1.28-.27.28-.55.55-.85.79-.38.31-.78.6-1.2.85-.25.11-.49.22-.74.33l-.57.26c-.22.17-.33.17-.39.15-.19-.06-.16-.44-.48-.31s-.6.21-.6.63.33,1,.33,1c.14.04.28.05.42.03.19-.04.28-.13.41-.1.1.04.18.12.22.23l.15.99c-.01.39.02.79.1,1.17.08.28.14.57.18.85.03.26.03.52,0,.78"/>
          </g>
        </g>
      </g>
      <g id="Group_434" data-name="Group 434">
        <g class="cls-14">
          <g id="Group_433-5" data-name="Group 433-5">
            <path id="Path_11752-5" data-name="Path 11752-5" class="cls-9" d="m20.54,79.75s-.79-.19-1.22-.14c-.55.08-1.08.26-1.56.52-.58.28-1.19.51-1.81.69l-.29.08c-.6.07-1.21.11-1.81.12-.67-.02-2.14-.19-2.49-.23s-.78-.27-1.43.09c-.65.36-.87.55-.92,1.05-.02.44.17.87.52,1.15.29.25.99.72,1.58.76l.59.04s1.6.23,1.98.2c.74-.06,1.47-.17,2.2-.32.5-.13,2.74-.74,3.02-.95s1.54-.9,1.86-1.34.5-1.09.15-1.4"/>
            <path id="Path_11753-5" data-name="Path 11753-5" class="cls-10" d="m10.45,83.06s-.23.06,1.8-.07,3.32-.25,3.72-.38-1.31.54-1.96.61-2.22.24-2.88.2-.9-.05-.9-.05l-.11-.38.34.07Z"/>
            <path id="Path_11754-5" data-name="Path 11754-5" class="cls-10" d="m10.02,81.77s2,.25,2.87.18,3.69-.42,4.52-.62,2.41-1.04,2.41-1.04l.49-.34c-.07.17-.17.33-.3.47-.39.32-.82.59-1.28.8-.4.16-2.28.77-2.91.81s-4.61.24-5.1.18c-.37-.06-.74-.14-1.11-.25l.42-.18Z"/>
            <path id="Path_11755-5" data-name="Path 11755-5" class="cls-10" d="m20.7,80.29c-.13.25-.3.49-.5.69-.31.32-.75.85-1.63,1.08s-1.82.46-1.82.46c0,0,1.06.21,1.33.1s1.05-.25,1.65-.71,1.1-.73,1.03-1.18l-.07-.45Z"/>
          </g>
        </g>
      </g>
      <g id="Group_436" data-name="Group 436">
        <g class="cls-13">
          <g id="Group_435-5" data-name="Group 435-5">
            <path id="Path_11756-5" data-name="Path 11756-5" class="cls-9" d="m32.07,79.75s-.79-.19-1.22-.14c-.55.08-1.08.26-1.56.52-.58.28-1.19.51-1.81.69l-.29.08c-.6.07-1.21.11-1.81.12-.67-.02-2.14-.19-2.49-.23s-.78-.27-1.43.09c-.65.36-.87.55-.92,1.05-.02.44.17.87.52,1.15.29.25.99.72,1.58.76l.59.04s1.6.23,1.98.2c.74-.06,1.47-.17,2.2-.32.5-.13,2.74-.74,3.02-.95s1.54-.9,1.86-1.34.5-1.09.15-1.4"/>
            <path id="Path_11757-5" data-name="Path 11757-5" class="cls-10" d="m21.98,83.06s-.23.06,1.8-.07,3.32-.25,3.72-.38-1.31.54-1.96.61-2.22.24-2.88.2-.9-.05-.9-.05l-.11-.38.34.07Z"/>
            <path id="Path_11758-5" data-name="Path 11758-5" class="cls-10" d="m21.56,81.77s2,.25,2.87.18,3.69-.42,4.52-.62,2.41-1.04,2.41-1.04l.49-.34c-.07.17-.17.33-.3.47-.39.32-.82.59-1.28.8-.4.16-2.28.77-2.91.81s-4.61.24-5.1.18c-.37-.06-.74-.14-1.11-.25l.42-.18Z"/>
            <path id="Path_11759-5" data-name="Path 11759-5" class="cls-10" d="m32.23,80.29c-.13.25-.3.49-.5.69-.31.32-.75.85-1.63,1.08s-1.82.46-1.82.46c0,0,1.06.21,1.33.1s1.05-.25,1.65-.71,1.1-.73,1.03-1.18l-.07-.45Z"/>
          </g>
        </g>
      </g>
      <g id="Group_438" data-name="Group 438">
        <g class="cls-12">
          <g id="Group_437-6" data-name="Group 437-6">
            <path id="Path_11760-6" data-name="Path 11760-6" class="cls-9" d="m29.88,76.71s-.77-.18-1.19-.14c-.53.08-1.05.25-1.52.51-.57.27-1.16.5-1.77.67l-.28.07c-.59.07-1.18.11-1.77.12-.65-.02-2.08-.19-2.43-.23s-.76-.26-1.39.09-.85.54-.9,1.02c-.02.43.17.85.51,1.12.28.25.96.7,1.54.74l.58.04s1.56.22,1.93.2c.72-.06,1.44-.17,2.14-.31.49-.13,2.68-.72,2.94-.93s1.5-.88,1.81-1.3.49-1.06.14-1.36"/>
            <path id="Path_11761-6" data-name="Path 11761-6" class="cls-10" d="m20.04,79.94s-.23.06,1.76-.07,3.24-.24,3.63-.37-1.28.53-1.91.6-2.17.23-2.81.19-.88-.05-.88-.05l-.11-.37.33.07Z"/>
            <path id="Path_11762-6" data-name="Path 11762-6" class="cls-10" d="m19.63,78.68s1.95.24,2.8.17,3.6-.41,4.41-.6,2.35-1.01,2.35-1.01l.48-.33c-.07.17-.17.32-.3.46-.38.31-.8.58-1.25.78-.39.15-2.22.75-2.84.79s-4.5.23-4.98.17c-.37-.06-.73-.14-1.08-.25l.41-.18Z"/>
            <path id="Path_11763-6" data-name="Path 11763-6" class="cls-10" d="m30.04,77.23c-.13.25-.29.48-.48.68-.3.32-.73.83-1.59,1.05s-1.78.45-1.78.45c0,0,1.03.2,1.3.1s1.02-.24,1.61-.7,1.07-.71,1-1.15l-.06-.43Z"/>
          </g>
        </g>
      </g>
      <g id="Group_439" data-name="Group 439">
        <g class="cls-18">
          <g id="Group_433-6" data-name="Group 433-6">
            <path id="Path_11752-6" data-name="Path 11752-6" class="cls-9" d="m20.54,79.75s-.79-.19-1.22-.14c-.55.08-1.08.26-1.56.52-.58.28-1.19.51-1.81.69l-.29.08c-.6.07-1.21.11-1.81.12-.67-.02-2.14-.19-2.49-.23s-.78-.27-1.43.09c-.65.36-.87.55-.92,1.05-.02.44.17.87.52,1.15.29.25.99.72,1.58.76l.59.04s1.6.23,1.98.2c.74-.06,1.47-.17,2.2-.32.5-.13,2.74-.74,3.02-.95s1.54-.9,1.86-1.34.5-1.09.15-1.4"/>
            <path id="Path_11753-6" data-name="Path 11753-6" class="cls-10" d="m10.45,83.06s-.23.06,1.8-.07,3.32-.25,3.72-.38-1.31.54-1.96.61-2.22.24-2.88.2-.9-.05-.9-.05l-.11-.38.34.07Z"/>
            <path id="Path_11754-6" data-name="Path 11754-6" class="cls-10" d="m10.02,81.77s2,.25,2.87.18,3.69-.42,4.52-.62,2.41-1.04,2.41-1.04l.49-.34c-.07.17-.17.33-.3.47-.39.32-.82.59-1.28.8-.4.16-2.28.77-2.91.81s-4.61.24-5.1.18c-.37-.06-.74-.14-1.11-.25l.42-.18Z"/>
            <path id="Path_11755-6" data-name="Path 11755-6" class="cls-10" d="m20.7,80.29c-.13.25-.3.49-.5.69-.31.32-.75.85-1.63,1.08s-1.82.46-1.82.46c0,0,1.06.21,1.33.1s1.05-.25,1.65-.71,1.1-.73,1.03-1.18l-.07-.45Z"/>
          </g>
        </g>
      </g>
      <g id="Group_440" data-name="Group 440">
        <g class="cls-17">
          <g id="Group_435-6" data-name="Group 435-6">
            <path id="Path_11756-6" data-name="Path 11756-6" class="cls-9" d="m32.07,79.75s-.79-.19-1.22-.14c-.55.08-1.08.26-1.56.52-.58.28-1.19.51-1.81.69l-.29.08c-.6.07-1.21.11-1.81.12-.67-.02-2.14-.19-2.49-.23s-.78-.27-1.43.09c-.65.36-.87.55-.92,1.05-.02.44.17.87.52,1.15.29.25.99.72,1.58.76l.59.04s1.6.23,1.98.2c.74-.06,1.47-.17,2.2-.32.5-.13,2.74-.74,3.02-.95s1.54-.9,1.86-1.34.5-1.09.15-1.4"/>
            <path id="Path_11757-6" data-name="Path 11757-6" class="cls-10" d="m21.98,83.06s-.23.06,1.8-.07,3.32-.25,3.72-.38-1.31.54-1.96.61-2.22.24-2.88.2-.9-.05-.9-.05l-.11-.38.34.07Z"/>
            <path id="Path_11758-6" data-name="Path 11758-6" class="cls-10" d="m21.56,81.77s2,.25,2.87.18,3.69-.42,4.52-.62,2.41-1.04,2.41-1.04l.49-.34c-.07.17-.17.33-.3.47-.39.32-.82.59-1.28.8-.4.16-2.28.77-2.91.81s-4.61.24-5.1.18c-.37-.06-.74-.14-1.11-.25l.42-.18Z"/>
            <path id="Path_11759-6" data-name="Path 11759-6" class="cls-10" d="m32.23,80.29c-.13.25-.3.49-.5.69-.31.32-.75.85-1.63,1.08s-1.82.46-1.82.46c0,0,1.06.21,1.33.1s1.05-.25,1.65-.71,1.1-.73,1.03-1.18l-.07-.45Z"/>
          </g>
        </g>
      </g>
      <g id="Group_441" data-name="Group 441">
        <g class="cls-15">
          <g id="Group_437-7" data-name="Group 437-7">
            <path id="Path_11760-7" data-name="Path 11760-7" class="cls-9" d="m29.88,76.71s-.77-.18-1.19-.14c-.53.08-1.05.25-1.52.51-.57.27-1.16.5-1.77.67l-.28.07c-.59.07-1.18.11-1.77.12-.65-.02-2.08-.19-2.43-.23s-.76-.26-1.39.09-.85.54-.9,1.02c-.02.43.17.85.51,1.12.28.25.96.7,1.54.74l.58.04s1.56.22,1.93.2c.72-.06,1.44-.17,2.14-.31.49-.13,2.68-.72,2.94-.93s1.5-.88,1.81-1.3.49-1.06.14-1.36"/>
            <path id="Path_11761-7" data-name="Path 11761-7" class="cls-10" d="m20.04,79.94s-.23.06,1.76-.07,3.24-.24,3.63-.37-1.28.53-1.91.6-2.17.23-2.81.19-.88-.05-.88-.05l-.11-.37.33.07Z"/>
            <path id="Path_11762-7" data-name="Path 11762-7" class="cls-10" d="m19.63,78.68s1.95.24,2.8.17,3.6-.41,4.41-.6,2.35-1.01,2.35-1.01l.48-.33c-.07.17-.17.32-.3.46-.38.31-.8.58-1.25.78-.39.15-2.22.75-2.84.79s-4.5.23-4.98.17c-.37-.06-.73-.14-1.08-.25l.41-.18Z"/>
            <path id="Path_11763-7" data-name="Path 11763-7" class="cls-10" d="m30.04,77.23c-.13.25-.29.48-.48.68-.3.32-.73.83-1.59,1.05s-1.78.45-1.78.45c0,0,1.03.2,1.3.1s1.02-.24,1.61-.7,1.07-.71,1-1.15l-.06-.43Z"/>
          </g>
        </g>
      </g>
      <g id="Group_442" data-name="Group 442">
        <g class="cls-16">
          <g id="Group_433-7" data-name="Group 433-7">
            <path id="Path_11752-7" data-name="Path 11752-7" class="cls-9" d="m82,79.04s-.79-.19-1.22-.14c-.55.08-1.08.26-1.56.52-.58.28-1.19.51-1.81.69l-.29.08c-.6.07-1.21.11-1.81.12-.67-.02-2.14-.19-2.49-.23s-.78-.27-1.43.09c-.65.36-.87.55-.92,1.05-.02.44.17.87.52,1.15.29.25.99.72,1.58.76l.59.04s1.6.23,1.98.2c.74-.06,1.47-.17,2.2-.32.5-.13,2.74-.74,3.02-.95s1.54-.9,1.86-1.34.5-1.09.15-1.4"/>
            <path id="Path_11753-7" data-name="Path 11753-7" class="cls-10" d="m71.91,82.35s-.23.06,1.8-.07,3.32-.25,3.72-.38-1.31.54-1.96.61-2.22.24-2.88.2-.9-.05-.9-.05l-.11-.38.34.07Z"/>
            <path id="Path_11754-7" data-name="Path 11754-7" class="cls-10" d="m71.48,81.06s2,.25,2.87.18,3.69-.42,4.52-.62,2.41-1.04,2.41-1.04l.49-.34c-.07.17-.17.33-.3.47-.39.32-.82.59-1.28.8-.4.16-2.28.77-2.91.81s-4.61.24-5.1.18c-.37-.06-.74-.14-1.11-.25l.42-.18Z"/>
            <path id="Path_11755-7" data-name="Path 11755-7" class="cls-10" d="m82.16,79.58c-.13.25-.3.49-.5.69-.31.32-.75.85-1.63,1.08s-1.82.46-1.82.46c0,0,1.06.21,1.33.1s1.05-.25,1.65-.71,1.1-.73,1.03-1.18l-.07-.45Z"/>
          </g>
        </g>
      </g>
      <g id="Group_443" data-name="Group 443">
        <g class="cls-19">
          <g id="Group_435-7" data-name="Group 435-7">
            <path id="Path_11756-7" data-name="Path 11756-7" class="cls-9" d="m93.53,79.04s-.79-.19-1.22-.14c-.55.08-1.08.26-1.56.52-.58.28-1.19.51-1.81.69l-.29.08c-.6.07-1.21.11-1.81.12-.67-.02-2.14-.19-2.49-.23s-.78-.27-1.43.09c-.65.36-.87.55-.92,1.05-.02.44.17.87.52,1.15.29.25.99.72,1.58.76l.59.04s1.6.23,1.98.2c.74-.06,1.47-.17,2.2-.32.5-.13,2.74-.74,3.02-.95s1.54-.9,1.86-1.34.5-1.09.15-1.4"/>
            <path id="Path_11757-7" data-name="Path 11757-7" class="cls-10" d="m83.44,82.35s-.23.06,1.8-.07,3.32-.25,3.72-.38-1.31.54-1.96.61-2.22.24-2.88.2-.9-.05-.9-.05l-.11-.38.34.07Z"/>
            <path id="Path_11758-7" data-name="Path 11758-7" class="cls-10" d="m83.01,81.06s2,.25,2.87.18,3.69-.42,4.52-.62,2.41-1.04,2.41-1.04l.49-.34c-.07.17-.17.33-.3.47-.39.32-.82.59-1.28.8-.4.16-2.28.77-2.91.81s-4.61.24-5.1.18c-.37-.06-.74-.14-1.11-.25l.42-.18Z"/>
            <path id="Path_11759-7" data-name="Path 11759-7" class="cls-10" d="m93.69,79.58c-.13.25-.3.49-.5.69-.31.32-.75.85-1.63,1.08s-1.82.46-1.82.46c0,0,1.06.21,1.33.1s1.05-.25,1.65-.71,1.1-.73,1.03-1.18l-.07-.45Z"/>
          </g>
        </g>
      </g>
      <g id="Group_444" data-name="Group 444">
        <g class="cls-20">
          <g id="Group_437-8" data-name="Group 437-8">
            <path id="Path_11760-8" data-name="Path 11760-8" class="cls-9" d="m91.34,75.99s-.77-.18-1.19-.14c-.53.08-1.05.25-1.52.51-.57.27-1.16.5-1.77.67l-.28.07c-.59.07-1.18.11-1.77.12-.65-.02-2.08-.19-2.43-.23s-.76-.26-1.39.09-.85.54-.9,1.02c-.02.43.17.85.51,1.12.28.25.96.7,1.54.74l.58.04s1.56.22,1.93.2c.72-.06,1.44-.17,2.14-.31.49-.13,2.68-.72,2.94-.93s1.5-.88,1.81-1.3.49-1.06.14-1.36"/>
            <path id="Path_11761-8" data-name="Path 11761-8" class="cls-10" d="m81.5,79.22s-.23.06,1.76-.07,3.24-.24,3.63-.37-1.28.53-1.91.6-2.17.23-2.81.19-.88-.05-.88-.05l-.11-.37.33.07Z"/>
            <path id="Path_11762-8" data-name="Path 11762-8" class="cls-10" d="m81.09,77.96s1.95.24,2.8.17,3.6-.41,4.41-.6,2.35-1.01,2.35-1.01l.48-.33c-.07.17-.17.32-.3.46-.38.31-.8.58-1.25.78-.39.15-2.22.75-2.84.79s-4.5.23-4.98.17c-.37-.06-.73-.14-1.08-.25l.41-.18Z"/>
            <path id="Path_11763-8" data-name="Path 11763-8" class="cls-10" d="m91.5,76.52c-.13.25-.29.48-.48.68-.3.32-.73.83-1.59,1.05s-1.78.45-1.78.45c0,0,1.03.2,1.3.1s1.02-.24,1.61-.7,1.07-.71,1-1.15l-.06-.43Z"/>
          </g>
        </g>
      </g>
      <rect id="Rectangle_310" data-name="Rectangle 310" class="cls-8" x="26.72" y="2.3" width="53.59" height="17.75" transform="translate(-.77 4.71) rotate(-5)"/>
      <g id="Biologische_komkommers" data-name="Biologische komkommers" class="cls-21">
        <g class="cls-21">
          <path class="cls-4" d="m37.68,9.27c.05.02.1.05.15.09.05.04.1.08.15.13.05.05.08.12.12.19.03.07.05.16.06.25.02.2,0,.36-.05.49-.05.13-.12.24-.22.33-.1.09-.21.15-.35.19s-.28.07-.43.09l-1.43.12s-.06,0-.08-.03c-.02-.02-.04-.04-.04-.07l-.27-3.08s0-.06.02-.08c.02-.02.04-.04.07-.04l1.36-.12c.14-.01.28,0,.42.01.13.02.26.06.36.12.11.06.2.15.27.26.07.11.11.25.13.42.01.13-.01.25-.07.36-.06.1-.12.19-.2.25-.05.04-.04.08.02.1Zm-1.29-.24l.42-.04c.06,0,.11-.03.14-.08.03-.05.05-.1.04-.16,0-.05-.03-.1-.08-.13-.05-.04-.09-.05-.13-.05l-.43.04s-.05.02-.07.04c-.02.02-.03.05-.02.08l.02.21s.02.05.04.07c.02.02.05.03.08.02Zm.54.7l-.47.04s-.05.02-.07.04c-.02.02-.03.05-.03.08l.02.26s.02.05.04.07c.02.02.05.03.08.02l.5-.04c.05,0,.1-.03.15-.08.04-.05.06-.1.06-.16,0-.05-.03-.11-.08-.16s-.12-.07-.19-.07Z"/>
          <path class="cls-4" d="m39.55,10.81l-.68.06s-.06,0-.08-.02c-.02-.02-.03-.04-.04-.07l-.27-3.08s0-.06.02-.08c.02-.02.04-.04.08-.04l.68-.06s.06,0,.08.02.04.04.04.07l.27,3.08s0,.06-.02.08c-.02.02-.04.04-.07.04Z"/>
          <path class="cls-4" d="m39.97,9.12c-.02-.23,0-.46.08-.67.07-.22.18-.41.32-.58.14-.17.31-.31.51-.41.2-.11.42-.17.65-.19.23-.02.46,0,.67.08.21.07.41.18.58.32.17.14.31.31.41.51.11.2.17.42.19.65.02.23,0,.46-.08.67-.07.22-.18.41-.32.57-.14.17-.31.31-.51.42-.2.11-.42.17-.65.19-.23.02-.46,0-.67-.08-.22-.07-.41-.18-.57-.32-.17-.14-.3-.31-.41-.51-.11-.2-.17-.42-.19-.65Zm.89-.08c.01.11.04.22.09.32.05.1.12.18.2.25.08.07.17.13.28.16.1.04.21.05.32.04.11,0,.21-.04.31-.1.09-.06.18-.12.24-.21.07-.09.12-.18.15-.29s.04-.22.03-.33c0-.11-.04-.22-.09-.32s-.12-.18-.2-.25-.17-.12-.28-.16c-.1-.04-.21-.05-.32-.04-.11.01-.21.04-.31.1-.1.06-.18.12-.24.21-.07.08-.12.18-.15.29-.03.11-.04.22-.04.33Z"/>
          <path class="cls-4" d="m46.38,9.49l.05.61s0,.06-.02.08c-.02.02-.04.04-.07.04l-2.25.2s-.06,0-.08-.03c-.02-.02-.03-.04-.04-.07l-.27-3.08s0-.06.02-.08c.02-.02.04-.03.08-.04l.68-.06s.06,0,.08.02c.02.02.04.04.04.07l.2,2.25s.01.05.04.07c.02.02.05.03.08.02l1.36-.12s.06,0,.08.03c.02.02.04.04.04.07Z"/>
          <path class="cls-4" d="m46.28,8.56c-.02-.23,0-.46.08-.67.07-.22.18-.41.32-.58.14-.17.31-.31.51-.41.2-.11.42-.17.65-.19.23-.02.46,0,.67.08.21.07.41.18.57.32.17.14.31.31.41.51.11.2.17.42.19.65.02.23,0,.46-.08.67-.07.22-.18.41-.32.57-.14.17-.31.31-.51.42-.2.11-.42.17-.65.19-.23.02-.46,0-.67-.08-.22-.07-.41-.18-.57-.32-.17-.14-.3-.31-.41-.51-.11-.2-.17-.42-.19-.65Zm.89-.08c.01.11.04.22.09.32.05.1.12.18.2.25.08.07.17.13.28.16.1.04.21.05.32.04.11,0,.21-.04.31-.1.09-.06.18-.12.24-.21.07-.09.12-.18.15-.29s.04-.22.03-.33c0-.11-.04-.22-.09-.32s-.12-.18-.2-.25-.17-.12-.28-.16c-.1-.04-.21-.05-.32-.04-.11.01-.21.04-.31.1-.1.06-.18.12-.24.21-.07.08-.12.18-.15.29-.03.11-.04.22-.04.33Z"/>
          <path class="cls-4" d="m51.89,9.79c-.24.02-.47,0-.69-.08-.22-.07-.41-.18-.58-.32-.17-.14-.31-.31-.42-.51-.11-.2-.18-.42-.2-.65-.02-.23,0-.46.08-.67.07-.22.18-.41.33-.58.14-.17.32-.31.52-.42.2-.11.42-.17.66-.19.33-.03.62.01.88.13.26.11.47.28.65.51.02.02.02.05.02.08,0,.03-.02.06-.04.07l-.51.39s-.05.02-.08.02c-.03,0-.06-.01-.08-.04-.1-.11-.22-.19-.34-.25-.12-.06-.26-.08-.42-.07-.11.01-.22.04-.32.1-.1.06-.18.12-.25.21-.07.08-.12.18-.15.29-.03.11-.05.22-.04.33.01.11.04.22.09.32.05.1.12.18.2.25.08.07.18.12.28.16.1.04.21.05.33.04.11,0,.22-.04.33-.09.11-.05.19-.13.25-.23.01-.03.01-.05,0-.07-.01-.02-.04-.03-.07-.02l-.52.05s-.06,0-.08-.02-.04-.04-.04-.07l-.05-.54s0-.06.03-.08.04-.04.07-.04l1.55-.14s.06,0,.08.02.04.04.05.08c.01.05.02.11.03.19,0,.07,0,.15,0,.23,0,.21-.04.41-.12.59-.08.19-.19.35-.33.49-.14.14-.31.26-.49.35-.19.09-.39.15-.61.16Z"/>
          <path class="cls-4" d="m54.84,9.48l-.68.06s-.06,0-.08-.02c-.02-.02-.03-.04-.04-.07l-.27-3.08s0-.06.02-.08c.02-.02.04-.04.08-.04l.68-.06s.06,0,.08.02c.02.02.04.04.04.07l.27,3.08s0,.06-.02.08-.04.04-.07.04Z"/>
          <path class="cls-4" d="m55.83,8.25c.17.09.34.16.5.21.16.05.32.06.45.05.13-.01.23-.04.3-.08.07-.04.1-.1.09-.18,0-.04-.02-.07-.05-.09-.03-.02-.07-.04-.12-.05s-.11-.02-.18-.02c-.07,0-.14,0-.21-.02-.07,0-.15-.01-.24-.02-.09,0-.18-.02-.28-.05-.1-.02-.19-.06-.29-.09-.1-.04-.18-.09-.26-.16-.08-.07-.14-.15-.2-.25s-.08-.22-.1-.36c-.02-.21,0-.38.08-.52.07-.14.16-.26.28-.35.12-.09.25-.16.4-.2.15-.05.3-.07.44-.09.25-.02.48,0,.69.05.21.06.41.15.6.27.03.02.04.04.05.07,0,.03,0,.06-.02.08l-.31.53s-.04.04-.07.05c-.03,0-.06,0-.08-.01-.16-.08-.31-.14-.45-.17-.14-.03-.26-.04-.37-.03-.03,0-.07,0-.11.01-.04,0-.08.02-.12.03-.04.01-.07.03-.09.06-.02.03-.03.06-.03.1,0,.04.04.08.1.1.07.03.14.05.22.07.08.02.16.03.24.04s.12.01.15.01c.11.01.23.03.36.06s.26.08.38.15c.12.07.22.17.31.29.09.12.14.28.16.47.02.18,0,.34-.05.47-.05.14-.13.25-.24.35-.11.09-.24.17-.39.22-.15.05-.33.09-.52.11-.16.01-.3.01-.44,0s-.27-.04-.39-.07c-.12-.03-.23-.08-.34-.13s-.2-.11-.29-.17c-.03-.02-.04-.04-.05-.07,0-.03,0-.06.02-.09l.3-.53s.04-.04.07-.05c.03,0,.06,0,.08,0Z"/>
          <path class="cls-4" d="m61.72,7.99c-.08.15-.16.28-.25.41-.09.12-.2.23-.33.32-.12.09-.26.17-.42.23-.16.06-.33.1-.52.11-.24.02-.47,0-.69-.08-.22-.07-.41-.18-.58-.32-.17-.14-.31-.31-.42-.51-.11-.2-.17-.42-.19-.65-.02-.23,0-.46.08-.67.07-.21.18-.41.32-.57.14-.17.32-.31.52-.41.2-.11.42-.17.66-.19.2-.02.38-.01.54.02.16.03.31.08.45.15.14.07.26.16.37.26.11.11.22.22.32.36.02.02.02.05.02.08,0,.03-.02.05-.05.06l-.62.31s-.06.02-.09,0c-.03,0-.05-.03-.07-.05-.1-.13-.21-.23-.34-.29-.13-.06-.28-.09-.46-.07-.11,0-.22.04-.32.1-.1.06-.18.13-.25.22-.07.09-.12.18-.15.29-.03.11-.04.22-.03.33.01.11.04.22.09.32.05.1.12.19.2.26s.18.13.28.17c.1.04.21.05.33.04.17-.01.31-.07.44-.16.13-.09.22-.2.29-.34.01-.03.03-.05.06-.06.03-.01.06-.02.09,0l.66.2s.05.03.06.05c.01.03.01.05,0,.08Z"/>
          <path class="cls-4" d="m64.8,5.39l.27,3.08s0,.06-.03.08c-.02.02-.04.04-.07.04l-.68.06s-.06,0-.08-.03c-.02-.02-.03-.04-.04-.07l-.08-.96s-.02-.06-.04-.07c-.02-.02-.05-.03-.08-.02l-.92.08s-.06.02-.08.04c-.02.02-.02.05-.02.08l.08.96s0,.06-.03.08c-.02.02-.04.04-.07.04l-.67.06s-.06,0-.08-.02c-.02-.02-.03-.04-.04-.07l-.27-3.08s0-.06.02-.08c.02-.02.04-.04.08-.04l.67-.06s.06,0,.08.02c.02.02.04.04.04.07l.09,1.06s.01.05.04.07c.02.02.05.03.08.02l.92-.08s.05-.01.07-.04.03-.05.02-.08l-.09-1.06s0-.06.02-.08c.02-.02.04-.03.08-.04l.68-.06s.06,0,.08.02c.02.02.04.04.04.07Z"/>
          <path class="cls-4" d="m66.38,6.09l.02.19s.02.05.04.07c.02.02.05.03.08.02l1.22-.11s.06,0,.08.03c.02.02.04.04.04.07l.05.62s0,.06-.03.08-.04.04-.07.04l-1.22.11s-.06.02-.07.04c-.02.02-.03.05-.02.08l.02.17s.02.05.04.07c.02.02.05.03.08.02l1.4-.12s.06,0,.08.03c.02.02.04.04.04.07l.05.62s0,.06-.02.08c-.02.02-.04.04-.07.04l-2.29.2s-.06,0-.08-.03c-.02-.02-.04-.04-.04-.07l-.27-3.08s0-.06.03-.08c.02-.02.04-.04.07-.04l2.29-.2s.06,0,.08.02c.02.02.04.04.04.07l.05.61s0,.06-.03.08c-.02.02-.04.04-.07.04l-1.4.12s-.05.02-.07.04c-.02.02-.03.05-.02.08Z"/>
        </g>
        <g class="cls-21">
          <path class="cls-4" d="m37.21,16.32l-.96-.9s-.04-.03-.05-.02c-.01,0-.02.03-.02.06l.08.92s0,.06-.02.08c-.02.02-.04.04-.07.04l-.68.06s-.06,0-.08-.03c-.02-.02-.03-.04-.04-.07l-.27-3.08s0-.06.02-.08c.02-.02.04-.04.08-.04l.68-.06s.06,0,.08.02c.02.02.04.04.04.07l.09,1.04s.01.05.02.05c.01,0,.03,0,.04-.03l.72-1.15s.04-.05.07-.07c.03-.02.06-.03.1-.03l.86-.08s.06,0,.07.04,0,.05,0,.08l-1.05,1.59s-.02.05-.02.09.02.06.04.08c.11.1.23.21.35.32.12.11.25.22.37.33.12.11.24.22.36.33.12.11.23.21.34.3.02.02.03.05.03.08,0,.03-.02.05-.05.05l-.93.08s-.07,0-.1-.01c-.04-.01-.06-.03-.08-.05Z"/>
          <path class="cls-4" d="m38.11,14.66c-.02-.23,0-.46.08-.67.07-.22.18-.41.32-.58.14-.17.31-.31.51-.41.2-.11.42-.17.65-.19.23-.02.46,0,.67.08.21.07.41.18.57.32.17.14.31.31.41.51.11.2.17.42.19.65s0,.46-.08.67c-.07.22-.18.41-.32.57-.14.17-.31.31-.51.42-.2.11-.42.17-.65.19-.23.02-.46,0-.67-.08-.22-.07-.41-.18-.57-.32-.17-.14-.3-.31-.41-.51s-.17-.42-.19-.65Zm.89-.08c.01.11.04.22.09.32.05.1.12.18.2.26.08.07.17.13.27.16.1.04.21.05.32.04.11-.01.21-.04.31-.1.09-.06.18-.13.24-.21.07-.08.12-.18.15-.29.03-.11.04-.22.03-.33,0-.11-.04-.22-.09-.32-.05-.1-.12-.18-.2-.25-.08-.07-.17-.12-.28-.16s-.21-.05-.32-.04c-.11,0-.21.04-.31.1-.1.06-.18.12-.24.21-.07.08-.12.18-.15.29s-.04.22-.03.33Z"/>
          <path class="cls-4" d="m45.53,12.46l.27,3.08s0,.06-.02.08c-.02.02-.04.04-.07.04l-.68.06s-.06,0-.08-.03c-.02-.02-.04-.04-.04-.07l-.13-1.45s-.02-.05-.05-.05c-.03,0-.05.01-.06.04l-.65,1.29s-.04.04-.07.04c-.03,0-.06,0-.08-.03l-.87-1.15s-.04-.03-.07-.03c-.03,0-.04.02-.04.05l.13,1.45s0,.06-.02.08c-.02.02-.04.04-.07.04l-.68.06s-.06,0-.08-.03c-.02-.02-.04-.04-.04-.07l-.27-3.08s0-.06.03-.08c.02-.02.04-.04.07-.04l.63-.05s.06,0,.1.02c.03.02.06.03.08.06l.98,1.19s.04.03.07.03c.02,0,.04-.02.06-.04l.76-1.35s.04-.05.07-.07c.03-.02.06-.03.09-.04l.63-.05s.06,0,.08.03c.02.02.04.04.04.07Z"/>
          <path class="cls-4" d="m48.36,15.34l-.96-.9s-.04-.03-.05-.02-.02.03-.02.06l.08.92s0,.06-.03.08-.04.04-.07.04l-.68.06s-.06,0-.08-.02c-.02-.02-.03-.04-.04-.07l-.27-3.08s0-.06.02-.08.04-.04.08-.04l.68-.06s.06,0,.08.03c.02.02.04.04.04.07l.09,1.04s.01.05.02.05c.01,0,.03,0,.04-.03l.72-1.15s.04-.05.07-.07.06-.03.1-.03l.86-.08s.06,0,.07.04c.01.03,0,.05,0,.08l-1.05,1.59s-.02.05-.02.09.02.06.04.08c.11.1.23.21.35.32.12.11.25.22.37.33.12.11.24.22.36.33.12.11.23.21.34.3.02.02.03.05.03.08,0,.03-.02.05-.05.05l-.93.08s-.07,0-.1-.01c-.04-.01-.06-.03-.08-.05Z"/>
          <path class="cls-4" d="m49.26,13.68c-.02-.23,0-.46.08-.67.07-.22.18-.41.32-.58s.31-.31.51-.41c.2-.11.42-.17.65-.19s.46,0,.67.08c.22.07.41.18.58.32s.31.31.41.51c.11.2.17.42.19.65.02.23,0,.46-.08.67s-.18.41-.32.57c-.14.17-.31.31-.51.42-.2.11-.42.17-.65.19-.23.02-.46,0-.67-.08-.22-.07-.41-.18-.57-.32-.17-.14-.3-.31-.41-.51-.11-.2-.17-.42-.19-.65Zm.89-.08c.01.11.04.22.09.32.05.1.12.18.2.25s.17.13.28.16c.1.04.21.05.32.04.11,0,.21-.04.31-.1.09-.06.18-.13.24-.21.07-.08.12-.18.15-.29.03-.11.04-.22.03-.33-.01-.11-.04-.22-.09-.32s-.12-.18-.2-.25c-.08-.07-.17-.12-.28-.16-.1-.04-.21-.05-.32-.04-.11.01-.21.04-.31.1-.09.06-.18.12-.24.21-.07.08-.12.18-.15.29-.03.11-.04.22-.04.33Z"/>
          <path class="cls-4" d="m56.68,11.49l.27,3.08s0,.06-.02.08c-.02.02-.04.04-.07.04l-.68.06s-.06,0-.08-.03c-.02-.02-.04-.04-.04-.07l-.13-1.45s-.02-.05-.04-.05c-.03,0-.05.01-.07.04l-.65,1.29s-.04.04-.07.04c-.03,0-.06,0-.08-.03l-.87-1.15s-.04-.03-.07-.03c-.03,0-.04.02-.04.05l.13,1.45s0,.06-.02.08c-.02.02-.04.04-.07.04l-.68.06s-.06,0-.08-.03c-.02-.02-.04-.04-.04-.07l-.27-3.08s0-.06.03-.08c.02-.02.04-.04.07-.04l.63-.06s.06,0,.1.02c.03.02.06.03.08.06l.98,1.19s.04.03.07.03c.02,0,.04-.02.06-.04l.76-1.35s.04-.05.07-.07c.03-.02.06-.03.09-.04l.63-.05s.06,0,.08.02c.02.02.04.04.04.07Z"/>
          <path class="cls-4" d="m61.07,11.1l.27,3.08s0,.06-.03.08c-.02.02-.04.04-.07.04l-.68.06s-.06,0-.08-.03c-.02-.02-.04-.04-.04-.07l-.13-1.45s-.02-.05-.05-.05-.05.01-.06.04l-.65,1.29s-.04.04-.07.04c-.03,0-.06,0-.08-.03l-.87-1.15s-.04-.03-.07-.03c-.03,0-.04.02-.04.05l.13,1.45s0,.06-.03.08c-.02.02-.04.04-.07.04l-.68.06s-.06,0-.08-.03c-.02-.02-.04-.04-.04-.07l-.27-3.08s0-.06.03-.08c.02-.02.04-.04.07-.04l.63-.05s.06,0,.1.02c.03.02.06.03.08.06l.98,1.19s.04.03.07.03c.02,0,.04-.02.06-.04l.76-1.35s.04-.05.07-.07c.03-.02.06-.03.09-.04l.63-.05s.06,0,.08.03c.02.02.04.04.04.07Z"/>
          <path class="cls-4" d="m62.75,11.79l.02.19s.02.05.04.07c.02.02.05.03.08.03l1.22-.11s.06,0,.08.02.04.04.04.07l.05.62s0,.06-.03.08c-.02.02-.04.04-.07.04l-1.22.11s-.05.02-.07.04c-.02.02-.03.05-.03.08l.02.17s.02.05.04.07c.02.02.05.03.08.02l1.4-.12s.06,0,.08.02c.02.02.04.04.04.07l.05.62s0,.06-.03.08c-.02.02-.04.04-.07.04l-2.29.2s-.06,0-.08-.02c-.02-.02-.04-.04-.04-.07l-.27-3.08s0-.06.02-.08c.02-.02.04-.04.07-.04l2.29-.2s.06,0,.08.02c.02.02.04.04.04.07l.05.61s0,.06-.02.08c-.02.02-.04.04-.07.04l-1.4.12s-.06.02-.07.04c-.02.02-.03.05-.02.08Z"/>
          <path class="cls-4" d="m65.93,13.89l-.67.06s-.06,0-.08-.02c-.02-.02-.04-.04-.04-.07l-.27-3.08s0-.06.02-.08c.02-.02.04-.04.07-.04l1.4-.12c.17-.02.34,0,.49.05.15.05.29.12.4.21s.2.21.28.35.11.3.13.47c0,.1,0,.19,0,.29-.01.1-.04.19-.07.28-.04.09-.08.17-.13.24-.05.07-.11.13-.18.19-.02.02-.04.04-.04.07,0,.03,0,.05.02.07.13.14.26.28.4.43.14.15.27.28.38.41.02.02.03.05.02.08,0,.03-.02.05-.05.05l-.84.07s-.06,0-.1-.02c-.04-.01-.06-.03-.08-.05-.11-.12-.21-.24-.32-.36-.11-.12-.21-.24-.31-.37-.02-.02-.05-.04-.08-.05-.03-.01-.07-.02-.1-.02h-.1s-.05.02-.07.05c-.02.02-.03.05-.03.08l.06.73s0,.06-.02.08c-.02.02-.04.04-.07.04Zm.06-1.79l.48-.04s.07-.01.11-.03c.04-.02.07-.04.1-.07s.05-.07.07-.11c.02-.04.02-.09.02-.15,0-.03-.01-.06-.02-.1-.01-.04-.04-.08-.06-.11-.03-.04-.07-.06-.11-.09-.05-.02-.1-.03-.16-.02l-.48.04s-.05.02-.07.04c-.02.02-.03.05-.02.08l.04.48s.02.05.04.07c.02.02.05.03.08.02Z"/>
          <path class="cls-4" d="m68.66,12.51c.17.09.34.16.5.21.16.05.32.06.45.05.13-.01.23-.04.3-.08.07-.04.1-.1.09-.18,0-.04-.02-.07-.05-.09-.03-.02-.07-.04-.12-.05-.05-.01-.11-.02-.18-.02-.07,0-.14,0-.21-.02-.07,0-.15-.01-.24-.02-.09,0-.18-.03-.28-.05-.1-.02-.19-.05-.29-.09-.1-.04-.18-.09-.26-.16s-.14-.15-.2-.25c-.05-.1-.09-.22-.1-.36-.02-.21,0-.38.08-.52.07-.14.16-.26.28-.35s.25-.16.4-.2c.15-.04.3-.07.44-.09.25-.02.48,0,.69.05.21.06.41.15.6.27.03.02.04.04.05.07,0,.03,0,.06-.02.08l-.31.53s-.04.04-.07.05-.06,0-.08-.01c-.16-.08-.31-.14-.45-.17-.14-.03-.26-.04-.37-.03-.03,0-.07,0-.11.01-.04,0-.08.02-.12.03s-.07.03-.09.06-.03.06-.03.1c0,.04.04.08.1.1s.14.05.22.07c.08.02.16.03.24.04.08,0,.13.01.15.01.11.01.23.03.36.06.13.03.26.08.38.15.12.07.22.17.31.29s.14.28.16.47c.02.18,0,.34-.05.47-.05.14-.13.25-.24.35-.1.09-.23.17-.39.22s-.33.09-.52.11c-.16.01-.3.01-.44,0-.14-.01-.27-.04-.39-.07s-.23-.08-.34-.13c-.11-.05-.2-.11-.29-.17-.03-.02-.04-.04-.05-.07,0-.03,0-.06.02-.08l.3-.53s.04-.04.07-.05c.03,0,.06,0,.08,0Z"/>
        </g>
      </g>
    </g>
  </g>
</svg>