<?xml version="1.0" encoding="UTF-8"?>
<svg id="Laag_2" data-name="Laag 2" xmlns="http://www.w3.org/2000/svg" xmlns:xlink="http://www.w3.org/1999/xlink" viewBox="0 0 104.18 106.57">
  <defs>
    <style>
      .cls-1 {
        fill: none;
      }

      .cls-2 {
        clip-path: url(#clippath);
      }

      .cls-3 {
        fill: #efe7db;
      }

      .cls-4 {
        fill: #744f23;
      }

      .cls-5 {
        fill: #d9544e;
      }

      .cls-6 {
        fill: #d98a6b;
      }

      .cls-7 {
        fill: #429775;
      }

      .cls-8 {
        fill: #4159a5;
      }

      .cls-9 {
        fill: #5b7f38;
      }

      .cls-10 {
        fill: #547736;
      }

      .cls-11 {
        clip-path: url(#clippath-1);
      }

      .cls-12 {
        clip-path: url(#clippath-4);
      }

      .cls-13 {
        clip-path: url(#clippath-3);
      }

      .cls-14 {
        clip-path: url(#clippath-2);
      }

      .cls-15 {
        clip-path: url(#clippath-7);
      }

      .cls-16 {
        clip-path: url(#clippath-8);
      }

      .cls-17 {
        clip-path: url(#clippath-6);
      }

      .cls-18 {
        clip-path: url(#clippath-5);
      }

      .cls-19 {
        clip-path: url(#clippath-9);
      }

      .cls-20 {
        clip-path: url(#clippath-14);
      }

      .cls-21 {
        clip-path: url(#clippath-13);
      }

      .cls-22 {
        clip-path: url(#clippath-12);
      }

      .cls-23 {
        clip-path: url(#clippath-10);
      }

      .cls-24 {
        clip-path: url(#clippath-15);
      }

      .cls-25 {
        clip-path: url(#clippath-11);
      }

      .cls-26 {
        isolation: isolate;
      }
    </style>
    <clipPath id="clippath">
      <rect class="cls-1" y="6.83" width="104.18" height="99.74"/>
    </clipPath>
    <clipPath id="clippath-1">
      <rect class="cls-1" x="20.75" y="9.34" width="62.68" height="6.17"/>
    </clipPath>
    <clipPath id="clippath-2">
      <rect class="cls-1" x="37.37" y="57.74" width="22.98" height="22.84"/>
    </clipPath>
    <clipPath id="clippath-3">
      <rect class="cls-1" x="66.1" y="77" width="5.56" height="2.06"/>
    </clipPath>
    <clipPath id="clippath-4">
      <rect class="cls-1" x="71.41" y="77" width="5.56" height="2.06"/>
    </clipPath>
    <clipPath id="clippath-5">
      <rect class="cls-1" x="70.53" y="75.6" width="5.43" height="2"/>
    </clipPath>
    <clipPath id="clippath-6">
      <rect class="cls-1" x="76.97" y="77" width="5.56" height="2.06"/>
    </clipPath>
    <clipPath id="clippath-7">
      <rect class="cls-1" x="82.27" y="77" width="5.56" height="2.06"/>
    </clipPath>
    <clipPath id="clippath-8">
      <rect class="cls-1" x="81.4" y="75.6" width="5.43" height="2"/>
    </clipPath>
    <clipPath id="clippath-9">
      <rect class="cls-1" x="75.84" y="75.55" width="5.56" height="2.06"/>
    </clipPath>
    <clipPath id="clippath-10">
      <rect class="cls-1" x="20.7" y="74.27" width="2.06" height="5.56" transform="translate(-57.28 64.18) rotate(-65)"/>
    </clipPath>
    <clipPath id="clippath-11">
      <rect class="cls-1" x="80.23" y="74.13" width="5.43" height="2"/>
    </clipPath>
    <clipPath id="clippath-12">
      <rect class="cls-1" x="15.77" y="77.63" width="5.43" height="2"/>
    </clipPath>
    <clipPath id="clippath-13">
      <rect class="cls-1" x="26.47" y="77.58" width="5.43" height="2"/>
    </clipPath>
    <clipPath id="clippath-14">
      <rect class="cls-1" x="20.91" y="77.58" width="5.56" height="2.06"/>
    </clipPath>
    <clipPath id="clippath-15">
      <rect class="cls-1" x="26.52" y="74.22" width="2.06" height="5.56" transform="translate(-51.56 97.73) rotate(-85)"/>
    </clipPath>
  </defs>
  <g id="Laag_1-2" data-name="Laag 1">
    <g id="Group_904" data-name="Group 904">
      <g id="Group_382" data-name="Group 382">
        <g id="Group_355" data-name="Group 355">
          <g class="cls-2">
            <g id="Group_354" data-name="Group 354">
              <path id="Path_11524" data-name="Path 11524" class="cls-5" d="m20.05,7.83s-2.24,1.23-2.78,3.12-.98,5.5-.98,5.5c0,0-.44,2.7-1.05,4.07s-4.76,9.77-4.76,9.77l-3.96,7.28-3.6,6.54S-.61,48.88.09,53.72c0,0,1.15,5.47,2.47,6.35s2.05,1.31,2.29,1.57c.46.52.74,1.18.78,1.87.03.91.09,3.77.09,3.77v8.25s-.04,2.09-1.1,2.31-2.54.19-2.63,1.68.02,5.5.09,5.81.21,1.38.91,1.88c.69.5,1.75.99,1.95,1.17s.8.89.9,1.5.14,1.97.14,1.97c0,0-.05,4.04,0,4.8s.17,2.55.17,2.55c0,0-.07,2.87-1.02,3.65s-1.42,1.06-2.18,1.25-1.26.22-1.32.95c-.04.5-.04,1.01,0,1.52l34.46-.31,44.86-.46,23.13-.27s-.12-1.22-2.76-2.16l-1.05-.37s-1.18-.32-.74-2.34c.16-1.23.14-2.47-.04-3.69-.31-2.12-.66-4.72-.51-5.7s.19-2.15,1.64-3.6c.4-.34.82-.65,1.26-.93.38-.21.68-.27.64-1.59,0,0-.19-.42-.1-1.82s.14-2.51.14-2.51c0,0,.02-1.83-.53-2.74-.33-.54-.82-.97-1.4-1.21l-1.02-.34s-.79-.1-.98-1.28-.11-3.97-.11-3.97c0,0,.02-3.78-.02-4.69s-.11-1.91-.11-1.91c0,0-.06-1.92.4-2.79s.72-1.42,2.05-2.56c.93-.85,1.71-1.85,2.3-2.95,0,0,.91-1.48,1.05-4.18,0,0,.15-3.75-1.9-6.77l-3.06-5.71-3.31-6.52-3.04-5.82s-3.67-6.34-4.25-7.22-2.5-3.59-2.49-5.35.09-2.6.09-2.6c0,0,.76-2.95-1.75-4.56,0,0-1.25-.83-4.22-.8s-7.97.06-7.97.06l-11.43.1-11.98.12-12.86.15-12.23.17s-1.87-.15-2.8.12l-.93.28Z"/>
              <path id="Path_11526" data-name="Path 11526" class="cls-3" d="m19.53,19.18s-.44-.9-1.56,1.37c-1.13,2.28-2.7,5.55-2.7,5.55l-3.12,6.4-4.27,8.69-2,4.07-1.12,2.28s1.57.87,2.97.72c1.4-.15,2.44-.26,3.83-2.29.57-1.15,1.07-2.34,1.5-3.55.56-1.69,2.33-6.64,2.33-6.64l1.36-3.65,1.34-3.56.9-2.4,1.11-3.06.65-1.95s.17-1.11-.27-1.46c-.28-.23-.61-.4-.95-.51"/>
              <path id="Path_11527" data-name="Path 11527" class="cls-3" d="m15.98,42.3l2.18-6.2,3.83-11.15.93-2.84s1.08-2.96,2.1-2.97,1.74.08,2.16.57.63.65.61,1.5-.6,2.6-.6,2.6l-.7,2.34-.5,1.46-.81,3.46-.95,3.89-1.08,4.26-.6,2.33-.85,3.27-.63,1.93s-.26,1-.98,1.3-2.21.22-2.21.22c0,0-1.97-.27-2.25-.41s-1.38-.21-.88-1.84"/>
              <path id="Path_11528" data-name="Path 11528" class="cls-3" d="m24.96,41.78l.87-3.26,1.19-4.45,1.9-7.65,1.28-5.34s.79-2.51,3.01-2.07,2.68,1.56,2.3,2.84-1.24,5.8-1.24,5.8l-.86,4.52-.82,4.56-.52,3.28-.46,3.41s-.33,4.09-1.2,4.33-3.96.35-3.96.35c0,0-2.96,1.03-2.4-2.05"/>
              <path id="Path_11529" data-name="Path 11529" class="cls-3" d="m38.08,20.76l-1.67,9.59-1.1,6.17-.87,4.32-.76,3.72s-.06,2.74.7,3.19,3.35.35,3.35.35c0,0,2.11.53,2.61-.35.5-.88.86-2.85,1.02-5.63s.95-11.41.95-11.41l.48-4.47.6-3.95s.44-2.95-1-3.12-2.22-.27-2.22-.27c0,0-1.61.25-2.07,1.85"/>
              <path id="Path_11530" data-name="Path 11530" class="cls-3" d="m46.83,19.18s-.99,1.27-1.24,4.27c-.25,3-.55,6.38-.55,6.38l-.59,6.14-.59,6.05s-1.08,5.07,1.36,5.61c0,0,1.58.91,2.63.56s1.78-.85,2.63-2.59.44-4.29.44-4.29v-7.56s-.11-8.8-.11-8.8c0,0,.29-4.28-.46-5.26,0,0-.53-.67-1.07-.73-.49-.03-.97-.03-1.46,0l-1.01.22Z"/>
              <path id="Path_11531" data-name="Path 11531" class="cls-3" d="m54.77,18.97c-.82.31-1.36,1.1-1.34,1.98,0,1.55.03,3.92.03,3.92l.03,3.21.09,5.79.03,2.78v2.33s-.02,2.55-.02,2.55l-.05,2.01s0,1.87.17,2.42.45,1.46,1.05,1.74,1.65.58,2.11.57,1.99.09,2.21-.18.85-.78,1.01-1.48.38-2.56.24-3.6-.94-7.08-.94-7.08l-.63-5.27-.35-3.49-.23-2.98-.21-2.64s-.33-2.09-1.1-2.56-1.64-.13-1.64-.13l-.47.13Z"/>
              <path id="Path_11532" data-name="Path 11532" class="cls-3" d="m60.54,22.87s-.61-2.31-.39-2.9.6-1.09,1.06-1.05,2.62-.25,2.62-.25c0,0,.93-.52,1.34.79.41,1.3,1.45,6.81,1.45,6.81l1.31,6.51,1.15,6.76.75,4.48s.62,3.41-.29,3.77-2.87.47-2.87.47h-1.65c-.73-.48-1.25-1.22-1.46-2.07-.4-1.47-1.38-7.58-1.38-7.58l-.63-6.14-.7-6.25-.29-3.36Z"/>
              <path id="Path_11533" data-name="Path 11533" class="cls-3" d="m69.06,18.91s-1.39.15-.72,2.63c.67,2.48,1.39,6.77,1.39,6.77l1.01,5.73.72,4.07.53,3.06.6,3.46s.59,3.83,2.8,3.64c1.38-.13,2.75-.37,4.1-.73,0,0,1.13-.65.22-3.48s-1.97-6.8-1.97-6.8l-1.65-6.24-1.35-4.53-.63-2.07-.76-2.55-.82-2.24s-.26-.93-1.18-.98-2.3.26-2.3.26"/>
              <path id="Path_11534" data-name="Path 11534" class="cls-3" d="m76.1,19.53s-.73.28,0,2.07c.53,1.38.98,2.8,1.34,4.24l1.93,7.57,1.44,5.66.8,3.2,1.03,3.56s.95,2.44,2.14,2.44c.77,0,1.54-.13,2.28-.36l2.58-.85s.61-.57-.26-1.95-2.53-6.51-2.53-6.51l-1.16-3.22-1.49-4.13-1.24-3.5-1.58-4.58-.65-1.95s-.51-2.42-1.8-2.51-2.83.81-2.83.81"/>
              <path id="Path_11535" data-name="Path 11535" class="cls-3" d="m82.65,18.97l6.66,17.91,1.93,5.37s1.1,3.75,2.14,4.22c.98.47,2.06.66,3.14.54.98-.13,1.45.11,1.86-.65s.79-1.96,0-3.11-1.82-2.87-1.82-2.87l-1.61-3.08-2.47-4.76-1.99-3.89-1.73-3.4-1.17-2.31-.78-1.55-1.02-1.68s-.42-.67-.98-.84-.74-.38-1.45-.14l-.71.24Z"/>
              <path id="Path_11536" data-name="Path 11536" class="cls-3" d="m13.04,94.58l-2.01-.03s-3.06.03-2.83,2.51.84,2.92,3.01,2.89c2.17-.03,82.6-.92,82.6-.92l1.92-.02s1,.44,1.1-.9c.05-.96,0-1.92-.15-2.87,0,0-.5-1.42-1.81-1.42s-81.84.76-81.84.76"/>
              <path id="Path_11537" data-name="Path 11537" class="cls-3" d="m13.97,87.16h-3.28s-2.22-.03-2.55,1.43c-.33,1.46-.03,2.37.59,2.89.62.52,3.28.94,3.28.94l11.01-.21,69.37-.77,2.16-.02s1.76.28,2.28-1.29.08-2.49-.4-2.96-1.11-.8-2.45-.77-80,.77-80,.77"/>
              <path id="Path_11538" data-name="Path 11538" class="cls-3" d="m13.23,101.91h-3.32s-2.24-.03-2.58,1.02-.03,1.7.6,2.07,3.32.68,3.32.68l11.13-.15,70.15-.55,2.18-.02s1.78.2,2.3-.93.08-1.78-.4-2.12-1.12-.57-2.48-.55-80.9.55-80.9.55"/>
              <rect id="Rectangle_150" data-name="Rectangle 150" class="cls-1" y="6.83" width="104.18" height="99.74"/>
            </g>
          </g>
        </g>
        <g id="Group_359" data-name="Group 359">
          <g id="Group_367" data-name="Group 367">
            <path id="Path_11548" data-name="Path 11548" class="cls-3" d="m11.16,79.72h-3.52s-2.38-.03-2.73,1.43c-.35,1.46-.03,2.37.63,2.89s3.52.94,3.52.94l11.81-.21,74.42-.77,2.32-.02s1.89.28,2.44-1.29.09-2.49-.43-2.96-1.19-.8-2.63-.77-85.83.77-85.83.77"/>
            <path id="Path_11549" data-name="Path 11549" class="cls-3" d="m2.67,50.08c-.99.88-1.41,2.24-1.09,3.53.53,2.24.66,2.73,1.16,3.45s1.01,1.58,1.65,1.92,1.03.79,1.95.4c.78-.33,1.5-.79,2.13-1.36.56-.5,1.1-1,1.69-1.12s1.06-.33,2.23.35c0,0,1.21,1.17,1.83,1.51s1.03.66,1.98.63,2.09-.74,2.82-2.26,1.11-2.54,1.48-2.82.48-.63,1.07.12.9,1.9.9,1.9c0,0,.51,1.18,1.37,1.52s1.72.7,2.8.52,1.49.1,2.6-1.8c0,0,.21-1.54.4-2.02s.28-.93.72-1.03.78-.17,1.43.31.68,1.61.68,1.61c0,0,.44,2.11,1.08,2.69s1.28,1.13,2.73.89,2.66-1.62,2.66-1.62c.26-.46.46-.95.59-1.45.18-.75-.11-1.52.44-1.78s.9-.33,1.35-.19,1.1,1.71,1.57,2.34,1.62,2.38,2.63,2.56c0,0,.9.58,1.68-.04.75-.57,1.38-1.3,1.83-2.13.42-.83.83-1.75.83-1.75,0,0,.29-1.21,1.06-1.19s1.08.72,1.34,1.21,1.1,1.9,1.71,2.37,1.38,1,2.01.99,1.42.13,2.58-.98c.67-.74,1.23-1.55,1.69-2.43l.6-.9s.49-.85,1.11.1,1.14,1.84,1.14,1.84c0,0,1.17,1.71,1.49,2.01s.99.99,1.87.92,2.03-.92,2.56-1.47,1.8-2.07,1.8-2.07l.45-.52s.6-.7,1.04,0c.44.7,1.14,2.19,1.62,2.69s1.1,1.05,1.59,1.15,1.37.38,2.54-.64c.68-.57,1.21-1.28,1.58-2.09,0,0,.63-1.72,1.17-2.01s1.27-.6,1.83-.04.65,2.17.65,2.17c0,0,.53,1.98,1.79,2.37,0,0,1.35.69,2.73-.06,1.38-.75,2.11-2.69,2.11-2.69l.84-1.92s.68-1.32,1.43-.48,1.43,2.91,1.43,2.91c0,0,.96,2.7,2.74,2.37,1.47-.27,2.77-1.13,3.59-2.39.37-.61.58-1.31.59-2.03l.08-1.71s-.04-1.29-.76-1.47-2.49-.12-2.49-.12l-14.64-.08-16.02-.19-21.69-.14-24.41-.1-17.89-.22Z"/>
          </g>
        </g>
      </g>
      <g id="Group_399" data-name="Group 399">
        <g class="cls-11">
          <g id="Group_395" data-name="Group 395">
            <path id="Path_11637" data-name="Path 11637" class="cls-3" d="m23,15.44s-1.66.47-1.96-1-.46-2.56,0-3.13c.46-.58.81-1.06,1.65-1.1.83-.04,4.46-.2,4.46-.2l6.54-.2,6.41-.09h9.14s9.1.09,9.1.09l4.33-.07,6.58-.11,8.83-.19,2.6-.08s1.53-.19,2.27.62c.74.81.41,3.08.41,3.08,0,0,.48,1.39-1.38,1.61-1.86.23-4.51.04-4.51.04l-6.98.06-4.73.04-5.83.05-5.04.05-13.99.16-10.88.08-3.75.15-3.27.15Z"/>
          </g>
        </g>
      </g>
      <g id="Group_405" data-name="Group 405">
        <g class="cls-14">
          <g id="Group_404" data-name="Group 404">
            <path id="Path_11638" data-name="Path 11638" class="cls-8" d="m44.61,67.37c-.47.44-.86.95-1.15,1.51-.24.47-.43.97-.56,1.48-.46,1.83-2.38,4.29-2.38,4.29-2.25,2.86-3.53,4.51-3.05,5.37.26.47.97.6,1.43.54,0,0,.84-.1,2.8-3.02l1.4-1.36,1.05-1.4,1.18-1.97c.2.85.27,1.73.2,2.6-.05.62-.17,1.24-.35,1.84l.08,2.01h9.89c-.12-.29-.23-.6-.34-.93-.25-.74-.44-1.5-.58-2.26l.66-2.55.61-.97c.61,1.55,1.06,2.85,1.36,3.78.73,2.22.98,3.35,1.85,3.64.58.2,1.2-.05,1.65-.32-.08-1.7-.36-3.39-.83-5.03-.32-1.08-.82-2.81-1.98-4.67-.38-.6-1.54-2.36-1.54-2.36,0,0-1.71.86-2.96.92s-3.76.17-4.56,0-2.39-.63-2.39-.63l-1.48-.52Z"/>
            <path id="Path_11639" data-name="Path 11639" class="cls-6" d="m44.61,67.37c2.82,1.2,5.91,1.62,8.95,1.22l2.44-.99c-.94-.98-1.76-1.28-2.23-1.39-.52-.12-1.13-.13-1.15-.07,0,.03,0,.05.02.07l-.1-.79c.31-.36.59-.75.83-1.16.41-.69.73-1.44.93-2.22v-.94s-.8-.54-.73-1.41-.33-.81-.33-.81c-.95,1.15-2.18,2.02-3.57,2.54-.19-.21-.46-.33-.75-.35-.14,0-.27.03-.39.09-.16.09-.28.22-.37.37-.14.24-.2.51-.17.79.36.64.64.77.84.76.27-.01.42-.3.61-.23.17.06.22.35.28.79.05.39.1.91.14,1.53l.28,1.08.04.63c-.57.02-1.13-.09-1.65-.32-.3-.13-.63-.33-1.1-.3-.22.02-.43.07-.62.17-.28.05-.55.13-.82.22-.49.17-.94.41-1.36.71"/>
            <path id="Path_11640" data-name="Path 11640" class="cls-7" d="m46.93,66.26l-.52,2.51-.26,2.3-.65,1.46c.01.96.02,1.92.03,2.88l-.35,1.84c.03.67.05,1.34.08,2.01,1.74,0,3.06-.03,3.95-.04.53-.01,1.06-.02,1.81-.01.89.01,1.24.04,2.15.06.47,0,1.14.02,1.97,0l.35-6.1-.52-1.46-.26-1.26v-3.77l-.08-.42h-1.12l-.35,2.09-.26.84v1.67h-3.37l-.91.09-.64-.09.26-3.14v-1.05l-.02-.42h-1.27Z"/>
            <path id="Path_11641" data-name="Path 11641" class="cls-4" d="m50.13,67.07c-.85-.1-1.67-.33-2.44-.7-.75-.38-1.47-.82-2.16-1.31,0,0-.33-.33.28-1.19s1.43-2.59,1.43-2.59l.98-1.44,1.59-1.52s.98-.78,2.16-.53c.79.19,1.55.51,2.24.94.37.44.6.99.65,1.56.05.7.05,1.41,0,2.11l-.24,1.26-.28,1.44-.28,1.31-.12.41s-.96-.07-1.22-.46-.15-.94-.15-.94c.27-.35.55-.74.83-1.16.16-.25.31-.49.45-.72l.22-.96.13-1.03v-.5c-.31-.08-.55-.34-.61-.66-.13-.57-.28-1.34-.28-1.34-.28.29-.58.57-.89.83-.39.33-.81.62-1.25.89-.26.12-.52.23-.77.35l-.6.27c-.23.18-.34.18-.41.15-.2-.07-.17-.46-.5-.33s-.63.22-.63.66.35,1.05.35,1.05c.14.05.29.06.44.03.2-.04.29-.14.43-.1.11.04.19.13.23.24l.16,1.04c-.02.41.02.82.11,1.23.08.29.15.59.19.9.03.27.03.55,0,.82"/>
          </g>
        </g>
      </g>
      <g id="Group_448" data-name="Group 448">
        <g class="cls-13">
          <g id="Group_433" data-name="Group 433">
            <path id="Path_11752" data-name="Path 11752" class="cls-9" d="m71.41,77.07c-.18-.04-.37-.07-.56-.07-.25.04-.49.12-.72.24-.27.13-.55.23-.83.32l-.13.03c-.28.03-.55.05-.83.06-.31,0-.98-.09-1.15-.11s-.36-.12-.66.04c-.3.17-.4.25-.42.48,0,.2.08.4.24.53.21.18.46.3.73.35l.27.02s.73.11.91.09c.34-.03.68-.08,1.01-.15.23-.06,1.26-.34,1.39-.44s.71-.41.85-.61c.15-.2.23-.5.07-.64"/>
            <path id="Path_11753" data-name="Path 11753" class="cls-10" d="m66.77,78.59s-.11.03.83-.03,1.53-.11,1.71-.18c-.29.12-.59.22-.9.28-.44.06-.88.09-1.32.09-.3-.02-.41-.02-.41-.02l-.05-.18.15.03Z"/>
            <path id="Path_11754" data-name="Path 11754" class="cls-10" d="m66.58,77.99c.44.06.88.09,1.32.08.4-.03,1.7-.19,2.08-.28.38-.13.75-.29,1.11-.48l.23-.16c-.03.08-.08.15-.14.22-.18.15-.38.27-.59.37-.43.16-.88.29-1.34.37-.29.02-2.12.11-2.35.08-.17-.03-.34-.07-.51-.12l.19-.08Z"/>
            <path id="Path_11755" data-name="Path 11755" class="cls-10" d="m71.49,77.31c-.06.12-.14.22-.23.32-.19.24-.46.41-.75.5-.4.1-.84.21-.84.21,0,0,.49.1.61.05.27-.07.53-.18.76-.33.28-.21.5-.34.47-.54l-.03-.2Z"/>
          </g>
        </g>
      </g>
      <g id="Group_449" data-name="Group 449">
        <g class="cls-12">
          <g id="Group_435" data-name="Group 435">
            <path id="Path_11756" data-name="Path 11756" class="cls-9" d="m76.72,77.07c-.18-.04-.37-.07-.56-.07-.25.04-.49.12-.72.24-.27.13-.55.23-.83.32l-.13.03c-.28.03-.55.05-.83.06-.31,0-.98-.09-1.15-.11s-.36-.12-.66.04c-.3.17-.4.25-.42.48,0,.2.08.4.24.53.21.18.46.3.73.35l.27.02s.73.11.91.09c.34-.03.68-.08,1.01-.15.23-.06,1.26-.34,1.39-.44s.71-.41.85-.61c.15-.2.23-.5.07-.64"/>
            <path id="Path_11757" data-name="Path 11757" class="cls-10" d="m72.08,78.59s-.11.03.83-.03,1.53-.11,1.71-.18c-.29.12-.59.22-.9.28-.44.06-.88.09-1.32.09-.3-.02-.42-.02-.42-.02l-.05-.18.15.03Z"/>
            <path id="Path_11758" data-name="Path 11758" class="cls-10" d="m71.88,77.99c.44.06.88.09,1.32.08.4-.03,1.7-.19,2.08-.28.38-.13.75-.29,1.11-.48l.23-.16c-.03.08-.08.15-.14.22-.18.15-.38.27-.59.37-.43.16-.88.29-1.34.37-.29.02-2.12.11-2.35.08-.17-.03-.34-.07-.51-.12l.19-.08Z"/>
            <path id="Path_11759" data-name="Path 11759" class="cls-10" d="m76.79,77.31c-.06.12-.14.22-.23.32-.19.24-.46.41-.75.5-.4.1-.84.21-.84.21,0,0,.49.1.61.05.27-.07.53-.18.76-.33.28-.21.5-.34.47-.54l-.03-.2Z"/>
          </g>
        </g>
      </g>
      <g id="Group_450" data-name="Group 450">
        <g class="cls-18">
          <g id="Group_437" data-name="Group 437">
            <path id="Path_11760" data-name="Path 11760" class="cls-9" d="m75.71,75.67c-.18-.04-.36-.07-.55-.06-.25.04-.48.11-.7.23-.26.13-.53.23-.81.31l-.13.03c-.27.03-.54.05-.81.05-.3,0-.96-.09-1.12-.11s-.35-.12-.64.04-.39.25-.41.47c0,.2.08.39.23.51.2.18.45.29.71.34l.27.02s.72.1.89.09c.33-.03.66-.08.99-.14.23-.06,1.23-.33,1.35-.43s.69-.4.83-.6.23-.49.07-.63"/>
            <path id="Path_11761" data-name="Path 11761" class="cls-10" d="m71.19,77.15s-.1.03.81-.03,1.49-.11,1.67-.17c-.28.12-.58.21-.88.28-.43.05-.86.08-1.29.09-.29-.02-.4-.02-.4-.02l-.05-.17.15.03Z"/>
            <path id="Path_11762" data-name="Path 11762" class="cls-10" d="m71,76.57c.43.06.86.08,1.29.08.39-.03,1.66-.19,2.03-.28.37-.12.73-.28,1.08-.47l.22-.15c-.03.08-.08.15-.14.21-.17.14-.37.27-.57.36-.42.16-.86.28-1.31.36-.28.02-2.07.11-2.29.08-.17-.03-.33-.06-.5-.11l.19-.08Z"/>
            <path id="Path_11763" data-name="Path 11763" class="cls-10" d="m75.78,75.91c-.06.11-.13.22-.22.31-.19.23-.44.4-.73.48-.39.1-.82.21-.82.21,0,0,.48.09.6.05.26-.06.51-.17.74-.32.27-.21.49-.33.46-.53l-.03-.2Z"/>
          </g>
        </g>
      </g>
      <g id="Group_453" data-name="Group 453">
        <g class="cls-17">
          <g id="Group_433-2" data-name="Group 433-2">
            <path id="Path_11752-2" data-name="Path 11752-2" class="cls-9" d="m82.28,77.07c-.18-.04-.37-.07-.56-.07-.25.04-.49.12-.72.24-.27.13-.55.23-.83.32l-.13.03c-.28.03-.55.05-.83.06-.31,0-.98-.09-1.15-.11s-.36-.12-.66.04c-.3.17-.4.25-.42.48,0,.2.08.4.24.53.21.18.46.3.73.35l.27.02s.73.11.91.09c.34-.03.68-.08,1.01-.15.23-.06,1.26-.34,1.39-.44s.71-.41.85-.61c.15-.2.23-.5.07-.64"/>
            <path id="Path_11753-2" data-name="Path 11753-2" class="cls-10" d="m77.64,78.59s-.11.03.83-.03,1.53-.11,1.71-.18c-.29.12-.59.22-.9.28-.44.06-.88.09-1.32.09-.3-.02-.41-.02-.41-.02l-.05-.18.15.03Z"/>
            <path id="Path_11754-2" data-name="Path 11754-2" class="cls-10" d="m77.45,77.99c.44.06.88.09,1.32.08.4-.03,1.7-.19,2.08-.28.38-.13.75-.29,1.11-.48l.23-.16c-.03.08-.08.15-.14.22-.18.15-.38.27-.59.37-.43.16-.88.29-1.34.37-.29.02-2.12.11-2.35.08-.17-.03-.34-.07-.51-.12l.19-.08Z"/>
            <path id="Path_11755-2" data-name="Path 11755-2" class="cls-10" d="m82.36,77.31c-.06.12-.14.22-.23.32-.19.24-.46.41-.75.5-.4.1-.84.21-.84.21,0,0,.49.1.61.05.27-.07.53-.18.76-.33.28-.21.5-.34.47-.54l-.03-.2Z"/>
          </g>
        </g>
      </g>
      <g id="Group_454" data-name="Group 454">
        <g class="cls-15">
          <g id="Group_435-2" data-name="Group 435-2">
            <path id="Path_11756-2" data-name="Path 11756-2" class="cls-9" d="m87.59,77.07c-.18-.04-.37-.07-.56-.07-.25.04-.49.12-.72.24-.27.13-.55.23-.83.32l-.13.03c-.28.03-.55.05-.83.06-.31,0-.98-.09-1.15-.11s-.36-.12-.66.04c-.3.17-.4.25-.42.48,0,.2.08.4.24.53.21.18.46.3.73.35l.27.02s.73.11.91.09c.34-.03.68-.08,1.01-.15.23-.06,1.26-.34,1.39-.44s.71-.41.85-.61c.15-.2.23-.5.07-.64"/>
            <path id="Path_11757-2" data-name="Path 11757-2" class="cls-10" d="m82.95,78.59s-.11.03.83-.03,1.53-.11,1.71-.18c-.29.12-.59.22-.9.28-.44.06-.88.09-1.32.09-.3-.02-.42-.02-.42-.02l-.05-.18.15.03Z"/>
            <path id="Path_11758-2" data-name="Path 11758-2" class="cls-10" d="m82.75,77.99c.44.06.88.09,1.32.08.4-.03,1.7-.19,2.08-.28.38-.13.75-.29,1.11-.48l.23-.16c-.03.08-.08.15-.14.22-.18.15-.38.27-.59.37-.43.16-.88.29-1.34.37-.29.02-2.12.11-2.35.08-.17-.03-.34-.07-.51-.12l.19-.08Z"/>
            <path id="Path_11759-2" data-name="Path 11759-2" class="cls-10" d="m87.66,77.31c-.06.12-.14.22-.23.32-.19.24-.46.41-.75.5-.4.1-.84.21-.84.21,0,0,.49.1.61.05.27-.07.53-.18.76-.33.28-.21.5-.34.47-.54l-.03-.2Z"/>
          </g>
        </g>
      </g>
      <g id="Group_455" data-name="Group 455">
        <g class="cls-16">
          <g id="Group_437-2" data-name="Group 437-2">
            <path id="Path_11760-2" data-name="Path 11760-2" class="cls-9" d="m86.58,75.67c-.18-.04-.36-.07-.55-.06-.25.04-.48.11-.7.23-.26.13-.53.23-.81.31l-.13.03c-.27.03-.54.05-.81.05-.3,0-.96-.09-1.12-.11s-.35-.12-.64.04-.39.25-.41.47c0,.2.08.39.23.51.2.18.45.29.71.34l.27.02s.72.1.89.09c.33-.03.66-.08.99-.14.23-.06,1.23-.33,1.35-.43s.69-.4.83-.6.23-.49.07-.63"/>
            <path id="Path_11761-2" data-name="Path 11761-2" class="cls-10" d="m82.05,77.15s-.1.03.81-.03,1.49-.11,1.67-.17c-.28.12-.58.21-.88.28-.43.05-.86.08-1.29.09-.29-.02-.4-.02-.4-.02l-.05-.17.15.03Z"/>
            <path id="Path_11762-2" data-name="Path 11762-2" class="cls-10" d="m81.86,76.57c.43.06.86.08,1.29.08.39-.03,1.66-.19,2.03-.28.37-.12.73-.28,1.08-.47l.22-.15c-.03.08-.08.15-.14.21-.17.14-.37.27-.57.36-.42.16-.86.28-1.31.36-.28.02-2.07.11-2.29.08-.17-.03-.33-.06-.5-.11l.19-.08Z"/>
            <path id="Path_11763-2" data-name="Path 11763-2" class="cls-10" d="m86.65,75.91c-.06.11-.13.22-.22.31-.19.23-.44.4-.73.48-.39.1-.82.21-.82.21,0,0,.48.09.6.05.26-.06.51-.17.74-.32.27-.21.49-.33.46-.53l-.03-.2Z"/>
          </g>
        </g>
      </g>
      <g id="Group_456" data-name="Group 456">
        <g class="cls-19">
          <g id="Group_433-3" data-name="Group 433-3">
            <path id="Path_11752-3" data-name="Path 11752-3" class="cls-9" d="m81.15,75.62c-.18-.04-.37-.07-.56-.07-.25.04-.49.12-.72.24-.27.13-.55.23-.83.32l-.13.03c-.28.03-.55.05-.83.06-.31,0-.98-.09-1.15-.11s-.36-.12-.66.04c-.3.17-.4.25-.42.48,0,.2.08.4.24.53.21.18.46.3.73.35l.27.02s.73.11.91.09c.34-.03.68-.08,1.01-.15.23-.06,1.26-.34,1.39-.44s.71-.41.85-.61c.15-.2.23-.5.07-.64"/>
            <path id="Path_11753-3" data-name="Path 11753-3" class="cls-10" d="m76.51,77.14s-.11.03.83-.03,1.53-.11,1.71-.18c-.29.12-.59.22-.9.28-.44.06-.88.09-1.32.09-.3-.02-.41-.02-.41-.02l-.05-.18.15.03Z"/>
            <path id="Path_11754-3" data-name="Path 11754-3" class="cls-10" d="m76.31,76.55c.44.06.88.09,1.32.08.4-.03,1.7-.19,2.08-.28.38-.13.75-.29,1.11-.48l.23-.16c-.03.08-.08.15-.14.22-.18.15-.38.27-.59.37-.43.16-.88.29-1.34.37-.29.02-2.12.11-2.35.08-.17-.03-.34-.07-.51-.12l.19-.08Z"/>
            <path id="Path_11755-3" data-name="Path 11755-3" class="cls-10" d="m81.22,75.86c-.06.12-.14.22-.23.32-.19.24-.46.41-.75.5-.4.1-.84.21-.84.21,0,0,.49.1.61.05.27-.07.53-.18.76-.33.28-.21.5-.34.47-.54l-.03-.2Z"/>
          </g>
        </g>
      </g>
      <g id="Group_457" data-name="Group 457">
        <g class="cls-23">
          <g id="Group_435-3" data-name="Group 435-3">
            <path id="Path_11756-3" data-name="Path 11756-3" class="cls-9" d="m24.43,77.25c-.15-.12-.31-.22-.48-.3-.24-.07-.5-.1-.75-.09-.3,0-.6-.02-.89-.07l-.14-.03c-.27-.09-.52-.19-.78-.3-.28-.14-.85-.5-.99-.58s-.27-.26-.61-.24c-.34.03-.47.06-.59.26-.1.18-.1.4,0,.58.11.25.29.47.51.62l.24.13s.62.41.78.47c.32.12.65.21.98.29.23.04,1.29.22,1.44.19s.81-.08,1.03-.2c.22-.12.42-.36.33-.55"/>
            <path id="Path_11757-3" data-name="Path 11757-3" class="cls-10" d="m19.58,76.67s-.11-.02.76.32,1.43.54,1.62.56c-.32-.01-.63-.05-.94-.13-.42-.13-.83-.29-1.24-.48-.26-.15-.37-.2-.37-.2l.03-.18.13.09Z"/>
            <path id="Path_11758-3" data-name="Path 11758-3" class="cls-10" d="m19.65,76.05c.37.24.76.45,1.16.63.38.14,1.62.54,2.01.62.4.05.8.06,1.2.04l.27-.05c-.06.06-.14.1-.22.14-.23.06-.46.09-.69.09-.46-.04-.92-.11-1.37-.23-.27-.11-1.97-.8-2.16-.92-.15-.1-.28-.2-.41-.32h.21Z"/>
            <path id="Path_11759-3" data-name="Path 11759-3" class="cls-10" d="m24.39,77.5c-.1.08-.22.14-.34.19-.28.13-.59.18-.89.13-.41-.08-.85-.16-.85-.16,0,0,.4.29.53.3.27.05.55.06.83.02.34-.08.6-.09.66-.29l.06-.2Z"/>
          </g>
        </g>
      </g>
      <g id="Group_458" data-name="Group 458">
        <g class="cls-25">
          <g id="Group_437-3" data-name="Group 437-3">
            <path id="Path_11760-3" data-name="Path 11760-3" class="cls-9" d="m85.41,74.2c-.18-.04-.36-.07-.55-.06-.25.04-.48.11-.7.23-.26.13-.53.23-.81.31l-.13.03c-.27.03-.54.05-.81.05-.3,0-.96-.09-1.12-.11s-.35-.12-.64.04-.39.25-.41.47c0,.2.08.39.23.51.2.18.45.29.71.34l.27.02s.72.1.89.09c.33-.03.66-.08.99-.14.23-.06,1.23-.33,1.35-.43s.69-.4.83-.6.23-.49.07-.63"/>
            <path id="Path_11761-3" data-name="Path 11761-3" class="cls-10" d="m80.89,75.69s-.1.03.81-.03,1.49-.11,1.67-.17c-.28.12-.58.21-.88.28-.43.05-.86.08-1.29.09-.29-.02-.4-.02-.4-.02l-.05-.17.15.03Z"/>
            <path id="Path_11762-3" data-name="Path 11762-3" class="cls-10" d="m80.69,75.11c.43.06.86.08,1.29.08.39-.03,1.66-.19,2.03-.28.37-.12.73-.28,1.08-.47l.22-.15c-.03.08-.08.15-.14.21-.17.14-.37.27-.57.36-.42.16-.86.28-1.31.36-.28.02-2.07.11-2.29.08-.17-.03-.33-.06-.5-.11l.19-.08Z"/>
            <path id="Path_11763-3" data-name="Path 11763-3" class="cls-10" d="m85.48,74.44c-.06.11-.13.22-.22.31-.19.23-.44.4-.73.48-.39.1-.82.21-.82.21,0,0,.48.09.6.05.26-.06.51-.17.74-.32.27-.21.49-.33.46-.53l-.03-.2Z"/>
          </g>
        </g>
      </g>
      <g id="Group_461" data-name="Group 461">
        <g class="cls-22">
          <g id="Group_437-4" data-name="Group 437-4">
            <path id="Path_11760-4" data-name="Path 11760-4" class="cls-9" d="m20.95,77.69c-.18-.04-.36-.07-.55-.06-.25.04-.48.11-.7.23-.26.13-.53.23-.81.31l-.13.03c-.27.03-.54.05-.81.05-.3,0-.96-.09-1.12-.11s-.35-.12-.64.04-.39.25-.41.47c0,.2.08.39.23.51.2.18.45.29.71.34l.27.02s.72.1.89.09c.33-.03.66-.08.99-.14.23-.06,1.23-.33,1.35-.43s.69-.4.83-.6.23-.49.07-.63"/>
            <path id="Path_11761-4" data-name="Path 11761-4" class="cls-10" d="m16.43,79.18s-.1.03.81-.03,1.49-.11,1.67-.17c-.28.12-.58.21-.88.28-.43.05-.86.08-1.29.09-.29-.02-.4-.02-.4-.02l-.05-.17.15.03Z"/>
            <path id="Path_11762-4" data-name="Path 11762-4" class="cls-10" d="m16.24,78.6c.43.06.86.08,1.29.08.39-.03,1.66-.19,2.03-.28.37-.12.73-.28,1.08-.47l.22-.15c-.03.08-.08.15-.14.21-.17.14-.37.27-.57.36-.42.16-.86.28-1.31.36-.28.02-2.07.11-2.29.08-.17-.03-.33-.06-.5-.11l.19-.08Z"/>
            <path id="Path_11763-4" data-name="Path 11763-4" class="cls-10" d="m21.02,77.94c-.06.11-.13.22-.22.31-.19.23-.44.4-.73.48-.39.1-.82.21-.82.21,0,0,.48.09.6.05.26-.06.51-.17.74-.32.27-.21.49-.33.46-.53l-.03-.2Z"/>
          </g>
        </g>
      </g>
      <g id="Group_462" data-name="Group 462">
        <g class="cls-21">
          <g id="Group_437-5" data-name="Group 437-5">
            <path id="Path_11760-5" data-name="Path 11760-5" class="cls-9" d="m31.65,77.64c-.18-.04-.36-.07-.55-.06-.25.04-.48.11-.7.23-.26.13-.53.23-.81.31l-.13.03c-.27.03-.54.05-.81.05-.3,0-.96-.09-1.12-.11s-.35-.12-.64.04-.39.25-.41.47c0,.2.08.39.23.51.2.18.45.29.71.34l.27.02s.72.1.89.09c.33-.03.66-.08.99-.14.23-.06,1.23-.33,1.35-.43s.69-.4.83-.6.23-.49.07-.63"/>
            <path id="Path_11761-5" data-name="Path 11761-5" class="cls-10" d="m27.13,79.13s-.1.03.81-.03,1.49-.11,1.67-.17c-.28.12-.58.21-.88.28-.43.05-.86.08-1.29.09-.29-.02-.4-.02-.4-.02l-.05-.17.15.03Z"/>
            <path id="Path_11762-5" data-name="Path 11762-5" class="cls-10" d="m26.94,78.55c.43.06.86.08,1.29.08.39-.03,1.66-.19,2.03-.28.37-.12.73-.28,1.08-.47l.22-.15c-.03.08-.08.15-.14.21-.17.14-.37.27-.57.36-.42.16-.86.28-1.31.36-.28.02-2.07.11-2.29.08-.17-.03-.33-.06-.5-.11l.19-.08Z"/>
            <path id="Path_11763-5" data-name="Path 11763-5" class="cls-10" d="m31.72,77.89c-.06.11-.13.22-.22.31-.19.23-.44.4-.73.48-.39.1-.82.21-.82.21,0,0,.48.09.6.05.26-.06.51-.17.74-.32.27-.21.49-.33.46-.53l-.03-.2Z"/>
          </g>
        </g>
      </g>
      <g id="Group_463" data-name="Group 463">
        <g class="cls-20">
          <g id="Group_433-4" data-name="Group 433-4">
            <path id="Path_11752-4" data-name="Path 11752-4" class="cls-9" d="m26.22,77.65c-.18-.04-.37-.07-.56-.07-.25.04-.49.12-.72.24-.27.13-.55.23-.83.32l-.13.03c-.28.03-.55.05-.83.06-.31,0-.98-.09-1.15-.11s-.36-.12-.66.04c-.3.17-.4.25-.42.48,0,.2.08.4.24.53.21.18.46.3.73.35l.27.02s.73.11.91.09c.34-.03.68-.08,1.01-.15.23-.06,1.26-.34,1.39-.44s.71-.41.85-.61c.15-.2.23-.5.07-.64"/>
            <path id="Path_11753-4" data-name="Path 11753-4" class="cls-10" d="m21.58,79.17s-.11.03.83-.03,1.53-.11,1.71-.18c-.29.12-.59.22-.9.28-.44.06-.88.09-1.32.09-.3-.02-.41-.02-.41-.02l-.05-.18.15.03Z"/>
            <path id="Path_11754-4" data-name="Path 11754-4" class="cls-10" d="m21.38,78.57c.44.06.88.09,1.32.08.4-.03,1.7-.19,2.08-.28.38-.13.75-.29,1.11-.48l.23-.16c-.03.08-.08.15-.14.22-.18.15-.38.27-.59.37-.43.16-.88.29-1.34.37-.29.02-2.12.11-2.35.08-.17-.03-.34-.07-.51-.12l.19-.08Z"/>
            <path id="Path_11755-4" data-name="Path 11755-4" class="cls-10" d="m26.29,77.89c-.06.12-.14.22-.23.32-.19.24-.46.41-.75.5-.4.1-.84.21-.84.21,0,0,.49.1.61.05.27-.07.53-.18.76-.33.28-.21.5-.34.47-.54l-.03-.2Z"/>
          </g>
        </g>
      </g>
      <g id="Group_466" data-name="Group 466">
        <g class="cls-24">
          <g id="Group_435-4" data-name="Group 435-4">
            <path id="Path_11756-4" data-name="Path 11756-4" class="cls-9" d="m30.15,76.26c-.18-.06-.37-.1-.55-.11-.25.01-.5.07-.74.17-.28.1-.57.19-.86.24l-.14.02c-.28,0-.56,0-.83-.02-.31-.04-.97-.17-1.13-.21s-.35-.15-.66-.01c-.31.14-.42.22-.46.44-.03.2.04.41.19.55.19.2.43.34.7.41l.27.04s.72.17.9.17c.34,0,.68-.02,1.02-.06.24-.04,1.29-.23,1.42-.31s.74-.35.9-.54c.17-.19.27-.48.12-.63"/>
            <path id="Path_11757-4" data-name="Path 11757-4" class="cls-10" d="m25.4,77.37s-.11.02.83.04,1.53.02,1.72-.03c-.3.1-.61.17-.92.2-.44.02-.88,0-1.33-.02-.3-.05-.41-.06-.41-.06l-.04-.18.15.04Z"/>
            <path id="Path_11758-4" data-name="Path 11758-4" class="cls-10" d="m25.25,76.77c.43.1.87.16,1.31.2.4,0,1.71-.04,2.1-.1.39-.09.77-.22,1.14-.38l.24-.14c-.04.08-.09.15-.16.2-.19.13-.4.24-.62.32-.45.12-.9.21-1.37.25-.29,0-2.12-.08-2.35-.12-.17-.04-.34-.09-.5-.16l.2-.07Z"/>
            <path id="Path_11759-4" data-name="Path 11759-4" class="cls-10" d="m30.2,76.52c-.07.11-.16.21-.25.3-.21.22-.49.37-.79.43-.41.07-.85.14-.85.14,0,0,.48.14.6.1.28-.04.54-.13.79-.26.3-.19.53-.29.52-.5v-.21Z"/>
          </g>
        </g>
      </g>
      <rect id="Rectangle_309" data-name="Rectangle 309" class="cls-8" x="45.59" y="-17.47" width="17.75" height="53.6" transform="translate(44.21 63.63) rotate(-89.03)"/>
      <g id="Mini_komkommers" data-name="Mini komkommers" class="cls-26">
        <g class="cls-26">
          <path class="cls-3" d="m51.38,4.51l-.05,3.09s-.01.06-.03.08c-.02.02-.05.03-.08.03h-.68s-.06-.02-.08-.04c-.02-.02-.03-.05-.03-.08l.02-1.46s-.01-.05-.04-.05c-.03,0-.05,0-.07.03l-.78,1.21s-.04.04-.07.03c-.03,0-.06-.01-.08-.04l-.74-1.24s-.04-.04-.06-.03-.04.02-.04.05l-.02,1.46s-.01.06-.03.08c-.02.02-.05.03-.08.03h-.68s-.06-.02-.08-.04c-.02-.02-.03-.05-.03-.08l.05-3.09s.01-.06.03-.08c.02-.02.05-.03.08-.03h.63s.06.02.09.04.06.04.07.06l.85,1.29s.04.04.06.04c.02,0,.04-.01.06-.04l.89-1.26s.04-.04.08-.06c.03-.02.06-.03.1-.03h.63s.06.02.08.04c.02.02.03.05.03.08Z"/>
          <path class="cls-3" d="m52.87,7.74h-.68s-.06-.02-.08-.04c-.02-.02-.03-.05-.03-.08l.05-3.09s.01-.06.03-.08c.02-.02.05-.03.08-.03h.68s.06.02.08.04c.02.02.03.05.03.08l-.05,3.09s-.01.06-.03.08c-.02.02-.05.03-.08.03Z"/>
          <path class="cls-3" d="m56.75,4.6l-.05,3.09s-.01.06-.03.08c-.02.02-.05.03-.08.03h-.67s-.06-.02-.09-.04c-.03-.02-.06-.04-.08-.06l-1.15-1.68s-.04-.03-.06-.03c-.02,0-.03.02-.03.05l-.03,1.62s-.01.06-.03.08c-.02.02-.05.03-.08.03h-.68s-.06-.02-.08-.04c-.02-.02-.03-.05-.03-.08l.05-3.09s.01-.06.03-.08c.02-.02.05-.03.08-.03h.68s.06.02.09.04c.03.02.06.04.08.06l1.15,1.68s.04.04.06.03c.02,0,.03-.02.03-.05l.03-1.62s.01-.06.03-.08c.02-.02.05-.03.08-.03h.67s.06.02.08.04c.02.02.03.05.03.08Z"/>
          <path class="cls-3" d="m58.19,7.83h-.68s-.06-.02-.08-.04c-.02-.02-.03-.05-.03-.08l.05-3.09s.01-.06.03-.08c.02-.02.05-.03.08-.03h.68s.06.02.08.04c.02.02.03.05.03.08l-.05,3.09s-.01.06-.03.08c-.02.02-.05.03-.08.03Z"/>
        </g>
        <g class="cls-26">
          <path class="cls-3" d="m37.7,12.76l-.86-1s-.04-.03-.05-.03c-.01,0-.02.02-.02.05l-.02.93s-.01.06-.03.08c-.02.02-.05.03-.08.03h-.68s-.06-.02-.08-.04c-.02-.02-.03-.05-.03-.08l.05-3.09s.01-.06.03-.08c.02-.02.05-.03.08-.03h.68s.06.02.08.04c.02.02.03.05.03.08l-.02,1.04s0,.05.02.05.03,0,.05-.03l.83-1.07s.04-.04.08-.06c.03-.02.07-.02.1-.02h.86s.05.03.06.06,0,.06-.01.08l-1.21,1.47s-.03.05-.03.08c0,.03.01.06.03.08.1.11.21.23.32.35.11.12.22.25.33.37.11.12.22.25.33.37.11.12.21.23.31.34.02.02.03.05.02.08,0,.03-.03.04-.06.04l-.94-.02s-.07,0-.1-.02c-.03-.02-.06-.04-.08-.06Z"/>
          <path class="cls-3" d="m38.77,11.2c0-.24.05-.46.15-.66.09-.21.22-.39.38-.54.16-.15.34-.27.55-.36.21-.09.43-.13.67-.12s.46.05.66.15c.21.09.39.22.54.38.15.16.27.34.36.55.09.21.13.43.12.67,0,.24-.05.46-.15.66-.09.21-.22.39-.38.54-.16.15-.34.27-.55.36-.21.09-.43.13-.67.12s-.46-.05-.66-.15c-.21-.09-.39-.22-.54-.38-.15-.16-.27-.34-.36-.55-.09-.21-.13-.43-.12-.67Zm.89.02c0,.11.02.22.06.33.04.1.1.19.17.27.07.08.16.14.26.19.1.05.2.07.32.08.11,0,.22-.02.32-.06.1-.05.19-.11.27-.18s.14-.17.18-.27c.04-.1.07-.21.07-.32,0-.11-.02-.22-.06-.32s-.1-.2-.17-.27c-.07-.08-.16-.14-.26-.19-.1-.05-.2-.07-.32-.08-.11,0-.22.02-.32.06-.1.04-.19.1-.26.18-.08.08-.13.16-.18.27-.04.1-.07.21-.07.32Z"/>
          <path class="cls-3" d="m46.38,9.79l-.05,3.09s-.01.06-.03.08c-.02.02-.05.03-.08.03h-.68s-.06-.02-.08-.04c-.02-.02-.03-.05-.03-.08l.02-1.46s-.01-.05-.04-.05c-.03,0-.05,0-.07.03l-.78,1.21s-.04.04-.07.03c-.03,0-.06-.01-.08-.04l-.74-1.24s-.04-.04-.06-.03-.04.02-.04.05l-.02,1.46s-.01.06-.03.08c-.02.02-.05.03-.08.03h-.68s-.06-.02-.08-.04-.03-.05-.03-.08l.05-3.09s.01-.06.03-.08c.02-.02.05-.03.08-.03h.63s.06.02.09.04.06.04.07.06l.85,1.29s.04.04.06.04c.02,0,.04-.01.06-.04l.89-1.26s.04-.04.08-.06c.03-.02.06-.03.1-.03h.63s.06.02.08.04c.02.02.03.05.03.08Z"/>
          <path class="cls-3" d="m48.9,12.95l-.86-1s-.04-.03-.05-.03c-.01,0-.02.02-.02.05l-.02.93s-.01.06-.03.08c-.02.02-.05.03-.08.03h-.68s-.06-.02-.08-.04c-.02-.02-.03-.05-.03-.08l.05-3.09s.01-.06.03-.08c.02-.02.05-.03.08-.03h.68s.06.02.08.04c.02.02.03.05.03.08l-.02,1.04s0,.05.02.05c.01,0,.03,0,.05-.03l.83-1.07s.04-.04.08-.06c.03-.02.07-.02.1-.02h.86s.05.03.06.06c0,.03,0,.06-.01.08l-1.21,1.47s-.03.05-.03.08c0,.03.01.06.03.08.1.11.21.23.32.35.11.12.22.25.33.37.11.12.22.25.33.37.11.12.21.23.31.34.02.02.03.05.02.08,0,.03-.03.04-.06.04l-.94-.02s-.07,0-.1-.02c-.03-.02-.06-.04-.08-.06Z"/>
          <path class="cls-3" d="m49.97,11.39c0-.24.05-.46.15-.66.09-.21.22-.39.38-.54.16-.15.34-.27.55-.36.21-.09.43-.13.67-.12.24,0,.46.05.66.15.21.09.39.22.54.38.15.16.27.34.36.55.09.21.13.43.12.67,0,.24-.05.46-.15.66-.09.21-.22.39-.38.54-.16.15-.34.27-.55.36-.21.09-.43.13-.67.12-.23,0-.46-.05-.66-.15-.21-.09-.39-.22-.54-.38-.15-.16-.27-.34-.36-.55-.09-.21-.13-.43-.12-.67Zm.9.02c0,.11.02.22.06.33.04.1.1.19.17.27.07.08.16.14.26.19.1.05.2.07.31.08.11,0,.22-.02.32-.06.1-.05.19-.11.27-.18.08-.08.14-.17.18-.27.04-.1.07-.21.07-.32,0-.11-.02-.22-.06-.32-.04-.1-.1-.2-.17-.27-.07-.08-.16-.14-.26-.19-.1-.05-.2-.07-.32-.08-.11,0-.22.02-.32.06-.1.05-.19.11-.26.18-.08.08-.13.16-.18.27-.04.1-.07.21-.07.32Z"/>
          <path class="cls-3" d="m57.57,9.98l-.05,3.09s-.01.06-.03.08c-.02.02-.05.03-.08.03h-.68s-.06-.02-.08-.04c-.02-.02-.03-.05-.03-.08l.02-1.46s-.01-.05-.04-.05c-.03,0-.05,0-.07.03l-.78,1.21s-.04.04-.07.03c-.03,0-.06-.01-.08-.04l-.74-1.24s-.04-.04-.06-.03-.04.02-.04.05l-.02,1.46s-.01.06-.03.08c-.02.02-.05.03-.08.03h-.68s-.06-.02-.08-.04c-.02-.02-.03-.05-.03-.08l.05-3.09s.01-.06.03-.08c.02-.02.05-.03.08-.03h.63s.06.02.09.04c.03.02.06.04.07.06l.85,1.29s.04.04.06.04c.02,0,.04-.01.06-.04l.89-1.26s.04-.04.08-.06c.03-.02.06-.03.09-.03h.63s.06.02.08.04c.02.02.03.05.03.08Z"/>
          <path class="cls-3" d="m61.98,10.05l-.05,3.09s-.01.06-.03.08c-.02.02-.05.03-.08.03h-.68s-.06-.02-.08-.04c-.02-.02-.03-.05-.03-.08l.02-1.46s-.01-.05-.04-.05c-.03,0-.05,0-.07.03l-.78,1.21s-.04.04-.07.03c-.03,0-.06-.01-.08-.04l-.74-1.24s-.04-.04-.06-.03c-.03,0-.04.02-.04.05l-.02,1.46s-.01.06-.03.08c-.02.02-.05.03-.08.03h-.68s-.06-.02-.08-.04c-.02-.02-.03-.05-.03-.08l.05-3.09s.01-.06.03-.08c.02-.02.05-.03.08-.03h.63s.06.02.09.04c.03.02.06.04.07.06l.85,1.29s.04.04.06.04c.02,0,.04-.01.06-.04l.89-1.26s.04-.04.08-.06c.03-.02.06-.03.1-.03h.63s.06.02.08.04c.02.02.03.05.03.08Z"/>
          <path class="cls-3" d="m63.57,10.91v.19s0,.06.03.08c.02.02.05.03.08.03l1.23.02s.06.01.08.03c.02.02.03.05.03.08v.62s-.02.06-.04.08c-.02.02-.05.03-.08.03l-1.23-.02s-.06,0-.08.03c-.02.02-.03.05-.03.08v.17s0,.06.03.08c.02.02.05.03.08.03l1.41.02s.06.01.08.03c.02.02.03.05.03.08v.62s-.02.06-.04.08c-.02.02-.05.03-.08.03l-2.3-.04s-.06-.01-.08-.03c-.02-.02-.03-.05-.03-.08l.05-3.09s.01-.06.03-.08c.02-.02.05-.03.08-.03l2.3.04s.06.01.08.03c.02.02.03.05.03.08v.61s-.02.06-.04.08c-.02.02-.05.03-.08.03l-1.41-.02s-.06.01-.08.03c-.02.02-.03.05-.03.08Z"/>
          <path class="cls-3" d="m66.52,13.33h-.68s-.06-.02-.08-.04c-.02-.02-.03-.05-.03-.08l.05-3.09s.01-.06.03-.08c.02-.02.05-.03.08-.03l1.41.02c.18,0,.34.04.48.1.15.06.27.15.37.25.1.11.18.23.24.38s.08.31.08.48c0,.1-.01.19-.04.29-.02.09-.06.18-.1.27-.04.08-.09.16-.15.23-.06.07-.12.12-.2.17-.02.02-.04.04-.05.06,0,.03,0,.05.01.08.11.15.23.31.35.47.12.16.23.31.33.44.02.02.02.05.01.08,0,.03-.03.04-.06.04h-.84s-.06-.02-.1-.04c-.03-.02-.06-.04-.08-.06-.09-.13-.19-.26-.28-.39-.09-.13-.18-.26-.27-.4-.02-.02-.04-.05-.08-.06-.03-.02-.06-.03-.09-.03h-.1s-.06,0-.08.03c-.02.02-.03.05-.03.08v.73s-.02.06-.05.08c-.02.02-.05.03-.08.03Zm.25-1.78h.48s.07,0,.11-.01c.04-.01.08-.03.11-.06.03-.03.06-.06.08-.11s.03-.09.03-.15c0-.03,0-.07-.01-.11,0-.04-.03-.08-.05-.12-.02-.04-.06-.07-.1-.1-.04-.03-.1-.04-.16-.04h-.48s-.06,0-.08.02c-.02.02-.03.05-.03.08v.48s0,.06.02.08c.02.02.05.03.08.03Z"/>
          <path class="cls-3" d="m69.38,12.24c.16.11.32.19.48.26.16.06.31.1.45.1.13,0,.23-.01.3-.05.07-.04.11-.09.11-.17,0-.04-.01-.07-.04-.09-.03-.02-.07-.04-.12-.06-.05-.02-.11-.03-.17-.04-.07-.01-.13-.02-.2-.04-.07-.01-.14-.03-.23-.05-.09-.02-.18-.04-.27-.08-.09-.03-.18-.07-.28-.12-.09-.05-.17-.11-.24-.19-.07-.08-.13-.17-.17-.27-.04-.1-.06-.23-.06-.37,0-.21.05-.38.13-.51.08-.13.19-.24.32-.32.13-.08.27-.13.42-.16.15-.03.3-.04.45-.04.25,0,.48.04.68.12s.39.19.57.33c.02.02.04.05.04.08,0,.03,0,.06-.02.08l-.36.5s-.04.04-.07.04-.06,0-.08-.02c-.15-.1-.29-.17-.43-.21-.13-.04-.25-.07-.37-.07-.03,0-.07,0-.12,0-.04,0-.09,0-.12.02-.04.01-.07.03-.1.05-.03.02-.04.06-.04.1,0,.04.03.08.09.11s.13.06.22.09c.08.03.16.05.23.06s.12.02.14.03c.11.02.23.06.36.1.13.04.25.11.36.19.11.08.21.19.28.32.07.13.11.29.11.48,0,.18-.04.34-.1.47-.07.13-.16.24-.27.32-.11.08-.25.14-.41.18-.16.04-.33.06-.53.05-.16,0-.3-.02-.44-.05-.14-.03-.26-.07-.38-.11-.12-.05-.23-.1-.33-.17s-.19-.13-.27-.2c-.02-.02-.04-.04-.04-.08,0-.03,0-.06.02-.08l.36-.5s.04-.04.07-.04c.03,0,.06,0,.08.02Z"/>
        </g>
      </g>
    </g>
  </g>
</svg>