<?xml version="1.0" encoding="UTF-8"?>
<svg id="Laag_2" data-name="Laag 2" xmlns="http://www.w3.org/2000/svg" xmlns:xlink="http://www.w3.org/1999/xlink" viewBox="0 0 114.47 114.21">
  <defs>
    <style>
      .cls-1 {
        fill: none;
      }

      .cls-2 {
        clip-path: url(#clippath);
      }

      .cls-3 {
        fill: #f6af8e;
      }

      .cls-4 {
        fill: #efe7db;
      }

      .cls-5 {
        fill: #e07e57;
      }

      .cls-6 {
        fill: #e0a18c;
      }

      .cls-7 {
        fill: #d9544e;
      }

      .cls-8 {
        fill: #c69c6c;
      }

      .cls-9 {
        fill: #429775;
      }

      .cls-10 {
        fill: #4159a5;
      }

      .cls-11 {
        fill: #887658;
      }

      .cls-12 {
        clip-path: url(#clippath-1);
      }

      .cls-13 {
        clip-path: url(#clippath-4);
      }

      .cls-14 {
        clip-path: url(#clippath-3);
      }

      .cls-15 {
        clip-path: url(#clippath-2);
      }

      .cls-16 {
        clip-path: url(#clippath-6);
      }

      .cls-17 {
        clip-path: url(#clippath-5);
      }

      .cls-18 {
        isolation: isolate;
      }
    </style>
    <clipPath id="clippath">
      <rect class="cls-1" x="0" y="8.62" width="114.47" height="105.59"/>
    </clipPath>
    <clipPath id="clippath-1">
      <rect class="cls-1" x="48.25" y="63" width="18.11" height="26.3"/>
    </clipPath>
    <clipPath id="clippath-2">
      <rect class="cls-1" x="23.02" y="11.17" width="68.4" height="6.74"/>
    </clipPath>
    <clipPath id="clippath-3">
      <rect class="cls-1" x="11.91" y="79.69" width="13.48" height="5.54"/>
    </clipPath>
    <clipPath id="clippath-4">
      <rect class="cls-1" x="28.18" y="79.69" width="13.48" height="5.54"/>
    </clipPath>
    <clipPath id="clippath-5">
      <rect class="cls-1" x="87.39" y="79.69" width="13.48" height="5.54"/>
    </clipPath>
    <clipPath id="clippath-6">
      <rect class="cls-1" x="72.04" y="79.69" width="13.48" height="5.54"/>
    </clipPath>
  </defs>
  <g id="Laag_1-2" data-name="Laag 1">
    <g id="Group_903" data-name="Group 903">
      <g id="Group_381" data-name="Group 381">
        <g class="cls-2">
          <g id="Group_379-2" data-name="Group 379-2">
            <path id="Path_11608-2" data-name="Path 11608-2" class="cls-9" d="m22.03,9.68s-2.46,1.3-3.05,3.3c-.6,2.01-1.08,5.82-1.08,5.82,0,0-.48,2.86-1.15,4.31s-5.23,10.34-5.23,10.34l-4.35,7.7-3.96,6.92S-.67,53.14.1,58.25c0,0,1.26,5.79,2.71,6.72,1.45.93,2.25,1.38,2.51,1.67.5.54.81,1.24.85,1.98.03.96.1,4,.1,4v8.73s-.04,2.22-1.21,2.45-2.79.2-2.89,1.77.02,5.82.1,6.16.23,1.46,1,1.99c.76.53,1.92,1.05,2.15,1.24s.88.94.99,1.59.16,2.09.16,2.09c0,0-.05,4.28,0,5.08s.18,2.7.18,2.7c0,0-.08,3.03-1.12,3.86s-1.56,1.13-2.39,1.32-1.38.24-1.45,1.01c-.04.53-.04,1.07,0,1.61l37.87-.33,49.29-.49,25.42-.29s-.13-1.29-3.04-2.29l-1.15-.39s-1.29-.34-.81-2.48c.17-1.3.16-2.61-.05-3.9-.34-2.25-.73-5-.56-6.03s.21-2.27,1.81-3.81c.44-.36.9-.69,1.38-.99.42-.22.75-.28.7-1.68,0,0-.21-.44-.11-1.93s.16-2.66.16-2.66c0,0,.03-1.93-.58-2.9-.37-.58-.91-1.03-1.54-1.28l-1.12-.36s-.87-.1-1.08-1.36-.12-4.21-.12-4.21c0,0,.02-4-.03-4.97s-.12-2.03-.12-2.03c0,0-.06-2.03.44-2.96s.79-1.5,2.25-2.71c1.02-.89,1.87-1.95,2.53-3.12,0,0,1-1.57,1.16-4.42,0,0,.17-3.97-2.09-7.16l-3.35-6.04-3.64-6.9-3.34-6.16s-4.03-6.71-4.67-7.65-2.75-3.8-2.74-5.67.09-2.75.09-2.75c0,0,.83-3.12-1.93-4.83,0,0-1.38-.88-4.64-.85s-8.75.07-8.75.07l-12.56.1-13.17.13-14.13.16-13.44.17s-2.06-.16-3.07.13l-1.02.29Z"/>
            <path id="Path_11609-2" data-name="Path 11609-2" class="cls-4" d="m21.46,21.69s-.48-.96-1.72,1.46-2.97,5.87-2.97,5.87l-3.42,6.77-4.69,9.2-2.2,4.31-1.23,2.42s1.72.92,3.26.76,2.69-.28,4.21-2.43c.62-1.22,1.17-2.47,1.64-3.76.62-1.79,2.56-7.03,2.56-7.03l1.5-3.87,1.47-3.76.99-2.54,1.22-3.24.71-2.07s.19-1.17-.29-1.55c-.31-.24-.67-.42-1.04-.54"/>
            <path id="Path_11610-2" data-name="Path 11610-2" class="cls-4" d="m17.56,46.17l2.4-6.57,4.21-11.81,1.03-3.01s1.19-3.13,2.31-3.14,1.91.08,2.37.6.69.69.68,1.59-.66,2.76-.66,2.76l-.77,2.47-.54,1.54-.89,3.66-1.05,4.12-1.19,4.51-.66,2.46-.94,3.46-.69,2.05s-.29,1.06-1.07,1.37-2.43.23-2.43.23c0,0-2.16-.29-2.47-.43s-1.51-.22-.96-1.95"/>
            <path id="Path_11611-2" data-name="Path 11611-2" class="cls-4" d="m27.43,45.62l.96-3.45,1.31-4.71,2.09-8.1,1.41-5.65s.87-2.66,3.31-2.19,2.95,1.65,2.53,3.01-1.36,6.14-1.36,6.14l-.95,4.79-.9,4.83-.58,3.48-.5,3.61s-.36,4.33-1.32,4.58-4.36.37-4.36.37c0,0-3.25,1.09-2.63-2.17"/>
            <path id="Path_11612-2" data-name="Path 11612-2" class="cls-4" d="m41.85,23.37l-1.84,10.15-1.21,6.53-.95,4.57-.84,3.94s-.07,2.91.77,3.38,3.68.37,3.68.37c0,0,2.31.57,2.87-.37.55-.94.94-3.02,1.12-5.96s1.04-12.08,1.04-12.08l.52-4.73.65-4.18s.48-3.12-1.1-3.3-2.44-.29-2.44-.29c0,0-1.76.27-2.27,1.96"/>
            <path id="Path_11613-2" data-name="Path 11613-2" class="cls-4" d="m51.46,21.69s-1.09,1.34-1.36,4.52-.6,6.75-.6,6.75l-.65,6.5-.65,6.41s-1.19,5.37,1.5,5.94c0,0,1.74.97,2.89.59s1.96-.9,2.89-2.74.49-4.55.49-4.55v-8s-.12-9.32-.12-9.32c0,0,.32-4.53-.5-5.57,0,0-.59-.71-1.17-.77-.53-.03-1.07-.03-1.6,0l-1.11.23Z"/>
            <path id="Path_11614-2" data-name="Path 11614-2" class="cls-4" d="m60.19,21.46c-.89.31-1.48,1.15-1.47,2.1,0,1.64.04,4.15.04,4.15l.04,3.4.1,6.13.03,2.95v2.47s-.02,2.7-.02,2.7l-.05,2.13s0,1.98.18,2.56.49,1.54,1.16,1.84,1.82.62,2.32.61,2.19.1,2.43-.19.94-.82,1.11-1.57.41-2.71.26-3.82-1.03-7.5-1.03-7.5l-.69-5.58-.38-3.69-.26-3.16-.23-2.79s-.37-2.21-1.21-2.71-1.8-.14-1.8-.14l-.51.14Z"/>
            <path id="Path_11615-2" data-name="Path 11615-2" class="cls-4" d="m66.52,25.6s-.68-2.44-.43-3.07.66-1.15,1.16-1.11,2.88-.26,2.88-.26c0,0,1.02-.55,1.47.83s1.59,7.21,1.59,7.21l1.43,6.9,1.26,7.15.82,4.75s.69,3.61-.32,3.99-3.16.5-3.16.5h-1.81c-.79-.5-1.37-1.28-1.61-2.19-.44-1.56-1.52-8.02-1.52-8.02l-.69-6.5-.77-6.62-.32-3.56Z"/>
            <path id="Path_11616-2" data-name="Path 11616-2" class="cls-4" d="m75.89,21.4s-1.52.15-.79,2.78c.73,2.63,1.53,7.17,1.53,7.17l1.11,6.07.79,4.31.59,3.24.66,3.67s.65,4.06,3.07,3.85c1.52-.14,3.02-.39,4.5-.77,0,0,1.24-.69.24-3.68s-2.16-7.2-2.16-7.2l-1.82-6.6-1.49-4.79-.69-2.19-.83-2.7-.9-2.37s-.29-.99-1.29-1.04-2.53.27-2.53.27"/>
            <path id="Path_11617-2" data-name="Path 11617-2" class="cls-4" d="m83.62,22.06s-.8.3,0,2.19c.58,1.46,1.07,2.96,1.47,4.48l2.12,8.01,1.58,5.99.88,3.38,1.14,3.77s1.05,2.58,2.35,2.59c.85,0,1.69-.14,2.5-.38l2.83-.9s.67-.61-.28-2.06-2.78-6.9-2.78-6.9l-1.27-3.41-1.64-4.37-1.37-3.7-1.74-4.85-.72-2.07s-.56-2.56-1.98-2.66-3.11.86-3.11.86"/>
            <path id="Path_11618-2" data-name="Path 11618-2" class="cls-4" d="m90.81,21.47l7.31,18.96,2.12,5.68s1.21,3.97,2.36,4.47c1.08.5,2.27.69,3.45.57,1.08-.14,1.6.12,2.04-.69s.87-2.07,0-3.29-2-3.03-2-3.03l-1.76-3.26-2.71-5.04-2.19-4.12-1.9-3.6-1.29-2.45-.86-1.64-1.12-1.78s-.47-.7-1.08-.89-.82-.4-1.6-.15l-.78.25Z"/>
            <path id="Path_11619-2" data-name="Path 11619-2" class="cls-4" d="m14.33,101.52l-2.21-.04s-3.36.03-3.11,2.66.92,3.09,3.31,3.06c2.39-.03,90.77-.98,90.77-.98l2.11-.02s1.1.47,1.21-.95c.05-1.01,0-2.03-.17-3.03,0,0-.55-1.5-1.99-1.5s-89.92.8-89.92.8"/>
            <path id="Path_11620-2" data-name="Path 11620-2" class="cls-4" d="m15.35,93.66h-3.6s-2.44-.04-2.8,1.51-.03,2.51.65,3.06c.68.55,3.6,1,3.6,1l12.09-.22,76.22-.82,2.37-.03s1.93.29,2.5-1.37.09-2.63-.44-3.14-1.22-.85-2.69-.82-87.9.82-87.9.82"/>
            <path id="Path_11621-2" data-name="Path 11621-2" class="cls-4" d="m14.54,109.27h-3.64s-2.47-.03-2.83,1.08-.03,1.8.66,2.19,3.64.72,3.64.72l12.23-.16,77.08-.58,2.4-.02s1.96.21,2.53-.98.09-1.88-.44-2.24-1.23-.61-2.72-.59-88.89.59-88.89.59"/>
            <path id="Path_11622-2" data-name="Path 11622-2" class="cls-4" d="m12.27,85.78h-3.87s-2.61-.04-3,1.51-.04,2.51.7,3.06,3.86,1,3.86,1l12.97-.22,81.77-.82,2.54-.03s2.07.29,2.68-1.37.09-2.63-.47-3.14-1.3-.85-2.89-.82-94.31.82-94.31.82"/>
            <path id="Path_11623-2" data-name="Path 11623-2" class="cls-4" d="m2.93,54.4c-1.08.91-1.55,2.36-1.2,3.73.58,2.37.72,2.89,1.28,3.66s1.11,1.67,1.82,2.03,1.13.84,2.14.42c.85-.35,1.65-.84,2.34-1.44.61-.53,1.2-1.06,1.86-1.19s1.16-.35,2.45.37c0,0,1.33,1.24,2.01,1.6s1.13.7,2.17.67,2.3-.79,3.1-2.39,1.22-2.69,1.62-2.99.53-.67,1.18.13.99,2.01.99,2.01c0,0,.56,1.25,1.5,1.61s1.89.74,3.07.55,1.64.11,2.85-1.9c0,0,.23-1.63.44-2.13s.31-.98.79-1.09.86-.18,1.57.33.74,1.7.74,1.7c0,0,.48,2.24,1.19,2.85s1.41,1.2,3,.94,2.92-1.71,2.92-1.71c.28-.48.5-1,.65-1.54.2-.79-.12-1.61.49-1.89s.99-.35,1.48-.2,1.2,1.81,1.72,2.47,1.78,2.52,2.89,2.71c0,0,.99.61,1.85-.05.82-.6,1.51-1.37,2.01-2.26.47-.87.91-1.86.91-1.86,0,0,.32-1.28,1.16-1.26s1.18.76,1.47,1.28,1.21,2.02,1.87,2.51,1.52,1.06,2.21,1.05,1.56.14,2.83-1.04c.73-.78,1.35-1.64,1.86-2.58l.65-.96s.54-.9,1.22.11,1.26,1.95,1.26,1.95c0,0,1.28,1.81,1.63,2.12s1.08,1.04,2.05.98,2.23-.97,2.81-1.56,1.98-2.19,1.98-2.19l.49-.56s.66-.74,1.14,0,1.25,2.32,1.78,2.85,1.21,1.11,1.75,1.22,1.5.41,2.79-.68c.74-.6,1.33-1.35,1.73-2.21,0,0,.69-1.82,1.29-2.12s1.4-.64,2.01-.05.71,2.3.71,2.3c0,0,.58,2.1,1.96,2.5,0,0,1.49.73,3-.06s2.31-2.85,2.31-2.85l.93-2.03s.75-1.39,1.57-.51,1.57,3.08,1.57,3.08c0,0,1.05,2.85,3.01,2.5,1.6-.28,3.02-1.19,3.94-2.53.41-.64.63-1.39.65-2.15l.09-1.81s-.05-1.36-.84-1.56-2.74-.13-2.74-.13l-16.09-.09-17.6-.2-23.84-.15-26.82-.1-19.66-.23Z"/>
          </g>
        </g>
      </g>
      <g id="Group_393" data-name="Group 393">
        <g class="cls-12">
          <g id="Group_392" data-name="Group 392">
            <path id="Path_11631" data-name="Path 11631" class="cls-7" d="m53.84,84.64c.73-.99,1.15-2.18,1.19-3.41.14-1.12-.06-2.26-.59-3.26l-.59-1.04c-.52.57-.9,1.26-1.11,2v.78l-2.57-.62s.69-2.14,1.24-2.76c.05-.19.12-.38.21-.56.21-.41.5-.77.87-1.05,1.05-.63,2.18-1.1,3.37-1.38,0,.29.09.57.25.8.34.5.99.75,1.69.66.18,0,.36-.03.53-.09.42-.17.76-.5.93-.92.2-.13.44-.22.68-.24.41-.04.7.12,1.12.29.46.19.93.33,1.41.44,1.93,1,3.22,2.91,3.46,5.07l-1.62.14-.81-.04c-.07-.04-.14-.09-.2-.14-.33-.3-.35-.7-.44-1.03-.11-.39-.32-.76-.61-1.05-.25.37-.47.76-.65,1.17-.31.7-.58,1.63-.46,2.56l1.11,2.97.37,1.24h-9.2l.41-.51Z"/>
            <path id="Path_11632" data-name="Path 11632" class="cls-7" d="m50.16,79.09s-.99,2.31-1.27,4.27-1.83,2.98,1.27,3.91l2.73.93,2.05.84s-.28.56,1.49,0c0,0-.09-1.12-1.58-1.77s-3.91-2.12-3.91-2.12l.84-3.1.95-2.34-2.57-.62Z"/>
            <path id="Path_11633" data-name="Path 11633" class="cls-7" d="m63.5,79.44l.68,4.75v1.39s-3.99,1.86-4.69,2.51-.45,1.13,0,1.21,2.13-.31,2.13-.31l2.57-1.22,2.19-1.03v-3.28l-.43-3.28v-.84l-2.43.1Z"/>
            <path id="Path_11634" data-name="Path 11634" class="cls-10" d="m52.73,74.16s1.25,1.22,1.4,2.88.39,4.04.39,4.04c-.06.84-.24,1.66-.55,2.45-.47,1.1-.35,1.72-.35,1.72h9.87s-1.09-1.04-1.17-3.43,0-2.88,0-2.88l-6.73.06s.25-2.02-.38-3.27-.78-1.56-.78-1.56h-1.72Z"/>
            <path id="Path_11635" data-name="Path 11635" class="cls-8" d="m52.01,74.91c-.55-1.14-.21-2.5.79-3.27v-2s-.31-1.69.25-2.19c0,0-.25-1.19.5-1.63h.69c-.32-.73-.05-1.58.63-2,.76-.63,1.75-.93,2.73-.82,1.7.15,2.46.45,2.46.45l1.03.55.41.89s.55,0,.55,2.67c0,0,.55-.48.75.34s0,1.98,0,1.98l-.27,1.98c.46.19.74.67.68,1.16-.07.89,0,2.87,0,2.87v1.23s.61,0,.61,1.23-.55,2.53-.55,2.53c0,0-.75.62-1.37.62s-1.78.14-2.32,0-.41-1.78-.41-1.78l.41-2.05-.62-1.23.1-2.31s.1-1.91.57-2.58.57-3.25.57-3.25c0,0-1.62,0-1.62-1.15l-.1-1.24s-1.05-.57-1.62.76c0,0-.19,1.72-.76,1.91s-1.81.19-1.81.67.21,1.05.76,1.91c.51.78.74.89.86,1.35.16.64-.08,1.27-.33,1.71-.66.7-1.24.96-1.68.96-.64-.04-1.27-.14-1.89-.28"/>
            <path id="Path_11636" data-name="Path 11636" class="cls-6" d="m55.67,73.53s.81,1.36,2,1.46c.23-.02.45-.06.66-.13.3-.1.59-.19.75-.42.1-.15.04-.21.09-.75.03-.28.07-.56.13-.83.05-.26.1-.48.14-.63.18-.23.33-.47.45-.74.15-.37.26-.77.31-1.17.05-.25.07-.47.09-.62.03-.18.06-.41.09-.68.07-.55.06-.65-.02-.75-.19-.23-.67-.18-.81-.15-.51-.2-.7-.45-.78-.62-.11-.22-.08-.39-.1-.89-.02-.38-.05-.69-.08-.88-.41-.11-.85-.04-1.2.19-.31.19-.56.45-.74.77.02.25,0,.5-.02.75-.02.16-.06.32-.14.46-.03.05-.06.1-.1.15-.11.17-.23.33-.38.48-.11.09-.22.1-.6.14-.98.11-1.23.15-1.43.32-.08.07-.14.17-.17.27-.03.18.1.27.2.52.14.34-.03.41.12.73.09.18.22.34.37.48.14.13.29.23.46.31l.69,1.17v1.05Z"/>
          </g>
        </g>
      </g>
      <g id="Group_406" data-name="Group 406">
        <g class="cls-15">
          <g id="Group_395-2" data-name="Group 395-2">
            <path id="Path_11637-2" data-name="Path 11637-2" class="cls-4" d="m25.48,17.83s-1.82.51-2.14-1.09-.51-2.79,0-3.42c.51-.63.89-1.16,1.8-1.2.91-.05,4.87-.22,4.87-.22l7.13-.21,6.99-.1h9.98s9.93.1,9.93.1l4.73-.08,7.18-.12,9.64-.21,2.84-.08s1.67-.21,2.47.68c.81.89.44,3.36.44,3.36,0,0,.53,1.51-1.51,1.76-2.03.25-4.92.04-4.92.04l-7.62.06-5.16.04-6.36.05-5.5.06-15.27.17-11.87.09-4.09.16-3.57.16Z"/>
          </g>
        </g>
      </g>
      <g id="Group_577" data-name="Group 577">
        <g class="cls-14">
          <g id="Group_576" data-name="Group 576">
            <path id="Path_14483" data-name="Path 14483" class="cls-3" d="m21.69,80.73c.34.03.68.08,1.01.16-.17.44-.34.88-.51,1.32-.09.18-.1.4-.01.58.12.25.19.51.31.76.07.2.15.4.25.58-.63.14-1.28.2-1.93.18-.4-.03-.8-.05-1.2-.08-.79-.09-1.57-.24-2.33-.44-.04-.01-.08-.02-.12-.02-.03-.03-.06-.05-.1-.06-.46-.12-.91-.26-1.36-.39-.14-.07-.29-.1-.44-.1-.16-.11-.35-.17-.55-.18-.36-.03-.73.03-1.06.17v-1.43c.37.16.78.21,1.18.14.27-.05.52-.14.77-.25.11,0,.22-.02.32-.07.96-.31,1.93-.55,2.92-.72.75-.13,1.51-.2,2.26-.2.2,0,.4.04.61.03m-2.2,2.63c0,.07.01.13.05.18.15.14.32.26.5.34.04.02.08.02.13.01.46-.06.93-.13,1.39-.19.1-.01.12-.04.08-.11-.06-.1-.12-.21-.18-.32-.02-.06-.07-.09-.12-.1-.13-.02-.25-.06-.37-.12-.42-.19-.89-.17-1.3.03-.13.07-.2.15-.18.26"/>
            <path id="Path_14484" data-name="Path 14484" class="cls-5" d="m22.73,84.14c-.1-.19-.18-.38-.25-.58-.11-.25-.18-.52-.31-.76-.09-.19-.08-.4.01-.58.17-.44.34-.88.51-1.32.12.02.24.04.35.08-.08.14-.12.27.03.4.2.16.62.09.66-.17.37.13.74.29,1.08.49.19.1.38.21.56.33-.48.16-.93.32-1.44.5.5.17.97.34,1.45.5-.82.53-1.72.91-2.67,1.12"/>
            <path id="Path_14485" data-name="Path 14485" class="cls-5" d="m13.62,81.8v1.43c-.33.44-.72.84-1.15,1.19-.15.11-.31.21-.47.3h-.06s0-.07,0-.07c.02-.03.01-.06,0-.08,0-.56,0-1.12,0-1.68,0-.83,0-1.67,0-2.5.02-.02.02-.05.01-.08.18.05.34.14.48.26.46.35.87.76,1.21,1.23"/>
            <path id="Path_14486" data-name="Path 14486" class="cls-5" d="m21.69,80.73c-.2.01-.4-.02-.61-.03-.76,0-1.52.07-2.26.2-.99.17-1.97.41-2.92.72-.1.04-.21.07-.32.07-.08-.05-.17-.1-.25-.16-.14-.09-.14-.09.02-.17.27-.13.54-.24.83-.33,1.09-.38,2.2-.71,3.34-.99.54-.15,1.09-.26,1.65-.33.25-.03.25-.03.3.16.08.29.15.58.23.87"/>
            <path id="Path_14487" data-name="Path 14487" class="cls-5" d="m15.24,83.24c.15,0,.31.02.44.1.45.13.9.27,1.36.39.04,0,.07.03.1.06-.25.15-.51.3-.78.42-.03-.11.03-.18.05-.27,0-.04.03-.08-.01-.1-.04-.02-.08,0-.12.02-.12.04-.24.07-.36.12-.12.05-.26.05-.38,0-.23-.08-.46-.18-.67-.29-.18-.11-.18-.17.02-.26.12-.06.24-.11.35-.17"/>
            <path id="Path_14488" data-name="Path 14488" class="cls-5" d="m19.6,84.24c.4.03.8.05,1.2.08-.28.3-.6.57-.9.86-.05.06-.14.07-.2.03,0,0,0,0-.01-.01-.12-.08-.26-.14-.37-.22-.3-.21-.28-.38.04-.57.09-.04.17-.09.24-.16"/>
            <path id="Path_14489" data-name="Path 14489" class="cls-11" d="m23.75,81.19c-.04.25-.47.33-.66.17-.15-.13-.11-.26-.03-.4.08-.05.17-.09.27-.09.29,0,.39.08.42.32"/>
            <path id="Path_14490" data-name="Path 14490" class="cls-3" d="m11.93,84.57s.02.06,0,.08c-.02-.02-.02-.06,0-.08"/>
            <path id="Path_14491" data-name="Path 14491" class="cls-3" d="m11.94,80.31s0,.06-.01.08c-.02-.03-.02-.05.01-.08"/>
            <path id="Path_14492" data-name="Path 14492" class="cls-3" d="m11.94,84.72h.06s-.04.03-.06,0"/>
            <path id="Path_14493" data-name="Path 14493" class="cls-5" d="m19.49,83.36c-.02-.11.05-.19.18-.26.41-.21.88-.22,1.3-.03.12.05.24.09.37.12.06,0,.11.05.12.1.06.11.11.21.18.32.04.07.02.09-.08.11-.46.06-.93.13-1.39.19-.04,0-.09,0-.13-.01-.19-.08-.36-.2-.5-.34-.04-.05-.06-.12-.05-.18"/>
          </g>
        </g>
      </g>
      <g id="Group_580" data-name="Group 580">
        <g class="cls-13">
          <g id="Group_576-2" data-name="Group 576-2">
            <path id="Path_14483-2" data-name="Path 14483-2" class="cls-3" d="m37.96,80.73c.34.03.68.08,1.01.16-.17.44-.34.88-.51,1.32-.09.18-.1.4-.01.58.12.25.19.51.31.76.07.2.15.4.25.58-.63.14-1.28.2-1.93.18-.4-.03-.8-.05-1.2-.08-.79-.09-1.57-.24-2.33-.44-.04-.01-.08-.02-.12-.02-.03-.03-.06-.05-.1-.06-.46-.12-.91-.26-1.36-.39-.14-.07-.29-.1-.44-.1-.16-.11-.35-.17-.55-.18-.36-.03-.73.03-1.06.17v-1.43c.37.16.78.21,1.18.14.27-.05.52-.14.77-.25.11,0,.22-.02.32-.07.96-.31,1.93-.55,2.92-.72.75-.13,1.51-.2,2.26-.2.2,0,.4.04.61.03m-2.2,2.63c0,.07.01.13.05.18.15.14.32.26.5.34.04.02.08.02.13.01.46-.06.93-.13,1.39-.19.1-.01.12-.04.08-.11-.06-.1-.12-.21-.18-.32-.02-.06-.07-.09-.12-.1-.13-.02-.25-.06-.37-.12-.42-.19-.89-.17-1.3.03-.13.07-.2.15-.18.26"/>
            <path id="Path_14484-2" data-name="Path 14484-2" class="cls-5" d="m38.99,84.14c-.1-.19-.18-.38-.25-.58-.11-.25-.18-.52-.31-.76-.09-.19-.08-.4.01-.58.17-.44.34-.88.51-1.32.12.02.24.04.35.08-.08.14-.12.27.03.4.2.16.62.09.66-.17.37.13.74.29,1.08.49.19.1.38.21.56.33-.48.16-.93.32-1.44.5.5.17.97.34,1.45.5-.82.53-1.72.91-2.67,1.12"/>
            <path id="Path_14485-2" data-name="Path 14485-2" class="cls-5" d="m29.89,81.8v1.43c-.33.44-.72.84-1.15,1.19-.15.11-.31.21-.47.3h-.06s0-.07,0-.07c.02-.03.01-.06,0-.08,0-.56,0-1.12,0-1.68,0-.83,0-1.67,0-2.5.02-.02.02-.05.01-.08.18.05.34.14.48.26.46.35.87.76,1.21,1.23"/>
            <path id="Path_14486-2" data-name="Path 14486-2" class="cls-5" d="m37.96,80.73c-.2.01-.4-.02-.61-.03-.76,0-1.52.07-2.26.2-.99.17-1.97.41-2.92.72-.1.04-.21.07-.32.07-.08-.05-.17-.1-.25-.16-.14-.09-.14-.09.02-.17.27-.13.54-.24.83-.33,1.09-.38,2.2-.71,3.34-.99.54-.15,1.09-.26,1.65-.33.25-.03.25-.03.3.16.08.29.15.58.23.87"/>
            <path id="Path_14487-2" data-name="Path 14487-2" class="cls-5" d="m31.5,83.24c.15,0,.31.02.44.1.45.13.9.27,1.36.39.04,0,.07.03.1.06-.25.15-.51.3-.78.42-.03-.11.03-.18.05-.27,0-.04.03-.08-.01-.1-.04-.02-.08,0-.12.02-.12.04-.24.07-.36.12-.12.05-.26.05-.38,0-.23-.08-.46-.18-.67-.29-.18-.11-.18-.17.02-.26.12-.06.24-.11.35-.17"/>
            <path id="Path_14488-2" data-name="Path 14488-2" class="cls-5" d="m35.86,84.24c.4.03.8.05,1.2.08-.28.3-.6.57-.9.86-.05.06-.14.07-.2.03,0,0,0,0-.01-.01-.12-.08-.26-.14-.37-.22-.3-.21-.28-.38.04-.57.09-.04.17-.09.24-.16"/>
            <path id="Path_14489-2" data-name="Path 14489-2" class="cls-11" d="m40.01,81.19c-.04.25-.47.33-.66.17-.15-.13-.11-.26-.03-.4.08-.05.17-.09.27-.09.29,0,.39.08.42.32"/>
            <path id="Path_14490-2" data-name="Path 14490-2" class="cls-3" d="m28.19,84.57s.02.06,0,.08c-.02-.02-.02-.06,0-.08"/>
            <path id="Path_14491-2" data-name="Path 14491-2" class="cls-3" d="m28.2,80.31s0,.06-.01.08c-.02-.03-.02-.05.01-.08"/>
            <path id="Path_14492-2" data-name="Path 14492-2" class="cls-3" d="m28.2,84.72h.06s-.04.03-.06,0"/>
            <path id="Path_14493-2" data-name="Path 14493-2" class="cls-5" d="m35.75,83.36c-.02-.11.05-.19.18-.26.41-.21.88-.22,1.3-.03.12.05.24.09.37.12.06,0,.11.05.12.1.06.11.11.21.18.32.04.07.02.09-.08.11-.46.06-.93.13-1.39.19-.04,0-.09,0-.13-.01-.19-.08-.36-.2-.5-.34-.04-.05-.06-.12-.05-.18"/>
          </g>
        </g>
      </g>
      <g id="Group_581" data-name="Group 581">
        <g class="cls-17">
          <g id="Group_576-3" data-name="Group 576-3">
            <path id="Path_14483-3" data-name="Path 14483-3" class="cls-3" d="m91.09,80.73c-.34.03-.68.08-1.01.16.17.44.34.88.51,1.32.09.18.1.4.01.58-.12.25-.19.51-.31.76-.07.2-.15.4-.25.58.63.14,1.28.2,1.93.18.4-.03.8-.05,1.2-.08.79-.09,1.57-.24,2.33-.44.04-.01.08-.02.12-.02.03-.03.06-.05.1-.06.46-.12.91-.26,1.36-.39.14-.07.29-.1.44-.1.16-.11.35-.17.55-.18.36-.03.73.03,1.06.17v-1.43c-.37.16-.78.21-1.18.14-.27-.05-.52-.14-.77-.25-.11,0-.22-.02-.32-.07-.96-.31-1.93-.55-2.92-.72-.75-.13-1.51-.2-2.26-.2-.2,0-.4.04-.61.03m2.2,2.63c0,.07-.01.13-.05.18-.15.14-.32.26-.5.34-.04.02-.08.02-.13.01-.46-.06-.93-.13-1.39-.19-.1-.01-.12-.04-.08-.11.06-.1.12-.21.18-.32.02-.06.07-.09.12-.1.13-.02.25-.06.37-.12.42-.19.89-.17,1.3.03.13.07.2.15.18.26"/>
            <path id="Path_14484-3" data-name="Path 14484-3" class="cls-5" d="m90.05,84.14c.1-.19.18-.38.25-.58.11-.25.18-.52.31-.76.09-.19.08-.4-.01-.58-.17-.44-.34-.88-.51-1.32-.12.02-.24.04-.35.08.08.14.12.27-.03.4-.2.16-.62.09-.66-.17-.37.13-.74.29-1.08.49-.19.1-.38.21-.56.33.48.16.93.32,1.44.5-.5.17-.97.34-1.45.5.82.53,1.72.91,2.67,1.12"/>
            <path id="Path_14485-3" data-name="Path 14485-3" class="cls-5" d="m99.16,81.8v1.43c.33.44.72.84,1.15,1.19.15.11.31.21.47.3h.06s0-.07,0-.07c-.02-.03-.01-.06,0-.08,0-.56,0-1.12,0-1.68,0-.83,0-1.67,0-2.5-.02-.02-.02-.05-.01-.08-.18.05-.34.14-.48.26-.46.35-.87.76-1.21,1.23"/>
            <path id="Path_14486-3" data-name="Path 14486-3" class="cls-5" d="m91.09,80.73c.2.01.4-.02.61-.03.76,0,1.52.07,2.26.2.99.17,1.96.41,2.92.72.1.04.21.07.32.07.08-.05.17-.1.25-.16.14-.09.14-.09-.02-.17-.27-.13-.54-.24-.83-.33-1.09-.38-2.2-.71-3.34-.99-.54-.15-1.09-.26-1.65-.33-.25-.03-.25-.03-.3.16-.08.29-.15.58-.23.87"/>
            <path id="Path_14487-3" data-name="Path 14487-3" class="cls-5" d="m97.55,83.24c-.15,0-.31.02-.44.1-.45.13-.9.27-1.36.39-.04,0-.07.03-.1.06.25.15.51.3.78.42.03-.11-.03-.18-.05-.27,0-.04-.03-.08.01-.1.04-.02.08,0,.12.02.12.04.24.07.36.12.12.05.26.05.38,0,.23-.08.46-.18.67-.29.18-.11.18-.17-.02-.26-.12-.06-.24-.11-.35-.17"/>
            <path id="Path_14488-3" data-name="Path 14488-3" class="cls-5" d="m93.19,84.24c-.4.03-.8.05-1.2.08.28.3.6.57.9.86.05.06.14.07.2.03,0,0,0,0,.01-.01.12-.08.26-.14.37-.22.3-.21.28-.38-.04-.57-.09-.04-.17-.09-.24-.16"/>
            <path id="Path_14489-3" data-name="Path 14489-3" class="cls-11" d="m89.04,81.19c.04.25.47.33.66.17.16-.13.11-.26.03-.4-.08-.05-.17-.09-.27-.09-.29,0-.39.08-.42.32"/>
            <path id="Path_14490-3" data-name="Path 14490-3" class="cls-3" d="m100.86,84.57s-.02.06,0,.08c.02-.02.02-.06,0-.08"/>
            <path id="Path_14491-3" data-name="Path 14491-3" class="cls-3" d="m100.85,80.31s0,.06.01.08c.02-.03.02-.05-.01-.08"/>
            <path id="Path_14492-3" data-name="Path 14492-3" class="cls-3" d="m100.84,84.72h-.06s.04.03.06,0"/>
            <path id="Path_14493-3" data-name="Path 14493-3" class="cls-5" d="m93.3,83.36c.02-.11-.05-.19-.18-.26-.41-.21-.88-.22-1.3-.03-.12.05-.24.09-.37.12-.06,0-.11.05-.12.1-.06.11-.11.21-.18.32-.04.07-.02.09.08.11.47.06.93.13,1.39.19.04,0,.09,0,.13-.01.19-.08.36-.2.5-.34.04-.05.06-.12.05-.18"/>
          </g>
        </g>
      </g>
      <g id="Group_582" data-name="Group 582">
        <g class="cls-16">
          <g id="Group_576-4" data-name="Group 576-4">
            <path id="Path_14483-4" data-name="Path 14483-4" class="cls-3" d="m75.74,80.73c-.34.03-.68.08-1.01.16.17.44.34.88.51,1.32.09.18.1.4.01.58-.12.25-.19.51-.31.76-.07.2-.15.4-.25.58.63.14,1.28.2,1.93.18.4-.03.8-.05,1.2-.08.79-.09,1.57-.24,2.33-.44.04-.01.08-.02.12-.02.03-.03.06-.05.1-.06.46-.12.91-.26,1.36-.39.14-.07.29-.1.44-.1.16-.11.35-.17.55-.18.36-.03.73.03,1.06.17v-1.43c-.37.16-.78.21-1.18.14-.27-.05-.52-.14-.77-.25-.11,0-.22-.02-.32-.07-.96-.31-1.93-.55-2.92-.72-.75-.13-1.51-.2-2.26-.2-.2,0-.4.04-.61.03m2.2,2.63c0,.07-.01.13-.05.18-.15.14-.32.26-.5.34-.04.02-.08.02-.13.01-.46-.06-.93-.13-1.39-.19-.1-.01-.12-.04-.08-.11.06-.1.12-.21.18-.32.02-.06.07-.09.12-.1.13-.02.25-.06.37-.12.42-.19.89-.17,1.3.03.13.07.2.15.18.26"/>
            <path id="Path_14484-4" data-name="Path 14484-4" class="cls-5" d="m74.7,84.14c.1-.19.18-.38.25-.58.11-.25.18-.52.31-.76.09-.19.08-.4-.01-.58-.17-.44-.34-.88-.51-1.32-.12.02-.24.04-.35.08.08.14.12.27-.03.4-.2.16-.62.09-.66-.17-.37.13-.74.29-1.08.49-.19.1-.38.21-.56.33.48.16.93.32,1.44.5-.5.17-.97.34-1.45.5.82.53,1.72.91,2.67,1.12"/>
            <path id="Path_14485-4" data-name="Path 14485-4" class="cls-5" d="m83.81,81.8v1.43c.33.44.72.84,1.15,1.19.15.11.31.21.47.3h.06s0-.07,0-.07c-.02-.03-.01-.06,0-.08,0-.56,0-1.12,0-1.68,0-.83,0-1.67,0-2.5-.02-.02-.02-.05-.01-.08-.18.05-.34.14-.48.26-.46.35-.87.76-1.21,1.23"/>
            <path id="Path_14486-4" data-name="Path 14486-4" class="cls-5" d="m75.74,80.73c.2.01.4-.02.61-.03.76,0,1.52.07,2.26.2.99.17,1.96.41,2.92.72.1.04.21.07.32.07.08-.05.17-.1.25-.16.14-.09.14-.09-.02-.17-.27-.13-.54-.24-.83-.33-1.09-.38-2.2-.71-3.34-.99-.54-.15-1.09-.26-1.65-.33-.25-.03-.25-.03-.3.16-.08.29-.15.58-.23.87"/>
            <path id="Path_14487-4" data-name="Path 14487-4" class="cls-5" d="m82.2,83.24c-.15,0-.31.02-.44.1-.45.13-.9.27-1.36.39-.04,0-.07.03-.1.06.25.15.51.3.78.42.03-.11-.03-.18-.05-.27,0-.04-.03-.08.01-.1.04-.02.08,0,.12.02.12.04.24.07.36.12.12.05.26.05.38,0,.23-.08.46-.18.67-.29.18-.11.18-.17-.02-.26-.12-.06-.24-.11-.35-.17"/>
            <path id="Path_14488-4" data-name="Path 14488-4" class="cls-5" d="m77.84,84.24c-.4.03-.8.05-1.2.08.28.3.6.57.9.86.05.06.14.07.2.03,0,0,0,0,.01-.01.12-.08.26-.14.37-.22.3-.21.28-.38-.04-.57-.09-.04-.17-.09-.24-.16"/>
            <path id="Path_14489-4" data-name="Path 14489-4" class="cls-11" d="m73.69,81.19c.04.25.47.33.66.17.16-.13.11-.26.03-.4-.08-.05-.17-.09-.27-.09-.29,0-.39.08-.42.32"/>
            <path id="Path_14490-4" data-name="Path 14490-4" class="cls-3" d="m85.51,84.57s-.02.06,0,.08c.02-.02.02-.06,0-.08"/>
            <path id="Path_14491-4" data-name="Path 14491-4" class="cls-3" d="m85.49,80.31s0,.06.01.08c.02-.03.02-.05-.01-.08"/>
            <path id="Path_14492-4" data-name="Path 14492-4" class="cls-3" d="m85.49,84.72h-.06s.04.03.06,0"/>
            <path id="Path_14493-4" data-name="Path 14493-4" class="cls-5" d="m77.94,83.36c.02-.11-.05-.19-.18-.26-.41-.21-.88-.22-1.3-.03-.12.05-.24.09-.37.12-.06,0-.11.05-.12.1-.06.11-.11.21-.18.32-.04.07-.02.09.08.11.47.06.93.13,1.39.19.04,0,.09,0,.13-.01.19-.08.36-.2.5-.34.04-.05.06-.12.05-.18"/>
          </g>
        </g>
      </g>
      <rect id="Rectangle_308" data-name="Rectangle 308" class="cls-7" x="30.15" y="1.52" width="58.48" height="19.37" transform="translate(-.5 3.12) rotate(-3)"/>
      <g id="Vis_uit_Noorwegen" data-name="Vis uit Noorwegen" class="cls-18">
        <g class="cls-18">
          <path class="cls-4" d="m50.45,9.84l-1.66-3.28s-.02-.07,0-.1.04-.05.08-.05l.8-.04s.06,0,.1.03c.03.02.06.04.08.07l.97,1.94s.04.04.07.04c.03,0,.05-.02.06-.05l.76-2.03s.04-.06.07-.08c.03-.02.06-.04.09-.04l.82-.04s.06.01.08.04c.02.03.02.05,0,.08l-1.33,3.45s-.04.06-.07.08c-.03.02-.06.04-.09.04l-.66.03s-.07,0-.1-.03c-.03-.02-.06-.04-.08-.07Z"/>
          <path class="cls-4" d="m54.12,9.75l-.74.04s-.06,0-.09-.03c-.02-.02-.03-.05-.04-.08l-.18-3.37s0-.06.03-.08c.02-.02.05-.04.08-.04l.74-.04s.06,0,.09.03c.02.02.04.05.04.08l.18,3.37s0,.06-.03.08c-.02.02-.05.04-.08.04Z"/>
          <path class="cls-4" d="m55.24,8.45c.18.11.36.19.54.24.18.06.34.08.49.07.14,0,.25-.03.33-.08.07-.04.11-.11.1-.19,0-.04-.02-.08-.05-.1-.03-.02-.08-.04-.13-.05-.06-.01-.12-.02-.19-.03-.07,0-.15-.02-.22-.03-.07,0-.16-.02-.26-.03-.1-.01-.2-.03-.3-.06s-.21-.07-.31-.11c-.1-.05-.2-.11-.28-.19-.08-.08-.15-.17-.21-.28s-.08-.24-.09-.4c-.01-.23.02-.42.1-.57.08-.15.19-.28.32-.37.13-.09.28-.16.45-.21.17-.04.33-.07.49-.08.28-.01.53.01.75.08.22.07.44.18.65.32.03.02.04.05.05.08,0,.03,0,.06-.02.09l-.36.57s-.04.05-.08.05c-.03,0-.06,0-.09-.02-.17-.1-.33-.16-.48-.2s-.28-.05-.4-.05c-.04,0-.08,0-.13,0-.05,0-.09.01-.13.03-.04.01-.08.03-.1.06-.03.03-.04.06-.04.11,0,.05.04.08.11.12s.15.06.24.08c.09.02.18.04.26.05.08.01.13.02.16.02.12.02.25.04.39.08.14.04.28.1.41.18.13.08.24.19.33.32s.14.31.15.52c.01.2-.02.37-.08.51-.06.15-.15.27-.27.37-.12.1-.26.17-.43.23s-.36.09-.57.1c-.17,0-.33,0-.48-.02-.15-.02-.29-.05-.42-.09-.13-.04-.25-.09-.37-.16-.11-.06-.22-.13-.31-.2-.03-.02-.04-.04-.05-.08s0-.06.02-.09l.35-.57s.04-.04.08-.05c.03,0,.06,0,.09.01Z"/>
          <path class="cls-4" d="m59.75,5.97s0-.06.03-.08c.02-.02.05-.04.08-.04l.74-.04s.06,0,.08.03c.02.02.04.05.04.08l.1,2c0,.13.03.23.08.31.05.08.1.14.16.19.06.04.13.07.2.09.07.02.13.02.19.02.06,0,.12-.02.19-.04.07-.02.13-.06.19-.11.06-.05.1-.12.14-.21.04-.09.05-.19.04-.32l-.1-2s0-.06.03-.08.05-.04.08-.04l.74-.04s.06,0,.08.03c.02.02.04.05.04.08l.1,2c.01.23-.01.45-.08.64s-.16.36-.29.5c-.13.14-.29.26-.48.34-.19.08-.4.13-.64.15-.24.01-.45-.01-.65-.08-.2-.06-.37-.16-.51-.29-.14-.13-.26-.28-.35-.47-.08-.19-.13-.4-.15-.63l-.1-2Z"/>
          <path class="cls-4" d="m64.71,9.2l-.74.04s-.07,0-.09-.03c-.02-.02-.03-.05-.04-.08l-.18-3.37s0-.06.03-.09c.02-.02.05-.04.08-.04l.74-.04s.06,0,.09.03c.02.02.04.05.04.08l.18,3.37s0,.06-.03.08c-.02.02-.05.04-.08.04Z"/>
          <path class="cls-4" d="m67.76,6.33l-.69.04s-.06.01-.08.04c-.02.02-.03.05-.03.09l.13,2.46s0,.06-.03.08c-.02.02-.05.04-.08.04l-.74.04s-.06,0-.08-.03c-.02-.02-.04-.05-.04-.08l-.13-2.46s-.01-.06-.04-.08c-.02-.02-.05-.03-.09-.03l-.7.04s-.06,0-.09-.03c-.02-.02-.04-.05-.04-.08l-.04-.67s0-.06.03-.08c.02-.02.05-.04.08-.04l2.6-.14s.07,0,.09.03c.02.02.03.05.04.08l.04.67s0,.06-.03.09c-.02.02-.05.04-.08.04Z"/>
        </g>
        <g class="cls-18">
          <path class="cls-4" d="m44.28,12.63l.18,3.37s0,.06-.03.08c-.02.02-.05.04-.08.04l-.73.04s-.07,0-.1-.02c-.04-.02-.07-.04-.09-.06l-1.38-1.74s-.04-.03-.06-.03c-.02,0-.03.03-.03.06l.09,1.76s0,.06-.03.08c-.02.02-.05.04-.08.04l-.74.04s-.06,0-.09-.03c-.02-.02-.04-.05-.04-.08l-.18-3.37s0-.06.03-.09c.02-.02.05-.04.08-.04l.74-.04s.07,0,.1.02c.04.02.07.04.09.06l1.38,1.74s.04.04.06.03c.02,0,.03-.02.03-.06l-.09-1.76s0-.06.03-.09c.02-.02.05-.04.08-.04l.73-.04s.06,0,.09.03c.02.02.04.05.04.08Z"/>
          <path class="cls-4" d="m44.84,14.29c-.01-.26.02-.5.11-.73.09-.23.21-.44.37-.61s.35-.32.57-.43c.22-.11.46-.17.72-.19.26-.01.5.02.73.11s.44.21.62.37c.18.16.32.35.43.57.11.22.17.46.19.72.01.26-.02.5-.11.73-.09.23-.21.44-.37.61-.16.18-.35.32-.57.43s-.46.17-.72.19c-.26.01-.5-.02-.73-.11-.23-.09-.44-.21-.61-.37s-.32-.35-.43-.57c-.11-.22-.17-.46-.19-.72Zm.98-.05c0,.13.04.24.09.35.05.11.12.2.21.29s.18.14.29.19c.11.04.23.06.35.06.12,0,.24-.04.34-.09.11-.06.2-.13.28-.22.08-.09.14-.19.18-.31.04-.11.06-.23.05-.36,0-.12-.04-.24-.09-.35-.05-.11-.12-.21-.21-.29-.09-.08-.19-.14-.3-.19-.11-.05-.23-.07-.35-.06-.12,0-.24.04-.34.09-.11.06-.2.13-.27.22s-.13.19-.17.31c-.04.11-.06.23-.05.35Z"/>
          <path class="cls-4" d="m48.92,14.07c-.01-.26.02-.5.11-.73.09-.23.21-.44.37-.61s.35-.32.57-.43c.22-.11.46-.17.72-.19.26-.01.5.02.73.11.23.09.44.21.61.37.18.16.32.35.43.57.11.22.17.46.19.72.01.26-.02.5-.11.73-.09.23-.21.44-.37.61-.16.18-.35.32-.57.43-.22.11-.46.17-.72.19-.26.01-.5-.02-.73-.11-.23-.09-.44-.21-.61-.37s-.32-.35-.43-.57c-.11-.22-.17-.46-.19-.72Zm.98-.05c0,.13.04.24.09.35.05.11.12.2.21.29s.18.14.29.19c.11.04.23.06.35.06.12,0,.24-.04.34-.09.11-.06.2-.13.28-.22.08-.09.14-.19.18-.31.04-.11.06-.23.05-.36,0-.12-.04-.24-.09-.35s-.12-.21-.21-.29c-.09-.08-.19-.14-.3-.19-.11-.05-.23-.07-.35-.06-.12,0-.24.04-.34.09-.11.06-.2.13-.27.22-.08.09-.13.19-.17.31-.04.11-.06.23-.05.35Z"/>
          <path class="cls-4" d="m54.11,15.61l-.74.04s-.06,0-.09-.03c-.02-.02-.04-.05-.04-.08l-.18-3.37s0-.06.03-.09c.02-.02.05-.04.08-.04l1.53-.08c.19-.01.37.01.53.07s.31.14.43.25c.12.11.22.24.29.39.07.16.11.33.12.52,0,.11,0,.21-.02.31-.02.1-.05.2-.09.3-.04.09-.09.18-.15.26-.06.08-.13.14-.2.2-.03.02-.04.05-.05.07,0,.03,0,.06.02.08.13.16.27.32.42.49.15.17.28.32.39.46.02.02.03.05.02.08,0,.03-.03.05-.06.05l-.92.05s-.07,0-.11-.02c-.04-.02-.07-.04-.09-.06-.11-.13-.22-.27-.33-.4-.11-.14-.22-.27-.33-.41-.02-.03-.05-.05-.09-.06s-.07-.02-.1-.02h-.11s-.06.02-.08.04c-.02.02-.03.05-.03.09l.04.8s0,.06-.03.08c-.02.02-.05.04-.08.04Zm.13-1.95l.52-.03s.08-.01.12-.03c.04-.02.08-.04.11-.07.03-.03.06-.07.08-.12s.03-.1.03-.17c0-.03,0-.07-.02-.12-.01-.04-.04-.08-.07-.12s-.07-.07-.12-.1c-.05-.02-.11-.04-.18-.03l-.52.03s-.06.01-.08.04c-.02.02-.03.05-.03.09l.03.52s.01.06.04.08c.02.02.05.03.08.03Z"/>
          <path class="cls-4" d="m56.15,12.03s-.02-.07,0-.1.04-.04.07-.05l.8-.04s.06,0,.09.03c.03.02.05.04.06.07l.65,1.61s.03.05.05.05.04-.02.05-.05l.46-1.66s.03-.06.05-.08c.03-.02.06-.04.1-.04l.66-.03s.07,0,.1.03c.03.02.05.05.06.08l.63,1.62s.03.05.05.05.04-.02.05-.05l.48-1.68s.03-.06.06-.08c.03-.02.06-.04.1-.04l.8-.04s.06.01.08.04.02.06,0,.08l-1.02,3.43s-.03.06-.06.08c-.03.02-.06.04-.1.04l-.64.03s-.07,0-.1-.03-.05-.05-.06-.08l-.63-1.61s-.03-.05-.05-.05-.04.02-.05.05l-.46,1.67s-.03.06-.05.08c-.03.02-.06.03-.1.04l-.64.03s-.07,0-.1-.03-.05-.05-.06-.07l-1.36-3.29Z"/>
          <path class="cls-4" d="m63.05,12.55v.21s.03.06.05.08c.02.02.05.03.09.03l1.34-.07s.06,0,.09.03.04.05.04.08l.04.68s0,.06-.03.09c-.02.02-.05.04-.08.04l-1.34.07s-.06.01-.08.04c-.02.02-.03.05-.03.09v.19s.02.06.05.08c.02.02.05.03.09.03l1.53-.08s.06,0,.09.03c.02.02.04.05.04.08l.04.68s0,.06-.03.08c-.02.02-.05.04-.08.04l-2.51.13s-.06,0-.09-.03c-.02-.02-.04-.05-.04-.08l-.18-3.37s0-.06.03-.08c.02-.02.05-.04.08-.04l2.51-.13s.06,0,.09.03c.02.02.04.05.04.08l.04.67s0,.06-.03.09-.05.04-.08.04l-1.53.08s-.06.01-.08.04c-.02.02-.03.05-.03.09Z"/>
          <path class="cls-4" d="m67.28,14.98c-.26.01-.51-.02-.75-.11-.24-.09-.44-.21-.62-.37-.18-.16-.33-.35-.44-.57-.11-.22-.18-.46-.19-.72-.01-.26.02-.5.11-.73.09-.23.21-.44.38-.62.16-.18.36-.32.58-.43.23-.11.47-.17.73-.19.36-.02.68.04.95.17s.5.33.69.58c.02.03.02.06.02.09,0,.04-.02.06-.05.08l-.57.41s-.05.03-.09.02-.06-.02-.09-.04c-.11-.12-.23-.21-.36-.28s-.28-.1-.46-.09c-.12,0-.24.04-.35.1-.11.06-.2.13-.28.22-.08.09-.14.19-.18.31-.04.12-.06.23-.05.36,0,.12.04.24.09.35.05.11.12.2.21.28.09.08.19.14.3.19.11.04.23.06.36.06s.25-.04.37-.09c.12-.05.21-.13.28-.24.02-.03.02-.05,0-.07-.01-.02-.04-.03-.07-.03l-.57.03s-.06,0-.09-.03c-.02-.02-.04-.05-.04-.08l-.03-.59s0-.06.03-.08c.02-.02.05-.04.08-.04l1.7-.09s.06,0,.09.03c.03.02.04.05.05.08,0,.06.02.12.02.2,0,.08,0,.16,0,.25-.01.23-.06.44-.16.64-.09.2-.22.37-.38.52-.16.15-.34.27-.55.36-.21.09-.43.14-.67.16Z"/>
          <path class="cls-4" d="m70.53,12.16v.21s.03.06.05.08c.02.02.05.03.09.03l1.34-.07s.06,0,.09.03c.02.02.04.05.04.08l.04.68s0,.06-.03.09c-.02.02-.05.04-.08.04l-1.34.07s-.06.01-.08.04c-.02.02-.03.05-.03.09v.19s.02.06.05.08c.02.02.05.03.09.03l1.53-.08s.06,0,.09.03.04.05.04.08l.04.68s0,.06-.03.08c-.02.02-.05.04-.08.04l-2.51.13s-.06,0-.09-.03c-.02-.02-.04-.05-.04-.08l-.18-3.37s0-.06.03-.09.05-.04.08-.04l2.51-.13s.06,0,.09.03c.02.02.04.05.04.08l.04.67s0,.06-.03.09c-.02.02-.05.04-.08.04l-1.53.08s-.06.01-.08.04c-.02.02-.03.05-.03.09Z"/>
          <path class="cls-4" d="m76.26,10.95l.18,3.37s0,.06-.03.08c-.02.02-.05.04-.08.04l-.73.04s-.07,0-.1-.02c-.04-.02-.07-.04-.09-.06l-1.38-1.74s-.04-.03-.06-.03c-.02,0-.03.03-.03.06l.09,1.76s0,.06-.03.08c-.02.02-.05.04-.08.04l-.74.04s-.06,0-.09-.03c-.02-.02-.04-.05-.04-.08l-.18-3.37s0-.06.03-.08c.02-.02.05-.04.08-.04l.74-.04s.07,0,.11.02c.04.02.07.04.09.06l1.38,1.74s.04.04.06.03c.02,0,.03-.02.03-.06l-.09-1.76s0-.06.03-.09c.02-.02.05-.04.08-.04l.73-.04s.06,0,.09.03c.02.02.04.05.04.08Z"/>
        </g>
      </g>
    </g>
  </g>
</svg>