<?xml version="1.0" encoding="UTF-8"?>
<svg id="Laag_2" data-name="Laag 2" xmlns="http://www.w3.org/2000/svg" xmlns:xlink="http://www.w3.org/1999/xlink" viewBox="0 0 114.47 109.49">
  <defs>
    <style>
      .cls-1, .cls-2 {
        fill: none;
      }

      .cls-3 {
        clip-path: url(#clippath);
      }

      .cls-4 {
        fill: #efe7db;
      }

      .cls-5 {
        fill: #80c8ec;
      }

      .cls-6 {
        fill: #98635a;
      }

      .cls-7 {
        fill: #d9544e;
      }

      .cls-8 {
        fill: #429775;
      }

      .cls-9 {
        fill: #4159a5;
      }

      .cls-10 {
        fill: #887658;
      }

      .cls-11 {
        clip-path: url(#clippath-1);
      }

      .cls-12 {
        clip-path: url(#clippath-4);
      }

      .cls-13 {
        clip-path: url(#clippath-3);
      }

      .cls-14 {
        clip-path: url(#clippath-2);
      }

      .cls-15 {
        clip-path: url(#clippath-6);
      }

      .cls-16 {
        clip-path: url(#clippath-5);
      }

      .cls-2 {
        stroke: #000;
        stroke-miterlimit: 10;
      }

      .cls-17 {
        isolation: isolate;
      }
    </style>
    <clipPath id="clippath">
      <rect class="cls-1" x="0" y="3.9" width="114.47" height="105.59"/>
    </clipPath>
    <clipPath id="clippath-1">
      <rect class="cls-1" x="46.05" y="59.55" width="17" height="24.71"/>
    </clipPath>
    <clipPath id="clippath-2">
      <rect class="cls-1" x="23.04" y="6.83" width="68.4" height="6.74"/>
    </clipPath>
    <clipPath id="clippath-3">
      <rect class="cls-1" x="33.43" y="68.24" width="6.22" height="18.93" transform="translate(-41.78 112.92) rotate(-89.03)"/>
    </clipPath>
    <clipPath id="clippath-4">
      <rect class="cls-1" x="14.39" y="68.24" width="6.22" height="18.93" transform="translate(-60.49 93.89) rotate(-89.03)"/>
    </clipPath>
    <clipPath id="clippath-5">
      <rect class="cls-1" x="64.99" y="74.06" width="18.93" height="6.22" transform="translate(-1.3 1.28) rotate(-.97)"/>
    </clipPath>
    <clipPath id="clippath-6">
      <rect class="cls-1" x="84.76" y="74.06" width="18.93" height="6.22" transform="translate(-1.3 1.61) rotate(-.97)"/>
    </clipPath>
  </defs>
  <g id="Laag_1-2" data-name="Laag 1">
    <g id="Group_902" data-name="Group 902">
      <g id="Group_380" data-name="Group 380">
        <g class="cls-3">
          <g id="Group_379" data-name="Group 379">
            <path id="Path_11608" data-name="Path 11608" class="cls-8" d="m22.03,4.96s-2.46,1.3-3.05,3.3c-.6,2.01-1.08,5.82-1.08,5.82,0,0-.48,2.86-1.15,4.31s-5.23,10.34-5.23,10.34l-4.35,7.7-3.96,6.92S-.67,48.42.1,53.54c0,0,1.26,5.79,2.71,6.72s2.25,1.38,2.51,1.67c.5.54.81,1.24.85,1.98.03.96.1,4,.1,4v8.73s-.04,2.22-1.21,2.45-2.79.2-2.89,1.77.02,5.82.1,6.16.23,1.46,1,1.99c.76.53,1.92,1.05,2.15,1.24s.88.94.99,1.59.16,2.09.16,2.09c0,0-.05,4.28,0,5.08s.18,2.7.18,2.7c0,0-.08,3.03-1.12,3.86s-1.56,1.13-2.39,1.32-1.38.24-1.45,1.01c-.04.53-.04,1.07,0,1.61l37.87-.33,49.29-.49,25.42-.29s-.13-1.29-3.04-2.29l-1.15-.39s-1.29-.34-.81-2.48c.17-1.3.16-2.61-.05-3.9-.34-2.25-.73-5-.56-6.03s.21-2.27,1.81-3.81c.44-.36.9-.69,1.38-.99.42-.22.75-.28.7-1.68,0,0-.21-.44-.11-1.93s.16-2.66.16-2.66c0,0,.03-1.93-.58-2.9-.37-.58-.91-1.03-1.54-1.28l-1.12-.36s-.87-.1-1.08-1.36-.12-4.21-.12-4.21c0,0,.02-4-.03-4.97s-.12-2.03-.12-2.03c0,0-.06-2.03.44-2.96s.79-1.5,2.25-2.71c1.02-.89,1.87-1.95,2.53-3.12,0,0,1-1.57,1.16-4.42,0,0,.17-3.97-2.09-7.16l-3.35-6.04-3.64-6.9-3.34-6.16s-4.03-6.71-4.67-7.65-2.75-3.8-2.74-5.67.09-2.75.09-2.75c0,0,.83-3.12-1.93-4.83,0,0-1.38-.88-4.64-.85s-8.75.07-8.75.07l-12.56.1-13.17.13-14.13.16-13.44.17s-2.06-.16-3.07.13l-1.02.29Z"/>
            <path id="Path_11609" data-name="Path 11609" class="cls-4" d="m21.46,16.97s-.48-.96-1.72,1.46-2.97,5.87-2.97,5.87l-3.42,6.77-4.69,9.2-2.2,4.31-1.23,2.42s1.72.92,3.26.76,2.69-.28,4.21-2.43c.62-1.22,1.17-2.47,1.64-3.76.62-1.79,2.56-7.03,2.56-7.03l1.5-3.87,1.47-3.76.99-2.54,1.22-3.24.71-2.07s.19-1.17-.29-1.55c-.31-.24-.67-.42-1.04-.54"/>
            <path id="Path_11610" data-name="Path 11610" class="cls-4" d="m17.56,41.45l2.4-6.57,4.21-11.81,1.03-3.01s1.19-3.13,2.31-3.14,1.91.08,2.37.6.69.69.68,1.59-.66,2.76-.66,2.76l-.77,2.47-.54,1.54-.89,3.66-1.05,4.12-1.19,4.51-.66,2.46-.94,3.46-.69,2.05s-.29,1.06-1.07,1.37-2.43.23-2.43.23c0,0-2.16-.29-2.47-.43s-1.51-.22-.96-1.95"/>
            <path id="Path_11611" data-name="Path 11611" class="cls-4" d="m27.43,40.9l.96-3.45,1.31-4.71,2.09-8.1,1.41-5.65s.87-2.66,3.31-2.19,2.95,1.65,2.53,3.01-1.36,6.14-1.36,6.14l-.95,4.79-.9,4.83-.58,3.48-.5,3.61s-.36,4.33-1.32,4.58-4.36.37-4.36.37c0,0-3.25,1.09-2.63-2.17"/>
            <path id="Path_11612" data-name="Path 11612" class="cls-4" d="m41.85,18.65l-1.84,10.15-1.21,6.53-.95,4.57-.84,3.94s-.07,2.91.77,3.38,3.68.37,3.68.37c0,0,2.31.57,2.87-.37.55-.94.94-3.02,1.12-5.96.18-2.94,1.04-12.08,1.04-12.08l.52-4.73.65-4.18s.48-3.12-1.1-3.3-2.44-.29-2.44-.29c0,0-1.76.27-2.27,1.96"/>
            <path id="Path_11613" data-name="Path 11613" class="cls-4" d="m51.46,16.98s-1.09,1.34-1.36,4.52-.6,6.75-.6,6.75l-.65,6.5-.65,6.41s-1.19,5.37,1.5,5.94c0,0,1.74.97,2.89.59s1.96-.9,2.89-2.74.49-4.55.49-4.55v-8s-.12-9.32-.12-9.32c0,0,.32-4.53-.5-5.57,0,0-.59-.71-1.17-.77-.53-.03-1.07-.03-1.6,0l-1.11.23Z"/>
            <path id="Path_11614" data-name="Path 11614" class="cls-4" d="m60.19,16.75c-.89.31-1.48,1.15-1.47,2.1,0,1.64.04,4.15.04,4.15l.04,3.4.1,6.13.03,2.95v2.47s-.02,2.7-.02,2.7l-.05,2.13s0,1.98.18,2.56.49,1.54,1.16,1.84,1.82.62,2.32.61,2.19.1,2.43-.19.94-.82,1.11-1.57.41-2.71.26-3.82-1.03-7.5-1.03-7.5l-.69-5.58-.38-3.69-.26-3.16-.23-2.79s-.37-2.21-1.21-2.71-1.8-.14-1.8-.14l-.51.14Z"/>
            <path id="Path_11615" data-name="Path 11615" class="cls-4" d="m66.52,20.88s-.68-2.44-.43-3.07.66-1.15,1.16-1.11,2.88-.26,2.88-.26c0,0,1.02-.55,1.47.83s1.59,7.21,1.59,7.21l1.43,6.9,1.26,7.15.82,4.75s.69,3.61-.32,3.99-3.16.5-3.16.5h-1.81c-.79-.5-1.37-1.28-1.61-2.19-.44-1.56-1.52-8.02-1.52-8.02l-.69-6.5-.77-6.62-.32-3.56Z"/>
            <path id="Path_11616" data-name="Path 11616" class="cls-4" d="m75.89,16.69s-1.52.15-.79,2.78c.73,2.63,1.53,7.17,1.53,7.17l1.11,6.07.79,4.31.59,3.24.66,3.67s.65,4.06,3.07,3.85c1.52-.14,3.02-.39,4.5-.77,0,0,1.24-.69.24-3.68s-2.16-7.2-2.16-7.2l-1.82-6.6-1.49-4.79-.69-2.19-.83-2.7-.9-2.37s-.29-.99-1.29-1.04-2.53.27-2.53.27"/>
            <path id="Path_11617" data-name="Path 11617" class="cls-4" d="m83.62,17.34s-.8.3,0,2.19c.58,1.46,1.07,2.96,1.47,4.48l2.12,8.01,1.58,5.99.88,3.38,1.14,3.77s1.05,2.58,2.35,2.59c.85,0,1.69-.14,2.5-.38l2.83-.9s.67-.61-.28-2.06-2.78-6.9-2.78-6.9l-1.27-3.41-1.64-4.37-1.37-3.7-1.74-4.85-.72-2.07s-.56-2.56-1.98-2.66-3.11.86-3.11.86"/>
            <path id="Path_11618" data-name="Path 11618" class="cls-4" d="m90.81,16.76l7.31,18.96,2.12,5.68s1.21,3.97,2.36,4.47c1.08.5,2.27.69,3.45.57,1.08-.14,1.6.12,2.04-.69s.87-2.07,0-3.29-2-3.03-2-3.03l-1.76-3.26-2.71-5.04-2.19-4.12-1.9-3.6-1.29-2.45-.86-1.64-1.12-1.78s-.47-.7-1.08-.89-.82-.4-1.6-.15l-.78.25Z"/>
            <path id="Path_11619" data-name="Path 11619" class="cls-4" d="m14.33,96.8l-2.21-.04s-3.36.03-3.11,2.66.92,3.09,3.31,3.06c2.39-.03,90.77-.98,90.77-.98l2.11-.02s1.1.47,1.21-.95c.05-1.01,0-2.03-.17-3.03,0,0-.55-1.5-1.99-1.5s-89.92.8-89.92.8"/>
            <path id="Path_11620" data-name="Path 11620" class="cls-4" d="m15.35,88.95h-3.6s-2.44-.04-2.8,1.51-.03,2.51.65,3.06c.68.55,3.6,1,3.6,1l12.09-.22,76.22-.82,2.37-.03s1.93.29,2.5-1.37.09-2.63-.44-3.14-1.22-.85-2.69-.82-87.9.82-87.9.82"/>
            <path id="Path_11621" data-name="Path 11621" class="cls-4" d="m14.54,104.56h-3.64s-2.47-.03-2.83,1.08-.03,1.8.66,2.19,3.64.72,3.64.72l12.23-.16,77.08-.58,2.4-.02s1.96.21,2.53-.98.09-1.88-.44-2.24-1.23-.61-2.72-.59-88.89.59-88.89.59"/>
            <path id="Path_11622" data-name="Path 11622" class="cls-4" d="m12.27,81.07h-3.87s-2.61-.04-3,1.51-.04,2.51.7,3.06,3.86,1,3.86,1l12.97-.22,81.77-.82,2.54-.03s2.07.29,2.68-1.37.09-2.63-.47-3.14-1.3-.85-2.89-.82-94.31.82-94.31.82"/>
            <path id="Path_11623" data-name="Path 11623" class="cls-4" d="m2.93,49.69c-1.08.91-1.55,2.36-1.2,3.73.58,2.37.72,2.89,1.28,3.66s1.11,1.67,1.82,2.03,1.13.84,2.14.42c.85-.35,1.65-.84,2.34-1.44.61-.53,1.2-1.06,1.86-1.19s1.16-.35,2.45.37c0,0,1.33,1.24,2.01,1.6s1.13.7,2.17.67,2.3-.79,3.1-2.39,1.22-2.69,1.62-2.99.53-.67,1.18.13.99,2.01.99,2.01c0,0,.56,1.25,1.5,1.61s1.89.74,3.07.55,1.64.11,2.85-1.9c0,0,.23-1.63.44-2.13s.31-.98.79-1.09.86-.18,1.57.33.74,1.7.74,1.7c0,0,.48,2.24,1.19,2.85s1.41,1.2,3,.94,2.92-1.71,2.92-1.71c.28-.48.5-1,.65-1.54.2-.79-.12-1.61.49-1.89s.99-.35,1.48-.2,1.2,1.81,1.72,2.47,1.78,2.52,2.89,2.71c0,0,.99.61,1.85-.05.82-.6,1.51-1.37,2.01-2.26.47-.87.91-1.86.91-1.86,0,0,.32-1.28,1.16-1.26s1.18.76,1.47,1.28,1.21,2.02,1.87,2.51,1.52,1.06,2.21,1.05,1.56.14,2.83-1.04c.73-.78,1.35-1.64,1.86-2.58l.65-.96s.54-.9,1.22.11,1.26,1.95,1.26,1.95c0,0,1.28,1.81,1.63,2.12s1.08,1.04,2.05.98,2.23-.97,2.81-1.56,1.98-2.19,1.98-2.19l.49-.56s.66-.74,1.14,0,1.25,2.32,1.78,2.85,1.21,1.11,1.75,1.22,1.5.41,2.79-.68c.74-.6,1.33-1.35,1.73-2.21,0,0,.69-1.82,1.29-2.12s1.4-.64,2.01-.05.71,2.3.71,2.3c0,0,.58,2.1,1.96,2.5,0,0,1.49.73,3-.06s2.31-2.85,2.31-2.85l.93-2.03s.75-1.39,1.57-.51,1.57,3.08,1.57,3.08c0,0,1.05,2.85,3.01,2.5,1.6-.28,3.02-1.19,3.94-2.53.41-.64.63-1.39.65-2.15l.09-1.81s-.05-1.36-.84-1.56-2.74-.13-2.74-.13l-16.09-.09-17.6-.2-23.84-.15-26.82-.1-19.66-.23Z"/>
          </g>
        </g>
      </g>
      <g id="Group_391" data-name="Group 391">
        <g class="cls-11">
          <g id="Group_390" data-name="Group 390">
            <path id="Path_11624" data-name="Path 11624" class="cls-7" d="m51.3,79.88c.69-.93,1.08-2.05,1.11-3.2.14-1.05-.06-2.13-.56-3.06l-.56-.97c-.49.54-.84,1.18-1.04,1.88v.73l-2.41-.58s.65-2.01,1.17-2.6c.05-.18.11-.36.19-.53.19-.39.47-.73.82-.99.98-.59,2.05-1.03,3.16-1.3,0,.27.09.53.24.76.32.47.93.7,1.58.62.17,0,.34-.02.5-.08.39-.16.71-.47.87-.86.19-.13.41-.2.64-.23.39-.04.66.11,1.05.27.43.17.87.31,1.33.41,1.81.94,3.03,2.73,3.25,4.76l-1.52.13-.76-.04c-.07-.04-.13-.08-.19-.13-.31-.28-.33-.66-.41-.97-.11-.37-.3-.71-.57-.99-.24.35-.44.71-.61,1.1-.29.66-.55,1.54-.43,2.41l1.05,2.79.35,1.16h-8.64l.38-.48Z"/>
            <path id="Path_11625" data-name="Path 11625" class="cls-7" d="m47.84,74.67s-.93,2.17-1.2,4.01-1.72,2.8,1.2,3.67l2.57.87,1.92.79s-.26.52,1.4,0c0,0-.09-1.05-1.49-1.66s-3.67-1.99-3.67-1.99l.79-2.91.89-2.2-2.41-.58Z"/>
            <path id="Path_11626" data-name="Path 11626" class="cls-7" d="m60.37,75l.63,4.46v1.3s-3.74,1.75-4.41,2.35-.42,1.06,0,1.13,2-.29,2-.29l2.41-1.15,2.05-.97v-3.08l-.4-3.08v-.79l-2.28.1Z"/>
            <path id="Path_11627" data-name="Path 11627" class="cls-9" d="m50.25,70.04s1.13,1.15,1.27,2.7.35,3.8.35,3.8c-.05.79-.22,1.56-.49,2.3-.42,1.04-.32,1.61-.32,1.61h8.9s-.99-.98-1.06-3.22,0-2.7,0-2.7l-6.07.06s.22-1.89-.34-3.08-.7-1.47-.7-1.47h-1.55Z"/>
            <path id="Path_11628" data-name="Path 11628" d="m49.58,70.75c-.51-1.07-.2-2.35.74-3.07v-1.88s-.29-1.58.23-2.05c0,0-.23-1.11.47-1.53h.65c-.3-.68-.05-1.49.59-1.88.72-.59,1.64-.87,2.56-.77,1.6.15,2.31.42,2.31.42l.96.51.39.83s.51,0,.51,2.5c0,0,.51-.45.71.32s0,1.86,0,1.86l-.26,1.86c.43.18.69.63.64,1.09-.06.83,0,2.7,0,2.7v1.16s.57,0,.57,1.16-.51,2.38-.51,2.38c0,0-.71.58-1.28.58s-1.67.13-2.18,0-.39-1.67-.39-1.67l.39-1.93-.58-1.16.09-2.17s.09-1.79.54-2.42.54-3.05.54-3.05c0,0-1.52,0-1.52-1.08l-.09-1.17s-.99-.54-1.53.72c0,0-.18,1.61-.72,1.79s-1.7.18-1.7.63.2.99.72,1.79c.48.73.7.83.81,1.27.15.6-.08,1.19-.31,1.6-.62.66-1.16.9-1.57.9-.6-.04-1.19-.13-1.78-.26"/>
            <path id="Path_11629" data-name="Path 11629" class="cls-2" d="m49.58,70.75c-.51-1.07-.2-2.35.74-3.07v-1.88s-.29-1.58.23-2.05c0,0-.23-1.11.47-1.53h.65c-.3-.68-.05-1.49.59-1.88.72-.59,1.64-.87,2.56-.77,1.6.15,2.31.42,2.31.42l.96.51.39.83s.51,0,.51,2.5c0,0,.51-.45.71.32s0,1.86,0,1.86l-.26,1.86c.43.18.69.63.64,1.09-.06.83,0,2.7,0,2.7v1.16s.57,0,.57,1.16-.51,2.38-.51,2.38c0,0-.71.58-1.28.58s-1.67.13-2.18,0-.39-1.67-.39-1.67l.39-1.93-.58-1.16.09-2.17s.09-1.79.54-2.42.54-3.05.54-3.05c0,0-1.52,0-1.52-1.08l-.09-1.17s-.99-.54-1.53.72c0,0-.18,1.61-.72,1.79s-1.7.18-1.7.63.2.99.72,1.79c.48.73.7.83.81,1.27.15.6-.08,1.19-.31,1.6-.62.66-1.16.9-1.57.9-.6-.04-1.19-.13-1.78-.26Z"/>
            <path id="Path_11630" data-name="Path 11630" class="cls-6" d="m52.98,69.44s.77,1.29,1.91,1.38c.22-.01.43-.06.64-.12.29-.09.57-.18.72-.4.1-.14.04-.19.09-.7.03-.26.07-.52.12-.78.05-.25.1-.46.13-.6.17-.21.32-.45.43-.69.15-.35.25-.72.3-1.1.04-.24.07-.44.08-.58.03-.17.06-.38.09-.64.06-.52.06-.62-.01-.7-.18-.22-.64-.17-.78-.15-.49-.19-.67-.43-.75-.58-.1-.21-.08-.37-.1-.84-.02-.36-.05-.65-.07-.83-.39-.1-.81-.04-1.15.18-.29.18-.54.43-.71.72.02.24,0,.48-.02.71-.02.15-.06.3-.13.43-.03.05-.06.09-.09.14-.1.16-.22.32-.36.45-.11.08-.21.09-.57.13-.94.1-1.18.14-1.36.31-.08.07-.14.16-.16.26-.03.17.09.26.19.49.13.32-.03.39.12.69.09.17.21.33.36.45.13.12.28.22.44.29l.66,1.1v.99Z"/>
          </g>
        </g>
      </g>
      <g id="Group_396" data-name="Group 396">
        <g class="cls-14">
          <g id="Group_395" data-name="Group 395">
            <path id="Path_11637" data-name="Path 11637" class="cls-4" d="m25.49,13.49s-1.82.51-2.14-1.09-.51-2.79,0-3.42c.51-.63.89-1.16,1.8-1.2.91-.05,4.87-.22,4.87-.22l7.13-.21,6.99-.1h9.98s9.93.1,9.93.1l4.73-.08,7.18-.12,9.64-.21,2.84-.08s1.67-.21,2.47.68c.81.89.44,3.36.44,3.36,0,0,.53,1.51-1.51,1.76-2.03.25-4.92.04-4.92.04l-7.62.06-5.16.04-6.36.05-5.5.06-15.27.17-11.87.09-4.09.16-3.57.16Z"/>
          </g>
        </g>
      </g>
      <g id="Group_571" data-name="Group 571">
        <g class="cls-13">
          <g id="Group_570" data-name="Group 570">
            <path id="Path_14481" data-name="Path 14481" class="cls-5" d="m27.1,75.66c.26.31.5.59.71.89.19.28.37.58.53.88.07.12.06.28-.03.39-.33.56-.72,1.08-1.17,1.55-.05.03-.07.09-.06.15.35-.03.7-.12,1.02-.28.59-.28,1.15-.63,1.66-1.04.15-.13.35-.17.55-.13.89.16,1.76.35,2.64.57.07.02.14.04.21.07-.02.11-.11.1-.17.14-.04.03-.12.03-.11.09,0,.04.06.08.11.1.17.09.33.18.5.26.23.09.4.28.46.52.03.13.07.13.18.06.23-.18.45-.37.65-.58.07-.09.19-.12.3-.08,1.49.41,3.04.6,4.58.56.16-.03.31.08.34.24.09.26.22.51.32.76.05.13.12.15.24.08.32-.18.58-.46.73-.8.17-.42.48-.51.88-.59,1.2-.2,2.36-.6,3.43-1.19.51-.29.51-.39.08-.77-.42-.37-.96-.54-1.49-.69-.83-.23-1.68-.39-2.54-.46-.06-.02-.12-.03-.18-.03-.49.08-.73-.2-.95-.57-.24-.38-.54-.72-.9-1-.12-.1-.18-.15-.27.06-.3.67-.86,1.09-1.49,1.44-.18.1-.4.04-.6.06-.55.07-1.12.1-1.67.2-.16.05-.32-.01-.42-.14-.16-.19-.34-.36-.54-.51-.08-.06-.16-.11-.19.04-.08.25-.27.44-.51.53-.16.08-.32.17-.49.24-.14.07-.17.13,0,.22-.38.07-.77.14-1.15.21-.66.12-1.33.19-2.01.21-.13,0-.25-.04-.35-.12-.71-.56-1.41-1.14-2.29-1.43-.17-.08-.37-.11-.56-.09m16.2,1.73c.01-.21.19-.37.4-.36.2.01.36.17.36.37,0,.2-.16.37-.36.37,0,0,0,0,0,0-.21,0-.38-.17-.39-.38"/>
            <path id="Path_14482" data-name="Path 14482" class="cls-10" d="m43.3,77.4c0,.21.17.38.39.38.2,0,.37-.16.37-.36,0,0,0,0,0,0,.02-.19-.13-.36-.32-.37-.02,0-.04,0-.06,0-.19-.01-.36.13-.37.32,0,.01,0,.02,0,.04"/>
          </g>
        </g>
      </g>
      <g id="Group_572" data-name="Group 572">
        <g class="cls-12">
          <g id="Group_570-2" data-name="Group 570-2">
            <path id="Path_14481-2" data-name="Path 14481-2" class="cls-5" d="m8.07,75.66c.26.31.5.59.71.89.19.28.37.58.53.88.07.12.06.28-.03.39-.33.56-.72,1.08-1.17,1.55-.05.03-.07.09-.06.15.35-.03.7-.12,1.02-.28.59-.28,1.15-.63,1.66-1.04.15-.13.35-.17.55-.13.89.16,1.76.35,2.64.57.07.02.14.04.21.07-.02.11-.11.1-.17.14-.04.03-.12.03-.11.09,0,.04.06.08.11.1.17.09.33.18.5.26.23.09.4.28.46.52.03.13.07.13.18.06.23-.18.45-.37.65-.58.07-.09.19-.12.3-.08,1.49.41,3.04.6,4.58.56.16-.03.31.08.34.24.09.26.22.51.32.76.05.13.12.15.24.08.32-.18.58-.46.73-.8.17-.42.48-.51.88-.59,1.2-.2,2.36-.6,3.43-1.19.51-.29.51-.39.08-.77-.42-.37-.96-.54-1.49-.69-.83-.23-1.68-.39-2.54-.46-.06-.02-.12-.03-.18-.03-.49.08-.73-.2-.95-.57-.24-.38-.54-.72-.9-1-.12-.1-.18-.15-.27.06-.3.67-.86,1.09-1.49,1.44-.18.1-.4.04-.6.06-.55.07-1.12.1-1.67.2-.16.05-.32-.01-.42-.14-.16-.19-.34-.36-.54-.51-.08-.06-.16-.11-.19.04-.08.25-.27.44-.51.53-.16.08-.32.17-.49.24-.14.07-.17.13,0,.22-.38.07-.77.14-1.15.21-.66.12-1.33.19-2.01.21-.13,0-.25-.04-.35-.12-.71-.56-1.41-1.14-2.29-1.43-.17-.08-.37-.11-.56-.09m16.2,1.73c.01-.21.19-.37.4-.36.2.01.36.17.36.37,0,.2-.16.37-.36.37,0,0,0,0,0,0-.21,0-.38-.17-.39-.38"/>
            <path id="Path_14482-2" data-name="Path 14482-2" class="cls-10" d="m24.27,77.4c0,.21.17.38.39.38.2,0,.37-.16.37-.36,0,0,0,0,0,0,.02-.19-.13-.36-.32-.37-.02,0-.04,0-.06,0-.19-.01-.36.13-.37.32,0,.01,0,.02,0,.04"/>
          </g>
        </g>
      </g>
      <g id="Group_573" data-name="Group 573">
        <g class="cls-16">
          <g id="Group_570-3" data-name="Group 570-3">
            <path id="Path_14481-3" data-name="Path 14481-3" class="cls-5" d="m83.89,75.12c-.26.31-.5.59-.71.89-.19.28-.37.58-.53.88-.07.12-.06.28.03.39.33.56.72,1.08,1.17,1.55.05.03.07.09.06.15-.35-.03-.7-.12-1.02-.28-.59-.28-1.15-.63-1.66-1.04-.15-.13-.35-.18-.55-.13-.89.16-1.76.35-2.64.57-.07.02-.14.04-.21.07.02.11.11.1.17.14.04.03.12.03.11.09,0,.04-.06.08-.11.1-.17.09-.33.18-.5.26-.23.09-.4.28-.46.52-.03.13-.07.13-.18.06-.23-.18-.45-.37-.65-.58-.07-.09-.19-.12-.3-.08-1.49.41-3.04.6-4.58.56-.16-.03-.31.08-.34.24-.09.26-.22.51-.32.76-.05.13-.12.15-.24.08-.32-.18-.58-.46-.73-.8-.17-.42-.48-.51-.88-.59-1.2-.2-2.36-.6-3.43-1.19-.51-.29-.51-.39-.08-.77.42-.37.96-.54,1.49-.69.83-.23,1.68-.39,2.54-.46.06-.02.12-.03.18-.03.49.08.73-.2.95-.57.24-.38.54-.72.9-1,.12-.1.18-.15.27.06.3.67.86,1.09,1.49,1.44.18.1.4.04.6.06.55.07,1.12.1,1.67.2.16.05.32-.01.42-.14.16-.19.34-.36.54-.51.08-.06.16-.11.19.04.08.25.27.44.51.53.16.08.32.17.49.24.14.07.17.13,0,.22.38.07.77.14,1.15.21.66.12,1.33.19,2.01.21.13,0,.25-.04.35-.12.71-.56,1.41-1.14,2.29-1.43.17-.08.37-.11.56-.09m-16.2,1.73c0-.19-.15-.35-.34-.36-.01,0-.02,0-.04,0-.19-.02-.36.12-.38.31,0,.02,0,.04,0,.06,0,.2.16.37.36.37,0,0,0,0,0,0,.21,0,.38-.17.39-.38"/>
            <path id="Path_14482-3" data-name="Path 14482-3" class="cls-10" d="m67.69,76.86c0,.21-.17.38-.39.38-.2,0-.37-.16-.37-.36,0,0,0,0,0,0-.02-.19.13-.36.32-.37.02,0,.04,0,.06,0,.19-.01.36.13.37.32,0,.01,0,.02,0,.04"/>
          </g>
        </g>
      </g>
      <g id="Group_574" data-name="Group 574">
        <g class="cls-15">
          <g id="Group_570-4" data-name="Group 570-4">
            <path id="Path_14481-4" data-name="Path 14481-4" class="cls-5" d="m103.65,75.12c-.26.31-.5.59-.71.89-.19.28-.37.58-.53.88-.07.12-.06.28.03.39.33.56.72,1.08,1.17,1.55.05.03.07.09.06.15-.35-.03-.7-.12-1.02-.28-.59-.28-1.15-.63-1.66-1.04-.15-.13-.35-.18-.55-.13-.89.16-1.76.35-2.64.57-.07.02-.14.04-.21.07.02.11.11.1.17.14.04.03.12.03.11.09,0,.04-.06.08-.11.1-.17.09-.33.18-.5.26-.23.09-.4.28-.46.52-.03.13-.07.13-.18.06-.23-.18-.45-.37-.65-.58-.07-.09-.19-.12-.3-.08-1.49.41-3.04.6-4.58.56-.16-.03-.31.08-.34.24-.09.26-.22.51-.32.76-.05.13-.12.15-.24.08-.32-.18-.58-.46-.73-.8-.17-.42-.48-.51-.88-.59-1.2-.2-2.36-.6-3.43-1.19-.51-.29-.51-.39-.08-.77.42-.37.96-.54,1.49-.69.83-.23,1.68-.39,2.54-.46.06-.02.12-.03.18-.03.49.08.73-.2.95-.57.24-.38.54-.72.9-1,.12-.1.18-.15.27.06.3.67.86,1.09,1.49,1.44.18.1.4.04.6.06.55.07,1.12.1,1.67.2.16.05.32-.01.42-.14.16-.19.34-.36.54-.51.08-.06.16-.11.19.04.08.25.27.44.51.53.16.08.32.17.49.24.14.07.17.13,0,.22.38.07.77.14,1.15.21.66.12,1.33.19,2.01.21.13,0,.25-.04.35-.12.71-.56,1.41-1.14,2.29-1.43.17-.08.37-.11.56-.09m-16.2,1.73c0-.19-.15-.35-.34-.36-.01,0-.02,0-.04,0-.19-.02-.36.12-.38.31,0,.02,0,.04,0,.06,0,.2.16.37.36.37,0,0,0,0,0,0,.21,0,.38-.17.39-.38"/>
            <path id="Path_14482-4" data-name="Path 14482-4" class="cls-10" d="m87.45,76.86c0,.21-.17.38-.39.38-.2,0-.37-.16-.37-.36,0,0,0,0,0,0-.02-.19.13-.36.32-.37.02,0,.04,0,.06,0,.19-.01.36.13.37.32,0,.01,0,.02,0,.04"/>
          </g>
        </g>
      </g>
      <rect id="Rectangle_307" data-name="Rectangle 307" class="cls-7" x="47.56" y="-19.06" width="19.37" height="58.49" transform="translate(46.09 67.25) rotate(-89.03)"/>
      <g id="Vis_met_Msc_keurmerk" data-name="Vis met Msc keurmerk" class="cls-17">
        <g class="cls-17">
          <path class="cls-4" d="m46.28,8.18l-1.43-3.39s-.02-.07,0-.1c.02-.03.04-.04.09-.04h.8s.06.03.1.05c.03.02.05.05.07.08l.83,2s.04.05.06.05c.03,0,.05-.01.06-.04l.9-1.97s.04-.05.07-.08c.03-.02.06-.03.1-.03h.82s.06.03.08.06c.02.03.02.06,0,.08l-1.56,3.35s-.04.05-.07.08c-.03.02-.06.03-.1.03h-.66s-.07-.02-.1-.04c-.03-.02-.05-.05-.07-.08Z"/>
          <path class="cls-4" d="m49.95,8.35h-.74s-.06-.03-.09-.05c-.02-.02-.03-.05-.03-.08l.06-3.37s.01-.06.03-.08c.02-.02.05-.03.09-.03h.74s.06.03.08.05c.02.02.03.05.03.08l-.06,3.37s-.01.06-.04.08c-.02.02-.05.03-.08.03Z"/>
          <path class="cls-4" d="m51.16,7.13c.18.12.35.21.52.28.17.07.34.1.49.11.14,0,.26-.02.33-.06.08-.04.11-.1.12-.18,0-.04-.02-.08-.05-.1s-.08-.05-.13-.06c-.05-.02-.12-.03-.19-.04-.07-.01-.15-.03-.22-.04-.07-.01-.16-.03-.25-.05-.1-.02-.2-.05-.3-.08-.1-.04-.2-.08-.3-.14-.1-.05-.19-.12-.27-.21-.08-.08-.14-.18-.18-.3-.05-.11-.07-.25-.06-.4,0-.23.05-.41.14-.56.09-.15.21-.26.34-.35.14-.08.29-.14.46-.17.17-.03.33-.05.49-.04.28,0,.52.05.74.13.22.08.42.21.62.36.03.02.04.05.04.08,0,.03,0,.06-.03.09l-.39.54s-.05.04-.08.05c-.03,0-.06,0-.09-.02-.17-.11-.32-.19-.47-.23-.14-.05-.28-.07-.4-.07-.04,0-.08,0-.13,0-.05,0-.09,0-.14.02-.04.01-.08.03-.11.06-.03.03-.04.06-.04.11,0,.05.03.09.1.13.07.04.15.07.24.1.09.03.17.05.26.07.08.02.13.03.16.03.12.03.25.06.39.11.14.05.27.11.39.2s.22.2.31.35c.08.14.12.32.12.53,0,.2-.04.37-.11.51-.07.14-.17.26-.29.35-.13.09-.27.16-.45.2-.17.04-.37.06-.58.06-.17,0-.33-.02-.48-.05-.15-.03-.29-.07-.41-.12-.13-.05-.25-.11-.35-.18-.11-.07-.21-.14-.3-.22-.03-.02-.04-.05-.04-.08,0-.03,0-.06.03-.09l.39-.54s.05-.04.08-.05c.03,0,.06,0,.09.02Z"/>
          <path class="cls-4" d="m59.86,5.03l-.06,3.37s-.01.06-.04.08c-.02.02-.05.03-.08.03h-.74s-.06-.03-.08-.05c-.02-.02-.03-.05-.03-.08l.03-1.59s-.01-.05-.04-.05c-.03,0-.05,0-.07.03l-.85,1.32s-.04.04-.08.04c-.04,0-.06-.01-.08-.04l-.81-1.35s-.04-.04-.07-.04c-.03,0-.05.02-.05.05l-.03,1.59s-.01.06-.04.08c-.02.02-.05.03-.08.03h-.74s-.06-.03-.08-.05c-.02-.02-.03-.05-.03-.08l.06-3.37s.01-.06.04-.08c.02-.02.05-.03.08-.03h.69s.07.02.1.04c.04.02.06.04.08.07l.93,1.41s.04.04.07.04.05-.01.06-.04l.97-1.38s.05-.05.08-.07.07-.03.1-.03h.69s.06.02.08.05c.02.02.03.05.03.08Z"/>
          <path class="cls-4" d="m61.6,5.96v.21s0,.06.03.08c.02.02.05.04.08.04l1.34.02s.06.01.08.04c.02.02.03.05.03.08v.68s-.02.06-.05.08c-.02.02-.05.03-.08.03l-1.34-.02s-.06.01-.08.03c-.02.02-.04.05-.04.08v.19s0,.06.03.08c.02.02.05.04.08.04l1.53.03s.06.01.08.04c.02.02.03.05.03.08v.68s-.02.06-.05.08c-.02.02-.05.03-.08.03l-2.51-.04s-.06-.01-.08-.04c-.02-.02-.03-.05-.03-.08l.06-3.38s.01-.06.04-.08c.02-.02.05-.03.08-.03l2.51.04s.06.01.08.04c.02.02.03.05.03.08v.67s-.02.06-.05.08-.05.03-.08.03l-1.53-.03s-.06.01-.08.03c-.02.02-.04.05-.04.08Z"/>
          <path class="cls-4" d="m66.36,5.92h-.69s-.06,0-.08.02c-.02.02-.04.05-.04.08l-.04,2.47s-.01.06-.03.08-.05.03-.09.03h-.74s-.06-.02-.08-.05c-.02-.02-.03-.05-.03-.08l.04-2.47s0-.06-.03-.08c-.02-.02-.05-.04-.09-.04h-.7s-.06-.02-.08-.05-.03-.05-.03-.08v-.67s.02-.06.05-.08c.02-.02.05-.03.08-.03l2.61.04s.06.01.09.04c.02.02.03.05.03.08v.67s-.02.06-.04.08-.05.03-.09.03Z"/>
        </g>
        <g class="cls-17">
          <path class="cls-4" d="m39.02,10.52l-.06,3.37s-.01.06-.04.08c-.02.02-.05.03-.08.03h-.74s-.06-.02-.08-.05c-.02-.02-.03-.05-.03-.08l.03-1.59s-.01-.05-.04-.06c-.03,0-.05,0-.07.03l-.85,1.32s-.04.04-.08.04c-.04,0-.06-.01-.08-.04l-.81-1.35s-.04-.04-.07-.04c-.03,0-.05.02-.05.05l-.03,1.59s-.01.06-.04.08c-.02.02-.05.03-.08.03h-.74s-.06-.02-.08-.05c-.02-.02-.03-.05-.03-.08l.06-3.37s.01-.06.04-.08c.02-.02.05-.03.08-.03h.69s.07.02.1.04c.04.02.06.04.08.07l.93,1.41s.04.04.07.04c.03,0,.05-.01.06-.04l.97-1.38s.05-.05.08-.07.07-.03.1-.03h.69s.06.02.08.05c.02.02.03.05.03.08Z"/>
          <path class="cls-4" d="m40.17,12.79c.18.12.35.21.52.28.17.07.34.1.49.11.14,0,.26-.02.33-.06.08-.04.12-.1.12-.18,0-.04-.02-.08-.05-.1-.03-.02-.08-.05-.13-.06-.05-.02-.12-.03-.19-.04s-.15-.03-.22-.04c-.07-.01-.16-.03-.25-.05-.1-.02-.2-.05-.3-.08-.1-.04-.2-.08-.3-.14-.1-.05-.19-.12-.27-.21-.08-.08-.14-.18-.18-.3-.05-.11-.07-.25-.06-.4,0-.23.05-.41.14-.56.09-.15.21-.26.34-.35.14-.08.29-.14.46-.17.17-.03.33-.05.49-.04.28,0,.52.05.74.13.22.08.42.21.62.36.03.02.04.05.04.08,0,.03,0,.06-.03.09l-.39.54s-.05.04-.08.05c-.03,0-.06,0-.09-.02-.17-.11-.32-.19-.47-.23-.14-.05-.28-.07-.4-.07-.04,0-.08,0-.13,0-.05,0-.09,0-.14.02-.04.01-.08.03-.11.05-.03.03-.04.06-.04.11,0,.05.03.09.1.13s.15.07.24.1c.09.03.17.05.26.07.08.02.13.03.16.03.12.03.25.06.39.11.14.05.27.11.39.2.12.09.22.21.3.35s.12.32.12.53c0,.2-.04.37-.11.51-.07.14-.17.26-.29.35-.13.09-.27.16-.45.2s-.37.06-.58.06c-.17,0-.33-.02-.48-.05-.15-.03-.29-.07-.41-.12-.13-.05-.25-.11-.35-.18-.11-.07-.21-.14-.3-.22-.03-.02-.04-.05-.04-.08s0-.06.03-.09l.39-.54s.05-.04.08-.05c.03,0,.06,0,.09.02Z"/>
          <path class="cls-4" d="m46.6,13.18c-.1.15-.21.29-.32.41-.12.12-.25.23-.39.32-.14.09-.3.15-.48.2-.18.05-.37.07-.58.06-.26,0-.51-.06-.74-.16-.23-.1-.43-.24-.6-.41-.17-.17-.3-.37-.4-.6-.09-.23-.14-.47-.14-.73s.06-.5.16-.72.24-.42.42-.58c.18-.17.38-.29.61-.39.23-.09.48-.14.74-.13.22,0,.41.03.59.08.17.05.33.12.47.22.14.09.27.2.38.33.11.13.21.27.31.42.02.03.02.05,0,.08-.01.03-.03.05-.06.06l-.71.27s-.07.01-.1,0c-.03-.01-.06-.03-.07-.06-.09-.15-.21-.27-.34-.35s-.3-.13-.49-.13c-.12,0-.24.02-.35.07s-.21.12-.29.21c-.08.09-.15.19-.2.3-.05.11-.07.23-.08.35,0,.13.02.25.06.36.04.11.11.22.19.3.08.09.18.16.29.21.11.05.23.08.35.09.18,0,.35-.04.49-.12.15-.08.27-.2.35-.33.02-.03.04-.05.07-.06s.06-.01.1,0l.7.29s.05.03.06.06c0,.03,0,.06-.01.09Z"/>
          <path class="cls-4" d="m50.67,14.12l-.94-1.09s-.04-.04-.06-.03c-.02,0-.02.03-.02.06l-.02,1.01s-.01.06-.04.08-.05.03-.08.03h-.74s-.06-.03-.09-.05-.03-.05-.03-.08l.06-3.38s.01-.06.03-.08.05-.03.09-.03h.74s.06.03.08.05.03.05.03.08l-.02,1.13s0,.05.02.06c.01,0,.03,0,.05-.03l.91-1.16s.05-.05.08-.07c.04-.02.07-.03.11-.02l.94.02s.06.02.07.05,0,.06-.02.09l-1.33,1.6s-.03.06-.03.09c0,.03.01.06.04.09.11.12.23.25.35.39.12.13.24.27.37.4.12.14.24.27.36.4.12.13.23.25.34.37.02.03.03.06.02.09,0,.03-.03.05-.07.05l-1.02-.02s-.07,0-.11-.03c-.04-.02-.07-.04-.09-.07Z"/>
          <path class="cls-4" d="m53.29,11.67v.21s0,.06.03.08c.02.02.05.04.08.04l1.34.02s.06.01.08.04.03.05.03.08v.68s-.02.06-.05.08-.05.03-.08.03l-1.34-.02s-.06.01-.08.03c-.02.02-.04.05-.04.08v.19s0,.06.03.08c.02.02.05.04.08.04l1.53.03s.06.01.08.04.03.05.03.08v.68s-.02.06-.05.08-.05.03-.08.03l-2.51-.04s-.06-.01-.08-.04-.03-.05-.03-.08l.06-3.38s.01-.06.04-.08c.02-.02.05-.03.08-.03l2.51.04s.06.01.08.04.03.05.03.08v.67s-.02.06-.05.08c-.02.02-.05.03-.08.03l-1.53-.03s-.06.01-.08.03c-.02.02-.04.05-.04.08Z"/>
          <path class="cls-4" d="m55.7,10.81s.01-.06.04-.08c.02-.02.05-.03.08-.03h.74s.06.03.08.05c.02.02.03.05.03.08l-.03,2c0,.13.02.24.06.32.04.08.09.15.15.2.06.05.12.08.19.1.07.02.13.03.19.03.06,0,.12,0,.19-.03.07-.02.13-.05.2-.1s.11-.11.15-.19c.04-.08.06-.19.07-.32l.03-2s.01-.06.04-.08c.02-.02.05-.03.08-.03h.74s.06.03.08.05c.02.02.03.05.03.08l-.03,2c0,.23-.04.45-.12.63-.08.19-.19.35-.33.48-.14.13-.31.23-.5.31-.2.07-.41.1-.65.1-.24,0-.45-.04-.64-.12-.19-.08-.36-.18-.49-.32-.14-.14-.24-.3-.31-.49-.07-.19-.11-.4-.1-.64l.03-2Z"/>
          <path class="cls-4" d="m60.39,14.37h-.74s-.06-.02-.08-.05-.03-.05-.03-.08l.06-3.38s.01-.06.04-.08c.02-.02.05-.03.08-.03l1.53.03c.19,0,.37.04.53.1.16.07.3.16.41.28s.2.26.26.41c.06.16.09.33.09.53,0,.1-.02.21-.04.31-.03.1-.06.2-.11.29-.05.09-.1.17-.17.25s-.14.13-.22.18c-.03.02-.04.04-.05.07,0,.03,0,.05.02.08.12.17.25.34.39.51.13.18.26.34.36.49.02.03.02.06.01.09-.01.03-.03.05-.06.05l-.92-.02s-.07-.01-.11-.03-.07-.04-.08-.07c-.1-.14-.2-.28-.31-.42s-.2-.29-.3-.43c-.02-.03-.05-.05-.08-.07-.04-.02-.07-.03-.1-.03h-.11s-.06,0-.08.03c-.02.02-.04.05-.04.08v.8s-.03.06-.05.08c-.02.02-.05.03-.09.03Zm.27-1.94h.52s.08,0,.12-.01c.04-.01.08-.04.12-.07s.07-.07.09-.11c.02-.05.04-.1.04-.16,0-.03,0-.07-.02-.12-.01-.04-.03-.09-.06-.13-.03-.04-.06-.08-.11-.1-.05-.03-.1-.04-.17-.05h-.52s-.06,0-.08.02c-.02.02-.04.05-.04.08v.52s0,.06.02.08c.02.02.05.04.08.04Z"/>
          <path class="cls-4" d="m67.17,11l-.06,3.37s-.01.06-.04.08c-.02.02-.05.03-.08.03h-.74s-.06-.02-.08-.05c-.02-.02-.03-.05-.03-.08l.03-1.59s-.01-.05-.04-.06c-.03,0-.05,0-.07.03l-.85,1.32s-.04.04-.08.04c-.04,0-.06-.01-.08-.04l-.81-1.35s-.04-.04-.07-.04c-.03,0-.05.02-.05.05l-.03,1.59s-.01.06-.04.08c-.02.02-.05.03-.08.03h-.74s-.06-.02-.08-.05c-.02-.02-.03-.05-.03-.08l.06-3.37s.01-.06.04-.08c.02-.02.05-.03.08-.03h.69s.07.02.1.04c.04.02.06.04.08.07l.93,1.41s.04.04.07.04c.03,0,.05-.01.06-.04l.97-1.37s.05-.05.08-.07c.04-.02.07-.03.1-.03h.69s.06.02.08.05c.02.02.03.05.03.08Z"/>
          <path class="cls-4" d="m68.91,11.93v.21s0,.06.03.08c.02.02.05.04.08.04l1.34.02s.06.01.08.04.03.05.03.08v.68s-.02.06-.05.08-.05.03-.08.03l-1.34-.02s-.06.01-.08.03c-.02.02-.04.05-.04.08v.19s0,.06.03.08c.02.02.05.04.08.04l1.53.03s.06.01.08.04.03.05.03.08v.68s-.02.06-.05.08-.05.03-.08.03l-2.51-.04s-.06-.01-.08-.04c-.02-.02-.03-.05-.03-.08l.06-3.37s.01-.06.04-.08.05-.03.08-.03l2.51.04s.06.01.08.04.03.05.03.08v.67s-.02.06-.05.08c-.02.02-.05.03-.08.03l-1.53-.03s-.06.01-.08.03c-.02.02-.04.05-.04.08Z"/>
          <path class="cls-4" d="m72.12,14.57h-.74s-.06-.02-.08-.05c-.02-.02-.03-.05-.03-.08l.06-3.37s.01-.06.04-.08.05-.03.08-.03l1.53.03c.19,0,.37.04.53.11.16.07.3.16.41.28s.2.26.26.41c.06.16.09.33.09.52,0,.11-.02.21-.04.31-.03.1-.06.2-.11.29-.05.09-.1.17-.17.25-.06.07-.14.13-.22.18-.03.02-.04.04-.05.07s0,.06.02.08c.12.17.25.34.39.52.13.18.26.34.36.48.02.03.02.06.01.09-.01.03-.03.05-.06.05l-.92-.02s-.07-.01-.11-.03-.07-.04-.08-.07c-.1-.14-.2-.28-.31-.42s-.2-.29-.3-.43c-.02-.03-.05-.05-.08-.07-.04-.02-.07-.03-.1-.03h-.11s-.06,0-.08.03c-.02.02-.04.05-.04.08v.8s-.03.06-.05.08c-.02.02-.05.03-.09.03Zm.27-1.94h.52s.08,0,.12-.01c.04-.01.08-.04.12-.07.04-.03.07-.07.09-.11.02-.05.04-.1.04-.16,0-.03,0-.07-.02-.12-.01-.04-.03-.09-.06-.13s-.06-.08-.11-.11c-.05-.03-.1-.04-.17-.04h-.52s-.06,0-.08.02c-.02.02-.04.05-.04.08v.52s0,.06.02.08c.02.02.05.04.08.04Z"/>
          <path class="cls-4" d="m76.84,14.56l-.94-1.09s-.04-.04-.06-.03c-.02,0-.02.03-.02.06l-.02,1.01s-.01.06-.04.08-.05.03-.08.03h-.74s-.06-.03-.09-.05-.03-.05-.03-.08l.06-3.38s.01-.06.03-.08c.02-.02.05-.03.09-.03h.74s.06.03.08.05.03.05.03.08l-.02,1.13s0,.05.02.06c.01,0,.03,0,.05-.03l.91-1.16s.05-.05.08-.07c.04-.02.07-.03.11-.03l.94.02s.06.02.07.05,0,.06-.02.09l-1.33,1.6s-.03.06-.03.09c0,.03.01.06.04.09.11.12.23.25.35.39.12.13.24.27.37.4.12.14.24.27.36.4.12.13.23.25.34.37.02.03.03.06.02.09,0,.03-.03.05-.07.05l-1.02-.02s-.07,0-.11-.03c-.04-.02-.07-.04-.09-.07Z"/>
        </g>
      </g>
    </g>
  </g>
</svg>