<?xml version="1.0" encoding="UTF-8"?>
<svg id="Laag_2" data-name="Laag 2" xmlns="http://www.w3.org/2000/svg" xmlns:xlink="http://www.w3.org/1999/xlink" viewBox="0 0 104.08 107.25">
  <defs>
    <style>
      .cls-1 {
        fill: none;
      }

      .cls-2 {
        clip-path: url(#clippath);
      }

      .cls-3 {
        fill: #ffe182;
      }

      .cls-4 {
        fill: #efe7db;
      }

      .cls-5 {
        fill: #fec929;
      }

      .cls-6 {
        fill: #7f771e;
      }

      .cls-7 {
        fill: #cdcccc;
      }

      .cls-8 {
        fill: #c0ca35;
      }

      .cls-9 {
        fill: #dfa08b;
      }

      .cls-10 {
        fill: #d9544e;
      }

      .cls-11 {
        fill: #d86013;
      }

      .cls-12 {
        fill: #429775;
      }

      .cls-13 {
        fill: #4159a5;
      }

      .cls-14 {
        clip-path: url(#clippath-1);
      }

      .cls-15 {
        clip-path: url(#clippath-4);
      }

      .cls-16 {
        clip-path: url(#clippath-3);
      }

      .cls-17 {
        clip-path: url(#clippath-2);
      }

      .cls-18 {
        clip-path: url(#clippath-7);
      }

      .cls-19 {
        clip-path: url(#clippath-8);
      }

      .cls-20 {
        clip-path: url(#clippath-6);
      }

      .cls-21 {
        clip-path: url(#clippath-5);
      }

      .cls-22 {
        clip-path: url(#clippath-9);
      }

      .cls-23 {
        clip-path: url(#clippath-10);
      }

      .cls-24 {
        isolation: isolate;
      }
    </style>
    <clipPath id="clippath">
      <rect class="cls-1" y="7.6" width="104.08" height="99.65"/>
    </clipPath>
    <clipPath id="clippath-1">
      <rect class="cls-1" x="44.15" y="58.52" width="14.95" height="21.61"/>
    </clipPath>
    <clipPath id="clippath-2">
      <rect class="cls-1" x="19.51" y="9.44" width="64.23" height="6.6"/>
    </clipPath>
    <clipPath id="clippath-3">
      <rect class="cls-1" x="8.17" y="73.42" width="6.66" height="7.41"/>
    </clipPath>
    <clipPath id="clippath-4">
      <rect class="cls-1" x="13.82" y="73.42" width="6.66" height="7.41"/>
    </clipPath>
    <clipPath id="clippath-5">
      <rect class="cls-1" x="19.48" y="73.42" width="6.66" height="7.41"/>
    </clipPath>
    <clipPath id="clippath-6">
      <rect class="cls-1" x="26.14" y="73.42" width="6.66" height="7.41"/>
    </clipPath>
    <clipPath id="clippath-7">
      <rect class="cls-1" x="63.83" y="72.72" width="6.66" height="7.41"/>
    </clipPath>
    <clipPath id="clippath-8">
      <rect class="cls-1" x="70.5" y="72.72" width="6.66" height="7.41"/>
    </clipPath>
    <clipPath id="clippath-9">
      <rect class="cls-1" x="77.16" y="72.72" width="6.66" height="7.41"/>
    </clipPath>
    <clipPath id="clippath-10">
      <rect class="cls-1" x="83.82" y="72.72" width="6.66" height="7.41"/>
    </clipPath>
  </defs>
  <g id="Laag_1-2" data-name="Laag 1">
    <g id="Group_901" data-name="Group 901">
      <g id="Group_378" data-name="Group 378">
        <g class="cls-2">
          <g id="Group_376" data-name="Group 376">
            <path id="Path_11592" data-name="Path 11592" class="cls-13" d="m20.03,8.6s-2.23,1.22-2.78,3.12c-.54,1.89-.98,5.49-.98,5.49,0,0-.44,2.7-1.04,4.06s-4.75,9.76-4.75,9.76l-3.96,7.27-3.6,6.53S-.61,49.61.09,54.44c0,0,1.15,5.47,2.47,6.34s2.05,1.31,2.29,1.57c.46.52.73,1.18.78,1.87.03.91.09,3.77.09,3.77v8.24s-.04,2.09-1.1,2.31-2.53.19-2.63,1.67.02,5.5.09,5.81.21,1.38.91,1.88,1.75.99,1.95,1.17.8.88.9,1.5.14,1.97.14,1.97c0,0-.05,4.04,0,4.8.05.76.16,2.54.16,2.54,0,0-.07,2.86-1.02,3.65s-1.42,1.06-2.17,1.25-1.26.22-1.32.95c-.04.5-.04,1.01,0,1.52l34.43-.31,44.82-.46,23.11-.27s-.12-1.22-2.76-2.16l-1.04-.37s-1.18-.32-.74-2.34c.16-1.22.14-2.46-.04-3.68-.31-2.12-.66-4.72-.51-5.69s.19-2.15,1.64-3.59c.4-.34.82-.65,1.26-.93.38-.21.68-.27.64-1.59,0,0-.19-.42-.1-1.82s.14-2.51.14-2.51c0,0,.02-1.83-.53-2.74-.33-.54-.82-.97-1.4-1.21l-1.02-.34s-.79-.1-.98-1.28-.11-3.97-.11-3.97c0,0,.02-3.77-.02-4.69s-.11-1.91-.11-1.91c0,0-.06-1.92.4-2.79s.71-1.42,2.04-2.55c.93-.85,1.71-1.84,2.3-2.95,0,0,.91-1.48,1.05-4.17,0,0,.15-3.75-1.9-6.76l-3.05-5.7-3.31-6.51-3.04-5.81s-3.67-6.33-4.25-7.21-2.5-3.58-2.49-5.35.09-2.6.09-2.6c0,0,.76-2.95-1.75-4.56,0,0-1.25-.83-4.22-.8s-7.96.06-7.96.06l-11.42.1-11.97.12-12.85.15-12.22.16s-1.87-.15-2.8.12l-.93.28Z"/>
            <path id="Path_11593" data-name="Path 11593" class="cls-4" d="m19.51,19.93s-.44-.9-1.56,1.37-2.7,5.54-2.7,5.54l-3.11,6.39-4.26,8.68-2,4.06-1.12,2.28s1.57.87,2.97.72,2.44-.26,3.82-2.29c.57-1.15,1.07-2.33,1.49-3.54.56-1.69,2.32-6.64,2.32-6.64l1.36-3.65,1.34-3.55.9-2.4,1.11-3.05.65-1.95s.17-1.1-.27-1.46c-.28-.23-.6-.4-.95-.51"/>
            <path id="Path_11594" data-name="Path 11594" class="cls-4" d="m15.97,43.04l2.18-6.2,3.83-11.14.93-2.84s1.08-2.96,2.1-2.96c1.01,0,1.74.08,2.16.57s.63.65.61,1.5-.6,2.6-.6,2.6l-.7,2.33-.49,1.46-.81,3.46-.95,3.89-1.08,4.26-.6,2.32-.85,3.27-.63,1.93s-.26,1-.98,1.3-2.21.22-2.21.22c0,0-1.96-.27-2.25-.41s-1.38-.21-.88-1.84"/>
            <path id="Path_11595" data-name="Path 11595" class="cls-4" d="m24.94,42.52l.87-3.26,1.19-4.44,1.9-7.65,1.28-5.33s.79-2.51,3.01-2.07c2.22.44,2.68,1.56,2.3,2.84-.38,1.28-1.24,5.79-1.24,5.79l-.86,4.52-.82,4.56-.52,3.28-.46,3.41s-.33,4.09-1.2,4.33-3.96.35-3.96.35c0,0-2.96,1.03-2.39-2.05"/>
            <path id="Path_11596" data-name="Path 11596" class="cls-4" d="m38.05,21.52l-1.67,9.58-1.1,6.17-.87,4.32-.76,3.72s-.06,2.74.7,3.19c.76.44,3.34.35,3.34.35,0,0,2.1.53,2.61-.35s.86-2.85,1.02-5.63.95-11.4.95-11.4l.48-4.46.6-3.95s.43-2.95-1-3.12-2.21-.27-2.21-.27c0,0-1.6.25-2.07,1.85"/>
            <path id="Path_11597" data-name="Path 11597" class="cls-4" d="m46.79,19.94s-.99,1.27-1.24,4.26-.55,6.37-.55,6.37l-.59,6.13-.59,6.05s-1.08,5.07,1.36,5.61c0,0,1.58.91,2.63.56s1.78-.85,2.62-2.59.44-4.29.44-4.29v-7.55s-.11-8.79-.11-8.79c0,0,.29-4.28-.46-5.26,0,0-.53-.67-1.07-.73-.49-.03-.97-.03-1.46,0l-1.01.22Z"/>
            <path id="Path_11598" data-name="Path 11598" class="cls-4" d="m54.72,19.72c-.82.31-1.36,1.1-1.34,1.98,0,1.55.03,3.92.03,3.92l.03,3.2.09,5.78.03,2.78v2.33s-.02,2.55-.02,2.55l-.05,2.01s0,1.87.16,2.42.45,1.46,1.05,1.73,1.65.58,2.11.57,1.99.09,2.21-.18.85-.78,1.01-1.48.38-2.55.24-3.6-.94-7.08-.94-7.08l-.63-5.26-.35-3.49-.23-2.98-.21-2.63s-.34-2.08-1.1-2.56-1.64-.13-1.64-.13l-.47.13Z"/>
            <path id="Path_11599" data-name="Path 11599" class="cls-4" d="m60.49,23.62s-.61-2.31-.39-2.89.6-1.08,1.05-1.05,2.62-.25,2.62-.25c0,0,.93-.52,1.34.78.41,1.3,1.44,6.81,1.44,6.81l1.3,6.51,1.15,6.75.75,4.48s.62,3.4-.29,3.76-2.87.47-2.87.47h-1.64c-.73-.48-1.25-1.22-1.46-2.07-.4-1.47-1.38-7.57-1.38-7.57l-.63-6.13-.7-6.25-.29-3.36Z"/>
            <path id="Path_11600" data-name="Path 11600" class="cls-4" d="m69,19.67s-1.39.15-.72,2.63c.66,2.48,1.39,6.76,1.39,6.76l1.01,5.72.72,4.06.53,3.06.6,3.46s.59,3.83,2.79,3.63c1.38-.13,2.75-.37,4.09-.73,0,0,1.13-.65.22-3.47s-1.97-6.8-1.97-6.8l-1.65-6.23-1.35-4.52-.63-2.07-.76-2.55-.82-2.23s-.26-.93-1.18-.98-2.3.26-2.3.26"/>
            <path id="Path_11601" data-name="Path 11601" class="cls-4" d="m76.03,20.28s-.73.28,0,2.07c.53,1.38.98,2.8,1.34,4.23l1.93,7.56,1.44,5.66.8,3.19,1.03,3.56s.95,2.44,2.14,2.44c.77,0,1.54-.13,2.28-.36l2.58-.85s.6-.57-.26-1.94-2.52-6.51-2.52-6.51l-1.16-3.22-1.49-4.13-1.24-3.49-1.58-4.57-.65-1.95s-.51-2.42-1.8-2.51-2.83.81-2.83.81"/>
            <path id="Path_11602" data-name="Path 11602" class="cls-4" d="m82.57,19.73l6.65,17.9,1.93,5.36s1.1,3.75,2.14,4.22c.97.47,2.06.65,3.13.54.98-.13,1.45.11,1.86-.65s.79-1.96,0-3.11-1.81-2.86-1.81-2.86l-1.6-3.08-2.46-4.75-1.99-3.89-1.73-3.4-1.17-2.31-.78-1.55-1.02-1.68s-.42-.67-.98-.84-.74-.38-1.45-.14l-.71.24Z"/>
            <path id="Path_11603" data-name="Path 11603" class="cls-4" d="m13.03,95.27l-2.01-.04s-3.05.03-2.83,2.51.83,2.92,3.01,2.89c2.17-.03,82.53-.92,82.53-.92l1.92-.02s1,.44,1.1-.9c.05-.96,0-1.92-.15-2.86,0,0-.5-1.41-1.81-1.41s-81.76.76-81.76.76"/>
            <path id="Path_11604" data-name="Path 11604" class="cls-4" d="m13.96,87.86h-3.28s-2.22-.04-2.54,1.43c-.33,1.46-.03,2.37.59,2.89s3.27.94,3.27.94l11-.21,69.3-.77,2.15-.02s1.76.28,2.27-1.29.08-2.48-.4-2.96-1.1-.8-2.45-.77-79.93.77-79.93.77"/>
            <path id="Path_11605" data-name="Path 11605" class="cls-4" d="m13.22,102.59h-3.31s-2.24-.03-2.57,1.02-.03,1.7.6,2.06c.63.37,3.31.68,3.31.68l11.12-.15,70.09-.55,2.18-.02s1.78.2,2.3-.93.08-1.78-.4-2.12-1.12-.57-2.48-.55-80.83.55-80.83.55"/>
            <path id="Path_11606" data-name="Path 11606" class="cls-4" d="m11.15,80.42h-3.52s-2.38-.03-2.73,1.43c-.35,1.46-.03,2.37.63,2.89s3.51.94,3.51.94l11.8-.21,74.35-.77,2.31-.02s1.89.28,2.44-1.29.09-2.48-.43-2.96-1.19-.8-2.63-.77-85.75.77-85.75.77"/>
            <path id="Path_11607" data-name="Path 11607" class="cls-4" d="m2.67,50.81c-.99.88-1.41,2.24-1.09,3.52.53,2.23.66,2.73,1.16,3.45s1.01,1.58,1.65,1.92,1.03.79,1.95.4c.78-.33,1.5-.79,2.13-1.36.56-.5,1.1-1,1.69-1.12s1.06-.33,2.22.35c0,0,1.21,1.17,1.83,1.51s1.03.66,1.98.63,2.09-.74,2.82-2.26,1.11-2.54,1.47-2.82.48-.63,1.07.12.9,1.9.9,1.9c0,0,.51,1.18,1.37,1.52.85.35,1.72.7,2.79.52s1.49.1,2.59-1.8c0,0,.21-1.54.4-2.01s.28-.93.71-1.03.78-.17,1.43.31.67,1.61.67,1.61c0,0,.44,2.11,1.08,2.69s1.28,1.13,2.73.88,2.65-1.62,2.65-1.62c.26-.46.46-.95.59-1.45.18-.75-.11-1.52.44-1.78s.9-.33,1.35-.19,1.09,1.71,1.57,2.33,1.62,2.38,2.63,2.55c0,0,.9.58,1.68-.04.75-.57,1.38-1.3,1.83-2.13.42-.82.83-1.75.83-1.75,0,0,.29-1.21,1.06-1.19s1.08.72,1.34,1.21,1.1,1.9,1.7,2.37,1.38,1,2.01.99,1.42.13,2.57-.98c.66-.74,1.23-1.55,1.69-2.43l.6-.9s.49-.84,1.11.1,1.14,1.84,1.14,1.84c0,0,1.17,1.71,1.48,2s.98.98,1.87.92,2.02-.91,2.56-1.47,1.8-2.07,1.8-2.07l.45-.52s.6-.69,1.04,0,1.14,2.19,1.62,2.69,1.1,1.05,1.59,1.15,1.37.38,2.53-.64c.67-.57,1.21-1.28,1.58-2.09,0,0,.63-1.72,1.17-2s1.27-.6,1.83-.04.65,2.17.65,2.17c0,0,.53,1.98,1.79,2.36,0,0,1.35.69,2.73-.06s2.1-2.69,2.1-2.69l.84-1.92s.68-1.31,1.42-.48c.74.83,1.43,2.91,1.43,2.91,0,0,.96,2.69,2.74,2.36,1.47-.27,2.77-1.13,3.59-2.38.37-.61.58-1.31.59-2.03l.08-1.71s-.04-1.29-.76-1.47-2.49-.12-2.49-.12l-14.63-.08-16-.19-21.67-.14-24.39-.1-17.87-.22Z"/>
          </g>
        </g>
      </g>
      <g id="Group_375" data-name="Group 375">
        <g class="cls-14">
          <g id="Group_374" data-name="Group 374">
            <path id="Path_11583" data-name="Path 11583" class="cls-9" d="m54.34,61.35s-.1,1.78-.59,2.34-.69,1.34-.41,1.64c.28.28.57.54.88.79,0,0,.05.46-.62,1.1s-1.32,1.09-1.78,1.1-1.25-.23-1.29-.39c-.14-.52-.24-1.04-.28-1.58-.02-.58.55-.87.55-.87.07-.32.1-.64.09-.97-.05-.39-.53-.95-.74-1.52s-.66-1.49-.26-2.2,1.89-1.95,2.07-2.11.48.68.91.98,1.46.92,1.47,1.31"/>
            <path id="Path_11584" data-name="Path 11584" class="cls-9" d="m45.51,71.1s-.47,4.14-.68,5.6-.68,3.32-.68,3.32l2.87-.09,1.38-8.75-2.9-.08Z"/>
            <path id="Path_11585" data-name="Path 11585" class="cls-9" d="m57.77,73.87s-.13,5.15-.26,5.69l-.13.54h-1.77s-.45-6.51-.45-6.51l1.9-.28.7.56Z"/>
            <path id="Path_11586" data-name="Path 11586" class="cls-12" d="m57.44,68.93s.94,1.64,1.37,2.66c.26.56.35,1.18.26,1.8l-3.36,2,.15,4.73-9.46-.16,1.1-6.21-3.14-3.87s3.04-3.51,3.63-3.67,7.17.18,7.17.18c0,0,1.85,1.75,2.29,2.54"/>
            <path id="Path_11587" data-name="Path 11587" class="cls-10" d="m47.98,66.2l-1.02,2.52-.24,2.35-.35,1.81v5.45l-.09,1.79,3.58-.27c.99.1,1.85.16,2.52.2,1.77.1,2.83.08,3.24.07.1,0,.18,0,.24,0-.16-2.3-.32-4.6-.47-6.9l-.48-1.5-.24-1.28v-3.85l-.08-.43h-1.04l-.33,2.14-.24.85v1.71h-3.12l-.85.09-.6-.09.24-3.21v-1.07l-.02-.43-.65.04"/>
            <path id="Path_11588" data-name="Path 11588" class="cls-11" d="m51.21,58.55s-.94.37-1.31,1.27c-.36.89-.9,3.09-.88,3.86s-.35,2.84-.27,3.07,1.07.43,1.39.19,1.38-3.64,1.38-3.64l2.37,3.18s.23.95.7.97,1.36-.2,1.35-.58-.36-2.9-.51-3.55-.52-1.67-1.35-2.95-1.41-1.83-2-1.85c-.29-.02-.59,0-.88.03"/>
            <path id="Path_11589" data-name="Path 11589" class="cls-9" d="m52.42,59.66c-.09-.26-.25-.5-.46-.68l-.34-.3c-.52.35-.96.8-1.3,1.32-.48.79-.71,1.41-.61,1.76s.36,1.44.59,1.77.58.86.47,1.41c-.1.37-.3.71-.57.98,0,0-.44.94.08,1.51s.98,1.05,1.64.88,1.38-.82,1.53-1.25l.15-.43.02-.5s-.45-.41-.65-.41-.51-.41-.52-.68.76-1.34.76-1.34c0,0,.8-1.19.64-1.95s-.14-1.35-.79-1.72"/>
            <path id="Path_11590" data-name="Path 11590" class="cls-11" d="m53.89,60.81s-1.38-.28-1.94-.99-.44-1.3-.44-1.3l1.45.77,1.38,1.34-.44.18Z"/>
            <path id="Path_11591" data-name="Path 11591" class="cls-11" d="m51.6,59.06s-.62,1.49-1.25,1.67-.33-.67-.33-.67l1.02-1.17.91-.22-.35.38Z"/>
          </g>
        </g>
      </g>
      <g id="Group_398" data-name="Group 398">
        <g class="cls-17">
          <g id="Group_395" data-name="Group 395">
            <path id="Path_11637" data-name="Path 11637" class="cls-4" d="m21.82,15.96s-1.71.5-2.01-1.07-.48-2.73,0-3.35c.48-.62.83-1.13,1.69-1.18.86-.05,4.57-.22,4.57-.22l6.7-.21,6.57-.1h9.37s9.32.1,9.32.1l4.44-.08,6.75-.12,9.05-.2,2.67-.08s1.56-.2,2.32.66c.76.87.42,3.29.42,3.29,0,0,.49,1.48-1.42,1.72-1.91.24-4.62.04-4.62.04l-7.15.06-4.84.04-5.97.05-5.16.06-14.34.17-11.15.09-3.84.16-3.35.15Z"/>
          </g>
        </g>
      </g>
      <g id="Group_562" data-name="Group 562">
        <g class="cls-16">
          <g id="Group_561" data-name="Group 561">
            <path id="Path_14467" data-name="Path 14467" class="cls-5" d="m8.91,80.8l-.26-.05h-.05s-.03-.03-.05-.04c-.01-.03-.01-.06,0-.1v-.26c-.01-.07.04-.14.11-.16,0,0,.01,0,.02,0,.13-.03.25-.06.37-.11.1-.04.2-.08.31-.11.07-.01.14-.03.21-.05.23-.09.47-.17.7-.28.11-.06.23-.11.35-.15.1-.04.18-.13.28-.16.07-.01.13-.04.19-.07.07-.06.15-.11.24-.15.22-.12.43-.26.64-.41.19-.14.38-.28.55-.45.06-.05.1-.12.15-.16.12-.11.22-.24.33-.36.07-.07.13-.14.18-.22.05-.08.1-.16.15-.24.06-.09.14-.18.19-.27.08-.17.15-.35.19-.53.07-.24.12-.49.14-.74.06-.09.1-.19.12-.3.03-.1.09-.18.16-.25.04-.04.09-.06.15-.06.11,0,.22.02.32.07,0,.01,0,.03.02.04,0,.01.02.02.03.04.02.02.03.04.04.06.02.04.03.08.03.12l.07.22v.03s0,.09,0,.13c0,.06,0,.13.02.19.02.14.02.29,0,.43l-.05.26c-.07.08-.11.19-.1.3,0,.03-.02.06-.03.09-.01.03-.02.05-.03.08,0,0-.01.01-.02.02-.03.04-.04.08-.04.12,0,.05-.02.1-.05.14,0,0-.02.02-.02.03,0,.01-.02.02-.02.03-.03.07-.07.13-.12.19-.02.03-.04.07-.05.1,0,.02-.01.03-.02.05-.01,0-.03,0-.03.02-.05.09-.11.18-.18.26-.02.02-.07.05-.03.1-.02.04-.07.06-.08.1l-.11.13s-.09.08-.11.14c-.02.04-.05.07-.08.1-.09.07-.17.16-.24.25-.07.03-.13.09-.16.16l-.08.08-.05.05s-.08.06-.1.1c-.04.02-.08.06-.1.1-.04-.02-.08,0-.11.02,0,0-.01.02-.01.03-.01.03-.05.03-.07.05-.03,0-.05.03-.06.05-.07-.01-.1.04-.12.09-.02,0-.04.01-.05.04l-.02.02s-.05,0-.07.03c-.07,0-.11.06-.17.1l-.02.02s-.08.03-.1.06c-.02.01-.04.03-.06.04-.03.02-.06.04-.09.05l-.1.07s-.09.05-.12.07c-.03.01-.05.03-.08.03-.02,0-.04,0-.05,0l-.15.07c-.09.03-.17.07-.25.12-.06.01-.12.03-.17.07l-.08.02s-.09.02-.13.03-.09.02-.13.02c-.07.04-.15.08-.24.09-.15.02-.28.07-.43.08-.01,0-.04.01-.07.02-.08.02-.17.03-.25.04-.04,0-.09,0-.13,0-.04,0-.08,0-.12,0-.12.01-.23.02-.35,0-.05,0-.1,0-.15-.02-.06-.07.9-.96,4.08-3.61.57.26.05,2.21-.15,2.29,0,0-.07.03-.08.02s.08-.07.08-.07h0s0,.03,0,.03c0,.01-1.09.39-3.93,1.34"/>
            <path id="Path_14468" data-name="Path 14468" class="cls-6" d="m12.63,73.79s.02-.05.04-.07c.1-.07.21-.13.31-.19.08-.02.16-.05.24-.08h.05s.19-.04.19-.04h.07s-.02.05-.02.05c-.1.09-.2.18-.29.28-.03.03-.06.04-.1.04-.16,0-.32,0-.48,0"/>
            <path id="Path_14469" data-name="Path 14469" class="cls-3" d="m13.85,75.74c-.02.25-.07.5-.14.74-.05.18-.11.36-.19.53-.05.09-.13.18-.19.27-.05.08-.11.16-.15.24-.05.08-.11.16-.18.22-.11.12-.21.25-.33.36-.05.05-.09.12-.15.16-.17.16-.36.31-.55.45-.2.15-.42.28-.64.41-.08.04-.16.09-.24.15-.06.03-.13.06-.19.07-.11.03-.18.12-.28.16-.12.04-.24.09-.35.15-.23.11-.46.19-.7.28-.07.02-.14.04-.21.05-.1.03-.21.06-.31.11-.12.05-.24.08-.37.11-.07,0-.13.07-.13.14,0,0,0,.01,0,.02v.26h-.01s0-.09,0-.14q0-.23-.22-.32s-.08-.03-.12-.05c-.06-.03,0-.07-.02-.11.04-.09.08-.17.14-.25.04-.04.07-.09.08-.15.01-.02.03-.04.05-.06.01-.01.02-.03.04-.04.02-.03.05-.05.08-.08.02-.02.05-.04.07-.06.02-.02.05-.04.07-.06.02-.02.05-.05.07-.07.02-.02.04-.04.07-.06s.05-.04.07-.05.04-.03.07-.05c.03-.02.07-.05.1-.07.02-.02.04-.03.07-.05.02-.01.03-.02.05-.03l.1-.05s.08-.04.12-.06c.02,0,.04-.02.07-.03s.05-.02.07-.03.04-.02.07-.03c.02,0,.03-.02.05-.03.09-.03.17-.07.25-.12.04-.02.08-.05.12-.07.05-.01.11-.04.15-.07.05-.02.1-.05.15-.08.06-.04.11-.07.24-.15.01,0,.04-.03.09-.05.02,0,.03-.02.04-.02.08-.03.15-.08.22-.13.09-.05.17-.1.25-.16.05-.04.09-.07.13-.11.02-.01.03-.03.05-.04.02-.02.04-.03.07-.04.02-.02.04-.04.07-.05.02-.01.04-.02.06-.03.02-.01.04-.03.06-.05.02-.01.04-.03.06-.05,0,0,0-.01.01-.02l.21-.19h.01s.03-.03.04-.05l.05-.03s.05-.07.07-.1c.02-.03.03-.05.05-.08.02-.04.05-.07.08-.1.03-.06.07-.11.11-.16.01-.02.02-.04.04-.06.04-.05.07-.1.12-.15,0-.02.01-.03.02-.04,0,0,.01-.01.01-.01.04-.07.08-.15.12-.23.02-.06.04-.11.07-.16.04-.11.08-.22.1-.34,0-.04,0-.08,0-.12.04,0,.03-.04.04-.07.06-.14.17-.25.31-.31.18-.1.4-.05.52.12.08.13.14.27.18.41"/>
            <path id="Path_14470" data-name="Path 14470" class="cls-8" d="m13.85,75.74c-.05-.14-.11-.28-.18-.41-.11-.17-.34-.22-.52-.12-.14.06-.25.18-.31.31-.01.02,0,.06-.04.07,0-.04,0-.09.01-.13.03-.09.07-.17.12-.25,0,0,0-.01.01-.02.01-.02.02-.03.04-.05.02-.02.03-.04.05-.07.03-.04.06-.07.08-.1.01-.02.02-.03.03-.05,0-.03.01-.06.01-.09,0-.04,0-.09,0-.13-.02-.09-.05-.19-.1-.27-.04-.07-.06-.09-.1-.17-.01-.03-.02-.05-.03-.07,0,0,0-.01,0-.02,0,0,0,0,0,0-.02-.06-.06-.12-.11-.15l-.17-.23c.16,0,.32,0,.48,0,.04,0,.08-.01.1-.04.09-.1.19-.19.29-.28.03.07.05.14.04.22,0,.04.01.08.02.12s.01.08.02.12c0,.13.04.26.11.38,0,.01.01.02.02.03.01.01.02.03.03.04.01.02.03.04.04.06l.02.02s0,0,.01.01c0,0,.02.02.02.03.09.08.18.15.28.22.02.02.05.04.09.08.05.02.1.05.15.08.12.08.21.19.27.32-.1-.05-.21-.07-.32-.07-.06,0-.11.02-.15.05-.08.07-.13.16-.16.25-.02.07-.37-1.5-.12.3"/>
            <path id="Path_14471" data-name="Path 14471" class="cls-5" d="m14.26,77.86s-.04.07-.05.1l-.02.02c-.03.08-.09.16-.15.22l-.04.05s.01-.08.03-.1c.07-.08.13-.17.18-.26,0-.01.02-.02.03-.02"/>
            <path id="Path_14472" data-name="Path 14472" class="cls-5" d="m14.77,76.72s-.01,0-.02,0c0,0,0,.02,0,.03-.01.03-.02.05-.03.08-.01.04-.02.07-.03.1,0,.02,0,.05-.02.07h0c0-.1.03-.2.1-.29"/>
            <path id="Path_14473" data-name="Path 14473" class="cls-5" d="m11.81,80.12c-.06.07-.14.12-.22.13,0-.01,0-.04.01-.04.08-.01.13-.08.21-.09"/>
            <path id="Path_14474" data-name="Path 14474" class="cls-8" d="m8.55,80.62h.01s-.01.07,0,.1c-.05,0-.09-.04-.14-.04,0,0,0-.02,0-.02.05,0,.1,0,.14-.04"/>
            <path id="Path_14475" data-name="Path 14475" class="cls-5" d="m12.37,79.79c-.04.06-.1.1-.17.1.05-.04.09-.1.17-.1"/>
            <path id="Path_14476" data-name="Path 14476" class="cls-5" d="m12.63,79.61s-.07.08-.12.09c.03-.05.05-.1.12-.09"/>
            <path id="Path_14477" data-name="Path 14477" class="cls-8" d="m12.8,74.03s.03.02.04.03c.05.05.08.1.09.17,0,0,0-.02-.01-.03-.01-.02-.02-.05-.04-.07-.02-.04-.05-.07-.09-.1"/>
            <path id="Path_14478" data-name="Path 14478" class="cls-6" d="m8.55,80.62s-.09.04-.14.04c-.03,0-.07-.02-.07-.05,0-.04-.03-.08-.06-.11-.02-.09-.08-.16-.11-.25.01-.04-.03-.11.04-.14.04.02.08.03.12.05q.22.09.22.32s0,.09,0,.13"/>
            <path id="Path_14479" data-name="Path 14479" class="cls-7" d="m11.92,77.2h.01s-.01,0-.01,0"/>
            <path id="Path_14480" data-name="Path 14480" class="cls-8" d="m13.66,74.92l.2.84c.05-.1.09-.2.12-.3,0-.05-.05-.39-.05-.39l-.13-.24-.12.1"/>
          </g>
        </g>
      </g>
      <g id="Group_563" data-name="Group 563">
        <g class="cls-15">
          <g id="Group_561-2" data-name="Group 561-2">
            <path id="Path_14467-2" data-name="Path 14467-2" class="cls-5" d="m14.57,80.8l-.26-.05h-.05s-.03-.03-.05-.04c-.01-.03-.01-.06,0-.1v-.26c-.01-.07.04-.14.11-.16,0,0,.01,0,.02,0,.13-.03.25-.06.37-.11.1-.04.2-.08.31-.11.07-.01.14-.03.21-.05.23-.09.47-.17.7-.28.11-.06.23-.11.35-.15.1-.04.18-.13.28-.16.07-.01.13-.04.19-.07.07-.06.15-.11.24-.15.22-.12.43-.26.64-.41.19-.14.38-.28.55-.45.06-.05.1-.12.15-.16.12-.11.22-.24.33-.36.07-.07.13-.14.18-.22.05-.08.1-.16.15-.24.06-.09.14-.18.19-.27.08-.17.15-.35.19-.53.07-.24.12-.49.14-.74.06-.09.1-.19.12-.3.03-.1.09-.18.16-.25.04-.04.09-.06.15-.06.11,0,.22.02.32.07,0,.01,0,.03.02.04,0,.01.02.02.03.04.02.02.03.04.04.06.02.04.03.08.03.12l.07.22v.03s0,.09,0,.13c0,.06,0,.13.02.19.02.14.02.29,0,.43l-.05.26c-.07.08-.11.19-.1.3,0,.03-.02.06-.03.09-.01.03-.02.05-.03.08,0,0-.01.01-.02.02-.03.04-.04.08-.04.12,0,.05-.02.1-.05.14,0,0-.02.02-.02.03,0,.01-.02.02-.02.03-.03.07-.07.13-.12.19-.02.03-.04.07-.05.1,0,.02-.01.03-.02.05-.01,0-.03,0-.03.02-.05.09-.11.18-.18.26-.02.02-.07.05-.03.1-.02.04-.07.06-.08.1l-.11.13s-.09.08-.11.14c-.02.04-.05.07-.08.1-.09.07-.17.16-.24.25-.07.03-.13.09-.16.16l-.08.08-.05.05s-.08.06-.1.1c-.04.02-.08.06-.1.1-.04-.02-.08,0-.11.02,0,0-.01.02-.01.03-.01.03-.05.03-.07.05-.03,0-.05.03-.06.05-.07-.01-.1.04-.12.09-.02,0-.04.01-.05.04l-.02.02s-.05,0-.07.03c-.07,0-.11.06-.17.1l-.02.02s-.08.03-.1.06c-.02.01-.04.03-.06.04-.03.02-.06.04-.09.05l-.1.07s-.09.05-.12.07c-.03.01-.05.03-.08.03-.02,0-.04,0-.05,0l-.15.07c-.09.03-.17.07-.25.12-.06.01-.12.03-.17.07l-.08.02s-.09.02-.13.03-.09.02-.13.02c-.07.04-.15.08-.24.09-.15.02-.28.07-.43.08-.01,0-.04.01-.07.02-.08.02-.17.03-.25.04-.04,0-.09,0-.13,0-.04,0-.08,0-.12,0-.12.01-.23.02-.35,0-.05,0-.1,0-.15-.02-.06-.07.9-.96,4.08-3.61.57.26.05,2.21-.15,2.29,0,0-.07.03-.08.02s.08-.07.08-.07h0s0,.03,0,.03c0,.01-1.09.39-3.93,1.34"/>
            <path id="Path_14468-2" data-name="Path 14468-2" class="cls-6" d="m18.28,73.79s.02-.05.04-.07c.1-.07.21-.13.31-.19.08-.02.16-.05.24-.08h.05s.19-.04.19-.04h.07s-.02.05-.02.05c-.1.09-.2.18-.29.28-.03.03-.06.04-.1.04-.16,0-.32,0-.48,0"/>
            <path id="Path_14469-2" data-name="Path 14469-2" class="cls-3" d="m19.51,75.74c-.02.25-.07.5-.14.74-.05.18-.11.36-.19.53-.05.09-.13.18-.19.27-.05.08-.11.16-.15.24-.05.08-.11.16-.18.22-.11.12-.21.25-.33.36-.05.05-.09.12-.15.16-.17.16-.36.31-.55.45-.2.15-.42.28-.64.41-.08.04-.16.09-.24.15-.06.03-.13.06-.19.07-.11.03-.18.12-.28.16-.12.04-.24.09-.35.15-.23.11-.46.19-.7.28-.07.02-.14.04-.21.05-.1.03-.21.06-.31.11-.12.05-.24.08-.37.11-.07,0-.13.07-.13.14,0,0,0,.01,0,.02v.26h-.01s0-.09,0-.14q0-.23-.22-.32s-.08-.03-.12-.05c-.06-.03,0-.07-.02-.11.04-.09.08-.17.14-.25.04-.04.07-.09.08-.15.01-.02.03-.04.05-.06.01-.01.02-.03.04-.04.02-.03.05-.05.08-.08.02-.02.05-.04.07-.06.02-.02.05-.04.07-.06.02-.02.05-.05.07-.07.02-.02.04-.04.07-.06s.05-.04.07-.05.04-.03.07-.05c.03-.02.07-.05.1-.07.02-.02.04-.03.07-.05.02-.01.03-.02.05-.03l.1-.05s.08-.04.12-.06c.02,0,.04-.02.07-.03s.05-.02.07-.03.04-.02.07-.03c.02,0,.03-.02.05-.03.09-.03.17-.07.25-.12.04-.02.08-.05.12-.07.05-.01.11-.04.15-.07.05-.02.1-.05.15-.08.06-.04.11-.07.24-.15.01,0,.04-.03.09-.05.02,0,.03-.02.04-.02.08-.03.15-.08.22-.13.09-.05.17-.1.25-.16.05-.04.09-.07.13-.11.02-.01.03-.03.05-.04.02-.02.04-.03.07-.04.02-.02.04-.04.07-.05.02-.01.04-.02.06-.03.02-.01.04-.03.06-.05.02-.01.04-.03.06-.05,0,0,0-.01.01-.02l.21-.19h.01s.03-.03.04-.05l.05-.03s.05-.07.07-.1c.02-.03.03-.05.05-.08.02-.04.05-.07.08-.1.03-.06.07-.11.11-.16.01-.02.02-.04.04-.06.04-.05.07-.1.12-.15,0-.02.01-.03.02-.04,0,0,.01-.01.01-.01.04-.07.08-.15.12-.23.02-.06.04-.11.07-.16.04-.11.08-.22.1-.34,0-.04,0-.08,0-.12.04,0,.03-.04.04-.07.06-.14.17-.25.31-.31.18-.1.4-.05.52.12.08.13.14.27.18.41"/>
            <path id="Path_14470-2" data-name="Path 14470-2" class="cls-8" d="m19.51,75.74c-.05-.14-.11-.28-.18-.41-.11-.17-.34-.22-.52-.12-.14.06-.25.18-.31.31-.01.02,0,.06-.04.07,0-.04,0-.09.01-.13.03-.09.07-.17.12-.25,0,0,0-.01.01-.02.01-.02.02-.03.04-.05.02-.02.03-.04.05-.07.03-.04.06-.07.08-.1.01-.02.02-.03.03-.05,0-.03.01-.06.01-.09,0-.04,0-.09,0-.13-.02-.09-.05-.19-.1-.27-.04-.07-.06-.09-.1-.17-.01-.03-.02-.05-.03-.07,0,0,0-.01,0-.02,0,0,0,0,0,0-.02-.06-.06-.12-.11-.15l-.17-.23c.16,0,.32,0,.48,0,.04,0,.08-.01.1-.04.09-.1.19-.19.29-.28.03.07.05.14.04.22,0,.04.01.08.02.12s.01.08.02.12c0,.13.04.26.11.38,0,.01.01.02.02.03.01.01.02.03.03.04.01.02.03.04.04.06l.02.02s0,0,.01.01c0,0,.02.02.02.03.09.08.18.15.28.22.02.02.05.04.09.08.05.02.1.05.15.08.12.08.21.19.27.32-.1-.05-.21-.07-.32-.07-.06,0-.11.02-.15.05-.08.07-.13.16-.16.25-.02.07-.37-1.5-.12.3"/>
            <path id="Path_14471-2" data-name="Path 14471-2" class="cls-5" d="m19.91,77.86s-.04.07-.05.1l-.02.02c-.03.08-.09.16-.15.22l-.04.05s.01-.08.03-.1c.07-.08.13-.17.18-.26,0-.01.02-.02.03-.02"/>
            <path id="Path_14472-2" data-name="Path 14472-2" class="cls-5" d="m20.42,76.72s-.01,0-.02,0c0,0,0,.02,0,.03-.01.03-.02.05-.03.08-.01.04-.02.07-.03.1,0,.02,0,.05-.02.07h0c0-.1.03-.2.1-.29"/>
            <path id="Path_14473-2" data-name="Path 14473-2" class="cls-5" d="m17.46,80.12c-.06.07-.14.12-.22.13,0-.01,0-.04.01-.04.08-.01.13-.08.21-.09"/>
            <path id="Path_14474-2" data-name="Path 14474-2" class="cls-8" d="m14.2,80.62h.01s-.01.07,0,.1c-.05,0-.09-.04-.14-.04,0,0,0-.02,0-.02.05,0,.1,0,.14-.04"/>
            <path id="Path_14475-2" data-name="Path 14475-2" class="cls-5" d="m18.03,79.79c-.04.06-.1.1-.17.1.05-.04.09-.1.17-.1"/>
            <path id="Path_14476-2" data-name="Path 14476-2" class="cls-5" d="m18.28,79.61s-.07.08-.12.09c.03-.05.05-.1.12-.09"/>
            <path id="Path_14477-2" data-name="Path 14477-2" class="cls-8" d="m18.45,74.03s.03.02.04.03c.05.05.08.1.09.17,0,0,0-.02-.01-.03-.01-.02-.02-.05-.04-.07-.02-.04-.05-.07-.09-.1"/>
            <path id="Path_14478-2" data-name="Path 14478-2" class="cls-6" d="m14.2,80.62s-.09.04-.14.04c-.03,0-.07-.02-.07-.05,0-.04-.03-.08-.06-.11-.02-.09-.08-.16-.11-.25.01-.04-.03-.11.04-.14.04.02.08.03.12.05q.22.09.22.32s0,.09,0,.13"/>
            <path id="Path_14479-2" data-name="Path 14479-2" class="cls-7" d="m17.58,77.2h.01s-.01,0-.01,0"/>
            <path id="Path_14480-2" data-name="Path 14480-2" class="cls-8" d="m19.31,74.92l.2.84c.05-.1.09-.2.12-.3,0-.05-.05-.39-.05-.39l-.13-.24-.12.1"/>
          </g>
        </g>
      </g>
      <g id="Group_564" data-name="Group 564">
        <g class="cls-21">
          <g id="Group_561-3" data-name="Group 561-3">
            <path id="Path_14467-3" data-name="Path 14467-3" class="cls-5" d="m20.22,80.8l-.26-.05h-.05s-.03-.03-.05-.04c-.01-.03-.01-.06,0-.1v-.26c-.01-.07.04-.14.11-.16,0,0,.01,0,.02,0,.13-.03.25-.06.37-.11.1-.04.2-.08.31-.11.07-.01.14-.03.21-.05.23-.09.47-.17.7-.28.11-.06.23-.11.35-.15.1-.04.18-.13.28-.16.07-.01.13-.04.19-.07.07-.06.15-.11.24-.15.22-.12.43-.26.64-.41.19-.14.38-.28.55-.45.06-.05.1-.12.15-.16.12-.11.22-.24.33-.36.07-.07.13-.14.18-.22.05-.08.1-.16.15-.24.06-.09.14-.18.19-.27.08-.17.15-.35.19-.53.07-.24.12-.49.14-.74.06-.09.1-.19.12-.3.03-.1.09-.18.16-.25.04-.04.09-.06.15-.06.11,0,.22.02.32.07,0,.01,0,.03.02.04,0,.01.02.02.03.04.02.02.03.04.04.06.02.04.03.08.03.12l.07.22v.03s0,.09,0,.13c0,.06,0,.13.02.19.02.14.02.29,0,.43l-.05.26c-.07.08-.11.19-.1.3,0,.03-.02.06-.03.09-.01.03-.02.05-.03.08,0,0-.01.01-.02.02-.03.04-.04.08-.04.12,0,.05-.02.1-.05.14,0,0-.02.02-.02.03,0,.01-.02.02-.02.03-.03.07-.07.13-.12.19-.02.03-.04.07-.05.1,0,.02-.01.03-.02.05-.01,0-.03,0-.03.02-.05.09-.11.18-.18.26-.02.02-.07.05-.03.1-.02.04-.07.06-.08.1l-.11.13s-.09.08-.11.14c-.02.04-.05.07-.08.1-.09.07-.17.16-.24.25-.07.03-.13.09-.16.16l-.08.08-.05.05s-.08.06-.1.1c-.04.02-.08.06-.1.1-.04-.02-.08,0-.11.02,0,0-.01.02-.01.03-.01.03-.05.03-.07.05-.03,0-.05.03-.06.05-.07-.01-.1.04-.12.09-.02,0-.04.01-.05.04l-.02.02s-.05,0-.07.03c-.07,0-.11.06-.17.1l-.02.02s-.08.03-.1.06c-.02.01-.04.03-.06.04-.03.02-.06.04-.09.05l-.1.07s-.09.05-.12.07c-.03.01-.05.03-.08.03-.02,0-.04,0-.05,0l-.15.07c-.09.03-.17.07-.25.12-.06.01-.12.03-.17.07l-.08.02s-.09.02-.13.03-.09.02-.13.02c-.07.04-.15.08-.24.09-.15.02-.28.07-.43.08-.01,0-.04.01-.07.02-.08.02-.17.03-.25.04-.04,0-.09,0-.13,0-.04,0-.08,0-.12,0-.12.01-.23.02-.35,0-.05,0-.1,0-.15-.02-.06-.07.9-.96,4.08-3.61.57.26.05,2.21-.15,2.29,0,0-.07.03-.08.02s.08-.07.08-.07h0s0,.03,0,.03c0,.01-1.09.39-3.93,1.34"/>
            <path id="Path_14468-3" data-name="Path 14468-3" class="cls-6" d="m23.94,73.79s.02-.05.04-.07c.1-.07.21-.13.31-.19.08-.02.16-.05.24-.08h.05s.19-.04.19-.04h.07s-.02.05-.02.05c-.1.09-.2.18-.29.28-.03.03-.06.04-.1.04-.16,0-.32,0-.48,0"/>
            <path id="Path_14469-3" data-name="Path 14469-3" class="cls-3" d="m25.16,75.74c-.02.25-.07.5-.14.74-.05.18-.11.36-.19.53-.05.09-.13.18-.19.27-.05.08-.11.16-.15.24-.05.08-.11.16-.18.22-.11.12-.21.25-.33.36-.05.05-.09.12-.15.16-.17.16-.36.31-.55.45-.2.15-.42.28-.64.41-.08.04-.16.09-.24.15-.06.03-.13.06-.19.07-.11.03-.18.12-.28.16-.12.04-.24.09-.35.15-.23.11-.46.19-.7.28-.07.02-.14.04-.21.05-.1.03-.21.06-.31.11-.12.05-.24.08-.37.11-.07,0-.13.07-.13.14,0,0,0,.01,0,.02v.26h-.01s0-.09,0-.14q0-.23-.22-.32s-.08-.03-.12-.05c-.06-.03,0-.07-.02-.11.04-.09.08-.17.14-.25.04-.04.07-.09.08-.15.01-.02.03-.04.05-.06.01-.01.02-.03.04-.04.02-.03.05-.05.08-.08.02-.02.05-.04.07-.06.02-.02.05-.04.07-.06.02-.02.05-.05.07-.07.02-.02.04-.04.07-.06s.05-.04.07-.05.04-.03.07-.05c.03-.02.07-.05.1-.07.02-.02.04-.03.07-.05.02-.01.03-.02.05-.03l.1-.05s.08-.04.12-.06c.02,0,.04-.02.07-.03s.05-.02.07-.03.04-.02.07-.03c.02,0,.03-.02.05-.03.09-.03.17-.07.25-.12.04-.02.08-.05.12-.07.05-.01.11-.04.15-.07.05-.02.1-.05.15-.08.06-.04.11-.07.24-.15.01,0,.04-.03.09-.05.02,0,.03-.02.04-.02.08-.03.15-.08.22-.13.09-.05.17-.1.25-.16.05-.04.09-.07.13-.11.02-.01.03-.03.05-.04.02-.02.04-.03.07-.04.02-.02.04-.04.07-.05.02-.01.04-.02.06-.03.02-.01.04-.03.06-.05.02-.01.04-.03.06-.05,0,0,0-.01.01-.02l.21-.19h.01s.03-.03.04-.05l.05-.03s.05-.07.07-.1c.02-.03.03-.05.05-.08.02-.04.05-.07.08-.1.03-.06.07-.11.11-.16.01-.02.02-.04.04-.06.04-.05.07-.1.12-.15,0-.02.01-.03.02-.04,0,0,.01-.01.01-.01.04-.07.08-.15.12-.23.02-.06.04-.11.07-.16.04-.11.08-.22.1-.34,0-.04,0-.08,0-.12.04,0,.03-.04.04-.07.06-.14.17-.25.31-.31.18-.1.4-.05.52.12.08.13.14.27.18.41"/>
            <path id="Path_14470-3" data-name="Path 14470-3" class="cls-8" d="m25.16,75.74c-.05-.14-.11-.28-.18-.41-.11-.17-.34-.22-.52-.12-.14.06-.25.18-.31.31-.01.02,0,.06-.04.07,0-.04,0-.09.01-.13.03-.09.07-.17.12-.25,0,0,0-.01.01-.02.01-.02.02-.03.04-.05.02-.02.03-.04.05-.07.03-.04.06-.07.08-.1.01-.02.02-.03.03-.05,0-.03.01-.06.01-.09,0-.04,0-.09,0-.13-.02-.09-.05-.19-.1-.27-.04-.07-.06-.09-.1-.17-.01-.03-.02-.05-.03-.07,0,0,0-.01,0-.02,0,0,0,0,0,0-.02-.06-.06-.12-.11-.15l-.17-.23c.16,0,.32,0,.48,0,.04,0,.08-.01.1-.04.09-.1.19-.19.29-.28.03.07.05.14.04.22,0,.04.01.08.02.12s.01.08.02.12c0,.13.04.26.11.38,0,.01.01.02.02.03.01.01.02.03.03.04.01.02.03.04.04.06l.02.02s0,0,.01.01c0,0,.02.02.02.03.09.08.18.15.28.22.02.02.05.04.09.08.05.02.1.05.15.08.12.08.21.19.27.32-.1-.05-.21-.07-.32-.07-.06,0-.11.02-.15.05-.08.07-.13.16-.16.25-.02.07-.37-1.5-.12.3"/>
            <path id="Path_14471-3" data-name="Path 14471-3" class="cls-5" d="m25.57,77.86s-.04.07-.05.1l-.02.02c-.03.08-.09.16-.15.22l-.04.05s.01-.08.03-.1c.07-.08.13-.17.18-.26,0-.01.02-.02.03-.02"/>
            <path id="Path_14472-3" data-name="Path 14472-3" class="cls-5" d="m26.08,76.72s-.01,0-.02,0c0,0,0,.02,0,.03-.01.03-.02.05-.03.08-.01.04-.02.07-.03.1,0,.02,0,.05-.02.07h0c0-.1.03-.2.1-.29"/>
            <path id="Path_14473-3" data-name="Path 14473-3" class="cls-5" d="m23.12,80.12c-.06.07-.14.12-.22.13,0-.01,0-.04.01-.04.08-.01.13-.08.21-.09"/>
            <path id="Path_14474-3" data-name="Path 14474-3" class="cls-8" d="m19.86,80.62h.01s-.01.07,0,.1c-.05,0-.09-.04-.14-.04,0,0,0-.02,0-.02.05,0,.1,0,.14-.04"/>
            <path id="Path_14475-3" data-name="Path 14475-3" class="cls-5" d="m23.68,79.79c-.04.06-.1.1-.17.1.05-.04.09-.1.17-.1"/>
            <path id="Path_14476-3" data-name="Path 14476-3" class="cls-5" d="m23.94,79.61s-.07.08-.12.09c.03-.05.05-.1.12-.09"/>
            <path id="Path_14477-3" data-name="Path 14477-3" class="cls-8" d="m24.11,74.03s.03.02.04.03c.05.05.08.1.09.17,0,0,0-.02-.01-.03-.01-.02-.02-.05-.04-.07-.02-.04-.05-.07-.09-.1"/>
            <path id="Path_14478-3" data-name="Path 14478-3" class="cls-6" d="m19.86,80.62s-.09.04-.14.04c-.03,0-.07-.02-.07-.05,0-.04-.03-.08-.06-.11-.02-.09-.08-.16-.11-.25.01-.04-.03-.11.04-.14.04.02.08.03.12.05q.22.09.22.32s0,.09,0,.13"/>
            <path id="Path_14479-3" data-name="Path 14479-3" class="cls-7" d="m23.23,77.2h.01s-.01,0-.01,0"/>
            <path id="Path_14480-3" data-name="Path 14480-3" class="cls-8" d="m24.97,74.92l.2.84c.05-.1.09-.2.12-.3,0-.05-.05-.39-.05-.39l-.13-.24-.12.1"/>
          </g>
        </g>
      </g>
      <g id="Group_565" data-name="Group 565">
        <g class="cls-20">
          <g id="Group_561-4" data-name="Group 561-4">
            <path id="Path_14467-4" data-name="Path 14467-4" class="cls-5" d="m26.89,80.8l-.26-.05h-.05s-.03-.03-.05-.04c-.01-.03-.01-.06,0-.1v-.26c-.01-.07.04-.14.11-.16,0,0,.01,0,.02,0,.13-.03.25-.06.37-.11.1-.04.2-.08.31-.11.07-.01.14-.03.21-.05.23-.09.47-.17.7-.28.11-.06.23-.11.35-.15.1-.04.18-.13.28-.16.07-.01.13-.04.19-.07.07-.06.15-.11.24-.15.22-.12.43-.26.64-.41.19-.14.38-.28.55-.45.06-.05.1-.12.15-.16.12-.11.22-.24.33-.36.07-.07.13-.14.18-.22.05-.08.1-.16.15-.24.06-.09.14-.18.19-.27.08-.17.15-.35.19-.53.07-.24.12-.49.14-.74.06-.09.1-.19.12-.3.03-.1.09-.18.16-.25.04-.04.09-.06.15-.06.11,0,.22.02.32.07,0,.01,0,.03.02.04,0,.01.02.02.03.04.02.02.03.04.04.06.02.04.03.08.03.12l.07.22v.03s0,.09,0,.13c0,.06,0,.13.02.19.02.14.02.29,0,.43l-.05.26c-.07.08-.11.19-.1.3,0,.03-.02.06-.03.09-.01.03-.02.05-.03.08,0,0-.01.01-.02.02-.03.04-.04.08-.04.12,0,.05-.02.1-.05.14,0,0-.02.02-.02.03,0,.01-.02.02-.02.03-.03.07-.07.13-.12.19-.02.03-.04.07-.05.1,0,.02-.01.03-.02.05-.01,0-.03,0-.03.02-.05.09-.11.18-.18.26-.02.02-.07.05-.03.1-.02.04-.07.06-.08.1l-.11.13s-.09.08-.11.14c-.02.04-.05.07-.08.1-.09.07-.17.16-.24.25-.07.03-.13.09-.16.16l-.08.08-.05.05s-.08.06-.1.1c-.04.02-.08.06-.1.1-.04-.02-.08,0-.11.02,0,0-.01.02-.01.03-.01.03-.05.03-.07.05-.03,0-.05.03-.06.05-.07-.01-.1.04-.12.09-.02,0-.04.01-.05.04l-.02.02s-.05,0-.07.03c-.07,0-.11.06-.17.1l-.02.02s-.08.03-.1.06c-.02.01-.04.03-.06.04-.03.02-.06.04-.09.05l-.1.07s-.09.05-.12.07c-.03.01-.05.03-.08.03-.02,0-.04,0-.05,0l-.15.07c-.09.03-.17.07-.25.12-.06.01-.12.03-.17.07l-.08.02s-.09.02-.13.03-.09.02-.13.02c-.07.04-.15.08-.24.09-.15.02-.28.07-.43.08-.01,0-.04.01-.07.02-.08.02-.17.03-.25.04-.04,0-.09,0-.13,0-.04,0-.08,0-.12,0-.12.01-.23.02-.35,0-.05,0-.1,0-.15-.02-.06-.07.9-.96,4.08-3.61.57.26.05,2.21-.15,2.29,0,0-.07.03-.08.02s.08-.07.08-.07h0s0,.03,0,.03c0,.01-1.09.39-3.93,1.34"/>
            <path id="Path_14468-4" data-name="Path 14468-4" class="cls-6" d="m30.6,73.79s.02-.05.04-.07c.1-.07.21-.13.31-.19.08-.02.16-.05.24-.08h.05s.19-.04.19-.04h.07s-.02.05-.02.05c-.1.09-.2.18-.29.28-.03.03-.06.04-.1.04-.16,0-.32,0-.48,0"/>
            <path id="Path_14469-4" data-name="Path 14469-4" class="cls-3" d="m31.83,75.74c-.02.25-.07.5-.14.74-.05.18-.11.36-.19.53-.05.09-.13.18-.19.27-.05.08-.11.16-.15.24-.05.08-.11.16-.18.22-.11.12-.21.25-.33.36-.05.05-.09.12-.15.16-.17.16-.36.31-.55.45-.2.15-.42.28-.64.41-.08.04-.16.09-.24.15-.06.03-.13.06-.19.07-.11.03-.18.12-.28.16-.12.04-.24.09-.35.15-.23.11-.46.19-.7.28-.07.02-.14.04-.21.05-.1.03-.21.06-.31.11-.12.05-.24.08-.37.11-.07,0-.13.07-.13.14,0,0,0,.01,0,.02v.26h-.01s0-.09,0-.14q0-.23-.22-.32s-.08-.03-.12-.05c-.06-.03,0-.07-.02-.11.04-.09.08-.17.14-.25.04-.04.07-.09.08-.15.01-.02.03-.04.05-.06.01-.01.02-.03.04-.04.02-.03.05-.05.08-.08.02-.02.05-.04.07-.06.02-.02.05-.04.07-.06.02-.02.05-.05.07-.07.02-.02.04-.04.07-.06s.05-.04.07-.05.04-.03.07-.05c.03-.02.07-.05.1-.07.02-.02.04-.03.07-.05.02-.01.03-.02.05-.03l.1-.05s.08-.04.12-.06c.02,0,.04-.02.07-.03s.05-.02.07-.03.04-.02.07-.03c.02,0,.03-.02.05-.03.09-.03.17-.07.25-.12.04-.02.08-.05.12-.07.05-.01.11-.04.15-.07.05-.02.1-.05.15-.08.06-.04.11-.07.24-.15.01,0,.04-.03.09-.05.02,0,.03-.02.04-.02.08-.03.15-.08.22-.13.09-.05.17-.1.25-.16.05-.04.09-.07.13-.11.02-.01.03-.03.05-.04.02-.02.04-.03.07-.04.02-.02.04-.04.07-.05.02-.01.04-.02.06-.03.02-.01.04-.03.06-.05.02-.01.04-.03.06-.05,0,0,0-.01.01-.02l.21-.19h.01s.03-.03.04-.05l.05-.03s.05-.07.07-.1c.02-.03.03-.05.05-.08.02-.04.05-.07.08-.1.03-.06.07-.11.11-.16.01-.02.02-.04.04-.06.04-.05.07-.1.12-.15,0-.02.01-.03.02-.04,0,0,.01-.01.01-.01.04-.07.08-.15.12-.23.02-.06.04-.11.07-.16.04-.11.08-.22.1-.34,0-.04,0-.08,0-.12.04,0,.03-.04.04-.07.06-.14.17-.25.31-.31.18-.1.4-.05.52.12.08.13.14.27.18.41"/>
            <path id="Path_14470-4" data-name="Path 14470-4" class="cls-8" d="m31.83,75.74c-.05-.14-.11-.28-.18-.41-.11-.17-.34-.22-.52-.12-.14.06-.25.18-.31.31-.01.02,0,.06-.04.07,0-.04,0-.09.01-.13.03-.09.07-.17.12-.25,0,0,0-.01.01-.02.01-.02.02-.03.04-.05.02-.02.03-.04.05-.07.03-.04.06-.07.08-.1.01-.02.02-.03.03-.05,0-.03.01-.06.01-.09,0-.04,0-.09,0-.13-.02-.09-.05-.19-.1-.27-.04-.07-.06-.09-.1-.17-.01-.03-.02-.05-.03-.07,0,0,0-.01,0-.02,0,0,0,0,0,0-.02-.06-.06-.12-.11-.15l-.17-.23c.16,0,.32,0,.48,0,.04,0,.08-.01.1-.04.09-.1.19-.19.29-.28.03.07.05.14.04.22,0,.04.01.08.02.12s.01.08.02.12c0,.13.04.26.11.38,0,.01.01.02.02.03.01.01.02.03.03.04.01.02.03.04.04.06l.02.02s0,0,.01.01c0,0,.02.02.02.03.09.08.18.15.28.22.02.02.05.04.09.08.05.02.1.05.15.08.12.08.21.19.27.32-.1-.05-.21-.07-.32-.07-.06,0-.11.02-.15.05-.08.07-.13.16-.16.25-.02.07-.37-1.5-.12.3"/>
            <path id="Path_14471-4" data-name="Path 14471-4" class="cls-5" d="m32.23,77.86s-.04.07-.05.1l-.02.02c-.03.08-.09.16-.15.22l-.04.05s.01-.08.03-.1c.07-.08.13-.17.18-.26,0-.01.02-.02.03-.02"/>
            <path id="Path_14472-4" data-name="Path 14472-4" class="cls-5" d="m32.74,76.72s-.01,0-.02,0c0,0,0,.02,0,.03-.01.03-.02.05-.03.08-.01.04-.02.07-.03.1,0,.02,0,.05-.02.07h0c0-.1.03-.2.1-.29"/>
            <path id="Path_14473-4" data-name="Path 14473-4" class="cls-5" d="m29.78,80.12c-.06.07-.14.12-.22.13,0-.01,0-.04.01-.04.08-.01.13-.08.21-.09"/>
            <path id="Path_14474-4" data-name="Path 14474-4" class="cls-8" d="m26.52,80.62h.01s-.01.07,0,.1c-.05,0-.09-.04-.14-.04,0,0,0-.02,0-.02.05,0,.1,0,.14-.04"/>
            <path id="Path_14475-4" data-name="Path 14475-4" class="cls-5" d="m30.35,79.79c-.04.06-.1.1-.17.1.05-.04.09-.1.17-.1"/>
            <path id="Path_14476-4" data-name="Path 14476-4" class="cls-5" d="m30.6,79.61s-.07.08-.12.09c.03-.05.05-.1.12-.09"/>
            <path id="Path_14477-4" data-name="Path 14477-4" class="cls-8" d="m30.77,74.03s.03.02.04.03c.05.05.08.1.09.17,0,0,0-.02-.01-.03-.01-.02-.02-.05-.04-.07-.02-.04-.05-.07-.09-.1"/>
            <path id="Path_14478-4" data-name="Path 14478-4" class="cls-6" d="m26.52,80.62s-.09.04-.14.04c-.03,0-.07-.02-.07-.05,0-.04-.03-.08-.06-.11-.02-.09-.08-.16-.11-.25.01-.04-.03-.11.04-.14.04.02.08.03.12.05q.22.09.22.32s0,.09,0,.13"/>
            <path id="Path_14479-4" data-name="Path 14479-4" class="cls-7" d="m29.89,77.2h.01s-.01,0-.01,0"/>
            <path id="Path_14480-4" data-name="Path 14480-4" class="cls-8" d="m31.63,74.92l.2.84c.05-.1.09-.2.12-.3,0-.05-.05-.39-.05-.39l-.13-.24-.12.1"/>
          </g>
        </g>
      </g>
      <g id="Group_566" data-name="Group 566">
        <g class="cls-18">
          <g id="Group_561-5" data-name="Group 561-5">
            <path id="Path_14467-5" data-name="Path 14467-5" class="cls-5" d="m64.58,80.1l-.26-.05h-.05s-.03-.03-.05-.04c-.01-.03-.01-.06,0-.1v-.26c-.01-.07.04-.14.11-.16,0,0,.01,0,.02,0,.13-.03.25-.06.37-.11.1-.04.2-.08.31-.11.07-.01.14-.03.21-.05.23-.09.47-.17.7-.28.11-.06.23-.11.35-.15.1-.04.18-.13.28-.16.07-.01.13-.04.19-.07.07-.06.15-.11.24-.15.22-.12.43-.26.64-.41.19-.14.38-.28.55-.45.06-.05.1-.12.15-.16.12-.11.22-.24.33-.36.07-.07.13-.14.18-.22.05-.08.1-.16.15-.24.06-.09.14-.18.19-.27.08-.17.15-.35.19-.53.07-.24.12-.49.14-.74.06-.09.1-.19.12-.3.03-.1.09-.18.16-.25.04-.04.09-.06.15-.06.11,0,.22.02.32.07,0,.01,0,.03.02.04,0,.01.02.02.03.04.02.02.03.04.04.06.02.04.03.08.03.12l.07.22v.03s0,.09,0,.13c0,.06,0,.13.02.19.02.14.02.29,0,.43l-.05.26c-.07.08-.11.19-.1.3,0,.03-.02.06-.03.09-.01.03-.02.05-.03.08,0,0-.01.01-.02.02-.03.04-.04.08-.04.12,0,.05-.02.1-.05.14,0,0-.02.02-.02.03,0,.01-.02.02-.02.03-.03.07-.07.13-.12.19-.02.03-.04.07-.05.1,0,.02-.01.03-.02.05-.01,0-.03,0-.03.02-.05.09-.11.18-.18.26-.02.02-.07.05-.03.1-.02.04-.07.06-.08.1l-.11.13s-.09.08-.11.14c-.02.04-.05.07-.08.1-.09.07-.17.16-.24.25-.07.03-.13.09-.16.16l-.08.08-.05.05s-.08.06-.1.1c-.04.02-.08.06-.1.1-.04-.02-.08,0-.11.02,0,0-.01.02-.01.03-.01.03-.05.03-.07.05-.03,0-.05.03-.06.05-.07-.01-.1.04-.12.09-.02,0-.04.01-.05.04l-.02.02s-.05,0-.07.03c-.07,0-.11.06-.17.1l-.02.02s-.08.03-.1.06c-.02.01-.04.03-.06.04-.03.02-.06.04-.09.05l-.1.07s-.09.05-.12.07c-.03.01-.05.03-.08.03-.02,0-.04,0-.05,0l-.15.07c-.09.03-.17.07-.25.12-.06.01-.12.03-.17.07l-.08.02s-.09.02-.13.03-.09.02-.13.02c-.07.04-.15.08-.24.09-.15.02-.28.07-.43.08-.01,0-.04.01-.07.02-.08.02-.17.03-.25.04-.04,0-.09,0-.13,0-.04,0-.08,0-.12,0-.12.01-.23.02-.35,0-.05,0-.1,0-.15-.02-.06-.07.9-.96,4.08-3.61.57.26.05,2.21-.15,2.29,0,0-.07.03-.08.02s.08-.07.08-.07h0s0,.03,0,.03c0,.01-1.09.39-3.93,1.34"/>
            <path id="Path_14468-5" data-name="Path 14468-5" class="cls-6" d="m68.29,73.09s.02-.05.04-.07c.1-.07.21-.13.31-.19.08-.02.16-.05.24-.08h.05s.19-.04.19-.04h.07s-.02.05-.02.05c-.1.09-.2.18-.29.28-.03.03-.06.04-.1.04-.16,0-.32,0-.48,0"/>
            <path id="Path_14469-5" data-name="Path 14469-5" class="cls-3" d="m69.52,75.04c-.02.25-.07.5-.14.74-.05.18-.11.36-.19.53-.05.09-.13.18-.19.27-.05.08-.11.16-.15.24-.05.08-.11.16-.18.22-.11.12-.21.25-.33.36-.05.05-.09.12-.15.16-.17.16-.36.31-.55.45-.2.15-.42.28-.64.41-.08.04-.16.09-.24.15-.06.03-.13.06-.19.07-.11.03-.18.12-.28.16-.12.04-.24.09-.35.15-.23.11-.46.19-.7.28-.07.02-.14.04-.21.05-.1.03-.21.06-.31.11-.12.05-.24.08-.37.11-.07,0-.13.07-.13.14,0,0,0,.01,0,.02v.26h-.01s0-.09,0-.14q0-.23-.22-.32s-.08-.03-.12-.05c-.06-.03,0-.07-.02-.11.04-.09.08-.17.14-.25.04-.04.07-.09.08-.15.01-.02.03-.04.05-.06.01-.01.02-.03.04-.04.02-.03.05-.05.08-.08.02-.02.05-.04.07-.06.02-.02.05-.04.07-.06.02-.02.05-.05.07-.07.02-.02.04-.04.07-.06s.05-.04.07-.05.04-.03.07-.05c.03-.02.07-.05.1-.07.02-.02.04-.03.07-.05.02-.01.03-.02.05-.03l.1-.05s.08-.04.12-.06c.02,0,.04-.02.07-.03s.05-.02.07-.03.04-.02.07-.03c.02,0,.03-.02.05-.03.09-.03.17-.07.25-.12.04-.02.08-.05.12-.07.05-.01.11-.04.15-.07.05-.02.1-.05.15-.08.06-.04.11-.07.24-.15.01,0,.04-.03.09-.05.02,0,.03-.02.04-.02.08-.03.15-.08.22-.13.09-.05.17-.1.25-.16.05-.04.09-.07.13-.11.02-.01.03-.03.05-.04.02-.02.04-.03.07-.04.02-.02.04-.04.07-.05.02-.01.04-.02.06-.03.02-.01.04-.03.06-.05.02-.01.04-.03.06-.05,0,0,0-.01.01-.02l.21-.19h.01s.03-.03.04-.05l.05-.03s.05-.07.07-.1c.02-.03.03-.05.05-.08.02-.04.05-.07.08-.1.03-.06.07-.11.11-.16.01-.02.02-.04.04-.06.04-.05.07-.1.12-.15,0-.02.01-.03.02-.04,0,0,.01-.01.01-.01.04-.07.08-.15.12-.23.02-.06.04-.11.07-.16.04-.11.08-.22.1-.34,0-.04,0-.08,0-.12.04,0,.03-.04.04-.07.06-.14.17-.25.31-.31.18-.1.4-.05.52.12.08.13.14.27.18.41"/>
            <path id="Path_14470-5" data-name="Path 14470-5" class="cls-8" d="m69.52,75.04c-.05-.14-.11-.28-.18-.41-.11-.17-.34-.22-.52-.12-.14.06-.25.18-.31.31-.01.02,0,.06-.04.07,0-.04,0-.09.01-.13.03-.09.07-.17.12-.25,0,0,0-.01.01-.02.01-.02.02-.03.04-.05.02-.02.03-.04.05-.07.03-.04.06-.07.08-.1.01-.02.02-.03.03-.05,0-.03.01-.06.01-.09,0-.04,0-.09,0-.13-.02-.09-.05-.19-.1-.27-.04-.07-.06-.09-.1-.17-.01-.03-.02-.05-.03-.07,0,0,0-.01,0-.02,0,0,0,0,0,0-.02-.06-.06-.12-.11-.15l-.17-.23c.16,0,.32,0,.48,0,.04,0,.08-.01.1-.04.09-.1.19-.19.29-.28.03.07.05.14.04.22,0,.04.01.08.02.12s.01.08.02.12c0,.13.04.26.11.38,0,.01.01.02.02.03.01.01.02.03.03.04.01.02.03.04.04.06l.02.02s0,0,.01.01c0,0,.02.02.02.03.09.08.18.15.28.22.02.02.05.04.09.08.05.02.1.05.15.08.12.08.21.19.27.32-.1-.05-.21-.07-.32-.07-.06,0-.11.02-.15.05-.08.07-.13.16-.16.25-.02.07-.37-1.5-.12.3"/>
            <path id="Path_14471-5" data-name="Path 14471-5" class="cls-5" d="m69.92,77.16s-.04.07-.05.1l-.02.02c-.03.08-.09.16-.15.22l-.04.05s.01-.08.03-.1c.07-.08.13-.17.18-.26,0-.01.02-.02.03-.02"/>
            <path id="Path_14472-5" data-name="Path 14472-5" class="cls-5" d="m70.43,76.02s-.01,0-.02,0c0,0,0,.02,0,.03-.01.03-.02.05-.03.08-.01.04-.02.07-.03.1,0,.02,0,.05-.02.07h0c0-.1.03-.2.1-.29"/>
            <path id="Path_14473-5" data-name="Path 14473-5" class="cls-5" d="m67.47,79.41c-.06.07-.14.12-.22.13,0-.01,0-.04.01-.04.08-.01.13-.08.21-.09"/>
            <path id="Path_14474-5" data-name="Path 14474-5" class="cls-8" d="m64.21,79.91h.01s-.01.07,0,.1c-.05,0-.09-.04-.14-.04,0,0,0-.02,0-.02.05,0,.1,0,.14-.04"/>
            <path id="Path_14475-5" data-name="Path 14475-5" class="cls-5" d="m68.04,79.09c-.04.06-.1.1-.17.1.05-.04.09-.1.17-.1"/>
            <path id="Path_14476-5" data-name="Path 14476-5" class="cls-5" d="m68.29,78.91s-.07.08-.12.09c.03-.05.05-.1.12-.09"/>
            <path id="Path_14477-5" data-name="Path 14477-5" class="cls-8" d="m68.46,73.32s.03.02.04.03c.05.05.08.1.09.17,0,0,0-.02-.01-.03-.01-.02-.02-.05-.04-.07-.02-.04-.05-.07-.09-.1"/>
            <path id="Path_14478-5" data-name="Path 14478-5" class="cls-6" d="m64.21,79.91s-.09.04-.14.04c-.03,0-.07-.02-.07-.05,0-.04-.03-.08-.06-.11-.02-.09-.08-.16-.11-.25.01-.04-.03-.11.04-.14.04.02.08.03.12.05q.22.09.22.32s0,.09,0,.13"/>
            <path id="Path_14479-5" data-name="Path 14479-5" class="cls-7" d="m67.58,76.5h.01s-.01,0-.01,0"/>
            <path id="Path_14480-5" data-name="Path 14480-5" class="cls-8" d="m69.32,74.22l.2.84c.05-.1.09-.2.12-.3,0-.05-.05-.39-.05-.39l-.13-.24-.12.1"/>
          </g>
        </g>
      </g>
      <g id="Group_567" data-name="Group 567">
        <g class="cls-19">
          <g id="Group_561-6" data-name="Group 561-6">
            <path id="Path_14467-6" data-name="Path 14467-6" class="cls-5" d="m71.24,80.1l-.26-.05h-.05s-.03-.03-.05-.04c-.01-.03-.01-.06,0-.1v-.26c-.01-.07.04-.14.11-.16,0,0,.01,0,.02,0,.13-.03.25-.06.37-.11.1-.04.2-.08.31-.11.07-.01.14-.03.21-.05.23-.09.47-.17.7-.28.11-.06.23-.11.35-.15.1-.04.18-.13.28-.16.07-.01.13-.04.19-.07.07-.06.15-.11.24-.15.22-.12.43-.26.64-.41.19-.14.38-.28.55-.45.06-.05.1-.12.15-.16.12-.11.22-.24.33-.36.07-.07.13-.14.18-.22.05-.08.1-.16.15-.24.06-.09.14-.18.19-.27.08-.17.15-.35.19-.53.07-.24.12-.49.14-.74.06-.09.1-.19.12-.3.03-.1.09-.18.16-.25.04-.04.09-.06.15-.06.11,0,.22.02.32.07,0,.01,0,.03.02.04,0,.01.02.02.03.04.02.02.03.04.04.06.02.04.03.08.03.12l.07.22v.03s0,.09,0,.13c0,.06,0,.13.02.19.02.14.02.29,0,.43l-.05.26c-.07.08-.11.19-.1.3,0,.03-.02.06-.03.09-.01.03-.02.05-.03.08,0,0-.01.01-.02.02-.03.04-.04.08-.04.12,0,.05-.02.1-.05.14,0,0-.02.02-.02.03,0,.01-.02.02-.02.03-.03.07-.07.13-.12.19-.02.03-.04.07-.05.1,0,.02-.01.03-.02.05-.01,0-.03,0-.03.02-.05.09-.11.18-.18.26-.02.02-.07.05-.03.1-.02.04-.07.06-.08.1l-.11.13s-.09.08-.11.14c-.02.04-.05.07-.08.1-.09.07-.17.16-.24.25-.07.03-.13.09-.16.16l-.08.08-.05.05s-.08.06-.1.1c-.04.02-.08.06-.1.1-.04-.02-.08,0-.11.02,0,0-.01.02-.01.03-.01.03-.05.03-.07.05-.03,0-.05.03-.06.05-.07-.01-.1.04-.12.09-.02,0-.04.01-.05.04l-.02.02s-.05,0-.07.03c-.07,0-.11.06-.17.1l-.02.02s-.08.03-.1.06c-.02.01-.04.03-.06.04-.03.02-.06.04-.09.05l-.1.07s-.09.05-.12.07c-.03.01-.05.03-.08.03-.02,0-.04,0-.05,0l-.15.07c-.09.03-.17.07-.25.12-.06.01-.12.03-.17.07l-.08.02s-.09.02-.13.03-.09.02-.13.02c-.07.04-.15.08-.24.09-.15.02-.28.07-.43.08-.01,0-.04.01-.07.02-.08.02-.17.03-.25.04-.04,0-.09,0-.13,0-.04,0-.08,0-.12,0-.12.01-.23.02-.35,0-.05,0-.1,0-.15-.02-.06-.07.9-.96,4.08-3.61.57.26.05,2.21-.15,2.29,0,0-.07.03-.08.02s.08-.07.08-.07h0s0,.03,0,.03c0,.01-1.09.39-3.93,1.34"/>
            <path id="Path_14468-6" data-name="Path 14468-6" class="cls-6" d="m74.95,73.09s.02-.05.04-.07c.1-.07.21-.13.31-.19.08-.02.16-.05.24-.08h.05s.19-.04.19-.04h.07s-.02.05-.02.05c-.1.09-.2.18-.29.28-.03.03-.06.04-.1.04-.16,0-.32,0-.48,0"/>
            <path id="Path_14469-6" data-name="Path 14469-6" class="cls-3" d="m76.18,75.04c-.02.25-.07.5-.14.74-.05.18-.11.36-.19.53-.05.09-.13.18-.19.27-.05.08-.11.16-.15.24-.05.08-.11.16-.18.22-.11.12-.21.25-.33.36-.05.05-.09.12-.15.16-.17.16-.36.31-.55.45-.2.15-.42.28-.64.41-.08.04-.16.09-.24.15-.06.03-.13.06-.19.07-.11.03-.18.12-.28.16-.12.04-.24.09-.35.15-.23.11-.46.19-.7.28-.07.02-.14.04-.21.05-.1.03-.21.06-.31.11-.12.05-.24.08-.37.11-.07,0-.13.07-.13.14,0,0,0,.01,0,.02v.26h-.01s0-.09,0-.14q0-.23-.22-.32s-.08-.03-.12-.05c-.06-.03,0-.07-.02-.11.04-.09.08-.17.14-.25.04-.04.07-.09.08-.15.01-.02.03-.04.05-.06.01-.01.02-.03.04-.04.02-.03.05-.05.08-.08.02-.02.05-.04.07-.06.02-.02.05-.04.07-.06.02-.02.05-.05.07-.07.02-.02.04-.04.07-.06s.05-.04.07-.05.04-.03.07-.05c.03-.02.07-.05.1-.07.02-.02.04-.03.07-.05.02-.01.03-.02.05-.03l.1-.05s.08-.04.12-.06c.02,0,.04-.02.07-.03s.05-.02.07-.03.04-.02.07-.03c.02,0,.03-.02.05-.03.09-.03.17-.07.25-.12.04-.02.08-.05.12-.07.05-.01.11-.04.15-.07.05-.02.1-.05.15-.08.06-.04.11-.07.24-.15.01,0,.04-.03.09-.05.02,0,.03-.02.04-.02.08-.03.15-.08.22-.13.09-.05.17-.1.25-.16.05-.04.09-.07.13-.11.02-.01.03-.03.05-.04.02-.02.04-.03.07-.04.02-.02.04-.04.07-.05.02-.01.04-.02.06-.03.02-.01.04-.03.06-.05.02-.01.04-.03.06-.05,0,0,0-.01.01-.02l.21-.19h.01s.03-.03.04-.05l.05-.03s.05-.07.07-.1c.02-.03.03-.05.05-.08.02-.04.05-.07.08-.1.03-.06.07-.11.11-.16.01-.02.02-.04.04-.06.04-.05.07-.1.12-.15,0-.02.01-.03.02-.04,0,0,.01-.01.01-.01.04-.07.08-.15.12-.23.02-.06.04-.11.07-.16.04-.11.08-.22.1-.34,0-.04,0-.08,0-.12.04,0,.03-.04.04-.07.06-.14.17-.25.31-.31.18-.1.4-.05.52.12.08.13.14.27.18.41"/>
            <path id="Path_14470-6" data-name="Path 14470-6" class="cls-8" d="m76.18,75.04c-.05-.14-.11-.28-.18-.41-.11-.17-.34-.22-.52-.12-.14.06-.25.18-.31.31-.01.02,0,.06-.04.07,0-.04,0-.09.01-.13.03-.09.07-.17.12-.25,0,0,0-.01.01-.02.01-.02.02-.03.04-.05.02-.02.03-.04.05-.07.03-.04.06-.07.08-.1.01-.02.02-.03.03-.05,0-.03.01-.06.01-.09,0-.04,0-.09,0-.13-.02-.09-.05-.19-.1-.27-.04-.07-.06-.09-.1-.17-.01-.03-.02-.05-.03-.07,0,0,0-.01,0-.02,0,0,0,0,0,0-.02-.06-.06-.12-.11-.15l-.17-.23c.16,0,.32,0,.48,0,.04,0,.08-.01.1-.04.09-.1.19-.19.29-.28.03.07.05.14.04.22,0,.04.01.08.02.12s.01.08.02.12c0,.13.04.26.11.38,0,.01.01.02.02.03.01.01.02.03.03.04.01.02.03.04.04.06l.02.02s0,0,.01.01c0,0,.02.02.02.03.09.08.18.15.28.22.02.02.05.04.09.08.05.02.1.05.15.08.12.08.21.19.27.32-.1-.05-.21-.07-.32-.07-.06,0-.11.02-.15.05-.08.07-.13.16-.16.25-.02.07-.37-1.5-.12.3"/>
            <path id="Path_14471-6" data-name="Path 14471-6" class="cls-5" d="m76.58,77.16s-.04.07-.05.1l-.02.02c-.03.08-.09.16-.15.22l-.04.05s.01-.08.03-.1c.07-.08.13-.17.18-.26,0-.01.02-.02.03-.02"/>
            <path id="Path_14472-6" data-name="Path 14472-6" class="cls-5" d="m77.09,76.02s-.01,0-.02,0c0,0,0,.02,0,.03-.01.03-.02.05-.03.08-.01.04-.02.07-.03.1,0,.02,0,.05-.02.07h0c0-.1.03-.2.1-.29"/>
            <path id="Path_14473-6" data-name="Path 14473-6" class="cls-5" d="m74.13,79.41c-.06.07-.14.12-.22.13,0-.01,0-.04.01-.04.08-.01.13-.08.21-.09"/>
            <path id="Path_14474-6" data-name="Path 14474-6" class="cls-8" d="m70.87,79.91h.01s-.01.07,0,.1c-.05,0-.09-.04-.14-.04,0,0,0-.02,0-.02.05,0,.1,0,.14-.04"/>
            <path id="Path_14475-6" data-name="Path 14475-6" class="cls-5" d="m74.7,79.09c-.04.06-.1.1-.17.1.05-.04.09-.1.17-.1"/>
            <path id="Path_14476-6" data-name="Path 14476-6" class="cls-5" d="m74.96,78.91s-.07.08-.12.09c.03-.05.05-.1.12-.09"/>
            <path id="Path_14477-6" data-name="Path 14477-6" class="cls-8" d="m75.12,73.32s.03.02.04.03c.05.05.08.1.09.17,0,0,0-.02-.01-.03-.01-.02-.02-.05-.04-.07-.02-.04-.05-.07-.09-.1"/>
            <path id="Path_14478-6" data-name="Path 14478-6" class="cls-6" d="m70.87,79.91s-.09.04-.14.04c-.03,0-.07-.02-.07-.05,0-.04-.03-.08-.06-.11-.02-.09-.08-.16-.11-.25.01-.04-.03-.11.04-.14.04.02.08.03.12.05q.22.09.22.32s0,.09,0,.13"/>
            <path id="Path_14479-6" data-name="Path 14479-6" class="cls-7" d="m74.25,76.5h.01s-.01,0-.01,0"/>
            <path id="Path_14480-6" data-name="Path 14480-6" class="cls-8" d="m75.98,74.22l.2.84c.05-.1.09-.2.12-.3,0-.05-.05-.39-.05-.39l-.13-.24-.12.1"/>
          </g>
        </g>
      </g>
      <g id="Group_568" data-name="Group 568">
        <g class="cls-22">
          <g id="Group_561-7" data-name="Group 561-7">
            <path id="Path_14467-7" data-name="Path 14467-7" class="cls-5" d="m77.91,80.1l-.26-.05h-.05s-.03-.03-.05-.04c-.01-.03-.01-.06,0-.1v-.26c-.01-.07.04-.14.11-.16,0,0,.01,0,.02,0,.13-.03.25-.06.37-.11.1-.04.2-.08.31-.11.07-.01.14-.03.21-.05.23-.09.47-.17.7-.28.11-.06.23-.11.35-.15.1-.04.18-.13.28-.16.07-.01.13-.04.19-.07.07-.06.15-.11.24-.15.22-.12.43-.26.64-.41.19-.14.38-.28.55-.45.06-.05.1-.12.15-.16.12-.11.22-.24.33-.36.07-.07.13-.14.18-.22.05-.08.1-.16.15-.24.06-.09.14-.18.19-.27.08-.17.15-.35.19-.53.07-.24.12-.49.14-.74.06-.09.1-.19.12-.3.03-.1.09-.18.16-.25.04-.04.09-.06.15-.06.11,0,.22.02.32.07,0,.01,0,.03.02.04,0,.01.02.02.03.04.02.02.03.04.04.06.02.04.03.08.03.12l.07.22v.03s0,.09,0,.13c0,.06,0,.13.02.19.02.14.02.29,0,.43l-.05.26c-.07.08-.11.19-.1.3,0,.03-.02.06-.03.09-.01.03-.02.05-.03.08,0,0-.01.01-.02.02-.03.04-.04.08-.04.12,0,.05-.02.1-.05.14,0,0-.02.02-.02.03,0,.01-.02.02-.02.03-.03.07-.07.13-.12.19-.02.03-.04.07-.05.1,0,.02-.01.03-.02.05-.01,0-.03,0-.03.02-.05.09-.11.18-.18.26-.02.02-.07.05-.03.1-.02.04-.07.06-.08.1l-.11.13s-.09.08-.11.14c-.02.04-.05.07-.08.1-.09.07-.17.16-.24.25-.07.03-.13.09-.16.16l-.08.08-.05.05s-.08.06-.1.1c-.04.02-.08.06-.1.1-.04-.02-.08,0-.11.02,0,0-.01.02-.01.03-.01.03-.05.03-.07.05-.03,0-.05.03-.06.05-.07-.01-.1.04-.12.09-.02,0-.04.01-.05.04l-.02.02s-.05,0-.07.03c-.07,0-.11.06-.17.1l-.02.02s-.08.03-.1.06c-.02.01-.04.03-.06.04-.03.02-.06.04-.09.05l-.1.07s-.09.05-.12.07c-.03.01-.05.03-.08.03-.02,0-.04,0-.05,0l-.15.07c-.09.03-.17.07-.25.12-.06.01-.12.03-.17.07l-.08.02s-.09.02-.13.03-.09.02-.13.02c-.07.04-.15.08-.24.09-.15.02-.28.07-.43.08-.01,0-.04.01-.07.02-.08.02-.17.03-.25.04-.04,0-.09,0-.13,0-.04,0-.08,0-.12,0-.12.01-.23.02-.35,0-.05,0-.1,0-.15-.02-.06-.07.9-.96,4.08-3.61.57.26.05,2.21-.15,2.29,0,0-.07.03-.08.02s.08-.07.08-.07h0s0,.03,0,.03c0,.01-1.09.39-3.93,1.34"/>
            <path id="Path_14468-7" data-name="Path 14468-7" class="cls-6" d="m81.62,73.09s.02-.05.04-.07c.1-.07.21-.13.31-.19.08-.02.16-.05.24-.08h.05s.19-.04.19-.04h.07s-.02.05-.02.05c-.1.09-.2.18-.29.28-.03.03-.06.04-.1.04-.16,0-.32,0-.48,0"/>
            <path id="Path_14469-7" data-name="Path 14469-7" class="cls-3" d="m82.85,75.04c-.02.25-.07.5-.14.74-.05.18-.11.36-.19.53-.05.09-.13.18-.19.27-.05.08-.11.16-.15.24-.05.08-.11.16-.18.22-.11.12-.21.25-.33.36-.05.05-.09.12-.15.16-.17.16-.36.31-.55.45-.2.15-.42.28-.64.41-.08.04-.16.09-.24.15-.06.03-.13.06-.19.07-.11.03-.18.12-.28.16-.12.04-.24.09-.35.15-.23.11-.46.19-.7.28-.07.02-.14.04-.21.05-.1.03-.21.06-.31.11-.12.05-.24.08-.37.11-.07,0-.13.07-.13.14,0,0,0,.01,0,.02v.26h-.01s0-.09,0-.14q0-.23-.22-.32s-.08-.03-.12-.05c-.06-.03,0-.07-.02-.11.04-.09.08-.17.14-.25.04-.04.07-.09.08-.15.01-.02.03-.04.05-.06.01-.01.02-.03.04-.04.02-.03.05-.05.08-.08.02-.02.05-.04.07-.06.02-.02.05-.04.07-.06.02-.02.05-.05.07-.07.02-.02.04-.04.07-.06s.05-.04.07-.05.04-.03.07-.05c.03-.02.07-.05.1-.07.02-.02.04-.03.07-.05.02-.01.03-.02.05-.03l.1-.05s.08-.04.12-.06c.02,0,.04-.02.07-.03s.05-.02.07-.03.04-.02.07-.03c.02,0,.03-.02.05-.03.09-.03.17-.07.25-.12.04-.02.08-.05.12-.07.05-.01.11-.04.15-.07.05-.02.1-.05.15-.08.06-.04.11-.07.24-.15.01,0,.04-.03.09-.05.02,0,.03-.02.04-.02.08-.03.15-.08.22-.13.09-.05.17-.1.25-.16.05-.04.09-.07.13-.11.02-.01.03-.03.05-.04.02-.02.04-.03.07-.04.02-.02.04-.04.07-.05.02-.01.04-.02.06-.03.02-.01.04-.03.06-.05.02-.01.04-.03.06-.05,0,0,0-.01.01-.02l.21-.19h.01s.03-.03.04-.05l.05-.03s.05-.07.07-.1c.02-.03.03-.05.05-.08.02-.04.05-.07.08-.1.03-.06.07-.11.11-.16.01-.02.02-.04.04-.06.04-.05.07-.1.12-.15,0-.02.01-.03.02-.04,0,0,.01-.01.01-.01.04-.07.08-.15.12-.23.02-.06.04-.11.07-.16.04-.11.08-.22.1-.34,0-.04,0-.08,0-.12.04,0,.03-.04.04-.07.06-.14.17-.25.31-.31.18-.1.4-.05.52.12.08.13.14.27.18.41"/>
            <path id="Path_14470-7" data-name="Path 14470-7" class="cls-8" d="m82.85,75.04c-.05-.14-.11-.28-.18-.41-.11-.17-.34-.22-.52-.12-.14.06-.25.18-.31.31-.01.02,0,.06-.04.07,0-.04,0-.09.01-.13.03-.09.07-.17.12-.25,0,0,0-.01.01-.02.01-.02.02-.03.04-.05.02-.02.03-.04.05-.07.03-.04.06-.07.08-.1.01-.02.02-.03.03-.05,0-.03.01-.06.01-.09,0-.04,0-.09,0-.13-.02-.09-.05-.19-.1-.27-.04-.07-.06-.09-.1-.17-.01-.03-.02-.05-.03-.07,0,0,0-.01,0-.02,0,0,0,0,0,0-.02-.06-.06-.12-.11-.15l-.17-.23c.16,0,.32,0,.48,0,.04,0,.08-.01.1-.04.09-.1.19-.19.29-.28.03.07.05.14.04.22,0,.04.01.08.02.12s.01.08.02.12c0,.13.04.26.11.38,0,.01.01.02.02.03.01.01.02.03.03.04.01.02.03.04.04.06l.02.02s0,0,.01.01c0,0,.02.02.02.03.09.08.18.15.28.22.02.02.05.04.09.08.05.02.1.05.15.08.12.08.21.19.27.32-.1-.05-.21-.07-.32-.07-.06,0-.11.02-.15.05-.08.07-.13.16-.16.25-.02.07-.37-1.5-.12.3"/>
            <path id="Path_14471-7" data-name="Path 14471-7" class="cls-5" d="m83.25,77.16s-.04.07-.05.1l-.02.02c-.03.08-.09.16-.15.22l-.04.05s.01-.08.03-.1c.07-.08.13-.17.18-.26,0-.01.02-.02.03-.02"/>
            <path id="Path_14472-7" data-name="Path 14472-7" class="cls-5" d="m83.76,76.02s-.01,0-.02,0c0,0,0,.02,0,.03-.01.03-.02.05-.03.08-.01.04-.02.07-.03.1,0,.02,0,.05-.02.07h0c0-.1.03-.2.1-.29"/>
            <path id="Path_14473-7" data-name="Path 14473-7" class="cls-5" d="m80.8,79.41c-.06.07-.14.12-.22.13,0-.01,0-.04.01-.04.08-.01.13-.08.21-.09"/>
            <path id="Path_14474-7" data-name="Path 14474-7" class="cls-8" d="m77.54,79.91h.01s-.01.07,0,.1c-.05,0-.09-.04-.14-.04,0,0,0-.02,0-.02.05,0,.1,0,.14-.04"/>
            <path id="Path_14475-7" data-name="Path 14475-7" class="cls-5" d="m81.36,79.09c-.04.06-.1.1-.17.1.05-.04.09-.1.17-.1"/>
            <path id="Path_14476-7" data-name="Path 14476-7" class="cls-5" d="m81.62,78.91s-.07.08-.12.09c.03-.05.05-.1.12-.09"/>
            <path id="Path_14477-7" data-name="Path 14477-7" class="cls-8" d="m81.79,73.32s.03.02.04.03c.05.05.08.1.09.17,0,0,0-.02-.01-.03-.01-.02-.02-.05-.04-.07-.02-.04-.05-.07-.09-.1"/>
            <path id="Path_14478-7" data-name="Path 14478-7" class="cls-6" d="m77.54,79.91s-.09.04-.14.04c-.03,0-.07-.02-.07-.05,0-.04-.03-.08-.06-.11-.02-.09-.08-.16-.11-.25.01-.04-.03-.11.04-.14.04.02.08.03.12.05q.22.09.22.32s0,.09,0,.13"/>
            <path id="Path_14479-7" data-name="Path 14479-7" class="cls-7" d="m80.91,76.5h.01s-.01,0-.01,0"/>
            <path id="Path_14480-7" data-name="Path 14480-7" class="cls-8" d="m82.65,74.22l.2.84c.05-.1.09-.2.12-.3,0-.05-.05-.39-.05-.39l-.13-.24-.12.1"/>
          </g>
        </g>
      </g>
      <g id="Group_569" data-name="Group 569">
        <g class="cls-23">
          <g id="Group_561-8" data-name="Group 561-8">
            <path id="Path_14467-8" data-name="Path 14467-8" class="cls-5" d="m84.57,80.1l-.26-.05h-.05s-.03-.03-.05-.04c-.01-.03-.01-.06,0-.1v-.26c-.01-.07.04-.14.11-.16,0,0,.01,0,.02,0,.13-.03.25-.06.37-.11.1-.04.2-.08.31-.11.07-.01.14-.03.21-.05.23-.09.47-.17.7-.28.11-.06.23-.11.35-.15.1-.04.18-.13.28-.16.07-.01.13-.04.19-.07.07-.06.15-.11.24-.15.22-.12.43-.26.64-.41.19-.14.38-.28.55-.45.06-.05.1-.12.15-.16.12-.11.22-.24.33-.36.07-.07.13-.14.18-.22.05-.08.1-.16.15-.24.06-.09.14-.18.19-.27.08-.17.15-.35.19-.53.07-.24.12-.49.14-.74.06-.09.1-.19.12-.3.03-.1.09-.18.16-.25.04-.04.09-.06.15-.06.11,0,.22.02.32.07,0,.01,0,.03.02.04,0,.01.02.02.03.04.02.02.03.04.04.06.02.04.03.08.03.12l.07.22v.03s0,.09,0,.13c0,.06,0,.13.02.19.02.14.02.29,0,.43l-.05.26c-.07.08-.11.19-.1.3,0,.03-.02.06-.03.09-.01.03-.02.05-.03.08,0,0-.01.01-.02.02-.03.04-.04.08-.04.12,0,.05-.02.1-.05.14,0,0-.02.02-.02.03,0,.01-.02.02-.02.03-.03.07-.07.13-.12.19-.02.03-.04.07-.05.1,0,.02-.01.03-.02.05-.01,0-.03,0-.03.02-.05.09-.11.18-.18.26-.02.02-.07.05-.03.1-.02.04-.07.06-.08.1l-.11.13s-.09.08-.11.14c-.02.04-.05.07-.08.1-.09.07-.17.16-.24.25-.07.03-.13.09-.16.16l-.08.08-.05.05s-.08.06-.1.1c-.04.02-.08.06-.1.1-.04-.02-.08,0-.11.02,0,0-.01.02-.01.03-.01.03-.05.03-.07.05-.03,0-.05.03-.06.05-.07-.01-.1.04-.12.09-.02,0-.04.01-.05.04l-.02.02s-.05,0-.07.03c-.07,0-.11.06-.17.1l-.02.02s-.08.03-.1.06c-.02.01-.04.03-.06.04-.03.02-.06.04-.09.05l-.1.07s-.09.05-.12.07c-.03.01-.05.03-.08.03-.02,0-.04,0-.05,0l-.15.07c-.09.03-.17.07-.25.12-.06.01-.12.03-.17.07l-.08.02s-.09.02-.13.03-.09.02-.13.02c-.07.04-.15.08-.24.09-.15.02-.28.07-.43.08-.01,0-.04.01-.07.02-.08.02-.17.03-.25.04-.04,0-.09,0-.13,0-.04,0-.08,0-.12,0-.12.01-.23.02-.35,0-.05,0-.1,0-.15-.02-.06-.07.9-.96,4.08-3.61.57.26.05,2.21-.15,2.29,0,0-.07.03-.08.02s.08-.07.08-.07h0s0,.03,0,.03c0,.01-1.09.39-3.93,1.34"/>
            <path id="Path_14468-8" data-name="Path 14468-8" class="cls-6" d="m88.28,73.09s.02-.05.04-.07c.1-.07.21-.13.31-.19.08-.02.16-.05.24-.08h.05s.19-.04.19-.04h.07s-.02.05-.02.05c-.1.09-.2.18-.29.28-.03.03-.06.04-.1.04-.16,0-.32,0-.48,0"/>
            <path id="Path_14469-8" data-name="Path 14469-8" class="cls-3" d="m89.51,75.04c-.02.25-.07.5-.14.74-.05.18-.11.36-.19.53-.05.09-.13.18-.19.27-.05.08-.11.16-.15.24-.05.08-.11.16-.18.22-.11.12-.21.25-.33.36-.05.05-.09.12-.15.16-.17.16-.36.31-.55.45-.2.15-.42.28-.64.41-.08.04-.16.09-.24.15-.06.03-.13.06-.19.07-.11.03-.18.12-.28.16-.12.04-.24.09-.35.15-.23.11-.46.19-.7.28-.07.02-.14.04-.21.05-.1.03-.21.06-.31.11-.12.05-.24.08-.37.11-.07,0-.13.07-.13.14,0,0,0,.01,0,.02v.26h-.01s0-.09,0-.14q0-.23-.22-.32s-.08-.03-.12-.05c-.06-.03,0-.07-.02-.11.04-.09.08-.17.14-.25.04-.04.07-.09.08-.15.01-.02.03-.04.05-.06.01-.01.02-.03.04-.04.02-.03.05-.05.08-.08.02-.02.05-.04.07-.06.02-.02.05-.04.07-.06.02-.02.05-.05.07-.07.02-.02.04-.04.07-.06s.05-.04.07-.05.04-.03.07-.05c.03-.02.07-.05.1-.07.02-.02.04-.03.07-.05.02-.01.03-.02.05-.03l.1-.05s.08-.04.12-.06c.02,0,.04-.02.07-.03s.05-.02.07-.03.04-.02.07-.03c.02,0,.03-.02.05-.03.09-.03.17-.07.25-.12.04-.02.08-.05.12-.07.05-.01.11-.04.15-.07.05-.02.1-.05.15-.08.06-.04.11-.07.24-.15.01,0,.04-.03.09-.05.02,0,.03-.02.04-.02.08-.03.15-.08.22-.13.09-.05.17-.1.25-.16.05-.04.09-.07.13-.11.02-.01.03-.03.05-.04.02-.02.04-.03.07-.04.02-.02.04-.04.07-.05.02-.01.04-.02.06-.03.02-.01.04-.03.06-.05.02-.01.04-.03.06-.05,0,0,0-.01.01-.02l.21-.19h.01s.03-.03.04-.05l.05-.03s.05-.07.07-.1c.02-.03.03-.05.05-.08.02-.04.05-.07.08-.1.03-.06.07-.11.11-.16.01-.02.02-.04.04-.06.04-.05.07-.1.12-.15,0-.02.01-.03.02-.04,0,0,.01-.01.01-.01.04-.07.08-.15.12-.23.02-.06.04-.11.07-.16.04-.11.08-.22.1-.34,0-.04,0-.08,0-.12.04,0,.03-.04.04-.07.06-.14.17-.25.31-.31.18-.1.4-.05.52.12.08.13.14.27.18.41"/>
            <path id="Path_14470-8" data-name="Path 14470-8" class="cls-8" d="m89.51,75.04c-.05-.14-.11-.28-.18-.41-.11-.17-.34-.22-.52-.12-.14.06-.25.18-.31.31-.01.02,0,.06-.04.07,0-.04,0-.09.01-.13.03-.09.07-.17.12-.25,0,0,0-.01.01-.02.01-.02.02-.03.04-.05.02-.02.03-.04.05-.07.03-.04.06-.07.08-.1.01-.02.02-.03.03-.05,0-.03.01-.06.01-.09,0-.04,0-.09,0-.13-.02-.09-.05-.19-.1-.27-.04-.07-.06-.09-.1-.17-.01-.03-.02-.05-.03-.07,0,0,0-.01,0-.02,0,0,0,0,0,0-.02-.06-.06-.12-.11-.15l-.17-.23c.16,0,.32,0,.48,0,.04,0,.08-.01.1-.04.09-.1.19-.19.29-.28.03.07.05.14.04.22,0,.04.01.08.02.12s.01.08.02.12c0,.13.04.26.11.38,0,.01.01.02.02.03.01.01.02.03.03.04.01.02.03.04.04.06l.02.02s0,0,.01.01c0,0,.02.02.02.03.09.08.18.15.28.22.02.02.05.04.09.08.05.02.1.05.15.08.12.08.21.19.27.32-.1-.05-.21-.07-.32-.07-.06,0-.11.02-.15.05-.08.07-.13.16-.16.25-.02.07-.37-1.5-.12.3"/>
            <path id="Path_14471-8" data-name="Path 14471-8" class="cls-5" d="m89.91,77.16s-.04.07-.05.1l-.02.02c-.03.08-.09.16-.15.22l-.04.05s.01-.08.03-.1c.07-.08.13-.17.18-.26,0-.01.02-.02.03-.02"/>
            <path id="Path_14472-8" data-name="Path 14472-8" class="cls-5" d="m90.42,76.02s-.01,0-.02,0c0,0,0,.02,0,.03-.01.03-.02.05-.03.08-.01.04-.02.07-.03.1,0,.02,0,.05-.02.07h0c0-.1.03-.2.1-.29"/>
            <path id="Path_14473-8" data-name="Path 14473-8" class="cls-5" d="m87.46,79.41c-.06.07-.14.12-.22.13,0-.01,0-.04.01-.04.08-.01.13-.08.21-.09"/>
            <path id="Path_14474-8" data-name="Path 14474-8" class="cls-8" d="m84.2,79.91h.01s-.01.07,0,.1c-.05,0-.09-.04-.14-.04,0,0,0-.02,0-.02.05,0,.1,0,.14-.04"/>
            <path id="Path_14475-8" data-name="Path 14475-8" class="cls-5" d="m88.03,79.09c-.04.06-.1.1-.17.1.05-.04.09-.1.17-.1"/>
            <path id="Path_14476-8" data-name="Path 14476-8" class="cls-5" d="m88.29,78.91s-.07.08-.12.09c.03-.05.05-.1.12-.09"/>
            <path id="Path_14477-8" data-name="Path 14477-8" class="cls-8" d="m88.45,73.32s.03.02.04.03c.05.05.08.1.09.17,0,0,0-.02-.01-.03-.01-.02-.02-.05-.04-.07-.02-.04-.05-.07-.09-.1"/>
            <path id="Path_14478-8" data-name="Path 14478-8" class="cls-6" d="m84.2,79.91s-.09.04-.14.04c-.03,0-.07-.02-.07-.05,0-.04-.03-.08-.06-.11-.02-.09-.08-.16-.11-.25.01-.04-.03-.11.04-.14.04.02.08.03.12.05q.22.09.22.32s0,.09,0,.13"/>
            <path id="Path_14479-8" data-name="Path 14479-8" class="cls-7" d="m87.58,76.5h.01s-.01,0-.01,0"/>
            <path id="Path_14480-8" data-name="Path 14480-8" class="cls-8" d="m89.31,74.22l.2.84c.05-.1.09-.2.12-.3,0-.05-.05-.39-.05-.39l-.13-.24-.12.1"/>
          </g>
        </g>
      </g>
      <rect id="Rectangle_306" data-name="Rectangle 306" class="cls-12" x="23.35" y="3.38" width="56.55" height="18.73" transform="translate(-1.17 6.39) rotate(-7)"/>
      <g id="Fairtrade_bananen" data-name="Fairtrade bananen" class="cls-24">
        <g class="cls-24">
          <path class="cls-4" d="m36.34,10.14l.03.21s.02.06.05.08c.03.02.06.03.09.02l1.37-.17s.06,0,.09.03c.03.02.04.05.05.08l.09.71s0,.06-.02.09c-.02.03-.05.04-.08.05l-1.37.17s-.06.02-.08.05c-.02.03-.03.06-.03.09l.14,1.12s0,.07-.02.09c-.02.03-.05.04-.08.05l-.76.09s-.06,0-.09-.02c-.03-.02-.04-.05-.05-.08l-.43-3.48s0-.06.03-.09.05-.04.08-.05l2.58-.32s.06,0,.09.03.04.05.05.08l.09.7s0,.06-.02.09-.05.04-.08.05l-1.58.19s-.06.02-.08.05-.03.06-.03.09Z"/>
          <path class="cls-4" d="m39.24,8.82s.03-.06.06-.09c.03-.03.06-.04.1-.05l.71-.09s.07,0,.1.02c.03.02.06.04.08.07l1.91,3.28s.02.06,0,.1c-.01.04-.05.06-.1.06l-.87.11s-.07,0-.11-.02c-.04-.02-.06-.04-.08-.07l-.17-.29s-.05-.05-.08-.07c-.04-.02-.07-.03-.1-.02l-1.07.13s-.07.02-.1.05c-.03.03-.05.05-.06.09l-.11.32s-.03.06-.06.09c-.03.03-.06.04-.1.04l-.88.11s-.03,0-.05,0c-.02,0-.04-.01-.05-.02-.01-.01-.02-.03-.03-.05,0-.02,0-.04,0-.07l1.05-3.63Zm.57,2.18l.45-.06s.06-.02.07-.04c.01-.02,0-.05-.01-.08-.04-.08-.1-.17-.16-.28-.06-.11-.12-.21-.17-.3-.02-.03-.03-.04-.05-.04-.02,0-.03.02-.04.05l-.18.65s0,.06,0,.08c.02.02.04.03.08.02Z"/>
          <path class="cls-4" d="m43.51,11.96l-.76.09s-.07,0-.09-.02c-.02-.02-.04-.05-.04-.08l-.43-3.47s0-.06.02-.09c.02-.03.05-.04.08-.05l.76-.09s.06,0,.09.03c.03.02.04.05.05.08l.43,3.47s0,.06-.03.09c-.02.03-.05.04-.08.05Z"/>
          <path class="cls-4" d="m45.2,11.75l-.76.09s-.06,0-.09-.02c-.03-.02-.04-.05-.05-.08l-.43-3.48s0-.06.03-.09c.02-.03.05-.04.08-.05l1.58-.19c.2-.02.38-.01.56.03.17.05.33.12.46.23.13.1.24.23.33.39.09.15.14.33.17.53.01.11.01.22,0,.33-.01.11-.04.22-.07.32-.04.1-.08.19-.14.28-.05.08-.12.16-.2.22-.02.02-.04.05-.04.08,0,.03,0,.06.03.08.15.15.31.31.47.47.16.16.31.31.44.45.02.02.03.05.03.09,0,.03-.03.05-.06.06l-.95.12s-.07,0-.11-.01c-.04-.01-.07-.03-.1-.06-.13-.13-.25-.26-.37-.39-.12-.13-.25-.27-.37-.4-.02-.02-.06-.04-.09-.06-.04-.01-.08-.02-.11-.01h-.11s-.06.03-.08.06c-.02.03-.03.06-.02.09l.1.82s0,.07-.03.09c-.02.03-.05.04-.08.05Zm0-2.03l.54-.07s.08-.02.12-.04c.04-.02.08-.05.11-.09.03-.04.06-.08.08-.13.02-.05.02-.11.01-.17,0-.03-.02-.07-.03-.12-.02-.04-.04-.09-.08-.12-.03-.04-.08-.07-.13-.09-.05-.02-.11-.03-.19-.02l-.54.07s-.06.02-.08.05-.03.06-.02.09l.07.54s.02.06.05.08.06.03.09.02Z"/>
          <path class="cls-4" d="m50.07,8.32l-.71.09s-.06.02-.08.05-.03.06-.03.09l.31,2.54s0,.06-.02.09c-.02.03-.05.04-.08.05l-.76.09s-.06,0-.09-.02c-.03-.02-.04-.05-.05-.08l-.31-2.54s-.02-.06-.04-.08c-.02-.02-.06-.03-.09-.02l-.72.09s-.06,0-.09-.02c-.03-.02-.04-.05-.05-.08l-.08-.69s0-.06.03-.09c.02-.03.05-.04.08-.05l2.69-.33s.07,0,.09.03.04.05.04.08l.09.69s0,.06-.02.09c-.02.03-.05.04-.08.05Z"/>
          <path class="cls-4" d="m51.81,10.94l-.76.09s-.06,0-.09-.02c-.03-.02-.04-.05-.05-.08l-.43-3.48s0-.06.03-.09.05-.04.08-.05l1.58-.19c.2-.02.38-.01.56.03.17.05.33.12.46.23.13.1.24.23.33.39.09.15.14.33.17.53.01.11.01.22,0,.33-.01.11-.04.22-.07.32-.04.1-.08.19-.14.28-.06.08-.12.16-.2.22-.02.02-.04.05-.04.08,0,.03,0,.06.03.08.15.15.31.31.47.47.16.16.31.31.44.45.02.02.03.05.03.09,0,.03-.03.05-.06.06l-.95.12s-.07,0-.11-.01c-.04-.01-.07-.03-.1-.06-.13-.13-.25-.26-.37-.39-.12-.13-.25-.27-.37-.4-.02-.02-.06-.04-.09-.06s-.08-.02-.11-.02h-.11s-.06.03-.08.06c-.02.03-.03.06-.02.09l.1.82s0,.06-.03.09c-.02.03-.05.04-.08.05Zm0-2.03l.54-.07s.08-.02.12-.04c.04-.02.08-.05.11-.09.03-.04.06-.08.08-.13.02-.05.02-.11.01-.17,0-.03-.01-.07-.03-.12-.02-.04-.04-.08-.08-.12-.03-.04-.08-.07-.13-.09-.05-.02-.11-.03-.19-.02l-.54.07s-.06.02-.08.05c-.02.03-.03.06-.03.09l.07.54s.02.06.05.08c.03.02.06.03.09.03Z"/>
          <path class="cls-4" d="m55.32,6.85s.03-.06.06-.09c.03-.03.06-.04.1-.05l.71-.09s.07,0,.1.02c.03.02.06.04.08.07l1.91,3.28s.02.06,0,.1c-.01.04-.05.06-.1.06l-.87.11s-.07,0-.11-.02c-.04-.02-.06-.04-.08-.07l-.18-.29s-.05-.05-.08-.07c-.04-.02-.07-.03-.1-.02l-1.07.13s-.07.02-.1.05c-.03.03-.05.05-.06.09l-.1.32s-.03.06-.06.09c-.03.03-.06.04-.09.05l-.88.11s-.04,0-.06,0c-.02,0-.04-.01-.05-.03-.01-.01-.02-.03-.03-.05s0-.04,0-.07l1.05-3.63Zm.57,2.18l.45-.06s.06-.02.07-.04c.01-.02,0-.05-.01-.08-.04-.08-.1-.17-.16-.28-.06-.11-.12-.21-.17-.3-.02-.03-.03-.04-.05-.04-.02,0-.03.02-.04.05l-.18.65s0,.06,0,.08c.02.02.04.03.08.02Z"/>
          <path class="cls-4" d="m58.65,9.98l-.43-3.48s0-.06.03-.09c.02-.03.05-.04.08-.05l1.39-.17c.53-.07.99.04,1.36.31.2.15.37.33.49.55.12.22.2.48.24.77.04.29.02.56-.05.81-.07.25-.18.47-.34.66-.15.17-.33.31-.54.42-.21.1-.45.17-.71.21l-1.39.17s-.06,0-.09-.02c-.03-.02-.04-.05-.05-.08Zm1.03-.95l.38-.05c.09-.01.19-.04.29-.07.1-.04.18-.09.26-.17.07-.08.13-.18.17-.3.04-.13.05-.29.02-.48-.02-.19-.07-.35-.14-.46-.07-.11-.15-.2-.24-.25-.09-.06-.19-.09-.29-.1s-.2-.01-.3,0l-.38.05s-.06.02-.08.05-.03.06-.03.09l.2,1.6s.02.06.05.08c.03.02.06.03.09.03Z"/>
          <path class="cls-4" d="m63.17,6.84l.03.21s.02.06.05.08c.03.02.06.03.09.02l1.38-.17s.06,0,.09.03c.03.02.04.05.05.08l.09.7s0,.06-.03.09-.05.04-.08.05l-1.38.17s-.06.02-.08.05c-.02.03-.03.06-.03.09l.02.19s.02.06.05.08c.03.02.06.03.09.02l1.58-.19s.06,0,.09.02c.03.02.04.05.05.08l.09.7s0,.06-.03.09c-.02.03-.05.04-.08.05l-2.59.32s-.06,0-.09-.02c-.03-.02-.04-.05-.05-.08l-.43-3.48s0-.06.03-.09c.02-.03.05-.04.08-.05l2.59-.32s.06,0,.09.03c.03.02.04.05.05.08l.08.69s0,.06-.03.09-.05.04-.08.05l-1.58.19s-.06.02-.08.05-.03.06-.02.09Z"/>
        </g>
        <g class="cls-24">
          <path class="cls-4" d="m40.93,16.56c.06.02.12.05.18.09.06.04.12.09.17.14.05.06.1.13.14.21.04.08.07.18.08.29.03.22.01.41-.04.56-.05.15-.13.28-.24.38-.11.1-.24.18-.39.23-.15.05-.31.09-.48.11l-1.61.2s-.06,0-.09-.02c-.03-.02-.04-.05-.05-.08l-.43-3.48s0-.06.03-.09c.02-.03.05-.04.08-.05l1.54-.19c.16-.02.32-.02.47,0,.15.02.29.06.42.13.12.07.23.16.31.28.09.12.14.28.16.47.02.15,0,.29-.07.41s-.13.22-.21.3c-.06.05-.05.09.02.12Zm-1.47-.22l.47-.06c.07,0,.12-.04.15-.1.03-.06.05-.12.04-.18,0-.06-.04-.11-.09-.15-.05-.04-.1-.05-.15-.05l-.48.06s-.06.02-.08.05c-.02.03-.03.06-.03.09l.03.23s.02.06.05.08c.03.02.06.03.09.02Zm.64.77l-.53.07s-.06.02-.08.05c-.02.03-.03.06-.03.09l.04.29s.02.06.05.08c.03.02.06.03.09.03l.57-.07c.06,0,.12-.04.16-.1.05-.06.07-.12.06-.19,0-.06-.04-.12-.1-.18-.06-.06-.13-.08-.22-.07Z"/>
          <path class="cls-4" d="m42.68,14.63s.03-.06.06-.09.06-.04.1-.05l.71-.09s.07,0,.1.02c.03.02.06.04.08.07l1.91,3.28s.02.06,0,.1c-.01.04-.05.06-.1.06l-.87.11s-.07,0-.11-.02c-.04-.02-.06-.04-.08-.07l-.18-.29s-.05-.05-.08-.07-.07-.03-.1-.02l-1.07.13s-.07.02-.1.05c-.03.03-.05.05-.06.09l-.1.32s-.03.06-.06.09c-.03.03-.06.04-.09.04l-.88.11s-.04,0-.05,0c-.02,0-.04-.01-.05-.02-.01-.01-.02-.03-.03-.05,0-.02,0-.04,0-.07l1.05-3.63Zm.57,2.18l.45-.06s.06-.02.07-.04c.01-.02,0-.05-.01-.08-.04-.08-.1-.17-.16-.28-.06-.11-.12-.21-.17-.3-.02-.03-.03-.04-.05-.04-.02,0-.03.02-.04.05l-.18.65s0,.06,0,.08c.02.02.04.03.08.02Z"/>
          <path class="cls-4" d="m49.07,13.85l.43,3.48s0,.07-.02.09c-.02.03-.05.04-.08.05l-.75.09s-.07,0-.11-.02c-.04-.02-.07-.04-.09-.06l-1.55-1.7s-.05-.03-.07-.03c-.02,0-.03.03-.03.06l.22,1.82s0,.07-.03.09c-.02.03-.05.04-.08.05l-.76.09s-.06,0-.09-.02c-.03-.02-.04-.05-.05-.08l-.43-3.48s0-.06.03-.09c.02-.03.05-.04.08-.05l.76-.09s.07,0,.11.01c.04.01.07.03.09.06l1.55,1.7s.05.03.07.03c.02,0,.03-.03.03-.06l-.22-1.82s0-.06.03-.09c.02-.03.05-.04.08-.05l.75-.09s.06,0,.09.03c.03.02.04.05.05.08Z"/>
          <path class="cls-4" d="m50.93,13.62s.03-.06.06-.09c.03-.03.06-.04.1-.05l.71-.09s.07,0,.1.02c.03.02.06.04.08.07l1.91,3.28s.02.06,0,.1c-.01.04-.05.06-.1.06l-.87.11s-.07,0-.11-.02c-.04-.02-.06-.04-.08-.07l-.17-.29s-.05-.05-.08-.07-.07-.03-.1-.02l-1.07.13s-.07.02-.1.05c-.03.03-.05.05-.06.09l-.11.32s-.03.06-.06.09c-.03.03-.06.04-.09.04l-.88.11s-.03,0-.05,0c-.02,0-.04-.01-.05-.02-.01-.01-.02-.03-.03-.05,0-.02,0-.04,0-.07l1.05-3.63Zm.57,2.18l.45-.06s.06-.02.07-.04c.01-.02,0-.05-.01-.08-.04-.08-.1-.17-.16-.28-.06-.11-.12-.21-.17-.3-.02-.03-.04-.04-.05-.04-.02,0-.03.02-.04.05l-.18.65s0,.06,0,.08c.02.02.04.03.08.02Z"/>
          <path class="cls-4" d="m57.32,12.84l.43,3.48s0,.07-.03.09c-.02.03-.05.04-.08.05l-.75.09s-.07,0-.11-.02c-.04-.02-.07-.04-.1-.06l-1.55-1.7s-.05-.03-.07-.03c-.02,0-.03.03-.03.06l.22,1.82s0,.07-.03.09c-.02.03-.05.04-.08.05l-.76.09s-.06,0-.09-.02c-.03-.02-.04-.05-.05-.08l-.43-3.48s0-.06.03-.09c.02-.03.05-.04.08-.05l.76-.09s.07,0,.11.01c.04.01.07.03.1.06l1.55,1.7s.05.03.07.03c.02,0,.03-.03.03-.06l-.22-1.82s0-.06.03-.09c.02-.03.05-.04.08-.05l.75-.09s.06,0,.09.03c.03.02.04.05.05.08Z"/>
          <path class="cls-4" d="m59.2,13.56l.03.21s.02.06.05.08c.03.02.06.03.09.02l1.38-.17s.06,0,.09.02c.03.02.04.05.05.08l.09.7s0,.06-.02.09c-.02.03-.05.04-.08.05l-1.38.17s-.06.02-.08.05c-.02.03-.03.06-.02.09l.02.19s.02.06.05.08c.03.02.06.03.09.02l1.58-.19s.06,0,.09.03c.03.02.04.05.05.08l.09.7s0,.07-.03.09c-.02.03-.05.04-.08.05l-2.59.32s-.06,0-.09-.02c-.03-.02-.04-.05-.05-.08l-.43-3.48s0-.06.03-.09c.02-.03.05-.04.08-.05l2.59-.32s.06,0,.09.03c.03.02.04.05.05.08l.09.69s0,.06-.03.09c-.02.03-.05.04-.08.05l-1.58.19s-.06.02-.08.05c-.02.03-.03.06-.03.09Z"/>
          <path class="cls-4" d="m65.06,11.89l.43,3.48s0,.07-.03.09c-.02.03-.05.04-.08.05l-.75.09s-.07,0-.11-.02c-.04-.02-.07-.04-.1-.06l-1.55-1.71s-.05-.03-.07-.03c-.02,0-.03.03-.03.06l.22,1.82s0,.07-.03.09c-.02.03-.05.04-.08.05l-.76.09s-.06,0-.09-.02c-.03-.02-.04-.05-.05-.08l-.43-3.48s0-.06.03-.09c.02-.03.05-.04.08-.05l.76-.09s.07,0,.11.01c.04.01.07.03.1.06l1.55,1.7s.05.03.07.03c.02,0,.03-.03.03-.06l-.22-1.82s0-.06.02-.09c.02-.03.05-.04.08-.05l.75-.09s.06,0,.09.03c.03.02.04.05.05.08Z"/>
        </g>
      </g>
    </g>
  </g>
</svg>