<?xml version="1.0" encoding="UTF-8"?>
<svg id="Laag_2" data-name="Laag 2" xmlns="http://www.w3.org/2000/svg" xmlns:xlink="http://www.w3.org/1999/xlink" viewBox="0 0 101.79 101.89">
  <defs>
    <style>
      .cls-1 {
        fill: none;
      }

      .cls-2 {
        clip-path: url(#clippath);
      }

      .cls-3 {
        fill: #fac08c;
      }

      .cls-4 {
        fill: #fac8a2;
      }

      .cls-5 {
        fill: #ffde30;
      }

      .cls-6 {
        fill: #fbba1e;
      }

      .cls-7 {
        fill: #fbc16a;
      }

      .cls-8 {
        fill: #fff;
      }

      .cls-9 {
        fill: #fffefc;
      }

      .cls-10 {
        fill: #efe7db;
      }

      .cls-11 {
        fill: #fdef6b;
      }

      .cls-12 {
        fill: #d9544e;
      }

      .cls-13 {
        fill: #429775;
      }

      .cls-14 {
        fill: #4159a5;
      }

      .cls-15 {
        fill: #966928;
      }

      .cls-16 {
        clip-path: url(#clippath-1);
      }

      .cls-17 {
        clip-path: url(#clippath-4);
      }

      .cls-18 {
        clip-path: url(#clippath-3);
      }

      .cls-19 {
        clip-path: url(#clippath-2);
      }

      .cls-20 {
        clip-path: url(#clippath-7);
      }

      .cls-21 {
        clip-path: url(#clippath-8);
      }

      .cls-22 {
        clip-path: url(#clippath-6);
      }

      .cls-23 {
        clip-path: url(#clippath-5);
      }

      .cls-24 {
        clip-path: url(#clippath-9);
      }

      .cls-25 {
        clip-path: url(#clippath-10);
      }

      .cls-26 {
        isolation: isolate;
      }
    </style>
    <clipPath id="clippath">
      <rect class="cls-1" y="4.44" width="101.79" height="97.45"/>
    </clipPath>
    <clipPath id="clippath-1">
      <rect class="cls-1" x="42.05" y="53.16" width="15.27" height="22.08"/>
    </clipPath>
    <clipPath id="clippath-2">
      <rect class="cls-1" x="19.79" y="6.68" width="62.21" height="5.91"/>
    </clipPath>
    <clipPath id="clippath-3">
      <rect class="cls-1" x="8.81" y="68.39" width="7.69" height="6.85"/>
    </clipPath>
    <clipPath id="clippath-4">
      <rect class="cls-1" x="27.82" y="68.39" width="7.69" height="6.85"/>
    </clipPath>
    <clipPath id="clippath-5">
      <rect class="cls-1" x="21.25" y="68.39" width="7.69" height="6.85"/>
    </clipPath>
    <clipPath id="clippath-6">
      <rect class="cls-1" x="15.18" y="68.39" width="7.69" height="6.85"/>
    </clipPath>
    <clipPath id="clippath-7">
      <rect class="cls-1" x="62.38" y="68.39" width="7.69" height="6.85"/>
    </clipPath>
    <clipPath id="clippath-8">
      <rect class="cls-1" x="81.62" y="68.39" width="7.69" height="6.85"/>
    </clipPath>
    <clipPath id="clippath-9">
      <rect class="cls-1" x="75.14" y="68.39" width="7.69" height="6.85"/>
    </clipPath>
    <clipPath id="clippath-10">
      <rect class="cls-1" x="68.87" y="68.39" width="7.69" height="6.85"/>
    </clipPath>
  </defs>
  <g id="Laag_1-2" data-name="Laag 1">
    <g id="Group_900" data-name="Group 900">
      <g id="Group_377" data-name="Group 377">
        <g class="cls-2">
          <g id="Group_376" data-name="Group 376">
            <path id="Path_11592" data-name="Path 11592" class="cls-14" d="m19.59,5.42s-2.18,1.2-2.71,3.05c-.53,1.85-.96,5.37-.96,5.37,0,0-.43,2.64-1.02,3.97s-4.65,9.54-4.65,9.54l-3.87,7.11-3.52,6.39S-.59,45.53.09,50.25c0,0,1.12,5.35,2.41,6.2s2,1.28,2.24,1.54c.45.51.72,1.15.76,1.83.03.89.09,3.69.09,3.69v8.06s-.04,2.05-1.08,2.26-2.48.18-2.57,1.64.02,5.37.09,5.68.21,1.35.89,1.83,1.71.97,1.91,1.14.78.87.88,1.47.14,1.93.14,1.93c0,0-.05,3.95,0,4.69.05.74.16,2.49.16,2.49,0,0-.07,2.8-1,3.57s-1.39,1.04-2.13,1.22-1.23.22-1.29.93c-.04.49-.04.99,0,1.48l33.67-.31,43.83-.45,22.6-.27s-.12-1.19-2.7-2.12l-1.02-.36s-1.15-.31-.72-2.29c.15-1.2.14-2.41-.04-3.6-.3-2.07-.65-4.61-.5-5.57s.19-2.1,1.61-3.52c.39-.33.8-.63,1.23-.91.37-.21.67-.26.62-1.55,0,0-.18-.41-.1-1.78s.14-2.45.14-2.45c0,0,.02-1.78-.52-2.68-.32-.53-.8-.95-1.37-1.18l-1-.33s-.78-.09-.96-1.25-.1-3.88-.1-3.88c0,0,.02-3.69-.02-4.59s-.11-1.87-.11-1.87c0,0-.06-1.88.39-2.73s.7-1.39,2-2.5c.91-.83,1.67-1.8,2.25-2.88,0,0,.89-1.45,1.03-4.08,0,0,.15-3.67-1.86-6.61l-2.98-5.58-3.24-6.37-2.97-5.69s-3.59-6.19-4.16-7.05-2.45-3.51-2.43-5.23.08-2.54.08-2.54c0,0,.74-2.88-1.71-4.46,0,0-1.22-.81-4.13-.78s-7.78.06-7.78.06l-11.16.09-11.71.12-12.57.15-11.95.16s-1.83-.15-2.73.12l-.91.27Z"/>
            <path id="Path_11593" data-name="Path 11593" class="cls-10" d="m19.08,16.5s-.43-.88-1.53,1.34-2.64,5.42-2.64,5.42l-3.04,6.25-4.17,8.49-1.95,3.97-1.1,2.23s1.53.85,2.9.7,2.39-.26,3.74-2.24c.56-1.13,1.04-2.28,1.46-3.47.55-1.65,2.27-6.49,2.27-6.49l1.33-3.57,1.31-3.47.88-2.35,1.09-2.99.63-1.91s.17-1.08-.26-1.43c-.28-.22-.59-.39-.93-.5"/>
            <path id="Path_11594" data-name="Path 11594" class="cls-10" d="m15.62,39.09l2.13-6.06,3.74-10.9.91-2.78s1.06-2.89,2.05-2.9c.99,0,1.7.08,2.11.55s.61.64.6,1.46-.58,2.54-.58,2.54l-.69,2.28-.48,1.43-.79,3.38-.93,3.8-1.06,4.16-.59,2.27-.83,3.2-.61,1.89s-.26.98-.95,1.27-2.16.22-2.16.22c0,0-1.92-.26-2.2-.4s-1.35-.2-.86-1.8"/>
            <path id="Path_11595" data-name="Path 11595" class="cls-10" d="m24.39,38.58l.85-3.18,1.17-4.35,1.86-7.48,1.25-5.21s.78-2.46,2.95-2.02c2.17.43,2.62,1.52,2.25,2.78-.37,1.25-1.21,5.67-1.21,5.67l-.84,4.42-.8,4.45-.51,3.21-.45,3.33s-.32,4-1.18,4.23-3.87.34-3.87.34c0,0-2.89,1.01-2.34-2"/>
            <path id="Path_11596" data-name="Path 11596" class="cls-10" d="m37.21,18.05l-1.64,9.37-1.08,6.03-.85,4.22-.74,3.64s-.06,2.68.68,3.12c.74.43,3.27.34,3.27.34,0,0,2.06.52,2.55-.34s.84-2.79,1-5.5.92-11.15.92-11.15l.47-4.37.58-3.86s.42-2.88-.98-3.05-2.16-.26-2.16-.26c0,0-1.57.25-2.02,1.81"/>
            <path id="Path_11597" data-name="Path 11597" class="cls-10" d="m45.76,16.51s-.97,1.24-1.21,4.17-.54,6.23-.54,6.23l-.57,6-.58,5.91s-1.06,4.96,1.33,5.48c0,0,1.55.89,2.57.55s1.74-.83,2.57-2.53.43-4.19.43-4.19v-7.38s-.11-8.6-.11-8.6c0,0,.28-4.18-.45-5.14,0,0-.52-.66-1.04-.71-.47-.03-.95-.03-1.43,0l-.98.21Z"/>
            <path id="Path_11598" data-name="Path 11598" class="cls-10" d="m53.52,16.3c-.8.3-1.33,1.08-1.31,1.93,0,1.51.03,3.83.03,3.83l.03,3.13.09,5.65.03,2.72v2.28s-.02,2.49-.02,2.49l-.04,1.96s0,1.83.16,2.36.44,1.43,1.03,1.7,1.62.57,2.06.56,1.94.09,2.16-.18.83-.76.99-1.45.37-2.5.23-3.52-.92-6.92-.92-6.92l-.62-5.15-.34-3.41-.23-2.92-.2-2.58s-.33-2.04-1.08-2.5-1.6-.13-1.6-.13l-.46.13Z"/>
            <path id="Path_11599" data-name="Path 11599" class="cls-10" d="m59.15,20.11s-.6-2.26-.38-2.83.59-1.06,1.03-1.03,2.56-.24,2.56-.24c0,0,.91-.51,1.31.77.4,1.27,1.41,6.66,1.41,6.66l1.28,6.36,1.12,6.6.73,4.38s.61,3.33-.28,3.68-2.81.46-2.81.46h-1.61c-.71-.47-1.22-1.19-1.43-2.02-.39-1.44-1.35-7.4-1.35-7.4l-.61-6-.69-6.11-.28-3.29Z"/>
            <path id="Path_11600" data-name="Path 11600" class="cls-10" d="m67.48,16.24s-1.36.14-.7,2.57c.65,2.42,1.36,6.61,1.36,6.61l.99,5.6.71,3.97.52,2.99.59,3.38s.58,3.74,2.73,3.55c1.35-.13,2.69-.36,4-.71,0,0,1.1-.64.21-3.4s-1.92-6.65-1.92-6.65l-1.62-6.09-1.32-4.42-.61-2.02-.74-2.5-.8-2.18s-.25-.91-1.15-.96-2.25.25-2.25.25"/>
            <path id="Path_11601" data-name="Path 11601" class="cls-10" d="m74.35,16.84s-.71.28,0,2.02c.52,1.35.96,2.73,1.31,4.14l1.88,7.4,1.41,5.53.78,3.12,1.01,3.48s.93,2.38,2.09,2.39c.76,0,1.51-.13,2.23-.35l2.52-.83s.59-.56-.25-1.9-2.47-6.37-2.47-6.37l-1.13-3.14-1.46-4.04-1.21-3.41-1.55-4.47-.64-1.9s-.5-2.37-1.76-2.45-2.77.79-2.77.79"/>
            <path id="Path_11602" data-name="Path 11602" class="cls-10" d="m80.75,16.3l6.5,17.5,1.89,5.25s1.08,3.66,2.1,4.13c.95.46,2.01.64,3.07.53.96-.13,1.42.11,1.82-.64s.77-1.91,0-3.04-1.77-2.8-1.77-2.8l-1.57-3.01-2.41-4.65-1.95-3.8-1.69-3.33-1.14-2.26-.76-1.51-1-1.65s-.41-.65-.96-.82-.73-.37-1.42-.14l-.69.23Z"/>
            <path id="Path_11603" data-name="Path 11603" class="cls-10" d="m12.74,90.18l-1.96-.03s-2.99.03-2.76,2.46.82,2.85,2.94,2.82c2.12-.03,80.71-.9,80.71-.9l1.88-.02s.97.43,1.07-.88c.05-.94,0-1.87-.15-2.8,0,0-.49-1.38-1.77-1.38s-79.96.74-79.96.74"/>
            <path id="Path_11604" data-name="Path 11604" class="cls-10" d="m13.65,82.93h-3.2s-2.17-.03-2.49,1.4c-.32,1.43-.03,2.32.58,2.82s3.2.92,3.2.92l10.75-.2,67.77-.75,2.11-.02s1.72.27,2.22-1.26.08-2.43-.39-2.9-1.08-.78-2.39-.76-78.16.76-78.16.76"/>
            <path id="Path_11605" data-name="Path 11605" class="cls-10" d="m12.93,97.33h-3.24s-2.19-.02-2.52,1-.03,1.66.58,2.02c.61.36,3.24.66,3.24.66l10.87-.15,68.54-.54,2.13-.02s1.74.19,2.25-.9.08-1.74-.39-2.07-1.09-.56-2.42-.54-79.04.54-79.04.54"/>
            <path id="Path_11606" data-name="Path 11606" class="cls-10" d="m10.91,75.66h-3.44s-2.32-.03-2.67,1.4c-.34,1.43-.03,2.32.62,2.82s3.44.92,3.44.92l11.54-.2,72.71-.75,2.26-.02s1.85.27,2.38-1.26.08-2.43-.42-2.9-1.16-.78-2.57-.76-83.86.76-83.86.76"/>
            <path id="Path_11607" data-name="Path 11607" class="cls-10" d="m2.61,46.69c-.97.86-1.38,2.19-1.06,3.44.52,2.18.64,2.67,1.13,3.37s.99,1.54,1.62,1.88,1,.78,1.91.39c.76-.32,1.47-.77,2.08-1.33.54-.49,1.07-.98,1.65-1.1s1.03-.32,2.17.34c0,0,1.19,1.14,1.79,1.48s1.01.64,1.93.62,2.04-.73,2.76-2.21,1.08-2.48,1.44-2.76.47-.62,1.05.12.88,1.86.88,1.86c0,0,.5,1.15,1.34,1.49.83.34,1.68.69,2.73.51s1.46.1,2.54-1.76c0,0,.2-1.51.39-1.97s.27-.91.7-1.01.76-.17,1.4.3.66,1.57.66,1.57c0,0,.43,2.06,1.06,2.63s1.25,1.11,2.67.87,2.6-1.58,2.6-1.58c.25-.45.45-.93.58-1.42.17-.73-.1-1.49.43-1.74s.88-.32,1.32-.19,1.07,1.67,1.53,2.28,1.59,2.33,2.57,2.5c0,0,.88.57,1.64-.04.74-.56,1.35-1.27,1.79-2.08.41-.81.81-1.71.81-1.71,0,0,.29-1.18,1.03-1.16s1.05.7,1.31,1.18,1.08,1.86,1.67,2.32,1.35.98,1.97.97,1.39.13,2.52-.96c.65-.72,1.21-1.52,1.65-2.38l.58-.88s.48-.83,1.09.1,1.12,1.8,1.12,1.8c0,0,1.14,1.67,1.45,1.96s.96.96,1.82.9,1.98-.89,2.5-1.44,1.76-2.02,1.76-2.02l.44-.51s.58-.68,1.02,0,1.11,2.14,1.58,2.63,1.07,1.03,1.56,1.12,1.33.37,2.48-.63c.66-.56,1.19-1.25,1.54-2.04,0,0,.62-1.68,1.14-1.96s1.24-.59,1.79-.04.63,2.12.63,2.12c0,0,.52,1.93,1.75,2.31,0,0,1.32.68,2.67-.06s2.06-2.63,2.06-2.63l.82-1.87s.67-1.29,1.39-.47c.72.81,1.4,2.84,1.4,2.84,0,0,.93,2.63,2.68,2.31,1.44-.27,2.7-1.11,3.51-2.33.36-.6.56-1.28.58-1.99l.08-1.67s-.04-1.26-.75-1.44-2.43-.12-2.43-.12l-14.3-.08-15.65-.19-21.2-.14-23.85-.09-17.48-.21Z"/>
          </g>
        </g>
      </g>
      <g id="Group_353" data-name="Group 353">
        <g class="cls-16">
          <g id="Group_352" data-name="Group 352">
            <path id="Path_11515" data-name="Path 11515" class="cls-3" d="m52.46,56.05s-.1,1.82-.6,2.39-.71,1.37-.42,1.67c.28.28.58.55.89.8,0,0,.05.47-.64,1.13-.69.65-1.35,1.11-1.82,1.12s-1.27-.24-1.32-.39c-.15-.53-.24-1.07-.29-1.61-.02-.59.57-.89.57-.89.08-.32.11-.66.09-.99-.05-.39-.54-.97-.76-1.56s-.68-1.52-.27-2.25,1.93-2,2.11-2.16.49.7.93,1,1.49.94,1.5,1.34"/>
            <path id="Path_11516" data-name="Path 11516" class="cls-4" d="m43.43,66.02s-.48,4.23-.69,5.72-.69,3.39-.69,3.39l2.93-.09,1.41-8.94-2.96-.09Z"/>
            <path id="Path_11517" data-name="Path 11517" class="cls-4" d="m55.96,68.85s-.13,5.26-.26,5.82l-.13.56h-1.81s-.46-6.65-.46-6.65l1.95-.29.72.57Z"/>
            <path id="Path_11518" data-name="Path 11518" class="cls-13" d="m55.62,63.8s.96,1.67,1.4,2.72c.26.57.36,1.21.26,1.83l-3.43,2.04.15,4.83-9.67-.16,1.12-6.34-3.21-3.95s3.11-3.59,3.71-3.75,7.33.19,7.33.19c0,0,1.89,1.79,2.34,2.6"/>
            <path id="Path_11519" data-name="Path 11519" class="cls-12" d="m45.95,61.01l-1.04,2.58-.25,2.4-.36,1.85v5.56l-.09,1.83,3.66-.27c1.01.1,1.89.16,2.57.2,1.8.1,2.89.08,3.31.07.1,0,.18,0,.24,0l-.49-7.05-.49-1.53-.25-1.31v-3.93l-.08-.44h-1.06l-.33,2.18-.25.87v1.75h-3.19l-.86.09-.61-.09.25-3.28v-1.09l-.02-.44-.66.04"/>
            <path id="Path_11520" data-name="Path 11520" class="cls-7" d="m49.26,53.2s-.96.38-1.34,1.29-.92,3.16-.89,3.94c.02.78-.35,2.91-.28,3.14s1.09.44,1.42.19,1.41-3.72,1.41-3.72l2.42,3.25s.23.97.71,1,1.39-.2,1.38-.59-.36-2.96-.52-3.62-.54-1.71-1.38-3.01-1.45-1.87-2.04-1.89c-.3-.02-.6,0-.9.03"/>
            <path id="Path_11521" data-name="Path 11521" class="cls-4" d="m50.5,54.33c-.09-.27-.26-.51-.47-.7l-.35-.31c-.53.36-.98.81-1.33,1.35-.49.81-.72,1.45-.62,1.8s.37,1.47.61,1.81.6.88.48,1.44c-.1.38-.31.73-.58,1.01,0,0-.45.96.08,1.54s1,1.08,1.67.9,1.4-.83,1.56-1.27l.16-.44.02-.51s-.46-.42-.66-.41-.53-.42-.53-.7.78-1.37.78-1.37c0,0,.82-1.21.66-2s-.14-1.38-.81-1.75"/>
            <path id="Path_11522" data-name="Path 11522" class="cls-7" d="m51.99,55.5s-1.41-.29-1.99-1.01-.45-1.33-.45-1.33l1.48.79,1.41,1.37-.45.18Z"/>
            <path id="Path_11523" data-name="Path 11523" class="cls-7" d="m49.65,53.71s-.63,1.52-1.28,1.71-.34-.68-.34-.68l1.04-1.2.93-.22-.35.39Z"/>
          </g>
        </g>
      </g>
      <g id="Group_397" data-name="Group 397">
        <g class="cls-19">
          <g id="Group_395" data-name="Group 395">
            <path id="Path_11637" data-name="Path 11637" class="cls-10" d="m22.02,12.53s-1.65.45-1.95-.96-.46-2.45,0-3,.81-1.01,1.63-1.06,4.43-.19,4.43-.19l6.49-.19,6.36-.09h9.08s9.03.09,9.03.09l4.3-.07,6.53-.1,8.77-.18,2.58-.07s1.52-.18,2.25.59c.73.78.4,2.95.4,2.95,0,0,.48,1.33-1.37,1.55s-4.48.04-4.48.04l-6.93.06-4.69.04-5.79.05-5,.05-13.89.15-10.8.08-3.72.14-3.24.14Z"/>
          </g>
        </g>
      </g>
      <g id="Group_524" data-name="Group 524">
        <g class="cls-18">
          <g id="Group_523" data-name="Group 523">
            <path id="Path_12495" data-name="Path 12495" class="cls-6" d="m12.64,75.14h-.01s-.02-.01-.03-.02c-.11-.02-.21-.04-.31-.08-.02-.01-.04-.02-.07-.02,0,0,0-.01-.01-.01h-.03c-.08-.05-.17-.06-.25-.1h0l-.19-.09h-.02s-.22-.11-.22-.11h-.03c-.06-.05-.12-.09-.19-.11,0-.01-.02-.01-.03-.01-.04-.05-.11-.06-.16-.1h0l-.36-.22h0c-.1-.08-.22-.15-.33-.22h0c-.04-.05-.1-.07-.15-.11-.1-.08-.19-.15-.29-.23h0s0,0,0,0c-.06-.08-.13-.15-.21-.22h0l-.22-.3h0s0-.03,0-.03h0l-.22-.35h0c-.03-.07-.07-.13-.11-.19h0c-.02-.08-.06-.15-.1-.22h0c-.03-.1-.07-.19-.11-.29v-.03s0-.01-.01-.01h0c-.04-.12-.06-.24-.11-.36v-.07c-.02-.12-.04-.24-.05-.36,0-.17.01-.35.04-.52l.02-.08s.01-.04.01-.06l.02-.04s.05-.1.06-.15v-.02c.06-.05.07-.13.12-.18l.02-.03.07-.09h.01s.07-.07.1-.11h.01c.05-.03.06-.08.1-.11,0,0,0,0,.01,0,.05-.02.09-.06.11-.11h0s.01,0,.01-.01v-.03s.02,0,.01-.01h0c.03-.08.06-.16.08-.24l.02-.06c.05-.12.08-.25.09-.39v-.02s.01-.04.01-.06c0-.01,0-.03,0-.04,0,0,0,0,0-.01,0-.04,0-.07,0-.11,0-.04-.02-.08-.05-.11-.03-.02-.04-.07-.01-.1,0,0,0,0,0,0,.1.02.2.04.31.04.08,0,.1.02.08.1-.06.09-.11.19-.15.29-.07.26-.13.52-.16.78-.01.06,0,.12.05.15.02.02.03.04.04.06.03.07.06.14.07.22,0,.1,0,.2,0,.29,0,.35.02.71.07,1.06.04.26.11.52.22.76.09.2.22.39.37.55.14.15.29.3.45.43.17.13.34.25.52.36.21.13.43.24.66.32.42.14.85.24,1.29.29.28.02.56.02.85,0,.26-.02.51-.04.77-.07.15-.02.31-.05.45-.1.09-.03.18-.08.27-.12.07-.03.13-.07.19-.11.07-.03.14-.04.22-.03.09.03.16.07.17.17,0,.04,0,.07,0,.11,0,.01-.02.02-.01.04l-.02.05c-.09.11-.19.2-.3.29h-.01c-.06.05-.12.09-.17.13-.12.09-.25.16-.39.23-.14.07-.3.12-.44.18,0,0,0,0-.01,0l-.3.08s-.05.01-.08.01c-.01,0-.02,0-.03.01,0,0,0,0-.01,0-.02,0-.04,0-.06,0-.23.04-.46.07-.69.08h-.33c-.09,0-.17-.01-.26-.02-.07,0-.13-.02-.19-.02-.1-.02-.2-.03-.3-.03-.03-.03-.07-.01-.11-.02-.02-.02-.05-.01-.07-.01"/>
            <path id="Path_12496" data-name="Path 12496" class="cls-5" d="m9.93,70.22c-.01-.08-.04-.15-.07-.22,0-.02-.02-.04-.04-.06-.04-.04-.07-.1-.05-.15.03-.27.08-.53.16-.78.03-.1.08-.2.15-.29.09.04.2.03.29-.01.02,0,.04-.03.05-.05h0s0,.06-.01.1c0,0,0,0,0,0-.1.1-.18.22-.22.35v.04c-.06.11-.09.23-.1.36v.04s-.01.02-.01.03v.05s-.01.04-.01.06v.11s-.01.04,0,.06c0,.02,0,.04.01.05,0,.03,0,.05.02.08.07.08.14.16.2.25h0c.08.19.15.38.2.58h0v.08c.04.09.07.18.11.26,0,.02.01.05.03.07.02.06.05.12.09.18h0s.01.03.01.03c0,.01,0,.02.01.03.02.05.06.1.09.14,0,.02.01.03.03.04.05.08.09.17.18.22l.03.03s.05.07.08.1l.03.03.1.08.04.03c.26.23.54.45.84.64h.01c.13.1.28.16.43.22,0,.01.02.01.03,0,.1.05.2.06.3.1l.1.03.33.08h.08s0,.01,0,.01h0s.03,0,.03,0c0,.01.02.01.03,0h.03s.07.02.1.03c.13.04.26.06.39.06.03.01.06.02.1.01h0s0,0,0,0c.03.03.07.01.11.01.06,0,.13.02.19.02.25.02.49.02.74-.01.02,0,.04,0,.05,0,.01,0,.03,0,.04,0,.02,0,.05,0,.07,0,.14.01.29.04.43.09h.04c.08.04.16.07.24.1.1.03.19.08.28.13-.09.04-.11.1-.06.2-.07-.01-.15,0-.22.03-.01-.02-.03-.01-.04,0-.24.01-.47.07-.7.1-.22.04-.45.06-.68.07-.33,0-.65.01-.98,0-.24-.01-.48-.04-.71-.09-.24-.04-.48-.11-.71-.2-.14-.06-.28-.11-.42-.18-.06-.04-.11-.07-.17-.1-.07-.03-.14-.07-.2-.11-.15-.12-.3-.23-.44-.36-.19-.17-.35-.37-.48-.59-.13-.25-.23-.51-.29-.79-.08-.33-.13-.67-.2-1.01-.02-.12-.05-.24-.09-.36"/>
            <path id="Path_12497" data-name="Path 12497" class="cls-15" d="m10.4,68.64s-.02.05-.05.05c-.09.05-.19.05-.29.01.02-.08,0-.09-.08-.1-.1,0-.21-.01-.31-.04l.04-.08s.02-.01.02-.03c.02-.02.04-.04.06-.05.05-.02.09,0,.14-.01.11-.03.24-.01.33.06v.02s.11.14.11.14h0v.03"/>
            <path id="Path_12498" data-name="Path 12498" class="cls-15" d="m16.26,73.84c-.05-.09-.03-.16.06-.2h.03c.05,0,.07.06.1.09l.07.18v.11s-.03.07-.07.1c0-.04,0-.07,0-.11-.02-.1-.09-.14-.17-.17"/>
            <path id="Path_12499" data-name="Path 12499" class="cls-6" d="m12.64,75.14s.05-.01.07.01c-.02,0-.05,0-.07-.01"/>
            <path id="Path_12500" data-name="Path 12500" class="cls-9" d="m10.49,70.84v-.03s.01.02,0,.03"/>
            <path id="Path_12501" data-name="Path 12501" class="cls-9" d="m14.67,75.15s.02-.01.03-.01c0,0-.02.01-.03.01"/>
            <path id="Path_12502" data-name="Path 12502" class="cls-9" d="m13.49,73.2s-.02,0-.03,0h.03"/>
            <path id="Path_12503" data-name="Path 12503" class="cls-9" d="m13.43,73.19h0s0,0,0,0c0,0,0,0,.01,0"/>
            <path id="Path_12504" data-name="Path 12504" class="cls-9" d="m9.52,69.77s0,.01-.01.01h.01"/>
            <path id="Path_12505" data-name="Path 12505" class="cls-9" d="m9.54,69.73s0,.01-.01.01h.01"/>
            <path id="Path_12506" data-name="Path 12506" class="cls-9" d="m9.51,73.18s.01,0,0,.01h0"/>
            <path id="Path_12507" data-name="Path 12507" class="cls-9" d="m10.72,71.41v-.02s0,.02,0,.02"/>
            <path id="Path_12508" data-name="Path 12508" class="cls-9" d="m14.12,73.3h0s0,0,0,0c0,0,0,0,.01,0"/>
            <path id="Path_12509" data-name="Path 12509" class="cls-9" d="m8.97,72.08s.01,0,0,.01h0"/>
            <path id="Path_12510" data-name="Path 12510" class="cls-9" d="m12.2,75.02s.01,0,.01.01h-.01"/>
            <path id="Path_12511" data-name="Path 12511" class="cls-11" d="m9.93,70.22c.04.12.07.24.09.36.07.34.12.67.2,1.01.06.28.16.54.29.79.13.22.29.42.48.59.14.13.29.25.44.36.06.05.13.09.2.11.06.03.12.07.17.1.14.07.28.12.42.18.23.09.47.16.71.2.24.05.47.08.71.09.33.02.65.01.98,0,.23-.01.45-.04.68-.07.23-.03.46-.08.7-.1.02,0,.03,0,.04,0-.06.05-.12.08-.19.11-.09.04-.18.08-.27.12-.15.05-.3.08-.45.1-.26.03-.51.05-.77.07-.28.03-.56.03-.85,0-.44-.05-.87-.15-1.29-.29-.23-.08-.46-.18-.66-.32-.18-.11-.36-.23-.52-.36-.16-.13-.31-.28-.45-.43-.15-.16-.28-.35-.37-.55-.11-.24-.18-.5-.22-.76-.05-.35-.07-.71-.07-1.06,0-.1,0-.2,0-.29"/>
            <path id="Path_12512" data-name="Path 12512" class="cls-8" d="m10.39,68.74s.03,0,.02.02-.02,0-.02,0c0,0,0,0,0,0"/>
          </g>
        </g>
      </g>
      <g id="Group_527" data-name="Group 527">
        <g class="cls-17">
          <g id="Group_523-2" data-name="Group 523-2">
            <path id="Path_12495-2" data-name="Path 12495-2" class="cls-6" d="m31.65,75.14h-.01s-.02-.01-.03-.02c-.11-.02-.21-.04-.31-.08-.02-.01-.04-.02-.07-.02,0,0,0-.01-.01-.01h-.03c-.08-.05-.17-.06-.25-.1h0l-.19-.09h-.02s-.22-.11-.22-.11h-.03c-.06-.05-.12-.09-.19-.11,0-.01-.02-.01-.03-.01-.04-.05-.11-.06-.16-.1h0l-.36-.22h0c-.1-.08-.22-.15-.33-.22h0c-.04-.05-.1-.07-.15-.11-.1-.08-.19-.15-.29-.23h0s0,0,0,0c-.06-.08-.13-.15-.21-.22h0l-.22-.3h0s0-.03,0-.03h0l-.22-.35h0c-.03-.07-.07-.13-.11-.19h0c-.02-.08-.06-.15-.1-.22h0c-.03-.1-.07-.19-.11-.29v-.03s0-.01-.01-.01h0c-.04-.12-.06-.24-.11-.36v-.07c-.02-.12-.04-.24-.05-.36,0-.17.01-.35.04-.52l.02-.08s.01-.04.01-.06l.02-.04s.05-.1.06-.15v-.02c.06-.05.07-.13.12-.18l.02-.03.07-.09h.01s.07-.07.1-.11h.01c.05-.03.06-.08.1-.11,0,0,0,0,.01,0,.05-.02.09-.06.11-.11h0s.01,0,.01-.01v-.03s.02,0,.01-.01h0c.03-.08.06-.16.08-.24l.02-.06c.05-.12.08-.25.09-.39v-.02s.01-.04.01-.06c0-.01,0-.03,0-.04,0,0,0,0,0-.01,0-.04,0-.07,0-.11,0-.04-.02-.08-.05-.11-.03-.02-.04-.07-.01-.1,0,0,0,0,0,0,.1.02.2.04.31.04.08,0,.1.02.08.1-.06.09-.11.19-.15.29-.07.26-.13.52-.16.78-.01.06,0,.12.05.15.02.02.03.04.04.06.03.07.06.14.07.22,0,.1,0,.2,0,.29,0,.35.02.71.07,1.06.04.26.11.52.22.76.09.2.22.39.37.55.14.15.29.3.45.43.17.13.34.25.52.36.21.13.43.24.66.32.42.14.85.24,1.29.29.28.02.56.02.85,0,.26-.02.51-.04.77-.07.15-.02.31-.05.45-.1.09-.03.18-.08.27-.12.07-.03.13-.07.19-.11.07-.03.14-.04.22-.03.09.03.16.07.17.17,0,.04,0,.07,0,.11,0,.01-.02.02-.01.04l-.02.05c-.09.11-.19.2-.3.29h-.01c-.06.05-.12.09-.17.13-.12.09-.25.16-.39.23-.14.07-.3.12-.44.18,0,0,0,0-.01,0l-.3.08s-.05.01-.08.01c-.01,0-.02,0-.03.01,0,0,0,0-.01,0-.02,0-.04,0-.06,0-.23.04-.46.07-.69.08h-.33c-.09,0-.17-.01-.26-.02-.07,0-.13-.02-.19-.02-.1-.02-.2-.03-.3-.03-.03-.03-.07-.01-.11-.02-.02-.02-.05-.01-.07-.01"/>
            <path id="Path_12496-2" data-name="Path 12496-2" class="cls-5" d="m28.93,70.22c-.01-.08-.04-.15-.07-.22,0-.02-.02-.04-.04-.06-.04-.04-.07-.1-.05-.15.03-.27.08-.53.16-.78.03-.1.08-.2.15-.29.09.04.2.03.29-.01.02,0,.04-.03.05-.05h0s0,.06-.01.1c0,0,0,0,0,0-.1.1-.18.22-.22.35v.04c-.06.11-.09.23-.1.36v.04s-.01.02-.01.03v.05s-.01.04-.01.06v.11s-.01.04,0,.06c0,.02,0,.04.01.05,0,.03,0,.05.02.08.07.08.14.16.2.25h0c.08.19.15.38.2.58h0v.08c.04.09.07.18.11.26,0,.02.01.05.03.07.02.06.05.12.09.18h0s.01.03.01.03c0,.01,0,.02.01.03.02.05.06.1.09.14,0,.02.01.03.03.04.05.08.09.17.18.22l.03.03s.05.07.08.1l.03.03.1.08.04.03c.26.23.54.45.84.64h.01c.13.1.28.16.43.22,0,.01.02.01.03,0,.1.05.2.06.3.1l.1.03.33.08h.08s0,.01,0,.01h0s.03,0,.03,0c0,.01.02.01.03,0h.03s.07.02.1.03c.13.04.26.06.39.06.03.01.06.02.1.01h0s0,0,0,0c.03.03.07.01.11.01.06,0,.13.02.19.02.25.02.49.02.74-.01.02,0,.04,0,.05,0,.01,0,.03,0,.04,0,.02,0,.05,0,.07,0,.14.01.29.04.43.09h.04c.08.04.16.07.24.1.1.03.19.08.28.13-.09.04-.11.1-.06.2-.07-.01-.15,0-.22.03-.01-.02-.03-.01-.04,0-.24.01-.47.07-.7.1-.22.04-.45.06-.68.07-.33,0-.65.01-.98,0-.24-.01-.48-.04-.71-.09-.24-.04-.48-.11-.71-.2-.14-.06-.28-.11-.42-.18-.06-.04-.11-.07-.17-.1-.07-.03-.14-.07-.2-.11-.15-.12-.3-.23-.44-.36-.19-.17-.35-.37-.48-.59-.13-.25-.23-.51-.29-.79-.08-.33-.13-.67-.2-1.01-.02-.12-.05-.24-.09-.36"/>
            <path id="Path_12497-2" data-name="Path 12497-2" class="cls-15" d="m29.4,68.64s-.02.05-.05.05c-.09.05-.19.05-.29.01.02-.08,0-.09-.08-.1-.1,0-.21-.01-.31-.04l.04-.08s.02-.01.02-.03c.02-.02.04-.04.06-.05.05-.02.09,0,.14-.01.11-.03.24-.01.33.06v.02s.11.14.11.14h0v.03"/>
            <path id="Path_12498-2" data-name="Path 12498-2" class="cls-15" d="m35.27,73.84c-.05-.09-.03-.16.06-.2h.03c.05,0,.07.06.1.09l.07.18v.11s-.03.07-.07.1c0-.04,0-.07,0-.11-.02-.1-.09-.14-.17-.17"/>
            <path id="Path_12499-2" data-name="Path 12499-2" class="cls-6" d="m31.65,75.14s.05-.01.07.01c-.02,0-.05,0-.07-.01"/>
            <path id="Path_12500-2" data-name="Path 12500-2" class="cls-9" d="m29.5,70.84v-.03s.01.02,0,.03"/>
            <path id="Path_12501-2" data-name="Path 12501-2" class="cls-9" d="m33.67,75.15s.02-.01.03-.01c0,0-.02.01-.03.01"/>
            <path id="Path_12502-2" data-name="Path 12502-2" class="cls-9" d="m32.5,73.2s-.02,0-.03,0h.03"/>
            <path id="Path_12503-2" data-name="Path 12503-2" class="cls-9" d="m32.44,73.19h0s0,0,0,0c0,0,0,0,.01,0"/>
            <path id="Path_12504-2" data-name="Path 12504-2" class="cls-9" d="m28.53,69.77s0,.01-.01.01h.01"/>
            <path id="Path_12505-2" data-name="Path 12505-2" class="cls-9" d="m28.55,69.73s0,.01-.01.01h.01"/>
            <path id="Path_12506-2" data-name="Path 12506-2" class="cls-9" d="m28.52,73.18s.01,0,0,.01h0"/>
            <path id="Path_12507-2" data-name="Path 12507-2" class="cls-9" d="m29.73,71.41v-.02s0,.02,0,.02"/>
            <path id="Path_12508-2" data-name="Path 12508-2" class="cls-9" d="m33.13,73.3h0s0,0,0,0c0,0,0,0,.01,0"/>
            <path id="Path_12509-2" data-name="Path 12509-2" class="cls-9" d="m27.97,72.08s.01,0,0,.01h0"/>
            <path id="Path_12510-2" data-name="Path 12510-2" class="cls-9" d="m31.21,75.02s.01,0,.01.01h-.01"/>
            <path id="Path_12511-2" data-name="Path 12511-2" class="cls-11" d="m28.93,70.22c.04.12.07.24.09.36.07.34.12.67.2,1.01.06.28.16.54.29.79.13.22.29.42.48.59.14.13.29.25.44.36.06.05.13.09.2.11.06.03.12.07.17.1.14.07.28.12.42.18.23.09.47.16.71.2.24.05.47.08.71.09.33.02.65.01.98,0,.23-.01.45-.04.68-.07.23-.03.46-.08.7-.1.02,0,.03,0,.04,0-.06.05-.12.08-.19.11-.09.04-.18.08-.27.12-.15.05-.3.08-.45.1-.26.03-.51.05-.77.07-.28.03-.56.03-.85,0-.44-.05-.87-.15-1.29-.29-.23-.08-.46-.18-.66-.32-.18-.11-.36-.23-.52-.36-.16-.13-.31-.28-.45-.43-.15-.16-.28-.35-.37-.55-.11-.24-.18-.5-.22-.76-.05-.35-.07-.71-.07-1.06,0-.1,0-.2,0-.29"/>
            <path id="Path_12512-2" data-name="Path 12512-2" class="cls-8" d="m29.4,68.74s.03,0,.02.02-.02,0-.02,0c0,0,0,0,0,0"/>
          </g>
        </g>
      </g>
      <g id="Group_528" data-name="Group 528">
        <g class="cls-23">
          <g id="Group_523-3" data-name="Group 523-3">
            <path id="Path_12495-3" data-name="Path 12495-3" class="cls-6" d="m25.08,75.14h-.01s-.02-.01-.03-.02c-.11-.02-.21-.04-.31-.08-.02-.01-.04-.02-.07-.02,0,0,0-.01-.01-.01h-.03c-.08-.05-.17-.06-.25-.1h0l-.19-.09h-.02s-.22-.11-.22-.11h-.03c-.06-.05-.12-.09-.19-.11,0-.01-.02-.01-.03-.01-.04-.05-.11-.06-.16-.1h0l-.36-.22h0c-.1-.08-.22-.15-.33-.22h0c-.04-.05-.1-.07-.15-.11-.1-.08-.19-.15-.29-.23h0s0,0,0,0c-.06-.08-.13-.15-.21-.22h0l-.22-.3h0s0-.03,0-.03h0l-.22-.35h0c-.03-.07-.07-.13-.11-.19h0c-.02-.08-.06-.15-.1-.22h0c-.03-.1-.07-.19-.11-.29v-.03s0-.01-.01-.01h0c-.04-.12-.06-.24-.11-.36v-.07c-.02-.12-.04-.24-.05-.36,0-.17.01-.35.04-.52l.02-.08s.01-.04.01-.06l.02-.04s.05-.1.06-.15v-.02c.06-.05.07-.13.12-.18l.02-.03.07-.09h.01s.07-.07.1-.11h.01c.05-.03.06-.08.1-.11,0,0,0,0,.01,0,.05-.02.09-.06.11-.11h0s.01,0,.01-.01v-.03s.02,0,.01-.01h0c.03-.08.06-.16.08-.24l.02-.06c.05-.12.08-.25.09-.39v-.02s.01-.04.01-.06c0-.01,0-.03,0-.04,0,0,0,0,0-.01,0-.04,0-.07,0-.11,0-.04-.02-.08-.05-.11-.03-.02-.04-.07-.01-.1,0,0,0,0,0,0,.1.02.2.04.31.04.08,0,.1.02.08.1-.06.09-.11.19-.15.29-.07.26-.13.52-.16.78-.01.06,0,.12.05.15.02.02.03.04.04.06.03.07.06.14.07.22,0,.1,0,.2,0,.29,0,.35.02.71.07,1.06.04.26.11.52.22.76.09.2.22.39.37.55.14.15.29.3.45.43.17.13.34.25.52.36.21.13.43.24.66.32.42.14.85.24,1.29.29.28.02.56.02.85,0,.26-.02.51-.04.77-.07.15-.02.31-.05.45-.1.09-.03.18-.08.27-.12.07-.03.13-.07.19-.11.07-.03.14-.04.22-.03.09.03.16.07.17.17,0,.04,0,.07,0,.11,0,.01-.02.02-.01.04l-.02.05c-.09.11-.19.2-.3.29h-.01c-.06.05-.12.09-.17.13-.12.09-.25.16-.39.23-.14.07-.3.12-.44.18,0,0,0,0-.01,0l-.3.08s-.05.01-.08.01c-.01,0-.02,0-.03.01,0,0,0,0-.01,0-.02,0-.04,0-.06,0-.23.04-.46.07-.69.08h-.33c-.09,0-.17-.01-.26-.02-.07,0-.13-.02-.19-.02-.1-.02-.2-.03-.3-.03-.03-.03-.07-.01-.11-.02-.02-.02-.05-.01-.07-.01"/>
            <path id="Path_12496-3" data-name="Path 12496-3" class="cls-5" d="m22.37,70.22c-.01-.08-.04-.15-.07-.22,0-.02-.02-.04-.04-.06-.04-.04-.07-.1-.05-.15.03-.27.08-.53.16-.78.03-.1.08-.2.15-.29.09.04.2.03.29-.01.02,0,.04-.03.05-.05h0s0,.06-.01.1c0,0,0,0,0,0-.1.1-.18.22-.22.35v.04c-.06.11-.09.23-.1.36v.04s-.01.02-.01.03v.05s-.01.04-.01.06v.11s-.01.04,0,.06c0,.02,0,.04.01.05,0,.03,0,.05.02.08.07.08.14.16.2.25h0c.08.19.15.38.2.58h0v.08c.04.09.07.18.11.26,0,.02.01.05.03.07.02.06.05.12.09.18h0s.01.03.01.03c0,.01,0,.02.01.03.02.05.06.1.09.14,0,.02.01.03.03.04.05.08.09.17.18.22l.03.03s.05.07.08.1l.03.03.1.08.04.03c.26.23.54.45.84.64h.01c.13.1.28.16.43.22,0,.01.02.01.03,0,.1.05.2.06.3.1l.1.03.33.08h.08s0,.01,0,.01h0s.03,0,.03,0c0,.01.02.01.03,0h.03s.07.02.1.03c.13.04.26.06.39.06.03.01.06.02.1.01h0s0,0,0,0c.03.03.07.01.11.01.06,0,.13.02.19.02.25.02.49.02.74-.01.02,0,.04,0,.05,0,.01,0,.03,0,.04,0,.02,0,.05,0,.07,0,.14.01.29.04.43.09h.04c.08.04.16.07.24.1.1.03.19.08.28.13-.09.04-.11.1-.06.2-.07-.01-.15,0-.22.03-.01-.02-.03-.01-.04,0-.24.01-.47.07-.7.1-.22.04-.45.06-.68.07-.33,0-.65.01-.98,0-.24-.01-.48-.04-.71-.09-.24-.04-.48-.11-.71-.2-.14-.06-.28-.11-.42-.18-.06-.04-.11-.07-.17-.1-.07-.03-.14-.07-.2-.11-.15-.12-.3-.23-.44-.36-.19-.17-.35-.37-.48-.59-.13-.25-.23-.51-.29-.79-.08-.33-.13-.67-.2-1.01-.02-.12-.05-.24-.09-.36"/>
            <path id="Path_12497-3" data-name="Path 12497-3" class="cls-15" d="m22.84,68.64s-.02.05-.05.05c-.09.05-.19.05-.29.01.02-.08,0-.09-.08-.1-.1,0-.21-.01-.31-.04l.04-.08s.02-.01.02-.03c.02-.02.04-.04.06-.05.05-.02.09,0,.14-.01.11-.03.24-.01.33.06v.02s.11.14.11.14h0v.03"/>
            <path id="Path_12498-3" data-name="Path 12498-3" class="cls-15" d="m28.7,73.84c-.05-.09-.03-.16.06-.2h.03c.05,0,.07.06.1.09l.07.18v.11s-.03.07-.07.1c0-.04,0-.07,0-.11-.02-.1-.09-.14-.17-.17"/>
            <path id="Path_12499-3" data-name="Path 12499-3" class="cls-6" d="m25.08,75.14s.05-.01.07.01c-.02,0-.05,0-.07-.01"/>
            <path id="Path_12500-3" data-name="Path 12500-3" class="cls-9" d="m22.93,70.84v-.03s.01.02,0,.03"/>
            <path id="Path_12501-3" data-name="Path 12501-3" class="cls-9" d="m27.11,75.15s.02-.01.03-.01c0,0-.02.01-.03.01"/>
            <path id="Path_12502-3" data-name="Path 12502-3" class="cls-9" d="m25.93,73.2s-.02,0-.03,0h.03"/>
            <path id="Path_12503-3" data-name="Path 12503-3" class="cls-9" d="m25.88,73.19h0s0,0,0,0c0,0,0,0,.01,0"/>
            <path id="Path_12504-3" data-name="Path 12504-3" class="cls-9" d="m21.97,69.77s0,.01-.01.01h.01"/>
            <path id="Path_12505-3" data-name="Path 12505-3" class="cls-9" d="m21.98,69.73s0,.01-.01.01h.01"/>
            <path id="Path_12506-3" data-name="Path 12506-3" class="cls-9" d="m21.96,73.18s.01,0,0,.01h0"/>
            <path id="Path_12507-3" data-name="Path 12507-3" class="cls-9" d="m23.16,71.41v-.02s0,.02,0,.02"/>
            <path id="Path_12508-3" data-name="Path 12508-3" class="cls-9" d="m26.56,73.3h0s0,0,0,0c0,0,0,0,.01,0"/>
            <path id="Path_12509-3" data-name="Path 12509-3" class="cls-9" d="m21.41,72.08s.01,0,0,.01h0"/>
            <path id="Path_12510-3" data-name="Path 12510-3" class="cls-9" d="m24.64,75.02s.01,0,.01.01h-.01"/>
            <path id="Path_12511-3" data-name="Path 12511-3" class="cls-11" d="m22.37,70.22c.04.12.07.24.09.36.07.34.12.67.2,1.01.06.28.16.54.29.79.13.22.29.42.48.59.14.13.29.25.44.36.06.05.13.09.2.11.06.03.12.07.17.1.14.07.28.12.42.18.23.09.47.16.71.2.24.05.47.08.71.09.33.02.65.01.98,0,.23-.01.45-.04.68-.07.23-.03.46-.08.7-.1.02,0,.03,0,.04,0-.06.05-.12.08-.19.11-.09.04-.18.08-.27.12-.15.05-.3.08-.45.1-.26.03-.51.05-.77.07-.28.03-.56.03-.85,0-.44-.05-.87-.15-1.29-.29-.23-.08-.46-.18-.66-.32-.18-.11-.36-.23-.52-.36-.16-.13-.31-.28-.45-.43-.15-.16-.28-.35-.37-.55-.11-.24-.18-.5-.22-.76-.05-.35-.07-.71-.07-1.06,0-.1,0-.2,0-.29"/>
            <path id="Path_12512-3" data-name="Path 12512-3" class="cls-8" d="m22.84,68.74s.03,0,.02.02-.02,0-.02,0c0,0,0,0,0,0"/>
          </g>
        </g>
      </g>
      <g id="Group_529" data-name="Group 529">
        <g class="cls-22">
          <g id="Group_523-4" data-name="Group 523-4">
            <path id="Path_12495-4" data-name="Path 12495-4" class="cls-6" d="m19.01,75.14h-.01s-.02-.01-.03-.02c-.11-.02-.21-.04-.31-.08-.02-.01-.04-.02-.07-.02,0,0,0-.01-.01-.01h-.03c-.08-.05-.17-.06-.25-.1h0l-.19-.09h-.02s-.22-.11-.22-.11h-.03c-.06-.05-.12-.09-.19-.11,0-.01-.02-.01-.03-.01-.04-.05-.11-.06-.16-.1h0l-.36-.22h0c-.1-.08-.22-.15-.33-.22h0c-.04-.05-.1-.07-.15-.11-.1-.08-.19-.15-.29-.23h0s0,0,0,0c-.06-.08-.13-.15-.21-.22h0l-.22-.3h0s0-.03,0-.03h0l-.22-.35h0c-.03-.07-.07-.13-.11-.19h0c-.02-.08-.06-.15-.1-.22h0c-.03-.1-.07-.19-.11-.29v-.03s0-.01-.01-.01h0c-.04-.12-.06-.24-.11-.36v-.07c-.02-.12-.04-.24-.05-.36,0-.17.01-.35.04-.52l.02-.08s.01-.04.01-.06l.02-.04s.05-.1.06-.15v-.02c.06-.05.07-.13.12-.18l.02-.03.07-.09h.01s.07-.07.1-.11h.01c.05-.03.06-.08.1-.11,0,0,0,0,.01,0,.05-.02.09-.06.11-.11h0s.01,0,.01-.01v-.03s.02,0,.01-.01h0c.03-.08.06-.16.08-.24l.02-.06c.05-.12.08-.25.09-.39v-.02s.01-.04.01-.06c0-.01,0-.03,0-.04,0,0,0,0,0-.01,0-.04,0-.07,0-.11,0-.04-.02-.08-.05-.11-.03-.02-.04-.07-.01-.1,0,0,0,0,0,0,.1.02.2.04.31.04.08,0,.1.02.08.1-.06.09-.11.19-.15.29-.07.26-.13.52-.16.78-.01.06,0,.12.05.15.02.02.03.04.04.06.03.07.06.14.07.22,0,.1,0,.2,0,.29,0,.35.02.71.07,1.06.04.26.11.52.22.76.09.2.22.39.37.55.14.15.29.3.45.43.17.13.34.25.52.36.21.13.43.24.66.32.42.14.85.24,1.29.29.28.02.56.02.85,0,.26-.02.51-.04.77-.07.15-.02.31-.05.45-.1.09-.03.18-.08.27-.12.07-.03.13-.07.19-.11.07-.03.14-.04.22-.03.09.03.16.07.17.17,0,.04,0,.07,0,.11,0,.01-.02.02-.01.04l-.02.05c-.09.11-.19.2-.3.29h-.01c-.06.05-.12.09-.17.13-.12.09-.25.16-.39.23-.14.07-.3.12-.44.18,0,0,0,0-.01,0l-.3.08s-.05.01-.08.01c-.01,0-.02,0-.03.01,0,0,0,0-.01,0-.02,0-.04,0-.06,0-.23.04-.46.07-.69.08h-.33c-.09,0-.17-.01-.26-.02-.07,0-.13-.02-.19-.02-.1-.02-.2-.03-.3-.03-.03-.03-.07-.01-.11-.02-.02-.02-.05-.01-.07-.01"/>
            <path id="Path_12496-4" data-name="Path 12496-4" class="cls-5" d="m16.29,70.22c-.01-.08-.04-.15-.07-.22,0-.02-.02-.04-.04-.06-.04-.04-.07-.1-.05-.15.03-.27.08-.53.16-.78.03-.1.08-.2.15-.29.09.04.2.03.29-.01.02,0,.04-.03.05-.05h0s0,.06-.01.1c0,0,0,0,0,0-.1.1-.18.22-.22.35v.04c-.06.11-.09.23-.1.36v.04s-.01.02-.01.03v.05s-.01.04-.01.06v.11s-.01.04,0,.06c0,.02,0,.04.01.05,0,.03,0,.05.02.08.07.08.14.16.2.25h0c.08.19.15.38.2.58h0v.08c.04.09.07.18.11.26,0,.02.01.05.03.07.02.06.05.12.09.18h0s.01.03.01.03c0,.01,0,.02.01.03.02.05.06.1.09.14,0,.02.01.03.03.04.05.08.09.17.18.22l.03.03s.05.07.08.1l.03.03.1.08.04.03c.26.23.54.45.84.64h.01c.13.1.28.16.43.22,0,.01.02.01.03,0,.1.05.2.06.3.1l.1.03.33.08h.08s0,.01,0,.01h0s.03,0,.03,0c0,.01.02.01.03,0h.03s.07.02.1.03c.13.04.26.06.39.06.03.01.06.02.1.01h0s0,0,0,0c.03.03.07.01.11.01.06,0,.13.02.19.02.25.02.49.02.74-.01.02,0,.04,0,.05,0,.01,0,.03,0,.04,0,.02,0,.05,0,.07,0,.14.01.29.04.43.09h.04c.08.04.16.07.24.1.1.03.19.08.28.13-.09.04-.11.1-.06.2-.07-.01-.15,0-.22.03-.01-.02-.03-.01-.04,0-.24.01-.47.07-.7.1-.22.04-.45.06-.68.07-.33,0-.65.01-.98,0-.24-.01-.48-.04-.71-.09-.24-.04-.48-.11-.71-.2-.14-.06-.28-.11-.42-.18-.06-.04-.11-.07-.17-.1-.07-.03-.14-.07-.2-.11-.15-.12-.3-.23-.44-.36-.19-.17-.35-.37-.48-.59-.13-.25-.23-.51-.29-.79-.08-.33-.13-.67-.2-1.01-.02-.12-.05-.24-.09-.36"/>
            <path id="Path_12497-4" data-name="Path 12497-4" class="cls-15" d="m16.76,68.64s-.02.05-.05.05c-.09.05-.19.05-.29.01.02-.08,0-.09-.08-.1-.1,0-.21-.01-.31-.04l.04-.08s.02-.01.02-.03c.02-.02.04-.04.06-.05.05-.02.09,0,.14-.01.11-.03.24-.01.33.06v.02s.11.14.11.14h0v.03"/>
            <path id="Path_12498-4" data-name="Path 12498-4" class="cls-15" d="m22.62,73.84c-.05-.09-.03-.16.06-.2h.03c.05,0,.07.06.1.09l.07.18v.11s-.03.07-.07.1c0-.04,0-.07,0-.11-.02-.1-.09-.14-.17-.17"/>
            <path id="Path_12499-4" data-name="Path 12499-4" class="cls-6" d="m19.01,75.14s.05-.01.07.01c-.02,0-.05,0-.07-.01"/>
            <path id="Path_12500-4" data-name="Path 12500-4" class="cls-9" d="m16.86,70.84v-.03s.01.02,0,.03"/>
            <path id="Path_12501-4" data-name="Path 12501-4" class="cls-9" d="m21.03,75.15s.02-.01.03-.01c0,0-.02.01-.03.01"/>
            <path id="Path_12502-4" data-name="Path 12502-4" class="cls-9" d="m19.85,73.2s-.02,0-.03,0h.03"/>
            <path id="Path_12503-4" data-name="Path 12503-4" class="cls-9" d="m19.8,73.19h0s0,0,0,0c0,0,0,0,.01,0"/>
            <path id="Path_12504-4" data-name="Path 12504-4" class="cls-9" d="m15.89,69.77s0,.01-.01.01h.01"/>
            <path id="Path_12505-4" data-name="Path 12505-4" class="cls-9" d="m15.91,69.73s0,.01-.01.01h.01"/>
            <path id="Path_12506-4" data-name="Path 12506-4" class="cls-9" d="m15.88,73.18s.01,0,0,.01h0"/>
            <path id="Path_12507-4" data-name="Path 12507-4" class="cls-9" d="m17.09,71.41v-.02s0,.02,0,.02"/>
            <path id="Path_12508-4" data-name="Path 12508-4" class="cls-9" d="m20.49,73.3h0s0,0,0,0c0,0,0,0,.01,0"/>
            <path id="Path_12509-4" data-name="Path 12509-4" class="cls-9" d="m15.33,72.08s.01,0,0,.01h0"/>
            <path id="Path_12510-4" data-name="Path 12510-4" class="cls-9" d="m18.57,75.02s.01,0,.01.01h-.01"/>
            <path id="Path_12511-4" data-name="Path 12511-4" class="cls-11" d="m16.29,70.22c.04.12.07.24.09.36.07.34.12.67.2,1.01.06.28.16.54.29.79.13.22.29.42.48.59.14.13.29.25.44.36.06.05.13.09.2.11.06.03.12.07.17.1.14.07.28.12.42.18.23.09.47.16.71.2.24.05.47.08.71.09.33.02.65.01.98,0,.23-.01.45-.04.68-.07.23-.03.46-.08.7-.1.02,0,.03,0,.04,0-.06.05-.12.08-.19.11-.09.04-.18.08-.27.12-.15.05-.3.08-.45.1-.26.03-.51.05-.77.07-.28.03-.56.03-.85,0-.44-.05-.87-.15-1.29-.29-.23-.08-.46-.18-.66-.32-.18-.11-.36-.23-.52-.36-.16-.13-.31-.28-.45-.43-.15-.16-.28-.35-.37-.55-.11-.24-.18-.5-.22-.76-.05-.35-.07-.71-.07-1.06,0-.1,0-.2,0-.29"/>
            <path id="Path_12512-4" data-name="Path 12512-4" class="cls-8" d="m16.76,68.74s.03,0,.02.02-.02,0-.02,0c0,0,0,0,0,0"/>
          </g>
        </g>
      </g>
      <g id="Group_536" data-name="Group 536">
        <g class="cls-20">
          <g id="Group_523-5" data-name="Group 523-5">
            <path id="Path_12495-5" data-name="Path 12495-5" class="cls-6" d="m66.25,75.14h.01s.02-.01.03-.02c.11-.02.21-.04.31-.08.02-.01.04-.02.07-.02,0,0,0-.01.01-.01h.03c.08-.05.17-.06.25-.1h0l.19-.09h.02s.22-.11.22-.11h.03c.06-.05.12-.09.19-.11,0-.01.02-.01.03-.01.04-.05.11-.06.16-.1h0l.36-.22h0c.1-.08.22-.15.33-.22h0c.04-.05.1-.07.15-.11.1-.08.19-.15.29-.23h0s0,0,0,0c.06-.08.13-.15.21-.22h0l.22-.3h0s0-.03,0-.03h0l.22-.36h0c.03-.07.07-.13.11-.19h0c.02-.08.06-.15.1-.22h0c.03-.1.07-.19.11-.29v-.03s0-.01.01-.01h0c.04-.12.06-.25.11-.36v-.07c.02-.12.04-.24.05-.36,0-.17-.01-.35-.04-.52l-.02-.08s-.01-.04-.01-.06l-.02-.04s-.05-.1-.06-.15v-.02c-.06-.05-.07-.13-.12-.18l-.02-.03-.07-.09h-.01s-.07-.07-.1-.11h-.01c-.05-.03-.06-.08-.1-.11,0,0,0,0-.01,0-.05-.02-.09-.06-.11-.11h0s-.01,0-.01-.01v-.03s-.02,0-.01-.01h0c-.03-.08-.06-.16-.08-.24l-.02-.06c-.05-.12-.08-.25-.09-.39v-.02s-.01-.04-.01-.06v-.04s0,0,0-.01v-.11s.02-.08.05-.11c.03-.02.04-.07.01-.1,0,0,0,0,0,0-.1.02-.2.04-.31.04-.08,0-.1.02-.08.1.06.09.11.19.15.29.07.26.13.52.16.78.01.06,0,.12-.05.15-.02.02-.03.04-.04.06-.03.07-.06.14-.07.22,0,.1,0,.2,0,.29,0,.35-.02.71-.07,1.06-.04.26-.11.52-.22.76-.09.2-.22.39-.37.55-.14.15-.29.3-.45.43-.17.13-.34.25-.52.36-.21.13-.43.24-.66.32-.42.14-.85.24-1.29.29-.28.02-.56.02-.85,0-.26-.02-.51-.04-.77-.07-.15-.02-.31-.05-.45-.1-.09-.03-.18-.08-.27-.12-.07-.03-.13-.07-.19-.11-.07-.03-.14-.04-.22-.03-.09.03-.16.07-.17.17,0,.04,0,.07,0,.11,0,.01.02.02.01.04l.02.05c.09.11.19.21.3.29h.01c.06.05.12.09.17.13.12.09.25.16.39.23.14.07.3.12.44.18,0,0,0,0,.01,0l.3.08s.05.01.08.01c.01,0,.02,0,.03.01,0,0,0,0,.01,0,.02,0,.04,0,.06,0,.23.04.46.07.69.08h.33c.09,0,.17-.01.26-.02.07,0,.13-.02.19-.02.1-.02.2-.03.3-.03.03-.03.07-.01.11-.02.02-.02.05-.01.07-.01"/>
            <path id="Path_12496-5" data-name="Path 12496-5" class="cls-5" d="m68.96,70.22c.01-.08.04-.15.07-.22,0-.02.02-.04.04-.06.04-.04.07-.1.05-.15-.03-.27-.08-.53-.16-.78-.03-.1-.08-.2-.15-.29-.09.04-.2.03-.29-.01-.02,0-.04-.03-.05-.05h0s0,.06.01.1c0,0,0,0,0,0,.1.1.18.22.22.35v.04c.06.11.09.23.1.36v.04s.01.02.01.03v.05s.01.04.01.06v.11s.01.04,0,.06c0,.02,0,.04-.01.05,0,.03,0,.05-.02.08-.07.08-.14.16-.2.25h0c-.08.19-.15.38-.2.58h0v.08c-.04.09-.07.18-.11.26,0,.02-.01.05-.03.07-.02.06-.05.12-.09.18h0s-.01.03-.01.03c0,.01,0,.02-.01.03-.02.05-.06.1-.09.14,0,.02-.01.03-.03.04-.05.08-.09.17-.18.22l-.03.03s-.05.07-.08.1l-.03.03-.1.08-.04.03c-.26.23-.54.45-.84.64h-.01c-.13.1-.28.16-.43.22,0,.01-.02.01-.03,0-.1.05-.2.06-.3.1l-.1.03-.33.08h-.08s0,.01,0,.01h0s-.03,0-.03,0c0,.01-.02.01-.03,0h-.03s-.07.02-.1.03c-.13.04-.26.06-.39.06-.03.01-.06.02-.1.01h0s0,0,0,0c-.03.03-.07.01-.11.01-.06,0-.13.02-.19.02-.25.02-.49.02-.74-.01-.02,0-.04,0-.05,0-.01,0-.03,0-.04,0-.02,0-.05,0-.07,0-.14.01-.29.04-.43.09h-.04c-.08.04-.16.06-.24.1-.1.03-.19.08-.28.13.09.04.11.1.06.2.07-.01.15,0,.22.03.01-.02.03-.01.04,0,.24.01.47.07.7.1.22.04.45.06.68.07.33,0,.65.01.98,0,.24-.01.48-.04.71-.09.24-.04.48-.11.71-.2.14-.06.28-.11.42-.18.06-.04.11-.07.17-.1.07-.03.14-.07.2-.11.15-.12.3-.23.44-.36.19-.17.35-.37.48-.59.13-.25.23-.51.29-.79.08-.33.13-.67.2-1.01.02-.12.05-.24.09-.36"/>
            <path id="Path_12497-5" data-name="Path 12497-5" class="cls-15" d="m68.49,68.64s.02.05.05.05c.09.05.19.05.29.01-.02-.08,0-.09.08-.1.1,0,.21-.01.31-.04l-.04-.08s-.02-.01-.02-.03c-.02-.02-.04-.04-.06-.05-.05-.02-.09,0-.14-.01-.11-.03-.24-.01-.33.06h-.01s-.09.15-.09.15h0v.03"/>
            <path id="Path_12498-5" data-name="Path 12498-5" class="cls-15" d="m62.63,73.84c.05-.09.03-.16-.06-.2h-.03c-.05,0-.07.06-.1.09l-.07.18v.11s.03.07.07.1c0-.04,0-.07,0-.11.02-.1.09-.14.17-.17"/>
            <path id="Path_12499-5" data-name="Path 12499-5" class="cls-6" d="m66.25,75.14s-.05-.01-.07.01c.02,0,.05,0,.07-.01"/>
            <path id="Path_12500-5" data-name="Path 12500-5" class="cls-9" d="m68.4,70.84s0-.02,0-.03c-.01,0-.01.02,0,.03"/>
            <path id="Path_12501-5" data-name="Path 12501-5" class="cls-9" d="m64.22,75.15s-.02-.01-.03-.01c0,0,.02.01.03.01"/>
            <path id="Path_12502-5" data-name="Path 12502-5" class="cls-9" d="m65.4,73.2s.02,0,.03,0h-.03"/>
            <path id="Path_12503-5" data-name="Path 12503-5" class="cls-9" d="m65.45,73.19h0s0,0,0,0c0,0,0,0-.01,0"/>
            <path id="Path_12504-5" data-name="Path 12504-5" class="cls-9" d="m69.36,69.77s0,.01.01.01h-.01"/>
            <path id="Path_12505-5" data-name="Path 12505-5" class="cls-9" d="m69.35,69.73s0,.01.01.01h-.01"/>
            <path id="Path_12506-5" data-name="Path 12506-5" class="cls-9" d="m69.38,73.18s-.01,0,0,.01h0"/>
            <path id="Path_12507-5" data-name="Path 12507-5" class="cls-9" d="m68.17,71.41v-.02s0,.02,0,.02"/>
            <path id="Path_12508-5" data-name="Path 12508-5" class="cls-9" d="m64.77,73.3h0s0,0,0,0c0,0,0,0-.01,0"/>
            <path id="Path_12509-5" data-name="Path 12509-5" class="cls-9" d="m69.92,72.08s-.01,0,0,.01h0"/>
            <path id="Path_12510-5" data-name="Path 12510-5" class="cls-9" d="m66.69,75.02s-.01,0-.01.01h.01"/>
            <path id="Path_12511-5" data-name="Path 12511-5" class="cls-11" d="m68.96,70.22c-.04.12-.07.24-.09.36-.07.34-.12.67-.2,1.01-.06.28-.16.54-.29.79-.13.22-.29.42-.48.59-.14.13-.29.25-.44.36-.06.05-.13.09-.2.11-.06.03-.12.07-.17.1-.14.07-.28.12-.42.18-.23.09-.47.16-.71.2-.24.05-.47.08-.71.09-.33.02-.65.01-.98,0-.23-.01-.45-.04-.68-.07-.23-.03-.46-.08-.7-.1-.02,0-.03,0-.04,0,.06.05.12.08.19.11.09.04.18.08.27.12.15.05.3.08.45.1.26.03.51.05.77.07.28.03.56.03.85,0,.44-.05.87-.15,1.29-.29.23-.08.46-.18.66-.32.18-.11.36-.23.52-.36.16-.13.31-.28.45-.43.15-.16.28-.35.37-.55.11-.24.18-.5.22-.76.05-.35.07-.71.07-1.06,0-.1,0-.2,0-.29"/>
            <path id="Path_12512-5" data-name="Path 12512-5" class="cls-8" d="m68.5,68.74s-.03,0-.02.02.02,0,.02,0c0,0,0,0,0,0"/>
          </g>
        </g>
      </g>
      <g id="Group_537" data-name="Group 537">
        <g class="cls-21">
          <g id="Group_523-6" data-name="Group 523-6">
            <path id="Path_12495-6" data-name="Path 12495-6" class="cls-6" d="m85.49,75.14h.01s.02-.01.03-.02c.11-.02.21-.04.31-.08.02-.01.04-.02.07-.02,0,0,0-.01.01-.01h.03c.08-.05.17-.06.25-.1h0l.19-.09h.02s.22-.11.22-.11h.03c.06-.05.12-.09.19-.11,0-.01.02-.01.03-.01.04-.05.11-.06.16-.1h0l.36-.22h0c.1-.08.22-.15.33-.22h0c.04-.05.1-.07.15-.11.1-.08.19-.15.29-.23h0s0,0,0,0c.06-.08.13-.15.21-.22h0l.22-.3h0s0-.03,0-.03h0l.22-.36h0c.03-.07.07-.13.11-.19h0c.02-.08.06-.15.1-.22h0c.03-.1.07-.19.11-.29v-.03s0-.01.01-.01h0c.04-.12.06-.25.11-.36v-.07c.02-.12.04-.24.05-.36,0-.17-.01-.35-.04-.52l-.02-.08s-.01-.04-.01-.06l-.02-.04s-.05-.1-.06-.15v-.02c-.06-.05-.07-.13-.12-.18l-.02-.03-.07-.09h-.01s-.07-.07-.1-.11h-.01c-.05-.03-.06-.08-.1-.11,0,0,0,0-.01,0-.05-.02-.09-.06-.11-.11h0s-.01,0-.01-.01v-.03s-.02,0-.01-.01h0c-.03-.08-.06-.16-.08-.24l-.02-.06c-.05-.12-.08-.25-.09-.39v-.02s-.01-.04-.01-.06v-.04s0,0,0-.01v-.11s.02-.08.05-.11c.03-.02.04-.07.01-.1,0,0,0,0,0,0-.1.02-.2.04-.31.04-.08,0-.1.02-.08.1.06.09.11.19.15.29.07.26.13.52.16.78.01.06,0,.12-.05.15-.02.02-.03.04-.04.06-.03.07-.06.14-.07.22,0,.1,0,.2,0,.29,0,.35-.02.71-.07,1.06-.04.26-.11.52-.22.76-.09.2-.22.39-.37.55-.14.15-.29.3-.45.43-.17.13-.34.25-.52.36-.21.13-.43.24-.66.32-.42.14-.85.24-1.29.29-.28.02-.56.02-.85,0-.26-.02-.51-.04-.77-.07-.15-.02-.31-.05-.45-.1-.09-.03-.18-.08-.27-.12-.07-.03-.13-.07-.19-.11-.07-.03-.14-.04-.22-.03-.09.03-.16.07-.17.17,0,.04,0,.07,0,.11,0,.01.02.02.01.04l.02.05c.09.11.19.21.3.29h.01c.06.05.12.09.17.13.12.09.25.16.39.23.14.07.3.12.44.18,0,0,0,0,.01,0l.3.08s.05.01.08.01c.01,0,.02,0,.03.01,0,0,0,0,.01,0,.02,0,.04,0,.06,0,.23.04.46.07.69.08h.33c.09,0,.17-.01.26-.02.07,0,.13-.02.19-.02.1-.02.2-.03.3-.03.03-.03.07-.01.11-.02.02-.02.05-.01.07-.01"/>
            <path id="Path_12496-6" data-name="Path 12496-6" class="cls-5" d="m88.2,70.22c.01-.08.04-.15.07-.22,0-.02.02-.04.04-.06.04-.04.07-.1.05-.15-.03-.27-.08-.53-.16-.78-.03-.1-.08-.2-.15-.29-.09.04-.2.03-.29-.01-.02,0-.04-.03-.05-.05h0s0,.06.01.1c0,0,0,0,0,0,.1.1.18.22.22.35v.04c.06.11.09.23.1.36v.04s.01.02.01.03v.05s.01.04.01.06v.11s.01.04,0,.06c0,.02,0,.04-.01.05,0,.03,0,.05-.02.08-.07.08-.14.16-.2.25h0c-.08.19-.15.38-.2.58h0v.08c-.04.09-.07.18-.11.26,0,.02-.01.05-.03.07-.02.06-.05.12-.09.18h0s-.01.03-.01.03c0,.01,0,.02-.01.03-.02.05-.06.1-.09.14,0,.02-.01.03-.03.04-.05.08-.09.17-.18.22l-.03.03s-.05.07-.08.1l-.03.03-.1.08-.04.03c-.26.23-.54.45-.84.64h-.01c-.13.1-.28.16-.43.22,0,.01-.02.01-.03,0-.1.05-.2.06-.3.1l-.1.03-.33.08h-.08s0,.01,0,.01h0s-.03,0-.03,0c0,.01-.02.01-.03,0h-.03s-.07.02-.1.03c-.13.04-.26.06-.39.06-.03.01-.06.02-.1.01h0s0,0,0,0c-.03.03-.07.01-.11.01-.06,0-.13.02-.19.02-.25.02-.49.02-.74-.01-.02,0-.04,0-.05,0-.01,0-.03,0-.04,0-.02,0-.05,0-.07,0-.14.01-.29.04-.43.09h-.04c-.08.04-.16.06-.24.1-.1.03-.19.08-.28.13.09.04.11.1.06.2.07-.01.15,0,.22.03.01-.02.03-.01.04,0,.24.01.47.07.7.1.22.04.45.06.68.07.33,0,.65.01.98,0,.24-.01.48-.04.71-.09.24-.04.48-.11.71-.2.14-.06.28-.11.42-.18.06-.04.11-.07.17-.1.07-.03.14-.07.2-.11.15-.12.3-.23.44-.36.19-.17.35-.37.48-.59.13-.25.23-.51.29-.79.08-.33.13-.67.2-1.01.02-.12.05-.24.09-.36"/>
            <path id="Path_12497-6" data-name="Path 12497-6" class="cls-15" d="m87.73,68.64s.02.05.05.05c.09.05.19.05.29.01-.02-.08,0-.09.08-.1.1,0,.21-.01.31-.04l-.04-.08s-.02-.01-.02-.03c-.02-.02-.04-.04-.06-.05-.05-.02-.09,0-.14-.01-.11-.03-.24-.01-.33.06h-.01s-.09.15-.09.15h0v.03"/>
            <path id="Path_12498-6" data-name="Path 12498-6" class="cls-15" d="m81.87,73.84c.05-.09.03-.16-.06-.2h-.03c-.05,0-.07.06-.1.09l-.07.18v.11s.03.07.07.1c0-.04,0-.07,0-.11.02-.1.09-.14.17-.17"/>
            <path id="Path_12499-6" data-name="Path 12499-6" class="cls-6" d="m85.49,75.14s-.05-.01-.07.01c.02,0,.05,0,.07-.01"/>
            <path id="Path_12500-6" data-name="Path 12500-6" class="cls-9" d="m87.64,70.84s0-.02,0-.03c-.01,0-.01.02,0,.03"/>
            <path id="Path_12501-6" data-name="Path 12501-6" class="cls-9" d="m83.46,75.15s-.02-.01-.03-.01c0,0,.02.01.03.01"/>
            <path id="Path_12502-6" data-name="Path 12502-6" class="cls-9" d="m84.64,73.2s.02,0,.03,0h-.03"/>
            <path id="Path_12503-6" data-name="Path 12503-6" class="cls-9" d="m84.69,73.19h0s0,0,0,0c0,0,0,0-.01,0"/>
            <path id="Path_12504-6" data-name="Path 12504-6" class="cls-9" d="m88.6,69.77s0,.01.01.01h-.01"/>
            <path id="Path_12505-6" data-name="Path 12505-6" class="cls-9" d="m88.59,69.73s0,.01.01.01h-.01"/>
            <path id="Path_12506-6" data-name="Path 12506-6" class="cls-9" d="m88.62,73.18s-.01,0,0,.01h0"/>
            <path id="Path_12507-6" data-name="Path 12507-6" class="cls-9" d="m87.41,71.41v-.02s0,.02,0,.02"/>
            <path id="Path_12508-6" data-name="Path 12508-6" class="cls-9" d="m84.01,73.3h0s0,0,0,0c0,0,0,0-.01,0"/>
            <path id="Path_12509-6" data-name="Path 12509-6" class="cls-9" d="m89.16,72.08s-.01,0,0,.01h0"/>
            <path id="Path_12510-6" data-name="Path 12510-6" class="cls-9" d="m85.93,75.02s-.01,0-.01.01h.01"/>
            <path id="Path_12511-6" data-name="Path 12511-6" class="cls-11" d="m88.2,70.22c-.04.12-.07.24-.09.36-.07.34-.12.67-.2,1.01-.06.28-.16.54-.29.79-.13.22-.29.42-.48.59-.14.13-.29.25-.44.36-.06.05-.13.09-.2.11-.06.03-.12.07-.17.1-.14.07-.28.12-.42.18-.23.09-.47.16-.71.2-.24.05-.47.08-.71.09-.33.02-.65.01-.98,0-.23-.01-.45-.04-.68-.07-.23-.03-.46-.08-.7-.1-.02,0-.03,0-.04,0,.06.05.12.08.19.11.09.04.18.08.27.12.15.05.3.08.45.1.26.03.51.05.77.07.28.03.56.03.85,0,.44-.05.87-.15,1.29-.29.23-.08.46-.18.66-.32.18-.11.36-.23.52-.36.16-.13.31-.28.45-.43.15-.16.28-.35.37-.55.11-.24.18-.5.22-.76.05-.35.07-.71.07-1.06,0-.1,0-.2,0-.29"/>
            <path id="Path_12512-6" data-name="Path 12512-6" class="cls-8" d="m87.74,68.74s-.03,0-.02.02.02,0,.02,0c0,0,0,0,0,0"/>
          </g>
        </g>
      </g>
      <g id="Group_538" data-name="Group 538">
        <g class="cls-24">
          <g id="Group_523-7" data-name="Group 523-7">
            <path id="Path_12495-7" data-name="Path 12495-7" class="cls-6" d="m79.01,75.14h.01s.02-.01.03-.02c.11-.02.21-.04.31-.08.02-.01.04-.02.07-.02,0,0,0-.01.01-.01h.03c.08-.05.17-.06.25-.1h0l.19-.09h.02s.22-.11.22-.11h.03c.06-.05.12-.09.19-.11,0-.01.02-.01.03-.01.04-.05.11-.06.16-.1h0l.36-.22h0c.1-.08.22-.15.33-.22h0c.04-.05.1-.07.15-.11.1-.08.19-.15.29-.23h0s0,0,0,0c.06-.08.13-.15.21-.22h0l.22-.3h0s0-.03,0-.03h0l.22-.36h0c.03-.07.07-.13.11-.19h0c.02-.08.06-.15.1-.22h0c.03-.1.07-.19.11-.29v-.03s0-.01.01-.01h0c.04-.12.06-.25.11-.36v-.07c.02-.12.04-.24.05-.36,0-.17-.01-.35-.04-.52l-.02-.08s-.01-.04-.01-.06l-.02-.04s-.05-.1-.06-.15v-.02c-.06-.05-.07-.13-.12-.18l-.02-.03-.07-.09h-.01s-.07-.07-.1-.11h-.01c-.05-.03-.06-.08-.1-.11,0,0,0,0-.01,0-.05-.02-.09-.06-.11-.11h0s-.01,0-.01-.01v-.03s-.02,0-.01-.01h0c-.03-.08-.06-.16-.08-.24l-.02-.06c-.05-.12-.08-.25-.09-.39v-.02s-.01-.04-.01-.06v-.04s0,0,0-.01v-.11s.02-.08.05-.11c.03-.02.04-.07.01-.1,0,0,0,0,0,0-.1.02-.2.04-.31.04-.08,0-.1.02-.08.1.06.09.11.19.15.29.07.26.13.52.16.78.01.06,0,.12-.05.15-.02.02-.03.04-.04.06-.03.07-.06.14-.07.22,0,.1,0,.2,0,.29,0,.35-.02.71-.07,1.06-.04.26-.11.52-.22.76-.09.2-.22.39-.37.55-.14.15-.29.3-.45.43-.17.13-.34.25-.52.36-.21.13-.43.24-.66.32-.42.14-.85.24-1.29.29-.28.02-.56.02-.85,0-.26-.02-.51-.04-.77-.07-.15-.02-.31-.05-.45-.1-.09-.03-.18-.08-.27-.12-.07-.03-.13-.07-.19-.11-.07-.03-.14-.04-.22-.03-.09.03-.16.07-.17.17,0,.04,0,.07,0,.11,0,.01.02.02.01.04l.02.05c.09.11.19.21.3.29h.01c.06.05.12.09.17.13.12.09.25.16.39.23.14.07.3.12.44.18,0,0,0,0,.01,0l.3.08s.05.01.08.01c.01,0,.02,0,.03.01,0,0,0,0,.01,0,.02,0,.04,0,.06,0,.23.04.46.07.69.08h.33c.09,0,.17-.01.26-.02.07,0,.13-.02.19-.02.1-.02.2-.03.3-.03.03-.03.07-.01.11-.02.02-.02.05-.01.07-.01"/>
            <path id="Path_12496-7" data-name="Path 12496-7" class="cls-5" d="m81.72,70.22c.01-.08.04-.15.07-.22,0-.02.02-.04.04-.06.04-.04.07-.1.05-.15-.03-.27-.08-.53-.16-.78-.03-.1-.08-.2-.15-.29-.09.04-.2.03-.29-.01-.02,0-.04-.03-.05-.05h0s0,.06.01.1c0,0,0,0,0,0,.1.1.18.22.22.35v.04c.06.11.09.23.1.36v.04s.01.02.01.03v.05s.01.04.01.06v.11s.01.04,0,.06c0,.02,0,.04-.01.05,0,.03,0,.05-.02.08-.07.08-.14.16-.2.25h0c-.08.19-.15.38-.2.58h0v.08c-.04.09-.07.18-.11.26,0,.02-.01.05-.03.07-.02.06-.05.12-.09.18h0s-.01.03-.01.03c0,.01,0,.02-.01.03-.02.05-.06.1-.09.14,0,.02-.01.03-.03.04-.05.08-.09.17-.18.22l-.03.03s-.05.07-.08.1l-.03.03-.1.08-.04.03c-.26.23-.54.45-.84.64h-.01c-.13.1-.28.16-.43.22,0,.01-.02.01-.03,0-.1.05-.2.06-.3.1l-.1.03-.33.08h-.08s0,.01,0,.01h0s-.03,0-.03,0c0,.01-.02.01-.03,0h-.03s-.07.02-.1.03c-.13.04-.26.06-.39.06-.03.01-.06.02-.1.01h0s0,0,0,0c-.03.03-.07.01-.11.01-.06,0-.13.02-.19.02-.25.02-.49.02-.74-.01-.02,0-.04,0-.05,0-.01,0-.03,0-.04,0-.02,0-.05,0-.07,0-.14.01-.29.04-.43.09h-.04c-.08.04-.16.06-.24.1-.1.03-.19.08-.28.13.09.04.11.1.06.2.07-.01.15,0,.22.03.01-.02.03-.01.04,0,.24.01.47.07.7.1.22.04.45.06.68.07.33,0,.65.01.98,0,.24-.01.48-.04.71-.09.24-.04.48-.11.71-.2.14-.06.28-.11.42-.18.06-.04.11-.07.17-.1.07-.03.14-.07.2-.11.15-.12.3-.23.44-.36.19-.17.35-.37.48-.59.13-.25.23-.51.29-.79.08-.33.13-.67.2-1.01.02-.12.05-.24.09-.36"/>
            <path id="Path_12497-7" data-name="Path 12497-7" class="cls-15" d="m81.25,68.64s.02.05.05.05c.09.05.19.05.29.01-.02-.08,0-.09.08-.1.1,0,.21-.01.31-.04l-.04-.08s-.02-.01-.02-.03c-.02-.02-.04-.04-.06-.05-.05-.02-.09,0-.14-.01-.11-.03-.24-.01-.33.06h-.01s-.09.15-.09.15h0v.03"/>
            <path id="Path_12498-7" data-name="Path 12498-7" class="cls-15" d="m75.39,73.84c.05-.09.03-.16-.06-.2h-.03c-.05,0-.07.06-.1.09l-.07.18v.11s.03.07.07.1c0-.04,0-.07,0-.11.02-.1.09-.14.17-.17"/>
            <path id="Path_12499-7" data-name="Path 12499-7" class="cls-6" d="m79.01,75.14s-.05-.01-.07.01c.02,0,.05,0,.07-.01"/>
            <path id="Path_12500-7" data-name="Path 12500-7" class="cls-9" d="m81.16,70.84s0-.02,0-.03c-.01,0-.01.02,0,.03"/>
            <path id="Path_12501-7" data-name="Path 12501-7" class="cls-9" d="m76.98,75.15s-.02-.01-.03-.01c0,0,.02.01.03.01"/>
            <path id="Path_12502-7" data-name="Path 12502-7" class="cls-9" d="m78.16,73.2s.02,0,.03,0h-.03"/>
            <path id="Path_12503-7" data-name="Path 12503-7" class="cls-9" d="m78.21,73.19h0s0,0,0,0c0,0,0,0-.01,0"/>
            <path id="Path_12504-7" data-name="Path 12504-7" class="cls-9" d="m82.12,69.77s0,.01.01.01h-.01"/>
            <path id="Path_12505-7" data-name="Path 12505-7" class="cls-9" d="m82.11,69.73s0,.01.01.01h-.01"/>
            <path id="Path_12506-7" data-name="Path 12506-7" class="cls-9" d="m82.13,73.18s-.01,0,0,.01h0"/>
            <path id="Path_12507-7" data-name="Path 12507-7" class="cls-9" d="m80.93,71.41v-.02s0,.02,0,.02"/>
            <path id="Path_12508-7" data-name="Path 12508-7" class="cls-9" d="m77.53,73.3h0s0,0,0,0c0,0,0,0-.01,0"/>
            <path id="Path_12509-7" data-name="Path 12509-7" class="cls-9" d="m82.68,72.08s-.01,0,0,.01h0"/>
            <path id="Path_12510-7" data-name="Path 12510-7" class="cls-9" d="m79.44,75.02s-.01,0-.01.01h.01"/>
            <path id="Path_12511-7" data-name="Path 12511-7" class="cls-11" d="m81.72,70.22c-.04.12-.07.24-.09.36-.07.34-.12.67-.2,1.01-.06.28-.16.54-.29.79-.13.22-.29.42-.48.59-.14.13-.29.25-.44.36-.06.05-.13.09-.2.11-.06.03-.12.07-.17.1-.14.07-.28.12-.42.18-.23.09-.47.16-.71.2-.24.05-.47.08-.71.09-.33.02-.65.01-.98,0-.23-.01-.45-.04-.68-.07-.23-.03-.46-.08-.7-.1-.02,0-.03,0-.04,0,.06.05.12.08.19.11.09.04.18.08.27.12.15.05.3.08.45.1.26.03.51.05.77.07.28.03.56.03.85,0,.44-.05.87-.15,1.29-.29.23-.08.46-.18.66-.32.18-.11.36-.23.52-.36.16-.13.31-.28.45-.43.15-.16.28-.35.37-.55.11-.24.18-.5.22-.76.05-.35.07-.71.07-1.06,0-.1,0-.2,0-.29"/>
            <path id="Path_12512-7" data-name="Path 12512-7" class="cls-8" d="m81.25,68.74s-.03,0-.02.02.02,0,.02,0c0,0,0,0,0,0"/>
          </g>
        </g>
      </g>
      <g id="Group_539" data-name="Group 539">
        <g class="cls-25">
          <g id="Group_523-8" data-name="Group 523-8">
            <path id="Path_12495-8" data-name="Path 12495-8" class="cls-6" d="m72.73,75.14h.01s.02-.01.03-.02c.11-.02.21-.04.31-.08.02-.01.04-.02.07-.02,0,0,0-.01.01-.01h.03c.08-.05.17-.06.25-.1h0l.19-.09h.02s.22-.11.22-.11h.03c.06-.05.12-.09.19-.11,0-.01.02-.01.03-.01.04-.05.11-.06.16-.1h0l.36-.22h0c.1-.08.22-.15.33-.22h0c.04-.05.1-.07.15-.11.1-.08.19-.15.29-.23h0s0,0,0,0c.06-.08.13-.15.21-.22h0l.22-.3h0s0-.03,0-.03h0l.22-.36h0c.03-.07.07-.13.11-.19h0c.02-.08.06-.15.1-.22h0c.03-.1.07-.19.11-.29v-.03s0-.01.01-.01h0c.04-.12.06-.25.11-.36v-.07c.02-.12.04-.24.05-.36,0-.17-.01-.35-.04-.52l-.02-.08s-.01-.04-.01-.06l-.02-.04s-.05-.1-.06-.15v-.02c-.06-.05-.07-.13-.12-.18l-.02-.03-.07-.09h-.01s-.07-.07-.1-.11h-.01c-.05-.03-.06-.08-.1-.11,0,0,0,0-.01,0-.05-.02-.09-.06-.11-.11h0s-.01,0-.01-.01v-.03s-.02,0-.01-.01h0c-.03-.08-.06-.16-.08-.24l-.02-.06c-.05-.12-.08-.25-.09-.39v-.02s-.01-.04-.01-.06v-.04s0,0,0-.01v-.11s.02-.08.05-.11c.03-.02.04-.07.01-.1,0,0,0,0,0,0-.1.02-.2.04-.31.04-.08,0-.1.02-.08.1.06.09.11.19.15.29.07.26.13.52.16.78.01.06,0,.12-.05.15-.02.02-.03.04-.04.06-.03.07-.06.14-.07.22,0,.1,0,.2,0,.29,0,.35-.02.71-.07,1.06-.04.26-.11.52-.22.76-.09.2-.22.39-.37.55-.14.15-.29.3-.45.43-.17.13-.34.25-.52.36-.21.13-.43.24-.66.32-.42.14-.85.24-1.29.29-.28.02-.56.02-.85,0-.26-.02-.51-.04-.77-.07-.15-.02-.31-.05-.45-.1-.09-.03-.18-.08-.27-.12-.07-.03-.13-.07-.19-.11-.07-.03-.14-.04-.22-.03-.09.03-.16.07-.17.17,0,.04,0,.07,0,.11,0,.01.02.02.01.04l.02.05c.09.11.19.21.3.29h.01c.06.05.12.09.17.13.12.09.25.16.39.23.14.07.3.12.44.18,0,0,0,0,.01,0l.3.08s.05.01.08.01c.01,0,.02,0,.03.01,0,0,0,0,.01,0,.02,0,.04,0,.06,0,.23.04.46.07.69.08h.33c.09,0,.17-.01.26-.02.07,0,.13-.02.19-.02.1-.02.2-.03.3-.03.03-.03.07-.01.11-.02.02-.02.05-.01.07-.01"/>
            <path id="Path_12496-8" data-name="Path 12496-8" class="cls-5" d="m75.45,70.22c.01-.08.04-.15.07-.22,0-.02.02-.04.04-.06.04-.04.07-.1.05-.15-.03-.27-.08-.53-.16-.78-.03-.1-.08-.2-.15-.29-.09.04-.2.03-.29-.01-.02,0-.04-.03-.05-.05h0s0,.06.01.1c0,0,0,0,0,0,.1.1.18.22.22.35v.04c.06.11.09.23.1.36v.04s.01.02.01.03v.05s.01.04.01.06v.11s.01.04,0,.06c0,.02,0,.04-.01.05,0,.03,0,.05-.02.08-.07.08-.14.16-.2.25h0c-.08.19-.15.38-.2.58h0v.08c-.04.09-.07.18-.11.26,0,.02-.01.05-.03.07-.02.06-.05.12-.09.18h0s-.01.03-.01.03c0,.01,0,.02-.01.03-.02.05-.06.1-.09.14,0,.02-.01.03-.03.04-.05.08-.09.17-.18.22l-.03.03s-.05.07-.08.1l-.03.03-.1.08-.04.03c-.26.23-.54.45-.84.64h-.01c-.13.1-.28.16-.43.22,0,.01-.02.01-.03,0-.1.05-.2.06-.3.1l-.1.03-.33.08h-.08s0,.01,0,.01h0s-.03,0-.03,0c0,.01-.02.01-.03,0h-.03s-.07.02-.1.03c-.13.04-.26.06-.39.06-.03.01-.06.02-.1.01h0s0,0,0,0c-.03.03-.07.01-.11.01-.06,0-.13.02-.19.02-.25.02-.49.02-.74-.01-.02,0-.04,0-.05,0-.01,0-.03,0-.04,0-.02,0-.05,0-.07,0-.14.01-.29.04-.43.09h-.04c-.08.04-.16.06-.24.1-.1.03-.19.08-.28.13.09.04.11.1.06.2.07-.01.15,0,.22.03.01-.02.03-.01.04,0,.24.01.47.07.7.1.22.04.45.06.68.07.33,0,.65.01.98,0,.24-.01.48-.04.71-.09.24-.04.48-.11.71-.2.14-.06.28-.11.42-.18.06-.04.11-.07.17-.1.07-.03.14-.07.2-.11.15-.12.3-.23.44-.36.19-.17.35-.37.48-.59.13-.25.23-.51.29-.79.08-.33.13-.67.2-1.01.02-.12.05-.24.09-.36"/>
            <path id="Path_12497-8" data-name="Path 12497-8" class="cls-15" d="m74.98,68.64s.02.05.05.05c.09.05.19.05.29.01-.02-.08,0-.09.08-.1.1,0,.21-.01.31-.04l-.04-.08s-.02-.01-.02-.03c-.02-.02-.04-.04-.06-.05-.05-.02-.09,0-.14-.01-.11-.03-.24-.01-.33.06h-.01s-.09.15-.09.15h0v.03"/>
            <path id="Path_12498-8" data-name="Path 12498-8" class="cls-15" d="m69.12,73.84c.05-.09.03-.16-.06-.2h-.03c-.05,0-.07.06-.1.09l-.07.18v.11s.03.07.07.1c0-.04,0-.07,0-.11.02-.1.09-.14.17-.17"/>
            <path id="Path_12499-8" data-name="Path 12499-8" class="cls-6" d="m72.73,75.14s-.05-.01-.07.01c.02,0,.05,0,.07-.01"/>
            <path id="Path_12500-8" data-name="Path 12500-8" class="cls-9" d="m74.88,70.84s0-.02,0-.03c-.01,0-.01.02,0,.03"/>
            <path id="Path_12501-8" data-name="Path 12501-8" class="cls-9" d="m70.71,75.15s-.02-.01-.03-.01c0,0,.02.01.03.01"/>
            <path id="Path_12502-8" data-name="Path 12502-8" class="cls-9" d="m71.88,73.2s.02,0,.03,0h-.03"/>
            <path id="Path_12503-8" data-name="Path 12503-8" class="cls-9" d="m71.94,73.19h0s0,0,0,0c0,0,0,0-.01,0"/>
            <path id="Path_12504-8" data-name="Path 12504-8" class="cls-9" d="m75.85,69.77s0,.01.01.01h-.01"/>
            <path id="Path_12505-8" data-name="Path 12505-8" class="cls-9" d="m75.83,69.73s0,.01.01.01h-.01"/>
            <path id="Path_12506-8" data-name="Path 12506-8" class="cls-9" d="m75.86,73.18s-.01,0,0,.01h0"/>
            <path id="Path_12507-8" data-name="Path 12507-8" class="cls-9" d="m74.65,71.41v-.02s0,.02,0,.02"/>
            <path id="Path_12508-8" data-name="Path 12508-8" class="cls-9" d="m71.25,73.3h0s0,0,0,0c0,0,0,0-.01,0"/>
            <path id="Path_12509-8" data-name="Path 12509-8" class="cls-9" d="m76.41,72.08s-.01,0,0,.01h0"/>
            <path id="Path_12510-8" data-name="Path 12510-8" class="cls-9" d="m73.17,75.02s-.01,0-.01.01h.01"/>
            <path id="Path_12511-8" data-name="Path 12511-8" class="cls-11" d="m75.45,70.22c-.04.12-.07.24-.09.36-.07.34-.12.67-.2,1.01-.06.28-.16.54-.29.79-.13.22-.29.42-.48.59-.14.13-.29.25-.44.36-.06.05-.13.09-.2.11-.06.03-.12.07-.17.1-.14.07-.28.12-.42.18-.23.09-.47.16-.71.2-.24.05-.47.08-.71.09-.33.02-.65.01-.98,0-.23-.01-.45-.04-.68-.07-.23-.03-.46-.08-.7-.1-.02,0-.03,0-.04,0,.06.05.12.08.19.11.09.04.18.08.27.12.15.05.3.08.45.1.26.03.51.05.77.07.28.03.56.03.85,0,.44-.05.87-.15,1.29-.29.23-.08.46-.18.66-.32.18-.11.36-.23.52-.36.16-.13.31-.28.45-.43.15-.16.28-.35.37-.55.11-.24.18-.5.22-.76.05-.35.07-.71.07-1.06,0-.1,0-.2,0-.29"/>
            <path id="Path_12512-8" data-name="Path 12512-8" class="cls-8" d="m74.98,68.74s-.03,0-.02.02.02,0,.02,0c0,0,0,0,0,0"/>
          </g>
        </g>
      </g>
      <rect id="Rectangle_305" data-name="Rectangle 305" class="cls-13" x="42.54" y="-18.02" width="18.32" height="55.31" transform="translate(41.19 61.16) rotate(-89.03)"/>
      <g id="Rainforest_alliance_bananen" data-name="Rainforest alliance bananen" class="cls-26">
        <g class="cls-26">
          <path class="cls-10" d="m36.12,5.05h-.7s-.06-.02-.08-.05c-.02-.02-.03-.05-.03-.08l.05-3.19s.01-.06.03-.08c.02-.02.05-.03.08-.03l1.45.02c.18,0,.35.04.5.1s.28.15.39.26c.11.11.19.24.25.39.06.15.09.32.08.5,0,.1-.02.2-.04.3-.02.1-.06.19-.1.28-.05.09-.1.16-.16.23-.06.07-.13.13-.2.17-.02.02-.04.04-.05.07s0,.05.02.08c.12.16.24.32.37.49.13.17.24.32.34.46.02.02.02.05.01.08-.01.03-.03.04-.06.04h-.87s-.06-.02-.1-.04c-.03-.02-.06-.04-.08-.06-.1-.13-.19-.27-.29-.4-.1-.14-.19-.27-.28-.41-.02-.02-.04-.05-.08-.06-.03-.02-.07-.03-.1-.03h-.1s-.06,0-.08.03c-.02.02-.03.05-.03.08v.76s-.02.06-.05.08c-.02.02-.05.03-.08.03Zm.25-1.83h.49s.08,0,.12-.01c.04-.01.08-.03.11-.06.03-.03.06-.07.09-.11.02-.04.03-.09.04-.15,0-.03,0-.07-.02-.11,0-.04-.03-.08-.05-.12-.03-.04-.06-.07-.1-.1-.04-.03-.1-.04-.16-.04h-.49s-.06,0-.08.02c-.02.02-.03.05-.03.08v.49s0,.06.02.08c.02.02.05.03.08.03Z"/>
          <path class="cls-10" d="m39.79,1.8s.03-.05.06-.07c.03-.02.06-.03.1-.03h.65s.06.02.09.04c.03.02.05.05.06.07l1.31,3.2s0,.06,0,.09c-.02.03-.05.05-.1.04h-.8s-.07-.02-.09-.04c-.03-.02-.05-.05-.07-.07l-.12-.28s-.04-.05-.07-.07c-.03-.02-.06-.03-.09-.03l-.98-.02s-.07,0-.1.03c-.03.02-.05.04-.06.07l-.14.28s-.03.05-.06.07c-.03.02-.06.03-.09.03h-.8s-.03-.02-.05-.02c-.02,0-.03-.02-.04-.03-.01-.01-.02-.03-.02-.05,0-.02,0-.04.02-.06l1.41-3.14Zm.24,2.03h.42s.05,0,.07-.02c.01-.02.01-.04,0-.07-.03-.08-.07-.17-.11-.27-.04-.1-.08-.2-.12-.29-.01-.03-.03-.04-.04-.04-.02,0-.03.01-.04.04l-.24.56s-.01.05,0,.07c.01.02.04.03.07.03Z"/>
          <path class="cls-10" d="m43.24,5.17h-.7s-.06-.02-.08-.05c-.02-.02-.03-.05-.03-.08l.05-3.19s.01-.06.03-.08c.02-.02.05-.03.08-.03h.7s.06.02.08.05c.02.02.03.05.03.08l-.05,3.19s-.01.06-.03.08c-.02.02-.05.03-.08.03Z"/>
          <path class="cls-10" d="m47.25,1.93l-.05,3.19s-.01.06-.03.08c-.02.02-.05.03-.08.03h-.69s-.06-.02-.1-.04c-.03-.02-.06-.04-.08-.07l-1.19-1.73s-.04-.04-.06-.03c-.02,0-.03.02-.03.05l-.03,1.67s-.01.06-.03.08c-.02.02-.05.03-.08.03h-.7s-.06-.02-.08-.05c-.02-.02-.03-.05-.03-.08l.05-3.19s.01-.06.03-.08c.02-.02.05-.03.08-.03h.7s.06.02.1.04c.03.02.06.04.08.06l1.18,1.73s.04.04.06.03c.02,0,.03-.02.03-.05l.03-1.67s.01-.06.03-.08c.02-.02.05-.03.08-.03h.69s.06.02.08.05c.02.02.03.05.03.08Z"/>
          <path class="cls-10" d="m48.85,2.83v.19s0,.06.03.08c.02.02.05.03.08.03l1.26.02s.06.01.08.03c.02.02.03.05.03.08v.65s-.02.06-.04.08c-.02.02-.05.03-.08.03l-1.26-.02s-.06.01-.08.03-.03.05-.03.08l-.02,1.03s-.01.06-.03.08c-.02.02-.05.03-.08.03h-.7s-.06-.02-.08-.05c-.02-.02-.03-.05-.03-.08l.05-3.19s.01-.06.03-.08c.02-.02.05-.03.08-.03l2.37.04s.06.01.08.03.03.05.03.08v.64s-.02.06-.04.08c-.02.02-.05.03-.08.03l-1.45-.02s-.06,0-.08.03c-.02.02-.03.05-.03.08Z"/>
          <path class="cls-10" d="m50.81,3.59c0-.24.05-.47.15-.68.1-.21.23-.4.39-.56.16-.16.35-.28.57-.37.22-.09.45-.13.69-.13.24,0,.47.05.68.15.21.1.4.23.56.39.16.16.28.35.37.57.09.22.13.45.13.69s-.05.47-.15.68c-.1.21-.23.4-.39.56-.16.16-.35.28-.57.37-.22.09-.45.13-.69.13-.24,0-.47-.05-.68-.15-.21-.1-.4-.23-.55-.39-.16-.16-.28-.35-.37-.57-.09-.22-.13-.45-.13-.69Zm.92.02c0,.12.02.23.06.34.04.11.1.2.17.28.08.08.16.15.27.2.1.05.21.08.32.08.12,0,.23-.02.33-.07.1-.05.19-.11.27-.19.08-.08.14-.17.19-.28.05-.1.07-.22.07-.33,0-.12-.02-.23-.06-.33-.04-.11-.1-.2-.18-.28-.08-.08-.17-.15-.27-.2-.1-.05-.21-.08-.33-.08-.11,0-.22.02-.33.07-.1.05-.19.11-.27.19-.08.08-.14.17-.18.28-.04.11-.07.22-.07.33Z"/>
          <path class="cls-10" d="m55.61,5.38h-.7s-.06-.02-.08-.05-.03-.05-.03-.08l.05-3.19s.01-.06.03-.08c.02-.02.05-.03.08-.03l1.45.02c.18,0,.35.04.5.1.15.06.28.15.39.26.11.11.19.24.25.39.06.15.09.32.08.5,0,.1-.02.2-.04.3-.02.1-.06.19-.1.28-.05.09-.1.16-.16.23-.06.07-.13.13-.2.17-.02.02-.04.04-.05.07,0,.03,0,.05.02.08.12.16.24.32.37.49.13.17.24.32.34.46.02.03.02.05.01.08s-.03.04-.06.04h-.87s-.06-.02-.1-.04c-.03-.02-.06-.04-.08-.06-.1-.13-.19-.27-.29-.4-.1-.14-.19-.27-.28-.41-.02-.03-.04-.05-.08-.06-.03-.02-.07-.03-.1-.03h-.1s-.06,0-.08.03c-.02.02-.03.05-.03.08v.76s-.02.06-.05.08c-.02.02-.05.03-.08.03Zm.25-1.83h.49s.08,0,.12-.01c.04-.01.08-.03.11-.06.03-.03.06-.07.09-.11.02-.04.03-.09.04-.15,0-.03,0-.07-.02-.11,0-.04-.03-.08-.05-.12-.03-.04-.06-.07-.1-.1-.04-.03-.1-.04-.16-.04h-.49s-.06,0-.08.02c-.02.02-.03.05-.03.08v.49s0,.06.02.08c.02.02.05.03.08.03Z"/>
          <path class="cls-10" d="m59.11,2.99v.2s0,.06.03.08.05.03.08.03l1.26.02s.06.01.08.03c.02.02.03.05.03.08v.64s-.02.06-.05.08c-.02.02-.05.03-.08.03l-1.26-.02s-.06.01-.08.03c-.02.02-.03.05-.03.08v.18s0,.06.03.08c.02.02.05.03.08.03l1.45.02s.06.01.08.03c.02.02.03.05.03.08v.64s-.02.06-.05.08c-.02.02-.05.03-.08.03l-2.38-.04s-.06-.01-.08-.03c-.02-.02-.03-.05-.03-.08l.05-3.19s.01-.06.03-.08c.02-.02.05-.03.08-.03l2.38.04s.06.01.08.03c.02.02.03.05.03.08v.63s-.02.06-.05.08c-.02.02-.05.03-.08.03l-1.45-.02s-.06,0-.08.03c-.02.02-.03.05-.03.08Z"/>
          <path class="cls-10" d="m61.75,4.31c.17.11.33.2.49.27.16.06.32.1.46.1.14,0,.24-.02.31-.05s.11-.1.11-.17c0-.04-.01-.07-.04-.1-.03-.02-.07-.04-.12-.06-.05-.02-.11-.03-.18-.04-.07-.01-.14-.02-.21-.04-.07-.01-.15-.03-.24-.05-.09-.02-.19-.05-.28-.08-.1-.03-.19-.08-.28-.13-.1-.05-.18-.12-.25-.2-.07-.08-.13-.17-.17-.28s-.06-.24-.06-.38c0-.21.05-.39.14-.53s.19-.25.32-.33c.13-.08.28-.14.43-.17.16-.03.31-.04.46-.04.26,0,.5.05.7.13.2.08.4.19.59.34.02.02.04.05.04.08,0,.03,0,.06-.02.08l-.37.51s-.04.04-.08.05c-.03,0-.06,0-.08-.02-.16-.1-.3-.18-.44-.22-.14-.04-.26-.07-.38-.07-.03,0-.07,0-.12,0-.04,0-.09,0-.13.02-.04.01-.07.03-.1.05-.03.02-.04.06-.04.1,0,.04.03.08.09.12.06.04.14.07.22.09s.16.05.24.06c.08.02.13.02.15.03.11.02.23.06.37.1.13.04.26.11.37.19.12.08.21.19.29.33.08.13.11.3.11.5,0,.19-.04.35-.11.48-.07.13-.16.24-.28.33-.12.08-.26.15-.42.19-.16.04-.35.06-.54.05-.16,0-.31-.02-.45-.05-.14-.03-.27-.07-.39-.12-.12-.05-.23-.11-.34-.17-.1-.07-.2-.13-.28-.21-.02-.02-.04-.04-.04-.08,0-.03,0-.06.02-.09l.37-.51s.04-.04.08-.05c.03,0,.06,0,.08.02Z"/>
          <path class="cls-10" d="m66.7,3.01h-.65s-.06,0-.08.02c-.02.02-.03.05-.03.08l-.04,2.33s-.01.06-.03.08c-.02.02-.05.03-.08.03h-.7s-.06-.02-.08-.05-.03-.05-.03-.08l.04-2.33s0-.06-.03-.08c-.02-.02-.05-.03-.08-.03h-.66s-.06-.02-.08-.05c-.02-.02-.03-.05-.03-.08v-.63s.02-.06.04-.08c.02-.02.05-.03.08-.03l2.46.04s.06.01.08.03c.02.02.03.05.03.08v.63s-.02.06-.04.08c-.02.02-.05.03-.08.03Z"/>
        </g>
        <g class="cls-26">
          <path class="cls-10" d="m39.54,7.33s.03-.05.06-.07c.03-.02.06-.03.1-.03h.65s.06.02.09.04c.03.02.05.04.06.07l1.31,3.2s0,.06,0,.09c-.02.03-.05.05-.1.05h-.8s-.07-.02-.1-.05c-.03-.02-.05-.04-.07-.07l-.12-.28s-.04-.05-.07-.07c-.03-.02-.06-.03-.09-.03l-.98-.02s-.07,0-.1.03c-.03.02-.05.04-.06.07l-.14.28s-.03.05-.06.07-.06.03-.09.03h-.8s-.03-.02-.05-.02c-.02,0-.03-.02-.04-.03-.01-.01-.02-.03-.02-.05s0-.04.01-.07l1.41-3.14Zm.24,2.03h.42s.05,0,.07-.02c.01-.02.01-.04,0-.07-.03-.08-.07-.17-.11-.27-.04-.1-.08-.2-.12-.29-.01-.03-.03-.04-.04-.04s-.03.01-.04.04l-.24.56s-.01.05,0,.07c.01.02.04.03.07.03Z"/>
          <path class="cls-10" d="m44.59,9.98v.63s-.02.06-.04.08c-.02.02-.05.03-.08.03l-2.33-.04s-.06-.01-.08-.03c-.02-.02-.03-.05-.03-.08l.05-3.19s.01-.06.03-.08c.02-.02.05-.03.08-.03h.7s.06.02.08.05c.02.02.03.05.03.08l-.04,2.33s0,.06.03.08c.02.02.05.03.08.03l1.4.02s.06.01.08.03c.02.02.03.05.03.08Z"/>
          <path class="cls-10" d="m47.46,10.03v.63s-.02.06-.04.08c-.02.02-.05.03-.08.03l-2.33-.04s-.06-.01-.08-.03c-.02-.02-.03-.05-.03-.08l.05-3.19s.01-.06.03-.08c.02-.02.05-.03.08-.03h.7s.06.02.08.05c.02.02.03.05.03.08l-.04,2.33s0,.06.03.08c.02.02.05.03.08.03l1.4.02s.06.01.08.03c.02.02.03.05.03.08Z"/>
          <path class="cls-10" d="m48.62,10.79h-.7s-.06-.02-.08-.05c-.02-.02-.03-.05-.03-.08l.05-3.19s.01-.06.03-.08c.02-.02.05-.03.08-.03h.7s.06.02.08.05c.02.02.03.05.03.08l-.05,3.19s-.01.06-.03.08c-.02.02-.05.03-.08.03Z"/>
          <path class="cls-10" d="m50.42,7.51s.03-.05.06-.07c.03-.02.06-.03.1-.03h.65s.06.02.09.04c.03.02.05.05.06.07l1.31,3.2s0,.06,0,.09c-.02.03-.05.05-.1.04h-.8s-.07-.02-.1-.05c-.03-.02-.05-.05-.07-.07l-.12-.28s-.04-.05-.07-.07c-.03-.02-.06-.03-.09-.03l-.98-.02s-.07,0-.1.03c-.03.02-.05.04-.06.07l-.14.28s-.03.05-.06.07-.06.03-.09.03h-.8s-.03-.02-.05-.02c-.02,0-.03-.02-.04-.03-.01-.01-.02-.03-.02-.05s0-.04.01-.06l1.41-3.14Zm.24,2.03h.42s.05,0,.07-.02c.01-.02.01-.04,0-.07-.03-.08-.07-.17-.11-.27-.04-.1-.08-.2-.12-.29-.01-.03-.03-.04-.04-.04-.02,0-.03.01-.04.04l-.24.56s-.01.05,0,.07c.01.02.04.03.07.03Z"/>
          <path class="cls-10" d="m56.28,7.62l-.05,3.19s-.01.06-.03.08c-.02.02-.05.03-.08.03h-.69s-.06-.02-.1-.04c-.03-.02-.06-.04-.08-.07l-1.19-1.73s-.04-.04-.06-.03-.03.02-.03.05l-.03,1.67s-.01.06-.03.08c-.02.02-.05.03-.08.03h-.7s-.06-.02-.08-.05c-.02-.02-.03-.05-.03-.08l.05-3.19s.01-.06.03-.08c.02-.02.05-.03.08-.03h.7s.06.02.1.04.06.04.08.06l1.18,1.73s.04.04.06.03c.02,0,.03-.02.03-.05l.03-1.67s.01-.06.03-.08c.02-.02.05-.03.08-.03h.69s.06.02.08.05c.02.02.03.05.03.08Z"/>
          <path class="cls-10" d="m60.24,10.08c-.09.14-.19.28-.3.39-.11.12-.24.22-.37.3-.14.08-.29.14-.45.19-.16.04-.35.06-.55.06-.25,0-.48-.05-.7-.15-.22-.1-.41-.23-.57-.39-.16-.16-.29-.35-.38-.57-.09-.22-.13-.45-.13-.69,0-.24.05-.47.15-.68.1-.21.23-.4.39-.55.17-.16.36-.28.58-.37.22-.09.45-.13.7-.13.21,0,.39.03.55.08.16.05.31.12.44.2.13.09.25.19.36.31s.2.25.29.4c.02.03.02.05,0,.08-.01.03-.03.05-.06.06l-.67.25s-.06.01-.09,0c-.03-.01-.05-.03-.07-.06-.09-.14-.19-.26-.32-.33-.13-.08-.28-.12-.46-.12-.12,0-.23.02-.33.07-.11.05-.2.11-.28.19-.08.08-.14.18-.19.28-.05.11-.07.22-.07.34,0,.12.02.23.06.34.04.11.1.2.18.29.08.08.17.15.27.2.1.05.21.08.33.08.17,0,.33-.04.47-.12.14-.08.25-.19.33-.31.02-.02.04-.04.07-.06.03-.01.06-.01.09,0l.66.27s.05.03.05.06c0,.03,0,.05-.01.08Z"/>
          <path class="cls-10" d="m61.54,8.57v.2s0,.06.03.08c.02.02.05.03.08.03l1.26.02s.06.01.08.03c.02.02.03.05.03.08v.64s-.02.06-.05.08c-.02.02-.05.03-.08.03l-1.26-.02s-.06.01-.08.03-.03.05-.03.08v.18s0,.06.03.08c.02.02.05.03.08.03l1.45.02s.06.01.08.03c.02.02.03.05.03.08v.64s-.02.06-.05.08c-.02.02-.05.03-.08.03l-2.37-.04s-.06-.01-.08-.03c-.02-.02-.03-.05-.03-.08l.05-3.19s.01-.06.03-.08c.02-.02.05-.03.08-.03l2.37.04s.06.01.08.03c.02.02.03.05.03.08v.63s-.02.06-.05.08c-.02.02-.05.03-.08.03l-1.45-.02s-.06,0-.08.03c-.02.02-.03.05-.03.08Z"/>
        </g>
        <g class="cls-26">
          <path class="cls-10" d="m41.51,14.44s.1.06.15.1c.05.04.09.09.13.15s.07.13.1.21c.02.08.04.17.04.27,0,.2-.04.37-.1.5-.07.13-.15.23-.26.31-.11.08-.24.13-.38.16-.14.03-.29.04-.45.04l-1.48-.03s-.06-.01-.08-.03c-.02-.02-.03-.05-.03-.08l.05-3.19s.01-.06.03-.08c.02-.02.05-.03.08-.03l1.41.02c.15,0,.29.02.43.06.14.03.26.09.36.17s.19.18.25.3c.06.12.09.27.09.44,0,.14-.04.26-.11.36-.07.1-.15.18-.23.24-.06.04-.05.08,0,.11Zm-.82.4h-.49s-.06,0-.08.02c-.02.02-.03.05-.03.08v.27s0,.06.03.08c.02.02.05.03.08.03h.52c.06,0,.11-.01.16-.06.05-.04.08-.1.08-.16,0-.06-.02-.11-.07-.17-.05-.06-.11-.09-.19-.09Zm-.48-.78h.43c.06,0,.11-.01.15-.06.04-.05.06-.1.06-.16,0-.06-.02-.1-.07-.15-.04-.04-.09-.06-.13-.06h-.44s-.06,0-.08.02c-.02.02-.03.05-.03.08v.21s0,.06.03.08c.02.02.05.03.08.03Z"/>
          <path class="cls-10" d="m43.33,12.92s.03-.05.06-.07c.03-.02.06-.03.1-.03h.65s.06.02.09.04c.03.02.05.05.06.07l1.31,3.2s0,.06,0,.09c-.02.03-.05.05-.1.05h-.8s-.07-.02-.1-.05c-.03-.02-.05-.05-.07-.07l-.12-.28s-.04-.05-.07-.07c-.03-.02-.06-.03-.09-.03l-.98-.02s-.07,0-.1.03c-.03.02-.05.04-.06.07l-.14.28s-.03.05-.06.07c-.03.02-.06.03-.09.03h-.8s-.03-.02-.05-.02c-.02,0-.03-.02-.04-.03-.01-.01-.02-.03-.02-.05,0-.02,0-.04.02-.07l1.41-3.14Zm.24,2.03h.42s.05,0,.07-.02c.01-.02.01-.04,0-.07-.03-.08-.07-.17-.11-.27-.04-.1-.08-.2-.12-.29-.01-.03-.03-.04-.04-.04s-.03.01-.04.04l-.24.56s-.01.05,0,.07c.01.02.04.03.07.03Z"/>
          <path class="cls-10" d="m49.19,13.03l-.05,3.19s-.01.06-.03.08c-.02.02-.05.03-.08.03h-.69s-.06-.02-.1-.04c-.03-.02-.06-.04-.08-.07l-1.19-1.73s-.04-.04-.06-.03c-.02,0-.03.02-.03.05l-.03,1.67s-.01.06-.03.08c-.02.02-.05.03-.08.03h-.7s-.06-.02-.08-.05c-.02-.02-.03-.05-.03-.08l.05-3.19s.01-.06.03-.08c.02-.02.05-.03.08-.03h.7s.06.02.1.04c.03.02.06.04.08.06l1.18,1.73s.04.04.06.03c.02,0,.03-.02.03-.05l.03-1.67s.01-.06.03-.08c.02-.02.05-.03.08-.03h.69s.06.02.08.05c.02.02.03.05.03.08Z"/>
          <path class="cls-10" d="m50.9,13.05s.03-.05.06-.07c.03-.02.06-.03.1-.03h.65s.06.02.09.04c.03.02.05.05.06.07l1.31,3.2s0,.06,0,.09c-.02.03-.05.05-.1.04h-.8s-.07-.02-.1-.05c-.03-.02-.05-.05-.07-.07l-.12-.28s-.04-.05-.07-.07c-.03-.02-.06-.03-.09-.03l-.98-.02s-.07,0-.1.03c-.03.02-.05.04-.06.07l-.14.28s-.03.05-.06.07c-.03.02-.06.03-.09.03h-.8s-.03-.02-.05-.02c-.02,0-.03-.02-.04-.03-.01-.01-.02-.03-.02-.05,0-.02,0-.04.02-.06l1.41-3.14Zm.24,2.03h.42s.05,0,.07-.02c.01-.02.01-.04,0-.07-.03-.08-.07-.17-.11-.27-.04-.1-.08-.2-.12-.29-.01-.03-.03-.04-.04-.04-.02,0-.03.01-.04.04l-.24.56s-.01.05,0,.07c.01.02.04.03.07.03Z"/>
          <path class="cls-10" d="m56.76,13.16l-.05,3.19s-.01.06-.03.08c-.02.02-.05.03-.08.03h-.69s-.06-.02-.1-.04c-.03-.02-.06-.04-.08-.07l-1.19-1.73s-.04-.04-.06-.03c-.02,0-.03.02-.03.05l-.03,1.67s-.01.06-.03.08c-.02.02-.05.03-.08.03h-.7s-.06-.02-.08-.05c-.02-.02-.03-.05-.03-.08l.05-3.19s.01-.06.03-.08c.02-.02.05-.03.08-.03h.7s.06.02.1.04c.03.02.06.04.08.06l1.18,1.73s.04.04.06.03c.02,0,.03-.02.03-.05l.03-1.67s.01-.06.03-.08c.02-.02.05-.03.08-.03h.69s.06.02.08.05c.02.02.03.05.03.08Z"/>
          <path class="cls-10" d="m58.37,14.04v.2s0,.06.03.08c.02.02.05.03.08.03l1.26.02s.06.01.08.03c.02.02.03.05.03.08v.64s-.02.06-.05.08c-.02.02-.05.03-.08.03l-1.26-.02s-.06.01-.08.03c-.02.02-.03.05-.03.08v.18s0,.06.03.08.05.03.08.03l1.45.02s.06.01.08.03c.02.02.03.05.03.08v.64s-.02.06-.05.08c-.02.02-.05.03-.08.03l-2.38-.04s-.06-.01-.08-.03c-.02-.02-.03-.05-.03-.08l.05-3.19s.01-.06.03-.08c.02-.02.05-.03.08-.03l2.38.04s.06.01.08.03c.02.02.03.05.03.08v.63s-.02.06-.04.08c-.02.02-.05.03-.08.03l-1.45-.02s-.06,0-.08.03c-.02.02-.03.05-.03.08Z"/>
          <path class="cls-10" d="m63.86,13.28l-.05,3.19s-.01.06-.03.08c-.02.02-.05.03-.08.03h-.69s-.06-.02-.1-.04c-.03-.02-.06-.04-.08-.07l-1.19-1.73s-.04-.04-.06-.03c-.02,0-.03.02-.03.05l-.03,1.67s-.01.06-.03.08c-.02.02-.05.03-.08.03h-.7s-.06-.02-.08-.05c-.02-.02-.03-.05-.03-.08l.05-3.19s.01-.06.03-.08c.02-.02.05-.03.08-.03h.7s.06.02.1.04c.03.02.06.04.08.06l1.18,1.73s.04.04.06.03c.02,0,.03-.02.03-.05l.03-1.67s.01-.06.03-.08c.02-.02.05-.03.08-.03h.69s.06.02.08.05c.02.02.03.05.03.08Z"/>
        </g>
      </g>
    </g>
  </g>
</svg>