<svg id="Group_473" data-name="Group 473" xmlns="http://www.w3.org/2000/svg" xmlns:xlink="http://www.w3.org/1999/xlink" width="355.405" height="299.405" viewBox="0 0 355.405 299.405">
  <defs>
    <clipPath id="clip-path">
      <rect id="Rectangle_164" data-name="Rectangle 164" width="355.405" height="299.405" fill="none"/>
    </clipPath>
  </defs>
  <g id="Group_464" data-name="Group 464" transform="translate(0 0)" clip-path="url(#clip-path)">
    <path id="Path_11780" data-name="Path 11780" d="M338.917,101.461a2.836,2.836,0,0,0,3.236,2.216c2.946-.176,5.912,0,8.872-.052a3.512,3.512,0,0,1,3.506,2.187c.987,2.012.854,3.283-1.846,3.2-2.273-.071-4.56.157-6.823-.057-2.377-.223-3.236.963-3.634,3-1.129,5.76-1.836,11.61-2.932,17.356-2.1,10.969-3.108,22.1-5.38,33.036-1.006,4.82-5.831,8.739-11.126,8.882-3.411.09-6.823.062-10.234-.009-1.77-.038-3.2.422-3.843,2.163-.707,1.884-2.13,2.016-3.843,2-6.823-.052-13.65-.033-20.473,0-1.808.01-3.392-.052-3.872-2.334-.346-1.651-1.717-1.846-3.207-1.822-3.52.047-7.05.038-10.571,0-5.124-.057-8.991-3.013-10.874-7.724-1.627-4.071-2.012-8.365-2.387-12.6-.27-3.079-1.537-5.921-1.532-9.005,1.466-1.575-.565-2.6-.641-3.981-.446-8.758-2.358-17.294-3.99-25.882-.384-2.012-1.139-2.344-2.842-2.325-5.451.057-10.9.157-16.345-.043-2.315-.085-3.136,1.11-3.326,2.9-.413,3.9-1.2,7.7-1.978,11.539-1.148,5.665-1.191,11.558-2.918,17.166-1,6.918-1.76,13.883-3.07,20.738-1.039,5.48-6.685,9.854-11.833,9.28-2.581-.289-5.219-.009-7.843-.052-2.51-.043-4.963-.327-6.163,2.823-.512,1.343-2.216,1.328-3.634,1.324q-10.063-.043-20.126-.014c-1.419,0-3.046.047-3.549-1.428-.925-2.723-2.942-2.771-5.181-2.7-1.708.052-3.43-.147-5.119.038-10.927,1.191-15.529-4.892-16.293-15.481a60.66,60.66,0,0,0-2.614-14.637q-2.057-14.3-4.1-28.591c-.256-1.808-.935-2.889-3.013-2.861-5.67.076-11.344.09-17.019,0-2.22-.038-3.1,1.015-3.179,3.022-.228,5.39-2.164,10.547-2.429,15.87-.2,4.208-3.065,8.208-1.006,12.559-2.405,2.33-1.191,5.546-2,8.284-1.471,4.968-.9,10.329-3.136,15.225-2,4.374-5.366,6.268-9.821,6.529-3.63.209-7.278.052-10.917.052-1.547,0-3.188.2-3.663,1.865-.617,2.173-2.021,2.3-3.862,2.282-6.709-.066-13.422-.019-20.131-.028-1.333,0-2.856.332-3.487-1.381-.92-2.515-2.861-2.851-5.214-2.761-3.184.123-6.372.024-9.551.009-5.618-.024-10.984-5.172-11.629-10.7-.835-7.169-1.831-14.329-3.06-21.441-1.452-8.407-2.818-16.829-3.748-25.307-.432-3.966-1.224-4.763-5.319-4.768-1.594,0-3.184.014-4.773,0s-3.611.266-3.359-2.154a3.284,3.284,0,0,1,3.62-3.241c4.208.071,8.412-.019,12.62-.043.209,0,.427,0,.631-.019l84.951.057c.569,0,1.139-.014,1.708-.033,1.181-.033,1.68-.731,1.423-1.793-1.5-6.168-.622-12.639-2.505-18.765-1.523-4.949-2.861-9.954-4.28-14.936-.109-3.886,1.158-7.553,1.931-11.283,1.5-7.254,3.373-14.433,4.882-21.687.356-1.708,1.148-1.931,2.519-1.922,4.645.028,9.29.024,13.935.028.55,12.967,2.553,25.853,2.078,38.877a2.768,2.768,0,0,0,.028.337c.664,8.754,1.585,17.5,1.865,26.261.114,3.487,1,4.787,4.4,4.227a5.987,5.987,0,0,1,3.307.6q12.454,0,24.909.009c19.908.024,39.816-.009,59.72.142,2.908.024,3.644-.887,3.573-3.663a96.6,96.6,0,0,0-2.315-17.716c-1.03-4.849-3.848-9.162-3.966-14.224.773-6.405,2.818-12.526,4.151-18.8.944-4.417,1.85-8.844,2.814-13.261.38-1.793,1.077-3.027,3.388-2.861a81.041,81.041,0,0,0,9.9.033c2.719-.142,3.705,1.072,3.682,3.6-.081,9.185,1.656,18.257,1.95,27.4.394,11.994,1.4,23.941,2.064,35.911.147,2.647,1.243,3.222,3.354,2.69,1.262-.318,2.4-.664,3.568.119l-.01,0c.247.209.479.422.721.636q25.919.028,51.834.057,16.54.014,33.084.024c1.58,0,3.34.323,3.321-2.145" transform="translate(0.167 124.019)" fill="#dbcebb"/>
    <path id="Path_11781" data-name="Path 11781" d="M85.378,65.818C86.8,70.8,88.135,75.8,89.658,80.753c1.884,6.125,1.006,12.6,2.505,18.76.256,1.067-.242,1.765-1.423,1.8-.569.019-1.139.033-1.708.033l-84.946-.057c-.176-.437-.351-.878-.527-1.319q-.036-3.423-.081-6.842c.531-.337.531-.864.508-1.4l.085-2L4.156,87.7c.816-.683.593-1.642.645-2.524a48.157,48.157,0,0,1,3.037-13.37A92.827,92.827,0,0,1,21.792,46.716c1.352-1.774,2.415-4.142,4.906-4.9,2.372-1.5,4.645-3.2,7.131-4.488,7.885-4.095,16.3-4.835,24.42-1.528,11.6,4.721,18.713,14.262,24.577,24.923.92,1.68.337,4.114,2.553,5.1" transform="translate(13.024 126.275)" fill="#fff"/>
    <path id="Path_11782" data-name="Path 11782" d="M141.678,98.821c.019,2.467-1.741,2.145-3.321,2.145q-16.547-.014-33.084-.024-25.919-.021-51.834-.057l-.721-.636.01,0a14.7,14.7,0,0,0,.588-3.644C52.7,89.508,54.711,82.775,56.224,76c.8-3.6,2.2-7.06,3.335-10.58,1.822-.769,2.059-2.529,2.567-4.118a7.054,7.054,0,0,1,.721-2.239c3.81-5.005,6.372-10.775,11.007-15.372,8.246-8.194,17.65-11.012,28.961-9.446,5.2.721,9.019,3.99,13.565,5.86,4.484,4.289,9.048,8.436,12.241,13.949A113.32,113.32,0,0,1,138.936,78.2c1.034,3.421.565,7.1,2.026,10.41l.214,3.449.3.712.166-.028q.021,3.039.038,6.083" transform="translate(197.405 126.659)" fill="#fff"/>
    <path id="Path_11783" data-name="Path 11783" d="M338.585,218.711q-.107-1.722-.218-3.445a21.57,21.57,0,0,1,2.908-4.09c5.769-7.079,10-14.8,10-24.316-.033-47.915-.1-95.826.047-143.736.043-13.963-5.641-24.624-16.867-32.557-5.556-3.928-11.748-6.932-18.513-6.96-44.95-.195-89.9-.081-134.859-.066Q112.809,3.52,44.537,3.475A40.268,40.268,0,0,0,13,17.518,36.684,36.684,0,0,0,4.294,35.344c-.949,5.077-.754,10.4-.764,15.614q-.078,57.86,0,115.72c.009,7.487-.441,14.983.55,22.465C5.4,199.073,9.4,207.5,17.18,213.976L17.095,216a1.183,1.183,0,0,0-.085,2c.024.536.028,1.068-.508,1.4-4.987-2.249-7.852-6.566-10.618-10.955C1.447,201.4-.014,193.65,0,185.395Q.121,112.832,0,40.259C-.047,20.925,11.947,7.019,29.113,1.083A22.944,22.944,0,0,1,36.5.092C130.409.035,224.322-.145,318.231.239c13.46.052,24.083,7,31.281,19.111,4.588,7.715,5.912,15.685,5.893,24.363-.114,48.608.029,97.216-.138,145.824-.043,12.255-6.073,21.849-15.249,29.606-.228.195-.645.176-.973.251l-.161.028-.3-.712" transform="translate(0 -0.002)" fill="#dbcebb"/>
    <path id="Path_11784" data-name="Path 11784" d="M22.487,80.716c-2.059-4.355.8-8.355,1.006-12.564.266-5.319,2.2-10.476,2.424-15.866C26,50.28,26.88,49.222,29.1,49.26c5.674.1,11.349.085,17.019.009,2.078-.028,2.757,1.053,3.013,2.856q2.021,14.3,4.1,28.6-15.379-.007-30.749,0" transform="translate(81.424 184.452)" fill="#c5b8a5"/>
    <path id="Path_11785" data-name="Path 11785" d="M46.386,80.859c1.727-5.6,1.77-11.5,2.918-17.166.778-3.838,1.566-7.639,1.978-11.539.19-1.784,1.006-2.984,3.326-2.9,5.442.2,10.9.1,16.345.043,1.7-.014,2.462.318,2.842,2.33,1.632,8.583,3.544,17.118,3.99,25.882.071,1.376,2.107,2.405.641,3.981a4.126,4.126,0,0,0-2.538-.764q-14.746.093-29.5.133" transform="translate(173.695 184.423)" fill="#c5b8a5"/>
    <path id="Path_11786" data-name="Path 11786" d="M3.586,47.685c.176.441.351.882.522,1.319-.209.014-.422.019-.636.019l.114-1.338" transform="translate(13.001 178.559)" fill="#c5b8a5"/>
    <path id="Path_11787" data-name="Path 11787" d="M160.94,160.738c-1.129,3.52-2.529,6.984-3.331,10.58-1.514,6.78-3.52,13.513-2.908,20.615a14.785,14.785,0,0,1-.593,3.649c-1.167-.788-2.3-.441-3.563-.123-2.111.531-3.207-.043-3.354-2.69-.664-11.971-1.675-23.917-2.064-35.911-.294-9.148-2.031-18.214-1.95-27.4.019-2.529-.963-3.739-3.682-3.6a80.1,80.1,0,0,1-9.9-.033c-2.311-.166-3.008,1.068-3.4,2.861-.954,4.417-1.86,8.844-2.8,13.261-1.338,6.277-3.383,12.4-4.151,18.8-4.412-8.132-8.431-16.521-15.728-22.655-6-5.048-12.635-8.768-20.587-9.446-10.082-.863-17.735,4.147-24.6,10.713C50.662,146.68,46.1,155.8,42.411,165.687a84.282,84.282,0,0,0-5.091,30.507,5.97,5.97,0,0,0-3.3-.6c-3.407.56-4.284-.74-4.4-4.227-.28-8.763-1.2-17.507-1.865-26.261a2.69,2.69,0,0,1-.028-.337c.47-13.019-1.528-25.91-2.083-38.872.56-.754,1.376-.693,2.173-.7,2.05-.009,4.1.062,6.144-.062.963-.057,2.311-.228,2.23-1.547-.066-1.091-1.257-1.105-2.178-1.115a26.061,26.061,0,0,0-3.753.019c-3.146.441-4.009-.783-3.995-3.938.109-33.7.066-67.4.066-101.092,0-.569.024-1.139,0-1.708-.062-1.9.949-2.4,2.723-2.662a67.4,67.4,0,0,1,13.921-.56c3.321.19,5.124-1.1,5.9-4.17h158.7c7.022,0,11.43,4.417,11.43,11.458q0,52.892.028,105.78c0,2.7-.455,5.442.427,8.123.493,1.514-.536,1.732-1.7,1.694-4.545-1.869-8.365-5.138-13.565-5.86-11.311-1.566-20.719,1.253-28.97,9.446-4.631,4.6-7.193,10.367-11.007,15.377a7.1,7.1,0,0,0-.716,2.235c-3.573-.323-2.339,2.353-2.567,4.118" transform="translate(96.025 31.331)" fill="#c5b8a5"/>
    <path id="Path_11788" data-name="Path 11788" d="M113.637,8.423c-.778,3.074-2.586,4.365-5.9,4.17a67.714,67.714,0,0,0-13.921.56c-1.774.266-2.785.769-2.723,2.662.014.569,0,1.139,0,1.708,0,33.7.043,67.4-.076,101.1-.009,3.155.859,4.379,4,3.938a25.318,25.318,0,0,1,3.748-.024c.93.009,2.116.024,2.183,1.12.076,1.319-1.262,1.485-2.235,1.547-2.04.119-4.09.052-6.144.062-.792,0-1.613-.057-2.164.693-4.645-.009-9.29,0-13.935-.028-1.376-.009-2.168.214-2.519,1.922-1.509,7.254-3.383,14.433-4.887,21.687-.769,3.729-2.04,7.392-1.926,11.283-2.216-.982-1.637-3.421-2.557-5.1C58.714,145.057,51.6,135.52,40.007,130.8c-8.132-3.312-16.535-2.572-24.425,1.528-2.486,1.291-4.759,2.98-7.131,4.488C8.436,98.01,8.5,59.2,8.351,20.389A11.814,11.814,0,0,1,20.426,8.352c31.067.161,62.139.071,93.211.071" transform="translate(31.271 31.274)" fill="#c1b4a1"/>
    <path id="Path_11789" data-name="Path 11789" d="M28.107,101.346a84.379,84.379,0,0,1,5.086-30.507c3.691-9.878,8.255-19,15.918-26.332C55.976,37.94,63.634,32.93,73.716,33.794c7.952.683,14.585,4.4,20.587,9.446,7.292,6.135,11.316,14.528,15.723,22.655.119,5.067,2.937,9.375,3.966,14.224a96.649,96.649,0,0,1,2.315,17.716c.071,2.78-.664,3.687-3.573,3.668-19.9-.152-39.811-.123-59.72-.147q-12.454-.014-24.909-.009" transform="translate(105.239 126.178)" fill="#fff"/>
    <path id="Path_11790" data-name="Path 11790" d="M52.719,47.824c.242.214.479.427.721.641-.242-.214-.479-.427-.721-.641" transform="translate(197.409 179.079)" fill="#c5b8a5"/>
    <path id="Path_11791" data-name="Path 11791" d="M142.193,36.957c-31.072,0-62.144.09-93.211-.071A11.814,11.814,0,0,0,36.907,48.922c.147,38.81.085,77.621.1,116.427-2.491.759-3.549,3.127-4.911,4.9a92.9,92.9,0,0,0-13.944,25.084,48.2,48.2,0,0,0-3.041,13.375c-.047.882.176,1.836-.645,2.524-7.776-6.476-11.776-14.9-13.095-24.828C.379,178.918.829,171.427.815,163.94q-.1-57.86,0-115.724C.825,43,.63,37.678,1.579,32.6a36.6,36.6,0,0,1,8.706-17.821A40.314,40.314,0,0,1,41.827.732Q110.092.867,178.37.8c.954,2.439.024,4.887.028,7.335q.036,11.437,0,22.873c-.009,3.985-.593,4.422-4.526,4.654-1.466.085-3.549-1.224-4.365,1.3H142.193" transform="translate(2.715 2.741)" fill="#ada08e"/>
    <path id="Path_11792" data-name="Path 11792" d="M3.989,47.527a1.183,1.183,0,0,1,.085-2l-.085,2" transform="translate(13.021 170.471)" fill="#c5b8a5"/>
    <path id="Path_11793" data-name="Path 11793" d="M36.3,36.941c.807-2.515,2.894-1.21,4.36-1.3,3.933-.232,4.517-.669,4.526-4.654q.021-11.437,0-22.873c-.009-2.443.93-4.9-.033-7.335C90.1.768,135.054.654,180.009.849c6.766.028,12.957,3.032,18.513,6.96,11.226,7.933,16.91,18.6,16.867,32.557-.152,47.91-.081,95.826-.047,143.736,0,9.513-4.232,17.237-10,24.316a21.57,21.57,0,0,0-2.908,4.09c-1.457-3.316-.987-6.989-2.026-10.414A113.284,113.284,0,0,0,190.1,177.949c-3.188-5.513-7.757-9.66-12.236-13.954,1.167.038,2.2-.176,1.7-1.689-.883-2.681-.427-5.423-.432-8.123q-.057-52.892-.024-105.784c0-7.036-4.412-11.453-11.434-11.453q-65.681-.007-131.372,0" transform="translate(135.931 2.757)" fill="#c1b4a1"/>
    <path id="Path_11794" data-name="Path 11794" d="M54.184,43.753c.228-1.765-1.006-4.441,2.567-4.118-.5,1.594-.74,3.35-2.567,4.118" transform="translate(202.781 148.316)" fill="#c1b4a1"/>
    <path id="Path_11795" data-name="Path 11795" d="M71.363,46.1l.3.712-.3-.712" transform="translate(267.222 172.613)" fill="#c1b4a1"/>
  </g>
</svg>
