<?xml version="1.0" encoding="utf-8"?>
<!-- Generator: Adobe Illustrator 27.3.1, SVG Export Plug-In . SVG Version: 6.00 Build 0)  -->
<svg version="1.1" id="Laag_1" xmlns="http://www.w3.org/2000/svg" xmlns:xlink="http://www.w3.org/1999/xlink" x="0px" y="0px"
	 viewBox="0 0 354 376" style="enable-background:new 0 0 354 376;" xml:space="preserve">
<style type="text/css">
	.st0{fill:#FFCF8A;}
	.st1{fill:#F7B169;}
	.st2{fill:#815B86;}
	.st3{fill:#FEFEFD;}
	.st4{fill:#FEFEFE;}
	.st5{fill:#FCFBFB;}
	.st6{fill:#FCFAFB;}
	.st7{fill:#FCFBFC;}
	.st8{fill:#845E88;}
	.st9{fill:#1D5F00;}
	.st10{fill:#F5EBE5;}
	.st11{fill:#AEA74F;}
	.st12{fill:#E3D1DD;}
</style>
<g>
	<g id="Group_535" transform="translate(0.392 0.331)">
		<path id="Path_13728" class="st0" d="M67.6,173.8v-0.4c0.7-0.7,1.2-1.6,1.5-2.5c0.2-0.4,0.4-0.9,0.6-1.4c0.6-0.5,0.9-1.2,0.9-2
			c0.2,0,0.4-0.1,0.4-0.4c0.5-0.7,0.9-1.5,1.1-2.3l0,0c0.5-0.3,0.6-0.8,0.7-1.4c0-0.1,0-0.1,0-0.2c0.8-0.5,0.9-1.5,1.3-2.3l0,0
			c0.9-1.3,1.7-2.8,2.2-4.3c0.1-0.1,0.2-0.2,0.2-0.4c0.6-0.8,1.1-1.7,1.5-2.7c0.1-0.1,0.2-0.2,0.2-0.4c0.6-0.8,1-1.8,1.3-2.7
			c0.1-0.1,0.2-0.2,0.2-0.4c0.6-0.7,1-1.5,1.3-2.3c0.1-0.1,0.2-0.2,0.2-0.4c0.4-0.4,0.6-0.8,0.7-1.4c0-0.1,0-0.1,0-0.2
			c0.5-0.1,0.4-0.6,0.5-1l0.4-0.8c0.3-0.2,0.5-0.4,0.6-0.7c0.5-1,1-2.1,1.5-3.1c0.2-0.4,0.6-0.8,0.5-1.3l0,0
			c0.6-0.8,1.1-1.6,1.5-2.5c0-0.1,0-0.3,0-0.4c0.7-0.7,1.2-1.6,1.5-2.5l0,0c0.5-0.4,1-0.9,1.3-1.6c0.2-0.1,0.4-0.3,0.5-0.6
			c0.4-0.2,0.7-0.6,0.7-1c0.2,0,0.5-0.2,0.5-0.4c1-0.7,2-1.4,3-2.1c0.4-0.3,1-0.2,1.2-0.8l0,0c1.1-0.3,2.1-0.7,3.1-1.2h0.5
			c0.3,0,0.5,0.1,0.7-0.2c8.3-0.4,16.6-0.1,25-0.2l0.8,0l5.9,0c6.6,0,13.2,0,19.8,0c2.1-0.1,4.3,0,6.4,0.2c0.1,0.2,0.4,0.2,0.6,0.2
			h0.4c0.9,0.5,1.9,0.9,2.9,1.2h0.4c0.7,0.8,1.6,1.3,2.6,1.6l0,0c0.2,0.4,0.5,0.7,0.9,1c2.1,1.8,3.9,4,5,6.5
			c0.4,0.7,0.5,1.6,1.2,1.9c0,0.1,0,0.1,0,0.2c0.1,0.5,0.3,1,0.5,1.4c1.3,2.2,2.3,4.6,3.5,6.9c0.5,1.3,1.2,2.5,2,3.6
			c0,0.2,0.1,0.3,0.2,0.4c0.4,1.1,0.9,2.2,1.5,3.3c0.9,1.8,1.8,3.5,2.7,5.2c0.5,0.8,0.7,1.8,1.5,2.5c0,0.1,0,0.1,0,0.2
			c0,0.8,0.6,1.4,1,2c0.6,1.2,1,2.6,2,3.6c0,0.1,0,0.1,0,0.2c0,0.2,0,0.4,0.1,0.6c2.1,3.8,3.9,7.7,6,11.5c0.4,0.7,0.5,1.7,1.3,2.2
			c0,0.1,0,0.1,0,0.2c0.5,1.1,1.1,2.3,1.7,3.4c0.4,0.8,0.6,1.7,1.3,2.3c0,0.2,0.1,0.3,0.2,0.4c0.2,0.8,0.6,1.5,1.1,2.1l0.4,1.2
			c0.3,0.9,0.6,1.9,0.9,2.8c0.1,0.3,0,0.7,0.4,0.9c0,0.3-0.1,0.6,0.2,0.8c0,0.5,0,1,0.1,1.5c0.4,2,0.6,4,0.6,6c0,33.5,0,67,0,100.4
			c0,1-0.3,2.1-0.3,3.1c0,1.1-0.6,2.1-0.6,3.2c-0.1,0.2-0.2,0.5-0.2,0.8c-0.4,0.7-0.7,1.4-1,2.2c-0.4,1.1-1.2,2-1.6,3.1
			c-0.1,0.1-0.2,0.2-0.2,0.4c-0.2,0-0.4,0.1-0.5,0.3c-2.4,3.3-5.7,5.9-9.5,7.3c-0.9,0.3-1.9,0.3-2.6,0.9h-0.7
			c-0.3,0-0.5-0.1-0.7,0.2h-0.9H181H74.9c-0.2-0.3-0.5-0.2-0.7-0.2l-1.1-0.2l-1.5-0.4l-0.9-0.2c-0.2-0.5-0.6-0.4-0.9-0.4l-1.1-0.4
			c-0.3-0.6-0.9-0.6-1.5-0.8c-0.4-0.5-0.9-0.8-1.5-1c-0.2-0.4-0.6-0.5-0.9-0.8l-0.7-0.6c-0.2-0.4-0.5-0.7-0.9-0.8l0,0
			c0-0.2-0.1-0.4-0.3-0.4c0,0,0,0-0.1,0l-1.5-1.8c-0.2-0.5-0.5-0.9-0.9-1.2l-0.2-0.4c-0.3-0.6-0.4-1.3-1.1-1.6
			c0.1-0.6-0.4-1-0.6-1.6c0-0.3-0.1-0.6-0.4-0.8c0.1-0.4-0.4-0.6-0.4-1c0-0.2,0-0.4-0.2-0.6l-0.4-1.6c-0.1-0.7-0.2-1.4-0.4-2.1
			c-0.1-0.4-0.1-0.8-0.2-1.2c0-35,0-70,0-105c0-0.2,0-0.4,0-0.6c0.2-1,0.4-2.1,0.5-3.1l0.4-1.8c0.5-1.2,0.9-2.4,1.1-3.7l0.2-0.6
			c0.7-0.6,0.8-1.6,1.3-2.3l0.4-1c0.9-1.1,1.2-2.5,2-3.6c0.4-0.4,0.6-0.9,0.6-1.5c0.3-0.2,0.5-0.6,0.5-1c0.5-0.6,0.8-1.2,0.9-2l0,0
			C65.7,177.5,66.7,175.7,67.6,173.8 M118.9,211.5l-0.1,0.3c0,0.1,0,0.2-0.1,0.3c-0.5,0.3-1.2,0.4-0.6,1.2c0,0.1,0,0.1-0.1,0.2
			c-0.2,0.1-0.4,0.3-0.4,0.6c-0.4,0.8-0.8,1.6-1,2.4c-0.7,2.2-1.1,4.5-1.1,6.8c-0.3,0.5-0.3,1,0,1.5c0.1,0.7,0,1.4,0.1,2.1
			c0.6,4.3,2.3,8.4,5.1,11.7c0,0.3,0,0.7,0.2,1c0.2,0.7,0.5,0.9,1.1,0.4c0.9,0.8,2.1,1.3,3.3,1.5c0.1,0.4,0.3,0.4,0.5,0.1
			c0.9,0.1,1.8,0,2.7-0.2c2.8-0.9,5.3-2.3,7.6-4.2c0.6-0.5,1-1.2,1.8-1.4c0.2,0.2,0.4,0.3,0.5,0c0.1-0.4,0.5-0.4,0.7-0.7
			c0.5-0.7,1.3-1.1,1.4-2.1l0,0c0.3,0,0.4-0.1,0.4-0.4h0c0.2,0,0.3,0,0.5,0c1.1,0,1.2-0.1,0.8-1.2c0-0.1-0.1-0.2-0.2-0.4l0.5-0.8
			c0.4,0,0.4-0.3,0.4-0.6c0.2-0.4,0.4-0.8,0.8-1.2c0.3-0.2,1-0.2,0.4-0.8c0-0.1,0-0.1,0.1-0.1c0.4,0,0.4-0.3,0.4-0.7
			c0.4-0.9,0.8-1.9,1.2-2.8c0.6-1.3,1.1-2.6,1.5-3.9c0.4-1.4,0.7-2.9,1.1-4.3c0.4-0.1,0.5-0.3,0.1-0.6c0.3-1.5,0.5-3.1,0.8-4.6
			c0.6-3.7,1-7.4,1.1-11.1c0.2-3.9,0-7.9-0.4-11.8c0.4-0.5-0.1-0.8-0.2-1.2c0-0.3,0-0.7,0-1c0.4-0.3-0.1-0.4-0.2-0.6
			c0-1.2-0.2-2.4-0.4-3.5c0-0.1,0-0.3-0.1-0.4c-0.1-1.2-0.3-2.4-0.6-3.5l-0.2-0.6c-0.3-0.7,0.1-1.5-0.5-2.1c0-0.3,0.1-0.6-0.2-0.8
			c-0.1-0.7-0.2-1.3-0.5-2c0-0.1,0-0.3-0.1-0.3l-0.1-0.2c-0.1-0.1-0.1-0.3-0.2-0.3c-0.1,0-0.1,0.1-0.1,0.3l-0.5,1.4
			c-0.1,0-0.2,0-0.1,0.1c-0.2,0.2-0.3,0.5-0.2,0.8c-0.2,0.1-0.4,0.3-0.4,0.6l-0.5,1.4c0,0.1,0,0.1,0,0.2c-0.1,0-0.1,0-0.2,0.1
			c-0.5,0.1-0.5,0.5-0.5,0.9c-0.1,0.1-0.2,0.3-0.1,0.5c-0.2,0.1-0.2,0.3-0.2,0.4c-0.3,0.2-0.5,0.6-0.5,0.9l-0.2,0.4
			c-0.1,0-0.2,0-0.2,0.2c-0.5,1.1-1.2,2.2-1.9,3.3c-0.4,0.3-0.7,0.7-0.8,1.2l-0.5,0.8c-0.4,0-0.8,0.1-1,0.4
			c-0.1,0.3,0.1,0.4,0.4,0.6l-0.2,0.5l-0.2,0.1c-0.1-0.1-0.2-0.2-0.3-0.1c-0.2,0.2,0,0.2,0.1,0.3l-0.2,0.5c-0.5,0.5-1,1-1.3,1.7
			c-0.5,0.9-1.2,1.7-1.9,2.5c-0.2,0-0.3,0.2-0.3,0.4l-0.2,0.4c-0.2,0-0.4,0.2-0.3,0.4l0,0c-0.8,0.3-0.9,0.4-0.6,0.8
			c0,0.1-0.1,0.1-0.1,0.1c-0.5,0-0.6,0.3-0.6,0.8l0,0c-1.2,0.4-2,1.4-2.2,2.6c-0.2,0.3-0.5,0.7-0.7,1c-1.4,1.7-2.9,3.4-4.3,5.2
			c-0.1-0.2-0.4-0.4-0.5-0.2c-0.1,0.9-1.1,1.2-1.3,2c-0.5,0.8-1.3,1.3-1.7,2.1c-0.4,0-0.7,0.2-0.6,0.7c0,0.7-0.6,1-0.9,1.5
			c-0.1,0-0.2,0.1-0.2,0.3l-1.2,1.9C119,211.1,119,211.3,118.9,211.5L118.9,211.5z M166.3,229.1l-0.2,0.3c0,0.2,0,0.4-0.2,0.5
			l-0.2,0.2l-0.2,0.3c-0.7,0-0.6,0.6-0.7,1l-0.6,0.9c-0.3,0.1-0.4-0.6-0.7-0.3c-0.4,0.4,0.3,0.5,0.2,0.9c-1.3,2-2.8,3.9-4.4,5.7
			c-0.1-0.2-0.3-0.3-0.4-0.2c-0.2,0.2-0.1,0.4,0.1,0.5l-0.1,0.2c-0.3,0-0.5,0.3-0.5,0.6c0,0,0,0,0,0.1l0,0c-0.6-0.1-1.1,0.4-1.2,0.9
			c0,0.1,0,0.2,0,0.3c0,0.1-0.1,0.1-0.1,0.1c-0.4-0.1-0.7,0.1-0.9,0.4c-0.3,0.5-0.6,1-0.8,1.5c0,0-0.1,0.1-0.1,0.1l-0.2,0.2l-0.7,1
			c-0.4-0.1-0.6,0.1-0.6,0.6l-1.1,1.2c-0.7-0.1-1.1,0.2-1.1,1l0,0c-0.3,0-0.5,0.2-0.6,0.5c0,0,0,0,0,0l-0.3,0.3
			c-0.3,0.1-0.2-0.5-0.6-0.5c-0.1,0.4-0.1,0.7-0.1,1.1l-1.5,1.3c-0.3,0-0.4,0.2-0.4,0.4l-0.6,0.5c-0.4,0-0.8,0-0.7,0.6l-1.9,1.6
			c-0.7,0-1.2,0.1-1.2,1l0,0c-0.6-0.1-0.8,0.2-0.8,0.8c-1.4,1.1-2.7,2.1-4.1,3.2c-2.1,1.6-4.3,3.1-6.3,4.9c-0.5,0.1-1.2,0.1-1.2,0.9
			c-1.7,1.4-3.3,3-4.7,4.7c-0.2,0-0.4-0.1-0.5,0.2c0,0.1,0.1,0.2,0.2,0.3l-0.3,0.3c-0.4,0-0.4,0.3-0.4,0.5c-1.5,2-2.6,4.4-3.1,6.9
			c-0.2,0-0.5-0.1-0.5,0.2c-0.1,0.3,0.1,0.5,0.4,0.6c-0.4,1-0.5,2-0.3,3.1c-0.4,0.2-0.4,0.5-0.1,0.8c0.1,1.2,0,2.3,0.2,3.5
			c0.5,3.8,2,7.5,4.4,10.5c-0.1,0.4,0,0.7,0.4,0.7l2.1,2.2c0,0.4,0,0.8,0,1.2c0.1,0.5,0.3,1.1,0.9,0.4c0.2-0.3,0.5-0.2,0.8-0.2
			c0.2,0,0.4,0.2,0.5,0.4c0,0.5,0.3,0.4,0.6,0.4c1.9,1.4,4.2,2.2,6.6,2.5c1.6,0.1,3.2,0.1,4.8,0c0.3,0.3,0.6,0.4,0.7-0.1
			c2.7-0.4,5.2-1.4,7.5-2.9c0.2,0.3,0.5,0.4,0.7,0.2c0.3-0.5,0.9-0.8,1.5-0.5l-0.3-0.8c1.7-1.4,3.3-2.9,4.7-4.5
			c0.1,0,0.2-0.1,0.2-0.3c0-0.2,0.2-0.3,0.3-0.4c0.9,0.5,0.5-0.4,0.6-0.7c0-0.2,0.1-0.5,0.3-0.6c0.9-0.2,1.4-0.9,1.5-2.2l0.2-0.3
			l0.2-0.3l0.2-0.3c0.4,0,0.4-0.3,0.4-0.7c0.2-0.7,0.5-1.3,1-1.9c0.3-0.1,0.8-0.1,0.3-0.6c0.5-1.5,1.1-2.9,1.6-4.4
			c0.9-3.5,1.5-7.2,1.6-10.8c0.3-0.1,0.4-0.2,0.1-0.4c0-0.7,0.1-1.4,0.3-2.1c0.2-0.1,0.2-0.3,0.2-0.4c0-0.1-0.1-0.1-0.1-0.1
			c0.2-2.4,0.3-4.8,0.6-7.2c0-0.8,0.1-1.6,0.3-2.4c0.1-0.1,0.2-0.2,0.1-0.3c-0.2-0.4-0.3-0.9-0.1-1.4c0.1-1.6,0.4-3.3,0.5-4.9
			c0.3-3.9,0.6-7.7,1-11.6c0-1,0.1-2.1,0.3-3.1c0.1,0,0.3,0,0.3-0.2c0-0.1-0.2-0.1-0.3-0.2c0.1-1.6,0.2-3.1,0.4-4.7
			c0.2-2.7,0.5-5.5,0.7-8.2c0.2-0.1,0.2-0.2,0-0.4c0-0.3,0-0.7,0-1c0-0.6-0.3-0.6-0.7-0.3l-0.3,0.6c-0.6,1.1-0.8,2.5-1.6,3.5
			c-0.3,0-0.4,0.2-0.4,0.5l-0.3,0.7c-0.8,0-0.9,0.6-0.8,1.2l-0.3,0.5C166.4,228.7,166.3,228.9,166.3,229.1L166.3,229.1z M81.9,215.1
			L81.9,215.1c-0.1,0.4-0.2,0.8,0.2,0.9l0.9,5.7c0,0.1,0,0.3,0.2,0.4c0.1,0.2,0.2,0.4,0.2,0.6c0.2,1.6,0.4,3.2,0.6,4.7
			c0.3,2,0.6,4,0.7,6c0,0.2-0.1,0.5,0.2,0.6c0.1,0.2,0.1,0.4,0.1,0.6c-0.1,0-0.3,0.1-0.3,0.3c0,0.2,0.1,0.3,0.3,0.3
			c0.2,1.2,0.3,2.5,0.3,3.7c-0.4,0.2-0.4,0.4,0,0.6c0.1,1.5,0.2,2.9,0.2,4.4c0.1,3.8-0.1,7.5-0.8,11.2c-0.4,2.1-0.8,4.2-1.4,6.2
			c-0.8,2.3-1.3,4.7-1.4,7.1c-0.2,0.1-0.2,0.2,0,0.4c0,1.4,0,2.7,0,4.1c-0.2,0.1-0.2,0.3,0,0.4c0,1.4,0.3,2.8,0.7,4.1
			c0.7,2.4,1.8,4.7,3.2,6.8c1,1.6,2.4,3,3.9,4.1c2.8,2,5.9,3.5,9.5,3.4c1.9,0,3.9,0.3,5.6-0.8c0.1,0.1,0.1,0.3,0.3,0.2
			c0.1,0,0.1-0.2,0.1-0.3l0.2-0.2c0.4,0,0.8,0,0.8-0.6l0.7-0.7c0.5-0.1,1.1-0.2,0.9-1c-0.1-0.3,0.1-0.5,0.3-0.8
			c0.8-1.4,1.4-2.8,1.8-4.3l0.1-0.2c0-0.2,0-0.4,0.2-0.6c0.5-0.1,0.5-0.3,0.2-0.6c0.5-2.4,0.8-4.9,1-7.3c0.1-1.9,0-3.8,0.1-5.7
			c0.2-0.1,0.2-0.3,0-0.4c-0.1-1.2-0.1-2.3-0.2-3.5c0.3-0.2,0.2-0.3-0.1-0.4c0-0.5-0.1-0.9-0.1-1.4c0.3-0.2,0.2-0.3-0.1-0.4
			c0-0.3-0.1-0.6-0.1-1c0.4-0.4,0.6-0.8-0.2-1c-0.1-0.3-0.2-0.6-0.2-0.9c-0.1-1.2-0.3-2.4-0.5-3.5c-0.6-2.9-1.5-5.6-2.3-8.5
			c0.4-0.7,0.1-1.6-0.6-2c0,0,0,0,0,0l-2.6-6.5c0-0.2,0-0.4-0.2-0.6c-1.2-2.3-2.4-4.7-3.7-7c-1.8-3-3.8-6-6-8.7
			c-1.3-1.7-2.8-3.1-4.2-4.7c0-0.5-0.2-0.9-0.8-0.8l-0.2-0.1c0.1-0.9-0.5-1-1.1-1l-0.3-0.4c-0.1-0.8-0.1-0.9-0.7-0.6
			c-0.3-0.2-0.6-0.4-0.8-0.7c0-0.3,0-0.5-0.4-0.3l0,0c-0.2-0.9-0.9-1.5-1.5-1.2l-3.3-2.5c0-0.1,0-0.2-0.2-0.1
			c-0.2,0.1-0.1,0.4-0.2,0.5l0.1,0.3c0.2,1,0.5,2.1,0.7,3.1c-0.2,0.2-0.1,0.3,0.1,0.4L81.9,215.1c-0.1-0.1-0.3-0.1-0.3,0.1
			c0,0,0,0.1,0,0.1C81.8,215.3,81.9,215.1,81.9,215.1 M129.7,150.7h12.5c1.5,0,2.9-0.1,4.4,0c1.7-0.1,3.1-1.6,3-3.4
			c0-0.5-0.2-1-0.4-1.4c-0.6-1-1.7-1.6-2.8-1.5c-11,0-22.1,0-33.1,0c-0.2,0-0.4,0-0.6,0c-2.2,0-3.3,2.9-2.5,4.6
			c0.5,1.1,1.8,1.8,3,1.7C118.7,150.7,124.2,150.7,129.7,150.7 M122.2,276.1c-0.1,0-0.1-0.1-0.1-0.1s0,0.1-0.1,0.2
			c0.1,0,0.1,0.1,0.1,0.1S122.2,276.1,122.2,276.1"/>
		<path id="Path_13729" class="st1" d="M291.9,230.6c0.1,0.3,0.3,0.7,0.4,1c0.2,0.6,0.4,1.2,0.8,1.8c0.2,0.5,0.4,0.9,0.6,1.4
			c0,0.1,0,0.1,0.1,0.1l0,0c0.2,0.8,0.6,1.6,1,2.4c0,0.2,0.1,0.4,0.2,0.6c0.3,1.1,0.8,2.1,1.3,3.1c0,0.4,0.2,0.8,0.4,1.2
			c0,0.1,0,0.1,0,0.2c0,0.1,0,0.1,0,0.2c-0.1,1.9,0.2,3.8-0.6,5.6c-0.3,0.6-0.5,1.3-0.8,1.9l-0.3,0.5c-0.8,1-1.8,1.9-2.8,2.8v0
			c-1.4,0.7-2.8,1.3-4.1,2c-2.8,1.4-5.7,2.8-8.5,4.2c-0.2,0-0.4,0.1-0.5,0.2c-0.7,0.2-1.3,0.5-1.8,0.9c-0.4,0.1-0.8,0.3-1.1,0.6
			c-1,0.4-2,0.8-2.9,1.4l0,0c-3.2,1.4-6.4,3-9.6,4.7c-0.1,0-0.1,0-0.1,0c-0.9,0.3-1.8,0.7-2.6,1.3c-0.3,0-0.7,0.2-0.9,0.4
			c-1.2,0.5-2.4,0.9-3.7,1.2H254c-0.1,0-0.2-0.1-0.3-0.1c-3.7-0.7-6.3-3-7.8-6.6c-1.1-2.7-2.4-5.4-3.5-8.1l-0.2-0.4
			c-0.2-0.8-0.6-1.6-1-2.4l-0.3-0.8c-1.1-2.5-2.1-5-3.2-7.5c-0.8-2-1.6-4-2.6-5.9l-0.3-0.7c-0.3-0.9-0.7-1.9-1.2-2.7l-0.1-0.4
			c-0.5-1.5-0.7-3.1-0.6-4.7l0.1-0.2c0.3-3.6,2.5-6.8,5.8-8.4c2.4-1.2,4.7-2.4,7.1-3.6c0.3,0,0.6-0.2,0.7-0.4c0.5-0.1,1-0.4,1.5-0.7
			l1.1-0.6c0.7-0.4,1.4-0.6,2-1c0.8-0.4,1.7-0.5,2.3-1.3c0.9,0.2,1.5-0.5,2.2-0.8c2.1-0.9,4.1-1.9,6.1-3.1l0.3-0.1l0.2-0.1
			c0.2,0,0.4-0.1,0.5-0.2c0.8-0.3,1.6-0.6,2.3-1.1l0.7-0.3c0.9-0.3,1.7-0.7,2.4-1.2l0.5-0.3l3.1-1.4c1.7-0.4,3.6-0.4,5.3,0
			c0.9,0.4,1.8,0.8,2.7,1.4c0.6,0.4,1.1,1.1,1.8,1.4l0,0c0.8,1.2,1.5,2.5,2.1,3.8c0.2,0.7,0.5,1.3,0.9,1.9c0,0.2,0.1,0.4,0.2,0.5
			c0.2,0.9,0.6,1.7,1.1,2.5c0,0.2,0.1,0.5,0.3,0.6c0.3,1.1,0.8,2.1,1.4,3.1h0C288.9,224.1,290.3,227.4,291.9,230.6"/>
		<path id="Path_13730" class="st2" d="M253.6,214c-0.6,0.8-1.5,0.9-2.3,1.3c-0.6,0.4-1.4,0.6-2,1c-0.5-0.4-0.8,0.1-1.2,0.2
			c-0.3-0.2-0.5-0.4-0.7-0.7c0.4-0.8-0.4-0.4-0.6-0.6c-0.3-0.3-0.6-0.6-0.8-1c0-0.3,0-0.5,0.2-0.7c0.1-0.2,0.2-0.3,0.1-0.5
			c-0.2-0.2-0.4,0-0.5,0.1c-0.1,0.1-0.3,0.3-0.4,0.4l-0.3-0.4c0.3-0.2,0.1-0.5,0-0.7c-0.2-0.3-0.4-0.1-0.6,0c-0.5-0.4-0.8-1-1.1-1.6
			c0.2-0.2,0.3-0.4,0.1-0.6c-0.2-0.1-0.2,0.2-0.3,0.3c-0.4-0.4-0.6-0.8-0.9-1.3c0-1.5-0.4-2.1-1.4-2.3l-0.3-0.5
			c0.1-0.1,0.2-0.1,0.2-0.3c-0.1-0.2-0.3-0.1-0.4-0.2c-0.2-0.4,0.2-0.9-0.3-1.1c-0.7-0.3-0.8-1-1-1.6l0.1-0.1l-0.2-0.1
			c-0.8-1.5-1.5-3.1-2.1-4.7l-0.1-0.3l-0.1-0.2l0,0c-0.4-1.3-0.8-2.6-1.1-3.9c0.2-0.3,0.2-0.7-0.1-0.9c-0.1,0-0.1-0.1-0.2-0.1
			c0-0.1,0-0.2,0-0.3c0-0.2,0-0.4-0.2-0.5l-0.9-2.9c0-0.4-0.1-0.8-0.2-1.2c0-0.1-0.1-0.2-0.1-0.2l0,0c0.2-0.6,0.1-1.3-0.3-1.8
			c-0.1-0.2-0.1-0.4-0.1-0.6c0.1-0.1,0.3-0.1,0.3-0.2c0-0.2-0.2-0.2-0.3-0.2l-0.1-0.4c0,0,0.1-0.1,0.1-0.1c0,0,0-0.1-0.1-0.1
			c-0.1-0.2-0.1-0.4-0.1-0.7l-0.1-0.3l-0.2-1c0.1-0.1,0.2-0.1,0.2-0.2c0-0.2-0.2-0.2-0.3-0.2l-0.2-0.8c0-0.7-0.1-1.4-0.3-2.1
			l-0.1-1.8c0,0,0,0,0-0.1c0,0,0-0.1-0.1-0.1c-0.2-1.8-0.5-3.6-0.6-5.4c-0.1-2-0.2-3.9-0.2-5.9l0-7c0-0.1,0-0.3,0-0.4
			c0-0.3,0-0.5,0-0.8c0.1-2.4,0.2-4.8,0.3-7.2c0.2,0,0.4,0.1,0.4-0.2c0-0.2-0.2-0.2-0.3-0.2c0-0.8,0.1-1.7,0.1-2.5
			c0-0.2,0-0.4,0-0.6l0.3-4.1c0-0.3,0.1-0.5,0.1-0.8c0.3-0.1,0.4-0.2,0.1-0.4c0.1-0.9,0.1-1.8,0.2-2.7c0-0.3,0-0.5,0.1-0.8
			c0.2-0.7,0.2-1.4,0.2-2.1c0.1-0.3,0.1-0.7,0.2-1l0.1-0.3l0.1-1.3c0.4-0.1,0.4-0.3,0.1-0.6c0.1-0.9,0.2-1.7,0.3-2.6
			c0-0.1,0-0.2,0.1-0.2c0-0.4,0-0.9,0-1.3c0.2-0.8,0.3-1.7,0.3-2.5c0.3-1.4,0.4-2.9,0.6-4.4c0-0.9,0.1-1.8,0.4-2.7c0,0,0-0.1,0-0.1
			c-0.2-0.2-0.1-0.5-0.1-0.8c-0.1-1.2,0.3-2.5,0.2-3.7c0-0.2,0-0.4,0-0.6l0-0.8c0.1-1.5,0.1-3,0-4.5c0-1.2,0-2.4-0.2-3.6
			c-0.2-2.4-0.5-4.7-0.8-7.1c0.1,0,0.3,0,0.3-0.2c0-0.3-0.2-0.3-0.4-0.4c-0.1-0.3-0.1-0.7-0.2-1c0,0,0.1-0.1,0-0.1
			c0,0,0-0.1-0.1-0.1l-0.1-0.2c-0.3-1.4-0.6-2.9-0.8-4.3c0.3-0.3,0.2-0.5-0.2-0.6l-0.2-0.4c0-0.3-0.1-0.6-0.2-0.8c0-0.1,0-0.3,0-0.4
			c0.3-0.3,0.1-0.3-0.1-0.4c-0.2-0.7-0.4-1.4-0.6-2.1c0-0.2,0-0.3-0.2-0.4l-0.1-0.4c0,0,0.1-0.1,0-0.1c0,0-0.1-0.1-0.1-0.1
			c0,0-0.1,0-0.1-0.1c0-0.2,0-0.4-0.1-0.6l-0.1-0.3l-0.1,0c-0.1-0.4-0.4-0.7-0.3-1.1l-0.1-0.3l-0.6-1.6l-0.1-0.2
			c0-0.1-0.1-0.2-0.1-0.3l-0.1-0.3c-0.3-0.4-0.5-0.9-0.6-1.4c0.1,0,0.4,0,0.3-0.2s-0.3-0.1-0.5-0.1l-2-3.9c0.5-0.6-0.1-0.5-0.3-0.6
			c-0.4-0.5-0.7-1-1-1.5c0.2-0.1,0.3-0.2,0.2-0.5c-0.1-0.2-0.4-0.1-0.6-0.1c-0.1,0-0.1-0.1-0.1-0.1l-0.2-0.3l0,0
			c0-0.8-0.1-1.6-1.1-1.6l-0.3-0.2c0-0.1,0-0.1,0-0.2c0-0.7-0.1-1.2-0.9-1.2l-0.5-0.6c0-0.4,0-0.6-0.5-0.6l-0.2-0.3
			c0.1-0.6-0.2-0.9-0.8-0.8l-1.1-0.9c0-0.1,0-0.1,0-0.2l-0.2-0.1c-0.1,0-0.1,0-0.2,0l-0.4-0.5c0-0.3-0.2-0.4-0.5-0.4
			c-0.5-0.2-0.9-0.6-1.2-1c-0.1-0.8-0.6-0.8-1.1-0.8c-0.2-0.1-0.4-0.2-0.5-0.4c0-0.4-0.3-0.4-0.6-0.4l0,0c-0.1-0.9-0.8-0.7-1.3-0.8
			l-4-2l-0.3-0.1l-0.6-0.1c-1.2-0.5-2.4-0.9-3.7-1.3c-0.1-0.1-0.3-0.2-0.5-0.1l-1-0.1l-0.4-0.2c0-0.2,0-0.5-0.3-0.5
			c-0.2,0-0.3,0.2-0.3,0.4c-4-0.7-8.1-0.9-12.2-0.6c-1.8,0.1-3.6,0.4-5.4,0.8c-0.3,0-0.6,0-0.9,0.2l-0.4,0l-0.9,0.1
			c-0.1-0.1-0.1-0.1-0.2,0l0,0.1l-0.4,0c-0.2-0.3-0.3-0.2-0.4,0.1l-0.5,0.1c-0.2,0-0.5-0.1-0.6,0.2c-0.3,0.1-0.6,0.2-0.9,0.2
			c-0.3-0.3-0.5-0.3-0.6,0.2l-1.3,0.4l-0.2,0c-0.3-0.2-0.4-0.2-0.5,0.2l-0.4,0.1c-0.3-0.3-0.5-0.2-0.6,0.2l-4.3,1.5l-0.9,0.3
			c-1,0.3-2,0.6-2.9,1.1c-0.3,0-0.5,0.1-0.7,0.3c-1.1,0.4-2.1,0.8-3.1,1.3l-0.4,0.2l-0.2,0.1l0,0c-0.9,0.3-1.7,0.7-2.5,1.2l-0.7,0.3
			c-0.9,0.4-1.7,0.8-2.5,1.3l-0.5,0.3c-2.5,1.3-4.9,2.9-7.1,4.7l-0.2,0.2c-0.4,0.2-0.8,0.5-1.1,0.9l-0.3,0.3
			c-3.4,2.6-6.4,5.8-8.9,9.3l-0.3,0.4l-0.1,0v0.1l-0.2,0.4c-0.8,1-1.5,2-2.1,3.2c-2,3.4-3.5,7-4.6,10.7c0,0.1-0.1,0.1-0.1,0.2
			c0,0,0,0.1,0,0.1l-0.1,0.3c-0.1,0.2-0.2,0.5-0.2,0.8c-0.5,1.5-0.8,3.1-1,4.7c0,0.2-0.1,0.4-0.1,0.6c-0.1,0.2-0.2,0.5-0.1,0.8
			c0,0.3-0.1,0.6-0.1,1c-0.1,0.2-0.1,0.4-0.1,0.6c0,0.3,0,0.5-0.1,0.8c-0.1,0.4-0.2,0.8-0.1,1.2c0,0.3,0,0.5,0,0.8l-0.1,2.1
			c-0.1,0.5-0.1,0.9,0,1.4c-0.1,1.3,0,2.6,0.2,3.9c0,0.3,0,0.5,0.1,0.8c0,0.2,0,0.4,0,0.6c-0.1,0.7,0,1.5,0.3,2.1
			c0.1,1.5,0.4,2.9,0.8,4.3c0,0.2,0,0.5,0,0.7l-5.9,0l-0.4-1.7c-0.1-0.5-0.2-0.9-0.2-1.4l-0.1-0.2c0,0,0-0.1,0-0.1c0,0,0,0,0,0
			c-0.1-1.2-0.3-2.3-0.4-3.5c0-0.3,0-0.5-0.1-0.8c-0.1-2.2-0.1-4.4-0.2-6.6c0.1-0.4,0.1-0.8,0.1-1.2c0.2-2.1,0.4-4.3,0.6-6.4
			c0.1-0.3,0.1-0.7,0.2-1c0-0.1,0-0.1,0-0.2c0.1-0.8,0.3-1.6,0.4-2.3c0.3-1.3,0.7-2.6,1-3.9c0-0.2,0.1-0.3,0.1-0.5
			c0.5-1.5,1.1-2.9,1.6-4.4l0,0l0.1,0l0-0.1l0.2-0.4c1.6-3.5,3.4-6.9,5.5-10.1c0.2-0.2,0.4-0.4,0.5-0.7c0.3-0.3,0.6-0.6,0.8-1
			l0.2-0.2c2.6-3.2,5.4-6.2,8.5-9c0.1,0,0.1,0,0.1-0.1l6.1-4.6l0.2-0.1c0.7-0.4,1.4-0.8,2.1-1.3l0.5-0.3L158,60c0,0,0.1,0,0.1,0
			l0.3-0.1c0,0,0.1,0,0.1,0c0,0,0,0,0,0c0.8-0.3,1.6-0.7,2.4-1.2l0.8-0.4l0.1,0l0-0.1l0,0l6.6-2.7c0.2,0,0.4-0.1,0.5-0.2l4.2-1.4
			l0.7-0.2l4-1c0.4-0.1,0.9,0.3,1.2-0.3l0-0.1l0.4-0.1c0.3,0,0.6,0,0.9-0.2c1.5,0.1,2.9-0.7,4.5-0.7l0.3-0.1l0-0.1l1.1,0
			c0.4,0,0.8,0.2,1.1-0.2c1.7-0.2,3.4-0.3,5.2-0.3c0.1,0.6,0.6,0.4,0.9,0.4c0.7-0.1,1.5,0.4,2.1-0.3l0.9,0c0.1,0.3,0.4,0.2,0.6,0.1
			l2.4,0l0.6,0l0.7,0.1l3.1,0.6c0,0.1,0.1,0.1,0.2,0L206,52l0.2,0.2c0,0.1,0.1,0.1,0.2,0l0.7,0.1l3.8,1.3l0.4,0.2l0.2,0.2l0.2,0.1
			l0.5,0.2c0,0.3,0.1,0.5,0.4,0.2l1.8,0.9l0.4,0.1c1.2,0.7,2.4,1.4,3.5,2.3l0.2,0.3c0.3,0,0.6,0.1,0.7,0.4c-0.3,0.3-0.3,0.7,0,1
			c0,0,0.1,0.1,0.1,0.1c0.4,0.4,0.3-0.5,0.7-0.5c0.4,0.2,0.7,0.6,1,0.8c0.1,0.2-0.3,0.5,0,0.7c0.2,0.1,0.5,0,0.6-0.3
			c0.1,0,0.1,0.1,0.1,0.1l0.2,0.2c0.3,0.1,0.5,0.4,0.7,0.6c0,0.4,0,0.8,0.6,0.5l0.3,0.3c-0.2,0.1-0.3,0.2-0.2,0.4
			c0.2,0.4,0.5,0.3,0.8,0.2l1.1,1.1c-0.4,0.9,0.2,0.7,0.6,0.7c0.5,0.5,1,1,1.4,1.6c0,0.3,0,0.6,0.4,0.5l0.5,0.8l0.2,0.2
			c0.2,0.1,0.3,0.3,0.4,0.6c-0.2,0.1-0.5,0.2-0.4,0.5c0.2,0.4,0.6,0.3,0.9,0.3c0.4,0.8,1.1,1.3,1.4,2.1c-0.6,0.8,0,0.8,0.5,0.8
			c0,0,0.1,0,0.1,0l0.2,0.4l1.5,2.9c-0.4,0.5-0.1,0.7,0.4,0.8c0.5,0.8,0.9,1.7,1.1,2.7c0,0.3-0.3,0.5-0.1,0.7c0.2,0.2,0.3,0,0.4-0.2
			c0.5,0.9,0.8,1.8,1.1,2.8c-0.3,0.3-0.1,0.3,0.2,0.4c0.3,1,0.6,2,1,2.9c-0.2,0.1-0.1,0.2,0.1,0.2l0.3,0.8c0,0-0.1,0.1-0.1,0.1
			c0,0,0.1,0.1,0.1,0.1l0,0c-0.1,0.2-0.3,0.5,0.2,0.6c0.2,0.3,0.3,0.7,0.2,1l0.1,0.3c0.1,0.2,0.2,0.5,0.2,0.8
			c-0.3,0.4-0.2,1,0.2,1.3c0,0,0.1,0,0.1,0.1c0.1,0.3,0.1,0.5,0.2,0.8c0,0-0.1,0.1-0.1,0.1c0,0,0.1,0.1,0.1,0.1L239,92
			c0,0.2,0,0.4,0,0.6c-0.4,0.4-0.1,0.6,0.2,0.8l0.2,0.6l0.6,4.6l0.1,0.3l0.1,0c0,0.2,0,0.4,0,0.6c-0.3,0-0.6,0-0.5,0.4
			c0,0.5,0.3,0.6,0.7,0.5c0,0.5,0,0.9,0,1.4l0.1,0.2c0.2,1.4,0.3,2.8,0.2,4.3v0.2c0,0.1,0,0.1,0,0.2c0,0.1,0,0.3,0,0.4
			c-0.2,0.4-0.5,0.9,0.1,1.2c0,0.4,0.1,0.8,0.1,1.3c0,2.4,0.1,4.9-0.2,7.3c-0.1,1.1-0.1,2.2-0.2,3.3c-0.4,1.2-0.5,2.4-0.4,3.7l0,0.4
			c-0.1,0.9-0.3,1.8-0.4,2.7c0,0.1-0.1,0.2-0.1,0.3c-0.2,0.9-0.3,1.9-0.3,2.8c-0.1,0.9-0.2,1.8-0.2,2.7l0,0.4c0,0.1,0,0.2,0,0.3
			c-0.4,0.2-0.3,0.5-0.3,0.8c0,1.1-0.1,2.1-0.3,3.2c-0.3,0.1-0.3,0.2-0.1,0.4c0,0.3,0,0.5,0,0.8c-0.3,1.5-0.5,3.1-0.5,4.7
			c0,0.2,0,0.4,0,0.6c0,0,0,0.1,0,0.2c-0.1,1-0.2,2-0.3,2.9c-0.4,0.2-0.4,0.4,0,0.6c0,0.2,0,0.4,0,0.6c-0.1,0.2-0.2,0.5-0.1,0.8
			l0,0.8c-0.1,0.3-0.3,0.6-0.2,1c0,0.1,0,0.3,0,0.4l-0.1,4.3c-0.1,0.4-0.1,0.9,0,1.4c-0.2,5.2-0.1,10.4,0.3,15.6
			c0.1,1.8,0.3,3.5,0.6,5.3c0.1,1,0.2,2,0.3,2.9c-0.4,0.4,0,0.7,0.2,1c0.1,0.3,0.2,0.7,0.3,1c0,0.3,0.1,0.6,0.1,0.9
			c0,0-0.1,0.1-0.1,0.1c0,0,0.1,0.1,0.1,0.1c0.2,0.5,0.3,0.9,0.2,1.4c0,0.1,0.1,0.2,0.1,0.3l0.2,0.6c0,0.2,0,0.4,0,0.7l0.1,0.3
			c0.5,2.8,1.4,5.5,2.5,8l0.1,0.5l0.1,0.2l0.1,0c0.2,0.9,0.6,1.7,1,2.5l0.1,0.4c0,0.2,0,0.3,0.2,0.4c0.2,0.9,0.9,1.4,1.1,2.3
			c0,0.4-0.1,0.9,0.5,1l0.2,0.4c0,0.3,0,0.6,0.4,0.6c0.2,0.2,0.3,0.4,0.4,0.7c0,0.3-0.1,0.6,0.4,0.7l1.1,1.6c0,0.3,0.2,0.6,0.5,0.6
			l0.1,0.3c0,0.5-0.1,1.1,0.7,1c0.2,0.1,0.3,0.3,0.4,0.5c0,0.2,0.1,0.3,0.3,0.3c0.4,0.3,0.6,0.8,0.7,1.3c0,0.8,0.5,0.9,1.1,0.9l0,0
			c0,0.2,0,0.4-0.1,0.7c-0.1,0.4-0.2,0.8,0.3,0.9s0.5-0.3,0.5-0.7C252.6,212.8,253.3,213.2,253.6,214 M239.9,106
			c0-0.1,0-0.3-0.2-0.3s-0.2,0.2-0.2,0.3s0,0.3,0.2,0.3S239.9,106.2,239.9,106 M214.9,62c0.1-0.1,0.1-0.2,0.2-0.2c0,0,0-0.1,0-0.2
			c-0.1,0-0.2,0-0.2,0.1S214.8,61.9,214.9,62"/>
		<path id="Path_13731" class="st3" d="M56.7,200.4c0,35,0,70,0,105.1c-0.3,0-0.5-0.2-0.6-0.5c-0.1-0.6-0.2-1.1-0.2-1.7
			c0-32.7,0-65.4,0-98.1c0-1.5,0.4-2.9,0.4-4.3C56.4,200.5,56.5,200.4,56.7,200.4"/>
		<path id="Path_13732" class="st4" d="M199.7,309.9c0-1.1,0.7-2.1,0.6-3.2c0-1,0.3-2.1,0.3-3.1c0-33.5,0-67,0-100.4
			c0.1-2-0.1-4-0.6-6c-0.1-0.5-0.1-1-0.1-1.5c0.6,0.1,1,0.7,0.9,1.3c0,0,0,0.1,0,0.1c-0.1,0.9,0,1.7,0.3,2.5c0.2,1,0.2,1.9,0,2.9
			c0,0.4-0.1,0.7,0,1.1c0,32.6,0,65.2,0,97.8c0,1.7,0.1,3.3,0.3,5c0.1,0.5,0,1-0.3,1.5C200.4,308.4,200.8,309.6,199.7,309.9"/>
		<path id="Path_13733" class="st5" d="M233,230.1c-0.1,1.6,0.1,3.2,0.6,4.7c-0.3,0-0.6,0-0.9,0s-0.5-0.1-0.4-0.5
			c0.2-1.9-0.4-3.8-0.2-5.7c0.1-0.8,0-1.6,1.1-1.7c0.4-0.1,0.4-0.5,0.4-0.9c0-1-0.3-2.1,1.2-2.3c0.1-0.9,0.8-1.6,1.7-1.8
			c0-1.7,1.2-1.2,2.1-1.3c0.5,0,0.9-0.1,0.9-0.8c0-0.5,0.4-0.9,0.9-0.8c0,0,0.1,0,0.1,0c0.8,0,1.6,0,2.4,0c0.4,0,0.7-0.3,0.8-0.7
			s0.1-0.9,0.6-0.8c0.6,0,1.2-0.3,1.7,0.4c-2.4,1.2-4.7,2.4-7.1,3.6c-3.3,1.6-5.5,4.7-5.8,8.4C233,229.9,233,230,233,230.1"/>
		<path id="Path_13734" class="st5" d="M238.9,203.1c0.2,0.6,0.4,1.3,1,1.6c0.5,0.2,0.1,0.8,0.3,1.1c0,0.2,0.2,0.3,0.3,0.4
			c0.1,0.2,0.2,0.4,0.3,0.5c0.4,0.8,0.9,1.6,1.4,2.3c0.2,0.5,0.5,0.9,0.9,1.3c0.1,0.1,0.1,0.2,0.2,0.3c0.3,0.6,0.6,1.1,1.1,1.6
			c0.1,0.3,0.3,0.6,0.6,0.8c0.1,0.1,0.2,0.2,0.3,0.4c0.1,0.3,0.4,0.6,0.6,0.8c0.2,0.4,0.5,0.7,0.8,1c0.1,0.3,0.3,0.5,0.6,0.6
			c0.1,0.3,0.4,0.5,0.7,0.7l0.2,0.4c-0.5,0.3-1,0.5-1.5,0.7c0-0.7,0.3-1.7-0.9-1.6c-0.1,0-0.2-0.1-0.2-0.2c-0.1-0.8-0.8-1.5-1.6-1.6
			c-0.1,0-0.1-0.1-0.1-0.1c0-1.2-1.2-1.9-1.3-2.8c-0.1-1.1-0.7-1.3-1.2-1.9c-0.6-0.6-1.2-1.3-1.6-2c-0.1-0.2-0.2-0.5-0.2-0.7
			c0-0.9,0-1.5-1-1.8c-0.6-0.2-0.4-1.2-0.4-1.8c-0.1-0.8-0.3-1.1-1-1.2c-0.3,0-0.5-0.1-0.5-0.4c0.2-1-0.1-1.9,0-2.9
			c0-0.1,0.2-0.2,0.2-0.3c0.6,1.6,1.3,3.2,2.1,4.7C238.9,203,238.9,203,238.9,203.1"/>
		<path id="Path_13735" class="st5" d="M242.5,255.5c1.2,2.7,2.4,5.4,3.5,8.1c1.5,3.7,4,5.9,7.8,6.6c0.1,0,0.2,0.1,0.3,0.1
			c-0.1,0.5-0.5,0.4-0.8,0.4c-0.9-0.2-1.8-0.2-2.6,0c-0.6,0.1-1.1,0-1-0.8c0.1-0.3-0.2-0.7-0.5-0.7c0,0,0,0-0.1,0
			c-0.1-0.1-0.3-0.1-0.4-0.1c-0.9-0.1-0.1-1.3-0.9-1.3c-0.6-0.1-1.2-0.1-1.1-1c0-0.4-0.2-0.6-0.6-0.6c-0.7,0-0.9-0.5-0.9-1.2
			c0-0.4,0-0.7,0-1.1c0-0.5-0.1-0.9-0.7-0.9s-0.7-0.4-0.8-0.9c0-0.5,0-1,0-1.6c-0.1-0.8-0.1-1.7-1.1-2.1c-0.7-0.3-0.4-1-0.4-1.5
			C242.4,256.3,242.5,255.9,242.5,255.5"/>
		<path id="Path_13736" class="st5" d="M202.7,57.6l0.4,0.2c-0.1,0.2-0.3,0.3-0.6,0.3c-1.6,0.1-3.1,0.2-4.7,0.2
			c-1.2-0.1-2.5-0.2-3.7-0.4c-0.9-0.1-1.8,0.4-2.8,0.4c-0.6,0-1.1-0.1-1.7-0.1c-1.5-0.1-2.9,0.1-4.4,0.1c-0.3,0-0.7,0-0.8-0.5
			c1.8-0.4,3.6-0.7,5.4-0.8c4.1-0.3,8.2-0.1,12.2,0.6C202.3,57.6,202.5,57.6,202.7,57.6"/>
		<path id="Path_13737" class="st6" d="M249.3,208.8c-0.1-0.2-0.2-0.4-0.4-0.5c-0.1-0.4-0.4-0.7-0.7-1c0-0.1,0-0.2-0.1-0.3
			c0.7-0.2,1.4-0.6,1.4,0.7c0,0.1,0.1,0.2,0.1,0.2c1.1,0,1.3,0.8,1.5,1.7c1,0,1.3,0.7,1.5,1.6c0.1,0.4,0.5,0.3,0.9,0.1
			c0.4-0.2,0.7-0.2,0.5,0.4c-0.2,0.5-0.1,1.1,0.5,1.1c0.5,0.1,1.2,0,1.1-0.9c0-0.7,0.4-0.9,0.9-0.7c1,0.3,1.8-0.4,2.8-0.2
			c0.2,0,0.5-0.4,0.7-0.7c0.4-0.6,1.2-0.8,1.8-0.4c0.1,0,0.1,0.1,0.2,0.1c-2,1.1-4,2.2-6.1,3.1c-0.7,0.3-1.3,0.9-2.2,0.8
			c-0.3-0.8-1.1-1.2-1.5-1.9c-0.2-0.3-0.5-0.6-0.8-0.9l0,0c-0.2-0.4-0.6-0.8-1.1-0.9c0-0.6-0.4-0.9-0.7-1.3L249.3,208.8"/>
		<path id="Path_13738" class="st5" d="M279.6,259.5c2.8-1.4,5.7-2.8,8.5-4.2c1.4-0.7,2.8-1.3,4.2-2c0,0.3,0,0.5,0,0.8
			c0.1,0.8-0.2,1.1-1,1c-0.3,0-0.6,0-0.9,0c-0.7-0.1-1.2,0.1-1.1,1c0,0.5-0.3,0.6-0.7,0.6s-0.8,0-1.2,0c-0.6,0-1.1,0-1.1,0.9
			c0,0.5-0.5,0.7-1,0.7s-0.9,0-1.3,0c-0.3,0-0.8,0.1-0.8,0.4c0.1,1.2-0.8,1-1.3,1.1C281.2,259.7,280.4,259.6,279.6,259.5"/>
		<path id="Path_13739" class="st5" d="M235.2,238.6c1,1.9,1.8,3.9,2.6,5.9c1.1,2.5,2.1,5,3.2,7.5c-1.6,0-1.8-0.3-1.5-1.9
			c0.1-0.7,0-1.3-0.8-1.3c-0.5,0-0.7-0.2-0.6-0.7c0-0.6-0.1-1.2-0.2-1.8c0-0.3-0.1-0.6-0.4-0.6c-1.2,0-1-0.9-1-1.6
			c0-0.9,0-1.7-1.1-1.8c-0.3,0-0.4-0.4-0.4-0.7C234.9,240.5,234.9,239.5,235.2,238.6"/>
		<path id="Path_13740" class="st5" d="M132.2,97.6c1-3.8,2.5-7.4,4.6-10.7c0.6-1.1,1.3-2.2,2.1-3.2c0.8,0.2,0.5,0.7,0.1,0.9
			c-1.1,0.6-1,1.7-1,2.7c0,0.5-0.1,0.6-0.5,0.6c-0.7-0.1-0.9,0.4-0.8,1c0.1,1-0.1,1.9-1.2,2.1c-0.3,0.1-0.4,0.3-0.4,0.7
			c0,0.4,0,0.8,0,1.2c0.1,0.7,0.1,1.3-0.8,1.1c-0.3-0.1-0.5,0.2-0.5,0.6c0,0.5,0,1,0,1.6C133.6,97.5,133.5,97.6,132.2,97.6"/>
		<path id="Path_13741" class="st4" d="M240.7,116.8c0.2-2.4,0.2-4.9,0.2-7.3c0-0.4,0-0.8-0.1-1.3c0-0.4,0.1-0.8-0.1-1.2
			c0-0.1,0-0.3,0-0.4c0.6-0.1,1.2,0.3,1.3,0.9c0,0.1,0,0.1,0,0.2c0.4,1.4,0.4,2.8,0.3,4.2c-0.1,1-0.1,1.9,0,2.9
			C242.3,115.7,241.6,116.5,240.7,116.8"/>
		<path id="Path_13742" class="st5" d="M229.4,81.3c0,0.1,0.1,0.2,0.1,0.3c0,0.1,0.1,0.1,0.1,0.2c0.2,0.5,0.4,1,0.6,1.6l0.1,0.3
			c-0.1,0.4,0.3,0.7,0.3,1.1c-0.4,0-0.8-0.1-1.2-0.2c-0.3-0.1-0.5-0.3-0.3-0.6c0.3-0.6-0.2-1.2,0-1.8c0.1-0.2,0-0.5-0.3-0.5
			c0,0-0.1,0-0.1,0c-1.2-0.1-1.1-1.2-1.2-2c-0.1-0.8-0.1-1.3-1-1.4c-0.6-0.1-0.6-0.7-0.5-1.2c0.2-0.9,0.4-1.7-0.9-1.7
			c-0.4,0-0.4-0.6-0.5-0.9s-0.1-0.7-0.5-0.9c-0.8-0.3-1.2-1.1-0.9-1.9c0,0,0-0.1,0-0.1c0-0.2,0-0.3,0-0.5l1.1,1.3l0,0l0.2,0.3
			c0,0.1,0,0.1,0.1,0.1l0.4,0.6c0.3,0.5,0.6,1.1,1,1.5c0,0.2,0.2,0.4,0.3,0.6l2,3.9l0.2,0.4c0.1,0.5,0.3,0.9,0.6,1.4L229.4,81.3"/>
		<path id="Path_13743" class="st5" d="M139.4,82.9c2.5-3.5,5.5-6.6,8.9-9.3c-0.2,0.8-0.2,1.6-1.2,2c-0.6,0.4-1.2,1-1.6,1.6
			c-0.4,0.5-0.6,1.2-1.3,1.4c-0.2,0.1-0.2,0.3-0.2,0.5c0,0.6-0.4,0.8-0.8,0.9c-0.1,0-0.3,0-0.3,0c-0.2,1.2-1.7,1.1-1.9,2.4
			C140.8,83.1,140.1,83.3,139.4,82.9"/>
		<path id="Path_13744" class="st7" d="M143.8,69.4c-3.1,2.8-5.9,5.8-8.5,9c-0.2-0.6-0.2-1.4,0.2-2c0-0.1,0.2-0.3,0.2-0.3
			c1.3,0.5,0.8-0.9,1.1-1.3c0.2-0.3,0.2-0.7,0.7-0.8c0.4,0,0.7-0.3,0.8-0.7c0.1-0.4,0.4-0.7,0.8-0.9c0.1-0.1,0.4-0.1,0.4-0.2
			c0.3-1.4,1.8-1.4,2.5-2.4C142.3,69.2,143.1,69,143.8,69.4"/>
		<path id="Path_13745" class="st7" d="M225.2,63.7l-1.1-1.1c-0.1-0.3-0.3-0.5-0.5-0.6l-0.3-0.3c-0.1-0.2-0.3-0.4-0.6-0.5
			c-0.2-0.3-0.4-0.5-0.7-0.6c0-0.1,0-0.1,0-0.2c0.7-0.6,1.1-0.6,1.3,0.3c0.1,0.5,0.2,0.7,0.7,0.7c1,0,0.5,1.2,1.1,1.5
			c0.6,0.2,1.4,0,1.2,1.1c-0.1,0.4,0.2,0.6,0.5,0.6c0.4-0.1,0.8,0.1,0.9,0.5c0,0.1,0,0.2,0,0.3c0,0.6,0.3,0.8,0.8,0.8
			c0.4,0,0.6,0.1,0.5,0.7c-0.1,0.6,0.2,1.1,0.9,1c0.8-0.1,0.8,0.3,0.7,0.8c-0.2,0.7,0.1,0.9,0.5,1.2c0.7,0.4,0.9,1.3,0.5,2
			c0,0,0,0,0,0.1c0,0-0.1,0-0.1,0c-0.1-0.3-0.3-0.6-0.5-0.8c-0.3-0.8-1-1.4-1.4-2.1c-0.1-0.3-0.3-0.6-0.5-0.8
			c-0.1-0.2-0.2-0.4-0.4-0.6l-0.2-0.2l-0.5-0.8c-0.1-0.2-0.2-0.4-0.4-0.5c-0.4-0.6-0.9-1.1-1.4-1.6
			C225.7,64.1,225.5,63.9,225.2,63.7"/>
		<path id="Path_13746" class="st5" d="M263.6,267.3c3.1-1.7,6.3-3.2,9.6-4.7c0,0.3,0,0.7,0,1c0.1,0.7-0.3,1-0.9,0.7
			c-0.5-0.2-1,0.1-1.5,0.1c-0.6,0-0.7,0.6-0.8,1.1c-0.1,0.3-0.4,0.4-0.6,0.4H268c-0.4-0.1-0.8,0.2-0.9,0.7c0,0,0,0.1,0,0.1
			c0,0.4-0.2,0.7-0.6,0.7C265.5,267.6,264.5,267.6,263.6,267.3"/>
		<path id="Path_13747" class="st7" d="M133.9,80.3c-2.1,3.2-4,6.6-5.5,10.1c-0.9-0.6-0.4-1.5-0.3-2.3c0-0.3,0.3-0.2,0.5-0.1
			c0.7,0.1,0.9-0.1,0.8-0.9c-0.1-0.5-0.1-1.1,0.1-1.6c0.1-0.4,0.3-0.7,0.7-0.7c0.9,0,0.9-0.5,0.9-1.2c0-0.4,0-0.8,0-1.3
			c0-0.3,0.1-0.5,0.4-0.4c0.7,0.3,0.8-0.3,1-0.7C132.7,80,132.7,80,133.9,80.3"/>
		<path id="Path_13748" class="st4" d="M184.1,324.9c0.8-0.7,1.8-0.6,2.6-0.9c3.8-1.4,7.1-4,9.5-7.3c0.1-0.2,0.3-0.3,0.5-0.3
			c0,0.3-0.1,0.6-0.3,0.8c-0.3,0.4-0.5,0.8,0,1.2c0.2,0.1,0.3,0.3,0.1,0.6c-0.1,0.2-0.4,0.2-0.5,0.1c0,0,0,0,0,0
			c-0.4-0.4-0.6-0.2-0.9,0.1c-1.2,1.2-2.5,2.2-3.9,3.1c-0.2,0.1-0.4,0.2-0.4,0.4c-0.2,1.1-1,1-1.8,1c-0.6-0.1-1.1,0.3-1.3,0.8
			c-0.4,0.8-1.2,0.8-1.8,0.9C185.3,325.3,184.7,325.2,184.1,324.9"/>
		<path id="Path_13749" class="st5" d="M234.9,114.2c0.1,1.2-0.3,2.5-0.2,3.7c0,0.3-0.1,0.6,0.1,0.8c0,0,0,0.1,0,0.1
			c-0.3,0.9-0.5,1.8-0.4,2.7c-0.2,1.5-0.3,2.9-0.6,4.4c-0.2,0-0.3-0.1-0.3-0.4c0.1-2.1,0.2-4.3,0.1-6.4c0.1-1.1,0-2.3-0.1-3.4
			C233.4,114.9,234,114.3,234.9,114.2"/>
		<path id="Path_13750" class="st5" d="M291.9,230.6c-1.5-3.3-3-6.6-4.2-9.9c1.4,0,1.6,0.2,1.5,1.7c0,0.3,0,0.6,0,1
			c0,0.4,0.2,0.7,0.7,0.5c0.7-0.3,0.8,0.1,0.9,0.6c0.1,0.4,0.1,0.8,0.1,1.2c0,0.7,0.1,1.2,0.8,1.5c0.7,0.3,0.6,1.2,0.6,1.8
			C292.2,229.5,292.6,230.2,291.9,230.6"/>
		<path id="Path_13751" class="st5" d="M231.9,177.1c0,0.6,0.1,1.2,0.1,1.8c-0.9,0-1.3-0.6-1.3-1.6c-0.1-1.7,0.2-3.4-0.1-5.1
			c-0.2-1.1,0.3-2.3,0.1-3.5c-0.1-0.9-0.1-1.8,0-2.7c0-0.2,0.1-0.5,0.3-0.5c0.1,2,0.1,3.9,0.2,5.9c0.1,1.8,0.4,3.6,0.6,5.4
			C231.9,177,231.9,177.1,231.9,177.1"/>
		<path id="Path_13752" class="st6" d="M237.4,172.4c-0.4-5.2-0.6-10.4-0.3-15.6c1.1,0.5,0.9,1.6,0.8,2.5c-0.1,1.4-0.1,2.7-0.2,4.1
			c-0.1,1.8,0,3.6,0,5.4c0,1,0,1.9,0,2.9C237.7,172,237.8,172.3,237.4,172.4"/>
		<path id="Path_13753" class="st4" d="M193.8,181.6c-0.8-0.5-0.9-1.4-1.3-2.2c-2.1-3.8-3.8-7.8-6-11.5c-0.1-0.2-0.1-0.4-0.1-0.6
			c1,0.2,1,1.2,1.5,1.8c0.8,1.3,1.1,2.9,2.2,4c0.3,0.4,0.5,0.9,0.5,1.4c0.1,0.7,0.4,1,1,1.1c0.3,0,0.5,0.1,0.5,0.5
			c-0.3,1.1,0.2,2.2,1.2,2.8c0.2,0.1,0.3,0.3,0.3,0.5C193.7,180.3,193.7,180.9,193.8,181.6"/>
		<path id="Path_13754" class="st5" d="M234,97.7c0.3,2.4,0.5,4.7,0.8,7.1c0.1,1.2,0.1,2.4,0.2,3.6c-1.3,0.1-1-1.1-1.2-1.8
			c-0.5-1.2-0.4-2.6,0.2-3.8c0.2-0.3,0-0.5-0.1-0.8c-0.4-0.6-0.4-1.4-0.2-2.1c0.2-0.4,0.2-0.9,0.1-1.3c-0.2-0.4-0.1-0.8,0.2-1.1
			C233.9,97.6,234,97.6,234,97.7"/>
		<path id="Path_13755" class="st7" d="M221,59.8c-0.4-0.3-0.6-0.7-1-0.8c-0.2-0.3-0.5-0.5-0.8-0.6c-0.2-0.2-0.4-0.4-0.7-0.4
			c0-0.1-0.1-0.2-0.2-0.3c-1.1-0.8-2.3-1.6-3.5-2.3c0-0.4,0.4-0.4,0.6-0.4c0.4,0.1,0.9,0.2,1.4,0.2c0.3,0,0.5,0.2,0.6,0.4
			c0,0.1,0,0.1,0,0.2c-0.1,0.7,0.3,0.8,0.8,0.8c0.6-0.1,1.1,0.3,1.7,0c0.4-0.1,0.4,0.3,0.4,0.7c-0.1,0.7,0.2,1,0.9,1.1
			c1.1,0.2,0.2,1,0.2,1.5L221,59.8"/>
		<path id="Path_13756" class="st4" d="M183.6,161.3c-0.8-0.6-1-1.6-1.5-2.5c-0.9-1.7-1.8-3.5-2.7-5.2c-0.6-1-1.1-2.1-1.5-3.3
			c0.7,0.1,1.1,0.3,1.2,1.2c0,0.7,0.4,0.9,1.1,0.6c-0.6,0.7,0,1.2,0.1,1.8c0.1,0.6,0.3,1.2,1.1,1.2c0.3,0,0.4,0.3,0.4,0.6
			c-0.1,1.1,0.3,2.2,1.1,3C183.3,159.5,183.6,160.4,183.6,161.3"/>
		<path id="Path_13757" class="st5" d="M295.3,250c0.3-0.7,0.5-1.3,0.8-1.9c0.8-1.8,0.5-3.7,0.6-5.6c0.4,0.1,1.1-0.3,1.3,0.4
			c0.4,0.9,0.3,1.9-0.1,2.8c-0.3,0.4-0.3,0.9,0,1.3c-1.1-0.4-1.3,0.3-1.2,1c0,0.5,0,0.9,0,1.4C296.6,250.3,296.1,250.6,295.3,250"/>
		<path id="Path_13758" class="st5" d="M150,72.3c2.2-1.8,4.6-3.4,7.1-4.7c0,0.4,0,0.7,0,1.1c-0.1,0.3-0.2,0.6-0.6,0.4
			c-0.5-0.2-0.7,0-0.8,0.4c-0.4,1.1-1.4,1.1-2.2,1.1c-0.5,0-0.8,0-0.7,0.6c0.1,0.7-0.3,0.9-0.8,1C151.3,72.4,150.6,72.4,150,72.3"/>
		<path id="Path_13759" class="st6" d="M242.1,195.1c-1.1-2.6-2-5.3-2.5-8c0-0.1-0.1-0.2-0.1-0.3c0-0.2,0-0.4,0-0.7
			c1.3,0.5,1.6,1.1,1.3,2.8c-0.4,1,0,2.1,0.9,2.6c0.5,0.3,0.7,0.9,0.5,1.5c-0.1,0.5-0.1,1,0.1,1.5
			C242.3,194.7,242.3,195,242.1,195.1C242.1,195.1,242.1,195.1,242.1,195.1"/>
		<path id="Path_13760" class="st5" d="M234.9,192.5c0,0.1,0,0.2,0,0.3c0,0.3,0.1,0.7,0.3,1c0.4,1.3,0.8,2.6,1.1,3.9
			c-1.3-0.4-1.4-0.5-1.5-2.3c0.1-0.9-0.3-1.7-1.1-2.3c-0.2-0.2-0.3-0.5-0.2-0.8c0.1-0.7,0.1-1.5-0.1-2.2c-0.1-0.4,0-0.8,0.3-1
			c0.3,1,0.6,1.9,0.9,2.9C234.7,192.1,234.8,192.3,234.9,192.5"/>
		<path id="Path_13761" class="st4" d="M177.7,150c-0.8-1.1-1.5-2.3-2-3.6c-1.2-2.3-2.2-4.6-3.5-6.9c-0.2-0.5-0.4-0.9-0.5-1.4
			c1,0.3,0.9,1.6,1.6,2.2c0.1,0.1,0,0.2,0.1,0.3c1.3,0.8,1,2.6,2,3.6c0.3,0.4,0.5,0.8,0.6,1.3c0.5,1.1,1,2.1,1.6,3.1
			C177.6,149.1,177.7,149.5,177.7,150"/>
		<path id="Path_13762" class="st5" d="M231.3,150.2c-0.1,2.4-0.2,4.8-0.3,7.2c-0.5-0.3-0.7-0.9-0.5-1.4c0.1-1.5,0.1-3,0-4.5
			c0-1.3,0.1-2.6,0.2-3.9c0.1-0.9,0.6-0.3,0.8-0.4c0,0.8-0.1,1.7-0.1,2.5C231.3,149.9,231.3,150,231.3,150.2"/>
		<path id="Path_13763" class="st7" d="M150,64.7l-6.1,4.6c-0.1-0.9-0.1-1.8,1.2-1.7c0.1,0,0.2-0.1,0.2-0.1c0.1-1.2,1.3-1.1,1.8-1.9
			c0.4-0.9,1.4-1.3,2.3-0.9C149.6,64.7,149.8,64.7,150,64.7"/>
		<path id="Path_13764" class="st7" d="M237.5,86.3l-0.3-0.8l-0.1-0.2l-1-2.9c-0.1-0.1-0.1-0.3-0.2-0.4c-0.3-1-0.6-1.9-1.1-2.8
			l-0.1-0.5l0.1-0.1c0.7,0,1.3-0.1,1.2,1.1c0,0.8,0.2,1.5,0.7,2.1c0.8,0.9,1.1,2.2,0.8,3.5c-0.1,0.4,0.3,0.8-0.1,1.2
			c0,0-0.1-0.1-0.1-0.1l0,0L237.5,86.3z"/>
		<path id="Path_13765" class="st4" d="M171.6,137.9c-0.8-0.4-0.9-1.3-1.2-1.9c-1.2-2.5-2.9-4.7-5-6.5c-0.4-0.3-0.7-0.6-0.9-1
			c0.8-0.1,1.2,0.2,1.7,0.9c0.6,0.9,1.5,1.5,2.2,2.4c1.4,1.5,2.4,3.3,3.1,5.2C171.6,137.3,171.6,137.6,171.6,137.9"/>
		<path id="Path_13766" class="st7" d="M124.8,103.3l-0.6,6.4c-0.9-0.1-0.8-0.8-0.8-1.5c0.2-1.2,0.2-2.5,0-3.7
			C123.2,103.8,123.7,103.3,124.8,103.3"/>
		<path id="Path_13767" class="st5" d="M232.6,182.2l0.2,1c0,0.1,0,0.2,0.1,0.3c-0.1,0.2,0,0.5,0.1,0.7c0,0.1,0,0.1,0,0.2
			c0,0.1,0.1,0.3,0.1,0.4l0.1,0.4c0,0.2,0,0.4,0.1,0.6c0.4,0.5,0.5,1.2,0.3,1.8c-1.2,0.1-1.5-0.1-1.5-1.3c0.1-1.5,0.1-3.1,0-4.6
			c0-0.3,0-0.5,0.3-0.6c0.1,0.3,0.1,0.5,0.2,0.8C232.6,181.9,232.6,182.1,232.6,182.2"/>
		<path id="Path_13768" class="st5" d="M209.1,59.6l4,2l1,0.7c-0.6,0.6-1.3,0.4-2,0.4c-0.3,0-0.4-0.2-0.4-0.5c-0.1-0.9-0.7-1-1.3-1
			c-1.7,0.1-1.7,0.1-1.4-1.6L209.1,59.6"/>
		<path id="Path_13769" class="st7" d="M234.6,78.7c-0.2-1-0.6-1.9-1.1-2.7c0-0.3-0.2-0.6-0.4-0.8l-1.5-2.9c1.6,0,1.9-0.5,1.8,2
			c0,0.7,0.1,1.1,0.8,1.3c1.1,0.4,0.5,1.5,0.7,2.3c0,0.2-0.1,0.6,0,0.8l-0.1,0.1L234.6,78.7"/>
		<path id="Path_13770" class="st7" d="M168.3,55.5l-6.6,2.7c-0.2-1.2-0.1-1.3,1-1.3c0.4,0,0.9,0,1.3,0c0.4,0,0.7-0.2,0.9-0.6
			c0.1-0.2,0.1-0.4,0.2-0.5c1-0.5,2.1-0.7,3.2-0.5C168.3,55.2,168.3,55.4,168.3,55.5"/>
		<path id="Path_13771" class="st5" d="M281.7,208.2c-0.7-0.3-1.2-1-1.8-1.4c-0.9-0.5-1.8-1-2.7-1.4c0-0.1,0-0.2,0.1-0.3
			c0.8,0.1,1.7-0.3,2.5,0c0.2,0.1,0.5,0.2,0.5,0.5c0,0.7,0.3,0.9,1,0.9c0.5,0,0.8,0.2,0.6,0.8C281.8,207.7,281.7,208,281.7,208.2"/>
		<path id="Path_13772" class="st6" d="M239.3,130.1c0-0.9,0.1-1.9,0.3-2.8l0.1-0.3l0.4-2.7c0.5,0.1,0.6,0.5,0.5,0.9
			c-0.2,1.4,0.1,2.7-0.3,4.1C240.1,129.8,239.9,130.1,239.3,130.1"/>
		<path id="Path_13773" class="st7" d="M124.1,110.9c0.1,2.2,0.1,4.4,0.2,6.6c-0.7,0-0.9-0.5-1-1.1c-0.1-1.6,0.2-3.3,0.2-4.9
			C123.5,111.2,123.7,111,124.1,110.9C124.1,110.9,124.1,110.9,124.1,110.9"/>
		<path id="Path_13774" class="st5" d="M216.6,63.9c0.3,0.4,0.8,0.7,1.2,1c0.1,0.2,0.3,0.3,0.5,0.4c0.1,0.2,0.3,0.4,0.4,0.5
			c-1.1,0.5-1.8-0.1-2.5-0.9c-0.2-0.3-0.5-0.6-0.8-0.6c-1.3,0.3-0.9-0.7-1-1.3c0-0.2,0-0.3,0-0.5l0.5,0.2c0.1,0.2,0.3,0.3,0.5,0.4
			C215.8,63.4,216.2,63.7,216.6,63.9"/>
		<path id="Path_13775" class="st5" d="M284.7,213.9c-0.4-0.6-0.7-1.2-0.9-1.9c-0.6-1.3-1.3-2.6-2.1-3.8c0.3,0,0.7,0,1,0
			c0.3,0,0.6,0.2,0.7,0.5c0,0,0,0.1,0,0.1c-0.1,1,0.3,2.1,1.2,2.6c0.5,0.3,0,0.9,0.2,1.4C284.9,213.1,284.7,213.5,284.7,213.9"/>
		<path id="Path_13776" class="st7" d="M184.7,51.3c-1.5-0.1-2.9,0.7-4.5,0.7c0.4-1.4,1-1.8,2.3-1.4c0.6,0.1,1.2,0.1,1.8-0.1
			c0.7-0.1,0.8,0,0.7,0.6l0,0.1L184.7,51.3"/>
		<path id="Path_13777" class="st7" d="M239.9,98.5c-0.2-1.5-0.4-3-0.6-4.6c1.3,0.2,1.6,0.6,1.3,2.1c-0.1,0.6-0.1,1.3-0.1,1.9
			c0,0.4,0,0.8-0.5,0.9l-0.1,0C240,98.7,240,98.6,239.9,98.5"/>
		<path id="Path_13778" class="st5" d="M232,142.6c-0.1,1.4-0.2,2.7-0.3,4.1c-0.7,0.1-1-0.1-0.9-0.9c0.1-0.9-0.2-1.8,0-2.8
			c0.1-0.8,0.3-1,0.9-0.5C231.7,142.6,231.8,142.5,232,142.6"/>
		<path id="Path_13779" class="st7" d="M203.6,51.6l-3.1-0.6c0-0.1,0-0.1,0.1-0.2c1,0.1,1.9-0.7,2.9-0.2c0.2,0.1,0.4,0.1,0.6,0.1
			c1.2-0.2,1.4,0,1.9,1.3l-2.2-0.4L203.6,51.6"/>
		<path id="Path_13780" class="st7" d="M238.8,91.4c-0.1-0.3-0.1-0.5-0.2-0.8c0-0.5-0.1-0.9-0.3-1.4c0-0.3-0.1-0.5-0.2-0.8
			c0-0.1-0.1-0.2-0.1-0.3c0-0.4,0-0.7-0.2-1v-0.4c1.4,0.2,1.5,0.3,1.5,1.7c0,0.9,0.2,1.8,0.2,2.7c0,0.3,0.2,0.8-0.4,0.8
			c-0.1-0.1-0.1-0.3-0.2-0.4C238.8,91.5,238.8,91.5,238.8,91.4"/>
		<path id="Path_13781" class="st5" d="M233.4,130c-0.1,0.9-0.2,1.7-0.3,2.6c0,0-0.1,0-0.1,0.1l-0.1-0.1c-1.3-0.9-0.5-2.5-0.9-3.6
			c-0.1-0.3,0.2-0.4,0.5-0.4c0.3,0,0.7,0,1,0c0,0.4,0,0.9,0,1.3C233.5,129.9,233.4,129.9,233.4,130"/>
		<path id="Path_13782" class="st7" d="M157.9,60l-5.2,2.9c0.1-1.5,0.2-1.4,2-1.7c0.5-0.1,0.7-0.1,0.8-0.7c0.1-0.7,0.8-0.6,1.3-0.7
			C157.2,59.8,157.6,59.8,157.9,60"/>
		<path id="Path_13783" class="st5" d="M171.6,61l4.3-1.5l0.2,0c-0.1,1.4-0.4,1.7-1.7,1.7c-0.7-0.1-1.4-0.1-2.2,0
			C172,61.4,171.7,61.3,171.6,61"/>
		<path id="Path_13784" class="st5" d="M131.5,124.6c-0.4-1.4-0.7-2.9-0.8-4.3c1.3,0.5,1.5,0.7,1.5,2.1c0,0.6-0.1,1.2-0.2,1.8
			C131.9,124.5,131.8,124.6,131.5,124.6"/>
		<path id="Path_13785" class="st7" d="M177.8,52.7l-4,1c0.3-1.3,1.2-2,2.3-1.6c0.8,0.2,1.7-0.1,2.5,0.3L177.8,52.7"/>
		<path id="Path_13786" class="st6" d="M238.7,182.6c-0.1-0.3-0.2-0.7-0.3-1c0-0.3,0-0.7-0.2-1c-0.1-1-0.2-2-0.3-2.9
			c0.9,0,1.3,0.4,1.3,1.4c-0.1,0.9-0.1,1.8,0,2.8C239.3,182.2,239.1,182.5,238.7,182.6C238.7,182.6,238.7,182.6,238.7,182.6"/>
		<path id="Path_13787" class="st5" d="M130.8,103.7c0.2-1.6,0.5-3.2,1-4.7c0.4,1,0.5,2,0.3,3c0,0.2-0.1,0.4-0.1,0.6
			C132.1,103.6,131.6,103.8,130.8,103.7"/>
		<path id="Path_13788" class="st6" d="M237.8,143.3c0-1.6,0.2-3.1,0.5-4.7c0.6,0.2,1,0.9,0.9,1.5
			C239.2,141.4,238.7,142.5,237.8,143.3"/>
		<path id="Path_13789" class="st7" d="M126.4,95.9c-0.3,1.3-0.7,2.6-1,3.9c-0.4-0.3-0.7-0.8-0.5-1.3c0.1-0.7,0.1-1.4,0-2
			c-0.1-0.7,0-0.8,0.6-0.6C125.8,95.9,126.1,95.9,126.4,95.9"/>
		<path id="Path_13790" class="st5" d="M232.8,91.4c0.3,1.4,0.6,2.9,0.8,4.3c-1.1,0.1-1.2-1-1.3-1.6c-0.3-1.2-0.2-2.5,0.1-3.7
			c0.1,0.1,0.1,0.3,0.2,0.4C232.6,91,232.6,91.2,232.8,91.4"/>
		<path id="Path_13791" class="st4" d="M186.5,167.2c-1-1-1.3-2.4-2-3.6c-0.3-0.7-1-1.2-1-2c0.5-0.1,0.8,0.4,1.3,0.5
			c0.3,0,0.1,0.4,0.1,0.6c-0.2,0.7,0,1.4,0.5,1.8C186.5,165.1,186.4,166.1,186.5,167.2"/>
		<path id="Path_13792" class="st6" d="M246.2,204.2c-0.1-0.3-0.2-0.5-0.4-0.7c-0.1-0.2-0.1-0.5-0.4-0.6l-0.2-0.4c0-0.1,0-0.2,0-0.4
			c0.8-0.4,1.2-0.1,1.3,0.8c0,0.4,0.2,0.7,0.5,1c0.1,0.1,0.3,0.2,0.2,0.4c-0.3,0.7,0.2,0.9,0.6,1.3c0.3,0.3,0.6,0.8-0.2,0.9
			l-1.1-1.6C246.5,204.6,246.4,204.3,246.2,204.2"/>
		<path id="Path_13793" class="st5" d="M204.5,58c1.3,0.4,2.5,0.8,3.7,1.3c0,0.2-0.1,0.5-0.4,0.5c-1.1-0.2-2.2,0-3.2-0.6
			c-0.5-0.3-0.3-0.7-0.3-1.1L204.5,58"/>
		<path id="Path_13794" class="st4" d="M197,315.9c0.4-1.1,1.2-2,1.6-3.1c0.3-0.7,0.6-1.5,1-2.2c0.3,0.6,0,1.2-0.1,1.8
			c0,0.5-0.2,1.2-0.3,1.3C198.2,314.3,198.1,315.7,197,315.9C197,315.9,197,315.9,197,315.9"/>
		<path id="Path_13795" class="st5" d="M180.9,58.2l0.5-0.1l0.3,0l0,0c-0.1,0.9-1,1.5-1.9,1.4c0,0,0,0,0,0c-0.6-0.1-1.2,0-1.7,0.1
			c-0.3,0.1-0.6-0.1-0.7-0.5l1.3-0.4c0.2,0,0.4,0,0.6-0.1c0.3,0,0.6-0.1,0.9-0.2C180.5,58.4,180.7,58.4,180.9,58.2"/>
		<path id="Path_13796" class="st7" d="M173.1,53.9l-4.2,1.4c0.1-1.1,0.7-1.6,1.7-1.5c0.6,0,1.3,0,1.9-0.1
			C172.7,53.6,172.9,53.6,173.1,53.9"/>
		<path id="Path_13797" class="st7" d="M128.1,91l-1.6,4.4c-0.2-1.1-0.2-2.1,0.1-3.2C126.6,91.2,127.4,91.2,128.1,91"/>
		<path id="Path_13798" class="st7" d="M124.4,118.3c0.1,1.2,0.3,2.3,0.4,3.5c-0.9-0.1-1.4-0.9-1.3-1.8c0,0,0,0,0,0
			C123.6,119.3,123.4,118.5,124.4,118.3"/>
		<path id="Path_13799" class="st5" d="M163.9,64.1c1-0.5,2-1,3.1-1.3c-0.2,0.5,0.6,1.1,0.1,1.4c-0.3,0.2-0.9,0-1.4,0.1
			c-0.3,0-0.6,0.1-0.9,0.1C164.5,64.4,164.1,64.7,163.9,64.1"/>
		<path id="Path_13800" class="st7" d="M210.9,53.6l-3.8-1.3c0-0.3,0.2-0.4,0.4-0.3c0.7,0.1,1.3,0.2,2,0.2
			C210.7,52.3,210.8,52.4,210.9,53.6"/>
		<path id="Path_13801" class="st5" d="M256.3,270.3c1.3-0.3,2.5-0.7,3.7-1.2c-0.1,1.6-0.1,1.6-1.6,1.6
			C257.6,270.6,256.9,270.8,256.3,270.3"/>
		<path id="Path_13802" class="st5" d="M296.3,241c-0.5-1-0.9-2-1.3-3.1c1.7,0,1.8,0.1,1.5,1.8C296.4,240.1,297.1,240.7,296.3,241"
			/>
		<path id="Path_13803" class="st4" d="M196.8,187.5c-0.7-0.6-0.9-1.5-1.3-2.3c-0.6-1.1-1.1-2.3-1.7-3.4c0.8,0,1.3,0.3,1.3,1.2
			c0,0.6,0.2,1.2,0.6,1.7C196.3,185.5,196.7,186.5,196.8,187.5"/>
		<path id="Path_13804" class="st7" d="M211.5,54l-0.2-0.2c0.3-0.4,0.7-0.3,1.1-0.2c0.3,0.1,0.7,0.1,1,0.1c1.1-0.1,1.1-0.1,1.1,1.1
			c0,0.2,0,0.4,0,0.6l-1.8-0.9l-0.4-0.2l-0.5-0.2L211.5,54"/>
		<path id="Path_13805" class="st6" d="M271.9,205.5l-3.1,1.4c0.3-0.6-0.1-1.5,0.9-1.7C270.4,205.1,271.2,204.7,271.9,205.5"/>
		<path id="Path_13806" class="st5" d="M167.8,62.5c0.9-0.5,1.9-0.9,2.9-1.1c0.2,1.5,0,1.7-1.5,1.4c-0.4-0.1-0.7-0.1-1.1,0
			C167.9,62.9,167.8,62.7,167.8,62.5"/>
		<path id="Path_13807" class="st3" d="M63.2,182.2c0,0.5-0.2,1.1-0.6,1.5c-0.7,1.2-1.1,2.5-2,3.6c-0.2-0.8,0-1.6,0.6-2.2
			c0.7-0.5,0.7-1.4,1.1-2.2C62.5,182.5,62.7,182.2,63.2,182.2"/>
		<path id="Path_13808" class="st5" d="M273.1,262.6c0.9-0.6,1.9-1.1,2.9-1.4c0,0.4,0,0.8,0,1.2c0,0.3-0.1,0.5-0.4,0.4
			C274.8,262.5,274,263.1,273.1,262.6"/>
		<path id="Path_13809" class="st5" d="M231.5,86.8c0.2,0.7,0.4,1.4,0.6,2.1c0,0.1,0,0.2,0,0.4l-0.1,0.1c-0.7,0-1.3-0.5-1.3-1.3
			c0-0.2,0-0.3,0.1-0.5c0.2-0.6-0.3-1.3,0.2-1.8c0.1,0,0.1,0,0.1,0.1c0,0.1,0,0.1,0.1,0.2c0,0.1,0.1,0.3,0.1,0.4
			C231.3,86.5,231.3,86.7,231.5,86.8"/>
		<path id="Path_13810" class="st5" d="M157.6,67.2c0.8-0.5,1.6-1,2.5-1.3c0,1.7,0,1.7-1.7,1.7C158.1,67.6,157.8,67.6,157.6,67.2"/>
		<path id="Path_13811" class="st5" d="M223,70.3c0,0.1,0,0.1,0,0.2c-0.9,0.3-1.1,0.2-1.3-0.8c0-0.3-0.1-0.5-0.4-0.6
			c-1.2-0.3-1.2-0.3-0.9-1.5l0,0l0.4,0.2l0.2,0.3c0.1,0.2,0.3,0.4,0.5,0.6l0.5,0.6L223,70.3z"/>
		<path id="Path_13812" class="st5" d="M292.2,253.3c1-0.8,1.9-1.8,2.8-2.8c0.2,0.7,0.2,1.2-0.5,1.6c-0.3,0.1-0.5,0.3-0.6,0.6
			C293.6,253.7,292.9,253.5,292.2,253.3"/>
		<path id="Path_13813" class="st5" d="M287.6,220.7c-0.6-1-1-2-1.4-3.1c1.4-0.1,1.4-0.1,1.4,1.4
			C287.6,219.5,287.6,220.1,287.6,220.7"/>
		<path id="Path_13814" class="st3" d="M67.6,173.8c-0.9,1.9-1.9,3.7-2.9,5.5c0.1-1,0.4-1.9,1-2.7c0.4-0.6,0.7-1.3,1-1.9
			C66.7,174.2,67.1,173.8,67.6,173.8"/>
		<path id="Path_13815" class="st3" d="M95.5,126.9c-0.2,0.5-0.8,0.5-1.2,0.8c-1,0.7-2,1.4-3,2.1c0-0.5,0-1,0.7-1
			c0.2,0,0.3-0.1,0.4-0.2C92.9,127,94.4,127.4,95.5,126.9"/>
		<path id="Path_13816" class="st6" d="M237.1,155.5l0.1-4.3c0.2,0,0.4,0.2,0.4,0.3c0.2,1.2,0.2,2.4,0.1,3.7
			C237.7,155.5,237.3,155.4,237.1,155.5"/>
		<path id="Path_13817" class="st3" d="M85.2,138.8c0,0.5-0.3,0.9-0.5,1.3c-0.5,1-1,2-1.5,3.1c-0.1,0.3-0.3,0.5-0.6,0.7
			c0-0.4,0.1-0.9,0.4-1.2c0.5-1.1,1.1-2.3,1.6-3.4C84.7,139,84.9,138.9,85.2,138.8"/>
		<path id="Path_13818" class="st5" d="M286,216.9c-0.5-0.8-0.8-1.6-1.1-2.5c0.5,0.1,1.2-0.3,1.3,0.4
			C286.3,215.5,286.7,216.3,286,216.9"/>
		<path id="Path_13819" class="st5" d="M160.8,65.6c0.8-0.5,1.6-0.9,2.5-1.2c0.1,0.5-0.4,0.9-0.3,1.4c0,0,0,0.1,0,0.1
			C162.2,66,161.5,65.9,160.8,65.6"/>
		<path id="Path_13820" class="st5" d="M241.2,252.7c0.4,0.7,0.8,1.5,1,2.4c-0.5-0.1-1.2,0.3-1.4-0.4
			C240.8,254,240.5,253.2,241.2,252.7"/>
		<path id="Path_13821" class="st5" d="M233.7,235.1c0.5,0.9,0.9,1.8,1.2,2.7c-1.3,0.1-1.4,0-1.4-1.3
			C233.5,236,233.3,235.5,233.7,235.1"/>
		<path id="Path_13822" class="st4" d="M199.7,194.9c-0.4-0.2-0.3-0.6-0.4-0.9c-0.3-0.9-0.6-1.9-0.9-2.8c0.6,0,0.8,0.2,1,0.9
			C199.7,193,200.1,193.9,199.7,194.9"/>
		<path id="Path_13823" class="st6" d="M268.2,207.1c-0.7,0.5-1.5,0.9-2.4,1.2c-0.2-0.6,0.2-1.3,0.7-1.5
			C267.1,206.5,267.8,206.7,268.2,207.1"/>
		<path id="Path_13824" class="st6" d="M244.7,201.5c-0.2-0.9-1-1.4-1.1-2.3c0-0.1,0-0.1,0.1-0.2c1.3-0.1,1.4,0.8,1.4,1.8
			c0,0.3,0.4,0.7-0.1,0.9L244.7,201.5"/>
		<path id="Path_13825" class="st5" d="M260.8,268.6c0.8-0.5,1.7-1,2.6-1.3c-0.2,0.5-0.4,0.9-0.7,1.3
			C262.1,269.3,261.5,269.2,260.8,268.6"/>
		<path id="Path_13826" class="st3" d="M76.2,156.6c-0.5,1.5-1.3,3-2.2,4.3c0.1-0.7,0.3-1.4,0.7-2.1c0.2-0.3,0.4-0.7,0.4-1.1
			C75,156.8,75.5,156.7,76.2,156.6"/>
		<path id="Path_13827" class="st5" d="M232.8,134.7l-0.2,1c-0.7-0.3-0.6-1-0.5-1.5c0.1-0.6-0.2-1.5,0.8-1.6l0.1,0.1
			c0,0.2,0,0.4,0,0.5c0,0.4-0.1,0.8-0.1,1.3C232.9,134.5,232.9,134.6,232.8,134.7"/>
		<path id="Path_13828" class="st5" d="M294.7,237.3c-0.5-0.7-0.8-1.5-1-2.4c0.4,0.1,0.9-0.5,1.1,0.1
			C295.2,235.7,295.1,236.6,294.7,237.3"/>
		<path id="Path_13829" class="st6" d="M238.4,137.5c0.2-1,0.3-2.1,0.3-3.2c0-0.3,0-0.7,0.3-0.8c0.2,1.3,0.2,2.6,0,3.9
			c0,0.3-0.2,0.5-0.5,0.5c0,0,0,0-0.1,0C238.4,137.7,238.4,137.6,238.4,137.5"/>
		<path id="Path_13830" class="st7" d="M160.8,58.6c-0.8,0.5-1.6,0.9-2.4,1.2c0-0.4,0.1-0.8,0.2-1.1c0-0.2,0.1-0.5,0.3-0.4
			C159.5,58.6,160.2,58.2,160.8,58.6"/>
		<path id="Path_13831" class="st4" d="M161.5,126.9c-1-0.3-2-0.7-2.9-1.2C160,125.2,161.3,125.7,161.5,126.9"/>
		<path id="Path_13832" class="st6" d="M265.1,208.6c-0.7,0.5-1.5,0.9-2.3,1.1C262.8,208,263,208,265.1,208.6"/>
		<path id="Path_13833" class="st7" d="M152.2,63.2c-0.6,0.5-1.3,0.9-2,1.3c0-0.4-0.5-1,0-1.1C150.8,63.2,151.5,62.4,152.2,63.2"/>
		<path id="Path_13834" class="st5" d="M277.2,260.7c0.6-0.4,1.2-0.7,1.8-0.9c0,1.4,0,1.4-1.2,1.5
			C277.4,261.3,277.2,261.1,277.2,260.7"/>
		<path id="Path_13835" class="st3" d="M58.8,191.2c-0.2,1.3-0.6,2.5-1.1,3.7c-0.1,0-0.2-0.1-0.2-0.1c0-1.3,0.4-2.5,1.1-3.5
			C58.5,191.2,58.7,191.2,58.8,191.2"/>
		<path id="Path_13836" class="st3" d="M57.3,196.6c-0.1,1.1-0.3,2.1-0.5,3.1c0,0-0.1,0-0.1,0C56,198.7,56.3,197.4,57.3,196.6"/>
		<path id="Path_13837" class="st5" d="M293.1,233.4c-0.4-0.5-0.6-1.1-0.8-1.8c0.6,0,1.3-0.2,1.4,0.8
			C293.7,233,293.6,233.3,293.1,233.4"/>
		<path id="Path_13838" class="st3" d="M98.6,125.8c-1,0.5-2,0.9-3.1,1.2c0-0.3,0.2-0.6,0.5-0.7C96.7,125.7,97.7,125.5,98.6,125.8"
			/>
		<path id="Path_13839" class="st6" d="M240.2,123.8c-0.1-1.2,0-2.5,0.4-3.7c0.3,1,0.3,2.1,0.1,3.2
			C240.6,123.6,240.4,123.8,240.2,123.8"/>
		<path id="Path_13840" class="st6" d="M243.4,198.3c-0.5-0.8-0.8-1.6-1-2.5C243.5,195.9,243.9,196.9,243.4,198.3"/>
		<path id="Path_13841" class="st5" d="M130.3,116.8c-0.2-1.3-0.2-2.6-0.2-3.9c0.1,0,0.1,0,0.2,0
			C130.8,114.2,130.8,115.6,130.3,116.8"/>
		<path id="Path_13842" class="st3" d="M88.1,133.4c-0.3,0.9-0.8,1.8-1.5,2.5c0-0.5,0-1,0.1-1.5C86.8,133.8,87.5,133.3,88.1,133.4"
			/>
		<path id="Path_13843" class="st4" d="M164.5,128.5c-1-0.3-1.9-0.8-2.6-1.6C163,127,164,127.5,164.5,128.5"/>
		<path id="Path_13844" class="st3" d="M79.3,150.4c-0.3,1-0.7,1.9-1.3,2.7C77.8,152,78.4,150.9,79.3,150.4"/>
		<path id="Path_13845" class="st3" d="M74,160.9c-0.3,0.8-0.5,1.8-1.3,2.3C72.5,162.3,73,161.3,74,160.9"/>
		<path id="Path_13846" class="st3" d="M80.8,147.6c-0.2,0.9-0.7,1.7-1.3,2.3c0.1-0.5,0.1-1,0.2-1.5
			C79.8,147.8,80.3,147.8,80.8,147.6"/>
		<path id="Path_13847" class="st5" d="M219,66.1l1.1,0.9l0.4,0.6l0,0c-0.2,0-0.3-0.1-0.5-0.1C218.7,67.3,218.7,67.3,219,66.1"/>
		<path id="Path_13848" class="st4" d="M198.1,190c-0.5-0.6-0.9-1.4-1.1-2.1C197.8,188,198.2,188.8,198.1,190"/>
		<path id="Path_13849" class="st3" d="M69,170.9c-0.3,0.9-0.8,1.8-1.5,2.5C67.5,172.4,68.1,171.4,69,170.9"/>
		<path id="Path_13850" class="st3" d="M86.6,136.3c-0.4,0.9-0.9,1.8-1.5,2.5c0.1-0.8,0.3-1.5,0.7-2.1
			C86,136.4,86.3,136.3,86.6,136.3"/>
		<path id="Path_13851" class="st3" d="M56.9,306.6l0.4,2.1c-0.8-0.2-0.7-0.9-0.9-1.5C56.3,306.8,56.5,306.6,56.9,306.6"/>
		<path id="Path_13852" class="st8" d="M195.3,50.6c-0.6,0.8-1.4,0.2-2.1,0.3c-0.3,0.1-0.8,0.2-0.9-0.4
			C193.4,50.5,194.3,50.5,195.3,50.6"/>
		<path id="Path_13853" class="st3" d="M77.8,153.5c-0.3,1-0.8,1.9-1.5,2.7C76.7,155.2,76.7,154,77.8,153.5"/>
		<path id="Path_13854" class="st3" d="M70.5,167.6c0,0.7-0.4,1.5-0.9,2C69.3,168.7,69.7,167.9,70.5,167.6
			C70.5,167.6,70.5,167.6,70.5,167.6"/>
		<path id="Path_13855" class="st3" d="M60.2,188.2c-0.5,0.7-0.6,1.7-1.3,2.3c0-0.7,0.2-1.3,0.5-1.9
			C59.6,188.4,59.9,188.2,60.2,188.2"/>
		<path id="Path_13856" class="st3" d="M59.1,314.2c0.7,0.3,0.8,1,1.1,1.6C59.3,315.6,58.9,315,59.1,314.2"/>
		<path id="Path_13857" class="st3" d="M72,164.8c-0.2,0.9-0.6,1.7-1.1,2.3C70.8,166.2,71.2,165.3,72,164.8"/>
		<path id="Path_13858" class="st5" d="M148.6,73.3c0.3-0.4,0.7-0.7,1.1-0.9c0,0.2,0,0.4-0.1,0.6c-0.2,0.2,0.2,0.6-0.2,0.7
			C149.1,73.9,148.8,73.7,148.6,73.3"/>
		<path id="Path_13859" class="st5" d="M130.1,111.5c0-0.7,0-1.4,0.1-2.1c0.6,0.4,0.7,1.2,0.3,1.8
			C130.4,111.3,130.3,111.4,130.1,111.5"/>
		<path id="Path_13860" class="st7" d="M135.1,78.5c-0.2,0.4-0.4,0.8-0.8,1c-0.3-0.1-0.7-0.3-0.6-0.7c0.1-0.3,0.5-0.3,0.8-0.4
			C134.7,78.5,134.9,78.5,135.1,78.5"/>
		<path id="Path_13861" class="st7" d="M125.2,123.6l0.4,1.7l-0.8,0c0.2-0.4,0.2-0.8,0-1.2c-0.1-0.2-0.1-0.4,0.1-0.5
			C125,123.6,125.1,123.6,125.2,123.6"/>
		<path id="Path_13862" class="st3" d="M64.6,179.3c-0.1,0.7-0.5,1.4-0.9,2C63.6,180.4,63.9,179.7,64.6,179.3"/>
		<path id="Path_13863" class="st8" d="M224.5,72.3l-1.1-1.3l-0.1-0.3C224.4,70.7,224.5,71.4,224.5,72.3"/>
		<path id="Path_13864" class="st3" d="M89.4,131.8c-0.3,0.6-0.7,1.1-1.3,1.6C88.3,132.6,88.5,131.9,89.4,131.8"/>
		<path id="Path_13865" class="st8" d="M240.2,100.4c-0.4,0-0.7-0.1-0.7-0.5c0-0.4,0.3-0.4,0.5-0.4c0.1,0.2,0.1,0.4,0.2,0.6
			L240.2,100.4L240.2,100.4z"/>
		<path id="Path_13866" class="st3" d="M71.6,324.3l1.5,0.4C72.6,325.3,72.2,325.2,71.6,324.3"/>
		<path id="Path_13867" class="st3" d="M64.8,320.8c0.3,0.3,0.7,0.4,0.9,0.8C64.9,322.1,64.8,321.5,64.8,320.8"/>
		<path id="Path_13868" class="st5" d="M130.2,108.6c-0.1-0.4,0-0.8,0.1-1.2C131,107.9,130.8,108.3,130.2,108.6"/>
		<path id="Path_13869" class="st3" d="M81.7,145.9c-0.1,0.5-0.4,1-0.7,1.4c-0.2-0.5,0.1-1.1,0.6-1.3
			C81.6,145.9,81.7,145.9,81.7,145.9"/>
		<path id="Path_13870" class="st3" d="M90.7,130.3c-0.1,0.4-0.4,0.8-0.7,1C90,130.7,89.9,130.1,90.7,130.3"/>
		<path id="Path_13871" class="st3" d="M60.4,316.1c0.4,0.3,0.8,0.7,0.9,1.2C60.6,317.3,60.5,316.8,60.4,316.1"/>
		<path id="Path_13872" class="st8" d="M214,62.3l-1-0.7c0.5,0.1,1.2-0.1,1.3,0.8L214,62.3"/>
		<path id="Path_13873" class="st3" d="M72.7,163.5c-0.1,0.5-0.2,1.1-0.7,1.4C72,164.2,72.1,163.7,72.7,163.5"/>
		<path id="Path_13874" class="st3" d="M67.2,322.6c0.5,0.2,1.1,0.2,1.5,0.8C68.1,323.3,67.5,323.2,67.2,322.6"/>
		<path id="Path_13875" class="st7" d="M187.2,50.9c-0.3,0.5-0.7,0.2-1.1,0.2C186.4,50.5,186.8,50.8,187.2,50.9"/>
		<path id="Path_13876" class="st3" d="M69.8,323.8c0.4,0,0.7-0.1,0.9,0.4C70.2,324.5,69.9,324.4,69.8,323.8"/>
		<path id="Path_13877" class="st8" d="M221,59.8l0.4,0.2l0.2,0.3c-0.1,0.3-0.4,0.4-0.6,0.3C220.7,60.3,221.1,60,221,59.8"/>
		<path id="Path_13878" class="st6" d="M237.2,150.8c-0.1-0.4,0.1-0.7,0.2-1C238,150.2,237.8,150.5,237.2,150.8"/>
		<path id="Path_13879" class="st3" d="M63.2,319.5c0.5,0.1,0.7,0.4,0.9,0.8c-0.4,0.1-0.8-0.2-0.9-0.7
			C63.2,319.5,63.2,319.5,63.2,319.5"/>
		<path id="Path_13880" class="st6" d="M237.4,149c-0.1-0.3,0-0.5,0.1-0.8c0.2,0,0.4,0.1,0.4,0.3C237.9,148.8,237.7,149,237.4,149"
			/>
		<path id="Path_13881" class="st3" d="M82.2,144.7c-0.1,0.4,0,0.9-0.6,1C81.7,145.2,81.6,144.8,82.2,144.7"/>
		<path id="Path_13882" class="st4" d="M181,325.1h0.7c0,0.2,0.1,0.5-0.2,0.5C181.2,325.6,181,325.4,181,325.1
			C181,325.2,181,325.1,181,325.1"/>
		<path id="Path_13883" class="st8" d="M244.7,201.5l0.3,0.3l0.2,0.4c0,0.1,0,0.2,0,0.4C244.6,202.4,244.7,201.9,244.7,201.5"/>
		<path id="Path_13884" class="st5" d="M235,112.9c0,0.3,0,0.5,0,0.8c-0.2,0-0.4-0.1-0.5-0.4C234.5,113,234.7,112.9,235,112.9"/>
		<path id="Path_13885" class="st3" d="M58.2,311.8c0.2,0.2,0.4,0.5,0.4,0.8C58.2,312.5,57.8,312.4,58.2,311.8"/>
		<path id="Path_13886" class="st5" d="M130.6,105.1c0-0.3,0-0.5,0.1-0.8C131.2,104.6,131.2,104.6,130.6,105.1"/>
		<path id="Path_13887" class="st5" d="M232.4,137.9c0,0.3,0,0.5-0.1,0.8C231.9,138.4,231.9,138.1,232.4,137.9"/>
		<path id="Path_13888" class="st8" d="M177.8,52.7l0.8-0.3l0.4,0C178.7,53,178.2,52.6,177.8,52.7"/>
		<path id="Path_13889" class="st3" d="M99.9,125.6c-0.2,0.3-0.5,0.2-0.7,0.2C99.3,125.2,99.5,125.3,99.9,125.6"/>
		<path id="Path_13890" class="st8" d="M234,97.7c0,0-0.1,0-0.1,0c0-0.2,0-0.4,0-0.6c0.2,0,0.4,0.1,0.4,0.4
			C234.3,97.6,234.1,97.6,234,97.7"/>
		<path id="Path_13891" class="st8" d="M239.2,93.3c-0.3-0.2-0.5-0.4-0.2-0.8C239.2,92.8,239.2,93.1,239.2,93.3"/>
		<path id="Path_13892" class="st3" d="M74.2,324.9c0.3,0,0.5-0.1,0.7,0.2C74.6,325.2,74.3,325.6,74.2,324.9"/>
		<path id="Path_13893" class="st4" d="M182.6,325.1c0.2-0.3,0.5-0.2,0.7-0.2C183.3,325.6,182.9,325.2,182.6,325.1"/>
		<path id="Path_13894" class="st5" d="M231,158.2c0,0.1,0,0.3,0,0.4c-0.2,0-0.4,0.1-0.4-0.2S230.9,158.2,231,158.2"/>
		<path id="Path_13895" class="st7" d="M196.8,50.7c-0.2,0-0.4,0.1-0.6-0.1C196.5,50.3,196.7,50.3,196.8,50.7"/>
		<path id="Path_13896" class="st7" d="M199.7,50.8l-0.6,0c0-0.2,0.1-0.3,0.3-0.3C199.7,50.4,199.7,50.6,199.7,50.8"/>
		<path id="Path_13897" class="st3" d="M57.7,310.3c0.2,0.1,0.2,0.4,0.2,0.6C57.4,310.8,57.3,310.6,57.7,310.3"/>
		<path id="Path_13898" class="st5" d="M130.4,118.1c0-0.2,0-0.4,0-0.6c0.2,0,0.3,0.1,0.3,0.3C130.7,118.1,130.5,118.1,130.4,118.1"
			/>
		<path id="Path_13899" class="st5" d="M130.4,106.6c-0.1-0.2,0-0.4,0.1-0.6C130.8,106.3,130.8,106.5,130.4,106.6"/>
		<path id="Path_13900" class="st8" d="M176,59.6l-0.2,0c0.1-0.4,0.3-0.5,0.6-0.2L176,59.6z"/>
		<path id="Path_13901" class="st8" d="M237.4,147.6c-0.4-0.2-0.4-0.4,0-0.6C237.5,147.2,237.5,147.4,237.4,147.6"/>
		<path id="Path_13902" class="st8" d="M214.9,62.7l-0.5-0.2c0-0.1,0-0.1,0-0.2C214.7,62.3,214.9,62.3,214.9,62.7"/>
		<path id="Path_13903" class="st8" d="M176.8,59.3c0.1-0.4,0.3-0.4,0.5-0.2L176.8,59.3"/>
		<path id="Path_13904" class="st8" d="M237.7,86.7c0,0.1,0,0.3,0,0.4c-0.5-0.1-0.3-0.3-0.2-0.6c0,0,0.1,0.1,0.1,0.1
			C237.7,86.6,237.7,86.7,237.7,86.7"/>
		<path id="Path_13905" class="st4" d="M158.2,125.8c-0.2,0-0.4,0-0.6-0.2C157.9,125.5,158.2,125.3,158.2,125.8"/>
		<path id="Path_13906" class="st7" d="M179.4,52.2l-0.4,0.1C179,52,179.1,51.8,179.4,52.2"/>
		<path id="Path_13907" class="st3" d="M62.8,319.1c0.2,0,0.4,0.1,0.4,0.3c0,0,0,0,0,0.1C62.9,319.5,62.8,319.3,62.8,319.1"/>
		<path id="Path_13908" class="st8" d="M232.2,141.4c0.3,0.2,0.2,0.3-0.1,0.4L232.2,141.4z"/>
		<path id="Path_13909" class="st8" d="M238.4,137.5c0,0.1,0,0.3,0.1,0.4c0,0-0.1,0-0.1,0C238,137.7,238.1,137.6,238.4,137.5"/>
		<path id="Path_13910" class="st5" d="M183.2,57.8l0.4,0c0,0.1,0,0.3-0.2,0.3C183.3,58.1,183.3,57.9,183.2,57.8"/>
		<path id="Path_13911" class="st7" d="M240.3,100.4l0-0.4c0.1,0,0.3,0,0.3,0.2S240.4,100.4,240.3,100.4"/>
		<path id="Path_13912" class="st6" d="M239,133.2l0-0.4c0.1,0.1,0.3,0.1,0.3,0.2C239.3,133.2,239.1,133.2,239,133.2"/>
		<path id="Path_13913" class="st5" d="M181.7,58l0.4,0l-0.4,0.2l0,0C181.7,58.1,181.7,58.1,181.7,58"/>
		<path id="Path_13914" class="st8" d="M204.5,58l-0.2,0.1l-0.3-0.2C204.2,57.8,204.4,57.8,204.5,58"/>
		<path id="Path_13915" class="st8" d="M243.6,199c0,0.1,0,0.1-0.1,0.2c-0.1-0.1-0.2-0.3-0.2-0.4L243.6,199"/>
		<path id="Path_13916" class="st5" d="M232.2,89.3c0,0.1,0,0.3,0,0.4l-0.2-0.4l0.1-0.1C232.1,89.2,232.1,89.2,232.2,89.3"/>
		<path id="Path_13917" class="st6" d="M262.4,209.9l-0.2,0.1L262.4,209.9"/>
		<path id="Path_13918" class="st8" d="M218.8,65.8l0.2,0.1L218.8,65.8"/>
		<path id="Path_13919" class="st8" d="M239.2,185.5c0-0.1-0.1-0.2-0.1-0.3C239.2,185.3,239.2,185.4,239.2,185.5"/>
		<path id="Path_13920" class="st5" d="M296.7,242.3c0-0.1,0-0.1,0-0.2C296.7,242.2,296.7,242.2,296.7,242.3
			C296.7,242.3,296.7,242.3,296.7,242.3"/>
		<path id="Path_13921" class="st5" d="M163.3,64.4l0.2-0.1L163.3,64.4"/>
		<path id="Path_13922" class="st5" d="M233.5,187.6c0,0.1,0.1,0.2,0.1,0.2C233.6,187.8,233.6,187.7,233.5,187.6"/>
		<path id="Path_13923" class="st8" d="M221.9,60.4c0,0.1,0,0.1,0,0.2l-0.2-0.2C221.8,60.4,221.9,60.4,221.9,60.4"/>
		<path id="Path_13924" class="st7" d="M158.3,59.8l-0.3,0.1L158.3,59.8"/>
		<path id="Path_13925" class="st6" d="M237.8,144.1c0-0.1,0-0.1,0-0.2C237.8,144,237.8,144,237.8,144.1
			C237.8,144.1,237.8,144.1,237.8,144.1"/>
		<path id="Path_13926" class="st8" d="M209.1,59.6l-0.2,0c0-0.1-0.1-0.1-0.1-0.2L209.1,59.6"/>
		<path id="Path_13927" class="st7" d="M125,102.1c0,0.1,0,0.1,0,0.2C124.9,102.3,124.9,102.2,125,102.1
			C124.9,102.2,125,102.2,125,102.1"/>
		<path id="Path_13928" class="st8" d="M240.7,106.5c0-0.1,0-0.2,0-0.2C240.8,106.3,240.8,106.4,240.7,106.5"/>
		<path id="Path_13929" class="st8" d="M242.2,195.9c0-0.1-0.1-0.2-0.1-0.2C242.2,195.7,242.2,195.8,242.2,195.9"/>
		<path id="Path_13930" class="st8" d="M240.4,101.9l-0.1-0.2C240.3,101.8,240.4,101.9,240.4,101.9"/>
		<path id="Path_13931" class="st5" d="M293.7,234.9c-0.1,0-0.1-0.1-0.1-0.1C293.7,234.8,293.7,234.8,293.7,234.9"/>
		<path id="Path_13932" class="st5" d="M139.1,83.4L139.1,83.4L139.1,83.4C139.1,83.3,139.1,83.3,139.1,83.4"/>
		<path id="Path_13933" class="st8" d="M238.8,183.8c0,0-0.1-0.1-0.1-0.1c0,0,0,0,0.1-0.1C238.8,183.6,238.8,183.7,238.8,183.8"/>
		<path id="Path_13934" class="st7" d="M161.7,58.2L161.7,58.2l-0.1,0C161.6,58.2,161.7,58.2,161.7,58.2"/>
		<path id="Path_13935" class="st7" d="M124.9,122l0.1,0.3L124.9,122"/>
		<path id="Path_13936" class="st8" d="M230.8,84.8l0.1,0.3L230.8,84.8"/>
		<path id="Path_13937" class="st5" d="M132,98.2l0.1-0.3L132,98.2"/>
		<path id="Path_13938" class="st5" d="M236.4,197.6c0.1,0.1,0.1,0.1,0.1,0.2L236.4,197.6"/>
		<path id="Path_13939" class="st8" d="M182.1,58c0.1-0.1,0.1-0.1,0.2,0L182.1,58"/>
		<path id="Path_13940" class="st7" d="M128.2,90.9L128.2,90.9l0,0.1C128.1,90.9,128.1,90.9,128.2,90.9"/>
		<path id="Path_13941" class="st8" d="M206.3,52.2c-0.1,0.1-0.1,0.1-0.2,0L206.3,52.2"/>
		<path id="Path_13942" class="st8" d="M233.7,95.9c0,0,0.1,0.1,0.1,0.1c0,0,0,0-0.1,0.1C233.7,96,233.7,96,233.7,95.9"/>
		<path id="Path_13943" class="st9" d="M166.6,228.7l0.3-0.5c0.4-0.3,0.7-0.7,0.8-1.2l0.3-0.7c0.2-0.1,0.3-0.3,0.4-0.5
			c0.8-1,1-2.4,1.6-3.5c0.3-0.1,0.3-0.3,0.3-0.6c0.4-0.3,0.7-0.3,0.7,0.3c0,0.3,0,0.7,0,1.1c-0.1,0.1-0.1,0.2-0.1,0.3c0,0,0,0,0,0
			c-0.2,2.7-0.5,5.4-0.7,8.2c-0.1,1.6-0.2,3.1-0.4,4.7c-0.1,0.1-0.1,0.3,0,0.4c0,0,0,0,0,0c-0.2,1-0.4,2-0.3,3.1
			c-0.4,3.9-0.7,7.7-1,11.6c-0.1,1.6-0.4,3.3-0.5,4.9c-0.1,0.5-0.1,1,0.1,1.4c-0.2,0-0.3,0.1-0.1,0.3c-0.3,0.8-0.4,1.6-0.3,2.4
			c-0.3,2.4-0.4,4.8-0.6,7.2c-0.1,0.2-0.1,0.4,0,0.6c-0.1,0.7-0.2,1.4-0.3,2.1c-0.1,0.1-0.1,0.3-0.1,0.4c-0.2,3.6-0.7,7.3-1.6,10.8
			c-0.4,1.5-1.1,2.9-1.6,4.4c-0.2,0.1-0.3,0.4-0.3,0.6c-0.4,0.6-0.8,1.2-1,1.9c-0.2,0.2-0.4,0.4-0.4,0.7l-0.2,0.3
			c-0.1,0.1-0.1,0.2-0.2,0.3l-0.2,0.3l-1.5,2.2c-0.2,0.1-0.3,0.3-0.3,0.6c-0.3,0.2-0.5,0.4-0.6,0.7c-0.2,0.1-0.3,0.2-0.3,0.4
			l-0.2,0.3c-1.5,1.6-3,3.1-4.7,4.5c-0.7,0.3-1.3,0.7-1.8,1.1c-2.3,1.4-4.8,2.4-7.5,2.9c-0.3-0.1-0.5,0-0.7,0.1
			c-1.6,0.1-3.2,0.1-4.8,0c-2.4-0.3-4.6-1.2-6.6-2.5c-0.1-0.2-0.3-0.4-0.6-0.4c-0.1-0.2-0.3-0.3-0.5-0.4c-0.5-0.5-1.1-1-1.7-1.3
			l-2.1-2.2c0-0.3-0.2-0.5-0.4-0.7c-2.4-3-3.9-6.7-4.4-10.5c-0.2-1.2,0-2.3-0.2-3.5c0.2-0.2,0.1-0.5,0.1-0.8c-0.2-1,0-2.1,0.3-3.1
			c0.1-0.2,0.2-0.5,0.2-0.8c0.5-2.5,1.6-4.8,3.1-6.9c0.2-0.1,0.4-0.3,0.4-0.5l0.3-0.3c0.2-0.1,0.3-0.2,0.3-0.4
			c1.4-1.7,3-3.3,4.7-4.7c0.5-0.2,0.9-0.5,1.2-0.9c2-1.8,4.2-3.2,6.3-4.9c1.4-1.1,2.7-2.1,4.1-3.2c0.4-0.1,0.7-0.4,0.8-0.8l0,0
			c0.6-0.1,1-0.5,1.2-1l1.9-1.6c0.4,0,0.5-0.3,0.7-0.6l0.6-0.5c0.2-0.1,0.3-0.2,0.4-0.4l1.5-1.3c0.3-0.1,0.6-0.3,0.6-0.7l0.3-0.3
			c0.3,0,0.5-0.2,0.6-0.5l0,0c0.5-0.2,0.8-0.5,1.1-1l1.1-1.2c0.3-0.1,0.5-0.3,0.6-0.6l0.7-1c0.1-0.1,0.2-0.1,0.2-0.2
			c0.1,0,0.1,0,0.1-0.1c0.7-0.5,1.3-1.1,1.7-1.9c0.1,0,0.1,0,0.1-0.1c0.5-0.3,0.9-0.7,1.1-1.3l0,0c0.3-0.1,0.5-0.3,0.5-0.6l0.1-0.2
			l0.3-0.4c1.6-1.8,3-3.7,4.4-5.7c0.3-0.1,0.5-0.3,0.5-0.6l0.6-0.9c0.3-0.3,0.6-0.6,0.7-1l0.2-0.3c0.1-0.1,0.1-0.2,0.2-0.2
			c0.2-0.1,0.2-0.3,0.2-0.5l0.2-0.3l0,0C166.5,229,166.6,228.9,166.6,228.7"/>
		<path id="Path_13944" class="st9" d="M84.8,233.4c-0.1-2-0.3-4-0.7-6c-0.2-1.6-0.4-3.2-0.6-4.7c0-0.2-0.1-0.4-0.2-0.6
			c0.2-0.3-0.1-0.3-0.2-0.4c-0.3-1.9-0.6-3.8-0.9-5.7c0-0.3,0-0.6-0.3-0.8c0,0,0-0.1,0-0.1s0-0.1,0-0.1l0-0.2
			c0.1-0.1,0.1-0.3-0.1-0.4c0,0,0,0,0,0l-0.7-3.1L81,211c0.1-0.2-0.1-0.4,0.2-0.5c0,0,0.1,0.1,0.2,0.1l3.3,2.5
			c0.5,0.5,1,0.9,1.5,1.2c0,0,0,0,0,0c0,0.2,0.2,0.3,0.4,0.4c0.2,0.3,0.5,0.5,0.8,0.7c0.2,0.3,0.4,0.5,0.7,0.6l0.3,0.4
			c0.3,0.4,0.7,0.8,1.1,1l0.2,0.1c0.2,0.3,0.4,0.6,0.8,0.8c1.4,1.6,2.9,3,4.2,4.7c2.2,2.8,4.2,5.7,6,8.7c1.3,2.3,2.5,4.7,3.7,7
			c0,0.2,0.1,0.4,0.2,0.6c0.9,2.2,1.7,4.3,2.6,6.5l0.6,2c0.8,2.8,1.7,5.6,2.3,8.5c0.2,1.1,0.4,2.3,0.5,3.5c0,0.3,0.1,0.6,0.2,0.9
			c-0.1,0.3,0,0.7,0.2,1c0,0.3,0.1,0.6,0.1,1c0,0.1,0,0.3,0.1,0.4c0,0.5,0.1,0.9,0.1,1.4c0,0.1,0.1,0.3,0.1,0.4
			c0.1,1.2,0.1,2.3,0.2,3.5c-0.1,0.1-0.1,0.3,0,0.4c0,0,0,0,0,0c-0.1,1.9-0.1,3.8-0.1,5.7c-0.2,2.5-0.5,4.9-1,7.3
			c-0.1,0.2-0.1,0.4-0.2,0.6c-0.1,0.2-0.2,0.4-0.2,0.6l-0.1,0.2c-0.5,1.5-1.1,2.9-1.8,4.3c-0.1,0.3-0.3,0.5-0.3,0.8
			c-0.5,0.1-0.7,0.6-0.9,1l-0.7,0.7c-0.3,0.1-0.6,0.3-0.8,0.6l-0.2,0.2l-0.4,0.2c-1.8,1.2-3.7,0.8-5.6,0.8c-3.6,0.1-6.7-1.4-9.5-3.4
			c-1.5-1.1-2.8-2.5-3.9-4.1c-1.4-2.1-2.5-4.4-3.2-6.8c-0.4-1.3-0.6-2.7-0.7-4.1c0.1-0.1,0.1-0.2,0-0.3c0,0,0,0,0,0
			c0-1.4,0-2.7,0-4.1c0.1-0.1,0.1-0.2,0.1-0.3c0,0,0,0,0,0c0.1-2.4,0.6-4.8,1.4-7.1c0.6-2,0.9-4.1,1.4-6.2c0.7-3.7,0.9-7.5,0.8-11.2
			c0-1.5-0.1-2.9-0.2-4.4c0-0.2,0-0.4,0-0.6c0-1.2-0.1-2.5-0.3-3.7l0-0.6c0.1-0.2,0-0.4-0.1-0.6C85.2,233.6,85.1,233.5,84.8,233.4"
			/>
		<path id="Path_13945" class="st9" d="M120.7,209c0.3-0.5,0.9-0.8,0.9-1.5c0.3-0.1,0.6-0.3,0.6-0.7c0.4-0.9,1.3-1.3,1.7-2.1
			c0.7-0.5,1.3-1.1,1.7-1.8c1.5-1.7,2.9-3.4,4.3-5.2c0.3-0.3,0.5-0.6,0.7-1c0.9-0.7,1.6-1.6,2.2-2.6l0,0c0.3-0.2,0.5-0.4,0.6-0.8
			c0.1,0,0.1-0.1,0.1-0.1c0.3-0.2,0.5-0.5,0.6-0.8l0,0c0.2,0,0.3-0.2,0.3-0.4l0.2-0.4c0.2-0.1,0.3-0.1,0.3-0.4
			c0.7-0.7,1.4-1.6,1.9-2.5c0.3-0.6,0.8-1.2,1.3-1.7c0.6,0.1,0.5-0.4,0.5-0.8l0.2-0.5c0.2-0.3,0.7-0.5,0.7-1l0.5-0.8
			c0.7,0,0.8-0.6,0.8-1.2c0.7-1.1,1.3-2.2,1.9-3.3l0.2-0.2l0.2-0.4c0.5-0.1,0.5-0.5,0.5-0.9c0-0.2,0-0.3,0.2-0.4
			c0.2-0.1,0.6,0.1,0.3-0.4l0.3-0.9c0.1,0,0.1,0,0.2-0.1l0.2,0l-0.1-0.1l0.5-1.4c0.3-0.1,0.6-0.1,0.4-0.6c-0.1-0.3,0-0.6,0.2-0.8
			l0.1-0.1l0.5-1.4h0.3l0.1,0.2l0.1,0.3c0.3,0.6,0.4,1.3,0.5,2c-0.1,0.3-0.4,0.7,0.2,0.8c0.6,0.6,0.2,1.4,0.5,2.1
			c-0.2,0-0.4,0-0.4,0.2c0,0.4,0.3,0.4,0.6,0.4c0.3,1.2,0.5,2.3,0.6,3.5c-0.3,0.2-0.1,0.3,0.1,0.4c0.2,1.2,0.4,2.3,0.4,3.5
			c0,0.2,0,0.4,0.2,0.6c0,0.3,0,0.7,0,1c-0.2,0.5,0.1,0.8,0.2,1.2c0.4,3.9,0.5,7.8,0.4,11.8c-0.1,3.7-0.5,7.4-1.1,11.1
			c-0.3,1.5-0.5,3.1-0.8,4.6c-0.1,0.2-0.2,0.4-0.1,0.6c-0.3,1.5-0.7,2.9-1.1,4.3c-0.4,1.3-0.9,2.7-1.5,3.9c-0.4,0.9-0.8,1.9-1.2,2.8
			c-0.2,0.2-0.3,0.4-0.4,0.7c0,0-0.1,0.1-0.1,0.1c-0.3,0.2-0.4,0.5-0.4,0.8c-0.3,0.3-0.6,0.7-0.8,1.2c-0.2,0.1-0.3,0.3-0.4,0.6
			l-0.5,0.8c-0.4,0.5-0.8,1-1.1,1.5h0c-0.2,0.1-0.3,0.2-0.4,0.4l0,0c-0.9,0.8-1.8,1.8-2.5,2.8c-0.8,0.2-1.2,0.9-1.8,1.4
			c-2.3,1.8-4.8,3.2-7.6,4.2c-0.9,0.2-1.8,0.2-2.7,0.2c-0.1-0.1-0.4-0.2-0.5-0.1c-1.2-0.2-2.4-0.7-3.3-1.5c-0.3-0.6-0.8-1-1.3-1.4
			c-2.8-3.3-4.5-7.4-5.1-11.7c-0.1-0.7,0-1.4-0.1-2.1c0.2-0.5,0.2-1,0-1.5c0.1-2.3,0.5-4.6,1.1-6.8c0.3-0.8,0.6-1.7,1-2.4
			c0.2-0.1,0.4-0.3,0.4-0.6c0,0,0.1-0.1,0.1-0.2c0.3-0.3,0.5-0.8,0.6-1.2l0.1-0.3c0.1-0.1,0.2-0.2,0.1-0.3l0,0
			c0.2-0.1,0.3-0.2,0.3-0.4l1.2-1.9L120.7,209 M147.3,176.1l-0.2-0.1c0,0.1-0.1,0.1-0.1,0.2s0.1,0,0.1,0.1L147.3,176.1"/>
		<path id="Path_13946" class="st2" d="M129.7,150.7c-5.5,0-11,0-16.5,0c-1.3,0.1-2.5-0.5-3-1.7c-0.9-1.7,0.3-4.6,2.5-4.6
			c0.2,0,0.4,0,0.6,0c11,0,22.1,0,33.1,0c1.2-0.1,2.3,0.5,2.8,1.5c0.9,1.5,0.4,3.4-1.2,4.3c-0.4,0.2-0.9,0.4-1.4,0.4
			c-1.5-0.1-2.9,0-4.4,0L129.7,150.7"/>
		<path id="Path_13947" class="st10" d="M129.4,298c0.6,0.4,1.2,0.8,1.7,1.3c-0.3,0-0.5,0-0.8,0.2c-0.6,0.7-0.8,0.1-0.9-0.4
			C129.4,298.8,129.4,298.4,129.4,298"/>
		<path id="Path_13948" class="st10" d="M132.9,194.1c-0.6,1-1.3,1.9-2.2,2.6C130.9,195.5,131.7,194.5,132.9,194.1"/>
		<path id="Path_13949" class="st10" d="M137.9,235.9c0.8-1,1.6-1.9,2.5-2.8c-0.1,1-0.9,1.4-1.4,2.1c-0.2,0.2-0.6,0.3-0.7,0.7
			C138.3,236.2,138,236.1,137.9,235.9"/>
		<path id="Path_13950" class="st10" d="M140.8,232.7c0.3-0.6,0.7-1.1,1.1-1.5c0.1,0.1,0.1,0.2,0.2,0.4c0.4,1.1,0.3,1.2-0.8,1.2
			C141.1,232.8,140.9,232.7,140.8,232.7"/>
		<path id="Path_13951" class="st10" d="M151.8,299.7c0.6-0.5,1.2-0.9,1.8-1.1l0.3,0.8c-0.6-0.2-1.2,0-1.5,0.5
			C152.3,300.1,152,300,151.8,299.7"/>
		<path id="Path_13952" class="st10" d="M125.6,202.8c-0.4,0.7-1,1.4-1.7,1.8c0.1-0.9,1.1-1.1,1.3-2
			C125.2,202.4,125.5,202.6,125.6,202.8"/>
		<path id="Path_13953" class="st9" d="M120.6,238.5c0.5,0.4,0.9,0.9,1.3,1.4c-0.6,0.5-0.9,0.2-1.1-0.4
			C120.7,239.2,120.6,238.9,120.6,238.5"/>
		<path id="Path_13954" class="st10" d="M157.2,241.2c-0.4,0.8-1,1.4-1.7,1.9c0.2-0.5,0.5-1,0.8-1.5
			C156.4,241.3,156.8,241.1,157.2,241.2"/>
		<path id="Path_13955" class="st10" d="M159.8,292.1l1.5-2.2C161.2,291.2,160.8,291.9,159.8,292.1"/>
		<path id="Path_13956" class="st10" d="M86.2,214.3c-0.6-0.3-1.1-0.8-1.5-1.2C85.3,212.8,86,213.4,86.2,214.3"/>
		<path id="Path_13957" class="st10" d="M107.9,247.8c-0.2-0.7-0.4-1.3-0.6-2C108,246.2,108.3,247.1,107.9,247.8
			C107.9,247.8,107.9,247.8,107.9,247.8"/>
		<path id="Path_13958" class="st10" d="M145.2,252.9c-0.2,0.5-0.7,0.9-1.2,1C143.9,253,144.5,252.9,145.2,252.9"/>
		<path id="Path_13959" class="st10" d="M158.5,239.8c-0.2,0.5-0.6,1-1.1,1.3c-0.1-0.6,0.2-1.1,0.8-1.2
			C158.2,239.8,158.3,239.8,158.5,239.8"/>
		<path id="Path_13960" class="st10" d="M139.7,184.7c0.1,0.5-0.5,0.7-0.7,1c-0.2-0.1-0.5-0.3-0.4-0.6
			C138.9,184.8,139.3,184.8,139.7,184.7"/>
		<path id="Path_13961" class="st10" d="M167.7,226.9c-0.1,0.5-0.4,1-0.8,1.2C166.8,227.5,167,226.9,167.7,226.9"/>
		<path id="Path_13962" class="st10" d="M152.7,246c-0.2,0.4-0.6,0.8-1.1,1C151.6,246.2,152,245.9,152.7,246"/>
		<path id="Path_13963" class="st10" d="M118.8,212.1c-0.1,0.5-0.3,0.9-0.6,1.2C117.6,212.4,118.3,212.3,118.8,212.1"/>
		<path id="Path_13964" class="st10" d="M107,289.2c0.2-0.4,0.4-0.9,0.9-1C108.1,289,107.6,289.1,107,289.2"/>
		<path id="Path_13965" class="st10" d="M150.8,247.8c-0.1,0.4-0.3,0.5-0.6,0.7c-0.1-0.4,0-0.8,0.1-1.1
			C150.6,247.3,150.5,247.8,150.8,247.8"/>
		<path id="Path_13966" class="st1" d="M115.5,223.2c0.2,0.5,0.2,1,0,1.5C115.2,224.3,115.2,223.7,115.5,223.2"/>
		<path id="Path_13967" class="st10" d="M132.8,262.7c-0.3,0.4-0.7,0.8-1.2,0.9C131.7,262.8,132.3,262.8,132.8,262.7"/>
		<path id="Path_13968" class="st10" d="M89.6,217.4c-0.4-0.3-0.8-0.6-1.1-1C89.1,216.4,89.7,216.5,89.6,217.4"/>
		<path id="Path_13969" class="st10" d="M164.3,232.4c-0.1,0.3-0.3,0.5-0.5,0.6c0.1-0.3-0.6-0.5-0.2-0.9
			C163.8,231.8,164,232.4,164.3,232.4"/>
		<path id="Path_13970" class="st11" d="M141,182.8c0,0.6-0.1,1.2-0.8,1.2C140.3,183.5,140.6,183.1,141,182.8"/>
		<path id="Path_13971" class="st10" d="M111,261.7c-0.2-0.3-0.2-0.6-0.2-1C111.7,260.9,111.4,261.3,111,261.7"/>
		<path id="Path_13972" class="st10" d="M88.1,216c-0.3-0.1-0.5-0.3-0.7-0.6C88,215.1,88.1,215.2,88.1,216"/>
		<path id="Path_13973" class="st10" d="M144,253.9c-0.1,0.4-0.4,0.7-0.8,0.8C143.2,254.1,143.4,253.8,144,253.9"/>
		<path id="Path_13974" class="st10" d="M165.6,230.4c-0.1,0.4-0.4,0.8-0.7,1C165,231,164.9,230.4,165.6,230.4"/>
		<path id="Path_13975" class="st11" d="M149.8,187.9c-0.2-0.4-0.4-0.7-0.2-1.2C149.7,187.1,150.2,187.4,149.8,187.9"/>
		<path id="Path_13976" class="st10" d="M134.2,192.4c-0.1,0.3-0.3,0.6-0.6,0.8C133.3,192.7,133.4,192.6,134.2,192.4"/>
		<path id="Path_13977" class="st10" d="M158.9,293.4c0.1-0.3,0.3-0.5,0.6-0.7C159.4,293,159.8,293.8,158.9,293.4"/>
		<path id="Path_13978" class="st10" d="M90.5,218.4c-0.3-0.2-0.6-0.5-0.8-0.8C90.3,217.5,90.5,217.9,90.5,218.4"/>
		<path id="Path_13979" class="st10" d="M143.6,228.7c0-0.3,0.2-0.6,0.4-0.8C144.5,228.5,143.9,228.5,143.6,228.7"/>
		<path id="Path_13980" class="st10" d="M122.9,276.5c0,0.3,0,0.5-0.2,0.8c-0.2-0.1-0.5-0.3-0.4-0.6S122.6,276.5,122.9,276.5"/>
		<path id="Path_13981" class="st10" d="M122.2,206.8c0,0.4-0.3,0.5-0.6,0.7C121.5,207,121.8,206.8,122.2,206.8"/>
		<path id="Path_13982" class="st11" d="M143.7,177.9c0,0.4-0.1,0.8-0.5,0.9C143.2,178.5,143.4,178.1,143.7,177.9"/>
		<path id="Path_13983" class="st11" d="M148.3,177.7c-0.3,0-0.6,0-0.6-0.4c0-0.2,0.2-0.2,0.4-0.2L148.3,177.7"/>
		<path id="Path_13984" class="st10" d="M147.8,250.7c-0.2,0.3-0.4,0.5-0.7,0.6C147,250.7,147.4,250.7,147.8,250.7"/>
		<path id="Path_13985" class="st1" d="M122.4,280.4c0.1,0.3,0.1,0.5-0.1,0.8C122,280.9,122,280.6,122.4,280.4"/>
		<path id="Path_13986" class="st10" d="M163.2,286.5c0-0.2,0.1-0.5,0.3-0.6C164,286.3,163.5,286.4,163.2,286.5"/>
		<path id="Path_13987" class="st10" d="M133.5,193.3c-0.1,0.3-0.3,0.6-0.6,0.8C132.9,193.6,133,193.3,133.5,193.3"/>
		<path id="Path_13988" class="st10" d="M105.5,290.5c0.2-0.3,0.5-0.5,0.8-0.6C106.3,290.5,105.9,290.6,105.5,290.5"/>
		<path id="Path_13989" class="st10" d="M126.9,295.2c0.3,0.1,0.4,0.4,0.4,0.7C126.9,295.9,126.8,295.5,126.9,295.2"/>
		<path id="Path_13990" class="st10" d="M143.5,302.6c0.2-0.1,0.5-0.2,0.7-0.1C144.1,303,143.8,302.9,143.5,302.6"/>
		<path id="Path_13991" class="st10" d="M159.4,238.7L159,239c-0.2-0.1-0.3-0.3-0.1-0.5C159.1,238.4,159.3,238.5,159.4,238.7"/>
		<path id="Path_13992" class="st10" d="M82,215.1c0.3,0.2,0.3,0.5,0.3,0.8C81.7,215.8,81.9,215.5,82,215.1"/>
		<path id="Path_13993" class="st10" d="M158.9,239.2c0,0.3-0.2,0.5-0.5,0.6C158.4,239.6,158.6,239.3,158.9,239.2
			C158.8,239.2,158.9,239.2,158.9,239.2"/>
		<path id="Path_13994" class="st10" d="M144.6,176.2c-0.1,0.3-0.2,0.6-0.3,0.9c0,0-0.1,0-0.1,0C144.1,176.7,144,176.2,144.6,176.2"
			/>
		<path id="Path_13995" class="st10" d="M151.6,247c-0.1,0.3-0.2,0.5-0.6,0.5C151.1,247.2,151.3,247,151.6,247
			C151.6,247,151.6,247,151.6,247"/>
		<path id="Path_13996" class="st11" d="M145.6,174c0.2,0.5-0.1,0.5-0.4,0.6C145.2,174.3,145.4,174.1,145.6,174"/>
		<path id="Path_13997" class="st11" d="M147.6,175c-0.6-0.1-0.3-0.5-0.2-0.8C147.7,174.4,147.6,174.7,147.6,175"/>
		<path id="Path_13998" class="st11" d="M138.8,186.3c0,0.4,0.1,0.8-0.5,0.8l0.2-0.5c0-0.1,0.1-0.1,0.1-0.2
			C138.7,186.3,138.7,186.3,138.8,186.3"/>
		<path id="Path_13999" class="st11" d="M144.1,177.1c0,0,0.1,0,0.1,0c0.4,0.5-0.1,0.4-0.3,0.4C143.9,177.4,144,177.2,144.1,177.1"
			/>
		<path id="Path_14000" class="st10" d="M148.2,216c0-0.2,0-0.4,0.1-0.6C148.6,215.7,148.6,215.9,148.2,216"/>
		<path id="Path_14001" class="st10" d="M84.8,233.4c0.3,0.1,0.4,0.3,0.2,0.6C84.8,233.8,84.8,233.6,84.8,233.4"/>
		<path id="Path_14002" class="st10" d="M85.1,234.5c0,0.2,0,0.4,0,0.6c-0.2,0-0.3-0.1-0.3-0.3C84.8,234.6,85,234.6,85.1,234.5"/>
		<path id="Path_14003" class="st10" d="M161.9,289c0-0.3,0.2-0.5,0.4-0.7C162.3,288.7,162.3,289,161.9,289"/>
		<path id="Path_14004" class="st10" d="M110.3,282.4l0.2-0.6C110.8,282.1,110.8,282.3,110.3,282.4"/>
		<path id="Path_14005" class="st10" d="M169.8,236.7c-0.1-0.1-0.1-0.3,0-0.4c0,0,0,0,0,0c0.1,0.1,0.2,0.1,0.3,0.2
			C170.1,236.7,169.9,236.6,169.8,236.7"/>
		<path id="Path_14006" class="st10" d="M126.9,268.3c0,0.2-0.2,0.3-0.3,0.4c-0.1-0.1-0.2-0.1-0.2-0.3
			C126.5,268.2,126.7,268.3,126.9,268.3"/>
		<path id="Path_14007" class="st10" d="M167,268.1c-0.1-0.2-0.1-0.4,0-0.6c0.2,0.1,0.2,0.3,0.1,0.5
			C167.1,268,167.1,268.1,167,268.1"/>
		<path id="Path_14008" class="st10" d="M85.5,238.8c0,0.2,0,0.4,0,0.6C85.1,239.2,85.1,239,85.5,238.8"/>
		<path id="Path_14009" class="st10" d="M125.2,241.5c0.2-0.1,0.4,0,0.5,0.1C125.5,241.8,125.3,241.8,125.2,241.5"/>
		<path id="Path_14010" class="st10" d="M154.4,244.3c-0.1,0.3-0.3,0.5-0.6,0.6C153.8,244.4,154,244.2,154.4,244.3"/>
		<path id="Path_14011" class="st11" d="M149.6,185.7c-0.2-0.1-0.2-0.4-0.2-0.6C149.5,185.3,150,185.4,149.6,185.7"/>
		<path id="Path_14012" class="st10" d="M126.3,269.1c0,0.2-0.2,0.4-0.4,0.5C125.9,269.3,126,269.1,126.3,269.1"/>
		<path id="Path_14013" class="st10" d="M131.6,299.7c0.2,0.1,0.5,0.2,0.6,0.4C131.9,300.1,131.6,300.2,131.6,299.7"/>
		<path id="Path_14014" class="st10" d="M142.4,230.4c0.1-0.2,0.2-0.4,0.4-0.6C142.8,230.1,142.8,230.4,142.4,230.4"/>
		<path id="Path_14015" class="st10" d="M144.1,227.7c0-0.3,0.2-0.5,0.4-0.7C144.5,227.3,144.5,227.7,144.1,227.7"/>
		<path id="Path_14016" class="st10" d="M118,213.4c0,0.3-0.1,0.5-0.4,0.6C117.7,213.8,117.8,213.5,118,213.4"/>
		<path id="Path_14017" class="st10" d="M168.3,225.7c0,0.2-0.1,0.4-0.4,0.5C168,225.9,168.1,225.8,168.3,225.7"/>
		<path id="Path_14018" class="st10" d="M135.1,191.2c0,0.3-0.1,0.3-0.3,0.4C134.7,191.3,134.8,191.2,135.1,191.2"/>
		<path id="Path_14019" class="st10" d="M148.7,249.8c0,0.2-0.2,0.4-0.4,0.4C148.3,249.9,148.4,249.8,148.7,249.8"/>
		<path id="Path_14020" class="st10" d="M81.9,214.4c0.1,0.1,0.2,0.3,0.1,0.4C81.7,214.7,81.7,214.6,81.9,214.4"/>
		<path id="Path_14021" class="st11" d="M149,181.6c-0.2-0.1-0.4-0.2-0.1-0.4C149,181.3,149,181.5,149,181.6"/>
		<path id="Path_14022" class="st10" d="M86.6,214.7c-0.2,0-0.4-0.1-0.4-0.4C86.6,214.2,86.6,214.4,86.6,214.7"/>
		<path id="Path_14023" class="st10" d="M83.2,221.7c0.1,0.1,0.4,0.1,0.2,0.4C83.2,221.9,83.1,221.8,83.2,221.7"/>
		<path id="Path_14024" class="st12" d="M170.3,221.6c0,0.3,0,0.5-0.3,0.6L170.3,221.6"/>
		<path id="Path_14025" class="st12" d="M170.9,223.4c-0.1-0.1-0.1-0.2,0-0.3c0,0,0,0,0,0C171.1,223.2,171.1,223.3,170.9,223.4"/>
		<path id="Path_14026" class="st10" d="M134.5,192c0,0.2-0.1,0.4-0.3,0.4C134.2,192.1,134.3,192,134.5,192"/>
		<path id="Path_14027" class="st10" d="M168,257.9c-0.2-0.2-0.1-0.3,0.1-0.3C168.2,257.8,168.1,257.9,168,257.9"/>
		<path id="Path_14028" class="st10" d="M166.6,228.7c0,0.2-0.1,0.3-0.3,0.4C166.3,228.8,166.4,228.7,166.6,228.7"/>
		<path id="Path_14029" class="st10" d="M119.2,211.1c0,0.2-0.1,0.3-0.3,0.4C119,211.3,119,211.1,119.2,211.1"/>
		<path id="Path_14030" class="st10" d="M105,290.9l0.4-0.2c0,0.1,0,0.3-0.1,0.3C105.1,291.1,105,291,105,290.9"/>
		<path id="Path_14031" class="st10" d="M138.6,186.3l-0.1,0.2c-0.1-0.1-0.3-0.2-0.1-0.3C138.5,186.1,138.6,186.2,138.6,186.3"/>
		<path id="Path_14032" class="st10" d="M122.2,276.1c0,0.1,0,0.1-0.1,0.2s-0.1,0-0.1-0.1c0-0.1,0-0.1,0.1-0.2
			S122.1,276,122.2,276.1"/>
		<path id="Path_14033" class="st10" d="M140.4,233.1c0-0.2,0.2-0.4,0.4-0.4C140.8,233,140.7,233.2,140.4,233.1"/>
		<path id="Path_14034" class="st12" d="M82,272.8c0.1,0.1,0.1,0.2,0.1,0.3c0,0,0,0,0,0C81.9,273.1,81.9,272.9,82,272.8"/>
		<path id="Path_14035" class="st10" d="M166.7,270.7c-0.1-0.1,0-0.3,0.1-0.4C167.1,270.4,167,270.6,166.7,270.7"/>
		<path id="Path_14036" class="st10" d="M111.6,268.7c-0.1-0.1-0.1-0.3,0-0.4c0,0,0,0,0,0C111.8,268.4,111.8,268.6,111.6,268.7"/>
		<path id="Path_14037" class="st12" d="M82.1,268.3c0.1,0.1,0.1,0.2,0,0.3c0,0,0,0,0,0C81.9,268.5,81.9,268.4,82.1,268.3"/>
		<path id="Path_14038" class="st10" d="M111.4,264.8l-0.1-0.4C111.6,264.5,111.7,264.6,111.4,264.8"/>
		<path id="Path_14039" class="st10" d="M111.2,263c-0.1-0.1-0.1-0.3-0.1-0.4C111.4,262.7,111.5,262.8,111.2,263"/>
		<path id="Path_14040" class="st11" d="M146.8,171.7h-0.3c0-0.1,0-0.3,0.1-0.3C146.7,171.4,146.7,171.6,146.8,171.7"/>
		<path id="Path_14041" class="st10" d="M104.7,239.4c-0.1-0.1-0.2-0.3-0.2-0.6C104.7,238.9,104.6,239.2,104.7,239.4"/>
		<path id="Path_14042" class="st10" d="M82,215C82,215,82,215.1,82,215c-0.1,0.1-0.2,0.3-0.4,0.2c0,0,0,0,0-0.1
			C81.7,215,81.8,215,82,215"/>
		<path id="Path_14043" class="st11" d="M147,172.2c0-0.1-0.1-0.2-0.1-0.3C147,171.9,147,172.1,147,172.2"/>
		<path id="Path_14044" class="st11" d="M145.9,173.1l-0.1,0.1C145.8,173.1,145.8,173,145.9,173.1"/>
		<path id="Path_14045" class="st10" d="M81.3,210.6c-0.1,0-0.1,0-0.2-0.1C81.3,210.4,81.3,210.4,81.3,210.6"/>
		<path id="Path_14046" class="st10" d="M155.4,243.1l-0.2,0.2L155.4,243.1"/>
		<path id="Path_14047" class="st10" d="M81,211l0.1,0.3L81,211"/>
		<path id="Path_14048" class="st10" d="M120.7,209c-0.1,0.1-0.1,0.2-0.2,0.3C120.5,209.1,120.5,209,120.7,209"/>
		<path id="Path_14049" class="st10" d="M119,211.5c0,0.1,0,0.3-0.1,0.3L119,211.5"/>
		<path id="Path_14050" class="st10" d="M110,283.1l0.1-0.2L110,283.1"/>
		<path id="Path_14051" class="st10" d="M161.5,289.6l0.2-0.3C161.6,289.4,161.6,289.5,161.5,289.6"/>
		<path id="Path_14052" class="st10" d="M158.3,294.1l0.2-0.3C158.6,293.9,158.5,294,158.3,294.1"/>
		<path id="Path_14053" class="st10" d="M165.9,229.8l-0.2,0.2L165.9,229.8"/>
		<path id="Path_14054" class="st11" d="M144.8,175.9l0.1,0.1l-0.2,0C144.7,176,144.7,176,144.8,175.9"/>
		<path id="Path_14055" class="st10" d="M166.3,229.1l-0.2,0.3L166.3,229.1"/>
		<path id="Path_14056" class="st11" d="M143,179.3l-0.2,0.2C142.8,179.3,142.9,179.3,143,179.3"/>
		<path id="Path_14057" class="st8" d="M248.2,216.9c-0.1-0.1-0.1-0.2-0.2-0.3c0.4-0.1,0.8-0.6,1.2-0.2L248.2,216.9"/>
		<path id="Path_14058" class="st12" d="M233,230.1c0-0.1,0.1-0.1,0.1-0.2L233,230.1"/>
		<path id="Path_14059" class="st8" d="M242.3,209.1c-0.6-0.7-1-1.5-1.4-2.3C241.9,207.1,242.3,207.7,242.3,209.1"/>
		<path id="Path_14060" class="st8" d="M251.3,211.3c0.3,0.2,0.6,0.5,0.8,0.9c-0.1,0.3,0,0.8-0.5,0.7s-0.4-0.5-0.3-0.9
			C251.3,211.7,251.3,211.5,251.3,211.3"/>
		<path id="Path_14061" class="st8" d="M246,214.2c-0.3-0.2-0.5-0.5-0.6-0.8c0.1-0.1,0.2-0.3,0.4-0.4c0.1-0.1,0.3-0.2,0.5-0.1
			c0.2,0.2,0,0.4-0.1,0.5C246,213.7,246,214,246,214.2"/>
		<path id="Path_14062" class="st8" d="M219.2,58.4c0.3,0.1,0.6,0.3,0.8,0.6c-0.3,0-0.2,0.9-0.7,0.5c-0.3-0.2-0.4-0.6-0.2-0.9
			C219.1,58.5,219.2,58.4,219.2,58.4"/>
		<path id="Path_14063" class="st8" d="M228.8,68.1c0.2,0.2,0.4,0.5,0.5,0.8c-0.3,0-0.8,0.2-0.9-0.3
			C228.3,68.3,228.6,68.2,228.8,68.1"/>
		<path id="Path_14064" class="st8" d="M250.2,210.4c0.5,0.1,0.9,0.4,1.1,0.9C250.7,211.3,250.2,211.3,250.2,210.4"/>
		<path id="Path_14065" class="st8" d="M238.3,89.2c0.2,0.4,0.3,0.9,0.3,1.4c-0.5-0.2-0.6-0.8-0.4-1.3
			C238.2,89.3,238.2,89.3,238.3,89.2"/>
		<path id="Path_14066" class="st8" d="M223,70.3l-0.9-1.2C222.9,69.1,223,69.7,223,70.3"/>
		<path id="Path_14067" class="st8" d="M245.1,213c-0.3-0.2-0.5-0.5-0.6-0.8c0.2-0.1,0.4-0.3,0.6,0
			C245.2,212.6,245.4,212.8,245.1,213"/>
		<path id="Path_14068" class="st8" d="M216.6,63.9c-0.4-0.2-0.8-0.5-1.1-0.8C216,63.1,216.5,63.2,216.6,63.9"/>
		<path id="Path_14069" class="st8" d="M225.2,63.7c0.3,0.2,0.5,0.4,0.6,0.7C225.4,64.5,224.8,64.6,225.2,63.7"/>
		<path id="Path_14070" class="st8" d="M240.7,107c0.3,0.4,0.2,0.8,0.1,1.2C240.2,107.9,240.5,107.4,240.7,107"/>
		<path id="Path_14071" class="st8" d="M230.8,71.1c0.2,0.2,0.4,0.5,0.5,0.8C230.8,71.8,230.3,71.8,230.8,71.1"/>
		<path id="Path_14072" class="st8" d="M234.6,78.7l0.3,0.1c0,0.2,0.1,0.3,0.1,0.5c-0.1,0.2-0.3,0.3-0.4,0.2
			C234.3,79.2,234.7,78.9,234.6,78.7"/>
		<path id="Path_14073" class="st8" d="M248.2,207.3c0.3,0.3,0.5,0.6,0.7,1C248.1,208.4,248.2,207.8,248.2,207.3"/>
		<path id="Path_14074" class="st8" d="M220.5,67.6l-0.4-0.6c0.6-0.1,0.8,0.1,0.8,0.8L220.5,67.6"/>
		<path id="Path_14075" class="st8" d="M223.6,62c0.2,0.1,0.4,0.3,0.5,0.6c-0.3,0.1-0.6,0.2-0.8-0.2C223.2,62.2,223.4,62.1,223.6,62
			"/>
		<path id="Path_14076" class="st8" d="M247.4,215.8c-0.3-0.1-0.5-0.4-0.6-0.6C246.9,215.5,247.7,215,247.4,215.8"/>
		<path id="Path_14077" class="st8" d="M202.7,57.6c-0.2,0-0.4,0-0.6-0.1c0-0.2,0.1-0.4,0.3-0.4C202.7,57.1,202.6,57.4,202.7,57.6"
			/>
		<path id="Path_14078" class="st8" d="M233.1,75.2c0.2,0.2,0.3,0.5,0.4,0.8C233.1,75.9,232.7,75.7,233.1,75.2"/>
		<path id="Path_14079" class="st8" d="M235.3,193.7c-0.2-0.3-0.3-0.6-0.3-1c0.3,0.1,0.5,0.5,0.4,0.8
			C235.4,193.6,235.3,193.7,235.3,193.7"/>
		<path id="Path_14080" class="st8" d="M222.7,61.2c0.2,0.1,0.4,0.3,0.6,0.5C222.6,62,222.7,61.5,222.7,61.2"/>
		<path id="Path_14081" class="st8" d="M239.9,106c0,0.1,0,0.3-0.2,0.3s-0.2-0.2-0.2-0.3s0-0.3,0.2-0.3S239.9,105.9,239.9,106"/>
		<path id="Path_14082" class="st8" d="M225.1,73.3c-0.1-0.2-0.3-0.4-0.4-0.6c0.2,0,0.4-0.1,0.6,0.1C225.5,73,225.3,73.2,225.1,73.3
			"/>
		<path id="Path_14083" class="st8" d="M226.5,75.4c-0.2-0.2-0.3-0.4-0.4-0.6C226.4,74.9,226.9,74.8,226.5,75.4"/>
		<path id="Path_14084" class="st8" d="M243.4,210.7c-0.1-0.1-0.1-0.2-0.2-0.3c0.1-0.2,0.2-0.5,0.3-0.3
			C243.7,210.3,243.6,210.6,243.4,210.7"/>
		<path id="Path_14085" class="st8" d="M238.3,180.6c0.1,0.3,0.2,0.6,0.2,1C238.2,181.3,237.9,181,238.3,180.6"/>
		<path id="Path_14086" class="st8" d="M233,133.2l0-0.5c0,0,0.1,0,0.1-0.1C233.4,132.8,233.4,133.1,233,133.2"/>
		<path id="Path_14087" class="st8" d="M232.7,91.4c-0.1-0.2-0.2-0.4-0.2-0.6C233,90.9,233.1,91.1,232.7,91.4"/>
		<path id="Path_14088" class="st8" d="M228.7,79.7c-0.1-0.1-0.1-0.3-0.2-0.4c0.2,0,0.4-0.1,0.5,0.1S228.8,79.6,228.7,79.7"/>
		<path id="Path_14089" class="st8" d="M179.3,58.6c-0.2,0.1-0.4,0.2-0.6,0.2C178.9,58.3,179.1,58.3,179.3,58.6"/>
		<path id="Path_14090" class="st8" d="M231.3,150.2c0-0.2-0.1-0.3,0.1-0.4c0.1,0,0.3,0,0.3,0.2
			C231.7,150.2,231.5,150.1,231.3,150.2"/>
		<path id="Path_14091" class="st8" d="M227.3,66c0.2,0.1,0.3,0.3,0.4,0.5C227.3,66.6,227.2,66.3,227.3,66"/>
		<path id="Path_14092" class="st8" d="M221.6,68.6c-0.2-0.1-0.4-0.3-0.5-0.6C221.5,67.9,221.6,68.2,221.6,68.6"/>
		<path id="Path_14093" class="st8" d="M240.6,206.2c-0.1-0.1-0.3-0.2-0.3-0.4c0.2,0,0.4,0,0.4,0.2
			C240.8,206.1,240.7,206.2,240.6,206.2"/>
		<path id="Path_14094" class="st8" d="M246.2,204.2c0.2,0.2,0.3,0.4,0.4,0.7C246.1,204.8,246.2,204.5,246.2,204.2"/>
		<path id="Path_14095" class="st8" d="M245.4,202.9c0.3,0.1,0.3,0.3,0.4,0.6C245.4,203.5,245.4,203.2,245.4,202.9"/>
		<path id="Path_14096" class="st8" d="M214.9,62c0-0.1-0.1-0.2,0-0.3s0.1-0.1,0.2-0.1c0,0.1,0.1,0.1,0,0.2
			C215,61.9,214.9,62,214.9,62"/>
		<path id="Path_14097" class="st8" d="M218.2,65.3c-0.2-0.1-0.4-0.2-0.5-0.4C218.1,64.8,218.2,64.9,218.2,65.3"/>
		<path id="Path_14098" class="st8" d="M232.2,89.3c0,0-0.1,0-0.1,0c0-0.1,0-0.2,0-0.4C232.3,88.9,232.5,89,232.2,89.3"/>
		<path id="Path_14099" class="st8" d="M212.2,54.3l0.4,0.2C212.3,54.8,212.2,54.6,212.2,54.3"/>
		<path id="Path_14100" class="st8" d="M232.6,182.2c0-0.1,0-0.3,0-0.4c0.1,0,0.3,0,0.3,0.2C232.9,182.1,232.7,182.1,232.6,182.2"/>
		<path id="Path_14101" class="st8" d="M181.7,58c0,0,0,0.1,0,0.1l-0.3,0C181.4,57.9,181.5,57.7,181.7,58"/>
		<path id="Path_14102" class="st8" d="M233.1,185.1l-0.1-0.4c0.1,0,0.3,0,0.3,0.2C233.4,185,233.2,185.1,233.1,185.1"/>
		<path id="Path_14103" class="st8" d="M236.1,82c0.1,0.1,0.1,0.3,0.2,0.4C236,82.4,235.8,82.3,236.1,82"/>
		<path id="Path_14104" class="st8" d="M180.9,58.2c-0.2,0.1-0.4,0.2-0.6,0.2C180.4,58.2,180.7,58.2,180.9,58.2"/>
		<path id="Path_14105" class="st8" d="M249.3,208.8l0.3,0.3C249.3,209.1,249.3,208.9,249.3,208.8"/>
		<path id="Path_14106" class="st8" d="M238.9,203.1c0-0.1-0.1-0.1-0.1-0.2l0.2,0.1L238.9,203.1"/>
		<path id="Path_14107" class="st8" d="M231.5,86.8c-0.1-0.1-0.2-0.3-0.2-0.4C231.4,86.4,231.5,86.6,231.5,86.8"/>
		<path id="Path_14108" class="st8" d="M234.9,192.5c-0.1-0.1-0.2-0.3-0.2-0.5C235,192.1,235,192.3,234.9,192.5"/>
		<path id="Path_14109" class="st8" d="M228.2,67.4l0.2,0.2L228.2,67.4"/>
		<path id="Path_14110" class="st8" d="M224.7,72.5c-0.1-0.1-0.1-0.2-0.2-0.3C224.5,72.4,224.6,72.5,224.7,72.5"/>
		<path id="Path_14111" class="st8" d="M239.4,186.8l0.1,0.3L239.4,186.8"/>
		<path id="Path_14112" class="st8" d="M229.4,81.3l-0.1-0.3C229.3,81.1,229.4,81.2,229.4,81.3"/>
		<path id="Path_14113" class="st8" d="M232.8,134.7c0-0.1,0.1-0.2,0.1-0.3C232.9,134.5,232.9,134.6,232.8,134.7"/>
		<path id="Path_14114" class="st8" d="M239.9,98.5c0,0.1,0.1,0.2,0.1,0.3C240,98.7,240,98.6,239.9,98.5"/>
		<path id="Path_14115" class="st8" d="M229.6,81.8c0-0.1-0.1-0.1-0.1-0.2C229.6,81.7,229.6,81.8,229.6,81.8"/>
		<path id="Path_14116" class="st8" d="M230.4,83.7l-0.1-0.3L230.4,83.7"/>
		<path id="Path_14117" class="st8" d="M233,184.3c0-0.1,0-0.1,0-0.2C233,184.2,233,184.2,233,184.3C233,184.3,233,184.3,233,184.3"
			/>
		<path id="Path_14118" class="st8" d="M234.9,118.9c0,0,0-0.1,0-0.1C234.9,118.8,234.9,118.9,234.9,118.9"/>
		<path id="Path_14119" class="st8" d="M232.9,183.5c-0.1-0.1-0.2-0.2-0.1-0.3C232.8,183.3,232.9,183.4,232.9,183.5"/>
		<path id="Path_14120" class="st8" d="M218.2,57.7c0.1,0,0.2,0.1,0.2,0.3L218.2,57.7"/>
		<path id="Path_14121" class="st8" d="M237.2,85.3c0,0.1,0,0.1,0.1,0.2C237.1,85.5,237,85.5,237.2,85.3"/>
		<path id="Path_14122" class="st8" d="M231.2,85.9c0-0.1,0-0.1-0.1-0.2C231.1,85.8,231.2,85.8,231.2,85.9
			C231.2,85.9,231.2,85.9,231.2,85.9"/>
		<path id="Path_14123" class="st8" d="M237.5,86.3c0,0.1,0,0.1,0,0.2C237.5,86.5,237.5,86.4,237.5,86.3
			C237.4,86.4,237.5,86.4,237.5,86.3"/>
		<path id="Path_14124" class="st8" d="M237.9,88.2c0,0.1,0.1,0.2,0.1,0.3L237.9,88.2z"/>
		<path id="Path_14125" class="st8" d="M211.5,54l0.2,0.1L211.5,54"/>
		<path id="Path_14126" class="st8" d="M238.8,91.4c0,0.1,0,0.1,0,0.2C238.8,91.6,238.8,91.5,238.8,91.4
			C238.7,91.5,238.8,91.4,238.8,91.4"/>
		<path id="Path_14127" class="st8" d="M203.6,51.6l0.2,0C203.7,51.7,203.6,51.7,203.6,51.6"/>
		<path id="Path_14128" class="st8" d="M184.7,51.3l0.3-0.1L184.7,51.3"/>
		<path id="Path_14129" class="st8" d="M239.7,126.9l-0.1,0.3C239.6,127.2,239.7,127.1,239.7,126.9"/>
		<path id="Path_14130" class="st8" d="M231.9,177.1c0-0.1,0-0.1,0-0.2C231.9,177,231.9,177,231.9,177.1
			C231.9,177.1,231.9,177.1,231.9,177.1"/>
		<path id="Path_14131" class="st8" d="M233.4,130l0.1-0.2L233.4,130"/>
		<path id="Path_14132" class="st11" d="M147.3,176.1l-0.1,0.2c-0.1,0-0.1,0-0.1-0.1s0-0.1,0.1-0.2L147.3,176.1"/>
	</g>
</g>
</svg>
