<?xml version="1.0" encoding="utf-8"?>
<!-- Generator: Adobe Illustrator 27.3.1, SVG Export Plug-In . SVG Version: 6.00 Build 0)  -->
<svg version="1.1" id="Laag_1" xmlns="http://www.w3.org/2000/svg" xmlns:xlink="http://www.w3.org/1999/xlink" x="0px" y="0px"
	 viewBox="0 0 451.4 304.2" style="enable-background:new 0 0 451.4 304.2;" xml:space="preserve">
<style type="text/css">
	.st0{fill:#80C8EC;}
	.st1{fill:#887658;}
</style>
<g id="Group_575" transform="translate(55.826 304.198) rotate(-115)">
	<g>
		<g id="Group_570" transform="translate(0 -0.001)">
			<path id="Path_14481" class="st0" d="M106.1,436.5c-6.5-6.2-12.3-11.7-18.6-16.7c-5.9-4.6-12.1-8.8-18.5-12.7
				c-2.9-1.8-5.4-1.4-8.4,0.5c-12.1,7.5-23.3,16.3-33.4,26.4c-0.8,0.8-1.6,1.7-3.2,1.4c0.4-8.3,3.1-15.9,6.3-23.4
				c5.9-13.9,14.2-26,22.8-37.8c2.7-3.6,3.8-8.2,3-12.6c-3-20.5-6.9-40.8-11.2-61c-0.4-1.7-0.9-3.3-1.3-5c-2.3,0.3-2.2,2.5-3,3.8
				c-0.6,1-0.7,2.8-1.9,2.6c-0.8-0.2-1.7-1.5-2.2-2.5c-1.9-3.8-3.6-7.8-5.4-11.7c-2.4-5.1-5.4-9.5-10.8-10.9
				c-2.7-0.7-2.8-1.7-1.2-4.2c3.7-5.5,8.2-10.2,12.7-14.8c1.9-1.7,2.7-4.4,1.9-6.8c-7.8-34.8-12-70-10.3-105.9
				c0.2-4.5-1.2-6.5-4.9-8c-5.5-2.2-10.7-5.2-16-7.6c-2.8-1.3-3.1-2.9-1.6-5.5c4.3-7.4,10.1-13.6,17.3-16.5
				c9-3.7,11.1-10.9,12.8-20.1c5.3-27.6,13-54.4,26.6-78.6C64.1-2.6,66.1-2.8,74,7.4c7.7,9.9,11.1,22.3,14.2,34.6
				c4.8,19.2,7.5,38.9,8.9,58.8c0.1,1.4,0.8,2.8,0.6,4.1c-1.8,11.3,4,16.9,11.9,22c8.2,5.3,14.8,12.9,20.8,21.1
				c2,2.7,3.1,4.2-1.3,6.3c-14.3,6.6-23.5,19.5-31.1,33.9c-2.2,4.2-1,9.3-1.6,13.9c-1.7,12.8-2.5,25.7-4.9,38.3
				c-0.7,3.7-0.2,6.9,2.9,9.7c4.1,3.7,7.6,8,10.6,12.7c1.2,1.9,2.3,3.6-1,4.4c-5.8,1.4-8.9,6.1-11.4,11.6c-1.7,3.7-3.6,7.4-5.3,11.1
				c-1.5,3.3-2.8,4-4.7-0.2c-1.6,8.8-3.2,17.6-4.8,26.4c-2.9,15.2-4.2,30.7-5.2,46.2c-0.2,2.9,0.6,5.8,2.4,8.1
				c11.7,16.5,23.6,32.8,29.5,53.3C105.5,427.5,106.8,431.3,106.1,436.5 M75.1,62.3c4.6,0,7.6-3.3,7.7-8.5c0.1-5.4-3-8.9-7.8-8.9
				c-4.5,0.1-7.8,3.6-7.9,8.3C67,58.1,70.7,62.3,75.1,62.3"/>
			<path id="Path_14482" class="st1" d="M75.1,62.3c-4.4,0-8.1-4.2-8-9.1c0.1-4.7,3.5-8.2,7.9-8.3c4.8-0.1,7.9,3.5,7.8,8.9
				C82.8,59,79.7,62.4,75.1,62.3"/>
		</g>
	</g>
</g>
</svg>
