<svg id="Group_507" data-name="Group 507" xmlns="http://www.w3.org/2000/svg" xmlns:xlink="http://www.w3.org/1999/xlink" width="126.885" height="334.899" viewBox="0 0 126.885 334.899">
  <defs>
    <clipPath id="clip-path">
      <rect id="Rectangle_177" data-name="Rectangle 177" width="126.885" height="334.899" fill="none"/>
    </clipPath>
  </defs>
  <g id="Group_501" data-name="Group 501" clip-path="url(#clip-path)">
    <path id="Path_11912" data-name="Path 11912" d="M86.722,9.952c2.908.029,3.76,0,3.76,0a16.506,16.506,0,0,0,6.127-1.484l-.42-.53.42.53-.42-.53a3.346,3.346,0,0,0,.42.53,2.828,2.828,0,0,1,.517,3.995c-1.17,1.607-1.227,3.351-1.247,5.207a248.955,248.955,0,0,0,1.4,26.83,188.578,188.578,0,0,0,5.629,31.66c2.906,10.609,6.635,20.9,12.47,30.379,2.016,3.276,4.488,6.229,6.33,9.621a55.394,55.394,0,0,1,5.751,17.046,93.72,93.72,0,0,1,.817,9.5c.521,7.207-1.01,14.3-.828,21.494.213,8.385.046,16.779.053,25.168a19.3,19.3,0,0,1-.35,4.57c-.009,1.122-.027,2.243-.027,3.365q.013,39.854.03,79.709a1.7,1.7,0,0,1-.029.328q0,22.635.009,45.271a3.591,3.591,0,0,0,.316,2.235q-.028.365-.055.73a2.858,2.858,0,0,0-.261,1.78c-1.369,5.906-5.052,9.746-10.8,11.654a23.377,23.377,0,0,1-7.407,1.065q-21.411-.005-42.822-.008c-15.344,0-30.687.028-46.031-.009a18.111,18.111,0,0,1-11.976-3.932,15.107,15.107,0,0,1-5.8-12.017,1.754,1.754,0,0,0,0-2.087q0-1.615,0-3.229a3.486,3.486,0,0,0,.322-2.234q.014-20.372.015-40.744a3.861,3.861,0,0,1,.327-2.412l1.41.009q0,22.525.008,45.051l-.266.111.279.225q.156.034.314.06l.045-.013q-.071.865-.143,1.731c-1.042,1.747-.007,5.276,1.754,5.976a1.235,1.235,0,0,0,.217.025,13.527,13.527,0,0,0,5.718,5.76c.422.652,1.251.6,1.807,1.023l.527.307.1-.017.092.029a1.358,1.358,0,0,0,1.307,1.03,40.181,40.181,0,0,0,4.263.4q11.823.059,23.648-.007c1.225-.009,2.5.84,3.433.5,2.469-.894,4.914.133,7.389-.378,2.232-.461,4.639-.048,6.966-.112,2.257-.062,4.529.284,6.769-.223l.786-.047c2.137.713,4.322.28,6.493.344,5.7.168,11.4-.091,17.1-.066,6.2.027,12.4.1,18.6-.069,1.657-.044,3.62-.014,4.81-1.7l.091-.038.1.005.531-.305a.308.308,0,0,1,.2-.048l.492-.28a11.129,11.129,0,0,0,3.167-2.46l.424-.477a1.921,1.921,0,0,0,1.1-1.339l-.016,0a.628.628,0,0,0,.379-.73l0,.034a10.352,10.352,0,0,0,2.876-6.436,2.454,2.454,0,0,0,.038-2.444q0-19.881-.006-39.762c.395-.462.733-.924,0-1.385q.008-.369.016-.738c.022-.035.066-.074.06-.1a1.311,1.311,0,0,0-.08-.22q0-41.33-.009-82.659c.024-.033.071-.069.068-.1a1.4,1.4,0,0,0-.058-.228q0-.534,0-1.067c.817-.473.187-.939-.007-1.407q-.022-14.745-.034-29.49a14.062,14.062,0,0,1,.211-1.742c.148-.244.425-.489.424-.733-.042-6.277.411-12.56-.117-18.824-.086-1.022.292-2.291-.717-3.163l-.159,0q.031-.356.062-.713a1.408,1.408,0,0,0-.128-1.773.288.288,0,0,1-.011-.213c.43-2.765-1.108-5.263-1.116-7.973,0-.5-.478-.616-.906-.685a18.007,18.007,0,0,0-1.852-4.618c-.24-.592-.466-1.189-.722-1.775-1.212-2.773-3.511-4.828-5.019-7.407l-4-7.035-.361-.752v0l-.344-.708-.012-.016c.017-.8.191-1.679-1-1.828-.167-.726.295-1.675-.756-2.088l-.341-.361a5.105,5.105,0,0,0-.831-3.017c-.751-1.616-.953-3.515-2.4-4.791-.1-.642.212-1.461-.752-1.74v0a1.2,1.2,0,0,0-.385-1.057l-.338-.347,0-.009c.174-1.379-.786-2.423-1.108-3.659-1.123-4.318-2.34-8.612-3.414-12.941-.252-1.014-.706-1.6-1.689-1.736a38.519,38.519,0,0,0-8.14-.753A1.518,1.518,0,0,0,89.5,69.1c-.363-4.826-1.349-9.571-2.014-14.355-3.021-21.75-2.577-28.771-2.328-32.6a98.461,98.461,0,0,1,1.56-12.187" transform="translate(-1.497 -5.181)" fill="#79bae5"/>
    <path id="Path_11913" data-name="Path 11913" d="M32.381,3.679a30.655,30.655,0,0,1,9.675-.058c0,.65-.058,1.3,0,1.948a127.955,127.955,0,0,1,.427,20.376c-.4,5.452-.507,10.927-1.175,16.366-.586,4.778-1.1,9.563-1.735,14.335-.416,3.142-.41,6.333-1.138,9.438l-.422.047a1.768,1.768,0,0,1-.267-.025,24.284,24.284,0,0,0-2.647.009c-.931.1-2.038-.486-2.754.6-1.993.009-3.23.775-3.294,2.955a11.367,11.367,0,0,1-.58,2.374l-.456,2.524c-.978,1.972-1.222,4.167-1.945,6.219-1.27,3.6-2.485,7.223-3.722,10.837-.567.611-.331,1.436-.584,2.131a4.264,4.264,0,0,0-1.327,1.828,77.392,77.392,0,0,1-5.36,10.2c-.972.059-1.073.708-1.013,1.465l0,.009a5.013,5.013,0,0,0-2.925,4.211l-.325.709-.013.024a1.74,1.74,0,0,0-1.307.837c-1.777,3.082-3.794,6.085-3.675,9.861l-.64,3.112-.145.378c-.921.152-1.035.9-1.143,1.6-.544,3.509-1.356,7-.883,10.591q-.038.633-.077,1.266c-.711,1.518-.237,3.121-.346,4.681.113,2.231-.322,4.481.246,6.7q.014,1.43.028,2.859a2.928,2.928,0,0,0,.074,2.823l.123,1.061-.148.33a1.056,1.056,0,0,0,.013,1.463q-.005,18.411-.01,36.822c-1.026,1.238-1.055,4.413-.049,5.379.024.294.068.588.068.883Q2.918,230.914,2.9,258.99c-.854.358-.644,1.117-.689,1.782-.09,1.3.4,2.642-.315,3.89l-.078.051a2.136,2.136,0,0,1-.342-1.447q0-.519,0-1.039v-.381a99.62,99.62,0,0,1-.347-12.357q-.015-22.477-.009-44.953A3.592,3.592,0,0,0,.81,202.3q0-.727,0-1.455a.665.665,0,0,0,.036-1.007c0-.148,0-.3,0-.443a3.162,3.162,0,0,0,.28-1.892q.007-20.6,0-41.2A2.874,2.874,0,0,0,.8,154.423l-.024-1.077a.426.426,0,0,0-.023-.726,52.428,52.428,0,0,1-.738-9.665,65.866,65.866,0,0,1,2.566-20.08,41.178,41.178,0,0,1,7.667-14.649c3.527-4.324,5.929-9.407,8.246-14.459a133.389,133.389,0,0,0,8.967-27.751,232.076,232.076,0,0,0,3.864-25.492c.6-5.929-1.989-25.428,1.034-27.738l2.449-1.849-2.43-7.257" transform="translate(0 -2.132)" fill="#78bbe7"/>
    <path id="Path_11914" data-name="Path 11914" d="M271.067,2.4l-.35-.507.346-.069q0,.289,0,.576" transform="translate(-176.685 -1.192)" fill="#8ab9da"/>
    <path id="Path_11915" data-name="Path 11915" d="M213.215,1.825a.714.714,0,0,1-.054-.325L223,1.441c.055.12.109.24.164.36l-.087-.015c-2.136-.271-4.264.456-6.4.047l-3.457-.008" transform="translate(-139.12 -0.94)" fill="#f3e8cc"/>
    <path id="Path_11916" data-name="Path 11916" d="M241.643,1.779c-.054-.12-.108-.24-.163-.36a1.8,1.8,0,0,1,1.358.287l-1.194.073" transform="translate(-157.603 -0.918)" fill="#8ab9da"/>
    <path id="Path_11917" data-name="Path 11917" d="M181.544.7l-.081.071-.089-.023A.165.165,0,0,1,181.544.7" transform="translate(-118.375 -0.453)" fill="#faaca4"/>
    <path id="Path_11918" data-name="Path 11918" d="M182.54.161l-.4.028c.109-.336.256-.143.4-.028" transform="translate(-118.876 0)" fill="#faaca4"/>
    <path id="Path_11919" data-name="Path 11919" d="M136.7,9.959l24.149,1.726q.031-.726.062-1.453c-.489.412-1.167.667-1.271,1.408-.262,1.863-.771,3.722-.3,5.613a11.916,11.916,0,0,1,.061,3.5c-.131,2.967-.612,5.957.143,8.915q-.014.546-.029,1.092c-1.11,1.485-.723,3.044-.238,4.609q-.018.534-.036,1.067c-.652.2-.705.717-.711,1.269-.043,4.4-.286,8.819-.23,13.2.053,4.159.111,8.334.23,12.5.024.828,0,1.682.957,2.1q.025.713.05,1.426a.692.692,0,0,0-.5.964c.277.923-.231,1.131-1.02,1.168-2.492.118-4.968.395-7.475.388-5.713-.015-11.41-.648-17.127-.386,0-3.89.584-7.753.658-11.629.075-3.956.755-7.846.881-11.8.2-6.39.944-12.5,1.271-19.187.2-4.022.413-9.66.477-16.486" transform="translate(-87.069 -6.5)" fill="#78bbe7"/>
    <path id="Path_11920" data-name="Path 11920" d="M272.71,455.964c1.29-6.63.672-13.334.679-20q.078-81.637.017-163.273c0-3.224.681-6.423.357-9.645-.434-4.313-.711-8.636-1.232-12.947-.512-4.238-2.081-8.114-3.2-12.139a7.264,7.264,0,0,0-2.019-3.125c-1.185-1.116-1.453-2.567-1.987-3.928a24.128,24.128,0,0,1-1.814-6.35c-.215-1.986-1.237-4.026-1.854-6.069-.929-3.073-1.017-6.4-2.316-9.267-1.266-2.792-1.139-5.571-1.477-8.408-.148-1.248-1.546-2.286-1.494-3.814.066-1.928-1.3-3.722-.553-5.722a31.9,31.9,0,0,0,6.567-.549c1.188-.183,1.592.2,1.864,1.259.631,2.456,1.506,4.857,2,7.337.381,1.9,1.332,3.719,1.335,5.588,0,1.627.338,2.491,1.873,2.861l0,.009c.2.831-.5,1.959.795,2.432l.332.737a2.617,2.617,0,0,0,.1,2.071c.771,1.356.468,3.356,2.346,4.058q.068.177.133.353a4.267,4.267,0,0,0,2.093,4.643l.017,0a5.05,5.05,0,0,0,.116,1.582c1,2.391,2.7,4.417,3.566,6.9a2.036,2.036,0,0,0,2.025,1.237c1.508,2.608,3.807,4.686,5.019,7.49.256.592.482,1.2.722,1.795a6.308,6.308,0,0,0,.346,2.419c1.111,3.271,1.748,6.673,2.6,10.015.315,1.237-.37,2.777,1.007,3.721l.158,0q-.035.7-.069,1.407c-1.107,1.287-.03,2.639-.093,3.961-.233,4.815.1,9.633.079,14.456-.211,40.751-.162,81.5-.174,122.255,0,13.084.142,26.169,0,39.252-.038,3.432.108,7.074-2.172,10.116-.221.3-.166.8-.239,1.2l0-.034-.38.739.016,0c-.991-.056-1.146.569-1.1,1.354l-.423.482a2.527,2.527,0,0,0-1.931.663c-3.536,2.292-7.262,3.925-11.635,2.885" transform="translate(-166.811 -124.451)" fill="#fff"/>
    <path id="Path_11921" data-name="Path 11921" d="M268.543,203.389c-1.535-.366-1.871-1.221-1.873-2.829,0-1.848-.954-3.649-1.335-5.525-.5-2.452-1.372-4.827-2-7.255-.272-1.047-.676-1.425-1.864-1.245a32.231,32.231,0,0,1-6.567.543c-.8-.785-.705-1.794-.71-2.778a38.56,38.56,0,0,1,8.14.753c.983.139,1.438.722,1.689,1.736,1.075,4.329,2.291,8.624,3.414,12.941.322,1.237,1.282,2.281,1.108,3.659" transform="translate(-165.898 -120.258)" fill="#d8ebfa"/>
    <path id="Path_11922" data-name="Path 11922" d="M317.966,289.652a2.038,2.038,0,0,1-2.025-1.223c-.866-2.456-2.567-4.46-3.566-6.825a4.946,4.946,0,0,1-.116-1.564l.988,1.1.012.016a.742.742,0,0,0,.344.708v0l.361.752,4,7.035" transform="translate(-203.796 -182.77)" fill="#d8ebfa"/>
    <path id="Path_11923" data-name="Path 11923" d="M301.863,254.818l-.134-.349-2.171-5.978.074-.067c1.443,1.277,1.646,3.175,2.4,4.791a5.106,5.106,0,0,1,.831,3.017l-.084.068-.913-1.481" transform="translate(-195.508 -162.135)" fill="#8ab9da"/>
    <path id="Path_11924" data-name="Path 11924" d="M309.651,271.942c1.051.414.589,1.362.755,2.089l-.074.068a6.3,6.3,0,0,1-.893-1.991q.107-.082.212-.166" transform="translate(-201.957 -177.484)" fill="#8ab9da"/>
    <path id="Path_11925" data-name="Path 11925" d="M296.288,241.762c-1.3-.467-.593-1.583-.795-2.4l.338.347a1.345,1.345,0,0,0,.385,1.057v.005q.036.5.072.995" transform="translate(-192.845 -156.218)" fill="#d8ebfa"/>
    <path id="Path_11926" data-name="Path 11926" d="M313.085,279.784l-.988-1.1-.017,0q-.036-.329-.073-.658l.075-.068c1.193.149,1.02,1.03,1,1.827" transform="translate(-203.633 -181.41)" fill="#8ab9da"/>
    <path id="Path_11927" data-name="Path 11927" d="M297.676,244.411q-.036-.5-.072-.995c.964.279.649,1.1.752,1.739l-.073.067a1.329,1.329,0,0,0-.275-.083l-.332-.729" transform="translate(-194.233 -158.867)" fill="#8ab9da"/>
    <path id="Path_11928" data-name="Path 11928" d="M296.88,241.415a1.342,1.342,0,0,1-.385-1.057,1.2,1.2,0,0,1,.385,1.057" transform="translate(-193.509 -156.871)" fill="#8ab9da"/>
    <path id="Path_11929" data-name="Path 11929" d="M315.488,283.971a.742.742,0,0,1-.344-.707l.344.707" transform="translate(-205.68 -184.874)" fill="#8ab9da"/>
    <path id="Path_11930" data-name="Path 11930" d="M316.5,286.047l-.362-.752.362.752" transform="translate(-206.329 -186.199)" fill="#8ab9da"/>
    <path id="Path_11931" data-name="Path 11931" d="M308.907,270.9l.342.361-.21.165c-.071-.154-.143-.306-.215-.459Z" transform="translate(-201.555 -176.806)" fill="#8ab9da"/>
    <path id="Path_11932" data-name="Path 11932" d="M143.365,173.967q.072,1.436.146,2.872l-.1.111-.981.025-1.213-.055-1.712.006-.4-.005c-6.194.015-12.388-.254-18.582.244-3.47.279-3.48.15-4.012,3.537l-.111.019-2.61-.017-1.335-.008a15.262,15.262,0,0,0-2.271-.3c-1.39.018-1.828-.525-1.376-1.827a4.385,4.385,0,0,0,.1-1.031l.422-.047c2.71-.048,5.449.066,7.905-1.391,5.717-.262,11.414.371,17.127.386,2.507.007,4.983-.27,7.475-.388.789-.037,1.3-.245,1.021-1.169a.691.691,0,0,1,.5-.964" transform="translate(-70.903 -113.54)" fill="#8ab9da"/>
    <path id="Path_11933" data-name="Path 11933" d="M91.5,184.206a4.382,4.382,0,0,1-.1,1.031c-.452,1.3-.014,1.844,1.376,1.827a15.332,15.332,0,0,1,2.272.3,5.787,5.787,0,0,1-4.163.328c-.285-.82-1.011-.647-1.635-.717-.935-.1-1.867-.282-2.8-.315-2.694-.1-2.712-.077-3.462,2.555-.162.569-.31,1.01-1.022.9a11.38,11.38,0,0,0,.581-2.376c.064-2.179,1.3-2.946,3.294-2.954,1.793-.265,3.64-.07,5.4-.607a1.755,1.755,0,0,0,.267.025" transform="translate(-53.49 -120.207)" fill="#d8ebfa"/>
    <path id="Path_11934" data-name="Path 11934" d="M209.225,10.747q-.684,9.716-1.369,19.433c-.755-2.958-.275-5.948-.144-8.915a11.913,11.913,0,0,0-.06-3.5c-.469-1.89.04-3.75.3-5.613.1-.741.782-1,1.271-1.408" transform="translate(-135.388 -7.014)" fill="#8ab9da"/>
    <path id="Path_11935" data-name="Path 11935" d="M207.2,69.837a14.4,14.4,0,0,1-.238,4.61c-.485-1.565-.873-3.125.238-4.61" transform="translate(-134.763 -45.579)" fill="#8ab9da"/>
    <path id="Path_11936" data-name="Path 11936" d="M150.037,455.066l-14.673,0c.072-.336.029-.783.234-.991,1.271-1.292.626-2.144-.6-2.9l-.009-192.917c.386-1.145.273-1.361-.728-1.388l-3.567-.009c-4.751-.207-9.508.223-14.267-.234-1.147-.11-2.9-.245-3.312,1.64,0,1-.014,2.008-.014,3.012q0,38.624-.018,77.249c0,.81.442,1.822-.654,2.371l-1.1-.39c-.111-.053-.176-.311-.352-.077l.306.13a1.156,1.156,0,0,0,1.214,1.017c1.553.361,1.056,1.288.621,2.2l-.363.337-2.157-1.095,0-.005c-.513-1.512-1.582-1.58-2.86-1.063a5.48,5.48,0,0,1-5.137-.328c-.488-.294-1.2-.66-.8-1.358.436-.756,1.082-.18,1.551.071,2.322,1.242,4.369-.027,6.509-.5a4.124,4.124,0,0,0-2.967-.143c-3.15.864-5.644-1-5.618-4.239.2-25.087-.484-50.179.389-75.261.151-4.342.757-8.672,1.252-13,.462-4.03,1.031-8.048,1.605-12.064.3-2.081.464-4.148,2.341-5.723,1.658-1.39,3.747-2.681,3.56-5.351-.006-.092.1-.218.194-.288.749-.587.572-1.063.025-1.763-.638-.817-.877-1.781.663-2.037l.349.356a3.54,3.54,0,0,1,.989,3.294c.772-.52,1.367-1.066,1.064-1.9a2.06,2.06,0,0,0-2.019-1.429l-.36-.344c.11-1.329,1.009-1.292,1.947-1.038.687.186,1.335.514,2.01.75.434.151.907.444,1.308-.057.38-.474-.048-.737-.31-1.042a.59.59,0,0,1-.076-.8.434.434,0,0,1,.637-.1c.664.714,1.157.531,1.9-.008a7.121,7.121,0,0,0,1.622-1.6c.355-.492.176-.892-.427-1.071a2,2,0,0,0-.816-1.642c-.483-.408-1.058-.758-.974-1.521a.848.848,0,0,0,.715-.712.867.867,0,0,0,.729-.7l.356-.345c.57-.326,1.217-.655.921-1.458a2.458,2.458,0,0,0-1.522-1.357c-.543-.185-1.048.374-1.233,1a.846.846,0,0,0-.713.717c-.046.107-.327.155-.085.334l.114-.309a.828.828,0,0,0,.722-.7c1.884-.335,2.1-.12,1.739,1.726l-.348.351a.842.842,0,0,0-.711.721.82.82,0,0,0-.72.707c-.673.175-1.186.45-.567,1.194.67.806,1.219,1.765,2.369,2.029-.529,1.943-1.676,1.352-2.844.679l-.105-.07.071.1c.085.405.668.72.2,1.306-1.559-1.046-3.7-1.454-3.824-3.875a1.943,1.943,0,0,0-.3-.638c.65-.16.573-.532.186-.857-1.714-1.433-1.253-2.925-.173-4.451a1.183,1.183,0,0,0,1.078-1.06,2.332,2.332,0,0,0,1.786-1.781,1.544,1.544,0,0,1,1.4,1.747l-.068.112.113-.068c.678-.591,1.077-1.406,2.079-1.756a1.868,1.868,0,0,0,1.147-2.122,2.369,2.369,0,0,0-2.06-1.7c-1.034-.016-1.466.794-1.754,1.7-.227.712-.578,1.386-.874,2.077a2.292,2.292,0,0,0-1.8,1.764,1.173,1.173,0,0,0-1.073,1.065c-1.809.763-2.08,1.576-1.424,4.268-.919-.524-2.394-.588-2.315-2.031.105-1.93.434-3.85.707-5.769.471-3.312,1.274-6.582,1.266-9.954l.223-.315.113-.019c9.08.683,18.176.228,27.264.368.978.934.956,1.979.879,3.309a39.754,39.754,0,0,0,.759,10.654c.639,2.985.733,6.079,1.263,9.092.5,2.824.9,5.664,1.637,8.454s.8,5.7,1.543,8.508c.552,2.092.24,4.482.908,6.362,1.763,4.965,1.715,10.118,2.437,15.177a103.581,103.581,0,0,1,1.29,14.409q.129,89.335.09,178.67c0,2.229-.481,4.5.3,6.707m-34.076-244.7-.691,0c-.106-.508-.243-.989-.926-1.049-.137.795.377.94.9,1.074.245.651.494.666.745,0,.207-.061.446-.086.455-.374a.155.155,0,0,0-.107-.107c-.292.007-.316.247-.381.449" transform="translate(-66.053 -126.194)" fill="#fdf7da"/>
    <path id="Path_11937" data-name="Path 11937" d="M158.571,186.509c-9.088-.14-18.184.315-27.264-.368.532-3.387.542-3.258,4.012-3.537,6.193-.5,12.387-.229,18.582-.244l.4.006,1.712-.006c.372.711.776.731,1.212.056l.981-.025q.183,2.06.367,4.119" transform="translate(-85.698 -118.98)" fill="#f3e8cc"/>
    <path id="Path_11938" data-name="Path 11938" d="M298.457,248.378a1.333,1.333,0,0,1,.275.083l2.171,5.978c-1.878-.695-1.575-2.672-2.346-4.013a2.561,2.561,0,0,1-.1-2.048" transform="translate(-194.682 -162.105)" fill="#d8ebfa"/>
    <path id="Path_11939" data-name="Path 11939" d="M306.934,268.314c.072.152.144.3.215.458a6.263,6.263,0,0,0,.891,1.992q.036.329.072.658a4.2,4.2,0,0,1-2.092-4.591l.914,1.482" transform="translate(-199.666 -174.149)" fill="#d8ebfa"/>
    <path id="Path_11940" data-name="Path 11940" d="M101.119,637.711q.038,3.376.075,6.753c.147.473-1.471.864-.067,1.395.476.864-.009,1.738-.008,2.6q.054,41.809.043,83.618c0,1.053.2,2.105.3,3.158l-11.8.012q0-37.885.015-75.77c0-1.158.59-2.712.329-3.374-.764-1.935.22-2.9,1.237-4.082.1-.117,0-.459-.086-.669-.981-2.547-.11-4.588,1.747-6.373a2.6,2.6,0,0,0,1.067-1.581l.007-.006a3.113,3.113,0,0,0,2.18-2.1l.342-.357A5.313,5.313,0,0,0,99.39,638.1l.068-.123-.125.068a5.312,5.312,0,0,0-2.864,2.855l-.362.34L94.351,642l-.038-.037-.333-.33-.008-.006c-.6-.947-1.189-.135-1.593.122-2.531,1.614-4.815.817-6.939-.706a5.866,5.866,0,0,1-2.435-6.073,6.1,6.1,0,0,1,4.966-5.157,7.549,7.549,0,0,1,3.842-.226,1.4,1.4,0,0,0,1.063.363c.063.211.1.448.4.442a.157.157,0,0,0,.105-.113c-.013-.3-.264-.309-.473-.37a1.424,1.424,0,0,0-1.071-.354,3.278,3.278,0,0,0-.16-.308c-.461-.7-1.927-.025-1.921-1.15.01-1.751-.58-3.55.267-5.261l.01-.009a10.758,10.758,0,0,0,6.76-.141c.732-.234,1.187.483,1.842.5l0,0c.212,1.043,1.045,1.573,1.819,2.152l.712,1.011q-.01,5.148-.021,10.3c-.294.239-.885.255-.783.789.061.319.468.253.751.274M93.6,652.247c-.052.11-.33.166-.083.346.039-.1.077-.209.115-.315l.355-.348.716-.355a.87.87,0,0,0,.72-.712.852.852,0,0,0,.716-.717l.358-.709.355-.35.717-.354c.209-.061.45-.088.458-.378a.155.155,0,0,0-.108-.107c-.3.006-.32.245-.379.452l-.712.364-.356.35-.369.7a.817.817,0,0,0-.72.708.835.835,0,0,0-.721.7l-.709.368-.354.35m2.282-18.574c.24-.751.077-1.137-.54-1.381a1.128,1.128,0,0,0,.54,1.381m-1.363-2.4-.066.092.106.016Zm4.6,15.693.1.01-.041-.1Z" transform="translate(-54.097 -406.367)" fill="#fdf7da"/>
    <path id="Path_11941" data-name="Path 11941" d="M125.856,193.694c-.8-.114-1.662.264-2.387-.333l2.611.017-.225.316" transform="translate(-80.583 -126.198)" fill="#d8ebfa"/>
    <path id="Path_11942" data-name="Path 11942" d="M203.641,182.524c-.437.676-.84.655-1.212-.056l1.212.056" transform="translate(-132.116 -119.089)" fill="#d8ebfa"/>
    <path id="Path_11943" data-name="Path 11943" d="M196.752,182.476l-.4-.006.4.006" transform="translate(-128.151 -119.09)" fill="#d8ebfa"/>
    <path id="Path_11944" data-name="Path 11944" d="M145.122,219.669a1.544,1.544,0,0,0-1.4-1.748l-.015-.015c.3-.691.647-1.365.874-2.077.288-.9.72-1.713,1.754-1.7a2.368,2.368,0,0,1,2.06,1.7,1.867,1.867,0,0,1-1.147,2.122c-1,.35-1.4,1.165-2.079,1.756Z" transform="translate(-93.789 -139.755)" fill="#f3e8cc"/>
    <path id="Path_11945" data-name="Path 11945" d="M153.078,375.639c-.266.717-.891.7-1.487.679-4.215-.144-8.445.339-12.649-.283a1.511,1.511,0,0,0-1.478.411,2.284,2.284,0,0,1-1.965.6c.412-1.885,2.165-1.75,3.312-1.64,4.759.457,9.516.028,14.267.234" transform="translate(-88.434 -244.974)" fill="#fffbee"/>
    <path id="Path_11946" data-name="Path 11946" d="M134.192,628.809l-.712-1.012a1.335,1.335,0,0,0,.337-1.056l.364-.337c.226,1.71,1.622,2.734,2.709,3.721,1.444,1.311,2.564,2.889,4.014,4.178.916.814,1.516,1.86.444,3.047l-.006-.007a3.087,3.087,0,0,0-1.157-2.787c-2.03-1.881-4-3.827-5.992-5.747" transform="translate(-87.116 -408.826)" fill="#d8ebfa"/>
    <path id="Path_11947" data-name="Path 11947" d="M130.715,237.412c-.656-2.692-.385-3.505,1.424-4.267l.026.026c-1.08,1.526-1.542,3.018.173,4.451.388.324.464.7-.186.857h0a1.872,1.872,0,0,0-1.432-1.062Z" transform="translate(-85.1 -152.163)" fill="#f3e8cc"/>
    <path id="Path_11948" data-name="Path 11948" d="M131.314,270.9a2.061,2.061,0,0,1,2.019,1.43c.3.833-.292,1.379-1.064,1.9a3.54,3.54,0,0,0-.989-3.294Z" transform="translate(-85.681 -176.804)" fill="#f3e8cc"/>
    <path id="Path_11949" data-name="Path 11949" d="M150.081,249.621c-1.15-.264-1.7-1.223-2.369-2.029-.619-.744-.105-1.02.567-1.194l.038.037c-.084.762.491,1.112.974,1.52a2,2,0,0,1,.815,1.641l-.025.024" transform="translate(-96.224 -160.813)" fill="#f3e8cc"/>
    <path id="Path_11950" data-name="Path 11950" d="M151.65,236.026c.361-1.846.145-2.06-1.74-1.726l-.038-.038c.185-.622.691-1.181,1.234-1a2.457,2.457,0,0,1,1.522,1.357c.3.8-.35,1.131-.921,1.458Z" transform="translate(-97.815 -152.219)" fill="#f3e8cc"/>
    <path id="Path_11951" data-name="Path 11951" d="M130.4,625.317a1.334,1.334,0,0,1-.338,1.056c-.774-.578-1.607-1.108-1.819-2.151l2.157,1.095" transform="translate(-83.698 -407.402)" fill="#f3e8cc"/>
    <path id="Path_11952" data-name="Path 11952" d="M197.105,377.6c-.773-.191-.7-.814-.728-1.388,1,.027,1.115.243.728,1.388" transform="translate(-128.166 -245.534)" fill="#fffbee"/>
    <path id="Path_11953" data-name="Path 11953" d="M140.332,225.012a2.332,2.332,0,0,1-1.786,1.781l-.031-.031a2.293,2.293,0,0,1,1.8-1.765l.015.015" transform="translate(-90.402 -146.845)" fill="#f3e8cc"/>
    <path id="Path_11954" data-name="Path 11954" d="M139.89,240.392c-.527-.134-1.04-.279-.9-1.074.683.061.82.541.926,1.049Z" transform="translate(-90.696 -156.192)" fill="#f3e8cc"/>
    <path id="Path_11955" data-name="Path 11955" d="M136.53,230.108a1.183,1.183,0,0,1-1.078,1.06l-.026-.026a1.173,1.173,0,0,1,1.073-1.066l.031.031" transform="translate(-88.386 -150.161)" fill="#f3e8cc"/>
    <path id="Path_11956" data-name="Path 11956" d="M131.365,617.39c.02.227.04.453.062.679a1.156,1.156,0,0,1-1.213-1.017l.046-.053,1.105.39" transform="translate(-84.985 -402.688)" fill="#f3e8cc"/>
    <path id="Path_11957" data-name="Path 11957" d="M149.868,245.071a.821.821,0,0,1,.72-.707l.032.032a.847.847,0,0,1-.715.712l-.038-.037" transform="translate(-97.812 -159.485)" fill="#f3e8cc"/>
    <path id="Path_11958" data-name="Path 11958" d="M152.7,242.34a.868.868,0,0,1-.729.7l-.032-.031a.841.841,0,0,1,.711-.721l.05.05" transform="translate(-99.166 -158.132)" fill="#f3e8cc"/>
    <path id="Path_11959" data-name="Path 11959" d="M141.653,242.332l.691,0,.033.032c-.253.662-.5.647-.746,0l.023-.024" transform="translate(-92.436 -158.157)" fill="#f3e8cc"/>
    <path id="Path_11960" data-name="Path 11960" d="M143.684,241.484c.065-.2.089-.442.381-.449a.155.155,0,0,1,.107.107c-.009.288-.249.313-.455.374l-.032-.032" transform="translate(-93.776 -157.313)" fill="#f3e8cc"/>
    <path id="Path_11961" data-name="Path 11961" d="M147.82,236.919a.847.847,0,0,1,.713-.717l.038.037a.826.826,0,0,1-.722.7Z" transform="translate(-96.475 -154.158)" fill="#f3e8cc"/>
    <path id="Path_11962" data-name="Path 11962" d="M129.639,616.727l-.306-.13c.176-.233.24.025.352.078l-.045.052" transform="translate(-84.41 -402.362)" fill="#f3e8cc"/>
    <path id="Path_11963" data-name="Path 11963" d="M147.508,238.29l-.114.309c-.242-.179.039-.227.085-.334l.029.024" transform="translate(-96.134 -155.505)" fill="#f3e8cc"/>
    <path id="Path_11964" data-name="Path 11964" d="M146.634,257.535l-.071-.1.106.071-.034.033" transform="translate(-95.655 -168.014)" fill="#f3e8cc"/>
    <path id="Path_11965" data-name="Path 11965" d="M147.7,230.114l-.113.068.068-.112.044.044" transform="translate(-96.326 -150.157)" fill="#f3e8cc"/>
    <path id="Path_11966" data-name="Path 11966" d="M130.625,270.289l-.349-.356.023-.022.359.344-.033.034" transform="translate(-85.025 -176.159)" fill="#f3e8cc"/>
    <path id="Path_11967" data-name="Path 11967" d="M154.395,241.335l-.356.344-.05-.049.348-.351.058.056" transform="translate(-100.502 -157.472)" fill="#f3e8cc"/>
    <path id="Path_11968" data-name="Path 11968" d="M106.788,679.077a5.6,5.6,0,0,0-3.591,5.375q0,1.7,0,3.391l-.668-.017c0-2.771-.015-5.541.012-8.311.006-.581.507-.721,1.009-.806a7.376,7.376,0,0,0,3.238-1.411l.008.006.333.33.038.037-.372,1.4Z" transform="translate(-66.914 -442.042)" fill="#fdf7da"/>
    <path id="Path_11969" data-name="Path 11969" d="M123.7,246.457c.448.057,1.123-.039,1.081.585-.072,1.059-1.114.818-1.781,1.014-.423.125-.94-.137-.883-.587.107-.854.839-1,1.583-1.012" transform="translate(-79.694 -160.851)" fill="#fdf7da"/>
    <path id="Path_11970" data-name="Path 11970" d="M120.826,262.419a2.637,2.637,0,0,0,2.8.374.448.448,0,0,1,.63.109c.136.232.026.422-.18.584a2.22,2.22,0,0,1-3.246-1.067" transform="translate(-78.858 -171.269)" fill="#fdf7da"/>
    <path id="Path_11971" data-name="Path 11971" d="M131.415,257.4a2.351,2.351,0,0,1,1.621-1.016c-.059.96-.6,1.074-1.621,1.016" transform="translate(-85.769 -167.328)" fill="#fdf7da"/>
    <path id="Path_11972" data-name="Path 11972" d="M136.792,262.954c-.167.232-.359.247-.493.11a1.324,1.324,0,0,1-.187-.454c.156-.023.352-.113.458-.051s.161.275.223.395" transform="translate(-88.834 -171.347)" fill="#fdf7da"/>
    <path id="Path_11973" data-name="Path 11973" d="M131.342,245.443a1.871,1.871,0,0,1,1.432,1.062,1.889,1.889,0,0,1-1.432-1.062" transform="translate(-85.721 -160.19)" fill="#fdf7da"/>
    <path id="Path_11974" data-name="Path 11974" d="M133.943,663.388c-.282-.021-.689.044-.751-.275-.1-.535.489-.55.783-.789,1.917-.07,3.86.3,5.742-.337l-.008-.008c-.29.949-.8,1.634-1.9,1.126a4.611,4.611,0,0,0-3.863.283" transform="translate(-86.921 -432.044)" fill="#f3e8cc"/>
    <path id="Path_11975" data-name="Path 11975" d="M134.313,686.848c-1.4-.531.214-.922.067-1.4l.667-.012.016.016-.75,1.391" transform="translate(-87.283 -447.357)" fill="#d8ebfa"/>
    <path id="Path_11976" data-name="Path 11976" d="M151.986,661.214l.245-.419.172.169-.425.243Z" transform="translate(-99.189 -431.271)" fill="#f3e8cc"/>
    <path id="Path_11977" data-name="Path 11977" d="M152.786,670.075l-.149-.2c.04-.025.109-.079.116-.072a1.8,1.8,0,0,1,.155.192l-.122.077" transform="translate(-99.619 -437.152)" fill="#d8ebfa"/>
    <path id="Path_11978" data-name="Path 11978" d="M146.788,675.4c.057-.2.072-.438.358-.458.036,0,.11.066.109.1-.007.283-.245.312-.446.378l-.021-.02" transform="translate(-95.802 -440.502)" fill="#d8ebfa"/>
    <path id="Path_11979" data-name="Path 11979" d="M143.659,677.968a.8.8,0,0,1,.733-.7l.019.019a.853.853,0,0,1-.713.719Z" transform="translate(-93.76 -442.023)" fill="#d8ebfa"/>
    <path id="Path_11980" data-name="Path 11980" d="M142.377,679.321a.863.863,0,0,1-.727.7l-.014-.014a.81.81,0,0,1,.7-.725l.038.038" transform="translate(-92.439 -443.337)" fill="#d8ebfa"/>
    <path id="Path_11981" data-name="Path 11981" d="M138.527,683.086a.812.812,0,0,1,.721-.713l.019.019a.884.884,0,0,1-.721.713Z" transform="translate(-90.41 -445.354)" fill="#d8ebfa"/>
    <path id="Path_11982" data-name="Path 11982" d="M137.51,684.78l.353-.352.019.019-.357.349Z" transform="translate(-89.747 -446.695)" fill="#d8ebfa"/>
    <path id="Path_11983" data-name="Path 11983" d="M140.976,681.385l-.353.354-.019-.019.358-.348.014.014" transform="translate(-91.766 -444.7)" fill="#d8ebfa"/>
    <path id="Path_11984" data-name="Path 11984" d="M145.768,676.609l.354-.351.021.02-.356.35Z" transform="translate(-95.136 -441.363)" fill="#d8ebfa"/>
    <path id="Path_11985" data-name="Path 11985" d="M155.971,657.9l-.084.075.078-.081Z" transform="translate(-101.74 -429.381)" fill="#d8ebfa"/>
    <path id="Path_11986" data-name="Path 11986" d="M121.985,669.859A5.313,5.313,0,0,1,124.849,667l.058.056a5.316,5.316,0,0,1-2.889,2.832l-.033-.033" transform="translate(-79.614 -435.323)" fill="#f3e8cc"/>
    <path id="Path_11987" data-name="Path 11987" d="M114.818,678.356l.372-1.4,1.756-.754.053.051a3.113,3.113,0,0,1-2.181,2.1" transform="translate(-74.937 -441.328)" fill="#f3e8cc"/>
    <path id="Path_11988" data-name="Path 11988" d="M119.165,651.815a1.129,1.129,0,0,1-.541-1.381c.618.244.78.63.541,1.381" transform="translate(-77.376 -424.509)" fill="#f3e8cc"/>
    <path id="Path_11989" data-name="Path 11989" d="M118.873,702.458a.819.819,0,0,1,.72-.708l.036.03a.852.852,0,0,1-.717.717l-.04-.04" transform="translate(-77.583 -458.001)" fill="#f3e8cc"/>
    <path id="Path_11990" data-name="Path 11990" d="M116.8,704.493a.836.836,0,0,1,.722-.7l.04.039a.871.871,0,0,1-.72.712Z" transform="translate(-76.227 -459.331)" fill="#f3e8cc"/>
    <path id="Path_11991" data-name="Path 11991" d="M111.677,643.564c.208.061.46.072.473.37a.156.156,0,0,1-.105.113c-.3.006-.338-.231-.4-.442l.033-.04" transform="translate(-72.865 -420.025)" fill="#f3e8cc"/>
    <path id="Path_11992" data-name="Path 11992" d="M125.081,696.822c.059-.207.084-.445.38-.452a.154.154,0,0,1,.108.107c-.009.29-.25.317-.458.378l-.029-.033" transform="translate(-81.635 -454.489)" fill="#f3e8cc"/>
    <path id="Path_11993" data-name="Path 11993" d="M120.947,700.43l.369-.7.025.024q-.179.354-.358.709l-.036-.03" transform="translate(-78.937 -456.68)" fill="#f3e8cc"/>
    <path id="Path_11994" data-name="Path 11994" d="M123.032,698.035l.712-.363.028.033-.717.354-.024-.024" transform="translate(-80.297 -455.339)" fill="#f3e8cc"/>
    <path id="Path_11995" data-name="Path 11995" d="M115.5,705.863l-.716.354-.033-.034.709-.368.041.047" transform="translate(-74.895 -460.654)" fill="#f3e8cc"/>
    <path id="Path_11996" data-name="Path 11996" d="M113.426,707.915l-.115.315c-.247-.18.031-.236.083-.346Z" transform="translate(-73.887 -462.004)" fill="#f3e8cc"/>
    <path id="Path_11997" data-name="Path 11997" d="M116.26,647.505l.04.108-.106-.016Z" transform="translate(-75.835 -422.598)" fill="#f3e8cc"/>
    <path id="Path_11998" data-name="Path 11998" d="M129.631,692.513l.06-.092.041.1Z" transform="translate(-84.604 -451.912)" fill="#f3e8cc"/>
    <path id="Path_11999" data-name="Path 11999" d="M115.154,677.646l-.333-.33.333.33" transform="translate(-74.938 -442.054)" fill="#f3e8cc"/>
    <path id="Path_12000" data-name="Path 12000" d="M120.944,675.565l.362-.34.033.032-.342.358-.052-.05" transform="translate(-78.935 -440.689)" fill="#f3e8cc"/>
    <path id="Path_12001" data-name="Path 12001" d="M130.231,666.878l.125-.067-.068.123-.057-.056" transform="translate(-84.996 -435.197)" fill="#f3e8cc"/>
    <path id="Path_12002" data-name="Path 12002" d="M113.738,707.225l.354-.35.033.033-.354.348-.032-.031" transform="translate(-74.232 -461.345)" fill="#f3e8cc"/>
    <path id="Path_12003" data-name="Path 12003" d="M122.009,699.069l.355-.351.024.024-.354.351-.025-.024" transform="translate(-79.63 -456.022)" fill="#f3e8cc"/>
    <rect id="Rectangle_172" data-name="Rectangle 172" width="64.052" height="40.537" transform="translate(32.382 24.258)" fill="#78bbe7"/>
    <rect id="Rectangle_173" data-name="Rectangle 173" width="67.385" height="267.04" transform="translate(29.048 64.794)" fill="#fff"/>
    <rect id="Rectangle_174" data-name="Rectangle 174" width="22.538" height="229.757" transform="translate(88.777 102.077)" fill="#fff"/>
    <path id="Path_12004" data-name="Path 12004" d="M23.894,453.041c-1.291-6.63-.672-13.334-.679-20Q23.136,351.4,23.2,269.766c0-3.224-.681-6.423-.357-9.645.435-4.313.711-8.636,1.232-12.947.512-4.238,2.081-8.114,3.2-12.139A7.265,7.265,0,0,1,29.3,231.91c1.185-1.116,1.453-2.567,1.987-3.928a24.131,24.131,0,0,0,1.813-6.35c.215-1.986,1.237-4.026,1.854-6.068.928-3.073,1.017-6.4,2.316-9.267,1.266-2.792,1.139-5.571,1.477-8.408.148-1.248,1.546-2.286,1.494-3.814-.066-1.928,1.3-3.722.553-5.722a31.911,31.911,0,0,1-6.567-.549c-1.189-.183-1.592.2-1.864,1.259-.631,2.456-1.506,4.857-2,7.336-.381,1.9-1.332,3.72-1.335,5.588,0,1.627-.338,2.491-1.873,2.861l0,.009c-.2.831.505,1.959-.795,2.432l-.332.737a2.617,2.617,0,0,1-.1,2.071c-.771,1.356-.468,3.356-2.346,4.058-.045.118-.09.235-.133.353a4.267,4.267,0,0,1-2.093,4.643l-.017,0a5.037,5.037,0,0,1-.115,1.582c-1,2.392-2.7,4.417-3.565,6.9a2.036,2.036,0,0,1-2.025,1.237c-1.507,2.608-3.807,4.686-5.019,7.49-.256.592-.482,1.2-.722,1.795a6.31,6.31,0,0,1-.346,2.419c-1.111,3.271-1.748,6.673-2.6,10.015-.315,1.237.371,2.777-1.007,3.721l-.158,0q.035.7.069,1.407c1.107,1.287.03,2.639.093,3.961.233,4.815-.1,9.633-.079,14.456.211,40.751.162,81.5.174,122.255,0,13.084-.143,26.169,0,39.252.038,3.432-.108,7.074,2.172,10.116.221.3.166.8.239,1.2l0-.034q.189.37.379.738l-.016,0c.991-.056,1.146.569,1.1,1.354l.423.482a2.528,2.528,0,0,1,1.931.663c3.536,2.292,7.262,3.925,11.636,2.885" transform="translate(-3.767 -122.543)" fill="#fff"/>
    <rect id="Rectangle_175" data-name="Rectangle 175" width="22.538" height="229.757" transform="translate(14.71 102.7)" fill="#fff"/>
    <rect id="Rectangle_176" data-name="Rectangle 176" width="65.115" height="22.71" transform="translate(31.318 1.547)" fill="#00117f"/>
  </g>
</svg>
