<?xml version="1.0" encoding="utf-8"?>
<!-- Generator: Adobe Illustrator 27.3.1, SVG Export Plug-In . SVG Version: 6.00 Build 0)  -->
<svg version="1.1" id="Laag_1" xmlns="http://www.w3.org/2000/svg" xmlns:xlink="http://www.w3.org/1999/xlink" x="0px" y="0px"
	 viewBox="0 0 369.6 473.7" style="enable-background:new 0 0 369.6 473.7;" xml:space="preserve">
<style type="text/css">
	.st0{fill:#5A7F39;}
	.st1{fill:#547736;}
</style>
<g id="Group_467" transform="translate(144.21) rotate(60)">
	<g>
		<g id="Group_435">
			<path id="Path_11756" class="st0" d="M430.3,5.6c0,0-29.6-7-45.6-5.3s-39.2,9.1-58.2,19.3c-19,10.2-56.8,22.8-67.6,25.6
				l-10.8,2.8c0,0-42.5,5.2-67.5,4.5s-79.6-7.2-92.8-8.7c-13.2-1.5-29.2-10-53.3,3.5S1.9,67.8,0.2,86.4s8.7,33.3,19.5,42.7
				s36.9,26.7,59,28.2l22.1,1.5c0,0,59.5,8.6,73.7,7.6c14.2-0.9,63.2-7.2,81.9-12s102.3-27.6,112.5-35.4s57.3-33.5,69.3-49.8
				c12-16.3,18.7-40.5,5.5-52.1"/>
			<path id="Path_11757" class="st1" d="M54.3,129c0,0-8.7,2.2,67.1-2.5c75.8-4.7,123.8-9.1,138.6-14.2
				c14.8-5.1-48.8,20.3-73.1,22.9c-24.3,2.6-82.8,9-107.3,7.4c-24.4-1.6-33.6-1.9-33.6-1.9l-4.3-14.2L54.3,129z"/>
			<path id="Path_11758" class="st1" d="M38.5,80.8c0,0,74.4,9.4,106.9,6.6S283,71.8,314,64.4s89.7-38.6,89.7-38.6L421.9,13
				c0,0-4.2,10.7-11.4,17.4c-7.2,6.7-32.8,24-47.7,29.9S278,88.9,254.4,90.4c-23.5,1.6-172,8.9-190.2,6.7C46,94.8,23,87.7,23,87.7
				L38.5,80.8z"/>
			<path id="Path_11759" class="st1" d="M436.4,25.7c-4.9,9.4-11.1,18.2-18.4,25.9c-11.6,12.1-28.1,31.7-60.8,40.1
				s-67.9,17.2-67.9,17.2s39.5,7.8,49.5,3.9s39.1-9.3,61.7-26.6c22.6-17.3,40.8-27.2,38.4-43.8L436.4,25.7z"/>
		</g>
	</g>
</g>
</svg>
