<?xml version="1.0" encoding="utf-8"?>
<!-- Generator: Adobe Illustrator 27.3.1, SVG Export Plug-In . SVG Version: 6.00 Build 0)  -->
<svg version="1.1" id="Laag_1" xmlns="http://www.w3.org/2000/svg" xmlns:xlink="http://www.w3.org/1999/xlink" x="0px" y="0px"
	 viewBox="0 0 260.9 338.8" style="enable-background:new 0 0 260.9 338.8;" xml:space="preserve">
<style type="text/css">
	.st0{fill:#D0A24D;}
	.st1{fill:#C18C40;}
	.st2{fill:#C28C42;}
	.st3{fill:#CFA24F;}
	.st4{fill:#CFA14C;}
	.st5{fill:#D0A24E;}
	.st6{fill:#C38F45;}
	.st7{fill:#FDFDFA;}
	.st8{fill:#E8C368;}
	.st9{fill:#E7C167;}
	.st10{fill:#A06D2A;}
	.st11{fill:#A5742C;}
	.st12{fill:#DEB55F;}
	.st13{fill:#F4D781;}
</style>
<g id="Group_653" transform="translate(72.765) rotate(14)">
	<g>
		<g id="Group_652">
			<path id="Path_20904" class="st0" d="M5,115l0.2-0.7c0.1-0.1,0.2-0.1,0.2-0.2c-0.1-0.1-0.1-0.3-0.2-0.4c-0.4-1,0.6-1.7,0.6-2.6
				c1.2,0.2,0.8-1.7,1.8-1.6c1.1,0.7-0.2,2.9,1.6,2.6c1.3-0.2,0.6-1.8,0.8-2.7c0.2-0.9,0.4-1.8,0.6-2.8c0.9-1,0.2-1.2-0.6-1.3
				c-2-1.4-0.6,2-2.2,1.4c-0.3-1.8-0.4-3.5,1.6-4.6c0.8-0.5,0.9-7.9,0.1-9l0-1.3c1.4,0,1.4-1.6,2.3-2.3c3.2-2.3,4.2-5.7,2.9-9.5
				c-0.2-0.5-1.1-0.9-0.3-1.6c2.3-2,1.2-4.3,0.7-6.6c-0.2-0.6,0.3-0.7,0.7-0.9c1.4-0.6,5.7,2.4,3.4-2.9c-0.1-0.2,0.1-0.6,0.3-0.8
				c1.9-2.2,0.5-4.3-0.2-6.4c0-0.4,0.1-0.8,0.1-1.3c0.7,0,1-0.5,1.4-1c0.7-0.9,1.8-2.5,2.2-2.3c3,1.2,1.8-1.3,1.9-2.2
				c0.1-2.5,0.2-5,2.3-6.9c0.7-0.8,1.1-1.9,0.9-2.9C29,44,29.5,46,30.3,45c0.6-0.8,0.3-1.9-0.3-2.9c-0.3-0.5-0.5-1.1-0.7-1.7
				c0-0.7,0.3-1.4,0.8-1.8l1.8-0.6c-0.2,1.1,0.5,2.2,1.7,2.4c0,0,0.1,0,0.1,0c0.4,0.1,0.9,0.1,1-0.4c0.3-1.2-1.1-1.3-1.5-2.1
				c-0.1-0.3-0.4-0.4-0.6-0.6c0-0.6,0-1.3,0-1.9l0,0l1.9,0c2.6,0.3,2.7-0.7,1.2-2.6c1.1-0.8,1.1-3,3.1-2.6c-0.2,1.7,0.4,3.3,1.5,4.5
				c-0.1-1.8-0.2-3.2-0.3-4.5c1-0.9,0.5-2.1,0.6-3.2c1.3,0.1,2.4-0.3,2.5-1.9c1.9,0.3,2.8-0.6,2.5-2.6c0.7,0.1,1.6,0,2,0.4
				c0.8,0.7,1.1,2.4,2.4,1.8c1.2-0.6,0.4-2.3,0.6-3.5c0-0.4,0-0.8,0-1.3c5.1-0.2,5.1,1.3,4.9-5.2l0,0c2.6,1,4.8-1.3,7.3-0.7
				c2.1,0.5,2.9-0.3,2.7-2.4c0-0.9,0-1.7,0-2.6c1.6-1.1,4.3,2.5,5.2-1.3c0.3,0,0.5,0,0.8,0.1c3.1,1.2,3.8-0.6,3.9-3.2
				C81,2.5,86.7,0.4,92.8,0.8c-0.6,1-2.5,0-2.5,1.8l0,0c-0.6,0.2-1.6-0.3-1.5,0.8c0.1,0.7,0.9,0.4,1.5,0.5c1.1-0.3,2.7,0.8,3.1-1.3
				c1.9,0.6,1.9-2.6,3.7-1.9c0.6,2.1,2,0.8,3.2,1c1.9,0.4,4.8-1.4,5.6,2.2c0.1,0.7,0.3,1.2,1.1,1.2c0.6,0.1,1.3-0.3,1.4-0.9
				c0-0.1,0-0.2,0-0.3h1.9c0.9,2.3,2.3,1.3,3.7,0.6h1.2c1.2-0.5,2.5,1.1,3.7,0h1.2c0,0.2,0,0.4,0,0.6c0,2.6-0.4,5.4,3.6,4.8
				c0.6-0.1,0.6,0.7,0.7,1.2c1,4.2,1.2,4.3,5,2.4c0.2,0,0.4,0,0.6,0l0.6,2.6c-2.1,0.8-0.6,2.6-0.8,3.8c-1,4.5,1,6.3,5.2,5.2l1.2,0
				c0,0.4,0,0.9,0,1.3s0,0.9,0,1.3c-2.3,0.7-1.1,2.6-1.1,4c0,1.5,1.4,1,2.4,1.2c0,0.2,0,0.4,0,0.6c0,0.4,0,0.9,0,1.3
				c-0.9,1-0.2,1.2,0.6,1.3c0,0.7-0.1,1.5,0.6,1.9c0,0.9,0,1.7,0,2.6l0,0c-2.7,0.6-1.2-3.4-3.6-3.5c-0.1,0.9-0.1,1.8-0.1,2.6
				c-0.3,6,0.5,11.9-0.6,17.9c-0.6,3.4,0.5,4.1,4.3,3.5c0,4.9-1,9.8-0.6,14.8c-1.5-0.2-1.2-1.5-1.2-2.5c0-1.7,0-3.4,0-5.1
				c0-0.4-0.2-0.8-0.5-1c-0.4-0.3-0.8,0.1-1,0.5c-1.9,2.8,0.2,9.8,3.4,11.3c0,0.4,0,0.9,0,1.3c0,0.4,0,0.9,0,1.3c-0.4,0-0.8,0-1.2,0
				c-1.6-0.5-2.9-0.5-3.1,1.7c-0.1,1.8,0.1,3.5,2.5,3.6c1.2,0.1,2.4,0.3,3.7,0.6c0,0.6,0,1.3,0,1.9c-1.1,3.2,0.9,6.7-1.2,9.8
				c-0.1,0.2,0.2,0.8,0.3,1.2c0.9,3.1,3.2,2.3,5.3,1.9l0,0c-0.1,0.6,0.4,1.2,1,1.3c0.1,0,0.2,0,0.2,0c0,0.4,0,0.9,0,1.3
				c0.1,1-0.1,2.1-0.5,3c-0.6,1.2-1.4,2.6-0.2,3.7c1.3,1.1,2-1,3.2-1c0.8,1.6,1.9,3.2,1.9,5.1c0.2,1.5-0.9,3-0.8,4.3
				c0.2,2.4-1.7,5.8,1.3,7c3.5,1.5,3.3,4.4,3.8,7.2c0.2,1.1-0.6,2.6,0.8,3.1c1.2,0.4,1.3-1.5,2.4-1.7c2.2,1.4,1.7,3.7,1.9,5.8
				c0,0.9,0,1.9,1.2,1.9c0,0.4,0,0.9,0,1.3c-0.6,0.1-1.3,0.3-1.1,1.1c0.3,1.2,1.4,1.3,2.4,1.5c0,0.4,0,0.9,0,1.3
				c-2.9,2.1-4.3,5-3,8.3c1,2.6,3.7,2.6,6.1,2.6c0,0.2,0,0.4,0,0.6c0,0.6,0,1.3,0,1.9c0,0.6,0,1.3,0,1.9c-0.6,0.1-1.3,0.3-1.1,1.1
				c0.2,1,1,0.7,1.7,0.8h0c0,1.1,0,2.1,0,3.2c-1.8,1-1.4,2.8-1.1,4.3c0.7,4,0.7,8.1,0,12c-0.3,1.5-0.7,3.3,1.1,4.3
				c0,0.9,0,1.7,0,2.6c-1.1,4.9-1.9,9.8-2.5,14.8l-0.6,0c-3.6-1.6-3.6-1.6-3.2,2.7c0,1.1,0.2,2.1,0.7,3.1l0,1.3
				c-0.8,0.2-1.6,0.3-2.4,0.5c-1.2,0.3-3-0.3-3.1,1.7c-0.1,1.8,0.4,3.5,2.4,4.2c-0.2,1.1-0.4,2.1-0.6,3.2l-1.9,1.9
				c-0.8,0.1-1.6,0.3-0.6,1.3c-0.2,1.7-1.7,2.6-2.5,3.9c-0.7-0.1-1.4-0.3-2.1-0.4c-1.5-0.1-3.1,0.1-4.5,0.8
				c-1.4,0.5-0.2,1.8-0.3,2.8c-0.1,1.7-1.4,1.4-2.3,1.3c-2.1-0.1-3.4,0.5-3.3,3c0.2,1-0.4,1.9-1.4,2.1c-0.2,0-0.5,0.1-0.7,0
				c-2.5-0.2-3.1,1.2-2.9,3.4c0.2,1.9-0.5,2.9-2.5,2.1c-0.3-0.1-0.6-0.1-0.9,0c-0.8,2.8-2.2,5-5.1,5.9c1,1.8-1,3.1-0.8,4.7
				c-1.3,0.2-2.6,0.1-3.9-0.3c-2.7-1.1-5.3,0.5-6.1,3.3c-0.3,1-8.5,4.4-9.3,3.9c-0.3-0.2-0.4-0.7-0.7-1c-1.7-1.9-2.6-1.6-4.1,0.5
				c-1,1.5-0.3,2.6-0.1,3.9l-0.6,0.7h-3.1c-0.9,0-1.8,0-1.9,1.3h-1.3c-2.8-4-11.5-3.1-13.7,1.3c-3.7,1.2-7.5,0.8-11.2,0
				c-0.2-1,1.4-2.2-0.1-3c-0.7-0.3-1.4-0.2-2,0.1c-1.6,0.7-0.3,2-0.4,3l-3.7,0c0.5-3.2-1-4.3-3.9-3.8c-2.8,0.5-5.7,0.8-8.6,0.6
				c-1.1-0.9-2-1.2-2.5,0.6c-1.1,0.1-2.2-0.1-3.1-0.7c-0.1-0.7,0.2-1.6-0.8-1.8c-0.8-0.2-1,0.5-1.1,1.1c-0.9-0.1-1.8,0.3-2.5-0.6
				c-0.9-2.9-2.8-2.8-5-1.9c-3.5-0.4-6.9-1.5-10-3.2c0-2.7-2.5-2.8-4-3.8c-1-0.6-2.3-1.2-2.1-2.4c0.6-4.2-1.6-2.9-3.7-2.2l-0.2-1.2
				c0.1-3.8-0.9-7.5-0.2-11.3c-1.3,0-0.9,1.5-1.9,1.3c-1.4-0.3-4.7-6.5-3.9-7.5c1.2-1.6,0.9-3.1,0.5-4.8c-0.2-0.9,0.7-2.2-0.8-2.6
				c-2.1-0.5,0,2.2-1.5,2.2c-1-0.3-1-1.7-2.2-1.7l-0.3-0.6c-1-2.6-1.4-5.4-1.1-8.2l-0.5-0.8L3.7,216c0.9-0.6,0.8-1.7,1.2-2.5
				c1.3-2.5,0.5-3.7-2.3-3.4l-0.2,0.1c0.1-0.7,0.4-1.5-0.4-2c-0.1-0.9-0.1-1.7-0.2-2.6c0-0.9,0.6-1.9-0.4-2.6c0-1.1,0-2.1,0-3.2
				c0.6-0.1,1.1-0.3,1.1-1.1c-0.1-0.6-0.5-0.7-1-0.8c-0.8-0.9-0.7-2.1-0.8-3.2c0.1-0.9,0.1-1.7,0.2-2.6h1.1c0,0.9,0,1.7,0,2.6
				c-0.1,0.6,0.4,1.2,1,1.3c0.1,0,0.2,0,0.2,0c0,0.5,0,1,0.2,1.5c0.4,0.7,0.1,2,1.1,2c1.2,0,1.1-1.3,1.4-2.1
				c0.8-2.6,0.2-5.2,0.4-7.8c0.9-0.1,1.8,0.3,2.5-0.6c1.7,0,3.2-1,5-0.6l1.8,0.1l-0.5,1.1c0.6,1.7-0.3,4,1.8,5.2
				c-0.2,1.4,0.4,2.6,0.7,3.8c0.1,0.9-0.3,1.9,0.6,2.6c-0.1,0.5,0.2,1,0.6,1.3c0.2,0.8,0.4,1.6,0.6,2.4c1.2,4.2,4.9,5.2,8.1,2.1
				c4-1.9,6.7-5.1,8.7-9c1.2-0.1,1.2-1,1.2-1.9l0-0.7l0.6-0.6l0,0c1.3-0.4,2.2-1,1.3-2.6c0.6-1.6,0.6-3.6,2.4-4.6
				c0.1,1-0.1,2.4,1.4,2.4c1.2,0,1.9-0.8,1.3-2.2c-0.3-0.7,0.4-1.1,0.7-1.7c1.3-2.7,0.5-7-1.4-8.1l0.6-2.6c2-0.8,1.7-2.8,1.8-4.3
				c0.1-7.7,0.1-15.4,0.1-23.1c0-1,0.1-2-1.2-2.2c0.3-8.9,1.3-17.7,3.1-26.4l0.3,0l0.3,0c0.3,0,0.6,0,0.9,0c0.7-0.1,1.7,1.1,2.1-0.1
				c0.4-1.4-1.1-1.1-1.8-1.5c-0.4-0.2-0.8-0.3-1.2-0.3c0.5-4.7,2.2-9.1,3.8-13.5C57,91,65.7,80.9,75.8,72.1
				c9.7-8.4,14.7-18.6,14.6-31.6c1.9,0.2,1.8,1.7,1.8,3.1c0,1.2,0,2.6,1.6,2.6c1.4,0,2.1-1.2,2.1-2.7c0-2.1,0-4.3,0-6.4
				c0-1.8-1-2.5-2.6-2.3c-1,0.2-2,0.4-3,0.6c0.2-3.6-0.3-7.2-1.5-10.7c-2-6.2-4.8-9.7-12.5-7.3c-3.1,0.9-6,2.1-9,3.2
				c-1.8-0.1-3.3,0.1-3.2,2.5l-1.8,0.7c-0.9,0-1.9-0.1-1.9,1.3c-0.3,0.4-0.7,0.7-1.2,0.7c-3.1-1.1-3.2,0.9-3.2,3.2
				c-2.1,1.7-3.7,4-6.2,5.2c-2.2-0.7-0.9,1.2-1.3,1.9l-3.1,3.9l-0.6,0.6c-2.7,3.1-4,7.3-6.8,10.3c-1.3,0.1-2.7,0.1-1.2,2
				c-0.8,3-2.5,5.5-3.8,8.3c-2,0.2-3.1,1-1.8,3.2l-8.7,24.4c-1.1-0.1-1.2-0.9-1.3-1.8c-0.1-1.5,1.9-3.9-0.4-4.2
				c-1.5-0.1-0.5,2.9-0.8,4.5c-0.1,0.6-0.1,1.3,0,1.9c0,1.4,0.8,1.6,1.9,1.5c-2.1,9-4.2,18-6.2,27c-1.8-0.4-3.6-1.5-5.1,0.5
				c-1.1,1.5,0.1,2.6,0.8,3.4c1.5,1.7,2.7,3-0.6,3.7c-0.3,0.2-0.4,0.4-0.5,0.8c0.9,2.2-0.7,4.4,0,6.6c0.5,1.4,0.7,3.3,2.9,3.1
				c0,1.5,0.2,3.1-0.6,4.5c-1.8-0.1-2.4,1.1-2.4,2.6c-0.1,1.7-0.5,3.8,1.8,4.5c-0.1,0.5,0.2,1,0.6,1.3l-0.6,3.9
				c-0.7,0.1-1.3,0.4-1.2,1.2c0.3,5.4-0.8,10.6-0.7,16c-0.1,1,0.6,2,1.6,2.1c0.1,0,0.2,0,0.2,0c0.5,2.1,0.7,4.3,0.6,6.4
				c-4,1.1-1.9,4.3-2.3,6.8c-1.4,0.1-2.8-1.7-4.2-0.1c-1.6,1.8-0.5,3.3,0.3,4.9c-2.5-1-2.4,2.7-4.4,2.6c0.8-1.9,1.4-3.7-1.8-3.2
				c0-3.3-0.2-6.6,0-9.9c0.5-7.8-1.2-15.7,1.1-23.4c0.3-0.7,0.1-1.5-0.5-2c0.8-12.5,1.3-25.1,4.4-37.3c0.1-0.1,0.2-0.2,0.2-0.2
				c-0.1-0.1-0.2-0.3-0.3-0.4l0,0C5,115.5,5,115.3,5,115 M95.4,28.3c0.6,0.8,1.2,0.8,1.9,0h1.2c2.1,0.6,3.5,2.9,6,2.5
				c3.7-0.6,7.4-1.7,11.2-0.6c1.1,0.2,2.3-0.1,3.3-0.8c1.1-0.6,1.4-1.8,1.3-3c0-0.7-0.3-1.3-1.1-1.3c-1.1,0-2.4-0.5-2.6,1.3
				c-2-0.5-4-1.1-6-1.5c-5.1-1.2-10.5-0.4-15.2,2.1V28.3z M23.1,239.7c-0.4,0.2-0.6,0.6-0.2,0.9c0.4,0.4,0.7,0,0.9-0.3
				c1.2,0,2.5,0.3,3-1.4c0.2-0.7,0-1.5-0.6-2c-0.6-0.5-1.3-0.6-2-0.2C22.8,237.3,23.1,238.6,23.1,239.7 M82.3,244.9
				c0.1,0.9,0.6,1.3,1.4,1.2c1.2-0.2,1-1.1,1-2c0-1.4,0.4-2.9-1.2-3.7c-0.1-0.6,0.2-1.5-0.6-1.6c-0.9-0.1-0.5,0.9-0.7,1.5
				C79.7,241.8,79.7,243,82.3,244.9 M89.1,163.2c0-0.2,0-0.4,0-0.6l1.3,0l0,0l1.2,0.6c0.3-1.8,3.7-2.1,2.7-3.9
				c-1-1.5-3.6-0.7-5.4-0.3c-0.7,0.1-1.4,0.1-2.1-0.1c-1-0.2-1.3,0.4-1.3,1.2L81,160c-0.1-0.5-0.1-1.1-0.8-1.2
				c-0.8-0.1-1,0.5-1.1,1.2c-0.9,0.1-1.7-0.1-2.5-0.5c-1.7-2.9-4-1.4-5.7-0.4c-1.3,0.7-2.1,1-3.1-0.2c-0.6-0.7-1.4-1-2,0
				c-0.5,0.8-0.7,2.3,0.1,2.6c1.7,0.5,3,3,5.2,1.2l0.7,0c3.5,1.3,7,0.2,10.5,0.6c1.5,1,3.2,0.9,4.9,1.3
				C88,164.7,89,164.6,89.1,163.2 M109.1,209.4c-0.1-0.9-0.4-1.5-1.3-0.5l-6.8-0.2c-0.1-1,0.3-2.3-1.3-2.3c-1.6,0.1-1.1,1.4-1.2,2.4
				l-3.7,0.2c0-0.3,0.1-0.6,0.2-0.9c0.4-0.9,2.7-0.1,1.9-1.7c-0.7-1.5-1.9-0.3-2.9,0.2c-0.7,0.2-1.4,0.4-2.1,0.5
				c-0.8,0.2-1.2,0.8-0.7,1.4c1.2,1.3,0.2,1.8-0.5,2.8c-1.7,2.3-0.9,4.8,1.3,4.7c3.9-0.1,7.7-0.4,11.5-0.9c1-0.1,2.7,0.2,2.9-1.7
				h4.4c-0.9,1.5,0,2.2,1.2,2.4c1.3,0.2,3.1,0.7,3.5-1c0.8-3,0.5-6.2-1-9c-0.9-1.4-2.6-1.1-3.6-0.6c-1.5,0.8-0.1,1.6,0.5,2.4
				c1.1,1.6-1.2,0.9-1.2,1.8L109.1,209.4 M121.5,174.8c0.1,1.7,0.3,3.3,2.5,3.2c1.1,2.7,3.3,2.1,5.2,1.7c1.7-0.4,1.8-2.2,1.6-3.7
				c-0.4-2.4-2.2-2.5-4-2.4c-0.5,0-1,0-1.5,0c0-0.5,0-1.1,0-1.6c0-1.4-0.6-2.2-2-2.3c-1.9-0.1-2.8,1.2-3.3,2.8
				C119.4,173.9,120.1,174.6,121.5,174.8 M143.3,133.1l1.4-0.2c-6.6-2.6-13.9-2.5-20.4,0.3c1.4,1,2.4-0.3,3.5-0.1
				C132.9,134,138.2,134,143.3,133.1 M129.7,210.2c-0.6,0-1.2,0-1.9,0c-0.8,0-1.8-0.1-1.8,1.2c-0.1,1.5,1,1.4,1.9,1.4
				c-0.2,1.4,0.6,2.6,1.2,3.7c-0.4,0.7-0.9,0.7-1.5,0.3c-0.6-0.4-1.3-2.1-2.1-0.6c-0.6,1-0.7,2.9,0.8,3.3c2.6,0.8,5.4,0.8,7.9,0
				c2-0.7,0.8-3.2,1-4.9c-0.2-1-0.4-2.1-0.6-3.1c1.6-1.6,1.8-4.1,0.6-6c-0.8-1.4-2.4-1.3-3.6-0.9c-2.5,0.8-1.9,3.1-1.9,5.1
				C129.6,209.8,129.7,210,129.7,210.2L129.7,210.2z M54.8,215.4c0.8-3.1,0-5.5-2.1-5.5c-2.6-0.1-3.4,1.8-3.5,4.2l-0.6,0.7
				c-1,0.3-2.6-1.9-3.1,0.7c-0.3,2,0.6,2.7,2.4,2.5c0.6,3.1,2.9,2.5,4.9,2.5c0.3-0.3,1.6,0.8,1.2-0.7
				C54.3,218.2,55,216.9,54.8,215.4 M76.1,116.4c0,5.1,1.2,6.3,5.5,5c1.6,0.2,2.8-0.1,3.5-1.8c0.6-1.7-0.2-2.3-1.5-2.8
				c-0.8-0.3-0.2-1.1-0.2-1.7c0.1-1.1,0.5-2.9-1.2-2.5c-1.3,0.3-4.2-1.2-3.7,2.3l-1.2,0.1C75.4,113.9,76.3,115.8,76.1,116.4
				 M119.6,58.5c2.6,0.1,3.6-1.4,3.8-3.5c0.1-1.9-1-2.9-2.9-3c-2.4-0.2-3.6,1.3-3.7,3.4C116.6,57.3,117.7,58.7,119.6,58.5
				 M116.6,95.1c-1-0.1-1.3,0.8-1.3,2c0,1.3,0.6,2.1,1.7,2.2c1.3,0,2-1,2-2.3S118.2,95.2,116.6,95.1 M162.6,201.1
				c0-0.6-0.3-1.1-0.9-1.1c-0.8,0-0.9,0.7-0.9,1.4c0.1,0.6,0.4,1,1,0.9S162.6,201.6,162.6,201.1 M26.7,68.5c-0.4,0.2-0.6,0.6-0.5,1
				c0,0.4,0.1,0.9,0.7,0.8c0.5-0.1,0.5-0.6,0.5-1C27.3,68.9,27.3,68.5,26.7,68.5 M15.3,236.6c-0.2-0.1-0.5-0.5-0.9-0.5
				c-0.5-0.1-0.6,0.4-0.6,0.8c0,0.5,0.4,0.7,0.8,0.7C15.2,237.7,15.4,237.3,15.3,236.6 M151,227c-0.3,0.3-0.6,0.4-0.6,0.6
				c-0.1,0.3,0,0.6,0.2,0.8c0.4,0.2,0.7,0,0.7-0.5C151.2,227.6,151.1,227.3,151,227 M5.7,130.3c0.2-0.4,0.4-0.6,0.4-0.8
				c0-0.4-0.3-0.8-0.7-0.6c-0.2,0.1-0.3,0.5-0.3,0.8C5.2,129.9,5.5,130,5.7,130.3 M46.5,211.3c-0.2-0.1-0.4-0.3-0.5-0.2
				s-0.2,0.3-0.2,0.5c0.2,0.1,0.4,0.3,0.5,0.2S46.5,211.4,46.5,211.3 M46.4,220c0.2,0.1,0.4,0.3,0.5,0.2s0.2-0.3,0.2-0.5
				c-0.2-0.1-0.4-0.3-0.5-0.2S46.5,219.8,46.4,220 M25.2,58.3c0,0.1-0.1,0.2-0.1,0.3c0,0,0.1,0.1,0.2,0.1c0-0.1,0.1-0.2,0.1-0.3
				C25.4,58.4,25.3,58.3,25.2,58.3"/>
			<path id="Path_20905" class="st1" d="M162.6,148.5c0-0.4,0-0.9,0-1.3c0.1-1.1-0.1-2.1-1.2-2.6c0-0.4,0-0.9,0-1.3l0-0.6
				c0.9,0,1.7-0.8,2.7-0.3c0.7,0.4,1.6,0.3,1.5-0.8c0-0.8-0.4-2.1-1.3-1.8c-3.9,1.2-3-1.7-2.9-3.6c0.2-2.6-0.8-3.5-3.2-3.2
				c-0.8-2.3-2.3-4.4-1.9-7c-0.2-1.4,0.7-3.4-1.9-3.2c-0.7-0.5-0.6-1.2-0.6-1.9c0.9-1,0.2-1.2-0.6-1.3c-0.8-1.3-1-3-2.5-3.9
				c0-1.9-1-3.5-1.9-5.1l-1.3-5.1c0.4-1.2,0.2-2.9,1.4-3.7c0.9-0.6,2.4-0.3,2.2-2c-0.2-1.6-1.9-1-2.6-1.7c-1.6-1.8-2.8,0.3-4.1,0.3
				c-2.1-2.6-1.4-6.5-3.7-9c0-0.6,0-1.3,0-1.9c-0.9-1.8-1.3-3.8-1.2-5.8c0.4-0.1,1.1-0.1,0.9-0.8c-0.2-0.7-1-0.4-1.5-0.5l0-1.3
				c-0.1-1.1,0.4-2.3-0.6-3.2c-0.4-5,0.6-9.8,0.6-14.8l0-12.2c0.3-0.2,0.9-0.3,0.9-0.5c0.1-0.7-0.5-0.7-0.9-0.8c0-2.4,0-4.7,0-7.1
				l0,0c0.8-0.1,1.5-0.3,1.6-1.1c0.1-1.1-0.8-1.3-1.6-1.4c-0.7-0.5-0.6-1.2-0.6-1.9c0-0.4,0-0.9,0-1.3c1-1,0.2-1.2-0.6-1.3l0-0.6
				v-2.6c0.8-0.2,2.1,0.5,2.3-0.9c0.2-1-1-1.2-1.5-1.8c-0.5-0.7-1.2-1.1-2.1-1.2c0-0.4,0-0.9,0-1.3c1-0.9,2.3-1.4,3.7-1.3
				c0.5,0.1,1-0.2,1.2-0.7c0,0,0,0,0-0.1c0.2-0.6-0.2-1.3-0.8-1.5c-1.9-0.6-3.9-1.8-5.9-0.2c-1.4-1.6-1.2-4.4-3.7-5.1l-0.6-2.6
				l1.2-5.2l1.9,1.2l0.6,0.7l0,0c-0.2,1.1,1.6,1.6,1,2.5c-1.8,2.9,0.6,2,1.7,2.1c1.1,0.1,2.3,0,3.4,0c0.2,0,0.4,0,0.5,0
				c0,0.2,0.1,0.4,0.1,0.7c-0.7,1.3-1.2,2.9-0.1,4.1c0.9,1,2.3,0.2,3.4-0.3l1.1,0.7c0,0.2,0.1,0.4,0.2,0.6c-0.1,0.2-0.1,0.4-0.1,0.6
				c0.4,2.2-1.6,5.9,3.1,5.2c1.2,1.5,2,3.3,2.4,5.2c0.1,1-0.5,2.3,1.1,2.6l0.1,1.3c-0.6,0.9,0.2,0.5,0.5,0.7
				c0.1,0.6,0.1,1.3,0.2,1.9c-0.8,0.2-1.7-0.4-2.3,0.6c-1.9,3.4,0.1,6.9,4.1,7.1c0.7,0.2,0.6,0.8,0.8,1.3c-0.5,0.9,0.1,1.7,0.3,2.6
				c-0.5,0.4-0.7,1.1-0.3,1.6c0.1,0.1,0.2,0.2,0.3,0.3c0.1,0.6,0.2,1.3,0.2,1.9c-0.8,1.8-2,3.6,1,4.5l0.2,3.2
				c-1,0.8-0.8,2.4-1.9,3.2c-1.9,1.4-1.6,2.5,0.5,3.3c0.6,0.2,1.4,0.3,1.6,1.5c-2.9,0.6-2.8,3.2-2.5,5.1c0.4,2.5,2.7,2.6,4.7,2.3
				c0.2,0,0.3,0,0.5,0l0.1,3l0.5,0.8c0.1,0.2,0.1,0.4,0.1,0.6l0.5,0.7l0.2,1.3c-1.1,0.8-3.4,1.1-2.1,2.9c0.7,1.1,1.2,4.5,4,2.2l0,0
				c0.7,2.3-2.2,2.2-2.5,3.9l-1.9,0c-0.8-1-1.6-0.8-2.1,0.2c-0.5,0.8,0.3,1,0.9,1.1c0.1,1.8-0.7,4.2,2.5,3.9l0,1.9
				c-1.3-0.2-2.6,0-3.7,0.6c-0.1-0.6-0.2-1.4-1.1-0.9c-1,0.6-0.4,1.4-0.1,2.2c0,1.8-0.2,3.6,1.7,4.7c1.7,0.9,3.1,0.2,4.5-0.9
				c0.1,0.5,0.6,1.3,0.8,0.9c0.4-1.3,1.5-2.2,1.4-3.8c-0.1-2-2-2.9-2.1-4.7c0.7-0.7,1.2-1.6,1.3-2.6c1.6-0.5,2.5,1,3.8,1.3l0,0
				l0.5,0.7c0.1,0.2,0.1,0.4,0.1,0.6c-0.2,0.5-0.7,0.8-1.3,0.7l-0.1-0.3l-0.1,0.1l0.3,0.1c-0.2,3.1-0.1,6.5,2.5,8.4
				c3,2.2,2.7,4.8,2.6,7.9c-0.3,2.5,1.5,4.7,4,5c0.5,0.1,1,0,1.5-0.1l0,0c-1.3,2.4,0,4.9-0.6,7.4c-0.3,1.2,0.4,1.9,1.6,2.3
				c1.9,0.9,2.8,3,2.1,5c-1.2,2.4,0.3,4.4,0.1,6.5c-0.1,0.8,0.8,2,1.9,1.6c0.9-0.4,0.2-1.3-0.2-1.9c-0.3-0.4-0.7-1,0-1.3
				c0.5-0.4,1.2-0.3,1.6,0.2c0,0,0.1,0.1,0.1,0.1c0.5,1,0.7,2,2,2.1c0.1,0.2,0.1,0.4,0.1,0.6c-0.2,1.8,0,3.5,0.6,5.2
				c-1.3,0.3-1.6,0.9-0.6,1.9c1.1,1.6,1.1,3.6,0,5.1l0.3,0.8l0.3-0.8l3.2,0l0,0c0,0.7,0,1.3,0,2l-1.2,0.6c-0.6-0.1-1.5-1.1-1.7,0.1
				c-0.3,1,0.3,2.1,1.3,2.4c0.1,0,0.2,0.1,0.4,0.1l2.5,0.6l0.5,0.6l0.1,0.6c0.7,1-1.7,2.6,0.6,3.2l0,0c0.1,0.9-0.3,1.8,0.5,2.6
				c0,0.4,0.1,0.8,0.1,1.2c0.2,1.5-2.1,1.2-1.9,2.6c-0.1,0.5,0.2,1,0.6,1.3c-0.8,2.7-0.1,6-3.1,7.7l-1.9-1.3
				c-0.1-0.6-0.3-1.2-1.1-1.1c-0.6,0.1-0.7,0.6-0.8,1.1c-1.8-0.1-2.7,1.1-3.4,2.6c-1,2,0.8,3.4,1,5.1c1.3,2.9,4.1,3.1,6.5,3.8
				c1.6,0.5,2,1.2,2.3,2.7c1.1,5.5-0.2,11.3,1.8,16.7c0.3,1.4-0.4,2.6-0.7,3.8c-0.4,0.3-0.6,0.8-0.5,1.3c0,0.2,0,0.4-0.1,0.6
				c-0.7,0.5-0.5,1.3-0.5,2c0,0.8-0.1,1.6-0.1,2.4c-0.2,0-0.4,0.1-0.6,0.1c-0.3,0.1-0.7,0.1-0.9,0.3c-0.6,0.6-1.3,1.4-2.1,0.9
				c-0.9-0.6,0.5-1.2,0.3-1.8c-0.1-0.4-0.2-0.9-0.5-1c-0.4-0.2-0.9,0-1,0.3c-0.1,0.1-0.1,0.2-0.1,0.3c-0.2,0.7-0.2,1.5,0,2.2
				c1.5,3,0.2,6.2,0.6,9.2c0,0.5,0.1,1-0.5,1.3c-2.2,0.3-1.1,2.1-1.3,3.3c0.2,0.8-0.4,1.3-0.8,1.8c-1.4,0.7-2.1,2.3-1.8,3.8
				c-0.1,0.5,0,1-0.6,1.3l-3.1,1.3c-0.1-0.5-0.1-1-0.8-1c-0.1,0-0.2,0.1-0.2,0.2c0,0.7,0.5,0.7,0.9,0.8c0.1,0.9-0.3,2,0.7,2.6
				c-0.1,0.5-0.1,1-0.6,1.3c-3.2,0.1-2.4,2.6-2.6,4.5l-1,1.9c-1.2-0.2-2.1-2-3.3-1c-1.2,1,0.5,2,0.5,3.1c0,0.6,0.1,1.3,0.1,1.9
				l-0.5,0.6l-0.7,0.7l-0.1,1.1l0,0l-0.6,0c-1.2,0.2-1.9,0.7-1.6,2.1l-0.1-0.2l0.2,0.2c-0.9-0.3-1.9,0.1-2.3,0.9
				c-0.3,0.6,0.3,0.8,0.7,1.1c-0.1,0.2-0.2,0.3-0.4,0.4c-0.4,0.2-0.7,0.7-0.7,1.2c-0.2,0.1-0.3,0.2-0.5,0.2
				c-1.1-0.4-2.3-1.5-3.1,0.2c-0.7,1.5-2,3-1.4,4.9c-0.4,0.8-1.1,1.5-1.9,1.9c-1.9,0.4-3.7,0.8-5.7,0.1c-0.8-0.3-2.9-0.1-2.1,0.9
				c1.9,2.4-0.3,4.1-0.3,6.1l-0.6,0.6c-0.8-0.2-0.4-1.7-1.7-1.6l-0.9,3.5l-0.6,0.6c-0.6-0.1-1.2,0.3-1.3,0.9c0,0.1,0,0.2,0,0.3
				l-0.6,0.1c-1.3-1.3-2.8-1.6-3.9,0c-1,1.5,1.1,1,1.4,1.8l-1.9,1.4l-0.6,0.6l-1.2,0.1c-1.4,0-2.3-0.2-1.2-2c0.6-0.9,0.4-2-0.5-2.6
				c-0.1-0.1-0.2-0.1-0.4-0.2c-1-0.2-1.8,1-1.7,2.1c0.2,2-1,2.4-2.3,3.1c-1.4,0.8-3.3,1.8-1.5,4l-0.6,0.7c-0.2-0.1-0.4-0.1-0.6-0.1
				c-0.8,0-1.6-0.1-2,0.9c-0.1,0.1-0.3,0.2-0.4,0.2c-0.2-0.7-1-1.2-1.7-1c-3.1,0.6-6.4,0.4-9.4-0.8c1,3.4-0.8,5.9-3.7,5.9
				c-1,0-2.1-0.3-3,0.4c-1.4,1.1-2.6,1-4.2,0.2c-1.8-0.8-3.9,0-4.8,1.8c-0.1,0.2-0.2,0.5-0.2,0.7l-2.8,0c-2.4-2.5-8.8-3.5-11.9-1.9
				c-1.6,0.8-3.1,1.7-4.5-0.3c-0.5-0.7-1.4-1.1-2.2-0.8c-1.2,0.4-0.7,1.6-0.9,2.4c-0.9,0.1-1.9-0.3-2.5,0.7
				c-5.2-0.3-10.1-1.9-14.9-3.8l-2.4-0.7c-1.7-1.8-4.2-2-6.3-3.2l-3.1-2c-1.4-1.1-2.5-2.7-4.4-3.2l-0.6-0.6
				c-0.2-0.5-0.8-0.9-1.3-0.9c0-0.1-0.1-0.2-0.3-0.2c0,0,0,0,0,0c-0.5-0.9-1.2-1.6-2.1-2l0,0l-0.6-0.6c-0.2-0.6-0.7-1.1-1.3-1.3
				l-7.4-7.8l-1.1-1.2l-0.7-0.7c-0.6-1.1-1.1-2.4-2.3-3l-0.1-0.1l-0.2-0.7l-0.5-0.8c0-0.2,0-0.4-0.2-0.5c0-0.4-0.1-0.5-0.5-0.5
				c-0.2-0.1-0.4-0.2-0.6-0.2c-0.5-2.1-2-3.5-3.2-5.1l0,0c-0.1-0.5,0-1.1-0.7-1.3c0-0.2,0-0.4,0-0.5c0.1-0.7,0.4-0.9,1.2-0.9
				c1.5,0,2.4,1.4,3.8,1.4c3.1,1.7,6.5,2.8,10,3.2c1.1,2.2,3.3,1.3,5,1.9c0.7,1,1.6,0.6,2.5,0.6c0.4,0.8,1.2,0.6,1.9,0.6
				c0.9,0.6,2,0.8,3.1,0.7l2.5,0.6l12.5,1.9l3.7,0h2.5c3.7,0.8,7.5,1.2,11.2,0c4.6,0.2,9.2-0.3,13.7-1.3h1.2
				c0.8,0.1,1.6-0.5,1.9-1.3h3.1c0,1,0.8,1.7,1.8,1.7c0.2,0,0.4-0.1,0.7-0.1c1.4-0.4,1.3-1.7,1.3-2.8c5.8-1.2,10.9-4,16.2-6.4
				c-0.2,2.7,2.2,2.4,3.6,3c0.9,0.4,1.6-0.1,1.9-1.1c0.2-0.7-0.2-1.5-1-1.7c0,0,0,0,0,0c-0.8-0.3-2-0.1-2-1.5
				c0.6-0.9,2.2-0.6,2.5-1.9c1.3-0.1,2.2-1,3.2-1.6c2.3-1.3,4-3.6,6.7-4.2c1.9,0.6,1.5,2.7,2.5,3.9c0,1.4,0.3,2.4,1.9,1.4
				c0.7-0.6,1.6-0.8,2.5-0.8c3.5,1.3,7,0.3,10.5,0.6c1.1,1,2.7,1,3.7,0c1.3-0.4,1.4-0.7,0-1.3c-2.2-1-4.7-0.1-6.9-1.3
				c-0.4-2-2-1.4-3-1.2c-4,0.9-6.4-1.3-8.8-3.9c0.6-1.4,1.9-1.9,3.1-2.6c1.1,2,2.7,1.6,3.9,0.4c1.3-1.3,1.9-2.9-0.2-4.2
				c0.6-1.3,1.1-2.6,2.5-3.2c0.7,0.8,0.3,2.5,1.9,2.5c1.3,0,1.2-1.2,1.6-2c0.7-1.6-0.7-1.9-1.6-2.5l3.1-5.8c0.8-1.3,2.3-2.1,2.5-3.9
				c0.4-0.3,0.7-0.8,0.6-1.3l1.9-1.9c0.5,0.7,1,1.3,1.6,1.9c0.7,0.7,1.5,0.6,1.4-0.5c-0.2-1.7,0.2-3.6-1.8-4.6
				c0.3-2.3,2.4-4,2.5-6.4c0-0.4,0-0.9,0-1.3l1.2-0.7c0.2,0.3,0.4,0.7,0.6,1.1c0.2,0.9-0.2,2.5,1.5,1.9c1.2-0.4,1.9-1.6,1.5-2.8
				c0-0.1-0.1-0.2-0.1-0.2c-0.4-1.3-1.7-2-2.9-1.8c0-0.4,0-0.9,0-1.3c0.9-0.3,2.4-0.3,1.2-1.9c0.6-5,1.4-9.9,2.5-14.8
				c0.7,0,1.2,0.5,1.2,1.2c0.1,1.1-0.1,2.8,1.6,2.3c1.5-0.4,2.4-1.9,2-3.4c0,0,0-0.1,0-0.1c-0.3-1.3-0.5-2.7-0.5-4.1
				c-0.2-3.4-0.9-3.8-3.7-2.3v-12.9c2.1,1.5,3.2,1.1,3.2-1.8c0-1.3,0.7-2.6,1.1-3.9c0.8-3-0.9-5.3-2.4-7.6c-1.1-1.6-1.9,1.2-3.1,0.4
				c0-0.2,0-0.4,0-0.6c-0.8-1.8-1.2-3.8-1.2-5.8c0-0.6,0-1.3,0-1.9c0.3-0.2,0.9-0.3,0.9-0.5c0.1-0.7-0.5-0.7-0.9-0.8
				c0.1-0.6-0.4-1.2-1-1.3c-0.1,0-0.2,0-0.2,0L162.6,148.5 M152.3,113.3c0.2,0.2,0.4,0.3,0.7,0.4c0.7,0.1,0.1-0.4,0.2-0.5l-0.6-0.4
				c-0.1,0.2-0.1,0.3,3.7,1.2c0-0.7-0.5-1.5-1-1.2c-0.7,0.5-2.1,0.4-1.9,1.9c0.1,0.7-0.5,2.1,0.9,1.9
				C155.4,116.4,155.8,115.1,152.3,113.3 M111.6,286c0.4-0.8,1.2-0.6,1.9-0.6l1.9,0.6c0.1,0.9,0.3,1.9,1.4,1.6c1.5-0.4,1-1.9,1.1-3
				c0.8,0.5,1.6,1,2.4,1.5c4.3,2.8,8.9,0.3,9.5-4.8c0.3-2.5-1.3-4.2-1.9-6.2c-0.7-2.5-1.8-2.7-3.7-0.8l-2.5,0.1
				c-1.6-1.9-7.7-3.6-9.6-2.6c-0.2,0.1-0.4,0.2-0.5,0.4c-1,1.5-2.7,2.4-4.5,2.5c-1.5,0.1-2.3,1.4-1,2.9c-0.3,2.6-0.1,5,2.5,6.4
				c-0.5,0-1,0.2-1.3,0.7c-0.7,0.5-1.9,0.6-1.7,1.8c0.2,1.1,1.1,1.8,2.2,1.8C109.5,288.7,111.1,288.2,111.6,286 M176.3,173.5
				c1.2,2.3,2.9,2.4,5,1.3c2.7,0.1,2-2,1.8-3.3c-0.2-2-1.6-0.2-2.4-0.5L177,171c-1.8-1.1-2.6,0.7-2.8,1.6
				C174,174.1,175.6,173.3,176.3,173.5 M130.2,265.4c-1.9,0.1-4.2-0.6-4.9,2.1c-0.3,1.3-0.3,2.9,1,3.7c1.9,1.2,3.5,0.5,5.1-0.7
				c1.3,0.8,2.6,2.3,4,0.4c1.2-1.3,1-3.4-0.3-4.6c0,0,0,0,0,0c-0.4-0.4-1.3-0.7-0.8-1.5c1.9-3.2,0.2-2.9-2-2.3
				c-1.1,0.3-1.5-1-2.3-1.4c-0.6-0.4-1.4-0.2-1.8,0.4c0,0,0,0.1-0.1,0.1c-0.4,0.7,0,1.2,0.5,1.6
				C129.5,263.8,130.3,264.3,130.2,265.4 M55.9,280.4c3.2-0.2,6.2-1.1,9.4-0.8s6.4,0.8,9.5,1.1C68.5,277.7,62.2,277.5,55.9,280.4
				 M42.6,277.6c0.8-0.1,1.7-0.5,1.6-1.7c0-1-0.8-1.9-1.8-1.9c-0.1,0-0.1,0-0.2,0c-0.9,0-1.6,0.7-1.6,1.6c0,0.1,0,0.2,0,0.2
				C40.7,277,41.3,277.5,42.6,277.6 M145.5,89.9c0.2-0.9-0.2-1.2-1-1.2c-1,0-1.2,0.7-1.2,1.5c0,0.6,0,1.4,0.8,1.5
				C145.4,91.8,145.1,90.6,145.5,89.9 M147.4,29.5c-0.1-0.6-0.4-1-1-1c-0.5,0-1,0.4-1,0.9c0,0,0,0,0,0.1c0,0.5,0.4,0.7,0.8,0.7
				C146.8,30.2,147.3,30.1,147.4,29.5 M160.5,124.8c0-0.6-0.4-0.7-0.8-0.7c-0.5,0-1,0.4-1.1,0.9c-0.1,0.7,0.4,0.9,1,0.8
				C160.1,125.8,160.5,125.3,160.5,124.8 M133.2,254.7c0-0.4-0.4-0.7-0.8-0.7c0,0,0,0-0.1,0c-0.4,0-0.7,0.3-0.7,0.7c0,0,0,0.1,0,0.1
				c0,0.4,0.3,0.8,0.7,0.8c0.1,0,0.2,0,0.3,0C133.1,255.5,133.3,255.1,133.2,254.7 M166.4,105.6c-0.9,0.1-1.2,0.3-1,0.6
				c0.1,0.4,0.4,0.7,0.7,0.8c0.5,0.2,0.7-0.2,0.6-0.7C166.7,106.1,166.5,105.9,166.4,105.6 M97.1,270.5c-0.4-0.2-0.6-0.5-0.8-0.5
				c-0.4,0-0.8,0.3-0.6,0.7c0.1,0.2,0.5,0.3,0.7,0.3C96.6,271,96.8,270.7,97.1,270.5 M150.6,36.8c-0.1-0.2-0.1-0.5-0.2-0.5
				s-0.3,0.1-0.5,0.2c0.1,0.2,0.1,0.5,0.2,0.5S150.4,36.9,150.6,36.8 M163.1,96.7c-0.1,0.2-0.2,0.4-0.2,0.5s0.3,0.2,0.5,0.2
				c0.1-0.2,0.2-0.4,0.2-0.5S163.3,96.7,163.1,96.7 M113.3,266.3c-0.1,0.2-0.2,0.4-0.2,0.5s0.3,0.2,0.5,0.2c0.1-0.2,0.2-0.4,0.2-0.5
				S113.4,266.4,113.3,266.3 M157.8,269.7c0.1-0.2,0.2-0.4,0.2-0.5s-0.3-0.2-0.5-0.2c-0.1,0.2-0.2,0.4-0.2,0.5
				S157.6,269.6,157.8,269.7"/>
			<path id="Path_20906" class="st2" d="M187.6,179.3c3-1.7,2.4-5,3.1-7.7c0.1-0.5-0.2-1-0.6-1.3c-0.2-1.5,2.1-1.1,1.9-2.6
				c1.6,2.6,0.5,5.8,1.8,8.4c0,0.6,0.1,1.3,0.1,1.9c0,1.5,0,3,0,4.5c0,4.7,0,9.5,0,14.2c0.5,2.8-1,5.5-0.6,8.3l-0.2,1.2
				c-1,0.6,0.1,2.1-1.1,2.7c-2.1-5.4-0.7-11.2-1.8-16.7c-0.3-1.6-0.7-2.3-2.3-2.7c-2.4-0.7-5.2-1-6.5-3.8
				C187.6,185.9,188.9,184.5,187.6,179.3"/>
			<path id="Path_20907" class="st1" d="M177.7,120.2c0.8,5.2,3.8,9.4,5.3,14.3c0.8,2,1.5,4.1,2,6.2c-1.3,0-1.6-1.1-2-2.1
				c-0.3-0.5-1-0.7-1.5-0.4c0,0-0.1,0-0.1,0.1c-0.6,0.4-0.3,0.9,0,1.3c0.4,0.6,1,1.5,0.2,1.9c-1.1,0.4-1.9-0.8-1.9-1.6
				c0.2-2.1-1.4-4.1-0.1-6.5c0.7-2-0.2-4.1-2.1-5c-1.2-0.4-1.8-1.2-1.6-2.3c0.6-2.4-0.7-5,0.6-7.4l1.2,0.8
				C177.5,119.8,177.6,120,177.7,120.2 M182,136.8c0.2-0.4,0.4-0.6,0.4-0.8c0-0.4-0.3-0.8-0.7-0.6c-0.2,0.1-0.3,0.5-0.3,0.8
				C181.5,136.3,181.8,136.5,182,136.8"/>
			<path id="Path_20908" class="st3" d="M5.8,226.2c1.1,0,1.2,1.4,2.2,1.7c1.5,0-0.6-2.7,1.5-2.2c1.6,0.4,0.7,1.7,0.8,2.6
				c0.3,1.7,0.7,3.2-0.5,4.8c-0.8,1.1,2.5,7.2,3.9,7.5c1,0.2,0.6-1.3,1.9-1.3c-0.8,3.8,0.3,7.5,0.2,11.3l-1.3-1.3
				c-0.8-1.7-1.1-3.7-2.4-5.2c-0.1-0.4-0.1-0.9-0.2-1.3l-0.4-0.7l0,0c0.1-0.5-0.2-1.1-0.6-1.3l0,0l-3.1-7.7l-0.2-0.6l-0.5-0.7
				l-0.1-1.2c-0.1-1.2-0.5-2.3-1.2-3.3C5.7,227,5.7,226.6,5.8,226.2"/>
			<path id="Path_20909" class="st1" d="M159.6,76.5c-2.1,0.3-4.3,0.1-4.7-2.3c-0.3-2-0.4-4.5,2.5-5.1c-0.2-1.1-1-1.2-1.6-1.5
				c-2.2-0.8-2.5-1.9-0.5-3.3c1.1-0.8,0.9-2.4,1.9-3.2c0.6,3.5,1.3,7.1,1.8,10.6c0.2,1.2,0,2.3,1.2,3
				C159.9,75.2,159.3,75.7,159.6,76.5"/>
			<path id="Path_20910" class="st3" d="M15.1,72c0.5,2.3,1.6,4.6-0.7,6.6c-0.7,0.6,0.2,1,0.3,1.6c1.2,3.7,0.3,7.1-2.9,9.5
				c-1,0.7-0.9,2.3-2.3,2.3C11.3,85.3,12.5,78.4,15.1,72"/>
			<path id="Path_20911" class="st4" d="M106,3.9c-0.8-3.6-3.6-1.8-5.6-2.2c-1.1-0.2-2.6,1.1-3.2-1c0.7,0,1.4,0.1,1.8-0.5l9.4-0.1
				c3.3,1.3,7,0.8,10.2,2.5c-1.4,0.3-3,0.1-3.3,2H114c-0.9-2.3-2.3-1.3-3.7-0.6L106,3.9L106,3.9z"/>
			<path id="Path_20912" class="st3" d="M10.6,106.7c-0.2,0.9-0.3,1.9-0.6,2.8c-0.3,0.9,0.5,2.5-0.8,2.7c-1.8,0.3-0.5-1.9-1.6-2.6
				c-1-0.1-0.7,1.8-1.8,1.6c0.6-6.1,1.8-12.1,3.7-18c0.8,1.1,0.7,8.5-0.1,9c-2,1.1-1.9,2.9-1.6,4.6c1.6,0.6,0.2-2.8,2.2-1.4
				C9.7,106.1,9.5,106.7,10.6,106.7"/>
			<path id="Path_20913" class="st1" d="M131.5,8.4c-0.4,1.7-0.8,3.4-1.2,5.1c-0.2,0-0.4,0-0.6,0c-2.7-3.3-5.1-7-9.3-8.4
				c0-0.2,0-0.4,0-0.6c0-0.5,0-0.9,0-1.4c1.7,0.1,3.4,0.6,4.9,1.4c0.2,0.7,0.8,0.6,1.3,0.5l0.3,0.1l0.3,0l0,0c1,1.6,2.8,2,4.3,2.6
				l0,0C131.4,8,131.4,8.2,131.5,8.4"/>
			<path id="Path_20914" class="st3" d="M28.1,44.4c0.2,1.1-0.2,2.1-0.9,2.9c-2.1,1.9-2.1,4.3-2.3,6.9c-0.1,0.9,1.1,3.5-1.9,2.2
				c-0.4-0.2-1.5,1.5-2.2,2.3c-0.4,0.5-0.7,1-1.4,1c2.2-5.6,4.7-11,7.6-16.3c0.2-0.3,0.7-0.4,1-0.5C28.1,43.4,27.4,43.9,28.1,44.4"
				/>
			<path id="Path_20915" class="st2" d="M130.9,291.8c-1.8-2.2,0-3.3,1.5-4c1.3-0.7,2.5-1.1,2.3-3.1c-0.1-1.1,0.7-2.4,1.7-2.1
				c1,0.4,1.4,1.5,1.1,2.5c-0.1,0.1-0.1,0.3-0.2,0.4c-1.1,1.8-0.2,1.9,1.2,2c-0.9,1.5-2.8,1.8-3.9,3.1l0,0c-1.1,0.2-2.2,0.7-3.1,1.4
				L130.9,291.8"/>
			<path id="Path_20916" class="st3" d="M65.5,9c-0.1,0.8-0.1,1.7,0,2.6c0.2,2.1-0.6,2.9-2.7,2.4c-2.5-0.6-4.8,1.7-7.3,0.7
				c2.9-2.9,6.7-4.2,10.1-6.3C65.5,8.7,65.5,8.8,65.5,9"/>
			<path id="Path_20917" class="st3" d="M19.3,61c0.6,2.1,2.1,4.2,0.2,6.4c-0.2,0.2-0.4,0.6-0.3,0.8c2.3,5.3-2,2.3-3.4,2.9
				C15.8,67.4,17.4,64.1,19.3,61"/>
			<path id="Path_20918" class="st3" d="M25.6,260.3c-1.4-0.1-2.3-1.5-3.8-1.4c-0.8,0-1.1,0.1-1.2,0.9c-0.2,0-0.3-0.1-0.5-0.1
				c-1.2-2.2-2.1-4.6-3.7-6.5l-0.5-1.2c2-0.7,4.3-2,3.7,2.2c-0.2,1.2,1.1,1.7,2.1,2.4C23.1,257.5,25.6,257.6,25.6,260.3"/>
			<path id="Path_20919" class="st1" d="M154.6,45.6c-4-0.2-6-3.8-4.1-7.1c0.5-0.9,1.5-0.4,2.3-0.6c1.7,1.3,0.6,3.7,1.9,5.1
				C154.6,43.9,154.6,44.8,154.6,45.6"/>
			<path id="Path_20920" class="st2" d="M189.4,220.4c-1.7,2.9-1.2,6.6-3.7,9.1c-0.4-3,0.9-6.2-0.6-9.2c-0.2-0.7-0.2-1.5,0-2.2
				c0-0.4,0.4-0.8,0.8-0.8c0.1,0,0.2,0,0.3,0.1c0.3,0.1,0.4,0.6,0.5,1c0.2,0.7-1.3,1.2-0.3,1.8c0.8,0.5,1.5-0.3,2.1-0.9
				c0.2-0.2,0.6-0.2,0.9-0.3C189.4,219.6,189.4,220,189.4,220.4"/>
			<path id="Path_20921" class="st3" d="M55.4,14.7c0.2,6.5,0.2,5.1-4.9,5.2l-3.1,0C49.7,17.7,52.5,16,55.4,14.7"/>
			<path id="Path_20922" class="st5" d="M65.5,9c0-0.2,0-0.4,0-0.5l9.9-3.9c-0.1,2.6-0.9,4.4-3.9,3.2c-0.2-0.1-0.5-0.1-0.8-0.1
				C69.8,11.6,67.1,7.9,65.5,9"/>
			<path id="Path_20923" class="st3" d="M34.3,35.4l-1.9,0c2.2-4,5.2-7.4,8.7-10.3l0,0.1L40.5,27c-0.2,1.1,0.4,2.3-0.6,3.2h-1.2
				c-2-0.4-2,1.8-3.1,2.6C34.4,33.3,34.3,34.3,34.3,35.4"/>
			<path id="Path_20924" class="st5" d="M47.4,19.9l3.1,0c0,0.4,0,0.8,0,1.3c-0.2,1.2,0.6,2.8-0.6,3.5c-1.3,0.7-1.6-1.1-2.4-1.8
				c-0.4-0.4-1.3-0.3-2-0.4c0-0.4,0-0.8,0-1.1L47.4,19.9"/>
			<path id="Path_20925" class="st1" d="M140.2,14.8c-1.1,0-2.3,0.1-3.4,0c-1.1-0.1-3.5,0.8-1.7-2.1c0.5-0.9-1.3-1.4-1-2.5l1.1,0.1
				c0.4,0.7,1.1,1.2,2,1.3l0.5,0.6c0.2,0.6,0.7,1,1.4,1.1L140.2,14.8"/>
			<path id="Path_20926" class="st1" d="M144.1,19.3c-1.1,0.5-2.4,1.3-3.4,0.3c-1.1-1.1-0.5-2.7,0.1-4.1l0.6,0l0.6,0.6
				C142.5,17.3,143.9,17.9,144.1,19.3"/>
			<path id="Path_20927" class="st4" d="M3.7,216c-1-0.6-0.1-2.1-1.2-2.6l0.1-0.6c0.4-0.1,0.9-0.1,0.8-0.7c0-0.5-0.5-0.6-0.9-0.6
				c0-0.4,0-0.9,0-1.3c2.8-0.3,3.5,0.8,2.3,3.3C4.5,214.3,4.6,215.4,3.7,216"/>
			<path id="Path_20928" class="st6" d="M171.4,256.5c0-0.6-0.1-1.3-0.1-1.9c0-1.1-1.7-2.1-0.5-3.1c1.2-1,2.1,0.8,3.3,1
				c0,0.4-0.1,0.7-0.1,1.1c-0.9,0.8-1.9,1.5-2,2.8l0,0C171.8,256.4,171.6,256.4,171.4,256.5"/>
			<path id="Path_20929" class="st3" d="M99.1,0.1c-0.5,0.7-1.2,0.5-1.8,0.5c-1.9-0.6-1.9,2.6-3.7,1.9h-3.1c0-1.8,1.9-0.9,2.5-1.8
				C94.8,0.1,97-0.1,99.1,0.1"/>
			<path id="Path_20930" class="st5" d="M28.1,44.4c-0.7-0.5,0-1,0-1.4c-0.2-1,0.3-2.1,1.3-2.5c0.2,0.6,0.4,1.1,0.7,1.7
				c0.6,0.9,1,2.1,0.3,2.9C29.5,46,29,44,28.1,44.4"/>
			<path id="Path_20931" class="st3" d="M45.5,21.4v1.1c0.3,2-0.6,2.9-2.5,2.6c-0.6-0.7-1.2,0.2-1.8,0.1l0,0
				C42.5,23.7,43.9,22.4,45.5,21.4"/>
			<path id="Path_20932" class="st6" d="M177.7,246.2c-0.2,1.7-2,2.6-2,4.4c-0.2,0-0.4,0-0.6,0.1
				C175.3,248.7,174.5,246.2,177.7,246.2"/>
			<path id="Path_20933" class="st6" d="M183.1,235.9l0.2,0.6c0,0.2,0,0.4,0,0.6l-1.9,2.6C181,238.2,181.7,236.6,183.1,235.9"/>
			<path id="Path_20934" class="st3" d="M32.4,35.4c0,0.6,0,1.3,0,1.9l-0.6,0.6l-1.8,0.6C30.4,37.2,31.3,36.1,32.4,35.4"/>
			<path id="Path_20935" class="st2" d="M184.6,233.3l-0.7,0.8c0.3-1.2-0.9-2.9,1.3-3.3c-0.1,0.6-0.1,1.2-0.2,1.9
				C184.7,232.7,184.5,232.9,184.6,233.3"/>
			<path id="Path_20936" class="st1" d="M152.1,33.4l-0.2,0.6c-1.6-0.3-1-1.6-1.1-2.6l1.2,1.4C151.9,33.1,152,33.3,152.1,33.4"/>
			<path id="Path_20937" class="st4" d="M1.4,197.9c0.5,0.1,1,0.2,1,0.8c0.1,0.8-0.4,1-1.1,1.1L1.4,197.9"/>
			<path id="Path_20938" class="st0" d="M2.6,211.4c0.4,0.1,0.9,0.1,0.9,0.6c0,0.5-0.4,0.6-0.8,0.7C2.7,212.3,2.6,211.9,2.6,211.4"
				/>
			<path id="Path_20939" class="st7" d="M39.3,283.5l0.6,0.6L39.3,283.5"/>
			<path id="Path_20940" class="st7" d="M25,266.9c0.4-0.1,0.5,0.1,0.5,0.5L25,266.9"/>
			<path id="Path_20941" class="st7" d="M6.9,231.9l0.5,0.7L6.9,231.9"/>
			<path id="Path_20942" class="st7" d="M11.3,242.2l0.4,0.7L11.3,242.2"/>
			<path id="Path_20943" class="st1" d="M133.4,9.6c0.2,0.1,0.4,0.1,0.6,0.1c0,0.2,0,0.4,0.1,0.6L133.4,9.6"/>
			<path id="Path_20944" class="st5" d="M5,115.7c0.1,0.1,0.2,0.3,0.3,0.4c0,0-0.1,0.1-0.2,0.2C5.1,116.1,5,115.9,5,115.7"/>
			<path id="Path_20945" class="st5" d="M5,115c0,0.2,0,0.5,0,0.7C4.4,115.5,4.4,115.2,5,115"/>
			<path id="Path_20946" class="st5" d="M5.2,113.8c0.1,0.1,0.1,0.3,0.2,0.4c0,0-0.1,0.1-0.2,0.2C5.1,114.2,5.1,114,5.2,113.8"/>
			<path id="Path_20947" class="st7" d="M28.7,272.4l0.7,0.7L28.7,272.4"/>
			<path id="Path_20948" class="st8" d="M36.2,197.9c-2,3.9-4.7,7.1-8.7,9c-2.9-1.6-6.1-2.5-8.8-4.5c-0.4-0.3-0.7-0.8-0.6-1.3
				c1-0.1,2-0.5,1.7-1.7c-0.3-1.3-1.5-0.7-2.3-0.8c-0.2-1.3-0.8-2.5-0.7-3.8c1.6,0.1,3.2-0.1,3.7-2.1c0.5-2.2-1.8-1.5-2.6-2.5
				c-0.7-0.9-1.9-0.4-2.9-0.5l0.5-1.1c2.6-0.2,5.3-0.1,7.9,0.3c1.7,0.3,3.6,0.8,5.3-0.5l1.8,0c0.2,1.3,1.4,1.8,1.8,0.8
				c0.7-1.7,3.5-1.4,3-3.9c-0.1-0.6-0.7-0.7-1.2-0.7c-2.9,0.1-6-0.5-8.6,1.4c-1.3,0-2.7,0-4-0.1c-2.6-0.4-5.2,0.9-7.8,0
				c0-0.2,0-0.4,0-0.6l0-0.7c2.2-1.6,1.5-2.5-0.6-3.2l0-1.9c1.9,0.2,1.8-1.1,1.9-2.5c0.4-4.6-0.7-9.1-0.7-13.7
				c0-3.1,0.2-5.4,3.8-5.6c1-0.1,1.8-0.6,2.4-1.4c-0.8-0.6-2.1-1.1-1.8-2.5c1.7,0.3,3-0.6,4.3-1.4c0.9,0.9,1.7,1.7,2.3-0.2
				c0.9-2.5-0.1-3.5-3.5-3.6l-0.6-0.7c-0.1-0.9-0.6-1.2-1.5-1.3c-1.5,0.1-2.9-0.7-3.6-2c-0.4-0.7-0.9-1.2-1.7-1
				c-0.6,0.2-0.6,0.8-0.7,1.3c0,1,0.2,1.7,1.3,1.7c1.3,0,1.9,0.6,1.8,2l-0.6,0.7c-1.1-1.2-2.5-0.4-3.7-0.7c-0.4-0.3-0.6-0.8-0.6-1.3
				c0.8-2.3,0.6-4.7,0.6-7.1c0.8-1.4,0.6-3,0.6-4.5l1.9-15.4c0.4-0.3,0.7-0.8,0.6-1.3c0-0.4,0-0.9,0-1.3l6.2-27l0.6-1.9l8.7-24.4
				c0.8-1,1.7-1.9,1.8-3.2c1.3-2.8,3-5.3,3.8-8.3c0.8-0.4,1.2-1.1,1.2-2c2.9-3,4.1-7.2,6.8-10.3l0.6-0.6l3.1-3.9
				c0.8-0.3,1.3-1,1.3-1.9c2.5-1.2,4.1-3.5,6.2-5.2c1.6-0.3,2.9-1.6,3.2-3.2c0.5,0,1-0.2,1.2-0.7c0.9,0,1.8-0.1,1.9-1.3l1.8-0.7
				c1.2-0.6,2.6-1,3.2-2.5c3-1.1,6-2.3,9-3.2c7.8-2.4,10.5,1.1,12.5,7.3c1.2,3.4,1.7,7,1.5,10.7c0,1.7,0,3.4,0,5.1
				c0.1,13-4.9,23.2-14.6,31.6C65.7,80.9,57,91,52.4,104.1c-1.5,4.4-3.3,8.7-3.8,13.5c-1.1,0-2.2-0.1-3.3-0.3
				c-4.4-0.8-9-0.4-13.3,0.9c-0.2,0.1-1-0.1-0.6,0.6c0.1,0.2,0.8,0.1,1.2,0.2c0.7,0.9,1.7,0.6,2.6,0.6c4.3,0,8.6,0,12.9,0
				c-1.8,8.7-2.8,17.5-3.1,26.4c0.1,9.9-0.1,19.7-0.6,29.6l-0.6,2.6c-0.6,3.2-1.3,6.4-1.9,9.6c-1.8,0.9-1.8,2.9-2.4,4.6
				c-0.8,0.6-1.2,1.6-1.3,2.6l0,0l-0.6,0.6l0,0.7C36.6,196.3,36.1,197.1,36.2,197.9 M82.3,30.2c0.1-2.3-0.7-3.7-2.8-3.8
				c-1.9-0.1-3.4,0.5-3.4,2.7c0,1.9,0.5,3.6,2.9,3.7C81,32.9,82.2,32,82.3,30.2 M51.2,82.2c1.5,0,2-1.2,2.2-2.2c0.1-1-0.6-1.9-1.6-2
				c-0.1,0-0.2,0-0.3,0c-1.2,0-2.2,1-2.1,2.2c0,0,0,0,0,0C49.2,81.5,50.2,81.8,51.2,82.2 M22.2,144.4c-0.2-0.1-0.4-0.3-0.5-0.2
				s-0.2,0.3-0.2,0.5c0.2,0.1,0.4,0.3,0.5,0.2S22.2,144.6,22.2,144.4"/>
			<path id="Path_20949" class="st4" d="M135.2,250.6c-2.7,0.6-4.5,2.8-6.7,4.2c-1.1,0.6-1.9,1.5-3.2,1.6c-0.1-1.6,1.9-2.9,0.8-4.7
				c2.9-0.9,4.3-3.1,5.1-5.9c0.3-0.1,0.6,0,0.9,0c2.1,0.8,2.7-0.2,2.5-2.1c-0.2-2.2,0.4-3.5,2.9-3.4c1,0.2,1.9-0.5,2.1-1.4
				c0-0.2,0-0.5,0-0.7c-0.2-2.5,1.1-3.1,3.3-3c1,0.1,2.2,0.4,2.3-1.3c0.1-1-1.1-2.3,0.3-2.8c1.4-0.6,3-0.9,4.5-0.8
				c0.7,0.1,1.4,0.3,2.1,0.4l-3.1,5.8c-0.8,0.4-1.5,1.1-1.9,1.9c-1.4,0.6-1.9,2-2.5,3.2c-1.9,0.5-3.3,2-3.7,3.8
				c-1.2,0.6-2.5,1.2-3.1,2.6C136.8,248.8,135.4,249.1,135.2,250.6"/>
			<path id="Path_20950" class="st9" d="M18.7,153.7c-0.3,1.4,1,1.8,1.8,2.5c-0.5,0.8-1.4,1.3-2.4,1.4c-3.7,0.2-3.9,2.5-3.8,5.6
				c0.1,4.6,1.1,9.1,0.7,13.7c-0.1,1.4-0.1,2.6-1.9,2.5c-0.4-0.3-0.7-0.8-0.6-1.3c0.1-2.2-0.1-4.3-0.6-6.4c0.1-2.4,0.2-4.9,0.4-7.3
				c0.3-4,0.8-8-0.4-12l0.6-3.9c1.3,0.2,2.7-0.5,3.7,0.7C16.1,151.2,16.7,152.8,18.7,153.7"/>
			<path id="Path_20951" class="st4" d="M139,40.5c0,2.4,0,4.7,0,7.1c0,0.4,0,0.9,0,1.3c0,4.1,0,8.1,0,12.2
				c-3.8,0.6-4.9-0.1-4.3-3.5c1-6,0.3-12,0.6-17.9c0-0.8,0.1-1.7,0.1-2.6C137.8,37,136.2,41.1,139,40.5"/>
			<path id="Path_20952" class="st4" d="M106.6,213.4c-0.2,1.9-2,1.5-2.9,1.7c-3.8,0.5-7.7,0.7-11.5,0.9c-2.3,0.1-3-2.4-1.3-4.7
				c0.7-1,1.7-1.5,0.5-2.8c-0.5-0.5,0-1.2,0.7-1.4c0.7-0.1,1.4-0.2,2.1-0.5c1-0.5,2.2-1.7,2.9-0.2c0.7,1.6-1.5,0.9-1.9,1.7
				c-0.1,0.3-0.2,0.6-0.2,0.9c0,0.4,0,0.8,0,1.1c-0.8,1.7,0.6,1.3,1.3,1.3c3.1,0,6.2,0,9.3,0C105.3,212.4,105.3,213.3,106.6,213.4"
				/>
			<path id="Path_20953" class="st4" d="M120.3,259.6c-5.3,2.4-10.4,5.2-16.2,6.4c-0.9,0.5-2,0.8-3.1,0.6c-0.2-1.3-0.9-2.4,0.1-3.9
				c1.5-2.2,2.4-2.5,4.1-0.5c0.3,0.3,0.4,0.8,0.7,1c0.9,0.6,9-2.9,9.3-3.9c0.9-2.8,3.4-4.4,6.1-3.3c1.3,0.4,2.6,0.5,3.9,0.3
				c-0.3,1.3-1.9,1-2.5,1.9L120.3,259.6"/>
			<path id="Path_20954" class="st4" d="M156.4,126c-0.4,2.6,1.1,4.7,1.9,7c0,0.9,0,1.7,0,2.6c-1.1,0.2-1.2,2.2-2.4,1.7
				c-1.4-0.5-0.6-2-0.8-3.1c-0.5-2.8-0.3-5.7-3.8-7.2c-3-1.3-1.1-4.6-1.3-7c-0.1-1.4,0.9-2.8,0.8-4.3c1.5,0.8,1.7,2.6,2.5,3.9
				c-0.1,0.5,0.2,1,0.6,1.3c0,0.7-0.1,1.5,0.6,1.9C155,123.9,154.7,125.6,156.4,126"/>
			<path id="Path_20955" class="st4" d="M15,120.2l-1.9,15.4c-2.2,0.2-2.4-1.7-2.9-3.1c-0.7-2.1,0.8-4.4,0-6.6
				c0-0.3,0.2-0.6,0.5-0.8c3.4-0.7,2.1-1.9,0.6-3.7c-0.7-0.8-1.9-1.9-0.8-3.4c1.5-2.1,3.4-0.9,5.1-0.5c0,0.4,0,0.9,0,1.3
				C14.8,119,14,119.2,15,120.2"/>
			<path id="Path_20956" class="st4" d="M116.5,26.4c0.3-1.8,1.6-1.3,2.6-1.3c0.7,0,1,0.6,1.1,1.3c0.1,1.2-0.2,2.4-1.3,3
				c-1,0.6-2.1,0.9-3.3,0.8c-3.8-1-7.5,0-11.2,0.6c-2.5,0.4-3.9-1.9-6-2.5l1.9-1.2l10,0c1.5,2.1,3.4-0.1,5.1,0.5
				c0.6,0,1.1-0.4,1.1-1C116.5,26.5,116.5,26.5,116.5,26.4"/>
			<path id="Path_20957" class="st4" d="M90.4,40.5c0-1.7,0-3.4,0-5.1c1-0.3,2-0.5,3-0.6c1.6-0.2,2.6,0.5,2.6,2.3c0,2.1,0,4.3,0,6.4
				c0,1.4-0.7,2.6-2.1,2.7c-1.6,0.1-1.6-1.4-1.6-2.6C92.2,42.2,92.3,40.7,90.4,40.5"/>
			<path id="Path_20958" class="st1" d="M165.8,160c1.2,0.8,2.1-2,3.1-0.4c1.5,2.2,3.2,4.5,2.4,7.6c-0.4,1.3-1.1,2.6-1.1,3.9
				c0,2.9-1,3.3-3.2,1.8c-0.2-1.3,0.5-2.7-0.6-3.9v-3.2c0.9,0,1.9,0,1.8-1.4c-0.1-1.5-0.7-2.6-2.4-2.5
				C165.8,161.3,165.8,160.7,165.8,160"/>
			<path id="Path_20959" class="st4" d="M110.3,209.5c0-0.9,2.3-0.3,1.2-1.8c-0.6-0.8-2-1.6-0.5-2.4c1-0.6,2.8-0.9,3.6,0.6
				c1.5,2.7,1.8,6,1,9c-0.4,1.7-2.2,1.2-3.5,1c-1.2-0.2-2.2-0.9-1.2-2.4c0.4-0.3,0.7-0.8,0.6-1.3l0.6-0.6l0.8-0.3l-0.8-0.3l0,0
				L110.3,209.5"/>
			<path id="Path_20960" class="st4" d="M162.6,148.5l0.6,0.6c0.1,1.6,0.5,3.1,1.2,4.5c0.1,2,0.5,3.9,1.2,5.8c-2.4,0-5.1,0-6.1-2.6
				C158.4,153.5,159.7,150.5,162.6,148.5"/>
			<path id="Path_20961" class="st4" d="M12.5,178c0,0.5,0.2,1,0.6,1.3c0,0.6,0,1.3,0,1.9c0.1,1.1-0.5,2.3,0.6,3.2l0,0.7l-0.6,0.6
				c-0.8,1-2,1.5-3.2,1.4c-1.1,0-2.1,0.4-1.2,1.9c-0.7,0.9-1.6,0.5-2.5,0.6c-0.8-1.6-1.9-3.1-0.3-4.9c1.5-1.6,2.8,0.2,4.2,0.1
				C10.5,182.4,8.5,179.1,12.5,178"/>
			<path id="Path_20962" class="st4" d="M140.8,89.3c2.3,2.5,1.6,6.4,3.7,9c0.2,1.3,0.9,2.5,0.6,3.8c-2.1,0.4-4.3,1.3-5.3-1.9
				c-0.1-0.4-0.4-1-0.3-1.2C141.7,96.1,139.7,92.5,140.8,89.3"/>
			<path id="Path_20963" class="st4" d="M44.3,175.4c0.5-9.8,0.7-19.7,0.6-29.6c1.3,0.2,1.2,1.2,1.2,2.2c0,7.7,0.1,15.4-0.1,23.1
				C46.1,172.6,46.3,174.6,44.3,175.4"/>
			<path id="Path_20964" class="st10" d="M134.6,211.4c0.2,1,0.4,2.1,0.6,3.1c-1.7,1.7-3.4,3.4-6.1,1.9c-0.7-1.2-1.4-2.3-1.2-3.7
				l1.8-2.5v0C131.4,210,133.2,210,134.6,211.4"/>
			<path id="Path_20965" class="st1" d="M167,185.7c2.8-1.5,3.5-1.2,3.7,2.3c0,1.4,0.2,2.8,0.5,4.1c0.4,1.5-0.4,3-1.8,3.5
				c0,0-0.1,0-0.1,0c-1.7,0.5-1.5-1.2-1.6-2.3c0-0.7-0.6-1.2-1.2-1.2c0-0.9,0-1.7,0-2.6C167.5,188.5,166.8,187,167,185.7"/>
			<path id="Path_20966" class="st10" d="M81.6,121.4c-4.3,1.2-5.5,0.1-5.5-5l1.3-1.3l1.2-0.1C82.6,115.4,83.5,117.3,81.6,121.4"/>
			<path id="Path_20967" class="st10" d="M52.9,220.4c-2,0-4.4,0.5-4.9-2.5c-0.1-1.1,0.1-2.2,0.7-3.2l0.6-0.7c2,0,4-0.4,5.6,1.4
				c0.2,1.5-0.6,2.8-0.7,4.3C53.7,219.9,53.3,220.1,52.9,220.4"/>
			<path id="Path_20968" class="st4" d="M130.9,16.1c2.5,0.8,2.3,3.6,3.7,5.1c0.6,1.2,0.8,2.5,0.6,3.8c-4.2,1.1-6.2-0.7-5.2-5.2
				C130.3,18.6,128.7,16.9,130.9,16.1"/>
			<path id="Path_20969" class="st4" d="M94.1,268.6c-4.5,1.1-9.1,1.5-13.7,1.3C82.6,265.5,91.3,264.6,94.1,268.6"/>
			<path id="Path_20970" class="st6" d="M8.8,188.9c-0.9-1.5,0.1-1.9,1.2-1.9c1.2,0.1,2.4-0.4,3.2-1.4c0.2,0,0.4,0,0.6,0
				c2.6,0.9,5.2-0.4,7.8,0c1.3,0.1,2.7,0.2,4,0.1c1.5,1.2,3.6,0.9,5,2.4l-1.8,0c-4.9-1-10.1-1-15,0C12,187.9,10.4,188.9,8.8,188.9"
				/>
			<path id="Path_20971" class="st4" d="M11.9,152.3c1.2,3.9,0.7,8,0.4,12c-0.2,2.4-0.3,4.9-0.4,7.3c-1,0-1.9-0.8-1.9-1.9
				c0-0.1,0-0.2,0-0.2c-0.1-5.3,1-10.6,0.7-16C10.6,152.7,11.2,152.4,11.9,152.3"/>
			<path id="Path_20972" class="st10" d="M119.6,58.5c-1.9,0.1-3-1.2-2.8-3.1c0.2-2,1.4-3.5,3.7-3.4c1.9,0.1,3,1.1,2.9,3
				C123.2,57.2,122.2,58.6,119.6,58.5"/>
			<path id="Path_20973" class="st4" d="M125.3,173.5c0.5,0,1,0,1.5,0c1.9-0.1,3.6,0,4,2.4c0.2,1.5,0.1,3.3-1.6,3.7
				c-1.9,0.5-4.1,1.1-5.2-1.7c1.6-1.1,1.3-2.7,1.1-4.4L125.3,173.5z"/>
			<path id="Path_20974" class="st4" d="M134.6,211.4c-1.4-1.4-3.2-1.4-4.9-1.2c0-0.2,0-0.4,0-0.6c0.1-1.9-0.6-4.2,1.9-5.1
				c1.2-0.4,2.8-0.5,3.6,0.9C136.5,207.3,136.2,209.8,134.6,211.4"/>
			<path id="Path_20975" class="st4" d="M120.3,5.1c4.3,1.4,6.7,5.1,9.3,8.4c-3.8,1.9-4,1.8-5-2.4c-0.1-0.5-0.1-1.3-0.7-1.2
				C119.9,10.5,120.3,7.7,120.3,5.1"/>
			<path id="Path_20976" class="st4" d="M71.1,162.7c-2.1,1.8-3.5-0.6-5.2-1.2c-0.8-0.2-0.6-1.7-0.1-2.6c0.6-1,1.4-0.7,2,0
				c1,1.1,1.8,0.9,3.1,0.2c1.7-1,4-2.5,5.7,0.4C75,161,72.4,160.6,71.1,162.7"/>
			<path id="Path_20977" class="st4" d="M129.1,216.4c2.7,1.5,4.4-0.2,6.1-1.9c-0.2,1.7,1,4.2-1,4.9c-2.6,0.8-5.4,0.8-7.9,0
				c-1.4-0.4-1.3-2.3-0.8-3.3c0.8-1.5,1.5,0.2,2.1,0.6C128.2,217.1,128.7,217.1,129.1,216.4"/>
			<path id="Path_20978" class="st4" d="M41.8,187.6l1.9-9.6c1.9,1.1,2.7,5.4,1.4,8.1c-0.3,0.6-0.9,1-0.7,1.7
				c0.6,1.4-0.1,2.2-1.3,2.2C41.7,190,41.8,188.7,41.8,187.6"/>
			<path id="Path_20979" class="st11" d="M71.1,162.7c1.3-2.1,4-1.6,5.6-3.2c0.8,0.4,1.6,0.6,2.5,0.5H81l4.3,0.1
				c1.4,1.4,3.9,0.4,5,2.5l-1.3,0c-5.7-1.1-11.6-1.1-17.4,0L71.1,162.7"/>
			<path id="Path_20980" class="st4" d="M63,269.9L50.5,268c0-0.4,0-0.8,0-1.3c2.9,0.1,5.7-0.1,8.6-0.6
				C61.9,265.6,63.5,266.7,63,269.9"/>
			<path id="Path_20981" class="st4" d="M167,185.7c-0.2,1.3,0.5,2.7-0.6,3.9c-1.8-1-1.4-2.8-1.1-4.3c0.7-4,0.7-8.1,0-12
				c-0.3-1.5-0.7-3.3,1.1-4.3c1.1,1.1,0.4,2.6,0.6,3.9L167,185.7z"/>
			<path id="Path_20982" class="st4" d="M6.3,189.6c-0.2,2.6,0.4,5.3-0.4,7.8c-0.3,0.8-0.2,2.2-1.4,2.1c-1,0-0.8-1.3-1.1-2
				c-0.2-0.5-0.2-1-0.2-1.5c0.1-0.6-0.4-1.2-1-1.3c-0.1,0-0.2,0-0.2,0l0-2.6l0,0C3.9,192.3,3.8,188.6,6.3,189.6"/>
			<path id="Path_20983" class="st11" d="M116.5,26.4c0.1,0.6-0.4,1.1-1,1.2c-0.1,0-0.1,0-0.2,0c-1.2-0.9-2.6-0.9-3.9-1.1h-11.1
				l-5,0.6c4.6-2.5,10-3.3,15.2-2.1C112.6,25.3,114.5,25.9,116.5,26.4"/>
			<path id="Path_20984" class="st1" d="M145.2,102.2c0.2-1.4-0.4-2.6-0.6-3.8c1.4,0,2.5-2.1,4.1-0.3c0.6,0.7,2.4,0.1,2.6,1.7
				c0.2,1.7-1.3,1.4-2.2,2c-1.2,0.8-0.9,2.4-1.4,3.7l-1.2-0.7c0-0.4,0-0.9,0-1.3c0.1-0.6-0.4-1.2-1-1.3
				C145.4,102.2,145.3,102.2,145.2,102.2L145.2,102.2z"/>
			<path id="Path_20985" class="st4" d="M139.6,81.6c-0.1,2,0.3,4,1.2,5.8c-1.2-0.3-2.4-0.5-3.7-0.6c-2.4-0.1-2.6-1.7-2.5-3.6
				c0.1-2.2,1.5-2.2,3.1-1.7c0.4,0.1,0.8,0.1,1.2,0L139.6,81.6"/>
			<path id="Path_20986" class="st1" d="M158.3,135.6c0-0.9,0-1.7,0-2.6c2.4-0.4,3.4,0.5,3.2,3.2c-0.1,1.9-1,4.8,2.9,3.6
				c0.9-0.3,1.3,1,1.3,1.8c0,1.1-0.8,1.2-1.5,0.8c-1-0.5-1.8,0.3-2.7,0.3c0.1-0.6-0.4-1.2-1.1-1.3c-0.1,0-0.1,0-0.2,0
				C160,139.3,160.5,137,158.3,135.6"/>
			<path id="Path_20987" class="st6" d="M32.5,119c-0.4-0.1-1,0-1.2-0.2c-0.4-0.7,0.4-0.5,0.6-0.6c4.3-1.4,8.9-1.7,13.3-0.9
				c1.1,0.2,2.2,0.3,3.3,0.3c0.4,0,0.8,0.1,1.2,0.3c0.7,0.5,2.2,0.1,1.8,1.5c-0.4,1.2-1.4,0-2.1,0.1c-0.3,0-0.6,0-0.9,0
				c-0.4-0.3-0.9-0.5-1.3-0.6C42.4,117.9,37.3,118,32.5,119"/>
			<path id="Path_20988" class="st4" d="M81.6,121.4c1.9-4.2,1-6-3-6.4c-0.6-3.6,2.4-2.1,3.7-2.3c1.7-0.4,1.3,1.4,1.2,2.5
				c-0.1,0.6-0.6,1.3,0.2,1.7c1.3,0.5,2.2,1.1,1.5,2.8C84.4,121.4,83.1,121.6,81.6,121.4"/>
			<path id="Path_20989" class="st9" d="M18.7,202.5c2.7,2,5.9,2.9,8.8,4.5c-3.2,3.1-7,2.1-8.1-2.1
				C19.1,204.1,18.9,203.3,18.7,202.5"/>
			<path id="Path_20990" class="st11" d="M127.8,133.1c-1.1-0.2-2.1,1.1-3.5,0.1c6.5-2.8,13.8-2.9,20.4-0.3l-1.4,0.2
				C138.2,132.1,132.9,132.1,127.8,133.1"/>
			<path id="Path_20991" class="st4" d="M90.4,162.6c-1.1-2.1-3.6-1-5-2.5c0.1-0.8,0.4-1.5,1.3-1.2c0.7,0.2,1.4,0.2,2.1,0.1
				c1.9-0.3,4.5-1.2,5.4,0.3c1.1,1.7-2.3,2.1-2.7,3.9C91.3,162.7,90.8,162.6,90.4,162.6L90.4,162.6z"/>
			<path id="Path_20992" class="st4" d="M160.8,214c-0.1,2.5-2.1,4.1-2.5,6.4h-0.6c-2-0.7-2.5-2.4-2.4-4.2c0.1-2,1.9-1.4,3.1-1.7
				C159.2,214.3,160,214.2,160.8,214"/>
			<path id="Path_20993" class="st4" d="M138.4,75.8c1,0.9,0.5,2.1,0.6,3.2c-3.2-1.5-5.3-8.5-3.4-11.3c0.2-0.3,0.6-0.8,1-0.5
				c0.3,0.3,0.5,0.6,0.5,1c0.1,1.7,0,3.4,0,5.1C137.1,74.4,136.8,75.6,138.4,75.8"/>
			<path id="Path_20994" class="st4" d="M54.8,215.4c-1.6-1.8-3.6-1.3-5.6-1.4c0.1-2.3,0.9-4.3,3.5-4.2
				C54.9,209.9,55.6,212.3,54.8,215.4"/>
			<path id="Path_20995" class="st9" d="M15,189.6c1,0.1,2.2-0.4,2.9,0.5c0.8,1,3.1,0.3,2.6,2.5c-0.5,2-2,2.2-3.7,2.1
				C14.7,193.6,15.6,191.3,15,189.6"/>
			<path id="Path_20996" class="st4" d="M121.5,174.8c-1.4-0.2-2.1-0.9-1.6-2.4c0.6-1.5,1.4-2.9,3.3-2.8c1.4,0.1,2,0.9,2,2.3
				c0,0.5,0,1.1,0,1.6l-0.1,0.1C123.7,173.2,122.6,174,121.5,174.8"/>
			<path id="Path_20997" class="st11" d="M110.3,209.5l1.9,1.3c-4-0.2-7.9-0.9-12-0.7c-1.8,0.1-3.6,0.7-5.4,0.1c0-0.4,0-0.8,0-1.1
				l3.7-0.2l2.5-0.1l6.8,0.2c0.2,0.5,0.8,0.7,1.3,0.5L110.3,209.5"/>
			<path id="Path_20998" class="st1" d="M135.2,25.1c0.2-1.3-0.1-2.7-0.6-3.8c2-1.5,4-0.4,5.9,0.2c0.6,0.2,1,0.9,0.8,1.5
				c-0.1,0.5-0.6,0.9-1.1,0.8c0,0,0,0-0.1,0c-1.4-0.1-2.7,0.4-3.7,1.3L135.2,25.1"/>
			<path id="Path_20999" class="st12" d="M71.8,162.7c5.7-1.1,11.6-1.1,17.4,0c0,0.2,0,0.4,0,0.6h-6.9
				C78.8,162.9,75.2,163.9,71.8,162.7"/>
			<path id="Path_21000" class="st11" d="M83.5,240.4c1.6,0.8,1.2,2.4,1.2,3.7l-2.4,0.7c-2.6-1.9-2.6-3,0-4.6L83.5,240.4"/>
			<path id="Path_21001" class="st13" d="M32.5,119c4.9-1,9.9-1,14.7-0.1c0.5,0.2,0.9,0.4,1.3,0.6l-0.3,0l-0.3,0
				c-4.3,0-8.6,0-12.9,0C34.2,119.5,33.2,119.8,32.5,119"/>
			<path id="Path_21002" class="st12" d="M127.8,133.1c5.1-1,10.3-1,15.4,0C138.2,134,132.9,134,127.8,133.1"/>
			<path id="Path_21003" class="st4" d="M162.7,208.9c0,0.4,0,0.9,0,1.3c-0.7,0.5-0.6,1.2-0.6,1.9l-1.2,0.7c-0.4-1-0.7-2-0.7-3.1
				c-0.5-4.3-0.5-4.3,3.2-2.7L162.7,208.9"/>
			<path id="Path_21004" class="st4" d="M146.4,104.8l1.2,0.7l1.3,5.1c-1.2,0-1.9,2.1-3.2,1c-1.2-1.1-0.4-2.5,0.2-3.7
				C146.3,106.9,146.5,105.8,146.4,104.8"/>
			<path id="Path_21005" class="st4" d="M12.5,140.1c0,2.4,0.2,4.8-0.6,7.1c-2.3-0.7-1.9-2.7-1.8-4.5
				C10.1,141.2,10.7,140,12.5,140.1"/>
			<path id="Path_21006" class="st11" d="M116.6,95.1c1.6,0.1,2.4,0.6,2.4,1.9s-0.7,2.3-2,2.3c-1.1,0-1.8-0.9-1.7-2.2
				C115.3,95.9,115.6,95,116.6,95.1"/>
			<path id="Path_21007" class="st5" d="M22.5,88.7l-0.6,1.9c-1,0-1.9-0.2-1.9-1.5c0-0.6,0-1.3,0-1.9c0.3-1.6-0.7-4.6,0.8-4.5
				c2.3,0.2,0.4,2.7,0.4,4.2C21.3,87.8,21.4,88.6,22.5,88.7"/>
			<path id="Path_21008" class="st11" d="M121.5,174.8c1.1-0.8,2.2-1.6,3.7-1.2c0.2,1.6,0.4,3.2-1.1,4.4
				C121.8,178.1,121.6,176.5,121.5,174.8"/>
			<path id="Path_21009" class="st13" d="M13.7,188.3c4.9-1.1,10.1-1.1,15,0c-1.7,1.3-3.6,0.8-5.3,0.5c-2.6-0.4-5.3-0.6-7.9-0.3
				L13.7,188.3"/>
			<path id="Path_21010" class="st1" d="M157.7,220.4h0.6c2,1,1.6,3,1.8,4.6c0.1,1.1-0.7,1.2-1.4,0.5c-0.6-0.6-1.1-1.2-1.6-1.9
				C157.2,222.6,157.5,221.5,157.7,220.4"/>
			<path id="Path_21011" class="st10" d="M23.1,239.7c0.1-1.1-0.2-2.4,1.1-3c0.7-0.3,1.4-0.2,2,0.2c0.6,0.5,0.8,1.3,0.6,2
				c-0.4,1.7-1.8,1.4-3,1.4L23.1,239.7"/>
			<path id="Path_21012" class="st3" d="M111.6,212.1c0.1,0.5-0.2,1-0.6,1.3h-4.4c-1.3-0.1-1.3-1-1.2-1.9
				C107.4,211.3,109.5,211.5,111.6,212.1"/>
			<path id="Path_21013" class="st4" d="M137.7,30.2c0,0.9,0,1.7,0,2.6c-0.9-0.1-2.4,0.4-2.4-1.2c0-1.3-1.1-3.2,1.1-4L137.7,30.2"/>
			<path id="Path_21014" class="st4" d="M69.2,269.9h-2.5c0.1-1-1.2-2.3,0.4-3c0.6-0.3,1.4-0.3,2-0.1
				C70.6,267.7,69,268.9,69.2,269.9"/>
			<path id="Path_21015" class="st4" d="M48.6,214.6c-0.5,1-0.7,2.1-0.7,3.2c-1.8,0.2-2.8-0.5-2.4-2.5
				C46,212.8,47.6,214.9,48.6,214.6"/>
			<path id="Path_21016" class="st1" d="M137.7,30.2l-1.2-2.6c0-0.4,0-0.9,0-1.3c0.8,0,1.6,0.5,2.1,1.2c0.5,0.6,1.7,0.8,1.5,1.8
				C139.8,30.7,138.6,30.1,137.7,30.2"/>
			<path id="Path_21017" class="st3" d="M40.5,265.4c-1.7-0.6-3.9,0.3-5-1.9C37.8,262.6,39.7,262.5,40.5,265.4"/>
			<path id="Path_21018" class="st5" d="M59.3,25.8c-0.3,1.6-1.6,2.9-3.2,3.2C56,26.7,56.2,24.6,59.3,25.8"/>
			<path id="Path_21019" class="st1" d="M101,266.7c1.1,0.1,2.2-0.1,3.1-0.6c0,1.2,0.1,2.4-1.3,2.8c-0.9,0.4-1.9,0-2.3-0.9
				c-0.1-0.2-0.1-0.4-0.1-0.7L101,266.7"/>
			<path id="Path_21020" class="st1" d="M165.8,162c1.7-0.1,2.3,1,2.4,2.5c0.1,1.4-0.9,1.4-1.8,1.4h0c0-0.7,0.1-1.5-0.6-1.9
				L165.8,162"/>
			<path id="Path_21021" class="st4" d="M129.7,210.2l-1.8,2.5c-0.9,0-2,0.1-1.9-1.4c0.1-1.2,1-1.1,1.8-1.2
				C128.4,210.1,129,210.2,129.7,210.2"/>
			<path id="Path_21022" class="st5" d="M118.6,2.5c0.1-0.1,0.3,0,0.4,0.1c0,0.7,0,1.3,0,2c-1.2,1.1-2.5-0.5-3.7,0
				C115.7,2.6,117.3,2.7,118.6,2.5"/>
			<path id="Path_21023" class="st5" d="M110.3,3.9c1.4-0.7,2.8-1.6,3.7,0.6C112.7,5.2,111.2,6.1,110.3,3.9"/>
			<path id="Path_21024" class="st4" d="M82.3,163.2h6.9c-0.1,1.3-1.1,1.4-2,1.3C85.5,164.2,83.7,164.2,82.3,163.2"/>
			<path id="Path_21025" class="st5" d="M31.8,37.9l0.6-0.6c0.2,0.2,0.5,0.4,0.6,0.6c0.4,0.8,1.8,0.8,1.5,2.1
				c-0.1,0.4-0.6,0.5-1,0.4c-1.1-0.1-1.9-1.2-1.8-2.3C31.8,38,31.8,38,31.8,37.9"/>
			<path id="Path_21026" class="st4" d="M101,208.7l-2.5,0.1c0.1-0.9-0.4-2.3,1.2-2.4C101.3,206.3,100.9,207.7,101,208.7"/>
			<path id="Path_21027" class="st5" d="M0.8,192.2l-0.7-3.2c3.2-0.5,2.6,1.3,1.8,3.2L0.8,192.2"/>
			<path id="Path_21028" class="st3" d="M95.4,27l5-0.6c0,0.2-0.1,0.4-0.1,0.6l-1.9,1.2h-1.2h-1.9L95.4,27z"/>
			<path id="Path_21029" class="st9" d="M17.5,198.6c0.8,0.2,2.1-0.5,2.3,0.8c0.2,1.2-0.7,1.6-1.7,1.7
				C17.2,200.5,17.6,199.5,17.5,198.6"/>
			<path id="Path_21030" class="st4" d="M161.4,144.6c1.1,0.5,1.3,1.5,1.2,2.6c-1-0.2-2.1-0.3-2.4-1.5
				C160.1,144.9,160.8,144.7,161.4,144.6"/>
			<path id="Path_21031" class="st5" d="M67.4,20.6c-0.6,1.5-1.9,1.9-3.2,2.5C64.1,20.7,65.6,20.5,67.4,20.6"/>
			<path id="Path_21032" class="st5" d="M33,61.1c-0.1,1.4-1.1,2.2-1.8,3.2C30,62.1,31,61.3,33,61.1"/>
			<path id="Path_21033" class="st5" d="M38.7,30.2h1.2c0.1,1.4,0.2,2.8,0.3,4.5C39.1,33.5,38.5,31.9,38.7,30.2"/>
			<path id="Path_21034" class="st4" d="M162.6,201.1c0,0.5-0.1,1.1-0.7,1.2s-1-0.3-1-0.9c-0.1-0.7,0.1-1.3,0.9-1.4
				C162.3,200,162.6,200.4,162.6,201.1"/>
			<path id="Path_21035" class="st5" d="M34.3,35.4c-0.1-1.1,0.1-2.1,1.2-2.6C37,34.6,36.9,35.6,34.3,35.4"/>
			<path id="Path_21036" class="st4" d="M90.4,2.6h3.1c-0.4,2.1-2,1-3.1,1.3C90.4,3.4,90.4,3,90.4,2.6L90.4,2.6z"/>
			<path id="Path_21037" class="st5" d="M50.5,266.7c0,0.4,0,0.8,0,1.3l-2.5-0.6C48.5,265.5,49.4,265.8,50.5,266.7"/>
			<path id="Path_21038" class="st4" d="M82.3,244.8l2.4-0.7c0,0.8,0.2,1.8-1,2C82.8,246.2,82.4,245.8,82.3,244.8"/>
			<path id="Path_21039" class="st1" d="M139,37.9c0.9,0.1,1.7,0.3,1.6,1.4c-0.1,0.9-0.9,1.1-1.6,1.1C139,39.7,139,38.8,139,37.9"/>
			<path id="Path_21040" class="st5" d="M41.2,25.1c0.6,0.1,1.2-0.8,1.8-0.1c-0.1,1.7-1.1,2-2.5,1.9L41.2,25.1"/>
			<path id="Path_21041" class="st3" d="M44.9,266.7c-0.7,0-1.4,0.1-1.9-0.6c0.1-0.7,0.3-1.3,1.1-1.1
				C45.1,265.1,44.8,266,44.9,266.7"/>
			<path id="Path_21042" class="st4" d="M165.8,163.9c0.7,0.5,0.6,1.2,0.6,1.9c-0.7-0.1-1.5,0.2-1.7-0.8
				C164.5,164.2,165.1,164,165.8,163.9"/>
			<path id="Path_21043" class="st5" d="M106,3.9h2.5c0.1,0.6-0.4,1.2-1.1,1.3c-0.1,0-0.2,0-0.3,0C106.3,5.1,106,4.6,106,3.9"/>
			<path id="Path_21044" class="st5" d="M38.1,50.8c0,0.8-0.4,1.6-1.2,2C35.4,50.9,36.8,50.8,38.1,50.8"/>
			<path id="Path_21045" class="st5" d="M38,194.7c0-1,0.5-1.9,1.3-2.6C40.2,193.7,39.4,194.4,38,194.7"/>
			<path id="Path_21046" class="st5" d="M26.7,68.5c0.6,0,0.6,0.4,0.7,0.8c0.1,0.4,0,0.9-0.5,1c-0.6,0.1-0.6-0.4-0.7-0.8
				C26.2,69.1,26.4,68.7,26.7,68.5"/>
			<path id="Path_21047" class="st3" d="M15.3,236.6c0.1,0.7-0.1,1-0.6,1c-0.4,0-0.8-0.2-0.8-0.7c0-0.4,0-0.9,0.6-0.8
				C14.8,236.2,15.1,236.5,15.3,236.6"/>
			<path id="Path_21048" class="st1" d="M162.7,208.9l0.6-1.9l0.6,0C165,208.6,163.6,208.6,162.7,208.9"/>
			<path id="Path_21049" class="st5" d="M49.9,34.1c0,0.8-0.5,1.6-1.3,1.9C49,35.3,47.8,33.5,49.9,34.1"/>
			<path id="Path_21050" class="st4" d="M151,227c0.2,0.3,0.3,0.6,0.3,0.9c0,0.5-0.3,0.7-0.7,0.5c-0.2-0.2-0.3-0.5-0.2-0.8
				C150.4,227.4,150.7,227.3,151,227"/>
			<path id="Path_21051" class="st3" d="M90.4,2.6c0,0.4,0,0.9,0,1.3c-0.6-0.1-1.4,0.2-1.5-0.5C88.8,2.3,89.8,2.7,90.4,2.6"/>
			<path id="Path_21052" class="st4" d="M83.5,240.4l-1.2-0.1c0.1-0.6-0.2-1.5,0.7-1.5C83.8,238.8,83.4,239.8,83.5,240.4"/>
			<path id="Path_21053" class="st5" d="M62.4,23.8c-0.1,1.2-1,1.3-1.9,1.3C60.5,23.8,61.5,23.8,62.4,23.8"/>
			<path id="Path_21054" class="st5" d="M5.7,130.3c-0.2-0.3-0.5-0.5-0.5-0.7c0-0.2,0.1-0.7,0.3-0.8c0.5-0.2,0.7,0.2,0.7,0.6
				C6.2,129.7,5.9,130,5.7,130.3"/>
			<path id="Path_21055" class="st4" d="M160.2,141.4c0.7,0,1.2,0.5,1.2,1.1c0,0.1,0,0.1,0,0.2c0,0.2,0,0.4,0,0.6
				C160.1,143.3,160.1,142.3,160.2,141.4"/>
			<path id="Path_21056" class="st1" d="M139.6,81.6H139c0-0.4,0-0.9,0-1.3c0.5,0.1,1.3-0.2,1.5,0.5C140.7,81.6,140,81.5,139.6,81.6
				"/>
			<path id="Path_21057" class="st4" d="M119,4.5v-2c0.6-0.1,1.1-0.1,1.3,0.6c0,0.5,0,0.9,0,1.4L119,4.5"/>
			<path id="Path_21058" class="st4" d="M81,160h-1.9c0.1-0.7,0.3-1.3,1.1-1.2C80.9,158.9,80.9,159.5,81,160"/>
			<path id="Path_21059" class="st5" d="M10.6,106.7c-1.1,0-0.9-0.6-0.6-1.3C10.8,105.5,11.6,105.7,10.6,106.7"/>
			<path id="Path_21060" class="st4" d="M97.2,267.3c-0.3,0.8-1,1.3-1.9,1.3C95.4,267.3,96.3,267.3,97.2,267.3"/>
			<path id="Path_21061" class="st4" d="M77.3,115.1l-1.3,1.3C76.3,115.8,75.4,113.9,77.3,115.1"/>
			<path id="Path_21062" class="st5" d="M36.2,197.9c-0.1-0.8,0.4-1.6,1.2-1.9C37.4,197,37.4,197.9,36.2,197.9"/>
			<path id="Path_21063" class="st4" d="M155.2,225.6c0.1,0.5-0.2,1-0.6,1.3C153.6,225.8,154.4,225.7,155.2,225.6"/>
			<path id="Path_21064" class="st4" d="M138.3,34.7c0,0.4,0,0.9,0,1.3c-0.8-0.1-1.6-0.3-0.6-1.3C137.9,34.7,138.1,34.7,138.3,34.7"
				/>
			<path id="Path_21065" class="st5" d="M1.9,194.7c0.6-0.1,1.2,0.4,1.2,1.1c0,0.1,0,0.2,0,0.2c-0.6,0.1-1.2-0.4-1.2-1
				C1.9,194.9,1.9,194.8,1.9,194.7"/>
			<path id="Path_21066" class="st1" d="M138.3,34.7c-0.2,0-0.4,0-0.6,0c0-0.4,0-0.9,0-1.3C138.5,33.6,139.3,33.7,138.3,34.7"/>
			<path id="Path_21067" class="st4" d="M109.1,209.4c-0.5,0.1-1-0.1-1.3-0.5C108.7,207.9,108.9,208.6,109.1,209.4"/>
			<path id="Path_21068" class="st4" d="M46.5,211.3c-0.1,0.2-0.1,0.5-0.2,0.5s-0.3-0.1-0.5-0.2c0.1-0.2,0.1-0.5,0.2-0.5
				S46.4,211.2,46.5,211.3"/>
			<path id="Path_21069" class="st4" d="M23.1,239.7l0.7,0.6c-0.2,0.4-0.5,0.7-0.9,0.3C22.5,240.3,22.7,240,23.1,239.7"/>
			<path id="Path_21070" class="st4" d="M145.2,102.2c0.6-0.1,1.2,0.4,1.2,1c0,0.1,0,0.2,0,0.3c-0.6,0.1-1.2-0.4-1.2-1
				C145.2,102.4,145.2,102.3,145.2,102.2"/>
			<path id="Path_21071" class="st4" d="M46.4,220c0.1-0.2,0.1-0.5,0.2-0.5s0.3,0.1,0.5,0.2c-0.1,0.2-0.1,0.5-0.2,0.5
				S46.6,220,46.4,220"/>
			<path id="Path_21072" class="st4" d="M95.4,28.3h1.9C96.6,29.1,96,29.1,95.4,28.3"/>
			<path id="Path_21073" class="st4" d="M52.9,220.4c0.4-0.2,0.8-0.5,1.2-0.7C54.5,221.2,53.3,220.1,52.9,220.4"/>
			<path id="Path_21074" class="st5" d="M25.2,58.3c0.1,0,0.2,0.1,0.2,0.1c0,0.1,0,0.2-0.1,0.3c-0.1,0-0.2-0.1-0.2-0.1
				C25.1,58.5,25.2,58.4,25.2,58.3"/>
			<path id="Path_21075" class="st11" d="M90.4,162.6c0.5,0,1,0.1,1.2,0.6L90.4,162.6"/>
			<path id="Path_21076" class="st5" d="M37.5,195.4l0.6-0.6L37.5,195.4"/>
			<path id="Path_21077" class="st4" d="M4.4,217.4l-0.5-0.8L4.4,217.4"/>
			<path id="Path_21078" class="st5" d="M45.5,39.9l-0.6,0.6L45.5,39.9"/>
			<path id="Path_21079" class="st10" d="M121.5,274.4l2.5-0.1l3.7,0.8c0.7,2.1,2.2,3.7,1.9,6.2c-0.6,5.2-5.2,7.6-9.5,4.8
				c-0.8-0.5-1.6-1-2.4-1.5c-0.1-0.9,0.3-1.9-0.7-2.5c0-1.5,0.2-3.1,0.6-4.5C118.7,276.2,120,275.1,121.5,274.4"/>
			<path id="Path_21080" class="st1" d="M167,97c1.6,1.4,1,4.2,3,5.3c0.1,3.6,2.4,6.5,3.7,9.6c1,2.3,1.9,4.6,2.6,7
				c-2.4,0.6-4.9-0.9-5.5-3.4c-0.1-0.5-0.2-1-0.1-1.5c0.2-3.1,0.4-5.7-2.6-7.9c-2.6-1.9-2.7-5.3-2.5-8.4
				C166.3,97.8,166.8,97.5,167,97"/>
			<path id="Path_21081" class="st2" d="M121.5,274.4c-1.5,0.7-2.9,1.8-3.8,3.2c-0.7,0-1.4,0.1-1.8-0.6c-0.1-0.6,0.2-1.5-0.5-1.6
				c-1.1-0.1-0.6,1-0.8,1.6c0.1,1.5,1.7,3.4-1.2,3.9c-0.4-5.3-2.9-6.3-7.5-3.2c-1.3-1.6-0.5-2.8,1-2.9c1.8-0.1,3.5-1,4.5-2.5
				c0.1-0.2,0.3-0.3,0.5-0.4C113.9,270.8,120,272.5,121.5,274.4"/>
			<path id="Path_21082" class="st10" d="M187.6,179.3c1.4,5.1,0,6.5-6.2,6.3c-0.1-1.7-1.9-3.1-1-5.1c0.7-1.5,1.6-2.7,3.4-2.6l1.9,0
				L187.6,179.3"/>
			<path id="Path_21083" class="st10" d="M106,277.6c4.6-3.1,7.1-2.1,7.5,3.2c-0.2,0.8-0.5,1.7-0.7,2.5l-4.3,0.7
				C105.9,282.6,105.7,280.2,106,277.6"/>
			<path id="Path_21084" class="st1" d="M130.2,265.4c0-1.1-0.7-1.7-1.6-2.2c-0.6-0.3-1-0.9-0.5-1.6c0.3-0.6,1.1-0.9,1.8-0.6
				c0,0,0.1,0,0.1,0.1c0.8,0.4,1.2,1.7,2.3,1.4c2.2-0.5,3.9-0.9,2,2.3c-0.5,0.8,0.4,1.1,0.8,1.5c1.4,1.2,1.5,3.2,0.4,4.6
				c0,0,0,0,0,0c-1.4,1.9-2.7,0.3-4-0.4C131.6,268.7,131.6,266.9,130.2,265.4"/>
			<path id="Path_21085" class="st10" d="M161.4,104.7c-1.3,1.1-2.7,1.8-4.5,0.9c-1.9-1.1-1.8-2.9-1.7-4.7l1.2-1.3
				c1.1-0.6,2.4-0.8,3.7-0.6C161.3,100.8,162.8,102.4,161.4,104.7"/>
			<path id="Path_21086" class="st1" d="M135.2,250.6c0.2-1.5,1.6-1.8,2.5-2.6c2.4,2.6,4.9,4.9,8.8,3.9c1-0.2,2.6-0.8,3,1.2
				c-4-0.4-7.9,0.9-11.8,1.3C136.7,253.3,137.1,251.2,135.2,250.6"/>
			<path id="Path_21087" class="st10" d="M130.2,265.4c1.4,1.5,1.3,3.3,1.2,5.1c-1.6,1.3-3.2,2-5.1,0.7c-1.4-0.9-1.4-2.4-1-3.7
				C126.1,264.8,128.3,265.5,130.2,265.4"/>
			<path id="Path_21088" class="st11" d="M137.8,254.5c3.9-0.4,7.8-1.7,11.8-1.3c2.2,1.2,4.7,0.3,6.9,1.3c1.3,0.6,1.3,0.9,0,1.3
				c-1.3-0.2-2.4-0.9-3.8-0.6h-10.5c-0.9-0.1-1.8,0.2-2.5,0.8C138,256.9,137.7,255.9,137.8,254.5"/>
			<path id="Path_21089" class="st6" d="M158.3,271.8c-2.2,2.9-4.9,5.3-8.1,7.1c0-2,2.2-3.6,0.3-6.1c-0.8-1,1.3-1.2,2.1-0.9
				C154.6,272.6,156.4,272.2,158.3,271.8"/>
			<path id="Path_21090" class="st11" d="M55.9,280.4c6.3-2.9,12.6-2.7,18.9,0.3c-3.2-0.4-6.4-0.8-9.5-1.1S59,280.2,55.9,280.4"/>
			<path id="Path_21091" class="st6" d="M185.1,141.3c2,3.8,3.2,8,3.7,12.3l-3.2,0l-0.6,0c1.1-1.6,1.1-3.6,0-5.1
				c0.7-0.5,0.6-1.2,0.6-1.9C185.2,144.9,184.9,143.1,185.1,141.3"/>
			<path id="Path_21092" class="st1" d="M112.7,283.4l0.7-2.5c2.9-0.4,1.4-2.4,1.2-3.9h1.3c0.4,0.8,1.2,0.6,1.8,0.6
				c-0.5,1.5-0.7,3-0.6,4.5c-1.7,0.7-0.9,2.7-1.9,3.8l-1.9-0.6C113.4,284.6,113.5,283.8,112.7,283.4"/>
			<path id="Path_21093" class="st10" d="M158.9,91.9l1.9,0c1.1,0.4,1.8,1.4,1.9,2.6c-0.1,1-0.5,1.9-1.3,2.6l-1.2,0
				c-3.2,0.3-2.4-2.1-2.5-3.9L158.9,91.9"/>
			<path id="Path_21094" class="st10" d="M177,171l3.7-0.1c0.6,1.2,0.8,2.5,0.6,3.8c-2,1.1-3.8,1-5-1.3L177,171"/>
			<path id="Path_21095" class="st1" d="M162.7,94.5c-0.1-1.1-0.8-2.1-1.9-2.6c0.3-1.7,3.2-1.6,2.5-3.9l1.8,2.7l1.4,5.1
				C165.1,95.5,164.2,94,162.7,94.5"/>
			<path id="Path_21096" class="st1" d="M140.8,245.5c0.4-1.9,1.9-3.4,3.7-3.8c2.1,1.3,1.5,3,0.2,4.2
				C143.5,247,141.9,247.5,140.8,245.5"/>
			<path id="Path_21097" class="st1" d="M161.5,82.9c1.1,1.5,1.7,3.3,1.8,5.1c-2.8,2.2-3.3-1.1-4-2.2
				C158.1,83.9,160.4,83.6,161.5,82.9"/>
			<path id="Path_21098" class="st1" d="M120.3,259.6l2.5-1.3c0.1,1.4,1.2,1.1,2,1.5c0.7,0.2,1.2,1,1,1.7c0,0,0,0,0,0
				c-0.2,1-1,1.5-1.9,1.1C122.5,262,120.1,262.3,120.3,259.6"/>
			<path id="Path_21099" class="st1" d="M111.6,286c-0.4,2.3-2.1,2.7-3.9,2.4c-1.1,0-2-0.8-2.2-1.8c-0.2-1.3,1-1.3,1.7-1.8
				C108.6,285.4,109.9,286.2,111.6,286"/>
			<path id="Path_21100" class="st1" d="M162,212.1c0-0.7-0.1-1.5,0.6-1.9c1.3-0.2,2.6,0.5,2.9,1.8c0.5,1.2,0,2.5-1.2,3
				c-0.1,0-0.2,0.1-0.2,0.1c-1.7,0.6-1.3-1-1.5-1.9C162.4,212.7,162.2,212.4,162,212.1"/>
			<path id="Path_21101" class="st1" d="M160.2,97.1l1.2,0c0.1,1.8,2,2.7,2.1,4.7c0.1,1.7-0.9,2.6-1.4,3.8c-0.2,0.4-0.6-0.4-0.8-0.9
				c1.4-2.3-0.1-4-1.3-5.7C160.1,98.4,160.1,97.7,160.2,97.1"/>
			<path id="Path_21102" class="st1" d="M147.1,238.4c0.4-0.8,1-1.5,1.9-1.9c0.9,0.6,2.3,0.8,1.6,2.5c-0.3,0.8-0.2,2-1.6,2
				C147.3,240.9,147.8,239.2,147.1,238.4"/>
			<path id="Path_21103" class="st6" d="M164.6,264.8c-1.3,1.9-2.5,3.9-4.4,5.1c-0.6-1.9,0.7-3.4,1.4-4.9
				C162.3,263.3,163.5,264.4,164.6,264.8"/>
			<path id="Path_21104" class="st10" d="M42.6,277.6c-1.2-0.1-1.9-0.6-2-1.7c-0.1-0.9,0.5-1.7,1.4-1.9c0.1,0,0.2,0,0.2,0
				c1-0.1,1.9,0.7,2,1.7c0,0.1,0,0.1,0,0.2C44.3,277.1,43.4,277.5,42.6,277.6"/>
			<path id="Path_21105" class="st2" d="M111.6,286c-1.6,0.2-3-0.5-4.4-1.3c0.3-0.4,0.8-0.7,1.3-0.7l4.3-0.7c0.8,0.5,0.7,1.2,0.7,2
				C112.7,285.4,112,285.2,111.6,286"/>
			<path id="Path_21106" class="st2" d="M115.3,286c0.9-1.1,0.1-3.1,1.9-3.8c0.9,0.6,0.5,1.7,0.7,2.5c-0.1,1.1,0.4,2.6-1.1,3
				C115.6,287.9,115.4,286.9,115.3,286"/>
			<path id="Path_21107" class="st1" d="M145.2,21.1c1.6,1.4,2.7,3.2,3.1,5.2C143.6,27,145.6,23.3,145.2,21.1"/>
			<path id="Path_21108" class="st1" d="M156.2,114c-0.4,1.1-0.8,2.5-2,2.6c-1.3,0.2-0.8-1.2-0.9-1.9c-0.2-1.5,1.2-1.4,1.9-1.9
				C155.7,112.4,156.2,113.3,156.2,114"/>
			<path id="Path_21109" class="st2" d="M144.6,283.4c-0.5,1-1.4,1.7-2.5,1.8c-0.2-0.8-2.4-0.3-1.4-1.8
				C141.8,281.8,143.3,282.2,144.6,283.4"/>
			<path id="Path_21110" class="st1" d="M189.4,155.5c1.1,0.8,0.5,2.1,0.7,3.1c0,0.2,0,0.5,0,0.7l-2.5-0.6c0-0.9,0-1.7,0-2.6
				l1.2-0.6L189.4,155.5"/>
			<path id="Path_21111" class="st2" d="M181.3,174.8c0.2-1.3,0-2.7-0.6-3.8c0.8,0.3,2.2-1.5,2.4,0.5
				C183.3,172.8,184,174.9,181.3,174.8"/>
			<path id="Path_21112" class="st1" d="M177,171l-0.7,2.5c-0.8-0.3-2.3,0.6-2.1-0.9C174.4,171.7,175.2,169.9,177,171"/>
			<path id="Path_21113" class="st3" d="M142.1,255.2h10.5c0,0.2,0,0.4,0,0.6C149.2,255.5,145.6,256.5,142.1,255.2"/>
			<path id="Path_21114" class="st1" d="M155.9,53.3c0.7,1.4,1,3,1,4.5C153.9,56.9,155.1,55.1,155.9,53.3"/>
			<path id="Path_21115" class="st1" d="M145.5,89.9c-0.4,0.7-0.1,1.9-1.3,1.8c-0.8-0.1-0.8-0.8-0.8-1.5c0-0.8,0.2-1.5,1.2-1.5
				C145.3,88.7,145.7,89,145.5,89.9"/>
			<path id="Path_21116" class="st6" d="M180.7,241c-0.1,1.7-1.7,2.5-2.4,3.9c-1-0.6-0.6-1.7-0.7-2.6l0,0L180.7,241"/>
			<path id="Path_21117" class="st2" d="M127.7,275.1l-3.7-0.8C125.9,272.4,127,272.6,127.7,275.1"/>
			<path id="Path_21118" class="st2" d="M148.9,280.8l-1.8,0.7l0.9-3.5c1.3-0.1,0.9,1.4,1.7,1.6L148.9,280.8"/>
			<path id="Path_21119" class="st1" d="M156.4,126c-1.7-0.4-1.4-2-1.9-3.2C157.1,122.6,156.2,124.6,156.4,126"/>
			<path id="Path_21120" class="st6" d="M187.6,156.2c0,0.9,0,1.7,0,2.6c-1.1-0.1-1.8-1-1.8-2.1c0-0.1,0-0.2,0.1-0.4
				C186.1,155.1,187,156,187.6,156.2"/>
			<path id="Path_21121" class="st2" d="M164.5,153.6c-0.8-1.4-1.2-2.9-1.2-4.5c0.6-0.1,1.2,0.4,1.2,1c0,0.1,0,0.2,0,0.2
				c0,0.4,0,0.9,0,1.3C164.5,152.3,164.5,153,164.5,153.6"/>
			<path id="Path_21122" class="st1" d="M147.4,29.5c-0.1,0.7-0.6,0.7-1.1,0.7c-0.4,0-0.9-0.1-0.8-0.7c0-0.5,0.4-1,0.9-1
				c0,0,0,0,0.1,0C147,28.5,147.3,28.9,147.4,29.5"/>
			<path id="Path_21123" class="st2" d="M152.7,255.8c0-0.2,0-0.4,0-0.6c1.3-0.3,2.5,0.4,3.8,0.6
				C155.4,256.7,153.7,256.7,152.7,255.8"/>
			<path id="Path_21124" class="st1" d="M160.5,124.8c-0.1,0.5-0.5,1-1,1c-0.6,0.1-1.1-0.1-1-0.8c0.1-0.5,0.6-0.9,1.1-0.9
				C160.1,124.1,160.5,124.2,160.5,124.8"/>
			<path id="Path_21125" class="st1" d="M158.9,91.9l-1.2,1.3c-0.6-0.1-1.4-0.2-0.9-1.1C157.3,91.2,158.1,90.9,158.9,91.9"/>
			<path id="Path_21126" class="st1" d="M133.2,254.7c0,0.5-0.1,0.8-0.6,0.9c-0.4,0.1-0.8-0.1-1-0.5c0-0.1-0.1-0.2,0-0.3
				c0-0.4,0.3-0.8,0.7-0.9C132.8,253.9,133.2,254.2,133.2,254.7L133.2,254.7"/>
			<path id="Path_21127" class="st1" d="M156.4,99.6l-1.2,1.3c-0.3-0.8-0.9-1.6,0.1-2.2C156.2,98.2,156.3,99,156.4,99.6"/>
			<path id="Path_21128" class="st6" d="M167.8,261.1c-0.2,0.9-0.8,1.6-1.6,2c-0.4-0.2-1.1-0.5-0.7-1.1
				C166,261.2,166.9,260.8,167.8,261.1"/>
			<path id="Path_21129" class="st6" d="M190.7,160.7c1.1,0.9,0.5,2.1,0.6,3.2C189,163.2,191.4,161.6,190.7,160.7"/>
			<path id="Path_21130" class="st6" d="M169.4,259c0.1,1-0.6,2-1.6,2.1C167.5,259.7,168.2,259.1,169.4,259"/>
			<path id="Path_21131" class="st1" d="M166.4,105.6c0.1,0.2,0.3,0.5,0.3,0.8c0.1,0.5-0.1,0.9-0.6,0.7c-0.3-0.2-0.6-0.5-0.7-0.8
				C165.2,105.9,165.5,105.7,166.4,105.6"/>
			<path id="Path_21132" class="st1" d="M185.7,146.5c0,0.7,0.1,1.5-0.6,1.9C184,147.4,184.4,146.8,185.7,146.5"/>
			<path id="Path_21133" class="st1" d="M97.1,270.5c-0.3,0.3-0.5,0.5-0.7,0.6c-0.2,0-0.7-0.1-0.7-0.3c-0.2-0.5,0.2-0.7,0.6-0.7
				C96.5,270,96.8,270.3,97.1,270.5"/>
			<path id="Path_21134" class="st1" d="M185.7,178l-1.9,0c0.1-0.5,0.2-1,0.8-1.1C185.4,176.8,185.6,177.3,185.7,178"/>
			<path id="Path_21135" class="st1" d="M150.6,36.8c-0.2,0.1-0.4,0.2-0.5,0.2s-0.1-0.3-0.2-0.5c0.2-0.1,0.4-0.2,0.5-0.2
				S150.5,36.6,150.6,36.8"/>
			<path id="Path_21136" class="st1" d="M139,48.9c0-0.4,0-0.9,0-1.3c0.5,0.1,1.1,0.1,0.9,0.8C139.9,48.6,139.3,48.7,139,48.9"/>
			<path id="Path_21137" class="st6" d="M191.3,163.9c1,0.7,0.6,1.7,0.5,2.6C191,165.7,191.4,164.7,191.3,163.9"/>
			<path id="Path_21138" class="st1" d="M164.5,151.7c0-0.4,0-0.9,0-1.3c0.5,0.1,1.1,0.1,0.9,0.8
				C165.4,151.4,164.8,151.5,164.5,151.7"/>
			<path id="Path_21139" class="st6" d="M177.6,242.3c-0.4-0.1-1-0.1-0.9-0.8c0-0.1,0.1-0.2,0.2-0.2
				C177.5,241.3,177.5,241.8,177.6,242.3L177.6,242.3"/>
			<path id="Path_21140" class="st1" d="M153.9,120.8c-0.4-0.3-0.7-0.8-0.6-1.3C154.1,119.7,154.9,119.8,153.9,120.8"/>
			<path id="Path_21141" class="st1" d="M163.1,96.7c0.2,0.1,0.4,0.1,0.5,0.2s-0.1,0.3-0.2,0.5c-0.2-0.1-0.4-0.1-0.5-0.2
				S163,96.8,163.1,96.7"/>
			<path id="Path_21142" class="st1" d="M113.3,266.3c0.2,0.1,0.4,0.1,0.5,0.2s-0.1,0.3-0.2,0.5c-0.2-0.1-0.4-0.1-0.5-0.2
				S113.2,266.5,113.3,266.3"/>
			<path id="Path_21143" class="st1" d="M152.3,113.3l0.2-0.6l0.6,0.4c-0.1,0.2,0.5,0.6-0.2,0.5
				C152.8,113.6,152.5,113.5,152.3,113.3"/>
			<path id="Path_21144" class="st6" d="M157.8,269.7c-0.2-0.1-0.4-0.1-0.5-0.2s0.1-0.3,0.2-0.5c0.2,0.1,0.4,0.1,0.5,0.2
				S157.9,269.5,157.8,269.7"/>
			<path id="Path_21145" class="st1" d="M155.7,49.5c0,0.6,0,1.2,0,1.9c-0.5-0.4-0.6-1.1-0.3-1.6C155.5,49.7,155.6,49.6,155.7,49.5"
				/>
			<path id="Path_21146" class="st2" d="M146.5,282.1c-0.3,0.5-0.6,1.1-1.3,1.1c0-0.6,0.4-1.1,1-1.2
				C146.3,282.1,146.4,282.1,146.5,282.1"/>
			<path id="Path_21147" class="st6" d="M189.4,155.5h-0.6c0-0.7,0-1.3,0-2C189.7,154,189.3,154.9,189.4,155.5"/>
			<path id="Path_21148" class="st2" d="M190.6,214.7c0.2,0.8,0.3,1.5-0.5,2C190.1,216,189.9,215.2,190.6,214.7"/>
			<path id="Path_21149" class="st2" d="M191.2,212.7c0.2,0.5,0.1,1-0.4,1.3c0,0-0.1,0-0.1,0.1C190.6,213.6,190.8,213.1,191.2,212.7
				"/>
			<path id="Path_21150" class="st1" d="M185.1,153.6h0.6l-0.3,0.8L185.1,153.6"/>
			<path id="Path_21151" class="st6" d="M165.8,263.5c-0.1,0.5,0.1,1.1-0.7,1.2C165.1,264.2,165.4,263.7,165.8,263.5"/>
			<path id="Path_21152" class="st6" d="M190,159.4l0-0.7c0.6,0.3,0.6,0.8,0.5,1.4L190,159.4"/>
			<path id="Path_21153" class="st1" d="M190.1,170.3c0.4,0.3,0.7,0.8,0.6,1.3C190.2,171.3,190,170.8,190.1,170.3"/>
			<path id="Path_21154" class="st6" d="M170.8,257.1l-0.7,0.7L170.8,257.1"/>
			<path id="Path_21155" class="st1" d="M160.2,79.5c0.3,0.2,0.6,0.4,0.5,0.8L160.2,79.5"/>
			<path id="Path_21156" class="st1" d="M166.4,95.7l0.5,0.7L166.4,95.7"/>
			<path id="Path_21157" class="st1" d="M165.8,97.7l-0.3-0.1l0.1-0.1L165.8,97.7z"/>
			<path id="Path_21158" class="st1" d="M182,136.8c-0.2-0.3-0.5-0.5-0.5-0.7c0-0.2,0.1-0.7,0.3-0.8c0.5-0.2,0.7,0.2,0.7,0.6
				C182.5,136.2,182.2,136.4,182,136.8"/>
			<path id="Path_21159" class="st5" d="M82.3,30.2C82.2,32,81,32.9,79,32.8c-2.4-0.1-2.9-1.8-2.9-3.7c0-2.2,1.5-2.9,3.4-2.7
				C81.6,26.5,82.3,27.9,82.3,30.2"/>
			<path id="Path_21160" class="st0" d="M18.7,153.7c-2-0.8-2.6-2.5-2.5-4.5l0.6-0.7c1.4-0.9,2.9-0.6,4.4-0.7l0.6,0.7
				c0.8,1.2,1.5,2.3,1.2,3.8C21.7,153,20.4,154,18.7,153.7"/>
			<path id="Path_21161" class="st9" d="M30.5,188.2c-1.4-1.5-3.5-1.2-5-2.4c2.7-1.9,5.7-1.3,8.6-1.4c0.5,0,1.1,0.1,1.2,0.7
				c0.5,2.4-2.4,2.1-3,3.9C32,190.1,30.7,189.5,30.5,188.2"/>
			<path id="Path_21162" class="st9" d="M21.2,147.8c-1.5,0.1-3-0.3-4.4,0.7c0.1-1.3-0.4-2-1.8-2c-1.1,0-1.4-0.7-1.3-1.7
				c0-0.5,0-1.1,0.7-1.3c0.9-0.3,1.4,0.3,1.7,1c0.7,1.3,2.1,2.1,3.6,2C20.6,146.6,21.2,146.9,21.2,147.8"/>
			<path id="Path_21163" class="st5" d="M51.2,82.2c-0.9-0.3-2-0.6-1.9-2c0-1.2,0.9-2.2,2.1-2.2c0,0,0,0,0,0c1-0.1,1.8,0.7,1.9,1.7
				c0,0.1,0,0.2,0,0.3C53.2,81,52.7,82.2,51.2,82.2"/>
			<path id="Path_21164" class="st9" d="M23,152.3c0.3-1.5-0.4-2.7-1.2-3.8c3.4,0.1,4.4,1.1,3.5,3.6C24.7,154,23.9,153.2,23,152.3"
				/>
			<path id="Path_21165" class="st9" d="M13.8,184.4c-1.1-0.9-0.5-2.1-0.6-3.2C15.3,181.9,16,182.9,13.8,184.4"/>
			<path id="Path_21166" class="st9" d="M22.2,144.4c-0.1,0.2-0.1,0.5-0.2,0.5s-0.3-0.1-0.5-0.2c0.1-0.2,0.1-0.5,0.2-0.5
				S22.1,144.4,22.2,144.4"/>
			<path id="Path_21167" class="st0" d="M15,120.2c-1-1-0.2-1.2,0.6-1.3C15.7,119.4,15.4,119.9,15,120.2"/>
			<path id="Path_21168" class="st9" d="M13.8,185.7c-0.2,0-0.4,0-0.6,0l0.6-0.6C13.8,185.3,13.8,185.5,13.8,185.7"/>
			<path id="Path_21169" class="st12" d="M111.6,212.1c-2-0.6-4.1-0.8-6.2-0.6c-3.1,0-6.2,0-9.3,0c-0.7,0-2.1,0.4-1.3-1.3
				c1.8,0.7,3.6,0,5.4-0.1c4-0.2,8,0.5,12,0.7l0,0c0,0.2,0,0.4,0,0.6L111.6,212.1"/>
			<path id="Path_21170" class="st8" d="M100.3,27.1c0-0.2,0-0.4,0.1-0.6h11.1l-1.2,0.6L100.3,27.1"/>
			<path id="Path_21171" class="st3" d="M110.3,27.1l1.2-0.6c1.3,0.2,2.8,0.3,3.9,1.1C113.8,26.9,111.8,29.1,110.3,27.1"/>
			<path id="Path_21172" class="st11" d="M112.2,211.4c0-0.2,0-0.4,0-0.6l0.8,0.3L112.2,211.4"/>
			<path id="Path_21173" class="st1" d="M115.9,277h-1.2c0.1-0.6-0.3-1.7,0.8-1.6C116.1,275.5,115.9,276.4,115.9,277"/>
		</g>
	</g>
</g>
</svg>
