<?xml version="1.0" encoding="utf-8"?>
<!-- Generator: Adobe Illustrator 27.3.1, SVG Export Plug-In . SVG Version: 6.00 Build 0)  -->
<svg version="1.1" id="Group_583" xmlns="http://www.w3.org/2000/svg" xmlns:xlink="http://www.w3.org/1999/xlink" x="0px" y="0px"
	 viewBox="0 0 307.1 273.3" style="enable-background:new 0 0 307.1 273.3;" xml:space="preserve">
<style type="text/css">
	.st0{fill:#FFBB14;}
	.st1{fill:#FFDE31;}
	.st2{fill:#966929;}
	.st3{fill:#FEFDFB;}
	.st4{fill:#FDEF6A;}
	.st5{fill:#FFFFFF;}
</style>
<g>
	<g id="Group_523">
		<path id="Path_12495" class="st0" d="M154.3,269.4l0.5-0.1c0.2-0.5,0.7-0.5,1.1-0.5c4.3-0.6,8.5-1.7,12.5-3.2
			c0.8-0.8,1.8-0.6,2.7-0.7c0.1-0.3,0.2-0.5,0.6-0.4l1.1-0.1c3-1.9,6.7-2.2,9.8-3.8h0l7.8-3.5l0.9-0.3l8.8-4.2l1-0.1
			c2.3-1.9,4.9-3.4,7.7-4.4c0.2-0.6,0.7-0.4,1.1-0.5c1.7-2.1,4.6-2.2,6.5-3.9l0,0l14.3-8.7l0,0c4.1-3.3,8.8-5.8,13.1-8.8l0,0
			c1.5-2.1,4-2.7,5.8-4.2c3.8-3.1,7.7-6,11.6-9l0.1,0.2l-0.2-0.1c2.5-3.1,5.3-6,8.3-8.7l0,0l8.8-12l0.2-0.6
			c-0.1-0.3,0.1-0.5,0.4-0.6l0,0l8.8-14.2l0,0c1.6-2.5,2.4-5.4,4.3-7.7l0,0c1.1-3,2-6.1,3.9-8.7l0,0c1.6-3.8,2.4-7.9,4.4-11.5
			c0.1-0.4,0.1-0.7,0.2-1.1c-0.1-0.3,0.1-0.5,0.4-0.6l0,0c1.5-4.8,2.5-9.8,4.3-14.5l0.2-3c0.5-4.8,1.5-9.5,1.6-14.4
			c0.1-6.9-0.5-13.8-1.6-20.6l-0.7-3.3c-0.9-0.6-0.4-1.4-0.4-2.2l-0.7-1.6c-0.8-2-2.2-3.8-2.6-6c-0.1-0.3-0.1-0.7-0.1-1
			c-2.1-2.1-2.7-5.1-4.7-7.2l-0.7-1.1l-2.9-3.7l-0.4-0.5c-1.4-1.1-2.7-2.4-3.8-3.9l-0.5-0.5c-2.1-0.5-2.4-2.7-3.9-3.8
			c-0.2,0-0.3-0.1-0.5-0.1c-2-0.7-3.6-2.3-4.4-4.2l0,0c-0.3-0.1-0.5-0.2-0.4-0.6c0-0.4-0.1-0.7-0.1-1.1c-0.3-0.1-0.5-0.2-0.4-0.6
			c0-0.2,0-0.4,0-0.6c-1.8-2.7-1.9-5.9-3-8.8l-0.9-2.6c-2.1-4.9-2.8-10.2-3.7-15.4l-0.1-1c-0.7-0.6-0.4-1.5-0.4-2.3
			c0-0.6,0-1.1,0-1.7c-0.1-0.2-0.1-0.4,0-0.5c0-1.5,0-2.9,0-4.4c0.1-1.7,0.9-3.3,2.2-4.4c1.3-1,1.5-2.8,0.6-4
			c-0.1-0.1-0.1-0.2-0.2-0.2c-4,1-8.1,1.5-12.2,1.6c-3.3,0.1-3.8,0.8-3,3.9c2.5,3.5,4.5,7.4,5.9,11.5c3.2,10.2,4.8,20.7,6.2,31.3
			c0.3,2.4-0.1,4.5-2.1,6.1c-0.7,0.7-1.3,1.5-1.7,2.5c-1.3,2.8-2.3,5.8-2.8,8.8c0,3.9-0.3,7.8-0.4,11.7c-0.2,14.1-0.7,28.2-2.8,42.3
			c-1.4,10.5-4.4,20.8-8.8,30.4c-3.7,8.1-8.7,15.5-14.8,22.1c-5.5,6.1-11.5,11.9-17.8,17.2c-6.6,5.3-13.8,9.7-20.9,14.2
			c-8.2,5.4-17.2,9.6-26.5,12.7c-16.8,5.3-33.7,9.7-51.3,11.4c-11.3,1.1-22.6,0.6-33.7-0.3c-10.2-0.9-20.5-1.6-30.7-3
			c-6.2-0.8-12.2-2.2-18.1-4.1c-3.7-1.2-7.1-3.1-10.7-4.6c-2.7-1.2-5.2-2.7-7.5-4.5c-2.7-1.6-5.7-1.1-8.7-1.1
			c-3.4,1.1-6.4,2.7-7,6.6c-0.1,1.4-0.2,2.9-0.2,4.3c0.3,0.5,0.7,0.9,0.5,1.6l0.7,2c3.5,4.5,7.8,8,12.1,11.6l0.4,0.5
			c2.4,1.4,4.6,3.2,6.9,4.8c4.9,3.5,10.1,6.6,15.6,9.2c5.7,2.9,11.8,4.7,17.6,7.4c0.2,0,0.3,0,0.4,0.1l12,3.3
			c1.2-0.3,2.2,0.4,3.3,0.6c0.5-0.1,0.9-0.1,1.2,0.4c0.2,0,0.3,0,0.4,0.1c0.8-0.1,1.6-0.1,2.4,0c9.1,2.2,18.4,2.5,27.7,3.3h13.1
			c3.4-0.2,6.9-0.5,10.3-0.7c2.6-0.2,5.2-0.7,7.7-0.9c4-0.3,8-1.4,12.1-1.2c1.3-1.1,2.9-0.5,4.3-0.7
			C152.3,269,153.3,269.3,154.3,269.4"/>
		<path id="Path_12496" class="st1" d="M262.6,72.9c0.5-3.1,1.5-6,2.8-8.8c0.4-0.9,0.9-1.8,1.7-2.5c2-1.6,2.4-3.7,2.1-6.1
			c-1.4-10.6-2.9-21.1-6.2-31.3c-1.3-4.1-3.3-8-5.9-11.5c-3.9,2.1-7.7,0.7-11.4-0.6c-1-0.3-1.7-1.1-1.9-2.1c-0.1,0-0.2,0-0.3,0h0
			c-0.7,1.4,0.3,2.5,0.4,3.8c0.1,0.1,0.2,0.2,0.2,0.4c3.9,4.1,7.3,8.4,8.9,14l0.3,1.5c2.2,4.5,3,9.4,3.7,14.3
			c0.2,0.5,0.4,1.1,0.6,1.6c0,0.4,0,0.7,0,1.1c0.1,0.7,0.1,1.4,0.2,2.2c0.8,0.6,0.4,1.5,0.3,2.2c0,1.5,0,2.9,0,4.4
			c0,0.8,0.4,1.6-0.3,2.2c-0.3,0.7,0.2,1.6-0.5,2.2c0.1,1.1-0.2,2.2-0.9,3c-2.9,3.1-5.6,6.5-7.9,10.1l0,0c-3.2,7.5-5.9,15.2-8.2,23
			l-0.2,0.5c0,0.3,0,0.7,0,1.1l-0.5,1.7c-1.1,3.5-2,7.2-3.7,10.5c-0.1,1-0.4,1.9-1,2.7c-0.7,2.6-1.8,5-3.4,7.1
			c0,0.2-0.1,0.4-0.1,0.6l-0.4,0.6c0,0.4,0,0.9-0.6,1c-1.2,1.9-2,4.1-3.8,5.6c-0.1,0.7-0.5,1.2-1.1,1.5c-2.1,3.1-3.6,6.8-7.1,8.7
			l-1,1.1c-0.6,1.7-2.1,2.7-3.4,3.8l-1.1,1.1l-3.8,3.3l-1.5,1.3c-10.4,9.5-21.8,17.7-33.5,25.5l-0.5,0.5c-5.4,3.3-11.1,6.1-17,8.2
			c-0.2,0.6-0.7,0.5-1.1,0.4c-3.8,1.8-8.1,2.4-12,3.9l-3.8,1.1l-13.1,3.3l-3.3,0.5l-0.3,0l-0.3,0l-1.1,0.1c-0.3,0.4-0.6,0.4-1.1,0.3
			l-1.1,0.2c-1.3,0.9-2.8,0.4-4.1,0.8c-5.1,1.4-10.3,2.2-15.6,2.4c-1.2,0.5-2.5,0.7-3.8,0.5l-0.3,0.1l-0.3,0
			c-1.4,1.1-2.9,0.6-4.4,0.6c-2.6,0.4-5.2,0.6-7.8,0.7c-9.8,1-19.7,0.8-29.4-0.5c-0.7,0.2-1.5,0.2-2.1-0.1c-0.5,0.3-1.2,0.3-1.7,0
			c-0.9,0.3-1.8,0.4-2.7,0.2c-5.8,0.4-11.5,1.6-17,3.4l-1.6,0.2c-3.2,1.3-6.5,2.4-9.7,3.8c-3.8,1.6-7.7,2.9-11.1,5.3
			c3.6,1.6,4.4,4.2,2.3,7.9c2.9,0,5.9-0.5,8.7,1.1c0.4-0.7,1.1-0.4,1.7-0.4c9.4,0.5,18.6,2.6,27.9,3.9c9,1.2,17.9,2.7,27,2.9
			c13,0.3,26,0.4,39-0.2c9.6-0.5,19.1-1.7,28.5-3.7c9.6-2.1,19.3-3.9,28.5-8c5.5-2.5,11.3-4.5,16.7-7.2c2.4-1.2,4.5-3.3,7-4.1
			c2.8-1.1,5.5-2.6,7.9-4.6c6-4.6,12-9.3,17.6-14.5c7.6-6.8,14.1-14.8,19.2-23.7c5.6-9.8,9-20.5,11.6-31.4
			c3.1-13.3,5.1-26.9,7.8-40.2C259.7,82.4,261,77.6,262.6,72.9"/>
		<path id="Path_12497" class="st2" d="M243.9,10.1c0.2,1,0.9,1.8,1.9,2.1c3.7,1.3,7.5,2.6,11.4,0.6c-0.8-3.1-0.3-3.7,3-3.9
			c4.1-0.1,8.2-0.6,12.2-1.6L270.8,4c-0.4-0.3-1-0.5-0.9-1.1c-0.6-0.9-1.5-1.5-2.5-1.8c-1.9-0.8-3.8-0.1-5.6-0.5
			c-4.7-0.9-9.3-1-13.3,2.3l-0.6,0.6l-3.8,5.5l0,0L243.9,10.1"/>
		<path id="Path_12498" class="st2" d="M9.9,217.4c2.1-3.7,1.4-6.2-2.3-7.9l-1.1,0c-2,0.3-2.7,2.2-3.9,3.4L0,220c0,1.5,0,3,0,4.5
			c1,1.2,1.4,2.9,2.7,3.9c0-1.5,0.1-2.9,0.2-4.4C3.6,220.1,6.5,218.5,9.9,217.4"/>
		<path id="Path_12499" class="st0" d="M154.3,269.4c-1-0.1-2-0.4-2.8,0.5C152.5,269.8,153.5,270.2,154.3,269.4"/>
		<path id="Path_12500" class="st3" d="M240.1,97.5c0-0.4,0-0.7,0-1.1C239.6,96.8,239.6,97.2,240.1,97.5"/>
		<path id="Path_12501" class="st3" d="M73.4,269.8c-0.3-0.5-0.7-0.5-1.2-0.4C72.6,269.8,73,269.9,73.4,269.8"/>
		<path id="Path_12502" class="st3" d="M120.4,192c0.4,0.1,0.8,0.1,1.1-0.3L120.4,192"/>
		<path id="Path_12503" class="st3" d="M122.6,191.5l0.3,0l0.3,0C122.9,191.3,122.8,191.3,122.6,191.5"/>
		<path id="Path_12504" class="st3" d="M278.6,54.9c-0.1,0.4,0.1,0.5,0.4,0.6L278.6,54.9"/>
		<path id="Path_12505" class="st3" d="M278.1,53.2c-0.1,0.4,0.2,0.5,0.4,0.6L278.1,53.2"/>
		<path id="Path_12506" class="st3" d="M279.1,191.1c-0.3,0.1-0.5,0.2-0.4,0.5L279.1,191.1"/>
		<path id="Path_12507" class="st3" d="M230.9,120.6l0.4-0.6L230.9,120.6"/>
		<path id="Path_12508" class="st3" d="M95.2,195.9l0.3,0l0.3,0C95.6,195.7,95.4,195.7,95.2,195.9"/>
		<path id="Path_12509" class="st3" d="M300.9,147.3c-0.3,0.1-0.5,0.2-0.4,0.6L300.9,147.3"/>
		<path id="Path_12510" class="st3" d="M171.8,264.5c-0.4-0.1-0.5,0.2-0.6,0.4L171.8,264.5"/>
		<path id="Path_12511" class="st4" d="M262.6,72.9c-1.7,4.7-2.9,9.5-3.7,14.4c-2.7,13.4-4.8,26.9-7.8,40.2
			c-2.5,10.9-6,21.6-11.6,31.4c-5.1,8.9-11.6,16.8-19.2,23.7c-5.6,5.1-11.6,9.8-17.6,14.5c-2.4,1.9-5,3.5-7.9,4.6
			c-2.5,0.9-4.5,3-7,4.1c-5.5,2.6-11.2,4.7-16.7,7.2c-9.1,4-18.9,5.9-28.5,8c-9.4,2-18.9,3.2-28.5,3.7c-13,0.7-26,0.5-39,0.2
			c-9-0.2-18-1.7-27-2.9c-9.3-1.3-18.5-3.4-27.9-3.9c-0.6,0-1.2-0.3-1.7,0.4c2.3,1.8,4.8,3.3,7.5,4.5c3.6,1.6,7,3.4,10.7,4.6
			c5.9,1.9,12,3.3,18.1,4.1c10.2,1.4,20.5,2.1,30.7,3c11.2,0.9,22.5,1.4,33.7,0.3c17.6-1.7,34.6-6.2,51.3-11.4
			c9.3-3.1,18.3-7.4,26.5-12.7c7.1-4.5,14.4-8.9,20.9-14.2c6.4-5.3,12.3-11,17.8-17.2c6.1-6.5,11-14,14.8-22.1
			c4.4-9.7,7.3-19.9,8.8-30.4c2.1-14.1,2.5-28.1,2.8-42.3C262.3,80.7,262.7,76.8,262.6,72.9"/>
		<path id="Path_12512" class="st5" d="M244,13.8c-0.4,0.1-1,0.2-0.7,0.7c0.3,0.5,0.7,0,0.9-0.3C244.2,14,244.1,13.9,244,13.8"/>
	</g>
</g>
</svg>
